<?xml version="1.0" encoding="UTF-8"?>
<svg id="Layer_1" data-name="Layer 1" xmlns="http://www.w3.org/2000/svg" viewBox="0 0 360 100">
  <defs>
    <style>
      .cls-1 {
        fill: #fff;
      }

      .cls-2 {
        fill: #ff002a;
      }
    </style>
  </defs>
  <rect class="cls-2" width="360" height="100"/>
  <g>
    <path class="cls-1" d="M96.16,25.96c11.88,0,17.22,4.38,17.22,12.18,0,3.6-1.32,6.42-3.3,8.16,5.4,1.56,8.22,5.82,8.22,12.06,0,7.5-6.18,12.6-17.4,12.6h-31.8V25.96h27.06ZM90.1,46.36h1.32c1.74,0,2.7-.96,2.7-3s-.96-3-2.7-3h-1.32v6ZM90.1,56.56h2.52c1.86,0,2.88-.84,2.88-3s-1.02-3-2.88-3h-2.52v6Z"/>
    <path class="cls-1" d="M141.28,25.96v24.42c0,1.74.54,2.52,1.8,2.52s1.8-.78,1.8-2.52v-24.42h16.2v24.9c0,12.42-7.38,20.7-20.58,20.7s-20.52-8.28-20.52-20.7v-24.9h21.3Z"/>
    <path class="cls-1" d="M192.04,44.8c6.24,1.98,9.42,6.18,9.42,13.14,0,8.52-6.54,13.5-19.38,13.5-6.6,0-12.54-.48-18.66-1.62v-18.06c4.5.78,9,1.2,13.62,1.2v-.9l-4.26-1.44c-6.24-2.1-9.42-6.3-9.42-11.88,0-7.86,5.4-13.38,19.14-13.38,5.94,0,10.26.24,16.56.84v16.86c-3.9-.42-7.5-.6-11.52-.6v.9l4.5,1.44Z"/>
    <path class="cls-1" d="M211.36,43.96h-9.6v-18h40.2v18h-9.6v27h-21v-27Z"/>
    <path class="cls-1" d="M243.46,48.52c0-12.24,7.74-22.92,24.66-22.92s24.66,10.68,24.66,22.92c0,12.84-7.74,23.1-24.66,23.1s-24.66-10.26-24.66-23.1ZM271.78,48.52c0-2.7-1.2-4.32-3.66-4.32s-3.66,1.62-3.66,4.32c0,2.94,1.2,4.2,3.66,4.2s3.66-1.26,3.66-4.2Z"/>
  </g>
</svg>