<?xml version="1.0" encoding="UTF-8"?>
<svg id="Layer_1" xmlns="http://www.w3.org/2000/svg" version="1.1" viewBox="0 0 1210 5093.6">
  <!-- Generator: Adobe Illustrator 29.1.0, SVG Export Plug-In . SVG Version: 2.1.0 Build 142)  -->
  <defs>
    <style>
      .st0 {
        fill: #fff;
      }
    </style>
  </defs>
  <rect class="st0" width="1210" height="5043.3"/>
  <rect x="-115.1" y="1288.5" width="1440.2" height="269.3"/>
  <rect x="-115.1" y="287.2" width="1440.2" height="132.6"/>
  <rect x="-115.1" y="683.7" width="1440.2" height="179.7"/>
  <rect x="-115.1" y="1942.9" width="1440.2" height="696.3"/>
  <rect x="-115.1" y="2792.4" width="1440.2" height="139.9"/>
  <g>
    <path class="st0" d="M2.1,361.8v-21.3H-3.1v-32.8l53.9-22.1v22.1h11.1v32.8h-11.1v13.9c0,4.7,1.5,7.3,6.1,7.3s4.7-.3,7-.8v37.5c-6.9,1.5-13.6,2.3-22.2,2.3-27.7,0-39.6-14.9-39.6-38.9Z"/>
    <path class="st0" d="M70,282.6h48.8v36c5.2-8.4,14-12.3,25.9-12.3,19.4,0,30.5,13,30.5,34.7v58.2h-48.8v-51.8c0-4.7-1.8-6.4-5.9-6.4h-1.7v58.2h-48.8v-116.5h0Z"/>
    <path class="st0" d="M228.6,359.1c.6,4.4,3.4,5.9,9.8,5.9,11,0,21.3-.8,37.2-1.8v34.6c-16.1,2.3-26.4,2.9-41.1,2.9-38.1,0-53.2-20.3-53.2-48.5s19.8-46,51.6-46,46.6,16.1,46.6,42.2v10.7h-50.9,0ZM228.5,342.3v6.1h9.1v-6.1c0-3-1.7-4.7-4.6-4.7s-4.6,1.7-4.6,4.7h0Z"/>
    <path class="st0" d="M314.1,395.7c11.1,4.1,22.7,6.5,34.6,6.5s19.5-3.8,19.5-11.4v-8.7c-4.1,11-12.8,14.9-26,14.9-19.6,0-35.6-16.8-35.6-43.7s16-47.1,38.5-47.1,21.8,5.8,27.4,14.6l3.5-13.1h41v68.1c0,40.4-18.9,62.2-65.2,62.2s-26-2-37.6-5v-37.3h0ZM368.2,361.7v-16.5h-4.4c-5,0-7.8,2.4-7.8,8.2s2.7,8.2,7.8,8.2h4.4Z"/>
    <path class="st0" d="M423,353.3c0-27.1,18-47.8,52.4-47.8s52.4,20.7,52.4,47.8-18,48.1-52.4,48.1-52.4-21.3-52.4-48.1h0ZM482.1,353.3c0-6.2-2.3-9-6.7-9s-6.7,2.7-6.7,9,2.3,8.5,6.7,8.5,6.7-2.3,6.7-8.5Z"/>
    <path class="st0" d="M532.2,283.4c0-10.2,8.4-18.3,26-18.3s26,8.1,26,18.3-8.1,18.4-26,18.4-26-7.8-26-18.4ZM533.9,307.8h48.8v91.4h-48.8v-91.4Z"/>
    <path class="st0" d="M590.3,307.8h39.3l4.3,12.5c5.8-9,15.8-14,28.6-14,20.6,0,32.9,14.5,32.9,34.7v58.2h-48.8v-51.8c0-4.7-1.8-6.4-5.9-6.4h-1.7v58.2h-48.8v-91.4h0Z"/>
    <path class="st0" d="M709.1,395.7c11.1,4.1,22.7,6.5,34.6,6.5s19.5-3.8,19.5-11.4v-8.7c-4.1,11-12.8,14.9-26,14.9-19.7,0-35.7-16.8-35.7-43.7s16-47.1,38.5-47.1,21.8,5.8,27.4,14.6l3.5-13.1h41v68.1c0,40.4-18.9,62.2-65.2,62.2s-26-2-37.6-5v-37.3h0ZM763.2,361.7v-16.5h-4.4c-5,0-7.8,2.4-7.8,8.2s2.7,8.2,7.8,8.2h4.4Z"/>
    <path class="st0" d="M848.1,395.7c11.1,4.1,22.7,6.5,34.6,6.5s19.5-3.8,19.5-11.4v-8.7c-4.1,11-12.8,14.9-26,14.9-19.7,0-35.7-16.8-35.7-43.7s16-47.1,38.5-47.1,21.8,5.8,27.4,14.6l3.5-13.1h41v68.1c0,40.4-18.9,62.2-65.2,62.2s-26-2-37.6-5v-37.3h0ZM902.2,361.7v-16.5h-4.4c-5,0-7.8,2.4-7.8,8.2s2.7,8.2,7.8,8.2h4.4Z"/>
    <path class="st0" d="M1004.4,359.1c.6,4.4,3.3,5.9,9.8,5.9,11,0,21.3-.8,37.2-1.8v34.6c-16.2,2.3-26.4,2.9-41.1,2.9-38.1,0-53.2-20.3-53.2-48.5s19.8-46,51.6-46,46.6,16.1,46.6,42.2v10.7h-50.9ZM1004.2,342.3v6.1h9.1v-6.1c0-3-1.7-4.7-4.6-4.7s-4.6,1.7-4.6,4.7Z"/>
    <path class="st0" d="M1064.2,361.8v-21.3h-5.2v-32.8l53.9-22.1v22.1h11.1v32.8h-11.1v13.9c0,4.7,1.5,7.3,6.1,7.3s4.7-.3,7-.8v37.5c-6.9,1.5-13.6,2.3-22.2,2.3-27.7,0-39.6-14.9-39.6-38.9Z"/>
    <path class="st0" d="M1196.2,349.8c9.8,5.5,16.2,12.5,16.2,24.8s-11.4,25.3-42.1,25.3-27.3-.9-38.8-2.7v-35.6c9.9,1.2,16.8,1.7,27.7,1.8v-1.8l-10.2-4.3c-11.3-4.7-18.3-11.7-18.3-25s11.4-25.3,42.1-25.3,22.6.3,36.1,1.8v33.5c-9.8-.8-15.4-1.1-25.1-1.1v1.5l12.5,7h0Z"/>
  </g>
  <g>
    <path class="st0" d="M-8.8,785.4v-32h-7.8v-49.2l81-33.2v33.2h16.7v49.2h-16.7v20.8c0,7.1,2.3,11,9.2,11s7.1-.5,10.5-1.1v56.3c-10.3,2.3-20.4,3.4-33.4,3.4-41.6,0-59.5-22.4-59.5-58.3h0Z"/>
    <path class="st0" d="M93.2,666.5h73.2v54c7.8-12.6,21-18.5,38.9-18.5,29.1,0,45.8,19.4,45.8,52.2v87.4h-73.2v-77.8c0-7.1-2.7-9.6-8.9-9.6h-2.5v87.4h-73.2v-175h0Z"/>
    <path class="st0" d="M331.3,781.3c.9,6.6,5,8.9,14.6,8.9,16.5,0,32-1.1,55.8-2.8v51.9c-24.2,3.4-39.6,4.3-61.8,4.3-57.2,0-79.8-30.4-79.8-72.7s29.7-69.1,77.5-69.1,70,24.2,70,63.4v16h-76.4ZM331.1,756.1v9.2h13.7v-9.2c0-4.6-2.5-7.1-6.9-7.1s-6.9,2.5-6.9,7.1h0Z"/>
    <path class="st0" d="M454.8,785.4v-32h-7.8v-49.2l81-33.2v33.2h16.7v49.2h-16.7v20.8c0,7.1,2.3,11,9.2,11s7.1-.5,10.5-1.1v56.3c-10.3,2.3-20.4,3.4-33.4,3.4-41.6,0-59.5-22.4-59.5-58.3h0Z"/>
    <path class="st0" d="M554.6,772.6c0-40.7,27-71.8,78.7-71.8s78.7,31.1,78.7,71.8-27,72.3-78.7,72.3-78.7-32-78.7-72.3h0ZM643.3,772.6c0-9.4-3.4-13.5-10.1-13.5s-10.1,4.1-10.1,13.5,3.4,12.8,10.1,12.8,10.1-3.4,10.1-12.8Z"/>
    <path class="st0" d="M878.9,841.5h-59l-6-18.3c-8.2,13.3-22.4,20.6-41.2,20.6-34.8,0-51.7-21.5-51.7-58.8v-80.8h73.2v77.5c0,5.7,1.6,7.8,7.1,7.8h4.3v-85.3h73.2v137.2h0Z"/>
    <path class="st0" d="M899.5,836.2c16.7,6.2,34.1,9.8,51.9,9.8s29.3-5.7,29.3-17.2v-13c-6.2,16.5-19.2,22.4-39.1,22.4-29.5,0-53.5-25.2-53.5-65.7s24-70.7,57.9-70.7,32.7,8.7,41.2,22l5.3-19.7h61.5v102.2c0,60.6-28.4,93.3-97.9,93.3s-39.1-3-56.5-7.5v-56h0ZM980.7,785.2v-24.7h-6.6c-7.5,0-11.7,3.7-11.7,12.3s4.1,12.3,11.7,12.3h6.6Z"/>
    <path class="st0" d="M1065.3,666.5h73.2v54c7.8-12.6,21-18.5,38.9-18.5,29.1,0,45.8,19.4,45.8,52.2v87.4h-73.2v-77.8c0-7.1-2.7-9.6-8.9-9.6h-2.5v87.4h-73.2v-175h0Z"/>
  </g>
  <g>
    <path d="M48,1239c44.6,16.5,91,26.2,138.6,26.2s78.1-15.3,78.1-45.8v-34.8c-16.5,44-51.3,59.8-104.4,59.8-78.8,0-142.9-67.2-142.9-175.2s64.1-188.6,154.4-188.6,87.3,23.2,109.9,58.6l14-52.5h164.2v272.9c0,161.8-75.7,249.1-261.3,249.1s-104.4-7.9-150.8-20.2v-149.6h0ZM264.7,1102.8v-65.9h-17.7c-20.1,0-31.1,9.8-31.1,33s11,33,31.1,33h17.7Z"/>
    <path d="M674.4,1092.5c2.4,17.7,13.4,23.8,39.1,23.8,44,0,85.5-3.1,149-7.3v138.6c-64.7,9.2-105.6,11.6-164.8,11.6-152.6,0-213.1-81.2-213.1-194.1s79.4-184.4,207-184.4,186.8,64.7,186.8,169.1v42.7h-203.9ZM673.8,1025.3v24.4h36.6v-24.4c0-12.2-6.7-18.9-18.3-18.9s-18.3,6.7-18.3,18.9h0Z"/>
    <path d="M914.3,1103.4v-85.5h-20.8v-131.2l216.1-88.5v88.5h44.6v131.2h-44.6v55.6c0,18.9,6.1,29.3,24.4,29.3s18.9-1.2,28.1-3.1v150.2c-27.5,6.1-54.3,9.2-89.1,9.2-111.1,0-158.7-59.8-158.7-155.7h0Z"/>
  </g>
  <g>
    <path class="st0" d="M147.6,1283.9c33.9,0,60.3,2,87,4.9v99.2c-31.3-.7-52.4-1.7-76.4-1.7s-37.9,8.6-37.9,23.1,6.9,21.4,18.4,21.4,4.6,0,6.6-.3v-28h112v121.2c-37.2,10.2-65.9,12.5-104.8,12.5-105.8,0-149.2-62.9-149.2-127.2s38.9-125.2,144.3-125.2h0Z"/>
    <path class="st0" d="M268.8,1409.4c0-67.2,42.5-125.8,135.4-125.8s135.4,58.6,135.4,125.8-42.5,126.8-135.4,126.8-135.4-56.3-135.4-126.8h0ZM424.3,1409.4c0-14.8-6.6-23.7-20.1-23.7s-20.1,8.9-20.1,23.7,6.6,23.1,20.1,23.1,20.1-6.9,20.1-23.1Z"/>
    <path class="st0" d="M668.1,1285.6v247.1h-115.3v-247.1h115.3Z"/>
    <path class="st0" d="M684.6,1285.6h96.5l49.1,74.4h4.9v-74.4h100.5v247.1h-96.5l-49.1-74.4h-4.9v74.4h-100.5v-247.1h0Z"/>
    <path class="st0" d="M1093.1,1283.9c33.9,0,60.3,2,87,4.9v99.2c-31.3-.7-52.4-1.7-76.4-1.7s-37.9,8.6-37.9,23.1,6.9,21.4,18.4,21.4,4.6,0,6.6-.3v-28h112v121.2c-37.2,10.2-65.9,12.5-104.8,12.5-105.8,0-149.2-62.9-149.2-127.2s38.9-125.2,144.3-125.2h0Z"/>
  </g>
  <g>
    <path d="M21.1,1627.8c14.1,4.5,21.2,13.9,21.2,29.6s-14.7,30.4-43.7,30.4-28.3-1.1-42.1-3.7v-40.7c10.1,1.8,20.3,2.7,30.7,2.7v-2l-9.6-3.2c-14.1-4.7-21.2-14.2-21.2-26.8s12.2-30.2,43.2-30.2,23.1.5,37.3,1.9v38c-8.8-.9-16.9-1.3-26-1.3v2l10.1,3.2h0Z"/>
    <path d="M63.3,1626h-21.6v-40.6h90.6v40.6h-21.6v60.9h-47.3v-60.9Z"/>
    <path d="M184.4,1585.4v101.4h-47.3v-101.4h47.3Z"/>
    <path d="M191.1,1585.4h47.3v60.9h21.9v40.6h-69.2v-101.4h0Z"/>
    <path d="M266.5,1585.4h47.3v60.9h21.9v40.6h-69.2v-101.4h0Z"/>
    <path d="M361.7,1585.4h39.6l20.1,30.6h2v-30.6h41.2v101.4h-39.6l-20.1-30.6h-2v30.6h-41.2v-101.4h0Z"/>
    <path d="M470.2,1636.2c0-27.6,17.5-51.7,55.6-51.7s55.6,24.1,55.6,51.7-17.5,52.1-55.6,52.1-55.6-23.1-55.6-52.1ZM534,1636.2c0-6.1-2.7-9.7-8.2-9.7s-8.2,3.7-8.2,9.7,2.7,9.5,8.2,9.5,8.2-2.8,8.2-9.5Z"/>
    <path d="M606.6,1585.4h59.2l11.5,31.8h2l10.1-31.8h49.2v101.4h-47.3v-31.8h-2l-10.1,31.8h-28.7l-11.5-31.8h-2v31.8h-30.4v-101.4h0Z"/>
    <path d="M793.6,1585.4v55.1c0,3.9,1.2,5.7,4.1,5.7s4.1-1.8,4.1-5.7v-55.1h36.5v56.1c0,28-16.6,46.7-46.4,46.7s-46.3-18.7-46.3-46.7v-56.1h48,0Z"/>
    <path d="M906.8,1627.8c14.1,4.5,21.2,13.9,21.2,29.6s-14.7,30.4-43.7,30.4-28.3-1.1-42.1-3.7v-40.7c10.1,1.8,20.3,2.7,30.7,2.7v-2l-9.6-3.2c-14.1-4.7-21.2-14.2-21.2-26.8s12.2-30.2,43.2-30.2,23.1.5,37.3,1.9v38c-8.8-.9-16.9-1.3-26-1.3v2l10.1,3.2h0Z"/>
    <path d="M997.9,1627.8c14.1,4.5,21.2,13.9,21.2,29.6s-14.7,30.4-43.7,30.4-28.3-1.1-42.1-3.7v-40.7c10.1,1.8,20.3,2.7,30.7,2.7v-2l-9.6-3.2c-14.1-4.7-21.2-14.2-21.2-26.8s12.2-30.2,43.2-30.2,23.1.5,37.3,1.9v38c-8.8-.9-16.9-1.3-26-1.3v2l10.1,3.2h0Z"/>
    <path d="M-44.8,1753.2c0-27.6,17.5-51.7,55.6-51.7s55.6,24.1,55.6,51.7-17.5,52.1-55.6,52.1-55.6-23.1-55.6-52.1ZM19.1,1753.2c0-6.1-2.7-9.7-8.2-9.7s-8.2,3.7-8.2,9.7,2.7,9.5,8.2,9.5,8.2-2.8,8.2-9.5Z"/>
    <path d="M122.5,1778.3h-3.4v25.6h-47.3v-101.4h64.8c29.9,0,45.9,16.2,45.9,39.8s-4.3,20.8-13.4,27.9l15.7,33.8h-52.1l-10.1-25.6h0ZM119,1740.2v11.6h9.2c4.2,0,6.1-1.8,6.1-5.8s-1.9-5.8-6.1-5.8h-9.2Z"/>
    <path d="M223.2,1702.4h68.8l18.7,101.4h-48.6l-2.4-13.8h-20.3l-2,13.8h-32.7l18.5-101.4h0ZM243.5,1763h11.6l-4.5-25.4h-3.4l-3.8,25.4Z"/>
    <path d="M314.8,1702.4h39.6l20.1,30.6h2v-30.6h41.2v101.4h-39.6l-20.1-30.6h-2v30.6h-41.2v-101.4h0Z"/>
    <path d="M471,1702.4l7.4,21.4h2l6.6-21.4h30.2l-25.7,71.6v29.9h-47.3v-41.4l-25-60.1h51.8Z"/>
    <path d="M538.5,1702.4h76.2v39.2h-28.8v6.8h26.8v29.8h-26.8v25.7h-47.3v-101.4h0Z"/>
    <path d="M666.7,1702.4v55.1c0,3.9,1.2,5.7,4.1,5.7s4.1-1.8,4.1-5.7v-55.1h36.5v56.1c0,28-16.6,46.7-46.4,46.7s-46.3-18.7-46.3-46.7v-56.1h48,0Z"/>
    <path d="M779.9,1744.8c14.1,4.5,21.2,13.9,21.2,29.6s-14.7,30.4-43.7,30.4-28.3-1.1-42.1-3.7v-40.7c10.1,1.8,20.3,2.7,30.7,2.7v-2l-9.6-3.2c-14.1-4.7-21.2-14.2-21.2-26.8s12.2-30.2,43.2-30.2,23.1.5,37.3,1.9v38c-8.8-.9-16.9-1.3-26-1.3v2l10.1,3.2h0Z"/>
    <path d="M871.1,1744.8c14.1,4.5,21.2,13.9,21.2,29.6s-14.7,30.4-43.7,30.4-28.3-1.1-42.1-3.7v-40.7c10.1,1.8,20.3,2.7,30.7,2.7v-2l-9.6-3.2c-14.1-4.7-21.2-14.2-21.2-26.8s12.2-30.2,43.2-30.2,23.1.5,37.3,1.9v38c-8.8-.9-16.9-1.3-26-1.3v2l10.1,3.2h0Z"/>
    <path d="M-27.6,1819.4H41.2l18.7,101.4H11.4l-2.4-13.8H-11.4l-2,13.8h-32.7l18.5-101.4h0ZM-7.3,1880H4.3l-4.5-25.4h-3.4l-3.8,25.4Z"/>
    <path d="M64,1819.4h39.6l20.2,30.6h2v-30.6h41.3v101.4h-39.6l-20.2-30.6h-2v30.6h-41.2v-101.4h0Z"/>
    <path d="M225.1,1819.4c40,0,54.8,26,54.8,50.7s-14.7,50.7-54.8,50.7h-51.3v-101.4h51.3ZM221.1,1882.3h2.7c4.6,0,8-2,8-12.2s-3.4-12.2-8-12.2h-2.7v24.3h0Z"/>
    <path d="M305.1,1819.4h39.6l20.1,30.6h2v-30.6h41.2v101.4h-39.6l-20.1-30.6h-2v30.6h-41.2v-101.4h0Z"/>
    <path d="M413.6,1870.2c0-27.6,17.5-51.7,55.6-51.7s55.6,24.1,55.6,51.7-17.5,52.1-55.6,52.1-55.6-23.1-55.6-52.1ZM477.5,1870.2c0-6.1-2.7-9.7-8.2-9.7s-8.2,3.7-8.2,9.7,2.7,9.5,8.2,9.5,8.2-2.8,8.2-9.5Z"/>
    <path d="M611.1,1819.4c26.8,0,38.8,9.9,38.8,27.5s-3,14.5-7.4,18.4c12.2,3.5,18.5,13.1,18.5,27.2s-13.9,28.4-39.2,28.4h-71.7v-101.4h61,0ZM597.4,1865.4h3c3.9,0,6.1-2.2,6.1-6.8s-2.2-6.8-6.1-6.8h-3v13.5h0ZM597.4,1888.4h5.7c4.2,0,6.5-1.9,6.5-6.8s-2.3-6.8-6.5-6.8h-5.7v13.5h0Z"/>
    <path d="M711,1819.4v55.1c0,3.9,1.2,5.7,4.1,5.7s4.1-1.8,4.1-5.7v-55.1h36.5v56.1c0,28-16.6,46.7-46.4,46.7s-46.3-18.7-46.3-46.7v-56.1h48,0Z"/>
    <path d="M762.5,1819.4h47.3v60.9h21.9v40.6h-69.2v-101.4h0Z"/>
    <path d="M837.8,1819.4h47.3v60.9h21.9v40.6h-69.2v-101.4h0Z"/>
    <path d="M976.3,1861.8c14.1,4.5,21.2,13.9,21.2,29.6s-14.7,30.4-43.7,30.4-28.3-1.1-42.1-3.7v-40.7c10.1,1.8,20.3,2.7,30.7,2.7v-2l-9.6-3.2c-14.1-4.7-21.2-14.2-21.2-26.8s12.2-30.2,43.2-30.2,23.1.5,37.3,1.9v38c-8.8-.9-16.9-1.3-26-1.3v2l10.1,3.2h0Z"/>
    <path d="M1050.3,1819.4v39.4h6.8v-39.4h47.3v101.4h-47.3v-35h-6.8v35h-47.3v-101.4h47.3Z"/>
    <path d="M1158.5,1819.4v101.4h-47.3v-101.4h47.3Z"/>
    <path d="M1184.9,1860h-21.6v-40.6h90.6v40.6h-21.6v60.9h-47.3v-60.9Z"/>
  </g>
  <g>
    <path d="M140,2768.8h-43.7l-3.1-10.4c-6.1,7.5-15.7,11.9-28.3,11.9-21.5,0-37.2-15.4-37.2-49s15.7-48.4,37.2-48.4,22.6,5.5,28.6,13.8l2.8-12.2h43.7v94.2h0ZM89.7,2730.5v-17.9h-3c-5.2,0-8,2.2-8,8.9s2.8,8.9,8,8.9h3Z"/>
    <path d="M213.8,2717.9c10.1,5.6,16.6,12.9,16.6,25.6s-11.8,26.1-43.3,26.1-28.1-.9-40-2.8v-36.7c10.2,1.3,17.3,1.7,28.6,1.9v-1.9l-10.5-4.4c-11.6-4.9-18.8-12.1-18.8-25.8s11.8-26.1,43.3-26.1,23.2.3,37.2,1.9v34.5c-10.1-.8-15.9-1.1-25.9-1.1v1.6l12.9,7.2h0Z"/>
    <path d="M258,2649.5c0-10.5,8.6-18.8,26.9-18.8s26.9,8.3,26.9,18.8-8.3,19-26.9,19-26.9-8-26.9-19ZM259.8,2674.6h50.2v94.2h-50.2v-94.2Z"/>
    <path d="M317.9,2674.6h40.5l4.4,12.9c6-9.3,16.3-14.4,29.5-14.4,21.2,0,33.9,14.9,33.9,35.8v60h-50.2v-53.4c0-4.9-1.9-6.6-6.1-6.6h-1.7v60h-50.2v-94.2h0Z"/>
    <path d="M516,2739.1h-3.9v29.7h-55v-117.8h75.2c34.7,0,53.2,18.8,53.2,46.2s-5,24.2-15.5,32.3l18.2,39.2h-60.4l-11.8-29.7h0ZM511.9,2695v13.5h10.7c4.9,0,7.1-2,7.1-6.8s-2.2-6.8-7.1-6.8h-10.7Z"/>
    <path d="M586.6,2721.5c0-27.9,18.5-49.3,54-49.3s54,21.4,54,49.3-18.5,49.6-54,49.6-54-22-54-49.6ZM647.5,2721.5c0-6.4-2.3-9.3-6.9-9.3s-6.9,2.8-6.9,9.3,2.3,8.8,6.9,8.8,6.9-2.4,6.9-8.8Z"/>
    <path d="M700.9,2648.7h50.2v32.3c6.4-5,14.6-8,23.7-8,25.4,0,39.2,19.9,39.2,49.1s-17.4,48.2-39.2,48.2-21.5-4.6-28.3-12.7l-4.5,11.1h-41.1v-120.1h0ZM751.2,2711v17.9h3.9c5.2,0,8-2.2,8-8.9s-2.8-8.9-8-8.9h-3.9Z"/>
    <path d="M928.7,2768.8h-40.5l-4.1-12.6c-5.7,9.1-15.4,14.1-28.3,14.1-23.9,0-35.5-14.8-35.5-40.4v-55.4h50.2v53.2c0,3.9,1.1,5.3,4.9,5.3h3v-58.6h50.2v94.2h0Z"/>
    <path d="M1002.5,2717.9c10,5.6,16.6,12.9,16.6,25.6s-11.8,26.1-43.3,26.1-28.1-.9-40-2.8v-36.7c10.2,1.3,17.3,1.7,28.6,1.9v-1.9l-10.5-4.4c-11.6-4.9-18.8-12.1-18.8-25.8s11.8-26.1,43.3-26.1,23.2.3,37.2,1.9v34.5c-10-.8-15.9-1.1-25.9-1.1v1.6l12.9,7.2h0Z"/>
    <path d="M1025.3,2730.3v-22h-5.3v-33.8l55.6-22.8v22.8h11.5v33.8h-11.5v14.3c0,4.9,1.6,7.5,6.3,7.5s4.9-.3,7.2-.8v38.6c-7.1,1.6-14,2.4-22.9,2.4-28.6,0-40.8-15.4-40.8-40h0Z"/>
    <path d="M1093.7,2721.5c0-27.9,18.5-49.3,54-49.3s54,21.4,54,49.3-18.5,49.6-54,49.6-54-22-54-49.6ZM1154.7,2721.5c0-6.4-2.3-9.3-6.9-9.3s-6.9,2.8-6.9,9.3,2.3,8.8,6.9,8.8,6.9-2.4,6.9-8.8Z"/>
  </g>
  <g>
    <path d="M67.8,2985.6c-2.8-.3-3.7-.4-6.1-.4-3.7,0-5.1,1.9-5.1,4.7s1.5,4.6,5.1,4.6,3.3,0,6.1-.4v25.8c-3.8.6-7.1.8-11.1.8-19.1,0-30.1-13.7-30.1-30.8s10.9-30.8,30.1-30.8,6.6.2,11.1.8v25.7h0Z"/>
    <path d="M70.2,2989.9c0-16.6,10.5-31,33.3-31s33.4,14.4,33.4,31-10.5,31.2-33.3,31.2-33.3-13.9-33.4-31.2ZM108.5,2989.9c0-3.6-1.6-5.8-4.9-5.8s-4.9,2.2-4.9,5.8,1.6,5.7,4.9,5.7,4.9-1.7,4.9-5.7Z"/>
    <path d="M140.2,2959.4h23.8l12.1,18.3h1.2v-18.3h24.8v60.9h-23.8l-12.1-18.3h-1.2v18.3h-24.8v-60.9Z"/>
    <path d="M246.5,2985.6c-2.8-.3-3.7-.4-6.1-.4-3.6,0-5.1,1.9-5.1,4.7s1.5,4.6,5.1,4.6,3.3,0,6.1-.4v25.8c-3.8.6-7.1.8-11.1.8-19.1,0-30.1-13.7-30.1-30.8s10.9-30.8,30.1-30.8,6.6.2,11.1.8v25.7h0Z"/>
    <path d="M250.6,2959.4h48.9v21.9h-20.5v3.6h16.5v8.5h-16.5v3.6h21.5v23.1h-49.9v-60.9h0Z"/>
    <path d="M342.4,2984.9c8.4,2.7,12.7,8.4,12.7,17.8s-8.9,18.3-26.2,18.3-17-.6-25.2-2.2v-24.4c6.1,1.1,12.2,1.6,18.4,1.6v-1.2l-5.8-1.9c-8.4-2.8-12.7-8.5-12.7-16.1s7.3-18.1,25.9-18.1,13.9.3,22.4,1.1v22.8c-5.3-.6-10.1-.8-15.6-.8v1.2l6.1,1.9h0Z"/>
    <path d="M397.1,2984.9c8.4,2.7,12.7,8.4,12.7,17.8s-8.9,18.3-26.2,18.3-17-.6-25.2-2.2v-24.4c6.1,1.1,12.2,1.6,18.4,1.6v-1.2l-5.8-1.9c-8.4-2.8-12.7-8.5-12.7-16.1s7.3-18.1,25.9-18.1,13.9.3,22.4,1.1v22.8c-5.3-.6-10.1-.8-15.6-.8v1.2l6.1,1.9h0Z"/>
    <path d="M441.5,2959.4v60.9h-28.4v-60.9h28.4Z"/>
    <path d="M444.7,2989.9c0-16.6,10.5-31,33.4-31s33.4,14.4,33.4,31-10.5,31.2-33.4,31.2-33.4-13.9-33.4-31.2ZM483,2989.9c0-3.6-1.6-5.8-5-5.8s-5,2.2-5,5.8,1.6,5.7,5,5.7,5-1.7,5-5.7Z"/>
    <path d="M514.7,2959.4h23.8l12.1,18.3h1.2v-18.3h24.8v60.9h-23.8l-12.1-18.3h-1.2v18.3h-24.8v-60.9Z"/>
    <path d="M590.1,2959.4h41.3l11.2,60.9h-29.1l-1.5-8.3h-12.2l-1.2,8.3h-19.6l11.1-60.9ZM602.2,2995.8h7l-2.7-15.3h-2l-2.3,15.3h0Z"/>
    <path d="M675.5,3005h-2v15.3h-28.4v-60.9h38.9c17.9,0,27.5,9.7,27.5,23.9s-2.6,12.5-8,16.7l9.4,20.3h-31.2l-6.1-15.3h0ZM673.3,2982.1v7h5.5c2.5,0,3.7-1.1,3.7-3.5s-1.1-3.5-3.7-3.5h-5.5Z"/>
    <path d="M737.4,2959.4l4.5,12.8h1.2l4-12.8h18.1l-15.4,42.9v17.9h-28.4v-24.8l-15-36h31.1,0Z"/>
    <path d="M818.3,2985.6c-2.8-.3-3.7-.4-6.1-.4-3.7,0-5.1,1.9-5.1,4.7s1.5,4.6,5.1,4.6,3.3,0,6.1-.4v25.8c-3.8.6-7.1.8-11.1.8-19.2,0-30.1-13.7-30.1-30.8s11-30.8,30.1-30.8,6.6.2,11.1.8v25.7h0Z"/>
    <path d="M820.7,2989.9c0-16.6,10.5-31,33.3-31s33.3,14.4,33.3,31-10.5,31.2-33.3,31.2-33.3-13.9-33.3-31.2ZM859,2989.9c0-3.6-1.6-5.8-5-5.8s-5,2.2-5,5.8,1.6,5.7,5,5.7,5-1.7,5-5.7Z"/>
    <path d="M890.7,2959.4h23.8l12.1,18.3h1.2v-18.3h24.8v60.9h-23.8l-12.1-18.3h-1.2v18.3h-24.8v-60.9Z"/>
    <path d="M968.3,2983.8h-13v-24.3h54.4v24.3h-13v36.5h-28.4v-36.5h0Z"/>
    <path d="M1012.5,2959.4h48.9v21.9h-20.5v3.6h16.5v8.5h-16.5v3.6h21.5v23.1h-49.9v-60.9h0Z"/>
    <path d="M1104.4,2984.9c8.4,2.7,12.7,8.4,12.7,17.8s-8.8,18.3-26.2,18.3-17-.6-25.2-2.2v-24.4c6.1,1.1,12.2,1.6,18.4,1.6v-1.2l-5.8-1.9c-8.4-2.8-12.7-8.5-12.7-16.1s7.3-18.1,25.9-18.1,13.9.3,22.4,1.1v22.8c-5.3-.6-10.1-.8-15.6-.8v1.2l6.1,1.9h0Z"/>
    <path d="M1129.7,2983.8h-13v-24.3h54.4v24.3h-13v36.5h-28.4v-36.5h0Z"/>
    <path d="M86.2,3155.5v18.8H29.4v-121.7h63.8c42.2,0,61.8,21.1,61.8,52.8s-24,50.1-58.8,50.1h-10.1,0ZM86.2,3097.2v23.4h2.4c5.2,0,8.9-2.4,8.9-11.7s-3.7-11.7-8.9-11.7h-2.4Z"/>
    <path d="M159.9,3052.6h97.9v43.8h-41.1v7.3h32.9v17h-32.9v7.3h43v46.2h-99.8v-121.7h0Z"/>
    <path d="M267.8,3052.6h47.5l24.2,36.7h2.4v-36.7h49.5v121.7h-47.5l-24.2-36.7h-2.4v36.7h-49.5v-121.7Z"/>
    <path d="M398,3113.6c0-33.1,20.9-62,66.7-62s66.7,28.9,66.7,62-20.9,62.5-66.7,62.5-66.7-27.8-66.7-62.5ZM474.6,3113.6c0-7.3-3.2-11.7-9.9-11.7s-9.9,4.4-9.9,11.7,3.2,11.4,9.9,11.4,9.9-3.4,9.9-11.4Z"/>
    <path d="M537.9,3052.6h56.8v73h26.3v48.7h-83.1v-121.7Z"/>
    <path d="M623.4,3113.6c0-33.1,20.9-62,66.7-62s66.7,28.9,66.7,62-20.9,62.5-66.7,62.5-66.7-27.8-66.7-62.5ZM700,3113.6c0-7.3-3.2-11.7-9.9-11.7s-9.9,4.4-9.9,11.7,3.2,11.4,9.9,11.4,9.9-3.4,9.9-11.4Z"/>
    <path d="M832.8,3051.8c16.7,0,29.7,1,42.8,2.4v48.9c-15.4-.3-25.8-.8-37.7-.8s-18.7,4.2-18.7,11.4,3.4,10.6,9.1,10.6,2.3,0,3.2-.2v-13.8h55.2v59.7c-18.3,5-32.5,6.2-51.6,6.2-52.1,0-73.5-31-73.5-62.6s19.2-61.7,71.1-61.7h0Z"/>
    <path d="M951,3052.6v121.7h-56.8v-121.7h56.8Z"/>
    <path d="M1036.5,3103.5c16.9,5.4,25.5,16.7,25.5,35.5s-17.7,36.5-52.4,36.5-33.9-1.3-50.5-4.4v-48.9c12.2,2.1,24.3,3.2,36.8,3.2v-2.4l-11.5-3.9c-16.9-5.7-25.5-17-25.5-32.1s14.6-36.2,51.8-36.2,27.7.6,44.8,2.3v45.6c-10.6-1.1-20.3-1.6-31.2-1.6v2.4l12.2,3.9h0Z"/>
    <path d="M1087.1,3101.3h-26v-48.7h108.7v48.7h-26v73h-56.8v-73Z"/>
    <path d="M147.1,3407.6v37.6H33.5v-243.4h127.6c84.4,0,123.7,42.2,123.7,105.5s-48,100.3-117.5,100.3h-20.1ZM147.1,3291.1v46.7h4.9c10.4,0,17.9-4.9,17.9-23.4s-7.5-23.4-17.9-23.4h-4.9Z"/>
    <path d="M313,3201.8h165.2l44.8,243.4h-116.5l-5.8-33.1h-48.7l-4.9,33.1h-78.5l44.5-243.4ZM361.6,3347.3h27.9l-10.7-61h-8.1l-9.1,61h0Z"/>
    <path d="M684.3,3303.8c33.8,10.7,51,33.4,51,71.1s-35.4,73-104.8,73-67.8-2.6-101-8.8v-97.7c24.3,4.2,48.7,6.5,73.7,6.5v-4.9l-23-7.8c-33.8-11.4-51-34.1-51-64.3s29.2-72.4,103.5-72.4,55.5,1.3,89.6,4.5v91.2c-21.1-2.3-40.6-3.2-62.3-3.2v4.9l24.3,7.8h0Z"/>
    <path d="M785.6,3299.2h-51.9v-97.4h217.5v97.4h-51.9v146.1h-113.6v-146.1h0Z"/>
    <path d="M1067.3,3201.8l17.8,51.3h4.9l15.9-51.3h72.4l-61.7,171.7v71.7h-113.6v-99.3l-60-144.1h124.3,0Z"/>
    <path d="M55.8,3481.4v60.9h-28.4v-60.9h28.4Z"/>
    <path d="M59.8,3493.6h20.9l2.3,6.6c3.1-4.8,8.4-7.5,15.3-7.5,10.9,0,17.5,7.7,17.5,18.5v31h-26v-27.6c0-2.5-1-3.4-3.2-3.4h-.9v31h-26v-48.7h0Z"/>
    <path d="M121.4,3522.4v-11.4h-2.8v-17.4l28.7-11.8v11.8h5.9v17.4h-5.9v7.4c0,2.5.8,3.9,3.2,3.9s2.5-.2,3.7-.4v20c-3.6.8-7.2,1.2-11.9,1.2-14.8,0-21.1-7.9-21.1-20.7h0Z"/>
    <path d="M181.2,3520.9c.3,2.4,1.8,3.2,5.2,3.2,5.8,0,11.4-.4,19.8-1v18.4c-8.6,1.2-14,1.5-21.9,1.5-20.3,0-28.3-10.8-28.3-25.8s10.6-24.5,27.5-24.5,24.8,8.6,24.8,22.5v5.7h-27.1ZM181.2,3512v3.2h4.9v-3.2c0-1.6-.9-2.5-2.4-2.5s-2.4.9-2.4,2.5h0Z"/>
    <path d="M211.6,3493.6h18.5l3.6,7.9c3.5-5.6,8.9-8.8,13.7-8.8v19.6c-3.1,0-6.6.2-9.9.7v29.1h-26v-48.7h0Z"/>
    <path d="M250.3,3493.6h20.9l2.4,7c2.8-4.6,7.9-7.8,15.2-7.8s11.3,2.3,14,7.7c2.9-4.6,8-7.7,15.2-7.7,10.5,0,17.5,6,17.5,21.8v27.7h-26v-26.8c0-3.3-.6-4.2-3.8-4.2h-.3c0,1.1,0,2.2,0,3.3v27.7h-25.2v-26.8c0-3.3-.6-4.2-3.8-4.2h-.2v31h-26v-48.7h0Z"/>
    <path d="M364,3520.9c.3,2.4,1.8,3.2,5.2,3.2,5.8,0,11.4-.4,19.8-1v18.4c-8.6,1.2-14,1.5-21.9,1.5-20.3,0-28.3-10.8-28.3-25.8s10.5-24.5,27.5-24.5,24.8,8.6,24.8,22.5v5.7h-27.1,0ZM363.9,3512v3.2h4.9v-3.2c0-1.6-.9-2.5-2.4-2.5s-2.4.9-2.4,2.5h0Z"/>
    <path d="M428.4,3516c5.2,2.9,8.6,6.6,8.6,13.2s-6.1,13.5-22.4,13.5-14.5-.5-20.7-1.5v-19c5.3.6,8.9.9,14.8,1v-1l-5.4-2.3c-6-2.5-9.7-6.2-9.7-13.3s6.1-13.5,22.4-13.5,12,.2,19.2,1v17.9c-5.2-.4-8.2-.6-13.4-.6v.8l6.6,3.7h0Z"/>
    <path d="M440.3,3480.2h26v19.1c2.8-4.5,7.5-6.6,13.8-6.6,10.3,0,16.2,6.9,16.2,18.5v31h-26v-27.6c0-2.5-1-3.4-3.2-3.4h-.9v31h-26v-62.1h0Z"/>
    <path d="M524.8,3520.9c.3,2.4,1.8,3.2,5.2,3.2,5.8,0,11.4-.4,19.8-1v18.4c-8.6,1.2-14,1.5-21.9,1.5-20.3,0-28.3-10.8-28.3-25.8s10.5-24.5,27.5-24.5,24.8,8.6,24.8,22.5v5.7h-27.1ZM524.7,3512v3.2h4.9v-3.2c0-1.6-.9-2.5-2.4-2.5s-2.4.9-2.4,2.5h0Z"/>
    <path d="M589.2,3516c5.2,2.9,8.6,6.6,8.6,13.2s-6.1,13.5-22.4,13.5-14.5-.5-20.7-1.5v-19c5.3.6,8.9.9,14.8,1v-1l-5.4-2.3c-6-2.5-9.7-6.2-9.7-13.3s6.1-13.5,22.4-13.5,12,.2,19.2,1v17.9c-5.2-.4-8.2-.6-13.4-.6v.8l6.7,3.7h0Z"/>
    <path d="M613,3481.4h48.9v21.9h-20.5v3.6h16.5v8.5h-16.5v3.6h21.5v23.1h-49.9v-60.9h0Z"/>
    <path d="M691.6,3493.6l4.8,17.4h1.2l5.4-17.4h17.6l-15.3,48.7h-25.5l-16.2-48.7h27.9Z"/>
    <path d="M776.2,3542.3h-22.6l-1.6-5.4c-3.2,3.9-8.1,6.2-14.6,6.2-11.1,0-19.2-7.9-19.2-25.3s8.1-25,19.2-25,11.7,2.8,14.8,7.1l1.5-6.3h22.6v48.7h0ZM750.2,3522.5v-9.2h-1.5c-2.7,0-4.1,1.1-4.1,4.6s1.5,4.6,4.1,4.6h1.5Z"/>
    <path d="M801.1,3493.6l2.6,7.6c3.2-5,8.6-8.4,15.3-8.4,10.7,0,19.7,9.1,19.7,25.4s-9,24.9-19.7,24.9-9.6-1.7-12.8-4.7v23h-26v-67.8h20.8ZM806.2,3513.6v9.2h2c2.7,0,4.1-1.1,4.1-4.6s-1.5-4.6-4.1-4.6h-2Z"/>
    <path d="M841.2,3517.9c0-14.4,9.6-25.5,27.9-25.5s27.9,11,27.9,25.5-9.6,25.6-27.9,25.6-27.9-11.4-27.9-25.6ZM872.6,3517.9c0-3.3-1.2-4.8-3.6-4.8s-3.6,1.5-3.6,4.8,1.2,4.5,3.6,4.5,3.6-1.2,3.6-4.5Z"/>
    <path d="M900.2,3493.6h18.5l3.7,7.9c3.5-5.6,8.9-8.8,13.7-8.8v19.6c-3.1,0-6.6.2-9.9.7v29.1h-26v-48.7h0Z"/>
    <path d="M995.3,3542.3h-22.6l-1.6-5.4c-3.2,3.9-8.1,6.2-14.6,6.2-11.1,0-19.2-7.9-19.2-25.3s8.1-25,19.2-25,11.7,2.8,14.8,7.1l1.5-6.3h22.6v48.7h0ZM969.4,3522.5v-9.2h-1.5c-2.7,0-4.1,1.1-4.1,4.6s1.5,4.6,4.1,4.6h1.5Z"/>
    <path d="M1000.9,3522.4v-11.4h-2.8v-17.4l28.7-11.8v11.8h5.9v17.4h-5.9v7.4c0,2.5.8,3.9,3.2,3.9s2.5-.2,3.7-.4v20c-3.7.8-7.2,1.2-11.8,1.2-14.8,0-21.1-7.9-21.1-20.7h0Z"/>
    <path d="M1036.2,3480.6c0-5.4,4.5-9.7,13.9-9.7s13.9,4.3,13.9,9.7-4.3,9.8-13.9,9.8-13.9-4.1-13.9-9.8ZM1037.1,3493.6h26v48.7h-26v-48.7Z"/>
    <path d="M1092.6,3493.6l4.8,17.4h1.2l5.4-17.4h17.6l-15.3,48.7h-25.5l-16.2-48.7h27.9Z"/>
    <path d="M1143.6,3520.9c.3,2.4,1.8,3.2,5.2,3.2,5.8,0,11.4-.4,19.8-1v18.4c-8.6,1.2-14,1.5-21.9,1.5-20.3,0-28.3-10.8-28.3-25.8s10.6-24.5,27.5-24.5,24.8,8.6,24.8,22.5v5.7h-27.1ZM1143.5,3512v3.2h4.9v-3.2c0-1.6-.9-2.5-2.4-2.5s-2.4.9-2.4,2.5h0Z"/>
    <path d="M27.8,3635.6c0-33.1,20.9-62,66.7-62s66.7,28.9,66.7,62-20.9,62.5-66.7,62.5-66.7-27.8-66.7-62.5ZM104.4,3635.6c0-7.3-3.2-11.7-9.9-11.7s-9.9,4.4-9.9,11.7,3.2,11.4,9.9,11.4,9.9-3.4,9.9-11.4Z"/>
    <path d="M166.1,3598.9h8.6c1.5-29.9,15.9-42.9,46.9-42.9s13.1.5,18.8,1.8v32.3c-2.6-.5-5.2-.8-8.3-.8s-5.7,1.6-5.7,5.5v4.1h12.3v34.9h-12.3v62.5h-51.9v-62.5h-8.4v-34.9h0Z"/>
    <path d="M243.7,3598.9h8.6c1.5-29.9,15.9-42.9,46.9-42.9s13.1.5,18.8,1.8v32.3c-2.6-.5-5.2-.8-8.3-.8s-5.7,1.6-5.7,5.5v4.1h12.3v34.9h-12.3v62.5h-51.9v-62.5h-8.4v-34.9h0Z"/>
    <path d="M321.1,3572.9c0-10.9,8.9-19.5,27.8-19.5s27.8,8.6,27.8,19.5-8.6,19.6-27.8,19.6-27.8-8.3-27.8-19.6ZM322.9,3598.9h51.9v97.4h-51.9v-97.4Z"/>
    <path d="M453.7,3640.3c-2.6-.3-4.7-.5-7.3-.5-6,0-9.1,2.1-9.1,7.6s3.1,7.6,9.1,7.6,4.5-.2,7.3-.5v41.2c-6.6.8-12.2,1.3-18.5,1.3-36.7,0-53.9-21.6-53.9-49.5s17.2-49.5,53.9-49.5,11.9.5,18.5,1.5v40.7h0Z"/>
    <path d="M510.6,3653.6c.6,4.7,3.6,6.3,10.4,6.3,11.7,0,22.7-.8,39.6-1.9v36.8c-17.2,2.4-28.1,3.1-43.8,3.1-40.6,0-56.6-21.6-56.6-51.6s21.1-49,55-49,49.7,17.2,49.7,45v11.4h-54.2,0ZM510.5,3635.8v6.5h9.7v-6.5c0-3.2-1.8-5-4.9-5s-4.9,1.8-4.9,5h0Z"/>
    <path d="M571.3,3572.1h51.9v38.3c5.5-8.9,14.9-13.1,27.6-13.1,20.6,0,32.5,13.8,32.5,37v62h-51.9v-55.2c0-5-2-6.8-6.3-6.8h-1.8v62h-51.9v-124.1h0Z"/>
    <path d="M689.8,3647.4c0-28.9,19.2-51,55.8-51s55.8,22.1,55.8,51-19.2,51.3-55.8,51.3-55.8-22.7-55.8-51.3ZM752.8,3647.4c0-6.6-2.4-9.6-7.1-9.6s-7.1,2.9-7.1,9.6,2.4,9.1,7.1,9.1,7.1-2.4,7.1-9.1Z"/>
    <path d="M808,3572.1h51.9v124.1h-51.9v-124.1Z"/>
    <path d="M940.9,3696.3l-5.5-13.3c-6.2,9.6-16.4,14.9-29.5,14.9-21.4,0-39.4-17.9-39.4-52.3s18-48.4,39.4-48.4,19.5,3.4,25.6,9.4v-34.6h51.9v124.1h-42.5,0ZM931.5,3655.1v-18.5h-4.1c-5.4,0-8.3,2.3-8.3,9.2s2.9,9.2,8.3,9.2h4.1Z"/>
    <path d="M1040.4,3653.6c.7,4.7,3.6,6.3,10.4,6.3,11.7,0,22.7-.8,39.6-1.9v36.8c-17.2,2.4-28.1,3.1-43.8,3.1-40.6,0-56.6-21.6-56.6-51.6s21.1-49,55-49,49.7,17.2,49.7,45v11.4h-54.2ZM1040.2,3635.8v6.5h9.7v-6.5c0-3.2-1.8-5-4.9-5s-4.9,1.8-4.9,5Z"/>
    <path d="M1101.1,3598.9h37l7.3,15.9c7-11.2,17.8-17.5,27.4-17.5v39.3c-6.2,0-13.2.5-19.8,1.5v58.3h-51.9v-97.4h0Z"/>
    <path d="M148.1,3723.8l23.4,79.5h4.9l20.1-79.5h76.9l-68.2,243.4h-106.1l-72.1-243.4h121.1,0Z"/>
    <path d="M482.7,3967.3h-90.2l-6.5-21.4c-12.7,15.6-32.5,24.7-58.4,24.7-44.5,0-76.9-31.8-76.9-101.3s32.5-100,76.9-100,46.7,11.4,59.1,28.6l5.8-25.3h90.2v194.8h0ZM378.9,3888.1v-37h-6.2c-10.7,0-16.5,4.5-16.5,18.5s5.8,18.5,16.5,18.5h6.2Z"/>
    <path d="M499,3719h103.9v248.3h-103.9v-248.3Z"/>
    <path d="M716.8,3881.9c1.3,9.4,7.1,12.7,20.8,12.7,23.4,0,45.4-1.6,79.2-3.9v73.7c-34.4,4.9-56.2,6.2-87.6,6.2-81.2,0-113.3-43.2-113.3-103.2s42.2-98,110-98,99.3,34.4,99.3,89.9v22.7h-108.4,0ZM716.4,3846.2v13h19.5v-13c0-6.5-3.6-10.1-9.7-10.1s-9.7,3.6-9.7,10.1Z"/>
    <path d="M844.3,3887.8v-45.4h-11v-69.8l114.9-47.1v47.1h23.7v69.8h-23.7v29.5c0,10.1,3.2,15.6,13,15.6s10.1-.6,14.9-1.6v79.9c-14.6,3.2-28.9,4.9-47.4,4.9-59.1,0-84.4-31.8-84.4-82.8h0Z"/>
    <path d="M1125.4,3862.1c20.8,11.7,34.4,26.6,34.4,52.9s-24.3,53.9-89.6,53.9-58.1-1.9-82.8-5.8v-76c21.1,2.6,35.7,3.6,59.1,3.9v-3.9l-21.8-9.1c-24-10.1-39-25-39-53.2s24.3-53.9,89.6-53.9,48,.6,76.9,3.9v71.4c-20.8-1.6-32.8-2.3-53.6-2.3v3.2l26.6,14.9h0Z"/>
    <path d="M39.2,4027.8h-13v-24.3h54.4v24.3h-13v36.5h-28.4v-36.5h0Z"/>
    <path d="M111.8,4003.4v23.6h4.1v-23.6h28.4v60.9h-28.4v-21h-4.1v21h-28.4v-60.9h28.4Z"/>
    <path d="M178.7,4049h-2v15.3h-28.4v-60.9h38.9c17.9,0,27.5,9.7,27.5,23.9s-2.6,12.5-8,16.7l9.4,20.3h-31.2l-6.1-15.3h0ZM176.6,4026.1v7h5.5c2.5,0,3.6-1.1,3.6-3.5s-1.1-3.5-3.6-3.5h-5.5Z"/>
    <path d="M246.1,4003.4v60.9h-28.4v-60.9h28.4Z"/>
    <path d="M250.1,4003.4h45.7v23.5h-17.3v4.1h16.1v17.9h-16.1v15.4h-28.4v-60.9h0Z"/>
    <path d="M310.9,4027.8h-13v-24.3h54.4v24.3h-13v36.5h-28.4v-36.5h0Z"/>
    <path d="M383.5,4003.4v60.9h-28.4v-60.9h28.4Z"/>
    <path d="M387.5,4003.4h23.8l12.1,18.3h1.2v-18.3h24.8v60.9h-23.8l-12.1-18.3h-1.2v18.3h-24.8v-60.9Z"/>
    <path d="M453.4,4003.4h48.9v21.9h-20.5v3.6h16.5v8.5h-16.5v3.6h21.5v23.1h-49.9v-60.9h0Z"/>
    <path d="M545.3,4028.9c8.4,2.7,12.7,8.4,12.7,17.8s-8.8,18.3-26.2,18.3-17-.6-25.2-2.2v-24.4c6.1,1.1,12.2,1.6,18.4,1.6v-1.2l-5.8-1.9c-8.4-2.8-12.7-8.5-12.7-16.1s7.3-18.1,25.9-18.1,13.9.3,22.4,1.1v22.8c-5.3-.6-10.1-.8-15.6-.8v1.2l6.1,1.9h0Z"/>
    <path d="M600,4028.9c8.4,2.7,12.7,8.4,12.7,17.8s-8.8,18.3-26.2,18.3-17-.6-25.2-2.2v-24.4c6.1,1.1,12.2,1.6,18.4,1.6v-1.2l-5.8-1.9c-8.4-2.8-12.7-8.5-12.7-16.1s7.3-18.1,25.9-18.1,13.9.3,22.4,1.1v22.8c-5.3-.6-10.1-.8-15.6-.8v1.2l6.1,1.9h0Z"/>
    <path d="M656.3,4003.4v60.9h-28.4v-60.9h28.4Z"/>
    <path d="M660.4,4003.4h23.8l12.1,18.3h1.2v-18.3h24.8v60.9h-23.8l-12.1-18.3h-1.2v18.3h-24.8v-60.9Z"/>
    <path d="M726.2,4003.4h48.9v21.9h-20.5v3.6h16.5v8.5h-16.5v3.6h21.5v23.1h-49.9v-60.9h0Z"/>
    <path d="M816.8,4003.4c16.1,0,23.3,5.9,23.3,16.5s-1.8,8.7-4.5,11c7.3,2.1,11.1,7.9,11.1,16.3s-8.4,17-23.5,17h-43v-60.9h36.6,0ZM808.6,4031h1.8c2.3,0,3.7-1.3,3.7-4.1s-1.3-4.1-3.7-4.1h-1.8v8.1ZM808.6,4044.8h3.4c2.5,0,3.9-1.1,3.9-4.1s-1.4-4.1-3.9-4.1h-3.4v8.1Z"/>
    <path d="M879.2,4049h-2v15.3h-28.4v-60.9h38.9c17.9,0,27.5,9.7,27.5,23.9s-2.6,12.5-8,16.7l9.4,20.3h-31.2l-6.1-15.3h0ZM877.1,4026.1v7h5.5c2.5,0,3.7-1.1,3.7-3.5s-1.1-3.5-3.7-3.5h-5.5Z"/>
    <path d="M946.6,4003.4v60.9h-28.4v-60.9h28.4Z"/>
    <path d="M960.1,4003.4h41.3l11.2,60.9h-29.1l-1.5-8.3h-12.2l-1.2,8.3h-19.6l11.1-60.9ZM972.3,4039.8h7l-2.7-15.3h-2l-2.3,15.3h0Z"/>
    <path d="M1022,4027.8h-13v-24.3h54.4v24.3h-13v36.5h-28.4v-36.5h0Z"/>
    <path d="M1066.2,4003.4h48.9v21.9h-20.5v3.6h16.5v8.5h-16.5v3.6h21.5v23.1h-49.9v-60.9h0Z"/>
    <path d="M1158,4028.9c8.4,2.7,12.7,8.4,12.7,17.8s-8.8,18.3-26.2,18.3-17-.6-25.2-2.2v-24.4c6.1,1.1,12.2,1.6,18.4,1.6v-1.2l-5.8-1.9c-8.4-2.8-12.7-8.5-12.7-16.1s7.3-18.1,25.9-18.1,13.9.3,22.4,1.1v22.8c-5.3-.6-10.1-.8-15.6-.8v1.2l6.1,1.9h0Z"/>
    <path d="M90.9,4096.6c48,0,65.7,31.2,65.7,60.9s-17.7,60.9-65.7,60.9H29.4v-121.7h61.5ZM86.2,4172h3.2c5.5,0,9.6-2.4,9.6-14.6s-4.1-14.6-9.6-14.6h-3.2v29.2h0Z"/>
    <path d="M161.5,4096.6h97.9v43.8h-41.1v7.3h32.9v17h-32.9v7.3h43v46.2h-99.8v-121.7h0Z"/>
    <path d="M348.7,4148.8c-5.5-.6-7.5-.8-12.2-.8-7.3,0-10.2,3.9-10.2,9.4s2.9,9.2,10.2,9.2,6.6-.2,12.2-.8v51.6c-7.6,1.3-14.1,1.6-22.2,1.6-38.3,0-60.2-27.4-60.2-61.7s21.9-61.7,60.2-61.7,13.1.5,22.2,1.6v51.5h0Z"/>
    <path d="M417.6,4187.6h-4.1v30.7h-56.8v-121.7h77.7c35.9,0,55,19.5,55,47.7s-5.2,25-16.1,33.4l18.8,40.6h-62.5l-12.2-30.7h0ZM413.4,4142v14h11c5,0,7.3-2.1,7.3-7s-2.3-7-7.3-7h-11Z"/>
    <path d="M541.5,4096.6l8.9,25.6h2.4l8-25.6h36.2l-30.8,85.9v35.9h-56.8v-49.7l-30-72.1h62.2Z"/>
    <path d="M655.4,4199.5v18.8h-56.8v-121.7h63.8c42.2,0,61.8,21.1,61.8,52.8s-24,50.1-58.8,50.1h-10.1ZM655.4,4141.2v23.4h2.4c5.2,0,8.9-2.4,8.9-11.7s-3.7-11.7-8.9-11.7h-2.4Z"/>
    <path d="M751,4145.3h-26v-48.7h108.7v48.7h-26v73h-56.8v-73h0Z"/>
    <path d="M896.3,4096.6v121.7h-56.8v-121.7h56.8Z"/>
    <path d="M902.8,4157.6c0-33.1,20.9-62,66.7-62s66.7,28.9,66.7,62-20.9,62.5-66.7,62.5-66.7-27.8-66.7-62.5ZM979.3,4157.6c0-7.3-3.2-11.7-9.9-11.7s-9.9,4.4-9.9,11.7,3.2,11.4,9.9,11.4,9.9-3.4,9.9-11.4Z"/>
    <path d="M1042.7,4096.6h47.6l24.2,36.7h2.4v-36.7h49.5v121.7h-47.6l-24.2-36.7h-2.4v36.7h-49.5v-121.7Z"/>
    <path d="M147.1,4451.6v37.6H33.5v-243.5h127.6c84.4,0,123.7,42.2,123.7,105.5s-48,100.3-117.5,100.3h-20.1ZM147.1,4335.1v46.7h4.9c10.4,0,17.9-4.9,17.9-23.4s-7.5-23.4-17.9-23.4h-4.9Z"/>
    <path d="M408.1,4245.8v243.5h-113.6v-243.5h113.6Z"/>
    <path d="M537.9,4451.6v37.6h-113.6v-243.5h127.6c84.4,0,123.7,42.2,123.7,105.5s-48,100.3-117.5,100.3h-20.1ZM537.9,4335.1v46.7h4.9c10.4,0,17.8-4.9,17.8-23.4s-7.5-23.4-17.8-23.4h-4.9Z"/>
    <path d="M685.3,4245.8h195.7v87.6h-82.1v14.6h65.9v34.1h-65.9v14.6h86v92.5h-199.6v-243.5h0Z"/>
    <path d="M1022.8,4427.9h-8.1v61.4h-113.6v-243.5h155.5c71.7,0,110,39,110,95.4s-10.4,50-32.1,66.9l37.7,81.1h-125l-24.3-61.4h0ZM1014.4,4336.7v27.9h22.1c10.1,0,14.6-4.2,14.6-14s-4.5-14-14.6-14h-22.1Z"/>
    <path d="M58.2,4525.4c24,0,32.9,15.6,32.9,30.4s-8.8,30.4-32.9,30.4h-30.8v-60.9h30.8ZM55.8,4563.2h1.6c2.8,0,4.8-1.2,4.8-7.3s-2-7.3-4.8-7.3h-1.6v14.6h0Z"/>
    <path d="M117.9,4565c.3,2.4,1.8,3.2,5.2,3.2,5.8,0,11.4-.4,19.8-1v18.4c-8.6,1.2-14,1.5-21.9,1.5-20.3,0-28.3-10.8-28.3-25.8s10.6-24.5,27.5-24.5,24.8,8.6,24.8,22.5v5.7h-27.1ZM117.8,4556v3.2h4.9v-3.2c0-1.6-.9-2.5-2.4-2.5s-2.4.9-2.4,2.5h0Z"/>
    <path d="M169.1,4537.6l2.6,7.5c3.2-5,8.6-8.4,15.3-8.4,10.7,0,19.7,9.1,19.7,25.4s-9,24.9-19.7,24.9-9.6-1.7-12.8-4.7v23h-26v-67.8h20.9,0ZM174.2,4557.6v9.2h2c2.7,0,4.1-1.1,4.1-4.6s-1.5-4.6-4.1-4.6h-2Z"/>
    <path d="M210,4537.6h18.5l3.6,8c3.5-5.6,8.9-8.8,13.7-8.8v19.6c-3.1,0-6.6.2-9.9.7v29.1h-26v-48.7h0Z"/>
    <path d="M272.3,4565c.3,2.4,1.8,3.2,5.2,3.2,5.8,0,11.4-.4,19.8-1v18.4c-8.6,1.2-14,1.5-21.9,1.5-20.3,0-28.3-10.8-28.3-25.8s10.5-24.5,27.5-24.5,24.8,8.6,24.8,22.5v5.7h-27.1,0ZM272.2,4556v3.2h4.9v-3.2c0-1.6-.9-2.5-2.4-2.5s-2.4.9-2.4,2.5h0Z"/>
    <path d="M338,4558.3c-1.3-.2-2.4-.2-3.6-.2-3,0-4.5,1.1-4.5,3.8s1.5,3.8,4.5,3.8,2.3,0,3.6-.2v20.6c-3.3.4-6.1.6-9.2.6-18.3,0-26.9-10.8-26.9-24.8s8.6-24.8,26.9-24.8,5.9.2,9.2.7v20.4h0Z"/>
    <path d="M341.2,4524.6c0-5.4,4.5-9.7,13.9-9.7s13.9,4.3,13.9,9.7-4.3,9.8-13.9,9.8-13.9-4.1-13.9-9.8ZM342.1,4537.6h26v48.7h-26v-48.7Z"/>
    <path d="M429.3,4586.3h-22.6l-1.6-5.4c-3.2,3.9-8.1,6.2-14.6,6.2-11.1,0-19.2-8-19.2-25.3s8.1-25,19.2-25,11.7,2.8,14.8,7.1l1.5-6.3h22.6v48.7ZM403.4,4566.5v-9.2h-1.5c-2.7,0-4.1,1.1-4.1,4.6s1.5,4.6,4.1,4.6h1.5Z"/>
    <path d="M434.9,4566.4v-11.4h-2.8v-17.5l28.7-11.8v11.8h5.9v17.5h-5.9v7.4c0,2.5.8,3.9,3.2,3.9s2.5-.2,3.7-.4v20c-3.6.8-7.2,1.2-11.9,1.2-14.8,0-21.1-8-21.1-20.7Z"/>
    <path d="M494.7,4565c.3,2.4,1.8,3.2,5.2,3.2,5.8,0,11.4-.4,19.8-1v18.4c-8.6,1.2-14,1.5-21.9,1.5-20.3,0-28.3-10.8-28.3-25.8s10.5-24.5,27.5-24.5,24.8,8.6,24.8,22.5v5.7h-27.1ZM494.6,4556v3.2h4.9v-3.2c0-1.6-.9-2.5-2.4-2.5s-2.4.9-2.4,2.5h0Z"/>
    <path d="M559.2,4560c5.2,2.9,8.6,6.6,8.6,13.2s-6.1,13.5-22.4,13.5-14.5-.5-20.7-1.5v-19c5.3.6,8.9.9,14.8,1v-1l-5.4-2.3c-6-2.5-9.7-6.2-9.7-13.3s6.1-13.5,22.4-13.5,12,.2,19.2,1v17.9c-5.2-.4-8.2-.6-13.4-.6v.8l6.7,3.7h0Z"/>
    <path d="M621.7,4550.9c8.4,2.7,12.7,8.4,12.7,17.8s-8.8,18.3-26.2,18.3-17-.6-25.2-2.2v-24.4c6.1,1,12.2,1.6,18.4,1.6v-1.2l-5.8-2c-8.4-2.8-12.7-8.5-12.7-16.1s7.3-18.1,25.9-18.1,13.9.3,22.4,1.1v22.8c-5.3-.6-10.1-.8-15.6-.8v1.2l6.1,2h0Z"/>
    <path d="M638.5,4584.4c5.9,2.2,12.1,3.5,18.4,3.5s10.4-2,10.4-6.1v-1.8c-2.9,3.2-7.3,4.9-12.4,4.9-9.5,0-17.6-5.2-17.6-18.2v-29.1h26v26.8c0,3.1,1.5,4.4,4.1,4.4v-31.2h26v36.3c0,21.5-10.1,33.1-34.7,33.1s-13.9-1-20-2.7v-19.9h0Z"/>
    <path d="M697.3,4537.6h20.9l2.3,6.6c3.1-4.8,8.4-7.5,15.3-7.5,11,0,17.5,7.7,17.5,18.5v31h-26v-27.6c0-2.5-1-3.4-3.2-3.4h-.9v31h-26v-48.7h0Z"/>
    <path d="M792.7,4558.3c-1.3-.2-2.3-.2-3.7-.2-3,0-4.5,1.1-4.5,3.8s1.5,3.8,4.5,3.8,2.3,0,3.7-.2v20.6c-3.3.4-6.1.6-9.2.6-18.3,0-26.9-10.8-26.9-24.8s8.6-24.8,26.9-24.8,5.9.2,9.2.7v20.4h0Z"/>
    <path d="M796.8,4524.2h26v19.1c2.8-4.5,7.5-6.6,13.8-6.6,10.3,0,16.2,6.9,16.2,18.5v31h-26v-27.6c0-2.5-1-3.4-3.2-3.4h-.9v31h-26v-62.1Z"/>
    <path d="M856.8,4537.6h18.5l3.7,8c3.5-5.6,8.9-8.8,13.7-8.8v19.6c-3.1,0-6.6.2-9.9.7v29.1h-26v-48.7h0Z"/>
    <path d="M893.9,4561.9c0-14.4,9.6-25.5,27.9-25.5s27.9,11,27.9,25.5-9.6,25.6-27.9,25.6-27.9-11.4-27.9-25.6ZM925.4,4561.9c0-3.3-1.2-4.8-3.6-4.8s-3.6,1.5-3.6,4.8,1.2,4.5,3.6,4.5,3.6-1.2,3.6-4.5Z"/>
    <path d="M953,4537.6h20.9l2.3,6.6c3.1-4.8,8.4-7.5,15.3-7.5,11,0,17.5,7.7,17.5,18.5v31h-26v-27.6c0-2.5-1-3.4-3.2-3.4h-.9v31h-26v-48.7h0Z"/>
    <path d="M1012.2,4561.9c0-14.4,9.6-25.5,27.9-25.5s27.9,11,27.9,25.5-9.6,25.6-27.9,25.6-27.9-11.4-27.9-25.6h0ZM1043.7,4561.9c0-3.3-1.2-4.8-3.6-4.8s-3.6,1.5-3.6,4.8,1.2,4.5,3.6,4.5,3.6-1.2,3.6-4.5Z"/>
    <path d="M1127.3,4586.3h-20.9l-2.1-6.5c-2.9,4.7-7.9,7.3-14.6,7.3-12.3,0-18.3-7.6-18.3-20.9v-28.6h26v27.5c0,2,.6,2.8,2.5,2.8h1.5v-30.3h26v48.7h0Z"/>
    <path d="M1165.4,4560c5.2,2.9,8.6,6.6,8.6,13.2s-6.1,13.5-22.4,13.5-14.5-.5-20.7-1.5v-19c5.3.6,8.9.9,14.8,1v-1l-5.4-2.3c-6-2.5-9.7-6.2-9.7-13.3s6.1-13.5,22.4-13.5,12,.2,19.2,1v17.9c-5.2-.4-8.2-.6-13.4-.6v.8l6.7,3.7h0Z"/>
    <path d="M106.8,4669.5c16.9,5.4,25.5,16.7,25.5,35.5s-17.7,36.5-52.4,36.5-33.9-1.3-50.5-4.4v-48.9c12.2,2.1,24.3,3.2,36.8,3.2v-2.4l-11.5-3.9c-16.9-5.7-25.5-17-25.5-32.1s14.6-36.2,51.8-36.2,27.8.6,44.8,2.3v45.6c-10.6-1.1-20.3-1.6-31.2-1.6v2.4l12.2,3.9h0Z"/>
    <path d="M135.6,4691.4c0-28.9,19.1-51,55.8-51s55.8,22.1,55.8,51-19.1,51.3-55.8,51.3-55.8-22.7-55.8-51.3ZM198.5,4691.4c0-6.6-2.4-9.6-7.1-9.6s-7.1,2.9-7.1,9.6,2.4,9.1,7.1,9.1,7.1-2.4,7.1-9.1Z"/>
    <path d="M365.7,4740.3h-41.9l-4.2-13c-5.8,9.4-15.9,14.6-29.2,14.6-24.7,0-36.7-15.3-36.7-41.7v-57.3h51.9v55c0,4.1,1.1,5.5,5,5.5h3.1v-60.5h51.9v97.4h0Z"/>
    <path d="M442,4687.7c10.4,5.8,17.2,13.3,17.2,26.5s-12.2,26.9-44.8,26.9-29-1-41.4-2.9v-38c10.5,1.3,17.9,1.8,29.5,2v-2l-10.9-4.5c-12-5-19.5-12.5-19.5-26.6s12.2-26.9,44.8-26.9,24,.3,38.5,2v35.7c-10.4-.8-16.4-1.1-26.8-1.1v1.6l13.3,7.5h0Z"/>
    <path d="M578.5,4740.3h-45.1l-3.2-10.7c-6.3,7.8-16.2,12.3-29.2,12.3-22.2,0-38.5-15.9-38.5-50.6s16.2-50,38.5-50,23.4,5.7,29.5,14.3l2.9-12.7h45.1v97.4h0ZM526.5,4700.7v-18.5h-3.1c-5.4,0-8.3,2.3-8.3,9.2s2.9,9.2,8.3,9.2h3.1Z"/>
    <path d="M628.3,4642.9l5.2,15.1c6.5-10.1,17.2-16.7,30.7-16.7,21.4,0,39.4,18.2,39.4,50.8s-18,49.8-39.4,49.8-19.2-3.4-25.6-9.4v45.9h-51.9v-135.5h41.7ZM638.5,4683v18.5h4.1c5.4,0,8.3-2.3,8.3-9.2s-2.9-9.2-8.3-9.2h-4.1Z"/>
    <path d="M710.1,4616.1h51.9v38.3c5.5-8.9,14.9-13.1,27.6-13.1,20.6,0,32.5,13.8,32.5,37v62h-51.9v-55.2c0-5-2-6.8-6.3-6.8h-1.8v62h-51.9v-124.1h0Z"/>
    <path d="M828.6,4691.4c0-28.9,19.2-51,55.8-51s55.8,22.1,55.8,51-19.2,51.3-55.8,51.3-55.8-22.7-55.8-51.3ZM891.5,4691.4c0-6.6-2.4-9.6-7.1-9.6s-7.1,2.9-7.1,9.6,2.4,9.1,7.1,9.1,7.1-2.4,7.1-9.1Z"/>
    <path d="M946.7,4642.9h41.9l4.5,13.3c6.2-9.6,16.9-14.9,30.5-14.9,21.9,0,35.1,15.4,35.1,37v62h-51.9v-55.2c0-5-2-6.8-6.3-6.8h-1.8v62h-51.9v-97.4Z"/>
    <path d="M1115.7,4697.6c.7,4.7,3.6,6.3,10.4,6.3,11.7,0,22.7-.8,39.6-2v36.8c-17.2,2.4-28.1,3.1-43.8,3.1-40.6,0-56.6-21.6-56.6-51.6s21.1-49,55-49,49.7,17.2,49.7,45v11.4h-54.2ZM1115.5,4679.8v6.5h9.7v-6.5c0-3.2-1.8-5-4.9-5s-4.9,1.8-4.9,5Z"/>
    <path d="M147.1,4767.8v94.5h16.2v-94.5h113.6v243.5h-113.6v-84.1h-16.2v84.1H33.5v-243.5h113.6Z"/>
    <path d="M518.8,5011.3h-90.2l-6.5-21.4c-12.7,15.6-32.5,24.7-58.4,24.7-44.5,0-76.9-31.8-76.9-101.3s32.5-100,76.9-100,46.7,11.4,59.1,28.6l5.8-25.3h90.2v194.8h0ZM414.9,4932.1v-37h-6.2c-10.7,0-16.5,4.5-16.5,18.5s5.8,18.5,16.5,18.5h6.2Z"/>
    <path d="M535,4816.5h74l14.6,31.8c14-22.4,35.7-35.1,54.9-35.1v78.5c-12.3,0-26.3,1-39.6,2.9v116.5h-103.9v-194.8h0Z"/>
    <path d="M832.3,5011.3l-11-26.6c-12.3,19.1-32.8,29.9-59.1,29.9-42.8,0-78.9-35.7-78.9-104.5s36-96.7,78.9-96.7,39,6.8,51.3,18.8v-69.1h103.9v248.3h-85,0ZM813.5,4928.8v-37h-8.1c-10.7,0-16.5,4.5-16.5,18.5s5.8,18.5,16.5,18.5h8.1Z"/>
    <path d="M938.5,5003.8c23.7,8.8,48.4,14,73.7,14s41.6-8.1,41.6-24.3v-7.1c-11.7,12.7-29.2,19.5-49.7,19.5-38,0-70.4-20.8-70.4-72.7v-116.5h103.9v107.1c0,12.3,5.8,17.5,16.2,17.5v-124.6h103.9v145.1c0,86-40.2,132.4-138.9,132.4s-55.5-4.2-80.2-10.7v-79.5h0Z"/>
  </g>
  <g>
    <path class="st0" d="M-11.1,2789.6l8.5,34.5H-.2l8.5-34.5h48l8.5,34.5h2.3l8.5-34.5h35.6l-28.1,117.8H26.9l-8.5-34.5h-2.4l-8.5,34.5h-48.2l-28.1-117.8H-11.1Z"/>
    <path class="st0" d="M114.2,2788.1c0-10.5,8.6-18.8,26.9-18.8s26.9,8.3,26.9,18.8-8.3,19-26.9,19-26.8-8-26.9-19ZM115.9,2813.2h50.2v94.2h-50.2v-94.2Z"/>
    <path class="st0" d="M175.4,2868.9v-22h-5.3v-33.8l55.6-22.8v22.8h11.5v33.8h-11.5v14.3c0,4.9,1.6,7.5,6.3,7.5s4.9-.3,7.2-.8v38.6c-7.1,1.6-14,2.4-22.9,2.4-28.6,0-40.8-15.4-40.8-40h0Z"/>
    <path class="st0" d="M245.5,2787.3h50.2v37.1c5.3-8.6,14.4-12.7,26.7-12.7,19.9,0,31.4,13.3,31.4,35.8v60h-50.2v-53.4c0-4.9-1.9-6.6-6.1-6.6h-1.7v60h-50.2v-120.1h0Z"/>
    <path class="st0" d="M384.7,2787.3h50.2v120.1h-50.2v-120.1Z"/>
    <path class="st0" d="M441.2,2860.1c0-27.9,18.5-49.3,54-49.3s54,21.4,54,49.3-18.5,49.6-54,49.6-54-22-54-49.6ZM502.2,2860.1c0-6.4-2.4-9.3-6.9-9.3s-6.9,2.8-6.9,9.3,2.4,8.8,6.9,8.8,6.9-2.4,6.9-8.8Z"/>
    <path class="st0" d="M597.5,2813.2l8.3,29.8h2.3l8.3-29.8h40.2l8.3,29.8h2.3l8.3-29.8h34.1l-21.7,94.2h-52.3l-8.3-29.8h-2.3l-8.3,29.8h-48.2l-21.7-94.2h50.6Z"/>
    <path class="st0" d="M754.6,2866.1c.6,4.6,3.5,6.1,10,6.1,11.3,0,22-.8,38.3-1.9v35.6c-16.6,2.4-27.2,3-42.4,3-39.2,0-54.8-20.9-54.8-49.9s20.4-47.4,53.2-47.4,48,16.6,48,43.5v11h-52.4ZM754.5,2848.8v6.3h9.4v-6.3c0-3.1-1.7-4.9-4.7-4.9s-4.7,1.7-4.7,4.9h0Z"/>
    <path class="st0" d="M813.3,2813.2h35.8l7.1,15.4c6.8-10.8,17.3-17,26.5-17v38c-6,0-12.7.5-19.2,1.4v56.4h-50.2v-94.2h0Z"/>
    <path class="st0" d="M955.1,2853.2c-2.5-.3-4.5-.5-7.1-.5-5.8,0-8.8,2-8.8,7.4s3,7.4,8.8,7.4,4.4-.2,7.1-.5v39.9c-6.4.8-11.8,1.3-17.9,1.3-35.5,0-52.1-20.9-52.1-47.9s16.6-47.9,52.1-47.9,11.5.5,17.9,1.4v39.4h0Z"/>
    <path class="st0" d="M1073.6,2907.4h-43.7l-3.1-10.4c-6.1,7.5-15.7,11.9-28.3,11.9-21.5,0-37.2-15.4-37.2-49s15.7-48.4,37.2-48.4,22.6,5.5,28.6,13.8l2.8-12.2h43.7v94.2h0ZM1023.4,2869.1v-17.9h-3c-5.2,0-8,2.2-8,8.9s2.8,8.9,8,8.9h3Z"/>
    <path class="st0" d="M1147.4,2856.5c10.1,5.6,16.6,12.9,16.6,25.6s-11.8,26.1-43.3,26.1-28.1-.9-40-2.8v-36.7c10.2,1.3,17.3,1.7,28.6,1.9v-1.9l-10.5-4.4c-11.6-4.9-18.8-12.1-18.8-25.8s11.8-26.1,43.3-26.1,23.2.3,37.2,1.9v34.5c-10.1-.8-15.9-1.1-25.9-1.1v1.6l12.9,7.2h0Z"/>
    <path class="st0" d="M1216,2866.1c.6,4.6,3.4,6.1,10.1,6.1,11.3,0,22-.8,38.3-1.9v35.6c-16.6,2.4-27.2,3-42.4,3-39.2,0-54.8-20.9-54.8-49.9s20.4-47.4,53.2-47.4,48,16.6,48,43.5v11h-52.4ZM1215.9,2848.8v6.3h9.4v-6.3c0-3.1-1.7-4.9-4.7-4.9s-4.7,1.7-4.7,4.9h0Z"/>
  </g>
  <g>
    <path d="M138.3,16.3l18.7,76.2h5.2l18.7-76.2h105.9l18.7,76.2h5.2l18.7-76.2h78.6l-62,259.6h-123.9l-18.7-76.2h-5.2l-18.7,76.2h-106.3L11.2,16.3h127.1Z"/>
    <path d="M536,16.3v100.7h17.3V16.3h121.2v259.6h-121.2v-89.7h-17.3v89.7h-121.2V16.3h121.2Z"/>
    <path d="M691.8,16.3h208.8v93.5h-87.6v15.6h70.3v36.3h-70.3v15.6h91.7v98.7h-212.9V16.3h0Z"/>
    <path d="M922,16.3h101.4l51.6,78.2h5.2V16.3h105.6v259.6h-101.4l-51.6-78.2h-5.2v78.2h-105.6V16.3h0Z"/>
  </g>
  <g>
    <path d="M33.3,527.4H-18.3v-96.7h216v96.7h-51.6v145.1H33.3v-145.1Z"/>
    <path d="M202.6,551.9c0-65.8,41.6-123.1,132.5-123.1s132.5,57.4,132.5,123.1-41.6,124.1-132.5,124.1-132.5-55.1-132.5-124.1h0ZM354.7,551.9c0-14.5-6.5-23.2-19.7-23.2s-19.7,8.7-19.7,23.2,6.5,22.6,19.7,22.6,19.7-6.8,19.7-22.6Z"/>
    <path d="M594.8,430.7v131.2c0,9.3,2.9,13.5,9.7,13.5s9.7-4.2,9.7-13.5v-131.2h87v133.8c0,66.7-39.7,111.2-110.6,111.2s-110.2-44.5-110.2-111.2v-133.8h114.4Z"/>
    <path d="M852.1,429.1c33.2,0,59,1.9,85.1,4.8v97c-30.6-.6-51.2-1.6-74.8-1.6s-37.1,8.4-37.1,22.6,6.8,21,18,21,4.5,0,6.5-.3v-27.4h109.6v118.6c-36.4,10-64.5,12.2-102.5,12.2-103.5,0-146-61.6-146-124.4s38-122.5,141.2-122.5h0Z"/>
    <path d="M1086.8,430.7v93.8h16.1v-93.8h112.8v241.8h-112.8v-83.5h-16.1v83.5h-112.8v-241.8h112.8Z"/>
  </g>
  <g>
    <path class="st0" d="M99.8,2338.7c72.1,0,104.5,26.6,104.5,73.9s-8,38.9-20,49.5c32.8,9.5,49.9,35.3,49.9,73.2s-37.5,76.4-105.6,76.4H-64.4v-273H99.8ZM63,2462.5h8c10.6,0,16.4-5.8,16.4-18.2s-5.8-18.2-16.4-18.2h-8s0,36.4,0,36.4ZM63,2524.4h15.3c11.3,0,17.5-5.1,17.5-18.2s-6.2-18.2-17.5-18.2h-15.3s0,36.4,0,36.4Z"/>
    <path class="st0" d="M368.8,2338.7v148.1c0,10.6,3.3,15.3,10.9,15.3s10.9-4.7,10.9-15.3v-148.1h98.3v151.1c0,75.4-44.8,125.6-124.9,125.6s-124.5-50.2-124.5-125.6v-151.1h129.2,0Z"/>
    <path class="st0" d="M673.5,2453c37.9,12,57.2,37.5,57.2,79.7s-39.7,81.9-117.6,81.9-76.1-2.9-113.2-9.8v-109.6c27.3,4.7,54.6,7.3,82.6,7.3v-5.5l-25.8-8.7c-37.9-12.7-57.1-38.2-57.1-72.1s32.8-81.2,116.1-81.2,62.2,1.5,100.5,5.1v102.3c-23.7-2.6-45.5-3.6-69.9-3.6v5.5l27.3,8.7h0Z"/>
    <path class="st0" d="M787,2447.9h-58.2v-109.2h243.9v109.2h-58.2v163.8h-127.4v-163.8Z"/>
    <path class="st0" d="M978.1,2475.6c0-74.2,47-139.1,149.6-139.1s149.6,64.8,149.6,139.1-47,140.1-149.6,140.1-149.6-62.2-149.6-140.1ZM1149.9,2475.6c0-16.4-7.3-26.2-22.2-26.2s-22.2,9.8-22.2,26.2,7.3,25.5,22.2,25.5,22.2-7.6,22.2-25.5Z"/>
  </g>
  <g>
    <path class="st0" d="M-39.2,2141.4c0-93,58.8-174.1,187.3-174.1s187.3,81.1,187.3,174.1-58.8,175.5-187.3,175.5-187.3-77.9-187.3-175.5h0ZM175.9,2141.4c0-20.5-9.1-32.8-27.8-32.8s-27.8,12.3-27.8,32.8,9.1,31.9,27.8,31.9,27.8-9.6,27.8-31.9Z"/>
    <path class="st0" d="M350.5,1970.1h133.5l67.9,103h6.8v-103h139v341.8h-133.5l-67.9-103h-6.8v103h-139v-341.8h0Z"/>
    <path class="st0" d="M722.8,1970.1h159.5v205.1h73.8v136.7h-233.3v-341.8h0Z"/>
    <path class="st0" d="M1076.9,1970.1l25.1,72h6.8l22.3-72h101.6l-86.6,241.1v100.7h-159.5v-139.5l-84.3-202.3h174.5Z"/>
  </g>
</svg>