<?xml version="1.0" encoding="UTF-8"?>
<svg id="Layer_1" data-name="Layer 1" xmlns="http://www.w3.org/2000/svg" viewBox="0 0 1210 5093.62">
  <defs>
    <style>
      .cls-1 {
        fill: #fff;
      }
    </style>
  </defs>
  <rect class="cls-1" width="1210" height="5043.34"/>
  <rect x="-115.11" y="1288.54" width="1440.22" height="269.3"/>
  <rect x="-115.11" y="287.17" width="1440.22" height="132.63"/>
  <rect x="-115.11" y="683.65" width="1440.22" height="179.72"/>
  <rect x="-115.11" y="1942.95" width="1440.22" height="696.35"/>
  <rect x="-115.11" y="2792.45" width="1440.22" height="139.87"/>
  <g>
    <path class="cls-1" d="M2.1,361.84v-21.33H-3.08v-32.75l53.93-22.09v22.09h11.12v32.75h-11.12v13.86c0,4.72,1.52,7.31,6.09,7.31,2.29,0,4.72-.3,7.01-.76v37.48c-6.86,1.52-13.56,2.29-22.24,2.29-27.73,0-39.61-14.93-39.61-38.85Z"/>
    <path class="cls-1" d="M70.04,282.62h48.75v35.95c5.18-8.38,14.02-12.34,25.9-12.34,19.35,0,30.47,12.95,30.47,34.73v58.2h-48.75v-51.8c0-4.72-1.83-6.4-5.94-6.4h-1.68v58.2h-48.75v-116.54Z"/>
    <path class="cls-1" d="M228.63,359.09c.61,4.42,3.35,5.94,9.75,5.94,10.97,0,21.33-.76,37.17-1.83v34.58c-16.15,2.29-26.36,2.89-41.13,2.89-38.09,0-53.17-20.26-53.17-48.45s19.8-46.01,51.64-46.01c29.1,0,46.62,16.15,46.62,42.2v10.66h-50.88ZM228.48,342.34v6.09h9.14v-6.09c0-3.05-1.68-4.72-4.57-4.72s-4.57,1.68-4.57,4.72Z"/>
    <path class="cls-1" d="M314.1,395.66c11.12,4.11,22.7,6.55,34.58,6.55,13.71,0,19.5-3.81,19.5-11.43v-8.68c-4.11,10.97-12.8,14.93-26.05,14.93-19.65,0-35.65-16.76-35.65-43.72,0-29.55,16-47.07,38.54-47.07,12.49,0,21.79,5.79,27.42,14.62l3.5-13.1h40.98v68.1c0,40.37-18.89,62.16-65.2,62.16-11.43,0-26.05-1.98-37.63-5.03v-37.32ZM368.18,361.68v-16.45h-4.42c-5.03,0-7.77,2.44-7.77,8.23s2.74,8.23,7.77,8.23h4.42Z"/>
    <path class="cls-1" d="M423.02,353.3c0-27.12,17.98-47.84,52.41-47.84s52.41,20.72,52.41,47.84-17.98,48.14-52.41,48.14-52.41-21.33-52.41-48.14ZM482.13,353.3c0-6.25-2.29-8.99-6.7-8.99s-6.7,2.74-6.7,8.99,2.29,8.53,6.7,8.53,6.7-2.29,6.7-8.53Z"/>
    <path class="cls-1" d="M532.25,283.38c0-10.21,8.38-18.28,26.05-18.28s26.05,8.07,26.05,18.28-8.07,18.43-26.05,18.43-26.05-7.77-26.05-18.43ZM533.93,307.75h48.75v91.41h-48.75v-91.41Z"/>
    <path class="cls-1" d="M590.3,307.75h39.3l4.27,12.49c5.79-8.99,15.84-14.02,28.64-14.02,20.57,0,32.91,14.47,32.91,34.73v58.2h-48.75v-51.8c0-4.72-1.83-6.4-5.94-6.4h-1.68v58.2h-48.75v-91.41Z"/>
    <path class="cls-1" d="M709.13,395.66c11.12,4.11,22.7,6.55,34.58,6.55,13.71,0,19.5-3.81,19.5-11.43v-8.68c-4.11,10.97-12.8,14.93-26.05,14.93-19.65,0-35.65-16.76-35.65-43.72,0-29.55,16-47.07,38.54-47.07,12.49,0,21.79,5.79,27.42,14.62l3.5-13.1h40.98v68.1c0,40.37-18.89,62.16-65.2,62.16-11.43,0-26.05-1.98-37.63-5.03v-37.32ZM763.21,361.68v-16.45h-4.42c-5.03,0-7.77,2.44-7.77,8.23s2.74,8.23,7.77,8.23h4.42Z"/>
    <path class="cls-1" d="M848.06,395.66c11.12,4.11,22.7,6.55,34.58,6.55,13.71,0,19.5-3.81,19.5-11.43v-8.68c-4.11,10.97-12.8,14.93-26.05,14.93-19.65,0-35.65-16.76-35.65-43.72,0-29.55,16-47.07,38.54-47.07,12.49,0,21.79,5.79,27.42,14.62l3.5-13.1h40.98v68.1c0,40.37-18.89,62.16-65.2,62.16-11.43,0-26.05-1.98-37.63-5.03v-37.32ZM902.15,361.68v-16.45h-4.42c-5.03,0-7.77,2.44-7.77,8.23s2.74,8.23,7.77,8.23h4.42Z"/>
    <path class="cls-1" d="M1004.37,359.09c.61,4.42,3.35,5.94,9.75,5.94,10.97,0,21.33-.76,37.17-1.83v34.58c-16.15,2.29-26.36,2.89-41.13,2.89-38.09,0-53.17-20.26-53.17-48.45s19.8-46.01,51.64-46.01c29.1,0,46.62,16.15,46.62,42.2v10.66h-50.88ZM1004.22,342.34v6.09h9.14v-6.09c0-3.05-1.68-4.72-4.57-4.72s-4.57,1.68-4.57,4.72Z"/>
    <path class="cls-1" d="M1064.24,361.84v-21.33h-5.18v-32.75l53.93-22.09v22.09h11.12v32.75h-11.12v13.86c0,4.72,1.52,7.31,6.09,7.31,2.29,0,4.72-.3,7.01-.76v37.48c-6.86,1.52-13.56,2.29-22.24,2.29-27.73,0-39.61-14.93-39.61-38.85Z"/>
    <path class="cls-1" d="M1196.17,349.8c9.75,5.48,16.15,12.49,16.15,24.83,0,15.08-11.43,25.29-42.05,25.29-17.21,0-27.27-.91-38.85-2.74v-35.65c9.9,1.22,16.76,1.68,27.73,1.83v-1.83l-10.21-4.27c-11.27-4.72-18.28-11.73-18.28-24.98s11.43-25.29,42.05-25.29c13.25,0,22.55.3,36.11,1.83v33.52c-9.75-.76-15.39-1.07-25.14-1.07v1.52l12.49,7.01Z"/>
  </g>
  <g>
    <path class="cls-1" d="M-8.82,785.4v-32.02h-7.78v-49.18l80.98-33.17v33.17h16.7v49.18h-16.7v20.82c0,7.09,2.29,10.98,9.15,10.98,3.43,0,7.09-.46,10.52-1.14v56.27c-10.29,2.29-20.36,3.43-33.4,3.43-41.63,0-59.47-22.42-59.47-58.33Z"/>
    <path class="cls-1" d="M93.2,666.46h73.2v53.98c7.78-12.58,21.04-18.53,38.89-18.53,29.05,0,45.75,19.44,45.75,52.15v87.38h-73.2v-77.77c0-7.09-2.74-9.61-8.92-9.61h-2.52v87.38h-73.2v-174.99Z"/>
    <path class="cls-1" d="M331.32,781.29c.92,6.63,5.03,8.92,14.64,8.92,16.47,0,32.02-1.14,55.81-2.75v51.92c-24.25,3.43-39.57,4.35-61.76,4.35-57.19,0-79.83-30.42-79.83-72.74s29.74-69.08,77.54-69.08c43.69,0,70,24.25,70,63.36v16.01h-76.4ZM331.09,756.12v9.15h13.72v-9.15c0-4.58-2.52-7.09-6.86-7.09s-6.86,2.52-6.86,7.09Z"/>
    <path class="cls-1" d="M454.83,785.4v-32.02h-7.78v-49.18l80.98-33.17v33.17h16.7v49.18h-16.7v20.82c0,7.09,2.29,10.98,9.15,10.98,3.43,0,7.09-.46,10.52-1.14v56.27c-10.29,2.29-20.36,3.43-33.4,3.43-41.63,0-59.47-22.42-59.47-58.33Z"/>
    <path class="cls-1" d="M554.56,772.59c0-40.72,26.99-71.83,78.69-71.83s78.69,31.11,78.69,71.83-26.99,72.28-78.69,72.28-78.69-32.02-78.69-72.28ZM643.31,772.59c0-9.38-3.43-13.5-10.06-13.5s-10.06,4.12-10.06,13.5,3.43,12.81,10.06,12.81,10.06-3.43,10.06-12.81Z"/>
    <path class="cls-1" d="M878.92,841.45h-59.02l-5.95-18.3c-8.23,13.27-22.42,20.59-41.17,20.59-34.77,0-51.7-21.5-51.7-58.79v-80.75h73.2v77.54c0,5.72,1.6,7.78,7.09,7.78h4.35v-85.32h73.2v137.25Z"/>
    <path class="cls-1" d="M899.5,836.18c16.7,6.18,34.08,9.84,51.93,9.84,20.59,0,29.28-5.72,29.28-17.16v-13.04c-6.18,16.47-19.21,22.42-39.12,22.42-29.51,0-53.53-25.16-53.53-65.65,0-44.38,24.02-70.68,57.87-70.68,18.76,0,32.71,8.69,41.17,21.96l5.26-19.67h61.53v102.25c0,60.62-28.36,93.33-97.9,93.33-17.16,0-39.12-2.97-56.5-7.55v-56.04ZM980.7,785.17v-24.7h-6.63c-7.55,0-11.67,3.66-11.67,12.35s4.12,12.35,11.67,12.35h6.63Z"/>
    <path class="cls-1" d="M1065.34,666.46h73.2v53.98c7.78-12.58,21.04-18.53,38.89-18.53,29.05,0,45.75,19.44,45.75,52.15v87.38h-73.2v-77.77c0-7.09-2.74-9.61-8.92-9.61h-2.52v87.38h-73.2v-174.99Z"/>
  </g>
  <g>
    <path d="M48,1238.97c44.57,16.48,90.96,26.25,138.58,26.25,54.94,0,78.14-15.26,78.14-45.79v-34.8c-16.48,43.96-51.28,59.83-104.39,59.83-78.75,0-142.85-67.15-142.85-175.21,0-118.44,64.1-188.64,154.45-188.64,50.06,0,87.3,23.2,109.89,58.61l14.04-52.5h164.22v272.89c0,161.78-75.7,249.08-261.29,249.08-45.79,0-104.39-7.94-150.79-20.15v-149.57ZM264.73,1102.83v-65.93h-17.7c-20.15,0-31.13,9.77-31.13,32.97s10.99,32.97,31.13,32.97h17.7Z"/>
    <path d="M674.37,1092.46c2.44,17.7,13.43,23.81,39.07,23.81,43.96,0,85.47-3.05,148.96-7.33v138.58c-64.71,9.16-105.61,11.6-164.83,11.6-152.62,0-213.06-81.19-213.06-194.13s79.36-184.37,206.96-184.37c116.6,0,186.81,64.71,186.81,169.11v42.73h-203.9ZM673.76,1025.3v24.42h36.63v-24.42c0-12.21-6.72-18.93-18.31-18.93s-18.31,6.72-18.31,18.93Z"/>
    <path d="M914.28,1103.44v-85.47h-20.76v-131.25l216.11-88.52v88.52h44.57v131.25h-44.57v55.55c0,18.92,6.1,29.3,24.42,29.3,9.16,0,18.92-1.22,28.08-3.05v150.18c-27.47,6.11-54.33,9.16-89.13,9.16-111.11,0-158.73-59.83-158.73-155.67Z"/>
  </g>
  <g>
    <path class="cls-1" d="M147.6,1283.91c33.93,0,60.29,1.98,86.97,4.94v99.16c-31.3-.66-52.38-1.65-76.43-1.65-32.94,0-37.89,8.57-37.89,23.06s6.92,21.41,18.45,21.41c2.31,0,4.61,0,6.59-.33v-28h112.01v121.23c-37.23,10.21-65.89,12.52-104.76,12.52-105.75,0-149.24-62.92-149.24-127.16s38.87-125.19,144.29-125.19Z"/>
    <path class="cls-1" d="M268.84,1409.43c0-67.21,42.5-125.84,135.4-125.84s135.4,58.64,135.4,125.84c0,70.5-42.5,126.83-135.4,126.83s-135.4-56.33-135.4-126.83ZM424.33,1409.43c0-14.82-6.59-23.72-20.1-23.72s-20.1,8.89-20.1,23.72c0,16.14,6.59,23.06,20.1,23.06s20.1-6.92,20.1-23.06Z"/>
    <path class="cls-1" d="M668.11,1285.56v247.08h-115.3v-247.08h115.3Z"/>
    <path class="cls-1" d="M684.58,1285.56h96.53l49.09,74.45h4.94v-74.45h100.48v247.08h-96.52l-49.09-74.45h-4.94v74.45h-100.48v-247.08Z"/>
    <path class="cls-1" d="M1093.08,1283.91c33.93,0,60.29,1.98,86.97,4.94v99.16c-31.3-.66-52.38-1.65-76.43-1.65-32.94,0-37.89,8.57-37.89,23.06s6.92,21.41,18.45,21.41c2.31,0,4.61,0,6.59-.33v-28h112.01v121.23c-37.23,10.21-65.89,12.52-104.76,12.52-105.75,0-149.24-62.92-149.24-127.16s38.87-125.19,144.29-125.19Z"/>
  </g>
  <g>
    <path d="M21.1,1627.85c14.07,4.46,21.23,13.93,21.23,29.62,0,19.21-14.74,30.43-43.69,30.43-14.88,0-28.27-1.08-42.06-3.65v-40.71c10.14,1.76,20.29,2.71,30.7,2.71v-2.03l-9.6-3.25c-14.07-4.73-21.23-14.2-21.23-26.78,0-17.72,12.17-30.16,43.15-30.16,13.39,0,23.13.54,37.33,1.89v38.01c-8.79-.95-16.91-1.35-25.97-1.35v2.03l10.14,3.25Z"/>
    <path d="M63.3,1625.96h-21.64v-40.58h90.62v40.58h-21.64v60.86h-47.34v-60.86Z"/>
    <path d="M184.36,1585.38v101.44h-47.34v-101.44h47.34Z"/>
    <path d="M191.12,1585.38h47.34v60.86h21.91v40.58h-69.25v-101.44Z"/>
    <path d="M266.46,1585.38h47.34v60.86h21.91v40.58h-69.25v-101.44Z"/>
    <path d="M361.68,1585.38h39.63l20.15,30.57h2.03v-30.57h41.25v101.44h-39.63l-20.15-30.57h-2.03v30.57h-41.25v-101.44Z"/>
    <path d="M470.16,1636.24c0-27.59,17.45-51.67,55.59-51.67s55.59,24.08,55.59,51.67c0,28.94-17.45,52.07-55.59,52.07s-55.59-23.13-55.59-52.07ZM534,1636.24c0-6.09-2.71-9.74-8.25-9.74s-8.25,3.65-8.25,9.74c0,6.63,2.71,9.47,8.25,9.47s8.25-2.84,8.25-9.47Z"/>
    <path d="M606.63,1585.38h59.24l11.5,31.79h2.03l10.14-31.79h49.23v101.44h-47.34v-31.78h-2.03l-10.14,31.78h-28.67l-11.5-31.78h-2.03v31.78h-30.43v-101.44Z"/>
    <path d="M793.56,1585.38v55.05c0,3.92,1.22,5.68,4.06,5.68s4.06-1.76,4.06-5.68v-55.05h36.52v56.13c0,28-16.64,46.66-46.39,46.66s-46.26-18.67-46.26-46.66v-56.13h48.02Z"/>
    <path d="M906.77,1627.85c14.07,4.46,21.23,13.93,21.23,29.62,0,19.21-14.74,30.43-43.69,30.43-14.88,0-28.27-1.08-42.06-3.65v-40.71c10.14,1.76,20.29,2.71,30.7,2.71v-2.03l-9.6-3.25c-14.07-4.73-21.23-14.2-21.23-26.78,0-17.72,12.17-30.16,43.15-30.16,13.39,0,23.13.54,37.33,1.89v38.01c-8.79-.95-16.91-1.35-25.97-1.35v2.03l10.14,3.25Z"/>
    <path d="M997.93,1627.85c14.07,4.46,21.23,13.93,21.23,29.62,0,19.21-14.74,30.43-43.69,30.43-14.88,0-28.27-1.08-42.06-3.65v-40.71c10.14,1.76,20.29,2.71,30.7,2.71v-2.03l-9.6-3.25c-14.07-4.73-21.23-14.2-21.23-26.78,0-17.72,12.17-30.16,43.15-30.16,13.39,0,23.13.54,37.33,1.89v38.01c-8.79-.95-16.91-1.35-25.97-1.35v2.03l10.14,3.25Z"/>
    <path d="M-44.77,1753.24c0-27.59,17.45-51.67,55.59-51.67s55.59,24.08,55.59,51.67c0,28.94-17.45,52.07-55.59,52.07s-55.59-23.13-55.59-52.07ZM19.07,1753.24c0-6.09-2.71-9.74-8.25-9.74s-8.25,3.65-8.25,9.74c0,6.63,2.71,9.47,8.25,9.47s8.25-2.84,8.25-9.47Z"/>
    <path d="M122.54,1778.26h-3.38v25.56h-47.34v-101.44h64.79c29.89,0,45.85,16.23,45.85,39.76,0,10.55-4.33,20.83-13.39,27.86l15.69,33.81h-52.07l-10.14-25.56ZM119.03,1740.25v11.63h9.2c4.19,0,6.09-1.76,6.09-5.82s-1.89-5.82-6.09-5.82h-9.2Z"/>
    <path d="M223.18,1702.38h68.84l18.67,101.44h-48.56l-2.43-13.8h-20.29l-2.03,13.8h-32.73l18.53-101.44ZM243.46,1762.98h11.63l-4.46-25.43h-3.38l-3.79,25.43Z"/>
    <path d="M314.75,1702.38h39.63l20.15,30.57h2.03v-30.57h41.25v101.44h-39.63l-20.15-30.57h-2.03v30.57h-41.25v-101.44Z"/>
    <path d="M470.97,1702.38l7.44,21.37h2.03l6.63-21.37h30.16l-25.7,71.55v29.89h-47.34v-41.39l-25.02-60.05h51.8Z"/>
    <path d="M538.46,1702.38h76.15v39.22h-28.81v6.76h26.78v29.76h-26.78v25.7h-47.34v-101.44Z"/>
    <path d="M666.69,1702.38v55.05c0,3.92,1.22,5.68,4.06,5.68s4.06-1.76,4.06-5.68v-55.05h36.52v56.13c0,28-16.64,46.66-46.39,46.66s-46.26-18.67-46.26-46.66v-56.13h48.02Z"/>
    <path d="M779.9,1744.85c14.07,4.46,21.23,13.93,21.23,29.62,0,19.21-14.74,30.43-43.69,30.43-14.88,0-28.27-1.08-42.06-3.65v-40.71c10.14,1.76,20.29,2.71,30.7,2.71v-2.03l-9.6-3.25c-14.07-4.73-21.23-14.2-21.23-26.78,0-17.72,12.17-30.16,43.15-30.16,13.39,0,23.13.54,37.33,1.89v38.01c-8.79-.95-16.91-1.35-25.97-1.35v2.03l10.14,3.25Z"/>
    <path d="M871.06,1744.85c14.07,4.46,21.23,13.93,21.23,29.62,0,19.21-14.74,30.43-43.69,30.43-14.88,0-28.27-1.08-42.06-3.65v-40.71c10.14,1.76,20.29,2.71,30.7,2.71v-2.03l-9.6-3.25c-14.07-4.73-21.23-14.2-21.23-26.78,0-17.72,12.17-30.16,43.15-30.16,13.39,0,23.13.54,37.33,1.89v38.01c-8.79-.95-16.91-1.35-25.97-1.35v2.03l10.14,3.25Z"/>
    <path d="M-27.59,1819.38H41.25l18.67,101.44H11.36l-2.43-13.8H-11.36l-2.03,13.8h-32.73l18.53-101.44ZM-7.3,1879.98H4.33l-4.46-25.43h-3.38l-3.79,25.43Z"/>
    <path d="M63.98,1819.38h39.63l20.15,30.57h2.03v-30.57h41.25v101.44h-39.63l-20.15-30.57h-2.03v30.57h-41.25v-101.44Z"/>
    <path d="M225.07,1819.38c40.04,0,54.78,25.97,54.78,50.72s-14.74,50.72-54.78,50.72h-51.26v-101.44h51.26ZM221.15,1882.28h2.71c4.6,0,7.98-2.03,7.98-12.17s-3.38-12.17-7.98-12.17h-2.71v24.35Z"/>
    <path d="M305.14,1819.38h39.63l20.15,30.57h2.03v-30.57h41.25v101.44h-39.63l-20.15-30.57h-2.03v30.57h-41.25v-101.44Z"/>
    <path d="M413.62,1870.24c0-27.59,17.45-51.67,55.59-51.67s55.59,24.08,55.59,51.67c0,28.94-17.45,52.07-55.59,52.07s-55.59-23.13-55.59-52.07ZM477.46,1870.24c0-6.09-2.71-9.74-8.25-9.74s-8.25,3.65-8.25,9.74c0,6.63,2.71,9.47,8.25,9.47s8.25-2.84,8.25-9.47Z"/>
    <path d="M611.09,1819.38c26.78,0,38.82,9.87,38.82,27.46,0,8.12-2.98,14.47-7.44,18.39,12.17,3.52,18.53,13.12,18.53,27.19,0,16.91-13.93,28.4-39.22,28.4h-71.68v-101.44h61ZM597.43,1865.37h2.98c3.92,0,6.09-2.16,6.09-6.76s-2.16-6.76-6.09-6.76h-2.98v13.53ZM597.43,1888.36h5.68c4.19,0,6.49-1.89,6.49-6.76s-2.3-6.76-6.49-6.76h-5.68v13.53Z"/>
    <path d="M711.05,1819.38v55.05c0,3.92,1.22,5.68,4.06,5.68s4.06-1.76,4.06-5.68v-55.05h36.52v56.13c0,28-16.64,46.66-46.39,46.66s-46.26-18.67-46.26-46.66v-56.13h48.02Z"/>
    <path d="M762.45,1819.38h47.34v60.86h21.91v40.58h-69.25v-101.44Z"/>
    <path d="M837.79,1819.38h47.34v60.86h21.91v40.58h-69.25v-101.44Z"/>
    <path d="M976.29,1861.85c14.07,4.46,21.23,13.93,21.23,29.62,0,19.21-14.74,30.43-43.69,30.43-14.88,0-28.27-1.08-42.06-3.65v-40.71c10.14,1.76,20.29,2.71,30.7,2.71v-2.03l-9.6-3.25c-14.07-4.73-21.23-14.2-21.23-26.78,0-17.72,12.17-30.16,43.15-30.16,13.39,0,23.13.54,37.33,1.89v38.01c-8.79-.95-16.91-1.35-25.97-1.35v2.03l10.14,3.25Z"/>
    <path d="M1050.28,1819.38v39.36h6.76v-39.36h47.34v101.44h-47.34v-35.03h-6.76v35.03h-47.34v-101.44h47.34Z"/>
    <path d="M1158.49,1819.38v101.44h-47.34v-101.44h47.34Z"/>
    <path d="M1184.86,1859.96h-21.64v-40.58h90.62v40.58h-21.64v60.86h-47.34v-60.86Z"/>
  </g>
  <g>
    <path d="M139.97,2768.79h-43.65l-3.14-10.36c-6.12,7.54-15.7,11.93-28.26,11.93-21.51,0-37.21-15.39-37.21-48.98,0-29.52,15.7-48.36,37.21-48.36,13.19,0,22.61,5.5,28.57,13.82l2.83-12.25h43.65v94.2ZM89.73,2730.48v-17.9h-2.98c-5.18,0-8.01,2.2-8.01,8.95s2.83,8.95,8.01,8.95h2.98Z"/>
    <path d="M213.76,2717.92c10.05,5.65,16.64,12.87,16.64,25.59,0,15.54-11.77,26.06-43.33,26.06-17.74,0-28.1-.94-40.03-2.83v-36.74c10.2,1.26,17.27,1.73,28.57,1.88v-1.88l-10.52-4.4c-11.62-4.87-18.84-12.09-18.84-25.75s11.77-26.06,43.33-26.06c13.66,0,23.24.31,37.21,1.88v34.54c-10.05-.78-15.86-1.1-25.9-1.1v1.57l12.87,7.22Z"/>
    <path d="M258.04,2649.47c0-10.52,8.64-18.84,26.85-18.84s26.85,8.32,26.85,18.84-8.32,19-26.85,19-26.85-8.01-26.85-19ZM259.76,2674.59h50.24v94.2h-50.24v-94.2Z"/>
    <path d="M317.85,2674.59h40.51l4.4,12.87c5.97-9.26,16.33-14.44,29.52-14.44,21.19,0,33.91,14.92,33.91,35.8v59.97h-50.24v-53.38c0-4.87-1.88-6.59-6.12-6.59h-1.73v59.97h-50.24v-94.2Z"/>
    <path d="M515.98,2739.11h-3.93v29.67h-54.95v-117.75h75.2c34.7,0,53.22,18.84,53.22,46.16,0,12.25-5.02,24.18-15.54,32.34l18.21,39.25h-60.44l-11.77-29.67ZM511.9,2695v13.5h10.68c4.87,0,7.06-2.04,7.06-6.75s-2.2-6.75-7.06-6.75h-10.68Z"/>
    <path d="M586.63,2721.53c0-27.95,18.53-49.3,54.01-49.3s54.01,21.35,54.01,49.3-18.53,49.61-54.01,49.61-54.01-21.98-54.01-49.61ZM647.55,2721.53c0-6.44-2.35-9.26-6.91-9.26s-6.91,2.83-6.91,9.26,2.35,8.79,6.91,8.79,6.91-2.35,6.91-8.79Z"/>
    <path d="M700.93,2648.68h50.24v32.34c6.44-5.02,14.6-8.01,23.71-8.01,25.43,0,39.25,19.94,39.25,49.14,0,33.28-17.43,48.2-39.25,48.2-11.46,0-21.51-4.55-28.26-12.72l-4.55,11.15h-41.13v-120.1ZM751.17,2711.01v17.9h3.93c5.18,0,8.01-2.2,8.01-8.95s-2.83-8.95-8.01-8.95h-3.93Z"/>
    <path d="M928.73,2768.79h-40.51l-4.08-12.56c-5.65,9.11-15.39,14.13-28.26,14.13-23.86,0-35.48-14.76-35.48-40.35v-55.42h50.24v53.22c0,3.92,1.1,5.34,4.87,5.34h2.98v-58.56h50.24v94.2Z"/>
    <path d="M1002.52,2717.92c10.05,5.65,16.64,12.87,16.64,25.59,0,15.54-11.77,26.06-43.33,26.06-17.74,0-28.1-.94-40.03-2.83v-36.74c10.2,1.26,17.27,1.73,28.57,1.88v-1.88l-10.52-4.4c-11.62-4.87-18.84-12.09-18.84-25.75s11.77-26.06,43.33-26.06c13.66,0,23.24.31,37.21,1.88v34.54c-10.05-.78-15.86-1.1-25.9-1.1v1.57l12.87,7.22Z"/>
    <path d="M1025.29,2730.32v-21.98h-5.34v-33.75l55.58-22.76v22.76h11.46v33.75h-11.46v14.29c0,4.87,1.57,7.54,6.28,7.54,2.35,0,4.87-.31,7.22-.79v38.62c-7.06,1.57-13.97,2.36-22.92,2.36-28.57,0-40.82-15.39-40.82-40.04Z"/>
    <path d="M1093.74,2721.53c0-27.95,18.53-49.3,54.01-49.3s54.01,21.35,54.01,49.3-18.53,49.61-54.01,49.61-54.01-21.98-54.01-49.61ZM1154.65,2721.53c0-6.44-2.35-9.26-6.91-9.26s-6.91,2.83-6.91,9.26,2.35,8.79,6.91,8.79,6.91-2.35,6.91-8.79Z"/>
  </g>
  <g>
    <path d="M67.8,2985.56c-2.76-.32-3.73-.41-6.09-.41-3.65,0-5.11,1.95-5.11,4.71s1.46,4.62,5.11,4.62c2.35,0,3.33-.08,6.09-.41v25.8c-3.81.65-7.06.81-11.12.81-19.15,0-30.1-13.71-30.1-30.83s10.95-30.84,30.1-30.84c4.22,0,6.57.24,11.12.81v25.72Z"/>
    <path d="M70.24,2989.94c0-16.55,10.47-31,33.35-31s33.35,14.44,33.35,31c0,17.37-10.47,31.24-33.35,31.24s-33.35-13.88-33.35-31.24ZM108.54,2989.94c0-3.65-1.62-5.84-4.95-5.84s-4.95,2.19-4.95,5.84c0,3.98,1.62,5.68,4.95,5.68s4.95-1.7,4.95-5.68Z"/>
    <path d="M140.19,2959.43h23.78l12.09,18.34h1.22v-18.34h24.75v60.86h-23.78l-12.09-18.34h-1.22v18.34h-24.75v-60.86Z"/>
    <path d="M246.5,2985.56c-2.76-.32-3.73-.41-6.09-.41-3.65,0-5.11,1.95-5.11,4.71s1.46,4.62,5.11,4.62c2.35,0,3.33-.08,6.09-.41v25.8c-3.81.65-7.06.81-11.12.81-19.15,0-30.1-13.71-30.1-30.83s10.95-30.84,30.1-30.84c4.22,0,6.57.24,11.12.81v25.72Z"/>
    <path d="M250.55,2959.43h48.93v21.91h-20.53v3.65h16.47v8.52h-16.47v3.65h21.5v23.13h-49.9v-60.86Z"/>
    <path d="M342.41,2984.91c8.44,2.68,12.74,8.36,12.74,17.77,0,11.52-8.85,18.26-26.21,18.26-8.93,0-16.96-.65-25.24-2.19v-24.42c6.09,1.05,12.17,1.62,18.42,1.62v-1.22l-5.76-1.95c-8.44-2.84-12.74-8.52-12.74-16.07,0-10.63,7.3-18.1,25.89-18.1,8.03,0,13.88.32,22.4,1.14v22.8c-5.27-.57-10.14-.81-15.58-.81v1.22l6.09,1.95Z"/>
    <path d="M397.11,2984.91c8.44,2.68,12.74,8.36,12.74,17.77,0,11.52-8.85,18.26-26.21,18.26-8.93,0-16.96-.65-25.24-2.19v-24.42c6.09,1.05,12.17,1.62,18.42,1.62v-1.22l-5.76-1.95c-8.44-2.84-12.74-8.52-12.74-16.07,0-10.63,7.3-18.1,25.89-18.1,8.03,0,13.88.32,22.4,1.14v22.8c-5.27-.57-10.14-.81-15.58-.81v1.22l6.09,1.95Z"/>
    <path d="M441.5,2959.43v60.86h-28.4v-60.86h28.4Z"/>
    <path d="M444.74,2989.94c0-16.55,10.47-31,33.35-31s33.35,14.44,33.35,31c0,17.37-10.47,31.24-33.35,31.24s-33.35-13.88-33.35-31.24ZM483.05,2989.94c0-3.65-1.62-5.84-4.95-5.84s-4.95,2.19-4.95,5.84c0,3.98,1.62,5.68,4.95,5.68s4.95-1.7,4.95-5.68Z"/>
    <path d="M514.69,2959.43h23.78l12.09,18.34h1.22v-18.34h24.75v60.86h-23.78l-12.09-18.34h-1.22v18.34h-24.75v-60.86Z"/>
    <path d="M590.08,2959.43h41.3l11.2,60.86h-29.13l-1.46-8.28h-12.17l-1.22,8.28h-19.64l11.12-60.86ZM602.25,2995.79h6.98l-2.68-15.26h-2.03l-2.27,15.26Z"/>
    <path d="M675.45,3004.96h-2.03v15.34h-28.4v-60.86h38.87c17.93,0,27.51,9.74,27.51,23.86,0,6.33-2.6,12.5-8.03,16.72l9.41,20.29h-31.24l-6.09-15.34ZM673.34,2982.15v6.98h5.52c2.52,0,3.65-1.05,3.65-3.49s-1.14-3.49-3.65-3.49h-5.52Z"/>
    <path d="M737.37,2959.43l4.46,12.82h1.22l3.98-12.82h18.1l-15.42,42.93v17.93h-28.4v-24.83l-15.01-36.03h31.08Z"/>
    <path d="M818.27,2985.56c-2.76-.32-3.73-.41-6.09-.41-3.65,0-5.11,1.95-5.11,4.71s1.46,4.62,5.11,4.62c2.35,0,3.33-.08,6.09-.41v25.8c-3.81.65-7.06.81-11.12.81-19.15,0-30.1-13.71-30.1-30.83s10.95-30.84,30.1-30.84c4.22,0,6.57.24,11.12.81v25.72Z"/>
    <path d="M820.71,2989.94c0-16.55,10.47-31,33.35-31s33.35,14.44,33.35,31c0,17.37-10.47,31.24-33.35,31.24s-33.35-13.88-33.35-31.24ZM859.01,2989.94c0-3.65-1.62-5.84-4.95-5.84s-4.95,2.19-4.95,5.84c0,3.98,1.62,5.68,4.95,5.68s4.95-1.7,4.95-5.68Z"/>
    <path d="M890.66,2959.43h23.78l12.09,18.34h1.22v-18.34h24.75v60.86h-23.78l-12.09-18.34h-1.22v18.34h-24.75v-60.86Z"/>
    <path d="M968.32,2983.78h-12.98v-24.34h54.37v24.34h-12.98v36.52h-28.4v-36.52Z"/>
    <path d="M1012.54,2959.43h48.93v21.91h-20.53v3.65h16.47v8.52h-16.47v3.65h21.5v23.13h-49.9v-60.86Z"/>
    <path d="M1104.4,2984.91c8.44,2.68,12.74,8.36,12.74,17.77,0,11.52-8.85,18.26-26.21,18.26-8.93,0-16.96-.65-25.24-2.19v-24.42c6.09,1.05,12.17,1.62,18.42,1.62v-1.22l-5.76-1.95c-8.44-2.84-12.74-8.52-12.74-16.07,0-10.63,7.3-18.1,25.89-18.1,8.03,0,13.88.32,22.4,1.14v22.8c-5.27-.57-10.14-.81-15.58-.81v1.22l6.09,1.95Z"/>
    <path d="M1129.72,2983.78h-12.98v-24.34h54.37v24.34h-12.98v36.52h-28.4v-36.52Z"/>
    <path d="M86.23,3155.47v18.83H29.42v-121.72h63.78c42.2,0,61.83,21.1,61.83,52.75s-24.02,50.15-58.75,50.15h-10.06ZM86.23,3097.2v23.37h2.43c5.19,0,8.93-2.43,8.93-11.69s-3.73-11.68-8.93-11.68h-2.43Z"/>
    <path d="M159.91,3052.57h97.86v43.82h-41.06v7.3h32.95v17.04h-32.95v7.3h43.01v46.25h-99.81v-121.72Z"/>
    <path d="M267.84,3052.57h47.55l24.18,36.68h2.43v-36.68h49.5v121.72h-47.55l-24.18-36.68h-2.43v36.68h-49.5v-121.72Z"/>
    <path d="M398,3113.6c0-33.11,20.94-62,66.7-62s66.7,28.89,66.7,62c0,34.73-20.94,62.48-66.7,62.48s-66.7-27.75-66.7-62.48ZM474.6,3113.6c0-7.3-3.25-11.69-9.9-11.69s-9.9,4.38-9.9,11.69c0,7.95,3.25,11.36,9.9,11.36s9.9-3.41,9.9-11.36Z"/>
    <path d="M537.9,3052.57h56.8v73.03h26.29v48.69h-83.09v-121.72Z"/>
    <path d="M623.44,3113.6c0-33.11,20.94-62,66.7-62s66.7,28.89,66.7,62c0,34.73-20.94,62.48-66.7,62.48s-66.7-27.75-66.7-62.48ZM700.04,3113.6c0-7.3-3.25-11.69-9.9-11.69s-9.9,4.38-9.9,11.69c0,7.95,3.25,11.36,9.9,11.36s9.9-3.41,9.9-11.36Z"/>
    <path d="M832.8,3051.76c16.72,0,29.7.97,42.85,2.43v48.85c-15.42-.33-25.8-.81-37.65-.81-16.23,0-18.66,4.22-18.66,11.36s3.41,10.55,9.09,10.55c1.14,0,2.27,0,3.25-.16v-13.79h55.18v59.72c-18.34,5.03-32.46,6.17-51.61,6.17-52.1,0-73.52-31-73.52-62.64s19.15-61.67,71.08-61.67Z"/>
    <path d="M950.95,3052.57v121.72h-56.8v-121.72h56.8Z"/>
    <path d="M1036.48,3103.53c16.88,5.36,25.48,16.72,25.48,35.54,0,23.05-17.69,36.52-52.42,36.52-17.85,0-33.92-1.3-50.47-4.38v-48.85c12.17,2.11,24.34,3.25,36.84,3.25v-2.43l-11.52-3.9c-16.88-5.68-25.48-17.04-25.48-32.13,0-21.26,14.61-36.19,51.77-36.19,16.07,0,27.75.65,44.79,2.27v45.6c-10.55-1.14-20.29-1.62-31.16-1.62v2.43l12.17,3.89Z"/>
    <path d="M1087.12,3101.26h-25.97v-48.69h108.74v48.69h-25.97v73.03h-56.8v-73.03Z"/>
    <path d="M147.09,3407.64v37.65H33.48v-243.45h127.57c84.4,0,123.67,42.2,123.67,105.5s-48.04,100.3-117.51,100.3h-20.12ZM147.09,3291.11v46.74h4.87c10.39,0,17.85-4.87,17.85-23.37s-7.47-23.37-17.85-23.37h-4.87Z"/>
    <path d="M312.96,3201.84h165.22l44.79,243.45h-116.53l-5.84-33.11h-48.69l-4.87,33.11h-78.55l44.47-243.45ZM361.65,3347.26h27.92l-10.71-61.02h-8.12l-9.09,61.02Z"/>
    <path d="M684.3,3303.77c33.76,10.71,50.96,33.43,50.96,71.09,0,46.09-35.38,73.04-104.85,73.04-35.71,0-67.84-2.6-100.95-8.76v-97.71c24.34,4.22,48.69,6.49,73.68,6.49v-4.87l-23.05-7.79c-33.76-11.36-50.96-34.08-50.96-64.27,0-42.52,29.21-72.39,103.55-72.39,32.14,0,55.51,1.3,89.59,4.54v91.21c-21.1-2.27-40.58-3.25-62.32-3.25v4.87l24.34,7.79Z"/>
    <path d="M785.57,3299.22h-51.94v-97.38h217.48v97.38h-51.94v146.07h-113.61v-146.07Z"/>
    <path d="M1067.32,3201.84l17.85,51.29h4.87l15.91-51.29h72.39l-61.67,171.71v71.74h-113.61v-99.33l-60.05-144.12h124.32Z"/>
    <path d="M55.79,3481.43v60.86h-28.4v-60.86h28.4Z"/>
    <path d="M59.85,3493.61h20.94l2.27,6.65c3.08-4.79,8.44-7.46,15.26-7.46,10.95,0,17.53,7.71,17.53,18.5v31h-25.97v-27.59c0-2.52-.97-3.41-3.16-3.41h-.89v31h-25.97v-48.69Z"/>
    <path d="M121.45,3522.41v-11.36h-2.76v-17.45l28.73-11.77v11.77h5.92v17.45h-5.92v7.38c0,2.52.81,3.9,3.25,3.9,1.22,0,2.52-.16,3.73-.41v19.96c-3.65.81-7.22,1.22-11.85,1.22-14.77,0-21.1-7.95-21.1-20.69Z"/>
    <path d="M181.25,3520.95c.32,2.35,1.79,3.17,5.19,3.17,5.84,0,11.36-.41,19.8-.97v18.42c-8.6,1.22-14.04,1.54-21.91,1.54-20.29,0-28.32-10.79-28.32-25.8s10.55-24.51,27.51-24.51c15.5,0,24.83,8.6,24.83,22.48v5.68h-27.1ZM181.17,3512.03v3.25h4.87v-3.25c0-1.62-.89-2.52-2.43-2.52s-2.43.89-2.43,2.52Z"/>
    <path d="M211.6,3493.61h18.5l3.65,7.95c3.49-5.6,8.93-8.76,13.71-8.76v19.64c-3.08,0-6.57.24-9.9.73v29.13h-25.97v-48.69Z"/>
    <path d="M250.31,3493.61h20.85l2.43,6.98c2.84-4.63,7.87-7.79,15.17-7.79,6.41,0,11.28,2.27,14.04,7.71,2.92-4.63,7.95-7.71,15.17-7.71,10.47,0,17.53,6,17.53,21.83v27.67h-25.97v-26.78c0-3.33-.65-4.22-3.81-4.22h-.32c.08,1.05.08,2.19.08,3.33v27.67h-25.16v-26.78c0-3.33-.65-4.22-3.81-4.22h-.24v31h-25.97v-48.69Z"/>
    <path d="M364,3520.95c.32,2.35,1.79,3.17,5.19,3.17,5.84,0,11.36-.41,19.8-.97v18.42c-8.6,1.22-14.04,1.54-21.91,1.54-20.29,0-28.32-10.79-28.32-25.8s10.55-24.51,27.51-24.51c15.5,0,24.83,8.6,24.83,22.48v5.68h-27.1ZM363.92,3512.03v3.25h4.87v-3.25c0-1.62-.89-2.52-2.43-2.52s-2.43.89-2.43,2.52Z"/>
    <path d="M428.43,3516c5.19,2.92,8.6,6.65,8.6,13.23,0,8.03-6.09,13.47-22.4,13.47-9.17,0-14.53-.49-20.69-1.46v-18.99c5.27.65,8.93.89,14.77.97v-.97l-5.44-2.27c-6-2.52-9.74-6.25-9.74-13.31s6.09-13.47,22.4-13.47c7.06,0,12.01.16,19.23.97v17.85c-5.19-.41-8.2-.57-13.39-.57v.81l6.65,3.73Z"/>
    <path d="M440.28,3480.22h25.97v19.15c2.76-4.46,7.47-6.57,13.79-6.57,10.31,0,16.23,6.9,16.23,18.5v31h-25.97v-27.59c0-2.52-.97-3.41-3.16-3.41h-.89v31h-25.97v-62.08Z"/>
    <path d="M524.75,3520.95c.32,2.35,1.79,3.17,5.19,3.17,5.84,0,11.36-.41,19.8-.97v18.42c-8.6,1.22-14.04,1.54-21.91,1.54-20.29,0-28.32-10.79-28.32-25.8s10.55-24.51,27.51-24.51c15.5,0,24.83,8.6,24.83,22.48v5.68h-27.1ZM524.67,3512.03v3.25h4.87v-3.25c0-1.62-.89-2.52-2.43-2.52s-2.43.89-2.43,2.52Z"/>
    <path d="M589.19,3516c5.19,2.92,8.6,6.65,8.6,13.23,0,8.03-6.09,13.47-22.4,13.47-9.17,0-14.53-.49-20.69-1.46v-18.99c5.27.65,8.93.89,14.77.97v-.97l-5.44-2.27c-6-2.52-9.74-6.25-9.74-13.31s6.09-13.47,22.4-13.47c7.06,0,12.01.16,19.23.97v17.85c-5.19-.41-8.2-.57-13.39-.57v.81l6.65,3.73Z"/>
    <path d="M612.96,3481.43h48.93v21.91h-20.53v3.65h16.47v8.52h-16.47v3.65h21.5v23.13h-49.9v-60.86Z"/>
    <path d="M691.6,3493.61l4.79,17.37h1.22l5.36-17.37h17.61l-15.26,48.69h-25.48l-16.15-48.69h27.91Z"/>
    <path d="M776.15,3542.29h-22.56l-1.62-5.36c-3.16,3.89-8.11,6.17-14.61,6.17-11.12,0-19.23-7.95-19.23-25.32,0-15.26,8.11-24.99,19.23-24.99,6.82,0,11.69,2.84,14.77,7.14l1.46-6.33h22.56v48.69ZM750.19,3522.49v-9.25h-1.54c-2.68,0-4.14,1.14-4.14,4.63s1.46,4.62,4.14,4.62h1.54Z"/>
    <path d="M801.07,3493.61l2.6,7.55c3.25-5.03,8.6-8.36,15.34-8.36,10.71,0,19.72,9.09,19.72,25.4s-9.01,24.91-19.72,24.91c-5.19,0-9.58-1.7-12.82-4.71v22.96h-25.97v-67.76h20.85ZM806.18,3513.65v9.25h2.03c2.68,0,4.14-1.14,4.14-4.63s-1.46-4.62-4.14-4.62h-2.03Z"/>
    <path d="M841.16,3517.87c0-14.44,9.58-25.48,27.91-25.48s27.91,11.04,27.91,25.48-9.58,25.64-27.91,25.64-27.91-11.36-27.91-25.64ZM872.64,3517.87c0-3.33-1.22-4.79-3.57-4.79s-3.57,1.46-3.57,4.79,1.22,4.54,3.57,4.54,3.57-1.22,3.57-4.54Z"/>
    <path d="M900.23,3493.61h18.5l3.65,7.95c3.49-5.6,8.93-8.76,13.71-8.76v19.64c-3.08,0-6.57.24-9.9.73v29.13h-25.97v-48.69Z"/>
    <path d="M995.34,3542.29h-22.56l-1.62-5.36c-3.16,3.89-8.11,6.17-14.61,6.17-11.12,0-19.23-7.95-19.23-25.32,0-15.26,8.11-24.99,19.23-24.99,6.82,0,11.69,2.84,14.77,7.14l1.46-6.33h22.56v48.69ZM969.37,3522.49v-9.25h-1.54c-2.68,0-4.14,1.14-4.14,4.63s1.46,4.62,4.14,4.62h1.54Z"/>
    <path d="M1000.94,3522.41v-11.36h-2.76v-17.45l28.73-11.77v11.77h5.92v17.45h-5.92v7.38c0,2.52.81,3.9,3.25,3.9,1.22,0,2.52-.16,3.73-.41v19.96c-3.65.81-7.22,1.22-11.85,1.22-14.77,0-21.1-7.95-21.1-20.69Z"/>
    <path d="M1036.24,3480.62c0-5.44,4.46-9.74,13.88-9.74s13.88,4.3,13.88,9.74-4.3,9.82-13.88,9.82-13.88-4.14-13.88-9.82ZM1037.13,3493.61h25.97v48.69h-25.97v-48.69Z"/>
    <path d="M1092.64,3493.61l4.79,17.37h1.22l5.36-17.37h17.61l-15.26,48.69h-25.48l-16.15-48.69h27.91Z"/>
    <path d="M1143.6,3520.95c.32,2.35,1.79,3.17,5.19,3.17,5.84,0,11.36-.41,19.8-.97v18.42c-8.6,1.22-14.04,1.54-21.91,1.54-20.29,0-28.32-10.79-28.32-25.8s10.55-24.51,27.51-24.51c15.5,0,24.83,8.6,24.83,22.48v5.68h-27.1ZM1143.52,3512.03v3.25h4.87v-3.25c0-1.62-.89-2.52-2.43-2.52s-2.43.89-2.43,2.52Z"/>
    <path d="M27.8,3635.6c0-33.11,20.94-62,66.7-62s66.7,28.89,66.7,62c0,34.73-20.94,62.48-66.7,62.48s-66.7-27.75-66.7-62.48ZM104.4,3635.6c0-7.3-3.25-11.69-9.9-11.69s-9.9,4.38-9.9,11.69c0,7.95,3.25,11.36,9.9,11.36s9.9-3.41,9.9-11.36Z"/>
    <path d="M166.08,3598.92h8.6c1.46-29.86,15.9-42.85,46.9-42.85,7.63,0,13.15.49,18.83,1.79v32.3c-2.6-.49-5.19-.81-8.28-.81-4.22,0-5.68,1.62-5.68,5.52v4.06h12.33v34.89h-12.33v62.48h-51.93v-62.48h-8.44v-34.89Z"/>
    <path d="M243.66,3598.92h8.6c1.46-29.86,15.9-42.85,46.9-42.85,7.63,0,13.15.49,18.83,1.79v32.3c-2.6-.49-5.19-.81-8.28-.81-4.22,0-5.68,1.62-5.68,5.52v4.06h12.33v34.89h-12.33v62.48h-51.93v-62.48h-8.44v-34.89Z"/>
    <path d="M321.07,3572.95c0-10.87,8.93-19.48,27.75-19.48s27.75,8.6,27.75,19.48-8.6,19.64-27.75,19.64-27.75-8.28-27.75-19.64ZM322.86,3598.92h51.93v97.38h-51.93v-97.38Z"/>
    <path d="M453.67,3640.3c-2.6-.32-4.71-.49-7.3-.49-6,0-9.09,2.11-9.09,7.63s3.08,7.63,9.09,7.63c2.76,0,4.54-.16,7.3-.49v41.22c-6.65.81-12.17,1.3-18.5,1.3-36.68,0-53.88-21.58-53.88-49.5s17.2-49.5,53.88-49.5c6.98,0,11.85.49,18.5,1.46v40.74Z"/>
    <path d="M510.63,3653.61c.65,4.71,3.57,6.33,10.39,6.33,11.69,0,22.72-.81,39.6-1.95v36.84c-17.2,2.43-28.08,3.08-43.82,3.08-40.57,0-56.64-21.58-56.64-51.61s21.1-49.01,55.02-49.01c31,0,49.66,17.2,49.66,44.96v11.36h-54.21ZM510.47,3635.76v6.49h9.74v-6.49c0-3.25-1.79-5.03-4.87-5.03s-4.87,1.79-4.87,5.03Z"/>
    <path d="M571.33,3572.14h51.93v38.3c5.52-8.93,14.93-13.15,27.59-13.15,20.61,0,32.46,13.79,32.46,37v62h-51.93v-55.18c0-5.03-1.95-6.82-6.33-6.82h-1.79v62h-51.93v-124.15Z"/>
    <path d="M689.81,3647.44c0-28.89,19.15-50.96,55.83-50.96s55.83,22.07,55.83,50.96-19.15,51.28-55.83,51.28-55.83-22.72-55.83-51.28ZM752.78,3647.44c0-6.65-2.43-9.58-7.14-9.58s-7.14,2.92-7.14,9.58,2.43,9.09,7.14,9.09,7.14-2.43,7.14-9.09Z"/>
    <path d="M807.96,3572.14h51.93v124.15h-51.93v-124.15Z"/>
    <path d="M940.88,3696.29l-5.52-13.31c-6.17,9.58-16.39,14.93-29.54,14.93-21.42,0-39.44-17.85-39.44-52.26,0-30.19,18.01-48.36,39.44-48.36,10.87,0,19.48,3.41,25.64,9.41v-34.57h51.93v124.15h-42.52ZM931.47,3655.07v-18.5h-4.06c-5.36,0-8.28,2.27-8.28,9.25s2.92,9.25,8.28,9.25h4.06Z"/>
    <path d="M1040.37,3653.61c.65,4.71,3.57,6.33,10.39,6.33,11.69,0,22.72-.81,39.6-1.95v36.84c-17.2,2.43-28.08,3.08-43.82,3.08-40.57,0-56.64-21.58-56.64-51.61s21.1-49.01,55.02-49.01c31,0,49.66,17.2,49.66,44.96v11.36h-54.21ZM1040.21,3635.76v6.49h9.74v-6.49c0-3.25-1.79-5.03-4.87-5.03s-4.87,1.79-4.87,5.03Z"/>
    <path d="M1101.07,3598.92h37l7.3,15.9c6.98-11.2,17.85-17.53,27.43-17.53v39.27c-6.17,0-13.15.49-19.8,1.46v58.26h-51.93v-97.38Z"/>
    <path d="M148.06,3723.84l23.37,79.53h4.87l20.13-79.53h76.93l-68.17,243.45h-106.14l-72.06-243.45h121.08Z"/>
    <path d="M482.73,3967.29h-90.24l-6.49-21.42c-12.66,15.58-32.46,24.67-58.43,24.67-44.47,0-76.93-31.81-76.93-101.28,0-61.02,32.46-99.98,76.93-99.98,27.27,0,46.74,11.36,59.08,28.56l5.84-25.32h90.24v194.76ZM378.85,3888.09v-37h-6.17c-10.71,0-16.55,4.54-16.55,18.5s5.84,18.5,16.55,18.5h6.17Z"/>
    <path d="M498.95,3718.97h103.87v248.32h-103.87v-248.32Z"/>
    <path d="M716.76,3881.92c1.3,9.41,7.14,12.66,20.77,12.66,23.37,0,45.44-1.62,79.2-3.89v73.68c-34.41,4.87-56.16,6.17-87.64,6.17-81.15,0-113.29-43.17-113.29-103.22s42.2-98.03,110.04-98.03c62,0,99.33,34.41,99.33,89.91v22.72h-108.42ZM716.43,3846.22v12.98h19.48v-12.98c0-6.49-3.57-10.06-9.74-10.06s-9.74,3.57-9.74,10.06Z"/>
    <path d="M844.32,3887.77v-45.44h-11.04v-69.79l114.91-47.07v47.07h23.7v69.79h-23.7v29.54c0,10.06,3.25,15.58,12.98,15.58,4.87,0,10.06-.65,14.93-1.62v79.85c-14.61,3.25-28.89,4.87-47.39,4.87-59.08,0-84.4-31.81-84.4-82.77Z"/>
    <path d="M1125.42,3862.12c20.77,11.69,34.41,26.62,34.41,52.91,0,32.14-24.34,53.88-89.59,53.88-36.68,0-58.1-1.95-82.77-5.84v-75.96c21.1,2.6,35.71,3.57,59.08,3.89v-3.89l-21.75-9.09c-24.02-10.06-38.95-25-38.95-53.23s24.34-53.88,89.59-53.88c28.24,0,48.04.65,76.93,3.89v71.41c-20.77-1.62-32.78-2.27-53.56-2.27v3.25l26.62,14.93Z"/>
    <path d="M39.16,4027.78h-12.98v-24.34h54.37v24.34h-12.98v36.52h-28.4v-36.52Z"/>
    <path d="M111.79,4003.43v23.61h4.06v-23.61h28.4v60.86h-28.4v-21.02h-4.06v21.02h-28.4v-60.86h28.4Z"/>
    <path d="M178.73,4048.96h-2.03v15.34h-28.4v-60.86h38.87c17.93,0,27.51,9.74,27.51,23.86,0,6.33-2.6,12.5-8.03,16.72l9.41,20.29h-31.24l-6.09-15.34ZM176.62,4026.15v6.98h5.52c2.52,0,3.65-1.05,3.65-3.49s-1.14-3.49-3.65-3.49h-5.52Z"/>
    <path d="M246.09,4003.43v60.86h-28.4v-60.86h28.4Z"/>
    <path d="M250.15,4003.43h45.69v23.53h-17.28v4.06h16.07v17.85h-16.07v15.42h-28.4v-60.86Z"/>
    <path d="M310.85,4027.78h-12.98v-24.34h54.37v24.34h-12.98v36.52h-28.4v-36.52Z"/>
    <path d="M383.47,4003.43v60.86h-28.4v-60.86h28.4Z"/>
    <path d="M387.53,4003.43h23.78l12.09,18.34h1.22v-18.34h24.75v60.86h-23.78l-12.09-18.34h-1.22v18.34h-24.75v-60.86Z"/>
    <path d="M453.43,4003.43h48.93v21.91h-20.53v3.65h16.47v8.52h-16.47v3.65h21.5v23.13h-49.9v-60.86Z"/>
    <path d="M545.29,4028.91c8.44,2.68,12.74,8.36,12.74,17.77,0,11.52-8.85,18.26-26.21,18.26-8.93,0-16.96-.65-25.24-2.19v-24.42c6.09,1.05,12.17,1.62,18.42,1.62v-1.22l-5.76-1.95c-8.44-2.84-12.74-8.52-12.74-16.07,0-10.63,7.3-18.1,25.89-18.1,8.03,0,13.88.32,22.4,1.14v22.8c-5.27-.57-10.14-.81-15.58-.81v1.22l6.09,1.95Z"/>
    <path d="M599.98,4028.91c8.44,2.68,12.74,8.36,12.74,17.77,0,11.52-8.85,18.26-26.21,18.26-8.93,0-16.96-.65-25.24-2.19v-24.42c6.09,1.05,12.17,1.62,18.42,1.62v-1.22l-5.76-1.95c-8.44-2.84-12.74-8.52-12.74-16.07,0-10.63,7.3-18.1,25.89-18.1,8.03,0,13.88.32,22.4,1.14v22.8c-5.27-.57-10.14-.81-15.58-.81v1.22l6.09,1.95Z"/>
    <path d="M656.3,4003.43v60.86h-28.4v-60.86h28.4Z"/>
    <path d="M660.36,4003.43h23.78l12.09,18.34h1.22v-18.34h24.75v60.86h-23.78l-12.09-18.34h-1.22v18.34h-24.75v-60.86Z"/>
    <path d="M726.25,4003.43h48.93v21.91h-20.53v3.65h16.47v8.52h-16.47v3.65h21.5v23.13h-49.9v-60.86Z"/>
    <path d="M816.81,4003.43c16.07,0,23.29,5.92,23.29,16.47,0,4.87-1.79,8.68-4.46,11.04,7.3,2.11,11.12,7.87,11.12,16.31,0,10.14-8.36,17.04-23.53,17.04h-43.01v-60.86h36.6ZM808.61,4031.02h1.79c2.35,0,3.65-1.3,3.65-4.06s-1.3-4.06-3.65-4.06h-1.79v8.12ZM808.61,4044.82h3.41c2.52,0,3.9-1.14,3.9-4.06s-1.38-4.06-3.9-4.06h-3.41v8.12Z"/>
    <path d="M879.22,4048.96h-2.03v15.34h-28.4v-60.86h38.87c17.93,0,27.51,9.74,27.51,23.86,0,6.33-2.6,12.5-8.03,16.72l9.41,20.29h-31.24l-6.09-15.34ZM877.11,4026.15v6.98h5.52c2.52,0,3.65-1.05,3.65-3.49s-1.14-3.49-3.65-3.49h-5.52Z"/>
    <path d="M946.57,4003.43v60.86h-28.4v-60.86h28.4Z"/>
    <path d="M960.12,4003.43h41.3l11.2,60.86h-29.13l-1.46-8.28h-12.17l-1.22,8.28h-19.64l11.12-60.86ZM972.29,4039.79h6.98l-2.68-15.26h-2.03l-2.27,15.26Z"/>
    <path d="M1021.96,4027.78h-12.98v-24.34h54.37v24.34h-12.98v36.52h-28.4v-36.52Z"/>
    <path d="M1066.18,4003.43h48.93v21.91h-20.53v3.65h16.47v8.52h-16.47v3.65h21.5v23.13h-49.9v-60.86Z"/>
    <path d="M1158.04,4028.91c8.44,2.68,12.74,8.36,12.74,17.77,0,11.52-8.85,18.26-26.21,18.26-8.93,0-16.96-.65-25.24-2.19v-24.42c6.09,1.05,12.17,1.62,18.42,1.62v-1.22l-5.76-1.95c-8.44-2.84-12.74-8.52-12.74-16.07,0-10.63,7.3-18.1,25.89-18.1,8.03,0,13.88.32,22.4,1.14v22.8c-5.27-.57-10.14-.81-15.58-.81v1.22l6.09,1.95Z"/>
    <path d="M90.93,4096.57c48.04,0,65.73,31.16,65.73,60.86s-17.69,60.86-65.73,60.86H29.42v-121.72h61.51ZM86.23,4172.04h3.25c5.52,0,9.58-2.43,9.58-14.61s-4.06-14.61-9.58-14.61h-3.25v29.21Z"/>
    <path d="M161.53,4096.57h97.86v43.82h-41.06v7.3h32.95v17.04h-32.95v7.3h43.01v46.25h-99.81v-121.72Z"/>
    <path d="M348.66,4148.83c-5.52-.65-7.47-.81-12.17-.81-7.3,0-10.22,3.89-10.22,9.41s2.92,9.25,10.22,9.25c4.71,0,6.65-.16,12.17-.81v51.61c-7.63,1.3-14.12,1.62-22.23,1.62-38.3,0-60.21-27.43-60.21-61.67s21.91-61.67,60.21-61.67c8.44,0,13.15.49,22.23,1.62v51.45Z"/>
    <path d="M417.64,4187.62h-4.06v30.67h-56.8v-121.72h77.74c35.87,0,55.02,19.48,55.02,47.71,0,12.66-5.19,24.99-16.07,33.43l18.83,40.57h-62.48l-12.17-30.67ZM413.42,4142.02v13.96h11.04c5.03,0,7.3-2.11,7.3-6.98s-2.27-6.98-7.3-6.98h-11.04Z"/>
    <path d="M541.47,4096.57l8.93,25.64h2.43l7.95-25.64h36.19l-30.84,85.85v35.87h-56.8v-49.66l-30.02-72.06h62.16Z"/>
    <path d="M655.41,4199.47v18.83h-56.8v-121.72h63.78c42.2,0,61.83,21.1,61.83,52.75s-24.02,50.15-58.75,50.15h-10.06ZM655.41,4141.2v23.37h2.43c5.19,0,8.93-2.43,8.93-11.69s-3.73-11.68-8.93-11.68h-2.43Z"/>
    <path d="M751,4145.26h-25.97v-48.69h108.74v48.69h-25.97v73.03h-56.8v-73.03Z"/>
    <path d="M896.26,4096.57v121.72h-56.8v-121.72h56.8Z"/>
    <path d="M902.75,4157.6c0-33.11,20.94-62,66.7-62s66.7,28.89,66.7,62c0,34.73-20.94,62.48-66.7,62.48s-66.7-27.75-66.7-62.48ZM979.35,4157.6c0-7.3-3.25-11.69-9.9-11.69s-9.9,4.38-9.9,11.69c0,7.95,3.25,11.36,9.9,11.36s9.9-3.41,9.9-11.36Z"/>
    <path d="M1042.65,4096.57h47.55l24.18,36.68h2.43v-36.68h49.5v121.72h-47.55l-24.18-36.68h-2.43v36.68h-49.5v-121.72Z"/>
    <path d="M147.09,4451.64v37.65H33.48v-243.45h127.57c84.4,0,123.67,42.2,123.67,105.5s-48.04,100.3-117.51,100.3h-20.12ZM147.09,4335.11v46.74h4.87c10.39,0,17.85-4.87,17.85-23.37s-7.47-23.37-17.85-23.37h-4.87Z"/>
    <path d="M408.06,4245.84v243.45h-113.61v-243.45h113.61Z"/>
    <path d="M537.9,4451.64v37.65h-113.61v-243.45h127.57c84.4,0,123.67,42.2,123.67,105.5s-48.04,100.3-117.51,100.3h-20.12ZM537.9,4335.11v46.74h4.87c10.39,0,17.85-4.87,17.85-23.37s-7.47-23.37-17.85-23.37h-4.87Z"/>
    <path d="M685.27,4245.84h195.73v87.64h-82.12v14.61h65.89v34.08h-65.89v14.61h86.02v92.51h-199.63v-243.45Z"/>
    <path d="M1022.85,4427.94h-8.11v61.35h-113.61v-243.45h155.48c71.74,0,110.04,38.95,110.04,95.43,0,25.32-10.39,49.99-32.14,66.87l37.65,81.15h-124.97l-24.35-61.35ZM1014.41,4336.73v27.92h22.07c10.06,0,14.61-4.22,14.61-13.96s-4.54-13.96-14.61-13.96h-22.07Z"/>
    <path d="M58.15,4525.43c24.02,0,32.86,15.58,32.86,30.43s-8.85,30.43-32.86,30.43h-30.75v-60.86h30.75ZM55.79,4563.17h1.62c2.76,0,4.79-1.22,4.79-7.3s-2.03-7.3-4.79-7.3h-1.62v14.61Z"/>
    <path d="M117.87,4564.95c.32,2.35,1.79,3.17,5.19,3.17,5.84,0,11.36-.41,19.8-.97v18.42c-8.6,1.22-14.04,1.54-21.91,1.54-20.29,0-28.32-10.79-28.32-25.8s10.55-24.51,27.51-24.51c15.5,0,24.83,8.6,24.83,22.48v5.68h-27.1ZM117.79,4556.03v3.25h4.87v-3.25c0-1.62-.89-2.52-2.43-2.52s-2.43.89-2.43,2.52Z"/>
    <path d="M169.08,4537.61l2.6,7.55c3.25-5.03,8.6-8.36,15.34-8.36,10.71,0,19.72,9.09,19.72,25.4s-9.01,24.91-19.72,24.91c-5.19,0-9.58-1.7-12.82-4.71v22.96h-25.97v-67.76h20.85ZM174.19,4557.65v9.25h2.03c2.68,0,4.14-1.14,4.14-4.63s-1.46-4.62-4.14-4.62h-2.03Z"/>
    <path d="M209.98,4537.61h18.5l3.65,7.95c3.49-5.6,8.93-8.76,13.71-8.76v19.64c-3.08,0-6.57.24-9.9.73v29.13h-25.97v-48.69Z"/>
    <path d="M272.3,4564.95c.32,2.35,1.79,3.17,5.19,3.17,5.84,0,11.36-.41,19.8-.97v18.42c-8.6,1.22-14.04,1.54-21.91,1.54-20.29,0-28.32-10.79-28.32-25.8s10.55-24.51,27.51-24.51c15.5,0,24.83,8.6,24.83,22.48v5.68h-27.1ZM272.22,4556.03v3.25h4.87v-3.25c0-1.62-.89-2.52-2.43-2.52s-2.43.89-2.43,2.52Z"/>
    <path d="M338.03,4558.3c-1.3-.16-2.35-.24-3.65-.24-3,0-4.54,1.06-4.54,3.81s1.54,3.81,4.54,3.81c1.38,0,2.27-.08,3.65-.24v20.61c-3.33.41-6.09.65-9.25.65-18.34,0-26.94-10.79-26.94-24.75s8.6-24.75,26.94-24.75c3.49,0,5.92.24,9.25.73v20.37Z"/>
    <path d="M341.2,4524.62c0-5.44,4.46-9.74,13.88-9.74s13.88,4.3,13.88,9.74-4.3,9.82-13.88,9.82-13.88-4.14-13.88-9.82ZM342.09,4537.61h25.97v48.69h-25.97v-48.69Z"/>
    <path d="M429.32,4586.29h-22.56l-1.62-5.36c-3.16,3.89-8.11,6.17-14.61,6.17-11.12,0-19.23-7.95-19.23-25.32,0-15.26,8.11-24.99,19.23-24.99,6.82,0,11.69,2.84,14.77,7.14l1.46-6.33h22.56v48.69ZM403.36,4566.49v-9.25h-1.54c-2.68,0-4.14,1.14-4.14,4.63s1.46,4.62,4.14,4.62h1.54Z"/>
    <path d="M434.92,4566.41v-11.36h-2.76v-17.45l28.73-11.77v11.77h5.92v17.45h-5.92v7.38c0,2.52.81,3.9,3.25,3.9,1.22,0,2.52-.16,3.73-.41v19.96c-3.65.81-7.22,1.22-11.85,1.22-14.77,0-21.1-7.95-21.1-20.69Z"/>
    <path d="M494.73,4564.95c.32,2.35,1.79,3.17,5.19,3.17,5.84,0,11.36-.41,19.8-.97v18.42c-8.6,1.22-14.04,1.54-21.91,1.54-20.29,0-28.32-10.79-28.32-25.8s10.55-24.51,27.51-24.51c15.5,0,24.83,8.6,24.83,22.48v5.68h-27.1ZM494.65,4556.03v3.25h4.87v-3.25c0-1.62-.89-2.52-2.43-2.52s-2.43.89-2.43,2.52Z"/>
    <path d="M559.16,4560c5.19,2.92,8.6,6.65,8.6,13.23,0,8.03-6.09,13.47-22.4,13.47-9.17,0-14.53-.49-20.69-1.46v-18.99c5.27.65,8.93.89,14.77.97v-.97l-5.44-2.27c-6-2.52-9.74-6.25-9.74-13.31s6.09-13.47,22.4-13.47c7.06,0,12.01.16,19.23.97v17.85c-5.19-.41-8.2-.57-13.39-.57v.81l6.65,3.73Z"/>
    <path d="M621.65,4550.91c8.44,2.68,12.74,8.36,12.74,17.77,0,11.52-8.85,18.26-26.21,18.26-8.93,0-16.96-.65-25.24-2.19v-24.42c6.09,1.05,12.17,1.62,18.42,1.62v-1.22l-5.76-1.95c-8.44-2.84-12.74-8.52-12.74-16.07,0-10.63,7.3-18.1,25.89-18.1,8.03,0,13.88.32,22.4,1.14v22.8c-5.27-.57-10.14-.81-15.58-.81v1.22l6.09,1.95Z"/>
    <path d="M638.45,4584.43c5.92,2.19,12.09,3.49,18.42,3.49,7.3,0,10.39-2.03,10.39-6.09v-1.79c-2.92,3.16-7.3,4.87-12.42,4.87-9.49,0-17.61-5.19-17.61-18.18v-29.13h25.97v26.78c0,3.08,1.46,4.38,4.06,4.38v-31.16h25.97v36.27c0,21.5-10.06,33.11-34.73,33.11-6.09,0-13.88-1.05-20.04-2.68v-19.88Z"/>
    <path d="M697.28,4537.61h20.94l2.27,6.65c3.08-4.79,8.44-7.46,15.26-7.46,10.95,0,17.53,7.71,17.53,18.5v31h-25.97v-27.59c0-2.52-.97-3.41-3.16-3.41h-.89v31h-25.97v-48.69Z"/>
    <path d="M792.71,4558.3c-1.3-.16-2.35-.24-3.65-.24-3,0-4.54,1.06-4.54,3.81s1.54,3.81,4.54,3.81c1.38,0,2.27-.08,3.65-.24v20.61c-3.33.41-6.09.65-9.25.65-18.34,0-26.94-10.79-26.94-24.75s8.6-24.75,26.94-24.75c3.49,0,5.92.24,9.25.73v20.37Z"/>
    <path d="M796.77,4524.22h25.97v19.15c2.76-4.46,7.47-6.57,13.79-6.57,10.31,0,16.23,6.9,16.23,18.5v31h-25.97v-27.59c0-2.52-.97-3.41-3.16-3.41h-.89v31h-25.97v-62.08Z"/>
    <path d="M856.82,4537.61h18.5l3.65,7.95c3.49-5.6,8.93-8.76,13.71-8.76v19.64c-3.08,0-6.57.24-9.9.73v29.13h-25.97v-48.69Z"/>
    <path d="M893.9,4561.87c0-14.44,9.58-25.48,27.91-25.48s27.91,11.04,27.91,25.48-9.58,25.64-27.91,25.64-27.91-11.36-27.91-25.64ZM925.39,4561.87c0-3.33-1.22-4.79-3.57-4.79s-3.57,1.46-3.57,4.79,1.22,4.54,3.57,4.54,3.57-1.22,3.57-4.54Z"/>
    <path d="M952.98,4537.61h20.94l2.27,6.65c3.08-4.79,8.44-7.46,15.26-7.46,10.95,0,17.53,7.71,17.53,18.5v31h-25.97v-27.59c0-2.52-.97-3.41-3.16-3.41h-.89v31h-25.97v-48.69Z"/>
    <path d="M1012.22,4561.87c0-14.44,9.58-25.48,27.91-25.48s27.91,11.04,27.91,25.48-9.58,25.64-27.91,25.64-27.91-11.36-27.91-25.64ZM1043.7,4561.87c0-3.33-1.22-4.79-3.57-4.79s-3.57,1.46-3.57,4.79,1.22,4.54,3.57,4.54,3.57-1.22,3.57-4.54Z"/>
    <path d="M1127.28,4586.29h-20.94l-2.11-6.49c-2.92,4.71-7.95,7.3-14.61,7.3-12.33,0-18.34-7.63-18.34-20.85v-28.64h25.97v27.51c0,2.03.57,2.76,2.52,2.76h1.54v-30.27h25.97v48.69Z"/>
    <path d="M1165.42,4560c5.19,2.92,8.6,6.65,8.6,13.23,0,8.03-6.09,13.47-22.4,13.47-9.17,0-14.53-.49-20.69-1.46v-18.99c5.27.65,8.93.89,14.77.97v-.97l-5.44-2.27c-6-2.52-9.74-6.25-9.74-13.31s6.09-13.47,22.4-13.47c7.06,0,12.01.16,19.23.97v17.85c-5.19-.41-8.2-.57-13.39-.57v.81l6.65,3.73Z"/>
    <path d="M106.84,4669.53c16.88,5.36,25.48,16.72,25.48,35.54,0,23.05-17.69,36.52-52.42,36.52-17.85,0-33.92-1.3-50.47-4.38v-48.85c12.17,2.11,24.34,3.25,36.84,3.25v-2.43l-11.52-3.9c-16.88-5.68-25.48-17.04-25.48-32.13,0-21.26,14.61-36.19,51.77-36.19,16.07,0,27.75.65,44.79,2.27v45.6c-10.55-1.14-20.29-1.62-31.16-1.62v2.43l12.17,3.89Z"/>
    <path d="M135.57,4691.44c0-28.89,19.15-50.96,55.83-50.96s55.83,22.07,55.83,50.96-19.15,51.28-55.83,51.28-55.83-22.72-55.83-51.28ZM198.54,4691.44c0-6.65-2.43-9.58-7.14-9.58s-7.14,2.92-7.14,9.58,2.43,9.09,7.14,9.09,7.14-2.43,7.14-9.09Z"/>
    <path d="M365.7,4740.29h-41.87l-4.22-12.98c-5.84,9.41-15.9,14.61-29.21,14.61-24.67,0-36.68-15.26-36.68-41.71v-57.29h51.93v55.02c0,4.06,1.14,5.52,5.03,5.52h3.08v-60.53h51.93v97.38Z"/>
    <path d="M441.98,4687.71c10.39,5.84,17.2,13.31,17.2,26.45,0,16.07-12.17,26.94-44.79,26.94-18.34,0-29.05-.97-41.38-2.92v-37.98c10.55,1.3,17.85,1.79,29.54,1.95v-1.95l-10.87-4.54c-12.01-5.03-19.48-12.5-19.48-26.62s12.17-26.94,44.79-26.94c14.12,0,24.02.32,38.46,1.95v35.7c-10.39-.81-16.39-1.14-26.78-1.14v1.62l13.31,7.46Z"/>
    <path d="M578.47,4740.29h-45.12l-3.25-10.71c-6.33,7.79-16.23,12.33-29.21,12.33-22.23,0-38.46-15.9-38.46-50.64,0-30.51,16.23-49.99,38.46-49.99,13.63,0,23.37,5.68,29.54,14.28l2.92-12.66h45.12v97.38ZM526.54,4700.69v-18.5h-3.08c-5.36,0-8.28,2.27-8.28,9.25s2.92,9.25,8.28,9.25h3.08Z"/>
    <path d="M628.3,4642.92l5.19,15.09c6.49-10.06,17.2-16.72,30.67-16.72,21.42,0,39.44,18.18,39.44,50.8s-18.01,49.82-39.44,49.82c-10.39,0-19.15-3.41-25.64-9.41v45.93h-51.93v-135.51h41.71ZM638.53,4683v18.5h4.06c5.36,0,8.28-2.27,8.28-9.25s-2.92-9.25-8.28-9.25h-4.06Z"/>
    <path d="M710.1,4616.14h51.93v38.3c5.52-8.93,14.93-13.15,27.59-13.15,20.61,0,32.46,13.79,32.46,37v62h-51.93v-55.18c0-5.03-1.95-6.82-6.33-6.82h-1.79v62h-51.93v-124.15Z"/>
    <path d="M828.58,4691.44c0-28.89,19.15-50.96,55.83-50.96s55.83,22.07,55.83,50.96-19.15,51.28-55.83,51.28-55.83-22.72-55.83-51.28ZM891.55,4691.44c0-6.65-2.43-9.58-7.14-9.58s-7.14,2.92-7.14,9.58,2.43,9.09,7.14,9.09,7.14-2.43,7.14-9.09Z"/>
    <path d="M946.73,4642.92h41.87l4.54,13.31c6.17-9.58,16.88-14.93,30.51-14.93,21.91,0,35.06,15.42,35.06,37v62h-51.93v-55.18c0-5.03-1.95-6.82-6.33-6.82h-1.79v62h-51.93v-97.38Z"/>
    <path d="M1115.68,4697.61c.65,4.71,3.57,6.33,10.39,6.33,11.69,0,22.72-.81,39.6-1.95v36.84c-17.2,2.43-28.08,3.08-43.82,3.08-40.57,0-56.64-21.58-56.64-51.61s21.1-49.01,55.02-49.01c31,0,49.66,17.2,49.66,44.96v11.36h-54.21ZM1115.52,4679.76v6.49h9.74v-6.49c0-3.25-1.79-5.03-4.87-5.03s-4.87,1.79-4.87,5.03Z"/>
    <path d="M147.09,4767.84v94.46h16.23v-94.46h113.61v243.45h-113.61v-84.07h-16.23v84.07H33.48v-243.45h113.61Z"/>
    <path d="M518.75,5011.29h-90.24l-6.49-21.42c-12.66,15.58-32.46,24.67-58.43,24.67-44.47,0-76.93-31.81-76.93-101.28,0-61.02,32.46-99.98,76.93-99.98,27.27,0,46.74,11.36,59.08,28.56l5.84-25.32h90.24v194.76ZM414.88,4932.09v-37h-6.17c-10.71,0-16.55,4.54-16.55,18.5s5.84,18.5,16.55,18.5h6.17Z"/>
    <path d="M534.98,4816.53h74.01l14.61,31.81c13.96-22.4,35.71-35.06,54.86-35.06v78.55c-12.33,0-26.29.97-39.6,2.92v116.53h-103.87v-194.76Z"/>
    <path d="M832.31,5011.29l-11.04-26.62c-12.33,19.15-32.78,29.86-59.08,29.86-42.85,0-78.88-35.71-78.88-104.52,0-60.38,36.03-96.73,78.88-96.73,21.75,0,38.95,6.82,51.29,18.83v-69.14h103.87v248.32h-85.05ZM813.49,4928.84v-37h-8.12c-10.71,0-16.55,4.54-16.55,18.5s5.84,18.5,16.55,18.5h8.12Z"/>
    <path d="M938.45,5003.83c23.7,8.76,48.37,13.96,73.68,13.96,29.21,0,41.55-8.12,41.55-24.34v-7.14c-11.69,12.66-29.21,19.48-49.66,19.48-37.98,0-70.44-20.77-70.44-72.71v-116.53h103.87v107.12c0,12.33,5.84,17.53,16.23,17.53v-124.65h103.87v145.1c0,86.02-40.25,132.44-138.93,132.44-24.34,0-55.51-4.22-80.18-10.71v-79.53Z"/>
  </g>
  <g>
    <path class="cls-1" d="M-11.07,2789.64l8.48,34.54H-.23l8.48-34.54h48.04l8.48,34.54h2.35l8.48-34.54h35.64l-28.1,117.75H26.93l-8.48-34.54h-2.35l-8.48,34.54h-48.2l-28.1-117.75H-11.07Z"/>
    <path class="cls-1" d="M114.22,2788.07c0-10.52,8.64-18.84,26.85-18.84s26.85,8.32,26.85,18.84-8.32,19-26.85,19-26.85-8.01-26.85-19ZM115.94,2813.19h50.24v94.2h-50.24v-94.2Z"/>
    <path class="cls-1" d="M175.45,2868.93v-21.98h-5.34v-33.75l55.58-22.76v22.76h11.46v33.75h-11.46v14.29c0,4.87,1.57,7.54,6.28,7.54,2.35,0,4.87-.31,7.22-.79v38.62c-7.06,1.57-13.97,2.36-22.92,2.36-28.57,0-40.82-15.39-40.82-40.04Z"/>
    <path class="cls-1" d="M245.47,2787.29h50.24v37.05c5.34-8.63,14.44-12.72,26.69-12.72,19.94,0,31.4,13.34,31.4,35.8v59.97h-50.24v-53.38c0-4.87-1.88-6.59-6.12-6.59h-1.73v59.97h-50.24v-120.1Z"/>
    <path class="cls-1" d="M384.72,2787.29h50.24v120.1h-50.24v-120.1Z"/>
    <path class="cls-1" d="M441.24,2860.14c0-27.95,18.53-49.3,54.01-49.3s54.01,21.35,54.01,49.3-18.53,49.61-54.01,49.61-54.01-21.98-54.01-49.61ZM502.16,2860.14c0-6.44-2.35-9.26-6.91-9.26s-6.91,2.83-6.91,9.26,2.35,8.79,6.91,8.79,6.91-2.35,6.91-8.79Z"/>
    <path class="cls-1" d="M597.46,2813.19l8.32,29.83h2.35l8.32-29.83h40.19l8.32,29.83h2.35l8.32-29.83h34.07l-21.67,94.2h-52.28l-8.32-29.83h-2.35l-8.32,29.83h-48.2l-21.67-94.2h50.55Z"/>
    <path class="cls-1" d="M754.61,2866.1c.63,4.55,3.45,6.12,10.05,6.12,11.3,0,21.98-.78,38.31-1.88v35.64c-16.64,2.36-27.16,2.98-42.39,2.98-39.25,0-54.79-20.88-54.79-49.93s20.41-47.41,53.22-47.41c29.99,0,48.04,16.64,48.04,43.49v10.99h-52.44ZM754.46,2848.83v6.28h9.42v-6.28c0-3.14-1.73-4.87-4.71-4.87s-4.71,1.73-4.71,4.87Z"/>
    <path class="cls-1" d="M813.33,2813.19h35.8l7.06,15.39c6.75-10.83,17.27-16.96,26.53-16.96v37.99c-5.97,0-12.72.47-19.15,1.41v56.36h-50.24v-94.2Z"/>
    <path class="cls-1" d="M955.1,2853.23c-2.51-.31-4.55-.47-7.06-.47-5.81,0-8.79,2.04-8.79,7.38s2.98,7.38,8.79,7.38c2.67,0,4.4-.16,7.06-.47v39.88c-6.44.79-11.77,1.26-17.9,1.26-35.48,0-52.12-20.88-52.12-47.88s16.64-47.88,52.12-47.88c6.75,0,11.46.47,17.9,1.41v39.41Z"/>
    <path class="cls-1" d="M1073.63,2907.39h-43.65l-3.14-10.36c-6.12,7.54-15.7,11.93-28.26,11.93-21.51,0-37.21-15.39-37.21-48.98,0-29.52,15.7-48.36,37.21-48.36,13.19,0,22.61,5.5,28.57,13.82l2.83-12.25h43.65v94.2ZM1023.39,2869.08v-17.9h-2.98c-5.18,0-8.01,2.2-8.01,8.95s2.83,8.95,8.01,8.95h2.98Z"/>
    <path class="cls-1" d="M1147.42,2856.53c10.05,5.65,16.64,12.87,16.64,25.59,0,15.54-11.77,26.06-43.33,26.06-17.74,0-28.1-.94-40.03-2.83v-36.74c10.2,1.26,17.27,1.73,28.57,1.88v-1.88l-10.52-4.4c-11.62-4.87-18.84-12.09-18.84-25.75s11.77-26.06,43.33-26.06c13.66,0,23.24.31,37.21,1.88v34.54c-10.05-.78-15.86-1.1-25.9-1.1v1.57l12.87,7.22Z"/>
    <path class="cls-1" d="M1216.03,2866.1c.63,4.55,3.45,6.12,10.05,6.12,11.3,0,21.98-.78,38.31-1.88v35.64c-16.64,2.36-27.16,2.98-42.39,2.98-39.25,0-54.79-20.88-54.79-49.93s20.41-47.41,53.22-47.41c29.99,0,48.04,16.64,48.04,43.49v10.99h-52.44ZM1215.87,2848.83v6.28h9.42v-6.28c0-3.14-1.73-4.87-4.71-4.87s-4.71,1.73-4.71,4.87Z"/>
  </g>
  <g>
    <path d="M138.28,16.34l18.69,76.16h5.19l18.69-76.16h105.93l18.69,76.16h5.19l18.69-76.16h78.58l-61.97,259.64h-123.94l-18.69-76.16h-5.19l-18.69,76.16h-106.28L11.22,16.34h127.05Z"/>
    <path d="M536.05,16.34v100.74h17.31V16.34h121.17v259.64h-121.17v-89.66h-17.31v89.66h-121.17V16.34h121.17Z"/>
    <path d="M691.84,16.34h208.75v93.47h-87.59v15.58h70.28v36.35h-70.28v15.58h91.74v98.66h-212.91V16.34Z"/>
    <path d="M922.05,16.34h101.43l51.58,78.24h5.19V16.34h105.59v259.64h-101.43l-51.58-78.24h-5.19v78.24h-105.59V16.34Z"/>
  </g>
  <g>
    <path d="M33.31,527.41H-18.27v-96.71h215.98v96.71h-51.58v145.06H33.31v-145.06Z"/>
    <path d="M202.55,551.91c0-65.76,41.58-123.14,132.49-123.14s132.49,57.38,132.49,123.14c0,68.98-41.58,124.11-132.49,124.11s-132.49-55.12-132.49-124.11ZM354.7,551.91c0-14.51-6.45-23.21-19.66-23.21s-19.66,8.7-19.66,23.21c0,15.8,6.45,22.56,19.66,22.56s19.66-6.77,19.66-22.56Z"/>
    <path d="M594.85,430.7v131.2c0,9.35,2.9,13.54,9.67,13.54s9.67-4.19,9.67-13.54v-131.2h87.04v133.78c0,66.73-39.65,111.21-110.57,111.21s-110.25-44.49-110.25-111.21v-133.78h114.44Z"/>
    <path d="M852.09,429.09c33.2,0,58.99,1.93,85.1,4.84v97.03c-30.62-.64-51.25-1.61-74.79-1.61-32.24,0-37.07,8.38-37.07,22.57s6.77,20.95,18.05,20.95c2.26,0,4.51,0,6.45-.32v-27.4h109.6v118.63c-36.43,9.99-64.47,12.25-102.51,12.25-103.48,0-146.03-61.57-146.03-124.43s38.04-122.5,141.19-122.5Z"/>
    <path d="M1086.76,430.7v93.81h16.12v-93.81h112.82v241.77h-112.82v-83.49h-16.12v83.49h-112.82v-241.77h112.82Z"/>
  </g>
  <g>
    <path class="cls-1" d="M99.78,2338.74c72.07,0,104.47,26.57,104.47,73.89,0,21.84-8.01,38.95-20.02,49.5,32.76,9.46,49.87,35.31,49.87,73.16,0,45.5-37.49,76.44-105.56,76.44H-64.38v-273H99.78ZM63.02,2462.5h8.01c10.56,0,16.38-5.82,16.38-18.2s-5.82-18.2-16.38-18.2h-8.01v36.4ZM63.02,2524.38h15.29c11.28,0,17.47-5.1,17.47-18.2s-6.19-18.2-17.47-18.2h-15.29v36.4Z"/>
    <path class="cls-1" d="M368.78,2338.74v148.15c0,10.56,3.28,15.29,10.92,15.29s10.92-4.73,10.92-15.29v-148.15h98.28v151.06c0,75.35-44.77,125.58-124.85,125.58s-124.49-50.23-124.49-125.58v-151.06h129.22Z"/>
    <path class="cls-1" d="M673.45,2453.04c37.86,12.01,57.15,37.49,57.15,79.72,0,51.69-39.68,81.9-117.57,81.9-40.04,0-76.08-2.91-113.2-9.83v-109.56c27.3,4.73,54.6,7.28,82.63,7.28v-5.46l-25.84-8.74c-37.86-12.74-57.15-38.22-57.15-72.07,0-47.68,32.76-81.17,116.12-81.17,36.04,0,62.24,1.46,100.46,5.1v102.28c-23.66-2.55-45.5-3.64-69.89-3.64v5.46l27.3,8.74Z"/>
    <path class="cls-1" d="M787.01,2447.94h-58.24v-109.2h243.88v109.2h-58.24v163.8h-127.4v-163.8Z"/>
    <path class="cls-1" d="M978.11,2475.6c0-74.25,46.96-139.05,149.6-139.05s149.6,64.79,149.6,139.05c0,77.9-46.96,140.14-149.6,140.14s-149.6-62.24-149.6-140.14ZM1149.92,2475.6c0-16.38-7.28-26.21-22.2-26.21s-22.2,9.83-22.2,26.21c0,17.84,7.28,25.48,22.2,25.48s22.2-7.64,22.2-25.48Z"/>
  </g>
  <g>
    <path class="cls-1" d="M-39.2,2141.43c0-92.97,58.79-174.09,187.31-174.09s187.31,81.12,187.31,174.09c0,97.53-58.79,175.46-187.31,175.46s-187.31-77.93-187.31-175.46ZM175.91,2141.43c0-20.51-9.11-32.81-27.8-32.81s-27.8,12.3-27.8,32.81c0,22.33,9.11,31.9,27.8,31.9s27.8-9.57,27.8-31.9Z"/>
    <path class="cls-1" d="M350.45,1970.08h133.53l67.9,103h6.84v-103h139v341.8h-133.53l-67.9-103h-6.84v103h-139v-341.8Z"/>
    <path class="cls-1" d="M722.79,1970.08h159.51v205.08h73.83v136.72h-233.34v-341.8Z"/>
    <path class="cls-1" d="M1076.89,1970.08l25.06,72.01h6.84l22.33-72.01h101.63l-86.59,241.08v100.72h-159.51v-139.46l-84.31-202.35h174.55Z"/>
  </g>
</svg>