<?xml version="1.0" encoding="UTF-8"?>
<svg id="Layer_1" data-name="Layer 1" xmlns="http://www.w3.org/2000/svg" viewBox="0 0 360 100">
  <path d="M109.3,25.96c11.88,0,17.22,4.38,17.22,12.18,0,3.6-1.32,6.42-3.3,8.16,5.4,1.56,8.22,5.82,8.22,12.06,0,7.5-6.18,12.6-17.4,12.6h-31.8V25.96h27.06ZM103.24,46.36h1.32c1.74,0,2.7-.96,2.7-3s-.96-3-2.7-3h-1.32v6ZM103.24,56.56h2.52c1.86,0,2.88-.84,2.88-3s-1.02-3-2.88-3h-2.52v6Z"/>
  <path d="M174.52,70.96h-15.48l-1.56-4.8c-2.16,3.48-5.88,5.4-10.8,5.4-9.12,0-13.56-5.64-13.56-15.42v-21.18h19.2v20.34c0,1.5.42,2.04,1.86,2.04h1.14v-22.38h19.2v36Z"/>
  <path d="M202.66,51.52c3.84,2.16,6.36,4.92,6.36,9.78,0,5.94-4.5,9.96-16.56,9.96-6.78,0-10.74-.36-15.3-1.08v-14.04c3.9.48,6.6.66,10.92.72v-.72l-4.02-1.68c-4.44-1.86-7.2-4.62-7.2-9.84s4.5-9.96,16.56-9.96c5.22,0,8.88.12,14.22.72v13.2c-3.84-.3-6.06-.42-9.9-.42v.6l4.92,2.76Z"/>
  <path d="M212.26,56.26v-8.4h-2.04v-12.9l21.24-8.7v8.7h4.38v12.9h-4.38v5.46c0,1.86.6,2.88,2.4,2.88.9,0,1.86-.12,2.76-.3v14.76c-2.7.6-5.34.9-8.76.9-10.92,0-15.6-5.88-15.6-15.3Z"/>
  <path d="M238.36,52.9c0-10.68,7.08-18.84,20.64-18.84s20.64,8.16,20.64,18.84-7.08,18.96-20.64,18.96-20.64-8.4-20.64-18.96ZM261.64,52.9c0-2.46-.9-3.54-2.64-3.54s-2.64,1.08-2.64,3.54.9,3.36,2.64,3.36,2.64-.9,2.64-3.36Z"/>
</svg>