<?xml version="1.0" encoding="UTF-8"?>
<svg id="Layer_1" data-name="Layer 1" xmlns="http://www.w3.org/2000/svg" viewBox="0 0 360 100">
  <defs>
    <style>
      .cls-1 {
        fill: #fff;
      }

      .cls-2 {
        fill: #ff002a;
      }
    </style>
  </defs>
  <rect class="cls-2" width="360" height="100"/>
  <g>
    <path class="cls-1" d="M268.67,38.54l-2.46,5.16c-3.72-1.74-6.06-2.34-9.96-2.34-3,0-6.9,1.74-7.44,5.22,14.28.06,20.88,4.56,20.88,11.7,0,5.16-3.42,10.02-9.72,10.02-4.92,0-8.4-2.22-11.22-5.88-.18,3.3-1.26,5.46-3.84,5.46-2.22,0-3.42-.48-6.96-3l1.74-5.04c2.16,1.98,3.36,2.28,4.44,2.28,1.32,0,1.74-.9,1.74-2.28v-13.44c0-7.02,4.38-10.2,12.18-10.2,3.6,0,6.6.72,10.62,2.34ZM266.57,59.3c0-5.04-6.18-6.84-17.82-7.62v3.6c4.62,6.12,8.46,7.74,13.74,7.74,2.58,0,4.08-1.86,4.08-3.72Z"/>
    <path class="cls-1" d="M236.81,61.64l-1.98,5.76h-14.52l1.92-5.76h4.8v-14.04c-2.52-4.74-5.04-6.24-10.32-6.24l1.68-5.34c4.02,0,7.32,1.62,9.42,4.56h.06l1.08-3.18h7.86l-1.98,5.76h-4.08v18.48h6.06Z"/>
    <path class="cls-1" d="M215.75,37.4l-1.98,5.76h-4.68v14.64c0,6.6-2.46,10.38-8.58,10.38-3.24,0-6.18-1.62-8.58-4.38l3-5.16c2.82,2.76,4.92,4.14,7.32,4.14,1.8,0,3.12-1.2,3.12-3.66v-16.02h-9.36l12.42-15.12h.66v9.42h6.66Z"/>
    <path class="cls-1" d="M189.96,61.64l-1.98,5.76h-12.72l1.92-5.76h3v-16.44c-1.98-2.28-4.74-3.6-7.8-3.6-5.7,0-8.64,2.04-8.64,7.5v12.54h4.14l-1.98,5.76h-11.46l1.92-5.76h3.72v-13.14c0-6.9,4.26-12.3,13.68-12.3,3.18,0,6.18,1.14,8.94,3.78l.84-2.58h7.74l-1.98,5.76h-5.4v18.48h6.06Z"/>
    <path class="cls-1" d="M137.46,68.72c-7.38,0-14.16-5.94-14.16-14.58,0-10.14,7.68-18.42,18.3-18.42,9.06,0,14.34,6.36,14.34,14.52,0,9.42-7.2,18.48-18.48,18.48ZM151.13,53.42c0-7.08-4.14-12.84-12.42-12.84-6.36,0-10.62,3.72-10.62,10.2,0,8.88,5.46,13.14,12.9,13.14,6.06,0,10.14-3.84,10.14-10.5Z"/>
    <path class="cls-1" d="M91.02,28.16c3.6-1.02,5.88-1.2,9.06-1.2,12.06,0,20.34,7.02,20.34,19.08,0,15-10.38,22.14-21.12,22.32-6.66.06-11.22-2.4-16.02-6.48l3-6.42c4.08,5.28,9.18,8.16,15.66,8.16,7.68,0,14.34-6.96,14.34-14.34,0-10.02-8.1-16.02-17.46-16.02-3.24,0-5.76.18-9.96,1.8l2.16-6.9Z"/>
  </g>
</svg>