<?xml version="1.0" encoding="UTF-8"?>
<svg id="Layer_1" data-name="Layer 1" xmlns="http://www.w3.org/2000/svg" viewBox="0 0 360 100">
  <defs>
    <style>
      .cls-1 {
        fill: #fff;
      }

      .cls-2 {
        fill: #ff002a;
      }
    </style>
  </defs>
  <rect class="cls-2" width="360" height="100"/>
  <g>
    <path class="cls-1" d="M78.36,62.8v-24.88c0-12.96,5.04-19.52,18.4-19.52,4.56,0,8,.56,11.2,1.44v9.76h-17.6v34.4h9.2v-17.84h-5.6v-5.6h17.6v33.84h-12v-6.4h-1.04c-1.68,4.56-4.72,7.2-9.84,7.2-6.24,0-10.32-3.6-10.32-12.4Z"/>
    <path class="cls-1" d="M115.72,19.2h9.6l11.76,29.2h2v-29.2h12v55.2h-9.6l-11.76-28.64h-2v28.64h-12V19.2Z"/>
    <path class="cls-1" d="M164.12,19.2h16.32l10.96,55.2h-13.68l-2.16-11.84h-8.88v11.84h-12.24l9.68-55.2ZM166.68,56.96h7.84l-4.48-24.24h-3.36v24.24Z"/>
    <path class="cls-1" d="M194.76,19.2h13.04c14.56,0,19.76,7.2,19.76,18.24,0,5.6-2.48,10.08-7.76,12.88l10,24.08h-14.24l-6.32-19.68h-2.48v19.68h-12V19.2ZM206.76,29.6v19.92h9.04v-19.92h-9.04Z"/>
    <path class="cls-1" d="M232.04,19.2h12v44.8h9.76v10.4h-21.76V19.2Z"/>
    <path class="cls-1" d="M259,58.4l-10.56-39.2h13.36l6.56,27.04h1.92v-27.04h10.56l-9.84,37.2v18h-12v-16Z"/>
  </g>
</svg>