<?xml version="1.0" encoding="UTF-8"?>
<svg id="Layer_1" data-name="Layer 1" xmlns="http://www.w3.org/2000/svg" viewBox="0 0 360 100">
  <defs>
    <style>
      .cls-1 {
        fill: #fff;
      }

      .cls-2 {
        fill: #ff002a;
      }
    </style>
  </defs>
  <rect class="cls-2" width="360" height="100"/>
  <g>
    <path class="cls-1" d="M90.94,63.25v-21.77c0-11.34,4.41-17.08,16.1-17.08,3.99,0,7,.49,9.8,1.26v8.54h-15.4v30.1h8.05v-15.61h-4.9v-4.9h15.4v29.61h-10.5v-5.6h-.91c-1.47,3.99-4.13,6.3-8.61,6.3-5.46,0-9.03-3.15-9.03-10.85Z"/>
    <path class="cls-1" d="M123.63,25.1h8.4l10.29,25.55h1.75v-25.55h10.5v48.3h-8.4l-10.29-25.06h-1.75v25.06h-10.5V25.1Z"/>
    <path class="cls-1" d="M165.98,25.1h14.28l9.59,48.3h-11.97l-1.89-10.36h-7.77v10.36h-10.71l8.47-48.3ZM168.22,58.14h6.86l-3.92-21.21h-2.94v21.21Z"/>
    <path class="cls-1" d="M192.79,25.1h11.41c12.74,0,17.29,6.3,17.29,15.96,0,4.9-2.17,8.82-6.79,11.27l8.75,21.07h-12.46l-5.53-17.22h-2.17v17.22h-10.5V25.1ZM203.29,34.2v17.43h7.91v-17.43h-7.91Z"/>
    <path class="cls-1" d="M225.41,25.1h10.5v39.2h8.54v9.1h-19.04V25.1Z"/>
    <path class="cls-1" d="M249,59.4l-9.24-34.3h11.69l5.74,23.66h1.68v-23.66h9.24l-8.61,32.55v15.75h-10.5v-14Z"/>
  </g>
</svg>