<?xml version="1.0" encoding="UTF-8"?>
<svg id="Layer_1" data-name="Layer 1" xmlns="http://www.w3.org/2000/svg" viewBox="0 0 360 100">
  <defs>
    <style>
      .cls-1 {
        fill: #fff;
      }

      .cls-2 {
        fill: #ff002a;
      }
    </style>
  </defs>
  <rect class="cls-2" y="0" width="360" height="100"/>
  <g>
    <path class="cls-1" d="M124.46,63.44l-.21-12.32,3.29-12.67,5.95-10.43,6.09-6.44,7.49-3.08,6.23,3.57,2.8,5.95-1.12,6.79-2.1,4.76-4.55.56-1.54-3.43.84-3.29,3.85-8.4-.35-1.05h-10.01l-5.67,5.88-3.29,7.63-2.8,13.09.49,10.64,3.01,6.51,5.32.63,8.12-9.24,1.96-11.48,5.25-1.4.42.84-6.16,31.22-3.15,1.19-.84-.77,2.1-14.84-.84-.21-4.13,6.65-7.14,2.94-5.18-2.66-4.13-7.14Z"/>
    <path class="cls-1" d="M155.96,63.37v-2.1l6.65-4.55,3.85-8.96,2.8-4.06,2.66-.49,1.26,2.59-1.47,5.67-4.55,5.11v11.13l4.97.77,5.67-9.87,2.38-7,1.68-1.26,1.75,1.05.91,13.02,6.23-3.15v2.1l-6.58,4.9-2.1.63-2.03-1.4-.42-5.74-1.05-.14-5.32,10.64-5.6,1.33-3.71-3.22-1.12-10.5-6.86,3.5Z"/>
    <path class="cls-1" d="M190.75,61.27l8.82-14.77,5.11-2.66,4.76,2.17,2.31,10.22-7.14,14.07-.49-1.05,11.2-7.98v2.1l-9.03,7.98-5.25,1.68-4.62-2.38-1.05-4.41.77-.77,6.02,3.43-1.47,1.68,5.6-8.54-.14-14-4.06.14-11.34,15.19v-2.1Z"/>
    <path class="cls-1" d="M215.32,61.27l7.21-8.54,8.19-20.51,1.61-.84,1.33,1.05-7,26.04.98,11.2-1.54-.91,9.66-7.49v2.1l-7.28,7.7-4.06,1.89-2.24-2.45-.21-14.91.84,1.47-7.49,6.3v-2.1ZM220.14,36.98l1.54-.63,9.24.21,3.57-.35,1.05,1.19-.63,2.66-1.4,1.05-5.67.56-8.33-.28-.35-1.68.98-2.73Z"/>
  </g>
</svg>