<?xml version="1.0" encoding="UTF-8"?>
<svg id="Layer_1" data-name="Layer 1" xmlns="http://www.w3.org/2000/svg" viewBox="0 0 360 100">
  <defs>
    <style>
      .cls-1 {
        fill: #fff;
      }

      .cls-2 {
        fill: #ff002a;
      }
    </style>
  </defs>
  <rect class="cls-2" width="360" height="100"/>
  <g>
    <path class="cls-1" d="M117.26,74.4l7.7-4.34,7.7,4.34-.28.56h-14.84l-.28-.56ZM117.89,25.96h14l.14.42-7.14,4.13-7.14-4.13.14-.42ZM123.84,25.96h2.8v49h-2.8V25.96ZM125.45,52.98h3.64l-2.38,1.26,16.8-28.28h2.24l-20.3,33.46v-6.44ZM133.5,45.49l15.33,29.47h-3.36l-13.58-26.67,1.61-2.8ZM136.3,25.96h13.09l.14.42-7.77,3.78-5.6-3.78.14-.42ZM138.05,74.4l6.86-4.2,8.61,4.2-.28.56h-14.91l-.28-.56Z"/>
    <path class="cls-1" d="M160.45,37.86l1.33,5.95-.91-2.03h.84c.79-1.26,1.75-2.35,2.87-3.25,1.12-.91,2.4-1.37,3.85-1.37.98,0,1.73.2,2.24.59.51.4.77.99.77,1.79s-.4,1.43-1.19,1.92c-.79.49-1.83.77-3.11.84-1.28.07-2.65-.08-4.1-.46l-.14.21v32.9h-2.8v-32.62l-5.18-2.38v-.42l5.39-1.89.14.21ZM155.34,74.4l5.88-4.34,7.98,4.34-.14.56h-13.58l-.14-.56Z"/>
    <path class="cls-1" d="M178.37,73.49c-1.59-1.45-2.81-3.5-3.68-6.16s-1.29-5.79-1.29-9.38c0-2.52.25-4.99.74-7.42.49-2.43,1.21-4.62,2.17-6.58.96-1.96,2.16-3.52,3.61-4.69,1.45-1.17,3.1-1.75,4.97-1.75,3.27,0,5.68,1.62,7.25,4.87,1.56,3.24,2.34,8.06,2.34,14.46h-18.69l.77-.7v.84c0,5.41.71,9.43,2.13,12.04,1.42,2.61,3.46,3.92,6.12,3.92,2.33,0,4.08-.78,5.25-2.34,1.17-1.56,2.24-4.14,3.22-7.74l1.05.28c-.75,4.15-1.94,7.28-3.57,9.38-1.63,2.1-3.92,3.15-6.86,3.15-2.1,0-3.94-.72-5.53-2.17ZM191.39,55.08c0-5.74-.65-9.75-1.96-12.04-1.31-2.29-3.13-3.43-5.46-3.43-1.77,0-3.21.77-4.3,2.31-1.1,1.54-1.89,3.52-2.38,5.95-.49,2.43-.74,4.99-.74,7.7l-.77-.49h15.61Z"/>
    <path class="cls-1" d="M196.35,38.91l4.55-2.45,3.64-10.78.77.14-.14,12.04h7.35v1.75h-7.49v27.37c0,1.63.3,2.82.91,3.57.61.75,1.54,1.12,2.8,1.12.98,0,1.79-.2,2.42-.59s1.18-1.11,1.64-2.13l.63.35c-.37,2.05-1.01,3.63-1.92,4.72-.91,1.1-2.25,1.65-4.03,1.65-1.59,0-2.86-.61-3.81-1.82-.96-1.21-1.44-2.99-1.44-5.32v-28.98h-5.6l-.28-.63Z"/>
    <path class="cls-1" d="M221.45,74.33c-1.28-.89-2.25-2.03-2.91-3.43-.65-1.4-.98-2.87-.98-4.41,0-2.94.84-5.45,2.52-7.53,1.68-2.08,4.32-3.91,7.91-5.5l6.79-3.01.28,1.68-7.56,3.57c-2.52,1.17-4.27,2.54-5.25,4.13-.98,1.59-1.47,3.48-1.47,5.67,0,2.33.57,4.12,1.71,5.36,1.14,1.24,2.65,1.85,4.52,1.85,1.68,0,3.07-.21,4.17-.63,1.1-.42,2.37-1.14,3.81-2.17l.42.77c-1.4,1.54-2.8,2.75-4.2,3.64-1.4.89-3.13,1.33-5.18,1.33-1.77,0-3.3-.44-4.58-1.33ZM235.06,74.29c-.75-.91-1.12-2.11-1.12-3.6v-23.52c0-1.87-.17-3.37-.53-4.51-.35-1.14-.99-2-1.92-2.56-.93-.56-2.24-.84-3.92-.84h-2.59l.84-.35-1.12,5.74c-.23,1.17-.62,2.03-1.15,2.59-.54.56-1.13.84-1.79.84-.75,0-1.32-.25-1.71-.74s-.59-1.15-.59-2c0-2.05.78-3.87,2.34-5.46,1.56-1.59,3.7-2.38,6.4-2.38s4.87.88,6.34,2.62,2.21,4.56,2.21,8.44v19.6c0,1.03.2,1.79.6,2.28.39.49.99.73,1.78.73.65,0,1.24-.16,1.75-.49s.96-.82,1.33-1.47l.7.28c-.33,2.15-.87,3.71-1.61,4.69-.75.98-1.8,1.47-3.15,1.47s-2.33-.46-3.08-1.37Z"/>
  </g>
</svg>