<?xml version="1.0" encoding="UTF-8"?>
<svg id="Layer_1" data-name="Layer 1" xmlns="http://www.w3.org/2000/svg" viewBox="0 0 360 100">
  <defs>
    <style>
      .cls-1 {
        fill: #fff;
      }

      .cls-2 {
        fill: #ff002a;
      }
    </style>
  </defs>
  <rect class="cls-2" width="360" height="100"/>
  <g>
    <path class="cls-1" d="M126.31,72.48l6.6-3.72,6.6,3.72-.24.48h-12.72l-.24-.48ZM126.85,30.96h12l.12.36-6.12,3.54-6.12-3.54.12-.36ZM131.95,30.96h2.4v42h-2.4V30.96ZM133.33,54.12h3.12l-2.04,1.08,14.4-24.24h1.92l-17.4,28.68v-5.52ZM140.23,47.7l13.14,25.26h-2.88l-11.64-22.86,1.38-2.4ZM142.63,30.96h11.22l.12.36-6.66,3.24-4.8-3.24.12-.36ZM144.13,72.48l5.88-3.6,7.38,3.6-.24.48h-12.78l-.24-.48Z"/>
    <path class="cls-1" d="M163.33,41.16l1.14,5.1-.78-1.74h.72c.68-1.08,1.5-2.01,2.46-2.79.96-.78,2.06-1.17,3.3-1.17.84,0,1.48.17,1.92.51.44.34.66.85.66,1.53s-.34,1.23-1.02,1.65c-.68.42-1.57.66-2.67.72-1.1.06-2.27-.07-3.51-.39l-.12.18v28.2h-2.4v-27.96l-4.44-2.04v-.36l4.62-1.62.12.18ZM158.95,72.48l5.04-3.72,6.84,3.72-.12.48h-11.64l-.12-.48Z"/>
    <path class="cls-1" d="M178.69,71.7c-1.36-1.24-2.41-3-3.15-5.28-.74-2.28-1.11-4.96-1.11-8.04,0-2.16.21-4.28.63-6.36.42-2.08,1.04-3.96,1.86-5.64s1.85-3.02,3.09-4.02,2.66-1.5,4.26-1.5c2.8,0,4.87,1.39,6.21,4.17,1.34,2.78,2.01,6.91,2.01,12.39h-16.02l.66-.6v.72c0,4.64.61,8.08,1.83,10.32,1.22,2.24,2.97,3.36,5.25,3.36,2,0,3.5-.67,4.5-2.01,1-1.34,1.92-3.55,2.76-6.63l.9.24c-.64,3.56-1.66,6.24-3.06,8.04-1.4,1.8-3.36,2.7-5.88,2.7-1.8,0-3.38-.62-4.74-1.86ZM189.85,55.92c0-4.92-.56-8.36-1.68-10.32-1.12-1.96-2.68-2.94-4.68-2.94-1.52,0-2.75.66-3.69,1.98-.94,1.32-1.62,3.02-2.04,5.1-.42,2.08-.63,4.28-.63,6.6l-.66-.42h13.38Z"/>
    <path class="cls-1" d="M194.11,42.06l3.9-2.1,3.12-9.24.66.12-.12,10.32h6.3v1.5h-6.42v23.46c0,1.4.26,2.42.78,3.06.52.64,1.32.96,2.4.96.84,0,1.53-.17,2.07-.51.54-.34,1.01-.95,1.41-1.83l.54.3c-.32,1.76-.87,3.11-1.65,4.05-.78.94-1.93,1.41-3.45,1.41-1.36,0-2.45-.52-3.27-1.56-.82-1.04-1.23-2.56-1.23-4.56v-24.84h-4.8l-.24-.54Z"/>
    <path class="cls-1" d="M215.62,72.42c-1.1-.76-1.93-1.74-2.49-2.94-.56-1.2-.84-2.46-.84-3.78,0-2.52.72-4.67,2.16-6.45,1.44-1.78,3.7-3.35,6.78-4.71l5.82-2.58.24,1.44-6.48,3.06c-2.16,1-3.66,2.18-4.5,3.54-.84,1.36-1.26,2.98-1.26,4.86,0,2,.49,3.53,1.47,4.59.98,1.06,2.27,1.59,3.87,1.59,1.44,0,2.63-.18,3.57-.54s2.03-.98,3.27-1.86l.36.66c-1.2,1.32-2.4,2.36-3.6,3.12s-2.68,1.14-4.44,1.14c-1.52,0-2.83-.38-3.93-1.14ZM227.29,72.39c-.64-.78-.96-1.81-.96-3.09v-20.16c0-1.6-.15-2.89-.45-3.87-.3-.98-.85-1.71-1.65-2.19-.8-.48-1.92-.72-3.36-.72h-2.22l.72-.3-.96,4.92c-.2,1-.53,1.74-.99,2.22-.46.48-.97.72-1.53.72-.64,0-1.13-.21-1.47-.63-.34-.42-.51-.99-.51-1.71,0-1.76.67-3.32,2.01-4.68,1.34-1.36,3.17-2.04,5.49-2.04s4.17.75,5.43,2.25c1.26,1.5,1.89,3.91,1.89,7.23v16.8c0,.88.17,1.53.51,1.95s.85.63,1.53.63c.56,0,1.06-.14,1.5-.42.44-.28.82-.7,1.14-1.26l.6.24c-.28,1.84-.74,3.18-1.38,4.02-.64.84-1.54,1.26-2.7,1.26s-2-.39-2.64-1.17Z"/>
  </g>
</svg>