<?xml version="1.0" encoding="UTF-8"?>
<svg id="Layer_1" data-name="Layer 1" xmlns="http://www.w3.org/2000/svg" viewBox="0 0 360 100">
  <path d="M120.1,72.48l6.78-7.8,7.74,7.8-.24.48h-14.04l-.24-.48ZM120.4,30.96h13.8l.24.48-7.56,7.2-6.72-7.2.24-.48ZM123.88,30.96h6.6v42h-6.6V30.96ZM128.86,51.78h2.88l-.78.42,13.62-21.24h4.14l-19.86,29.58v-8.76ZM137.98,45.78l13.92,27.18h-7.74l-10.92-21.06,4.74-6.12ZM138.46,30.96h13.08l.24.48-9.42,6.48-4.14-6.48.24-.48ZM140.5,72.48l4.92-7.68,8.58,7.68-.24.48h-13.02l-.24-.48Z"/>
  <path d="M161.86,41.16l.9,4.44-1.62-1.98,1.38.48c.76-1.16,1.68-2.08,2.76-2.76,1.08-.68,2.42-1.02,4.02-1.02,1.16,0,2.09.27,2.79.81.7.54,1.05,1.23,1.05,2.07,0,1.12-.46,1.97-1.38,2.55-.92.58-2.07.84-3.45.78-1.38-.06-2.75-.49-4.11-1.29l-.12.12v27.6h-6.3v-26.4l-3.12-2.58v-.3l6.9-2.82.3.3ZM155.38,72.48l4.92-7.62,7.74,7.62-.24.48h-12.18l-.24-.48Z"/>
  <path d="M177.85,71.55c-1.62-1.34-2.86-3.21-3.72-5.61-.86-2.4-1.29-5.2-1.29-8.4,0-2.28.23-4.44.69-6.48.46-2.04,1.15-3.85,2.07-5.43.92-1.58,2.1-2.82,3.54-3.72,1.44-.9,3.14-1.35,5.1-1.35,3.2,0,5.62,1.42,7.26,4.26,1.64,2.84,2.46,7,2.46,12.48h-15.66l.84-.6v1.14c0,3.76.52,6.55,1.56,8.37,1.04,1.82,2.66,2.73,4.86,2.73,1.56,0,2.97-.66,4.23-1.98,1.26-1.32,2.23-3.08,2.91-5.28l1.2.42c-.68,3.96-1.94,6.86-3.78,8.7-1.84,1.84-4,2.76-6.48,2.76-2.24,0-4.17-.67-5.79-2.01ZM188.08,54.9c0-3.92-.32-6.87-.96-8.85-.64-1.98-1.9-2.97-3.78-2.97-1.04,0-1.87.48-2.49,1.44-.62.96-1.06,2.37-1.32,4.23-.26,1.86-.39,4.15-.39,6.87l-.84-.72h9.78Z"/>
  <path d="M194.68,43.08l5.76-3.42,4.62-9.54.9.12-.12,10.92h6.06v3h-6.18v20.46c0,1.6.31,2.77.93,3.51.62.74,1.49,1.11,2.61,1.11.8,0,1.52-.24,2.16-.72.64-.48,1.28-1.28,1.92-2.4l.6.42c-.48,2.4-1.3,4.17-2.46,5.31-1.16,1.14-2.68,1.71-4.56,1.71-2.48,0-4.35-.74-5.61-2.22-1.26-1.48-1.89-3.38-1.89-5.7v-21.54h-4.5l-.24-1.02Z"/>
  <path d="M219.28,72.51c-1.16-.7-2.03-1.65-2.61-2.85-.58-1.2-.87-2.5-.87-3.9,0-2.64.69-4.7,2.07-6.18,1.38-1.48,3.33-2.78,5.85-3.9l7.68-3.36.24,1.56-4.92,3.36c-1.56,1.08-2.71,2.18-3.45,3.3-.74,1.12-1.11,2.46-1.11,4.02s.41,2.68,1.23,3.6c.82.92,1.97,1.38,3.45,1.38,1,0,1.83-.16,2.49-.48.66-.32,1.51-.92,2.55-1.8l.3.42c-1,1.92-2.22,3.38-3.66,4.38-1.44,1-3.08,1.5-4.92,1.5-1.72,0-3.16-.35-4.32-1.05ZM231.52,71.91c-1.04-1.02-1.56-2.39-1.56-4.11v-18.6c0-1.36-.08-2.49-.24-3.39-.16-.9-.56-1.59-1.2-2.07-.64-.48-1.66-.72-3.06-.72h-1.86l.78-.66-.9,4.8c-.2,1.2-.57,2.07-1.11,2.61s-1.21.81-2.01.81c-.68,0-1.25-.26-1.71-.78-.46-.52-.69-1.24-.69-2.16,0-2,.71-3.68,2.13-5.04,1.42-1.36,3.59-2.04,6.51-2.04,3.48,0,5.96.95,7.44,2.85,1.48,1.9,2.22,4.39,2.22,7.47v16.2c0,.72.19,1.28.57,1.68.38.4.89.6,1.53.6.56,0,1.02-.06,1.38-.18.36-.12.74-.3,1.14-.54l.48.6c-.68,1.56-1.5,2.65-2.46,3.27-.96.62-2.12.93-3.48.93-1.56,0-2.86-.51-3.9-1.53Z"/>
</svg>