<?xml version="1.0" encoding="UTF-8"?>
<svg id="Layer_1" data-name="Layer 1" xmlns="http://www.w3.org/2000/svg" viewBox="0 0 360 100">
  <path d="M110.01,74.4l7.91-9.1,9.03,9.1-.28.56h-16.38l-.28-.56ZM110.36,25.96h16.1l.28.56-8.82,8.4-7.84-8.4.28-.56ZM114.42,25.96h7.7v49h-7.7V25.96ZM120.23,50.25h3.36l-.91.49,15.89-24.78h4.83l-23.17,34.51v-10.22ZM130.87,43.25l16.24,31.71h-9.03l-12.74-24.57,5.53-7.14ZM131.43,25.96h15.26l.28.56-10.99,7.56-4.83-7.56.28-.56ZM133.81,74.4l5.74-8.96,10.01,8.96-.28.56h-15.19l-.28-.56Z"/>
  <path d="M158.73,37.86l1.05,5.18-1.89-2.31,1.61.56c.89-1.35,1.96-2.43,3.22-3.22,1.26-.79,2.82-1.19,4.69-1.19,1.35,0,2.44.32,3.26.95.82.63,1.22,1.43,1.22,2.42,0,1.31-.54,2.3-1.61,2.97-1.07.68-2.42.98-4.02.91s-3.21-.57-4.79-1.5l-.14.14v32.2h-7.35v-30.8l-3.64-3.01v-.35l8.05-3.29.35.35ZM151.17,74.4l5.74-8.89,9.03,8.89-.28.56h-14.21l-.28-.56Z"/>
  <path d="M177.39,73.32c-1.89-1.56-3.34-3.75-4.34-6.55-1-2.8-1.5-6.07-1.5-9.8,0-2.66.27-5.18.81-7.56.54-2.38,1.34-4.49,2.42-6.33,1.07-1.84,2.45-3.29,4.13-4.34,1.68-1.05,3.66-1.58,5.95-1.58,3.73,0,6.56,1.66,8.47,4.97,1.91,3.31,2.87,8.17,2.87,14.56h-18.27l.98-.7v1.33c0,4.39.61,7.64,1.82,9.76,1.21,2.12,3.1,3.18,5.67,3.18,1.82,0,3.47-.77,4.94-2.31,1.47-1.54,2.6-3.59,3.4-6.16l1.4.49c-.79,4.62-2.26,8-4.41,10.15-2.15,2.15-4.67,3.22-7.56,3.22-2.61,0-4.87-.78-6.75-2.34ZM189.32,53.89c0-4.57-.37-8.01-1.12-10.32-.75-2.31-2.22-3.47-4.41-3.47-1.21,0-2.18.56-2.9,1.68-.72,1.12-1.24,2.76-1.54,4.93-.3,2.17-.46,4.84-.46,8.01l-.98-.84h11.41Z"/>
  <path d="M197.02,40.1l6.72-3.99,5.39-11.13,1.05.14-.14,12.74h7.07v3.5h-7.21v23.87c0,1.87.36,3.23,1.08,4.1.72.86,1.74,1.29,3.05,1.29.93,0,1.77-.28,2.52-.84.75-.56,1.49-1.49,2.24-2.8l.7.49c-.56,2.8-1.52,4.87-2.87,6.2-1.35,1.33-3.13,2-5.32,2-2.89,0-5.07-.86-6.54-2.59-1.47-1.73-2.21-3.94-2.21-6.65v-25.13h-5.25l-.28-1.19Z"/>
  <path d="M225.72,74.43c-1.35-.82-2.37-1.92-3.04-3.32-.68-1.4-1.01-2.92-1.01-4.55,0-3.08.81-5.48,2.42-7.21,1.61-1.73,3.88-3.24,6.82-4.55l8.96-3.92.28,1.82-5.74,3.92c-1.82,1.26-3.16,2.54-4.02,3.85-.87,1.31-1.29,2.87-1.29,4.69,0,1.73.48,3.13,1.43,4.2s2.3,1.61,4.03,1.61c1.17,0,2.13-.19,2.9-.56.77-.37,1.76-1.07,2.98-2.1l.35.49c-1.17,2.24-2.59,3.94-4.27,5.11-1.68,1.17-3.6,1.75-5.74,1.75-2.01,0-3.69-.41-5.04-1.23ZM240,73.74c-1.21-1.19-1.82-2.79-1.82-4.79v-21.7c0-1.59-.09-2.91-.28-3.96-.19-1.05-.65-1.86-1.4-2.42-.75-.56-1.94-.84-3.57-.84h-2.17l.91-.77-1.05,5.6c-.23,1.4-.66,2.42-1.29,3.04s-1.41.94-2.35.94c-.79,0-1.46-.3-1.99-.91-.54-.61-.8-1.45-.8-2.52,0-2.33.83-4.29,2.48-5.88,1.66-1.59,4.19-2.38,7.6-2.38,4.06,0,6.95,1.11,8.68,3.33s2.59,5.12,2.59,8.71v18.9c0,.84.22,1.49.66,1.96.44.47,1.04.7,1.79.7.65,0,1.19-.07,1.61-.21.42-.14.86-.35,1.33-.63l.56.7c-.79,1.82-1.75,3.09-2.87,3.81-1.12.72-2.47,1.08-4.06,1.08-1.82,0-3.34-.59-4.55-1.78Z"/>
</svg>