<?xml version="1.0" encoding="UTF-8"?>
<svg id="Layer_1" data-name="Layer 1" xmlns="http://www.w3.org/2000/svg" viewBox="0 0 360 100">
  <defs>
    <style>
      .cls-1 {
        fill: #fff;
      }

      .cls-2 {
        fill: #ff002a;
      }
    </style>
  </defs>
  <rect class="cls-2" width="360" height="100"/>
  <g>
    <path class="cls-1" d="M108.2,74.32l8.8-4.96,8.8,4.96-.32.64h-16.96l-.32-.64ZM108.92,18.96h16l.16.48-8.16,4.72-8.16-4.72.16-.48ZM115.72,18.96h3.2v56h-3.2V18.96ZM117.56,49.84h4.16l-2.72,1.44,19.2-32.32h2.56l-23.2,38.24v-7.36ZM126.76,41.28l17.52,33.68h-3.84l-15.52-30.48,1.84-3.2ZM129.96,18.96h14.96l.16.48-8.88,4.32-6.4-4.32.16-.48ZM131.96,74.32l7.84-4.8,9.84,4.8-.32.64h-17.04l-.32-.64Z"/>
    <path class="cls-1" d="M157.56,32.56l1.52,6.8-1.04-2.32h.96c.91-1.44,2-2.68,3.28-3.72,1.28-1.04,2.75-1.56,4.4-1.56,1.12,0,1.97.23,2.56.68s.88,1.13.88,2.04-.45,1.64-1.36,2.2c-.91.56-2.09.88-3.56.96s-3.03-.09-4.68-.52l-.16.24v37.6h-3.2v-37.28l-5.92-2.72v-.48l6.16-2.16.16.24ZM151.72,74.32l6.72-4.96,9.12,4.96-.16.64h-15.52l-.16-.64Z"/>
    <path class="cls-1" d="M178.04,73.28c-1.81-1.65-3.21-4-4.2-7.04-.99-3.04-1.48-6.61-1.48-10.72,0-2.88.28-5.71.84-8.48.56-2.77,1.39-5.28,2.48-7.52,1.09-2.24,2.47-4.03,4.12-5.36,1.65-1.33,3.55-2,5.68-2,3.73,0,6.49,1.85,8.28,5.56,1.79,3.71,2.68,9.21,2.68,16.52h-21.36l.88-.8v.96c0,6.19.81,10.77,2.44,13.76,1.63,2.99,3.96,4.48,7,4.48,2.67,0,4.67-.89,6-2.68,1.33-1.79,2.56-4.73,3.68-8.84l1.2.32c-.85,4.75-2.21,8.32-4.08,10.72-1.87,2.4-4.48,3.6-7.84,3.6-2.4,0-4.51-.83-6.32-2.48ZM192.92,52.24c0-6.56-.75-11.15-2.24-13.76-1.49-2.61-3.57-3.92-6.24-3.92-2.03,0-3.67.88-4.92,2.64-1.25,1.76-2.16,4.03-2.72,6.8-.56,2.77-.84,5.71-.84,8.8l-.88-.56h17.84Z"/>
    <path class="cls-1" d="M198.6,33.76l5.2-2.8,4.16-12.32.88.16-.16,13.76h8.4v2h-8.56v31.28c0,1.87.35,3.23,1.04,4.08.69.85,1.76,1.28,3.2,1.28,1.12,0,2.04-.23,2.76-.68.72-.45,1.35-1.27,1.88-2.44l.72.4c-.43,2.35-1.16,4.15-2.2,5.4-1.04,1.25-2.57,1.88-4.6,1.88-1.81,0-3.27-.69-4.36-2.08-1.09-1.39-1.64-3.41-1.64-6.08v-33.12h-6.4l-.32-.72Z"/>
    <path class="cls-1" d="M227.28,74.24c-1.47-1.01-2.57-2.32-3.32-3.92-.75-1.6-1.12-3.28-1.12-5.04,0-3.36.96-6.23,2.88-8.6,1.92-2.37,4.93-4.47,9.04-6.28l7.76-3.44.32,1.92-8.64,4.08c-2.88,1.33-4.88,2.91-6,4.72-1.12,1.81-1.68,3.97-1.68,6.48,0,2.67.65,4.71,1.96,6.12s3.03,2.12,5.16,2.12c1.92,0,3.51-.24,4.76-.72,1.25-.48,2.71-1.31,4.36-2.48l.48.88c-1.6,1.76-3.2,3.15-4.8,4.16-1.6,1.01-3.57,1.52-5.92,1.52-2.03,0-3.78-.51-5.24-1.52ZM242.84,74.2c-.85-1.04-1.28-2.41-1.28-4.12v-26.88c0-2.13-.2-3.85-.6-5.16-.4-1.31-1.13-2.28-2.2-2.92-1.07-.64-2.56-.96-4.48-.96h-2.96l.96-.4-1.28,6.56c-.27,1.33-.71,2.32-1.32,2.96-.62.64-1.29.96-2.04.96-.85,0-1.51-.28-1.96-.84-.46-.56-.68-1.32-.68-2.28,0-2.35.89-4.43,2.68-6.24,1.79-1.81,4.22-2.72,7.32-2.72s5.56,1,7.24,3,2.52,5.21,2.52,9.64v22.4c0,1.17.22,2.04.68,2.6.45.56,1.13.84,2.04.84.75,0,1.41-.19,2-.56.59-.37,1.09-.93,1.52-1.68l.8.32c-.37,2.45-.99,4.24-1.84,5.36-.85,1.12-2.05,1.68-3.6,1.68s-2.67-.52-3.52-1.56Z"/>
  </g>
</svg>