<?xml version="1.0" encoding="UTF-8"?>
<svg id="Layer_1" data-name="Layer 1" xmlns="http://www.w3.org/2000/svg" viewBox="0 0 360 100">
  <path d="M99.92,74.32l9.04-10.4,10.32,10.4-.32.64h-18.72l-.32-.64ZM100.32,18.96h18.4l.32.64-10.08,9.6-8.96-9.6.32-.64ZM104.96,18.96h8.8v56h-8.8V18.96ZM111.6,46.72h3.84l-1.04.56,18.16-28.32h5.52l-26.48,39.44v-11.68ZM123.76,38.72l18.56,36.24h-10.32l-14.56-28.08,6.32-8.16ZM124.4,18.96h17.44l.32.64-12.56,8.64-5.52-8.64.32-.64ZM127.12,74.32l6.56-10.24,11.44,10.24-.32.64h-17.36l-.32-.64Z"/>
  <path d="M155.6,32.56l1.2,5.92-2.16-2.64,1.84.64c1.01-1.55,2.24-2.77,3.68-3.68,1.44-.91,3.23-1.36,5.36-1.36,1.55,0,2.79.36,3.72,1.08.93.72,1.4,1.64,1.4,2.76,0,1.49-.61,2.63-1.84,3.4-1.23.77-2.76,1.12-4.6,1.04s-3.67-.65-5.48-1.72l-.16.16v36.8h-8.4v-35.2l-4.16-3.44v-.4l9.2-3.76.4.4ZM146.96,74.32l6.56-10.16,10.32,10.16-.32.64h-16.24l-.32-.64Z"/>
  <path d="M176.92,73.08c-2.16-1.79-3.81-4.28-4.96-7.48-1.15-3.2-1.72-6.93-1.72-11.2,0-3.04.31-5.92.92-8.64.61-2.72,1.53-5.13,2.76-7.24,1.23-2.11,2.8-3.76,4.72-4.96,1.92-1.2,4.19-1.8,6.8-1.8,4.27,0,7.49,1.89,9.68,5.68,2.19,3.79,3.28,9.33,3.28,16.64h-20.88l1.12-.8v1.52c0,5.01.69,8.73,2.08,11.16,1.39,2.43,3.55,3.64,6.48,3.64,2.08,0,3.96-.88,5.64-2.64,1.68-1.76,2.97-4.11,3.88-7.04l1.6.56c-.91,5.28-2.59,9.15-5.04,11.6-2.45,2.45-5.33,3.68-8.64,3.68-2.99,0-5.56-.89-7.72-2.68ZM190.56,50.88c0-5.23-.43-9.16-1.28-11.8-.85-2.64-2.53-3.96-5.04-3.96-1.39,0-2.49.64-3.32,1.92-.83,1.28-1.41,3.16-1.76,5.64-.35,2.48-.52,5.53-.52,9.16l-1.12-.96h13.04Z"/>
  <path d="M199.36,35.12l7.68-4.56,6.16-12.72,1.2.16-.16,14.56h8.08v4h-8.24v27.28c0,2.13.41,3.69,1.24,4.68.83.99,1.99,1.48,3.48,1.48,1.07,0,2.03-.32,2.88-.96s1.71-1.71,2.56-3.2l.8.56c-.64,3.2-1.73,5.56-3.28,7.08-1.55,1.52-3.57,2.28-6.08,2.28-3.31,0-5.8-.99-7.48-2.96-1.68-1.97-2.52-4.51-2.52-7.6v-28.72h-6l-.32-1.36Z"/>
  <path d="M232.16,74.36c-1.55-.93-2.71-2.2-3.48-3.8-.77-1.6-1.16-3.33-1.16-5.2,0-3.52.92-6.27,2.76-8.24,1.84-1.97,4.44-3.71,7.8-5.2l10.24-4.48.32,2.08-6.56,4.48c-2.08,1.44-3.61,2.91-4.6,4.4-.99,1.49-1.48,3.28-1.48,5.36s.55,3.57,1.64,4.8c1.09,1.23,2.63,1.84,4.6,1.84,1.33,0,2.44-.21,3.32-.64.88-.43,2.01-1.23,3.4-2.4l.4.56c-1.33,2.56-2.96,4.51-4.88,5.84-1.92,1.33-4.11,2-6.56,2-2.29,0-4.21-.47-5.76-1.4ZM248.48,73.56c-1.39-1.36-2.08-3.19-2.08-5.48v-24.8c0-1.81-.11-3.32-.32-4.52-.21-1.2-.75-2.12-1.6-2.76-.85-.64-2.21-.96-4.08-.96h-2.48l1.04-.88-1.2,6.4c-.27,1.6-.76,2.76-1.48,3.48s-1.61,1.08-2.68,1.08c-.91,0-1.67-.35-2.28-1.04-.61-.69-.92-1.65-.92-2.88,0-2.67.95-4.91,2.84-6.72,1.89-1.81,4.79-2.72,8.68-2.72,4.64,0,7.95,1.27,9.92,3.8,1.97,2.53,2.96,5.85,2.96,9.96v21.6c0,.96.25,1.71.76,2.24.51.53,1.19.8,2.04.8.75,0,1.36-.08,1.84-.24.48-.16.99-.4,1.52-.72l.64.8c-.91,2.08-2,3.53-3.28,4.36s-2.83,1.24-4.64,1.24c-2.08,0-3.81-.68-5.2-2.04Z"/>
</svg>