<?xml version="1.0" encoding="UTF-8"?>
<svg id="Layer_1" data-name="Layer 1" xmlns="http://www.w3.org/2000/svg" viewBox="0 0 360 100">
  <defs>
    <style>
      .cls-1 {
        fill: #fff;
      }

      .cls-2 {
        fill: #ff002a;
      }
    </style>
  </defs>
  <rect class="cls-2" y="0" width="360" height="100"/>
  <g>
    <path class="cls-1" d="M58.53,66.2c1.76-.28,3.11-.69,4.05-1.23.94-.54,1.63-1.34,2.07-2.4.44-1.06.74-2.53.9-4.41l2.04-24.6c.2-2.32-.06-3.88-.78-4.68-.72-.8-2.08-1.28-4.08-1.44v-1.2h8.4l-2.28,33.6c-.08,1.4.05,2.51.39,3.33.34.82,1.07,1.45,2.19,1.89,1.12.44,2.78.82,4.98,1.14v1.2h-17.88v-1.2ZM71.43,33.68h-2.1v-7.44h6.54l9.24,26.88h.6l8.82-26.88h3.24v7.44h-2.76l-10.44,31.08h-2.4l-10.74-31.08ZM92.61,66.2c1.56-.36,2.76-.76,3.6-1.2.84-.44,1.4-1.1,1.68-1.98.28-.88.34-2.1.18-3.66l-2.88-33.12h11.4v1.2c-1.76.16-2.95.61-3.57,1.35-.62.74-.85,2.13-.69,4.17l2.34,24.84c.2,1.96.51,3.5.93,4.62.42,1.12,1.06,1.95,1.92,2.49.86.54,2.05.97,3.57,1.29v1.2h-18.48v-1.2Z"/>
    <path class="cls-1" d="M129.63,52.04c-3.08.08-5.44.47-7.08,1.17-1.64.7-2.76,1.55-3.36,2.55s-.9,2.04-.9,3.12c0,1.72.44,3.05,1.32,3.99.88.94,2.3,1.41,4.26,1.41,1.36,0,2.49-.11,3.39-.33.9-.22,1.79-.55,2.67-.99l.24.54c-1.24,1.6-2.57,2.75-3.99,3.45s-3.15,1.05-5.19,1.05c-2.44,0-4.4-.71-5.88-2.13-1.48-1.42-2.22-3.31-2.22-5.67,0-2,.56-3.76,1.68-5.28,1.12-1.52,2.91-2.7,5.37-3.54,2.46-.84,5.69-1.26,9.69-1.26v1.92ZM131.79,39.68c1.64,1.92,2.46,4.62,2.46,8.1v13.86c0,1.6.78,2.4,2.34,2.4.92,0,1.66-.19,2.22-.57.56-.38,1.1-.95,1.62-1.71l.6.6c-.72,1.92-1.67,3.34-2.85,4.26-1.18.92-2.59,1.38-4.23,1.38s-3.02-.5-3.9-1.5c-.88-1-1.32-2.54-1.32-4.62v-17.1c0-1.84-.44-3.15-1.32-3.93-.88-.78-2.32-1.17-4.32-1.17-1.32,0-2.59.1-3.81.3s-2.25.52-3.09.96l1.5-1.44c1.16.64,2.07,1.46,2.73,2.46.66,1,.99,2.12.99,3.36,0,.84-.3,1.58-.9,2.22-.6.64-1.4.96-2.4.96s-1.84-.37-2.52-1.11c-.68-.74-1.02-1.69-1.02-2.85,0-2.12.76-3.94,2.28-5.46s3.96-2.28,7.32-2.28,5.98.96,7.62,2.88Z"/>
    <path class="cls-1" d="M147.78,66.23c-1.86-1.22-3.32-2.99-4.38-5.31-1.06-2.32-1.59-5.1-1.59-8.34s.53-6.21,1.59-8.55c1.06-2.34,2.6-4.13,4.62-5.37,2.02-1.24,4.47-1.86,7.35-1.86,2.64,0,4.78.74,6.42,2.22,1.64,1.48,2.46,3.46,2.46,5.94,0,1.2-.32,2.14-.96,2.82-.64.68-1.48,1.02-2.52,1.02-.88,0-1.65-.33-2.31-.99-.66-.66-.99-1.49-.99-2.49s.26-2.06.78-3.06c.52-1,1.38-1.84,2.58-2.52l.36.78c-1.12-.32-2.14-.55-3.06-.69-.92-.14-2.04-.21-3.36-.21-1.76,0-3.19.4-4.29,1.2-1.1.8-1.9,2.03-2.4,3.69-.5,1.66-.75,3.75-.75,6.27,0,3.04.32,5.49.96,7.35.64,1.86,1.58,3.21,2.82,4.05s2.74,1.26,4.5,1.26c1.44,0,2.72-.24,3.84-.72,1.12-.48,2.09-1.3,2.91-2.46s1.47-2.74,1.95-4.74l1.02.12c-.32,4.08-1.54,7.17-3.66,9.27-2.12,2.1-4.64,3.15-7.56,3.15-2.36,0-4.47-.61-6.33-1.83Z"/>
    <path class="cls-1" d="M166.11,66.32c1.16-.36,2.05-.77,2.67-1.23.62-.46,1.05-1.11,1.29-1.95.24-.84.36-2,.36-3.48v-28.08c0-1.08-.09-1.92-.27-2.52-.18-.6-.56-1.06-1.14-1.38-.58-.32-1.47-.6-2.67-.84v-.72l9.48-3.42v37.8c0,1.28.1,2.31.3,3.09.2.78.57,1.37,1.11,1.77.54.4,1.27.72,2.19.96v1.08h-13.32v-1.08ZM185.55,66.32c1.2-.24,2.07-.56,2.61-.96.54-.4.87-.99.99-1.77.12-.78.18-1.81.18-3.09v-14.04c0-1.92-.44-3.29-1.32-4.11-.88-.82-2.42-1.23-4.62-1.23-1.6,0-3.09.09-4.47.27-1.38.18-2.61.45-3.69.81l-.12-.72c1.32-1.4,2.77-2.53,4.35-3.39s3.65-1.29,6.21-1.29c2.96,0,5.21.76,6.75,2.28,1.54,1.52,2.31,3.64,2.31,6.36v14.82c0,1.36.11,2.43.33,3.21.22.78.61,1.37,1.17,1.77.56.4,1.36.76,2.4,1.08v1.08h-13.08v-1.08Z"/>
    <path class="cls-1" d="M203.85,51.32l13.26-1.02c0-3.92-.37-6.72-1.11-8.4s-2.31-2.52-4.71-2.52c-1.12,0-2.15.34-3.09,1.02-.94.68-1.68,1.86-2.22,3.54-.54,1.68-.81,4.04-.81,7.08s.33,5.53.99,7.35c.66,1.82,1.61,3.12,2.85,3.9,1.24.78,2.68,1.17,4.32,1.17,1.52,0,2.82-.22,3.9-.66,1.08-.44,2-1.13,2.76-2.07.76-.94,1.36-2.17,1.8-3.69l1.38.3c-.44,2.48-1.23,4.51-2.37,6.09-1.14,1.58-2.48,2.74-4.02,3.48-1.54.74-3.15,1.11-4.83,1.11-2.4,0-4.52-.6-6.36-1.8s-3.29-2.93-4.35-5.19c-1.06-2.26-1.59-4.95-1.59-8.07,0-3.72.57-6.77,1.71-9.15,1.14-2.38,2.63-4.14,4.47-5.28,1.84-1.14,3.82-1.71,5.94-1.71s3.77.43,5.19,1.29c1.42.86,2.56,2.04,3.42,3.54.86,1.5,1.45,3.21,1.77,5.13s.38,3.96.18,6.12h-18.48v-1.56Z"/>
    <path class="cls-1" d="M229.08,35.66c1.14-.88,2.01-2.03,2.61-3.45.6-1.42,1.06-3.11,1.38-5.07h1.5v12.18h-10.14v-1.74c1.96-.4,3.51-1.04,4.65-1.92ZM234.57,37.4v20.4c0,2.08.34,3.53,1.02,4.35.68.82,1.76,1.23,3.24,1.23,1.4,0,2.46-.4,3.18-1.2.72-.8,1.08-2.02,1.08-3.66v-6.9h1.8v6.12c0,3.64-.68,6.26-2.04,7.86-1.36,1.6-3.26,2.4-5.7,2.4-2.64,0-4.63-.83-5.97-2.49-1.34-1.66-2.01-4.07-2.01-7.23v-20.88h5.4ZM233.43,37.4h10.98v1.92h-10.98v-1.92Z"/>
    <path class="cls-1" d="M251.51,35.66c1.14-.88,2.01-2.03,2.61-3.45.6-1.42,1.06-3.11,1.38-5.07h1.5v12.18h-10.14v-1.74c1.96-.4,3.51-1.04,4.65-1.92ZM257,37.4v20.4c0,2.08.34,3.53,1.02,4.35.68.82,1.76,1.23,3.24,1.23,1.4,0,2.46-.4,3.18-1.2.72-.8,1.08-2.02,1.08-3.66v-6.9h1.8v6.12c0,3.64-.68,6.26-2.04,7.86-1.36,1.6-3.26,2.4-5.7,2.4-2.64,0-4.63-.83-5.97-2.49-1.34-1.66-2.01-4.07-2.01-7.23v-20.88h5.4ZM255.87,37.4h10.98v1.92h-10.98v-1.92Z"/>
    <path class="cls-1" d="M275.96,51.32l13.26-1.02c0-3.92-.37-6.72-1.11-8.4-.74-1.68-2.31-2.52-4.71-2.52-1.12,0-2.15.34-3.09,1.02-.94.68-1.68,1.86-2.22,3.54s-.81,4.04-.81,7.08.33,5.53.99,7.35c.66,1.82,1.61,3.12,2.85,3.9,1.24.78,2.68,1.17,4.32,1.17,1.52,0,2.82-.22,3.9-.66,1.08-.44,2-1.13,2.76-2.07.76-.94,1.36-2.17,1.8-3.69l1.38.3c-.44,2.48-1.23,4.51-2.37,6.09-1.14,1.58-2.48,2.74-4.02,3.48-1.54.74-3.15,1.11-4.83,1.11-2.4,0-4.52-.6-6.36-1.8s-3.29-2.93-4.35-5.19c-1.06-2.26-1.59-4.95-1.59-8.07,0-3.72.57-6.77,1.71-9.15,1.14-2.38,2.63-4.14,4.47-5.28,1.84-1.14,3.82-1.71,5.94-1.71s3.77.43,5.19,1.29c1.42.86,2.56,2.04,3.42,3.54.86,1.5,1.45,3.21,1.77,5.13s.38,3.96.18,6.12h-18.48v-1.56Z"/>
  </g>
</svg>