<?xml version="1.0" encoding="UTF-8"?>
<svg id="Layer_1" data-name="Layer 1" xmlns="http://www.w3.org/2000/svg" viewBox="0 0 360 100">
  <defs>
    <style>
      .cls-1, .cls-2 {
        fill: none;
      }

      .cls-3 {
        fill: #b31727;
      }

      .cls-4 {
        fill: #0096d8;
      }

      .cls-5, .cls-6 {
        fill: #fff;
      }

      .cls-7 {
        fill: #ff002a;
      }

      .cls-8 {
        fill: #ffa300;
      }

      .cls-6, .cls-2 {
        stroke: #000;
        stroke-miterlimit: 10;
        stroke-width: .61px;
      }
    </style>
  </defs>
  <rect class="cls-7" width="360" height="100"/>
  <g>
    <path class="cls-5" d="M88.83,28.4h6.36c.54,0,1.08.3,1.32.78l10.74,21.36,10.2-21.3c.18-.54.72-.84,1.26-.84h5.7c.54,0,.9.36.9.9v40.2c0,.54-.36.9-.9.9h-7.2c-.54,0-.9-.36-.9-.9v-21.72l-7.26,14.52c-.24.48-.78.78-1.32.78h-3c-.54,0-1.08-.3-1.32-.78l-7.38-14.16v21.36c0,.54-.36.9-.9.9h-6.3c-.54,0-.9-.36-.9-.9V29.3c0-.54.36-.9.9-.9Z"/>
    <path class="cls-5" d="M130.89,69.56l10.8-40.32c.12-.48.6-.84,1.14-.84h11.7c.54,0,1.02.36,1.14.84l10.8,40.32c.12.48-.12.84-.66.84h-7.56c-.54,0-.96-.36-1.14-.9l-1.92-7.56h-13.14l-1.86,7.56c-.18.54-.6.9-1.14.9h-7.5c-.54,0-.78-.36-.66-.84ZM153.26,54.44l-4.8-18.96-4.62,18.96h9.42Z"/>
    <path class="cls-5" d="M172.04,69.5V29.3c0-.54.36-.9.9-.9h14.46c8.82,0,14.94,4.62,14.94,16.2v9c0,13.5-7.38,16.8-14.7,16.8h-14.7c-.54,0-.9-.36-.9-.9ZM193.04,57.26v-15.6c0-3.36-1.8-5.76-5.64-5.76h-6.06v26.7h6.3c4.32,0,5.4-1.5,5.4-5.34Z"/>
    <path class="cls-5" d="M208.46,69.5V29.3c0-.54.36-.9.9-.9h14.46c8.82,0,14.94,4.62,14.94,16.2v9c0,13.5-7.38,16.8-14.7,16.8h-14.7c-.54,0-.9-.36-.9-.9ZM229.46,57.26v-15.6c0-3.36-1.8-5.76-5.64-5.76h-6.06v26.7h6.3c4.32,0,5.4-1.5,5.4-5.34Z"/>
    <path class="cls-5" d="M241.53,28.4h7.68c.54,0,1.02.36,1.2.84l6.54,17.22,5.64-17.22c.18-.48.66-.84,1.2-.84h6.96c.54,0,.78.36.6.84l-10.5,27.48v12.78c0,.54-.36.9-.9.9h-7.2c-.54,0-.9-.36-.9-.9v-12.36l-10.92-27.9c-.18-.48.06-.84.6-.84Z"/>
  </g>
  <g>
    <rect class="cls-6" x="166.53" y="22.02" width="36.88" height="53.31" transform="translate(-3.3 14.93) rotate(-4.58)"/>
    <ellipse class="cls-2" cx="186.02" cy="61.79" rx="10.41" ry="6.89" transform="translate(-4.34 15.06) rotate(-4.58)"/>
    <g>
      <path class="cls-1" d="M189.17,35.12c-.86.07-1.35.4-1.93,1.05-.26.31.91.92,1.83.85,1.02-.08,1.89-.73,2.41-1.89-.98.11-1.57-.07-2.31,0ZM189.24,36.81c-.38.03-.79-.32-.82-.7-.03-.41.32-.86.7-.89.45-.04.86.35.89.76.03.38-.32.79-.77.83Z"/>
      <path class="cls-1" d="M180.4,44.37c1.34,1.08,2.94,1.49,4.5,1.37,1.56-.12,3.07-.79,4.22-2.07-1.31.84-2.79,1.18-4.28,1.3s-3.01.02-4.44-.61Z"/>
      <path class="cls-1" d="M181.06,36.66c-.68-.55-1.22-.8-2.08-.73-.73.06-1.29.33-2.28.37.69,1.07,1.66,1.56,2.68,1.48.92-.07,1.98-.86,1.67-1.13ZM178.3,36.92c-.03-.41.32-.86.76-.89.38-.03.8.35.83.77.03.38-.32.79-.7.82-.45.04-.86-.32-.89-.7Z"/>
      <path class="cls-1" d="M183.41,28.05c-5.85.47-10.19,5.56-9.71,11.44.47,5.85,5.55,10.15,11.41,9.68,5.85-.47,10.22-5.53,9.75-11.38-.47-5.89-5.59-10.22-11.44-9.75ZM178.29,31.67c1.64-1.12,3.25-1.44,5.38-1.23,2.07-.55,3.71-.49,5.5.36.16.05.27.2.29.39.02.25-.18.5-.44.52-.1,0-.16-.02-.23-.05-1.63-.73-3.01-.82-4.92-.25h-.13s-.1.02-.13.02c-1.97-.26-3.33.04-4.82,1.03-.06.04-.12.07-.22.08-.25.02-.5-.18-.52-.44-.02-.19.07-.36.22-.43ZM187.62,39.76c.25-.05.55.12.58.43.02.25-.16.46-.38.51-.63.15-.97.27-1.36.59-.3.25-.81.71-1.86.79s-1.62-.29-1.96-.48c-.44-.25-.79-.32-1.44-.37-.23-.01-.43-.19-.45-.44-.03-.32.25-.53.5-.52.71.04,1.26.16,1.9.52.34.2.64.4,1.37.34s1-.3,1.3-.55c.57-.46,1.1-.66,1.79-.82ZM175.55,36.15c-.16-.37,0-.74.55-.78,1.25.06,1.67-.29,2.82-.39s1.97.26,2.73.93c1.23.99-.36,2.69-2.17,2.83-1.62.13-3.1-.78-3.92-2.6ZM191.41,41.47c-1.11,3.35-3.7,4.97-6.4,5.22h-.03s-.06,0-.06,0c-2.68.18-5.49-1-7.12-4.14-.45-.8.46-1.41.94-.68,1.66,1.98,3.77,2.32,6.03,2.14s4.29-.86,5.61-3.08c.35-.8,1.35-.33,1.03.53ZM189.14,37.97c-1.81.15-3.66-1.28-2.6-2.45.64-.79,1.44-1.27,2.55-1.36s1.62.19,2.84-.07c.54-.04.76.29.66.68-.52,1.93-1.84,3.06-3.46,3.19Z"/>
      <path class="cls-3" d="M183.15,40.79c-.64-.37-1.19-.48-1.9-.52-.26-.01-.53.2-.5.52.02.25.23.43.45.44.64.04,1,.11,1.44.37.34.2.91.57,1.96.48s1.56-.54,1.86-.79c.39-.32.73-.44,1.36-.59.22-.05.4-.26.38-.51-.03-.32-.33-.49-.58-.43-.69.15-1.22.35-1.79.82-.3.25-.57.49-1.3.55s-1.04-.14-1.37-.34Z"/>
      <path class="cls-8" d="M178.59,32.54c.1,0,.16-.04.22-.08,1.49-.98,2.84-1.28,4.82-1.03h.13s.1-.02.13-.02c1.91-.57,3.29-.49,4.92.25.07.03.13.05.23.05.25-.02.46-.26.44-.52-.02-.19-.12-.34-.29-.39-1.8-.85-3.44-.91-5.5-.36-2.13-.21-3.74.11-5.38,1.23-.15.08-.24.24-.22.43.02.25.26.46.52.44Z"/>
      <path d="M179.89,36.79c-.03-.41-.45-.8-.83-.77-.45.04-.79.48-.76.89.03.38.44.73.89.7.38-.03.73-.44.7-.82Z"/>
      <path d="M189.11,35.22c-.38.03-.73.47-.7.89.03.38.44.73.82.7.45-.04.8-.45.77-.83-.03-.41-.45-.8-.89-.76Z"/>
      <path d="M183.3,26.62c-6.62.53-11.56,6.34-11.03,12.99.53,6.62,6.34,11.53,12.95,11s11.6-6.31,11.07-12.93-6.37-11.59-12.99-11.06ZM185.11,49.18c-5.85.47-10.94-3.83-11.41-9.68-.47-5.89,3.86-10.97,9.71-11.44,5.85-.47,10.97,3.86,11.44,9.75.47,5.85-3.9,10.91-9.75,11.38Z"/>
      <path class="cls-4" d="M191.94,34.1c-1.23.26-1.7-.02-2.84.07s-1.91.57-2.55,1.36c-1.06,1.17.78,2.59,2.6,2.45,1.62-.13,2.94-1.26,3.46-3.19.1-.39-.12-.73-.66-.68ZM189.06,37.02c-.92.07-2.09-.54-1.83-.85.59-.66,1.07-.98,1.93-1.05.73-.06,1.32.12,2.31,0-.52,1.16-1.39,1.81-2.41,1.89Z"/>
      <path class="cls-3" d="M190.37,40.95c-1.33,2.22-3.35,2.89-5.61,3.08s-4.37-.16-6.03-2.14c-.47-.73-1.39-.11-.94.68,1.63,3.14,4.44,4.32,7.12,4.14h.06s.03,0,.03,0c2.7-.25,5.29-1.87,6.4-5.22.32-.86-.68-1.32-1.03-.53ZM184.9,45.74c-1.56.12-3.16-.29-4.5-1.37,1.43.62,2.94.73,4.44.61s2.97-.46,4.28-1.3c-1.15,1.28-2.66,1.94-4.22,2.07Z"/>
      <path class="cls-4" d="M181.64,35.91c-.76-.68-1.62-1.02-2.73-.93s-1.57.45-2.82.39c-.54.04-.7.41-.55.78.82,1.82,2.3,2.73,3.92,2.6,1.81-.15,3.41-1.84,2.17-2.83ZM176.71,36.31c.99-.05,1.54-.32,2.28-.37.86-.07,1.39.18,2.08.73.31.26-.75,1.05-1.67,1.13-1.02.08-1.99-.42-2.68-1.48Z"/>
    </g>
    <circle class="cls-8" cx="185.87" cy="59.87" r="3.15"/>
  </g>
  <g>
    <rect class="cls-6" x="205.28" y="23.62" width="36.88" height="53.31" transform="translate(3.5 -13.6) rotate(3.51)"/>
    <ellipse class="cls-2" cx="222.92" cy="63.41" rx="6.89" ry="10.41" transform="translate(145.98 282.03) rotate(-86.49)"/>
    <g>
      <path class="cls-1" d="M229.78,37.45c-.86-.05-1.39.2-2.06.77-.3.27.77,1.04,1.69,1.1,1.02.06,1.98-.45,2.65-1.53-.99-.03-1.55-.29-2.28-.33ZM229.62,39.13c-.38-.02-.74-.43-.72-.81.03-.41.43-.8.82-.78.45.03.8.46.78.88-.02.38-.43.74-.88.71Z"/>
      <path class="cls-1" d="M219.8,45.38c1.17,1.25,2.7,1.89,4.26,1.99,1.56.1,3.16-.35,4.47-1.45-1.41.65-2.93.78-4.42.69s-2.98-.41-4.31-1.22Z"/>
      <path class="cls-1" d="M221.54,37.84c-.6-.64-1.09-.96-1.95-1.02-.73-.04-1.32.14-2.31.05.54,1.15,1.43,1.78,2.45,1.84.92.06,2.08-.58,1.81-.88ZM218.77,37.7c.03-.41.43-.8.88-.78.38.02.74.46.71.88-.02.38-.43.74-.81.72-.45-.03-.8-.43-.78-.82Z"/>
      <path class="cls-1" d="M225.08,29.65c-5.86-.36-10.87,4.07-11.23,9.96s4.07,10.83,9.93,11.19c5.86.36,10.9-4.03,11.26-9.89s-4.1-10.9-9.96-11.26ZM219.5,32.5c1.78-.88,3.42-.97,5.5-.46,2.13-.25,3.74.04,5.4,1.13.16.07.24.24.23.43-.02.25-.25.46-.51.45-.1,0-.16-.04-.22-.08-1.51-.96-2.87-1.23-4.84-.94h-.13s-.1-.01-.13-.02c-1.92-.53-3.3-.43-4.91.34-.07.03-.13.06-.23.05-.25-.02-.46-.25-.45-.51.01-.19.12-.34.28-.4ZM227.6,41.82c.26-.02.53.19.51.51-.02.25-.22.43-.44.45-.64.06-1,.13-1.43.39-.33.2-.9.58-1.95.52s-1.57-.51-1.87-.75c-.4-.31-.74-.43-1.37-.56-.22-.05-.4-.25-.38-.5.02-.32.32-.49.57-.44.7.14,1.23.33,1.81.78.3.24.58.48,1.31.53s1.03-.16,1.37-.36c.63-.38,1.18-.5,1.89-.56ZM216.15,36.55c-.1-.39.11-.73.65-.7,1.23.24,1.7-.06,2.85.01s1.92.53,2.57,1.31c1.08,1.15-.74,2.61-2.55,2.5-1.62-.1-2.96-1.21-3.52-3.13ZM231.11,44.05c-1.57,3.17-4.36,4.4-7.07,4.27h-.03s-.06,0-.06,0c-2.67-.2-5.3-1.76-6.47-5.1-.33-.85.66-1.33,1.02-.54,1.37,2.19,3.41,2.83,5.67,2.97,2.26.14,4.36-.24,5.99-2.25.46-.74,1.38-.14.95.67ZM229.36,40.27c-1.82-.11-3.44-1.78-2.23-2.79.75-.69,1.6-1.05,2.71-.98s1.57.42,2.83.33c.54.03.71.4.56.77-.78,1.84-2.25,2.77-3.87,2.67Z"/>
      <path class="cls-3" d="M223.03,42.22c-.58-.45-1.11-.64-1.81-.78-.25-.05-.55.13-.57.44-.02.25.16.46.38.5.63.13.98.25,1.37.56.3.24.82.69,1.87.75s1.62-.32,1.95-.52c.43-.26.79-.34,1.43-.39.22-.02.43-.2.44-.45.02-.32-.26-.53-.51-.51-.71.05-1.26.18-1.89.56-.33.2-.63.41-1.37.36s-1.01-.29-1.31-.53Z"/>
      <path class="cls-8" d="M219.67,33.41c.1,0,.16-.02.23-.05,1.61-.76,3-.87,4.91-.34h.13s.1.01.13.02c1.97-.29,3.33-.02,4.84.94.06.04.12.07.22.08.25.02.49-.19.51-.45.01-.19-.07-.36-.23-.43-1.66-1.09-3.27-1.38-5.4-1.13-2.08-.51-3.72-.42-5.5.46-.16.05-.27.21-.28.4-.02.25.19.49.45.51Z"/>
      <path d="M220.36,37.8c.03-.41-.33-.85-.71-.88-.45-.03-.85.36-.88.78-.02.38.34.79.78.82.38.02.79-.34.81-.72Z"/>
      <path d="M229.71,37.54c-.38-.02-.79.37-.82.78-.02.38.34.79.72.81.45.03.85-.33.88-.71.03-.41-.33-.85-.78-.88Z"/>
      <path d="M225.17,28.21c-6.63-.41-12.34,4.65-12.75,11.31-.41,6.63,4.65,12.31,11.28,12.72s12.37-4.61,12.78-11.24c.41-6.66-4.68-12.37-11.3-12.78ZM223.78,50.8c-5.86-.36-10.29-5.33-9.93-11.19s5.37-10.32,11.23-9.96,10.32,5.37,9.96,11.26-5.39,10.25-11.26,9.89Z"/>
      <path class="cls-4" d="M232.67,36.83c-1.25.08-1.68-.26-2.83-.33s-1.97.29-2.71.98c-1.21,1.01.41,2.68,2.23,2.79,1.62.1,3.09-.83,3.87-2.67.15-.37-.02-.74-.56-.77ZM229.41,39.31c-.92-.06-2-.83-1.69-1.1.67-.57,1.2-.82,2.06-.77.73.04,1.29.3,2.28.33-.67,1.08-1.63,1.59-2.65,1.53Z"/>
      <path class="cls-3" d="M230.16,43.39c-1.63,2.01-3.73,2.39-5.99,2.25-2.26-.14-4.3-.78-5.67-2.97-.37-.79-1.36-.31-1.02.54,1.17,3.33,3.79,4.9,6.47,5.1h.06s.03,0,.03,0c2.71.13,5.5-1.1,7.07-4.27.43-.8-.49-1.41-.95-.67ZM224.06,47.36c-1.56-.1-3.09-.73-4.26-1.99,1.32.82,2.81,1.13,4.31,1.22s3.01-.04,4.42-.69c-1.31,1.1-2.91,1.55-4.47,1.45Z"/>
      <path class="cls-4" d="M222.22,37.18c-.66-.78-1.46-1.24-2.57-1.31s-1.61.22-2.85-.01c-.54-.03-.75.31-.65.7.55,1.92,1.89,3.03,3.52,3.13,1.82.11,3.63-1.34,2.55-2.5ZM217.28,36.88c.99.09,1.57-.1,2.31-.05.86.05,1.35.37,1.95,1.02.27.3-.89.94-1.81.88-1.02-.06-1.91-.69-2.45-1.84Z"/>
    </g>
    <circle class="cls-8" cx="223.03" cy="61.49" r="3.15"/>
  </g>
</svg>