<?xml version="1.0" encoding="UTF-8"?>
<svg id="Layer_1" data-name="Layer 1" xmlns="http://www.w3.org/2000/svg" viewBox="0 0 360 100">
  <defs>
    <style>
      .cls-1 {
        fill: #37f;
      }

      .cls-2 {
        fill: #fff;
      }
    </style>
  </defs>
  <rect class="cls-1" y="0" width="360" height="100"/>
  <g>
    <path class="cls-2" d="M56.31,61.93v-10.95h5.11v-5.48h-5.11v-10.95h41.51v10.22l-21.79-.73v2.37l17.45-.62v4.38l-17.45-.66v2.55l22.89-1.09v10.95h-42.6Z"/>
    <path class="cls-2" d="M101.1,61.93v-12.41l14.2.47-3.58-3.76-10.37,1.1v-12.78h19.79l5.22,5.4,1.39-5.4h18.25v12.05l-13.69-.47,3.47,3.58,10.66-.73v12.96h-19.89l-5.7-6.02-1.5,6.02h-18.25Z"/>
    <path class="cls-2" d="M157.03,61.93v-10.95h7.3v-7.48h-2.55l1.09,5.84h-14.24v-14.79h46v14.79h-14.24l1.09-5.84h-2.56v7.48h7.3v10.95h-29.2Z"/>
    <path class="cls-2" d="M196.82,61.93v-10.95h5.11v-5.48h-5.11v-10.95h36.98c3.84,0,6.7.55,8.58,1.66,1.87,1.11,2.81,2.93,2.81,5.46,0,1.34-.27,2.52-.8,3.54-.54,1.02-1.44,1.85-2.7,2.48s-2.98,1.03-5.15,1.2l3.58,3.43,6.17-.73v10.33h-17.6l-4.64-6.72v6.72h-27.23ZM216.53,44.04v2.19h10.88v-2.19l-5.44.73-5.44-.73ZM216.53,50.8v2.37l5.7-.55-1.24-1.83h-4.45Z"/>
    <path class="cls-2" d="M254.28,34.55h27.67l14.31,16.43h5.4v10.95h-28.14v-10.95l7.12.73v-2.19h-16.43v2.19l7.12-.73v10.95h-22.85v-10.95h5.15l6.35-5.48h-5.7v-10.95Z"/>
  </g>
  <g>
    <polygon points="274.29 30.35 276.79 29.73 275.44 27.52 278.02 27.45 277.27 24.98 279.75 25.65 279.8 23.08 281.96 24.49 282.77 22.05 284.47 24 285.83 21.81 287.1 24.06 288.81 22.13 289.75 24.53 291.69 22.83 292.37 25.32 294.49 23.84 294.86 26.4 297.16 25.23 297.1 27.81 299.59 27.13 298.92 29.62 301.5 29.63 300.12 31.8 302.56 32.62 300.57 34.27 302.68 35.75 300.34 36.84 302.08 38.75 299.57 39.38 300.92 41.58 298.34 41.67 299.09 44.14 296.6 43.47 296.54 46.05 294.39 44.63 293.56 47.07 291.87 45.11 290.49 47.29 289.23 45.04 287.5 46.96 286.56 44.55 284.61 46.25 283.94 43.76 281.83 45.25 281.46 42.69 279.15 43.86 279.22 41.28 276.73 41.96 277.4 39.48 274.83 39.46 276.22 37.29 273.78 36.46 275.78 34.83 273.68 33.34 276.02 32.26 274.29 30.35"/>
    <g>
      <path class="cls-2" d="M283.63,33.2c-.48-.14-.86-.38-1.16-.71-.3-.33-.49-.73-.57-1.19-.08-.46-.04-.95.12-1.48.15-.51.39-.93.71-1.26.32-.33.7-.56,1.13-.67.43-.11.89-.1,1.36.05.48.14.87.38,1.16.72.3.33.48.73.57,1.18.08.46.05.94-.11,1.45-.16.53-.4.96-.72,1.3-.32.34-.7.56-1.13.67-.43.11-.88.09-1.36-.05ZM283.92,32.25c.17.05.31.08.43.08.12,0,.22-.05.31-.14.09-.09.18-.25.27-.48.09-.22.2-.53.31-.92.12-.38.2-.69.24-.92.04-.23.05-.4.03-.53-.02-.13-.08-.22-.18-.29-.1-.06-.23-.12-.4-.17-.17-.05-.31-.08-.43-.08-.12,0-.22.04-.31.14s-.18.25-.27.46c-.09.21-.19.51-.31.9-.12.39-.2.7-.25.94-.05.23-.06.42-.04.55.02.13.08.23.18.29.1.06.23.12.4.17Z"/>
      <path class="cls-2" d="M288.84,34.77c-.7-.21-1.18-.57-1.47-1.08-.28-.51-.31-1.15-.07-1.92l.87-2.88,1.59.48-1.06,3.5c-.05.16-.07.3-.07.42,0,.11.05.21.13.28.08.08.21.14.37.19.18.05.33.07.44.06.11-.02.2-.07.27-.16.07-.09.12-.22.17-.38l1.06-3.5,1.43.43-.87,2.87c-.24.78-.6,1.3-1.09,1.57-.49.27-1.06.31-1.71.11Z"/>
      <path class="cls-2" d="M292.52,35.81l1.25-4.12-1.12-.34.3-1,3.72,1.12-.3,1-1.12-.34-1.25,4.12-1.47-.44Z"/>
      <path class="cls-2" d="M279.77,37.67l1.27-4.21,1.12.34.71,2.42.06.02.61-2.02,1.09.33-1.27,4.21-1.12-.34-.71-2.43-.06-.02-.61,2.03-1.09-.33Z"/>
      <path class="cls-2" d="M285.81,39.56c-.4-.12-.72-.32-.97-.59-.25-.27-.41-.6-.47-.98s-.04-.79.1-1.23c.13-.42.32-.77.59-1.04.26-.27.58-.45.93-.54.36-.09.73-.08,1.13.04.4.12.72.32.97.59s.4.6.47.97c.07.37.04.77-.09,1.19-.13.44-.33.8-.6,1.08-.27.28-.58.46-.93.55s-.73.07-1.13-.05ZM286.06,38.74c.13.04.23.06.32.06s.16-.04.23-.11c.07-.08.14-.2.21-.38.07-.18.15-.43.25-.75.09-.31.16-.55.2-.73.04-.18.05-.32.04-.42-.01-.1-.06-.17-.13-.22s-.17-.09-.3-.13c-.13-.04-.23-.06-.32-.06-.08,0-.16.04-.23.11-.07.07-.13.2-.2.37-.07.17-.15.41-.24.72-.1.32-.17.57-.21.76-.04.19-.06.33-.04.43.01.1.06.17.13.22.07.05.17.09.3.13Z"/>
      <path class="cls-2" d="M288.93,40.44l.14-4.56,1.39.42-.12,2.25.06.02,1.13-1.94,1.1.33-.03,2.28.06.02,1.05-1.97,1.13.34-2.32,3.9-1.24-.37v-2.28s-.07-.02-.07-.02l-1.22,1.91-1.06-.32Z"/>
    </g>
  </g>
</svg>