<?xml version="1.0" encoding="UTF-8"?>
<svg id="Layer_1" data-name="Layer 1" xmlns="http://www.w3.org/2000/svg" viewBox="0 0 1210 3677">
  <defs>
    <style>
      .cls-1 {
        fill: #37f;
      }

      .cls-2 {
        fill: #fff;
      }
    </style>
  </defs>
  <g>
    <path d="M350,1486.17h119.95l62.03,71.21h23.42v47.47h-122.01v-47.47l30.86,3.17v-9.49h-71.21v9.49l30.86-3.17v47.47h-99.06v-47.47h22.31l27.53-23.74h-24.69v-47.47Z"/>
    <path d="M726.14,1604.86h-161.25v-47.47h22.15v-23.74h-22.15v-47.47h151.76c9.18,0,17.19,1.11,24.05,3.32,6.86,2.22,12.19,5.46,15.98,9.73s5.7,9.52,5.7,15.75c.1,13.61-7.86,21.68-23.9,24.21v1.58c12.87.95,22.36,4.01,28.48,9.18,6.12,5.17,9.18,12.4,9.18,21.68,0,6.75-1.66,12.61-4.98,17.57-3.32,4.96-8.65,8.81-15.98,11.55-7.33,2.74-17.01,4.11-29.04,4.11ZM650.34,1535.23h43.68v-9.49l-21.84,3.17-21.84-3.17v9.49ZM650.34,1565.29l24.69-3.16,24.69,3.16v-9.49h-49.37v9.49Z"/>
    <path d="M959.87,1593.78c-14.35,4.11-28.67,7.23-42.96,9.34-14.3,2.11-29.46,3.22-45.5,3.32-21.84.1-39.67-2.56-53.49-7.99-13.82-5.43-23.97-13-30.46-22.71-6.49-9.7-9.73-20.89-9.73-33.55,0-19.31,5.51-33.71,16.54-43.2,11.02-9.5,26.24-14.24,45.65-14.24,10.55,0,19.57,1.32,27.06,3.96,7.49,2.64,13.85,6.33,19.07,11.08,5.22,4.75,9.57,10.34,13.06,16.77h1.58v-30.38h55.39v54.59h-111.09v11.87l111.56-6.33,3.32,47.47Z"/>
    <path d="M969.36,1604.86v-47.47h22.15v-23.74h-22.15v-47.47h119c17.3,0,31.81,1.35,43.52,4.04,11.71,2.69,21.07,6.59,28.09,11.71,7.01,5.12,12.05,11.34,15.11,18.67,3.06,7.33,4.59,15.64,4.59,24.92s-1.53,17.59-4.59,24.92c-3.06,7.33-8.1,13.56-15.11,18.67-7.02,5.12-16.38,9.02-28.09,11.71s-26.22,4.04-43.52,4.04h-119ZM1054.81,1551.05l28.8-3.17,28.8,3.17v-14.24l-28.8,3.17-28.8-3.17v14.24Z"/>
    <path d="M33.5,1732.85v-47.47h22.15v-23.74h-22.15v-47.47h179.92v44.31l-94.47-3.17v10.29l75.64-2.69v18.99l-75.64-2.85v11.08l99.22-4.75v47.47H33.5Z"/>
    <path d="M227.66,1732.85v-47.47h22.15v-23.74h-22.15v-47.47h179.61v46.68l-94.16-3.17v10.29l70.42-2.06v18.67l-70.42-2.37v11.08l30.54-3.16v42.73h-115.99Z"/>
    <path d="M468.19,1734.43c-7.7,0-15.03-1.27-22-3.8-6.96-2.53-13.13-6.2-18.51-11-5.38-4.8-9.6-10.68-12.66-17.64-3.06-6.96-4.59-14.88-4.59-23.74,0-13.29,3.4-24.87,10.21-34.73,6.8-9.86,17.57-17.49,32.28-22.87,14.72-5.38,33.94-8.07,57.68-8.07,8.65,0,16.43.13,23.34.4,6.91.26,13.48.66,19.7,1.19,6.22.53,12.63,1.19,19.23,1.98,6.59.79,13.9,1.77,21.92,2.93v46.84h-117.1v11.87l122.32-8.23v63.3h-63.3v-31.97h-1.58c-5.17,10.44-13.21,18.65-24.13,24.61-10.92,5.96-25.19,8.94-42.8,8.94Z"/>
    <path d="M609.5,1732.85v-47.47h22.15v-23.74h-22.15v-47.47h109.66v40.67l-24.21-3.17v9.5h57.92v-9.5l-24.21,3.17v-40.67h109.66v47.47h-22.15v23.74h22.15v47.47h-109.66v-42.09l24.21,3.17v-9.5h-57.92v9.5l24.21-3.17v42.09h-109.66Z"/>
    <path d="M847.82,1732.85v-47.47h22.15v-23.74h-22.15v-47.47h107.61v47.47h-22.15v23.74h22.15v47.47h-107.61Z"/>
    <path d="M33.5,1852.77l3.16-50.32,75.01,3.96v-12.03H39.35v-52.22h135.77v53.8c0,23.21-6.73,40.35-20.18,51.43s-32.63,16.62-57.52,16.62c-8.65,0-16.51-.34-23.58-1.03-7.07-.69-13.82-1.85-20.26-3.48-6.44-1.63-13.13-3.88-20.1-6.73Z"/>
    <path d="M184.62,1860.84v-47.47h22.15v-23.74h-22.15v-47.47h111.72v42.25l-26.27-1.74v10.13l63.3-6.96v-10.13l-27.53,7.75v-41.3h92.26v47.47h-41.14l26.27,26.74,27.69-3.01v47.47h-86.88l-21.36-29.75v29.75h-118.05ZM270.07,1812.58v10.29l25-2.37-5.7-7.91h-19.31Z"/>
    <path d="M420.4,1860.84v-47.47h22.15v-23.74h-22.15v-47.47h106.81v47.47h-21.36v23.74h33.86l-3.17-28.17h63.3v75.64h-179.45Z"/>
    <path class="cls-1" d="M744.18,1860.84v-47.47h22.15v-23.74h-22.15v-47.47h104.12l24.53,33.55h1.58l24.53-33.55h88.46v47.47h-22.15v23.74h22.15v47.47h-109.5v-36.08l-22.95,30.07h-1.58l-21.84-29.27v35.29h-87.35ZM807.48,1795.33v25.32l19.15-1.74-17.56-23.58h-1.58ZM900.37,1795.33l-17.88,23.58,19.46,1.74v-25.32h-1.58Z"/>
    <path class="cls-1" d="M996.9,1860.84v-47.47h22.15v-23.74h-22.15v-47.47h179.61v46.68l-94.16-3.17v10.29l70.42-2.06v18.67l-70.42-2.37v11.08l30.54-3.16v42.73h-115.99Z"/>
    <path class="cls-1" d="M33.5,1988.84v-47.47h22.15v-23.74h-22.15v-47.47h97.48l28.96,29.28v-29.28h96.85v47.47h-20.57v71.21h-75.32l-28.96-28.33v28.33H33.5ZM96.79,1927.75v19.78l20.1-1.74-18.51-18.04h-1.58ZM193.48,1933.45h1.58v-19.78l-19.46,1.74,17.88,18.04Z"/>
    <path class="cls-1" d="M259.94,1928.7c0-8.86,1.79-16.96,5.38-24.29,3.58-7.33,9.34-13.69,17.25-19.07,7.91-5.38,18.33-9.52,31.25-12.42,12.92-2.9,28.77-4.35,47.55-4.35s34.63,1.45,47.55,4.35c12.92,2.9,23.34,7.04,31.25,12.42,7.91,5.38,13.66,11.74,17.25,19.07,3.58,7.33,5.38,15.43,5.38,24.29s-1.8,17.38-5.38,24.92c-3.59,7.54-9.34,14.06-17.25,19.54-7.91,5.49-18.33,9.73-31.25,12.74-12.92,3.01-28.78,4.51-47.55,4.51s-34.63-1.5-47.55-4.51c-12.92-3.01-23.34-7.25-31.25-12.74-7.91-5.48-13.66-12-17.25-19.54-3.59-7.54-5.38-15.85-5.38-24.92ZM327.2,1935.51l34.18-3.17,34.18,3.17v-14.24l-34.18,3.17-34.18-3.17v14.24Z"/>
    <path class="cls-1" d="M469.14,1988.84v-47.47h22.15v-23.74h-22.15v-47.47h160.3c16.67,0,29.06,2.4,37.19,7.2,8.12,4.8,12.18,12.69,12.18,23.66,0,5.8-1.16,10.92-3.48,15.35-2.32,4.43-6.23,8.02-11.71,10.76-5.49,2.74-12.92,4.48-22.31,5.22l15.51,14.88,26.74-3.17v44.78h-76.27l-20.1-29.12v29.12h-118.05ZM554.59,1911.3v9.5h47.16v-9.5l-23.58,3.17-23.58-3.17ZM554.59,1940.57v10.29l24.69-2.37-5.38-7.91h-19.31Z"/>
    <path class="cls-1" d="M693.05,1988.84v-47.47h22.15v-23.74h-22.15v-47.47h104.12l24.53,33.55h1.58l24.53-33.55h88.46v47.47h-22.15v23.74h22.15v47.47h-109.5v-36.08l-22.95,30.07h-1.58l-21.84-29.27v35.29h-87.35ZM756.35,1923.32v25.32l19.15-1.74-17.56-23.58h-1.58ZM849.24,1923.32l-17.88,23.58,19.46,1.74v-25.32h-1.58Z"/>
    <path class="cls-1" d="M970.93,1870.15h119.95l62.03,71.21h23.42v47.47h-122.01v-47.47l30.86,3.17v-9.49h-71.21v9.49l30.86-3.17v47.47h-99.06v-47.47h22.31l27.53-23.74h-24.69v-47.47Z"/>
    <path class="cls-1" d="M152.02,1998.15v47.47l-31.97-3.17v9.5h73.43v-9.5l-31.97,3.17v-47.47h88.93v47.47h-20.41l-51.75,71.21h-73.43l-51.11-71.21h-20.25v-47.47h118.52Z"/>
    <path class="cls-1" d="M259.79,1998.15h119.95l62.03,71.21h23.42v47.47h-122.01v-47.47l30.86,3.17v-9.49h-71.21v9.49l30.86-3.17v47.47h-99.06v-47.47h22.31l27.53-23.74h-24.69v-47.47Z"/>
    <path class="cls-1" d="M88.09,2246.41c-7.7,0-15.03-1.27-22-3.8-6.96-2.53-13.13-6.2-18.51-11-5.38-4.8-9.6-10.68-12.66-17.64-3.06-6.96-4.59-14.88-4.59-23.74,0-13.29,3.4-24.87,10.21-34.73,6.8-9.86,17.57-17.49,32.28-22.87,14.72-5.38,33.94-8.07,57.68-8.07,8.65,0,16.43.13,23.34.4,6.91.26,13.48.66,19.7,1.19,6.22.53,12.63,1.19,19.23,1.98,6.59.79,13.9,1.77,21.92,2.93v46.84h-117.1v11.87l122.32-8.23v63.3h-63.3v-31.97h-1.58c-5.17,10.44-13.21,18.65-24.13,24.61-10.92,5.96-25.19,8.94-42.8,8.94Z"/>
    <path class="cls-1" d="M254.56,2126.14h119.95l62.03,71.21h23.42v47.47h-122.01v-47.47l30.86,3.17v-9.49h-71.21v9.49l30.86-3.17v47.47h-99.06v-47.47h22.31l27.53-23.74h-24.69v-47.47Z"/>
    <path class="cls-1" d="M469.46,2244.82v-47.47h22.15v-23.74h-22.15v-47.47h97.48l28.96,29.28v-29.28h96.85v47.47h-20.57v71.21h-75.32l-28.96-28.33v28.33h-98.43ZM532.75,2183.74v19.78l20.1-1.74-18.51-18.04h-1.58ZM629.44,2189.44h1.58v-19.78l-19.46,1.74,17.88,18.04Z"/>
    <path class="cls-1" d="M878.52,2244.82h-182.61v-47.47l57.76-17.41h-51.43v-53.8h169.95v47.47l-46.84,14.24h53.17v56.97ZM760.78,2164.12l4.91,12.18,35.29-10.6v-1.58h-40.19ZM773.44,2205.26h48.11l-5.38-14.56-42.73,12.98v1.58Z"/>
    <path class="cls-1" d="M913.17,2126.14h119.95l62.03,71.21h23.42v47.47h-122.01v-47.47l30.86,3.17v-9.49h-71.21v9.49l30.86-3.17v47.47h-99.06v-47.47h22.31l27.53-23.74h-24.69v-47.47Z"/>
    <path d="M367.88,2372.82v-47.47h22.15v-23.74h-22.15v-47.47h136.41c15.72,0,28.11,1.5,37.19,4.51,9.07,3.01,15.51,7.31,19.31,12.9,3.8,5.59,5.7,12.34,5.7,20.25,0,6.86-1.9,12.74-5.7,17.64s-10.23,8.65-19.31,11.24c-9.07,2.59-21.47,3.88-37.19,3.88h-50.16v9.5l32.92-3.17v41.93h-119.16ZM502.39,2304.77v-9.5l-24.84,3.17-24.21-3.17v9.5h49.06Z"/>
    <path d="M569.64,2312.68c0-8.86,1.79-16.96,5.38-24.29,3.58-7.33,9.34-13.69,17.25-19.07,7.91-5.38,18.33-9.52,31.25-12.42,12.92-2.9,28.77-4.35,47.55-4.35s34.63,1.45,47.55,4.35c12.92,2.9,23.34,7.04,31.25,12.42,7.91,5.38,13.66,11.74,17.25,19.07,3.58,7.33,5.38,15.43,5.38,24.29,0,9.71-2.06,18.54-6.17,26.51-4.11,7.97-10.79,14.72-20.02,20.25-9.23,5.54-21.5,9.57-36.79,12.11l5.38,17.56h-87.67l5.38-17.56c-15.3-2.53-27.56-6.57-36.79-12.11-9.23-5.54-15.9-12.29-20.02-20.25-4.11-7.96-6.17-16.8-6.17-26.51ZM636.9,2319.49l34.18-3.17,34.18,3.17v-14.24l-34.18,3.17-34.18-3.17v14.24Z"/>
    <path d="M778.84,2372.82v-47.47h22.15v-23.74h-22.15v-47.47h160.3c16.67,0,29.06,2.4,37.19,7.2,8.12,4.8,12.18,12.69,12.18,23.66,0,5.8-1.16,10.92-3.48,15.35-2.32,4.43-6.23,8.02-11.71,10.76-5.49,2.74-12.92,4.48-22.31,5.22l15.51,14.88,26.74-3.17v44.78h-76.27l-20.1-29.12v29.12h-118.05ZM864.29,2295.28v9.5h47.16v-9.5l-23.58,3.17-23.58-3.17ZM864.29,2324.55v10.29l24.69-2.37-5.38-7.91h-19.31Z"/>
    <path d="M1070.32,2307.15l31.49-3.8c17.62-2.11,32.18-2,43.68.32,11.5,2.32,20.07,6.33,25.71,12.03,5.64,5.7,8.47,12.61,8.47,20.73,0,9.92-3.24,17.7-9.73,23.34-6.49,5.64-16.17,9.6-29.04,11.87-12.87,2.27-28.8,3.4-47.79,3.4-18.89-.11-35.82-.9-50.8-2.37-14.98-1.48-29.22-3.53-42.73-6.17l3.64-42.09,104.44,9.65v-10.29h-42.57c-20.99,0-36.85-2.56-47.55-7.67-10.71-5.12-16.06-13.95-16.06-26.51,0-11.81,4.43-20.94,13.29-27.38,8.86-6.43,22.84-9.65,41.93-9.65,10.34,0,19.23,1.08,26.66,3.24,7.44,2.16,13.87,5.28,19.31,9.34,5.43,4.06,10.21,8.94,14.32,14.64h1.58v-25.64h49.06v42.73h-97.32v10.29Z"/>
    <path d="M69.89,2500.81v-47.47h31.65v-32.44h-11.08l4.75,25.32h-61.71v-64.09h199.39v64.09h-61.72l4.75-25.32h-11.08v32.44h31.65v47.47h-126.6Z"/>
    <path d="M242.38,2429.6v-47.47h86.72l-4.43,68.2h15.98l-4.43-68.2h87.03v47.47h-15.19l.16.79c3.9,17.83,3.51,32.02-1.19,42.57-4.7,10.55-13.32,18.09-25.87,22.63-12.56,4.54-28.7,6.8-48.42,6.8-14.77,0-27.72-1.27-38.85-3.8-11.13-2.53-20.1-6.62-26.9-12.26-6.8-5.64-11.21-13.05-13.21-22.23-2.01-9.18-1.37-20.46,1.9-33.86l.16-.63h-13.45Z"/>
    <path d="M551.27,2382.13v47.47l-31.97-3.17v9.5h73.43v-9.5l-31.97,3.17v-47.47h88.93v47.47h-20.41l-51.75,71.21h-73.43l-51.11-71.21h-20.25v-47.47h118.52Z"/>
    <path d="M762.84,2382.13v47.47l-30.07-3.17v9.5h66.46v-9.5l-26.9,3.17v-47.47h105.55v47.47l-30.07-3.17v9.5h66.46v-9.5l-26.9,3.17v-47.47h74.69v47.47h-17.41l-31.81,71.21h-78.17l-19.46-40.99h-3.17l-19.46,40.99h-84.03l-31.97-71.21h-17.41v-47.47h103.65Z"/>
    <path d="M33.5,2628.8v-53.8l61.56,2.06-15.51-16.3-44.94,4.75v-55.39h85.77l22.63,23.42,6.01-23.42h79.12v52.22l-59.34-2.06,15.03,15.51,46.21-3.17v56.18h-86.24l-24.69-26.11-6.49,26.11H33.5Z"/>
    <path d="M352.83,2510.12v47.47l-27.53-3.17v9.5h61.24v-9.5l-24.21,3.17v-47.47h85.14v47.47h-12.66l-39.88,27.38,28.33-3.64v47.47h-159.19v-47.47l26.58,3.01-38.45-26.58h-12.66v-47.63h113.3Z"/>
    <path d="M633.24,2628.8h-182.61v-47.47l57.76-17.41h-51.43v-53.8h169.95v47.47l-46.84,14.24h53.17v56.97ZM515.5,2548.1l4.91,12.18,35.29-10.6v-1.58h-40.19ZM528.16,2589.24h48.11l-5.38-14.56-42.73,12.98v1.58Z"/>
  </g>
  <rect class="cls-1" x="-60.78" y="1196.82" width="1331.56" height="265"/>
  <rect class="cls-1" x="-60.78" y="2660.89" width="1331.56" height="1027.35"/>
  <rect width="1210" height="494.32"/>
  <g>
    <path class="cls-2" d="M67.93,502.07v-91.21h60.81v-62.33h-21.28l9.12,48.65H-2v-123.13h383.08v123.13h-118.57l9.12-48.65h-21.28v62.33h60.81v91.21H67.93Z"/>
    <path class="cls-2" d="M399.32,502.07v-91.21h42.56v-45.61h-42.56v-91.21h210.7v78.14l-46.52-6.08v18.24h111.28v-18.24l-46.52,6.08v-78.14h210.7v91.21h-42.56v45.61h42.56v91.21h-210.7v-80.87l46.52,6.08v-18.24h-111.28v18.24l46.52-6.08v80.87h-210.7Z"/>
    <path class="cls-2" d="M857.2,502.07v-91.21h42.56v-45.61h-42.56v-91.21h345.69v85.13l-181.51-6.08v19.76l145.33-5.17v36.48l-145.33-5.47v21.28l190.63-9.12v91.21h-354.81Z"/>
  </g>
  <g>
    <path class="cls-1" d="M17.88,81.61v-26.1h12.18v-13.05h-12.18v-26.1h98.92v24.36l-51.94-1.74v5.66l41.59-1.48v10.44l-41.59-1.57v6.09l54.55-2.61v26.1H17.88Z"/>
    <path class="cls-1" d="M124.63,81.61v-26.1h12.18v-13.05h-12.18v-26.1h57.25l13.48,18.44h.87l13.48-18.44h48.63v26.1h-12.18v13.05h12.18v26.1h-60.2v-19.84l-12.62,16.53h-.87l-12.01-16.09v19.4h-48.02ZM159.43,45.6v13.92l10.53-.96-9.66-12.96h-.87ZM210.5,45.6l-9.83,12.96,10.7.96v-13.92h-.87Z"/>
    <path class="cls-1" d="M263.57,81.61v-26.1h12.18v-13.05h-12.18v-26.1h98.75v25.67l-51.77-1.74v5.66l38.71-1.13v10.27l-38.71-1.31v6.09l16.79-1.74v23.49h-63.77Z"/>
    <path class="cls-1" d="M367.53,81.61v-26.1h12.18v-13.05h-12.18v-26.1h59.16v26.1h-12.18v13.05h12.18v26.1h-59.16Z"/>
    <path class="cls-1" d="M431.91,81.61v-26.1h12.18v-13.05h-12.18v-26.1h98.75v25.67l-51.77-1.74v5.66l38.71-1.13v10.27l-38.71-1.31v6.09l16.79-1.74v23.49h-63.77Z"/>
    <path class="cls-1" d="M555.89,81.61v-26.1h17.4v-17.83h-6.09l2.61,13.92h-33.93V16.36h109.62v35.24h-33.93l2.61-13.92h-6.09v17.83h17.4v26.1h-69.6Z"/>
    <path class="cls-1" d="M713.01,16.36v26.1l-15.14-1.74v5.22h33.67v-5.22l-13.31,1.74v-26.1h46.81v26.1h-6.96l-21.92,15.05,15.57-2v26.1h-87.52v-26.1l14.62,1.65-21.14-14.62h-6.96v-26.19h62.29Z"/>
    <path class="cls-1" d="M770.25,81.61v-26.1h12.18v-13.05h-12.18v-26.1h53.59l15.92,16.1v-16.1h53.24v26.1h-11.31v39.15h-41.41l-15.92-15.57v15.57h-54.11ZM805.06,48.03v10.88l11.05-.96-10.18-9.92h-.87ZM858.21,51.16h.87v-10.88l-10.7.96,9.83,9.92Z"/>
    <path class="cls-1" d="M898.23,81.61v-26.1h12.18v-13.05h-12.18v-26.1h59.16v26.1h-12.18v13.05h12.18v26.1h-59.16Z"/>
    <path class="cls-1" d="M962.61,81.61v-26.1h12.18v-13.05h-12.18v-26.1h53.59l15.92,16.1v-16.1h53.24v26.1h-11.31v39.15h-41.41l-15.92-15.57v15.57h-54.11ZM997.41,48.03v10.88l11.05-.96-10.18-9.92h-.87ZM1050.57,51.16h.87v-10.88l-10.7.96,9.83,9.92Z"/>
    <path class="cls-1" d="M1090.59,81.61v-26.1h12.18v-13.05h-12.18v-26.1h98.92v24.36l-51.94-1.74v5.66l41.59-1.48v10.44l-41.59-1.57v6.09l54.55-2.61v26.1h-101.53Z"/>
  </g>
  <g>
    <path d="M62.39,679.65c-13.32,0-25.99-2.19-38.03-6.57s-22.71-10.71-32.01-19.01c-9.3-8.3-16.6-18.47-21.89-30.5-5.29-12.04-7.93-25.72-7.93-41.04,0-22.98,5.88-43,17.65-60.05,11.76-17.05,30.37-30.23,55.81-39.53,25.44-9.3,58.68-13.95,99.72-13.95,14.95,0,28.41.23,40.35.68,11.94.46,23.3,1.14,34.06,2.05,10.76.91,21.84,2.05,33.24,3.42,11.4,1.37,24.03,3.06,37.89,5.06v80.98H78.81v20.52l211.48-14.23v109.43h-109.43v-55.26h-2.74c-8.94,18.06-22.84,32.24-41.72,42.54-18.88,10.31-43.55,15.46-74,15.46Z"/>
    <path d="M306.7,676.91v-82.08h38.3v-41.04h-38.3v-82.08h186.04v82.08h-38.3v41.04h38.3v82.08h-186.04Z"/>
    <path d="M603.54,679.65c-13.32,0-25.99-2.19-38.03-6.57s-22.71-10.71-32.01-19.01c-9.3-8.3-16.6-18.47-21.89-30.5-5.29-12.04-7.93-25.72-7.93-41.04,0-22.98,5.88-43,17.65-60.05,11.76-17.05,30.37-30.23,55.81-39.53,25.44-9.3,58.68-13.95,99.72-13.95,14.95,0,28.41.23,40.35.68,11.94.46,23.3,1.14,34.06,2.05,10.76.91,21.84,2.05,33.24,3.42,11.4,1.37,24.03,3.06,37.89,5.06v80.98h-202.45v20.52l211.48-14.23v109.43h-109.43v-55.26h-2.74c-8.94,18.06-22.84,32.24-41.72,42.54-18.88,10.31-43.55,15.46-74,15.46Z"/>
    <path d="M891.34,471.73h207.38l107.24,123.11h40.49v82.08h-210.93v-82.08l53.35,5.47v-16.42h-123.11v16.42l53.35-5.47v82.08h-171.26v-82.08h38.58l47.6-41.04h-42.68v-82.08Z"/>
  </g>
  <g>
    <path class="cls-1" d="M65.78,764.72l41.17-4.97c23.03-2.76,42.07-2.62,57.11.41,15.03,3.04,26.24,8.28,33.62,15.72,7.38,7.45,11.07,16.49,11.07,27.11,0,12.97-4.24,23.14-12.72,30.52-8.48,7.38-21.14,12.55-37.97,15.52-16.83,2.96-37.66,4.45-62.49,4.45-24.69-.14-46.83-1.17-66.42-3.1-19.59-1.93-38.21-4.62-55.87-8.07l4.76-55.04,136.56,12.62v-13.45h-55.66c-27.45,0-48.18-3.34-62.18-10.04-14-6.69-21-18.24-21-34.66,0-15.45,5.79-27.38,17.38-35.8,11.59-8.41,29.86-12.62,54.83-12.62,13.52,0,25.14,1.42,34.86,4.24,9.72,2.83,18.14,6.9,25.24,12.21,7.1,5.31,13.35,11.69,18.73,19.14h2.07v-33.52h64.14v55.87h-127.25v13.45Z"/>
    <path class="cls-1" d="M204.61,757.48v-62.07h113.39l-5.79,89.18h20.9l-5.79-89.18h113.8v62.07h-19.86l.21,1.04c5.1,23.31,4.58,41.87-1.55,55.66-6.14,13.79-17.42,23.66-33.83,29.59-16.42,5.93-37.52,8.9-63.31,8.9-19.31,0-36.24-1.66-50.8-4.97-14.55-3.31-26.28-8.66-35.17-16.04-8.9-7.38-14.66-17.07-17.28-29.07-2.62-12-1.79-26.76,2.48-44.28l.21-.83h-17.59Z"/>
    <path class="cls-1" d="M453.52,850.59v-62.07h28.97v-31.04h-28.97v-62.07h178.36c20.55,0,36.76,1.96,48.62,5.9,11.86,3.93,20.28,9.55,25.24,16.86,4.97,7.31,7.45,16.14,7.45,26.48,0,8.97-2.48,16.66-7.45,23.07s-13.38,11.31-25.24,14.69c-11.86,3.38-28.07,5.07-48.62,5.07h-65.59v12.42l43.04-4.14v54.83h-155.8ZM629.39,761.62v-12.42l-32.48,4.14-31.66-4.14v12.42h64.14Z"/>
    <path class="cls-1" d="M721.47,850.59v-62.07h28.97v-31.04h-28.97v-62.07h235.26v57.93l-123.52-4.14v13.45l98.9-3.52v24.83l-98.9-3.72v14.48l129.73-6.21v62.07h-241.46Z"/>
    <path class="cls-1" d="M975.34,850.59v-62.07h28.97v-31.04h-28.97v-62.07h209.6c21.79,0,38,3.14,48.62,9.41,10.62,6.28,15.93,16.59,15.93,30.93,0,7.59-1.52,14.28-4.55,20.07-3.04,5.79-8.14,10.48-15.31,14.07-7.17,3.59-16.9,5.86-29.17,6.83l20.28,19.45,34.97-4.14v58.56h-99.73l-26.28-38.07v38.07h-154.35ZM1087.07,749.21v12.42h61.66v-12.42l-30.83,4.14-30.83-4.14ZM1087.07,787.48v13.45l32.28-3.1-7.04-10.35h-25.24Z"/>
  </g>
  <g>
    <path class="cls-1" d="M-27.48,1117.16v-58.55h106.95l-5.46,84.11h19.71l-5.46-84.11h107.34v58.55h-18.74l.2.98c4.81,21.99,4.32,39.49-1.46,52.5-5.79,13.01-16.43,22.32-31.91,27.91-15.48,5.6-35.39,8.39-59.72,8.39-18.22,0-34.19-1.56-47.91-4.68-13.73-3.12-24.79-8.16-33.18-15.12-8.39-6.96-13.83-16.1-16.3-27.42-2.47-11.32-1.69-25.24,2.34-41.76l.2-.78h-16.59Z"/>
    <path class="cls-1" d="M207.29,1204.98v-58.55h27.32v-29.27h-27.32v-58.55h131.73v58.55h-26.35v29.27h41.76l-3.9-34.74h78.06v93.29h-221.31Z"/>
    <path class="cls-1" d="M483.25,1204.98v-58.55h39.03v-40.01h-13.66l5.85,31.23h-76.11v-79.04h245.9v79.04h-76.11l5.85-31.23h-13.66v40.01h39.03v58.55h-156.13Z"/>
    <path class="cls-1" d="M695.97,1204.98v-58.55h27.32v-29.27h-27.32v-58.55h197.7c20.56,0,35.84,2.96,45.86,8.88,10.02,5.92,15.03,15.65,15.03,29.18,0,7.16-1.43,13.47-4.29,18.93-2.86,5.46-7.68,9.89-14.44,13.27-6.77,3.38-15.94,5.53-27.52,6.44l19.13,18.34,32.98-3.9v55.23h-94.07l-24.79-35.91v35.91h-145.59ZM801.36,1109.35v11.71h58.16v-11.71l-29.08,3.9-29.08-3.9ZM801.36,1145.46v12.68l30.45-2.93-6.64-9.76h-23.81Z"/>
    <path class="cls-1" d="M1003.15,1058.61h147.93l76.5,87.82h28.88v58.55h-150.47v-58.55l38.06,3.9v-11.71h-87.82v11.71l38.06-3.9v58.55h-122.17v-58.55h27.52l33.96-29.27h-30.44v-58.55Z"/>
  </g>
  <g>
    <path d="M-27.68,1043.5v-69.94H4.96v-34.97H-27.68v-69.94H125.72l36.14,49.43h2.33l36.14-49.43h130.32v69.94h-32.64v34.97h32.64v69.94h-161.33v-53.16l-33.81,44.3h-2.33l-32.17-43.13v51.99H-27.68ZM65.57,946.98v37.3l28.21-2.57-25.88-34.74h-2.33ZM202.42,946.98l-26.34,34.74,28.68,2.57v-37.3h-2.33Z"/>
    <path d="M344.64,1043.5v-69.94h32.64v-34.97h-32.64v-69.94h265.08v65.28l-139.18-4.66v15.15l111.44-3.96v27.98l-111.44-4.2v16.32l146.18-6.99v69.94h-272.07Z"/>
    <path d="M708.8,1045.83c-11.35,0-22.15-1.87-32.41-5.59-10.26-3.73-19.35-9.13-27.28-16.2-7.93-7.07-14.15-15.74-18.65-26-4.51-10.26-6.76-21.92-6.76-34.97,0-19.58,5.01-36.64,15.04-51.17,10.03-14.53,25.88-25.76,47.56-33.69,21.68-7.93,50.01-11.89,84.98-11.89,12.74,0,24.21.2,34.39.58,10.18.39,19.85.97,29.03,1.75,9.17.78,18.61,1.75,28.33,2.92,9.71,1.17,20.48,2.6,32.29,4.31v69.01h-172.52v17.49l180.22-12.12v93.26h-93.26v-47.09h-2.33c-7.62,15.39-19.47,27.47-35.55,36.25-16.09,8.78-37.11,13.17-63.06,13.17Z"/>
    <path d="M954.06,868.65h176.72l91.39,104.91h34.5v69.94h-179.75v-69.94l45.46,4.66v-13.99h-104.91v13.99l45.46-4.66v69.94h-145.94v-69.94h32.87l40.57-34.97h-36.37v-69.94Z"/>
  </g>
  <g>
    <path class="cls-2" d="M17.69,154.76v-24.91h11.62v-12.46h-11.62v-24.91h84.12c8.75,0,15.25,1.26,19.51,3.78,4.26,2.52,6.39,6.66,6.39,12.41,0,3.04-.61,5.73-1.83,8.05-1.22,2.33-3.27,4.21-6.14,5.65-2.88,1.44-6.78,2.35-11.71,2.74l8.14,7.81,14.03-1.66v23.5h-40.02l-10.55-15.28v15.28H17.69ZM62.53,114.07v4.98h24.74v-4.98l-12.37,1.66-12.37-1.66ZM62.53,129.43v5.4l12.95-1.25-2.82-4.15h-10.13Z"/>
    <path class="cls-2" d="M135.18,154.76v-24.91h11.62v-12.46h-11.62v-24.91h94.41v23.25l-49.57-1.66v5.4l39.69-1.41v9.96l-39.69-1.49v5.81l52.06-2.49v24.91h-96.9Z"/>
    <path class="cls-2" d="M237.07,154.76v-24.91h11.62v-12.46h-11.62v-24.91h56.05v24.91h-11.21v12.46h17.77l-1.66-14.78h33.21v39.69h-94.16Z"/>
    <path class="cls-2" d="M334.55,117.39v-24.91h45.5l-2.33,35.79h8.39l-2.33-35.79h45.67v24.91h-7.97l.08.42c2.05,9.36,1.84,16.8-.62,22.34-2.46,5.54-6.99,9.49-13.58,11.87-6.59,2.38-15.06,3.57-25.41,3.57-7.75,0-14.55-.66-20.39-1.99-5.84-1.33-10.55-3.47-14.12-6.44-3.57-2.96-5.88-6.85-6.93-11.67-1.05-4.82-.72-10.74,1-17.77l.08-.33h-7.06Z"/>
    <path class="cls-2" d="M527.53,148.94c-7.53,2.16-15.04,3.79-22.54,4.9-7.5,1.11-15.46,1.69-23.87,1.74-11.46.05-20.81-1.34-28.07-4.19-7.25-2.85-12.58-6.82-15.98-11.92-3.4-5.09-5.11-10.96-5.11-17.6,0-10.13,2.89-17.69,8.68-22.67,5.78-4.98,13.77-7.47,23.96-7.47,5.54,0,10.27.69,14.2,2.08,3.93,1.38,7.27,3.32,10.01,5.81,2.74,2.49,5.02,5.43,6.85,8.8h.83v-15.94h29.06v28.65h-58.29v6.23l58.54-3.32,1.74,24.91Z"/>
    <path class="cls-2" d="M549.12,154.76v-24.91h16.61v-17.02h-5.81l2.49,13.29h-32.38v-33.63h104.63v33.63h-32.38l2.49-13.29h-5.81v17.02h16.61v24.91h-66.43Z"/>
    <path class="cls-2" d="M642.03,92.48h62.94l32.55,37.37h12.29v24.91h-64.02v-24.91l16.19,1.66v-4.98h-37.37v4.98l16.19-1.66v24.91h-51.98v-24.91h11.71l14.45-12.46h-12.95v-24.91Z"/>
    <path class="cls-2" d="M754.8,154.76v-24.91h11.62v-12.46h-11.62v-24.91h51.15l15.2,15.36v-15.36h50.82v24.91h-10.79v37.37h-39.53l-15.2-14.86v14.86h-51.65ZM788.01,122.71v10.38l10.55-.91-9.71-9.47h-.83ZM838.75,125.69h.83v-10.38l-10.21.91,9.38,9.47Z"/>
    <path class="cls-2" d="M896.04,154.76v-24.91h16.61v-17.02h-5.81l2.49,13.29h-32.38v-33.63h104.63v33.63h-32.38l2.49-13.29h-5.81v17.02h16.61v24.91h-66.43Z"/>
    <path class="cls-2" d="M986.55,154.76v-24.91h11.62v-12.46h-11.62v-24.91h56.05v24.91h-11.21v12.46h17.77l-1.66-14.78h33.21v39.69h-94.16Z"/>
    <path class="cls-2" d="M1142.66,92.48v24.91l-14.45-1.66v4.98h32.14v-4.98l-12.7,1.66v-24.91h44.67v24.91h-6.64l-20.92,14.37,14.86-1.91v24.91h-83.53v-24.91l13.95,1.58-20.18-13.95h-6.64v-24.99h59.45Z"/>
  </g>
  <g>
    <path class="cls-1" d="M18.84,252.96v-34.41h16.06v-17.2h-16.06v-34.41h98.87c11.39,0,20.38,1.09,26.95,3.27,6.58,2.18,11.24,5.3,13.99,9.35,2.75,4.05,4.13,8.95,4.13,14.68,0,4.97-1.38,9.23-4.13,12.79-2.75,3.56-7.42,6.27-13.99,8.14-6.58,1.87-15.56,2.81-26.95,2.81h-36.36v6.88l23.86-2.29v30.39H18.84ZM116.34,203.64v-6.88l-18.01,2.29-17.55-2.29v6.88h35.56Z"/>
    <path class="cls-1" d="M167.38,252.96v-34.41h16.06v-17.2h-16.06v-34.41h116.19c12.08,0,21.06,1.74,26.95,5.22,5.89,3.48,8.83,9.2,8.83,17.15,0,4.21-.84,7.91-2.52,11.13-1.68,3.21-4.51,5.81-8.49,7.8-3.98,1.99-9.37,3.25-16.17,3.79l11.24,10.78,19.38-2.29v32.46h-55.28l-14.57-21.1v21.1h-85.56ZM229.31,196.76v6.88h34.18v-6.88l-17.09,2.29-17.09-2.29ZM229.31,217.98v7.46l17.89-1.72-3.9-5.73h-13.99Z"/>
    <path class="cls-1" d="M329.67,252.96v-34.41h16.06v-17.2h-16.06v-34.41h130.41v32.11l-68.47-2.29v7.46l54.82-1.95v13.76l-54.82-2.06v8.03l71.91-3.44v34.41h-133.85Z"/>
    <path class="cls-1" d="M519.38,205.37l22.82-2.75c12.77-1.53,23.32-1.45,31.66.23,8.33,1.68,14.55,4.59,18.64,8.72,4.09,4.13,6.14,9.14,6.14,15.03,0,7.19-2.35,12.83-7.05,16.92-4.7,4.09-11.72,6.96-21.05,8.6-9.33,1.64-20.88,2.47-34.64,2.47-13.69-.08-25.96-.65-36.82-1.72-10.86-1.07-21.18-2.56-30.97-4.47l2.64-30.51,75.7,7v-7.46h-30.85c-15.22,0-26.71-1.85-34.47-5.56-7.76-3.71-11.64-10.11-11.64-19.21,0-8.56,3.21-15.18,9.63-19.84,6.42-4.66,16.55-7,30.4-7,7.49,0,13.94.78,19.33,2.35,5.39,1.57,10.05,3.82,13.99,6.77,3.94,2.94,7.4,6.48,10.38,10.61h1.15v-18.58h35.56v30.97h-70.54v7.46Z"/>
    <path class="cls-1" d="M603.22,252.96v-34.41h16.06v-17.2h-16.06v-34.41h130.41v32.11l-68.47-2.29v7.46l54.82-1.95v13.76l-54.82-2.06v8.03l71.91-3.44v34.41h-133.85Z"/>
    <path class="cls-1" d="M743.95,252.96v-34.41h16.06v-17.2h-16.06v-34.41h70.65l20.99,21.22v-21.22h70.19v34.41h-14.91v51.61h-54.6l-20.99-20.53v20.53h-71.34ZM789.83,208.69v14.34l14.57-1.26-13.42-13.08h-1.15ZM859.91,212.82h1.15v-14.34l-14.11,1.26,12.96,13.08Z"/>
    <path class="cls-1" d="M939.05,252.96v-34.41h22.94v-23.51h-8.03l3.44,18.35h-44.73v-46.45h144.52v46.45h-44.73l3.44-18.35h-8.03v23.51h22.94v34.41h-91.76Z"/>
    <path class="cls-1" d="M1111.9,205.37l22.82-2.75c12.77-1.53,23.32-1.45,31.66.23,8.33,1.68,14.55,4.59,18.64,8.72,4.09,4.13,6.14,9.14,6.14,15.03,0,7.19-2.35,12.83-7.05,16.92-4.7,4.09-11.72,6.96-21.05,8.6-9.33,1.64-20.88,2.47-34.64,2.47-13.69-.08-25.96-.65-36.82-1.72-10.86-1.07-21.18-2.56-30.97-4.47l2.64-30.51,75.7,7v-7.46h-30.85c-15.22,0-26.71-1.85-34.47-5.56-7.76-3.71-11.64-10.11-11.64-19.21,0-8.56,3.21-15.18,9.63-19.84,6.42-4.66,16.55-7,30.4-7,7.49,0,13.94.78,19.33,2.35,5.39,1.57,10.05,3.82,13.99,6.77,3.94,2.94,7.4,6.48,10.38,10.61h1.15v-18.58h35.56v30.97h-70.54v7.46Z"/>
  </g>
  <g>
    <path d="M60.36,1241.68l12.02-1.45c6.73-.81,12.28-.76,16.67.12,4.39.89,7.66,2.42,9.82,4.59,2.15,2.17,3.23,4.81,3.23,7.91,0,3.79-1.24,6.76-3.72,8.91-2.48,2.16-6.17,3.67-11.09,4.53-4.91.87-11,1.3-18.24,1.3-7.21-.04-13.67-.34-19.39-.91-5.72-.56-11.16-1.35-16.31-2.36l1.39-16.07,39.87,3.69v-3.93h-16.25c-8.02,0-14.07-.98-18.15-2.93-4.09-1.95-6.13-5.33-6.13-10.12,0-4.51,1.69-7.99,5.07-10.45,3.38-2.46,8.72-3.69,16.01-3.69,3.95,0,7.34.41,10.18,1.24,2.84.83,5.3,2.01,7.37,3.56,2.07,1.55,3.9,3.41,5.47,5.59h.6v-9.79h18.73v16.31h-37.15v3.93Z"/>
    <path d="M100.9,1239.56v-18.12h33.11l-1.69,26.04h6.1l-1.69-26.04h33.23v18.12h-5.8l.06.3c1.49,6.81,1.34,12.22-.45,16.25-1.79,4.03-5.08,6.91-9.88,8.64-4.79,1.73-10.96,2.6-18.49,2.6-5.64,0-10.58-.48-14.83-1.45-4.25-.97-7.67-2.53-10.27-4.68s-4.28-4.98-5.04-8.49c-.77-3.5-.52-7.81.72-12.93l.06-.24h-5.13Z"/>
    <path d="M235.13,1266.75h-61.56v-18.12h8.46v-9.06h-8.46v-18.12h57.93c3.5,0,6.56.42,9.18,1.27,2.62.85,4.65,2.08,6.1,3.71,1.45,1.63,2.17,3.64,2.17,6.01.04,5.2-3,8.28-9.12,9.24v.6c4.91.36,8.54,1.53,10.87,3.5,2.34,1.97,3.5,4.73,3.5,8.28,0,2.58-.63,4.81-1.9,6.71-1.27,1.89-3.3,3.36-6.1,4.41-2.8,1.05-6.49,1.57-11.09,1.57ZM206.19,1240.17h16.67v-3.62l-8.34,1.21-8.34-1.21v3.62ZM206.19,1251.65l9.42-1.21,9.42,1.21v-3.62h-18.85v3.62Z"/>
    <path d="M266.91,1266.75v-18.12h12.08v-12.38h-4.23l1.81,9.67h-23.56v-24.47h76.12v24.47h-23.56l1.81-9.67h-4.23v12.38h12.08v18.12h-48.33Z"/>
    <path d="M332.75,1266.75v-18.12h8.46v-9.06h-8.46v-18.12h40.78v18.12h-8.16v9.06h12.93l-1.21-10.75h24.16v28.88h-68.51Z"/>
    <path d="M404.89,1266.75v-18.12h8.46v-9.06h-8.46v-18.12h68.69v16.92l-36.07-1.21v3.93l28.88-1.03v7.25l-28.88-1.09v4.23l37.88-1.81v18.12h-70.5Z"/>
    <path class="cls-2" d="M34.56,1322.13v-18.12h8.46v-9.06h-8.46v-18.12h40.78v18.12h-8.16v9.06h12.93l-1.21-10.75h24.16v28.88H34.56Z"/>
    <path class="cls-2" d="M106.69,1322.13v-18.12h8.46v-9.06h-8.46v-18.12h41.08v18.12h-8.46v9.06h8.46v18.12h-41.08Z"/>
    <path class="cls-2" d="M151.4,1322.13v-18.12h8.46v-9.06h-8.46v-18.12h42.65v16.13l-10.03-.67v3.87l24.17-2.66v-3.87l-10.51,2.96v-15.77h35.22v18.12h-15.71l10.03,10.21,10.57-1.15v18.12h-33.17l-8.16-11.36v11.36h-45.07ZM184.02,1303.7v3.93l9.55-.91-2.17-3.02h-7.37Z"/>
    <path class="cls-2" d="M241.41,1322.13v-18.12h8.46v-9.06h-8.46v-18.12h68.69v16.92l-36.07-1.21v3.93l28.88-1.03v7.25l-28.88-1.09v4.23l37.88-1.81v18.12h-70.5Z"/>
    <path class="cls-2" d="M1097.01,1276.82h45.79l23.68,27.19h8.94v18.12h-46.58v-18.12l11.78,1.21v-3.62h-27.19v3.62l11.78-1.21v18.12h-37.82v-18.12h8.52l10.51-9.06h-9.42v-18.12Z"/>
    <path d="M34.56,1377.5v-18.12h8.46v-9.06h-8.46v-18.12h39.75l9.36,12.81h.6l9.36-12.81h33.77v18.12h-8.46v9.06h8.46v18.12h-41.8v-13.77l-8.76,11.48h-.6l-8.34-11.18v13.47h-33.35ZM58.73,1352.49v9.67l7.31-.66-6.71-9h-.6ZM94.19,1352.49l-6.83,9,7.43.66v-9.67h-.6Z"/>
    <path d="M131.04,1377.5v-18.12h8.46v-9.06h-8.46v-18.12h41.08v18.12h-8.46v9.06h8.46v18.12h-41.08Z"/>
    <path d="M201.54,1352.43l12.02-1.45c6.73-.81,12.28-.76,16.67.12,4.39.89,7.66,2.42,9.82,4.59,2.15,2.17,3.23,4.81,3.23,7.91,0,3.79-1.24,6.76-3.72,8.91-2.48,2.16-6.17,3.67-11.09,4.53-4.91.87-11,1.3-18.24,1.3-7.21-.04-13.67-.34-19.39-.91-5.72-.56-11.16-1.35-16.31-2.36l1.39-16.07,39.87,3.69v-3.93h-16.25c-8.02,0-14.07-.98-18.15-2.93-4.09-1.95-6.13-5.33-6.13-10.12,0-4.51,1.69-7.99,5.07-10.45,3.38-2.46,8.72-3.69,16.01-3.69,3.95,0,7.34.41,10.18,1.24,2.84.83,5.3,2.01,7.37,3.56,2.07,1.55,3.9,3.41,5.47,5.59h.6v-9.79h18.73v16.31h-37.15v3.93Z"/>
    <path d="M245.7,1377.5v-18.12h8.46v-9.06h-8.46v-18.12h68.57v17.82l-35.95-1.21v3.93l26.88-.79v7.13l-26.88-.91v4.23l11.66-1.21v16.31h-44.28Z"/>
    <path d="M317.89,1377.5v-18.12h8.46v-9.06h-8.46v-18.12h41.08v18.12h-8.46v9.06h8.46v18.12h-41.08Z"/>
    <path d="M362.6,1377.5v-18.12h8.46v-9.06h-8.46v-18.12h61.2c6.36,0,11.1.92,14.2,2.75,3.1,1.83,4.65,4.84,4.65,9.03,0,2.21-.44,4.17-1.33,5.86-.89,1.69-2.38,3.06-4.47,4.11-2.09,1.05-4.93,1.71-8.52,1.99l5.92,5.68,10.21-1.21v17.1h-29.12l-7.67-11.12v11.12h-45.07ZM395.22,1347.9v3.62h18v-3.62l-9,1.21-9-1.21ZM395.22,1359.08v3.93l9.42-.91-2.05-3.02h-7.37Z"/>
    <path d="M448.08,1377.5v-18.12h8.46v-9.06h-8.46v-18.12h68.69v16.92l-36.07-1.21v3.93l28.88-1.03v7.25l-28.88-1.09v4.23l37.88-1.81v18.12h-70.5Z"/>
    <path d="M522.2,1377.5v-18.12h8.46v-9.06h-8.46v-18.12h45.43c6.6,0,12.14.51,16.61,1.54,4.47,1.03,8.04,2.52,10.72,4.47,2.68,1.95,4.6,4.33,5.77,7.13,1.17,2.8,1.75,5.97,1.75,9.51s-.58,6.72-1.75,9.51c-1.17,2.8-3.09,5.18-5.77,7.13-2.68,1.95-6.25,3.44-10.72,4.47-4.47,1.03-10.01,1.54-16.61,1.54h-45.43ZM554.82,1356.96l11-1.21,11,1.21v-5.44l-11,1.21-11-1.21v5.44Z"/>
    <path d="M102.89,1428.65c-5.48,1.57-10.94,2.76-16.4,3.56-5.46.8-11.25,1.23-17.37,1.27-8.34.04-15.14-.98-20.42-3.05-5.28-2.07-9.15-4.96-11.63-8.67-2.48-3.7-3.72-7.97-3.72-12.81,0-7.37,2.1-12.87,6.31-16.49,4.21-3.62,10.02-5.44,17.43-5.44,4.03,0,7.47.5,10.33,1.51,2.86,1.01,5.29,2.42,7.28,4.23s3.65,3.95,4.98,6.4h.6v-11.6h21.14v20.84h-42.41v4.53l42.59-2.42,1.27,18.12Z"/>
    <path d="M115.52,1387.57h45.79l23.68,27.19h8.94v18.12h-46.58v-18.12l11.78,1.21v-3.62h-27.19v3.62l11.78-1.21v18.12h-37.82v-18.12h8.52l10.51-9.06h-9.42v-18.12Z"/>
    <path d="M197.55,1432.88v-18.12h8.46v-9.06h-8.46v-18.12h37.21l11.06,11.18v-11.18h36.97v18.12h-7.85v27.19h-28.76l-11.06-10.81v10.81h-37.58ZM221.72,1409.56v7.55l7.67-.66-7.07-6.89h-.6ZM258.63,1411.74h.6v-7.55l-7.43.66,6.83,6.89Z"/>
    <path d="M286.42,1432.88v-18.12h8.46v-9.06h-8.46v-18.12h37.21l11.06,11.18v-11.18h36.97v18.12h-7.85v27.19h-28.76l-11.06-10.81v10.81h-37.58ZM310.58,1409.56v7.55l7.67-.66-7.07-6.89h-.6ZM347.5,1411.74h.6v-7.55l-7.43.66,6.83,6.89Z"/>
    <path d="M372.87,1409.92c0-3.38.68-6.47,2.05-9.27,1.37-2.8,3.56-5.23,6.58-7.28,3.02-2.05,7-3.63,11.93-4.74,4.93-1.11,10.98-1.66,18.15-1.66s13.22.55,18.15,1.66c4.93,1.11,8.91,2.69,11.93,4.74,3.02,2.05,5.22,4.48,6.58,7.28,1.37,2.8,2.05,5.89,2.05,9.27s-.69,6.64-2.05,9.51c-1.37,2.88-3.56,5.37-6.58,7.46-3.02,2.09-7,3.71-11.93,4.86-4.93,1.15-10.99,1.72-18.15,1.72s-13.22-.57-18.15-1.72c-4.93-1.15-8.91-2.77-11.93-4.86-3.02-2.09-5.22-4.58-6.58-7.46-1.37-2.88-2.05-6.05-2.05-9.51ZM398.54,1412.52l13.05-1.21,13.05,1.21v-5.44l-13.05,1.21-13.05-1.21v5.44Z"/>
    <path d="M452.73,1432.88v-18.12h8.46v-9.06h-8.46v-18.12h37.21l11.06,11.18v-11.18h36.97v18.12h-7.85v27.19h-28.76l-11.06-10.81v10.81h-37.58ZM476.9,1409.56v7.55l7.67-.66-7.07-6.89h-.6ZM513.81,1411.74h.6v-7.55l-7.43.66,6.83,6.89Z"/>
    <path d="M603.16,1432.88h-61.56v-18.12h8.46v-9.06h-8.46v-18.12h57.93c3.5,0,6.56.42,9.18,1.27,2.62.85,4.65,2.08,6.1,3.71,1.45,1.63,2.17,3.64,2.17,6.01.04,5.2-3,8.28-9.12,9.24v.6c4.91.36,8.54,1.53,10.87,3.5,2.34,1.97,3.5,4.73,3.5,8.28,0,2.58-.63,4.81-1.9,6.71-1.27,1.89-3.3,3.36-6.1,4.41-2.8,1.05-6.49,1.57-11.09,1.57ZM574.22,1406.3h16.67v-3.62l-8.34,1.21-8.34-1.21v3.62ZM574.22,1417.78l9.42-1.21,9.42,1.21v-3.62h-18.85v3.62Z"/>
    <path d="M634.27,1387.57h45.79l23.68,27.19h8.94v18.12h-46.58v-18.12l11.78,1.21v-3.62h-27.19v3.62l11.78-1.21v18.12h-37.82v-18.12h8.52l10.51-9.06h-9.42v-18.12Z"/>
    <path d="M716.31,1432.88v-18.12h8.46v-9.06h-8.46v-18.12h40.78v18.12h-8.16v9.06h12.93l-1.21-10.75h24.16v28.88h-68.51Z"/>
    <path d="M788.44,1432.88v-18.12h8.46v-9.06h-8.46v-18.12h40.78v18.12h-8.16v9.06h12.93l-1.21-10.75h24.16v28.88h-68.51Z"/>
  </g>
  <path class="cls-2" d="M-132.13,3268.7c0-64.4,13.03-123.22,39.1-176.52,26.05-53.28,67.85-99.47,125.35-138.57,57.5-39.1,133.2-69.18,227.12-90.27,93.9-21.08,209.1-31.62,345.56-31.62s251.65,10.55,345.56,31.62c93.9,21.1,169.62,51.17,227.12,90.27,57.5,39.1,99.27,85.3,125.35,138.57,26.05,53.29,39.1,112.12,39.1,176.52s-13.05,126.32-39.1,181.12c-26.07,54.82-67.85,102.17-125.35,142.02-57.49,39.87-133.22,70.72-227.12,92.57-93.92,21.85-209.11,32.77-345.56,32.77s-251.66-10.92-345.56-32.77c-93.92-21.85-169.62-52.7-227.12-92.57-57.5-39.85-99.29-87.2-125.35-142.02-26.07-54.8-39.1-115.18-39.1-181.12ZM356.61,3318.15l248.39-23,248.39,23v-103.5l-248.39,23-248.39-23v103.5Z"/>
  <g>
    <path d="M35.17,2735.34v-18.12h8.46v-9.06h-8.46v-18.12h45.43c6.6,0,12.14.51,16.61,1.54,4.47,1.03,8.04,2.52,10.72,4.47,2.68,1.95,4.6,4.33,5.77,7.13,1.17,2.8,1.75,5.97,1.75,9.51s-.58,6.72-1.75,9.51c-1.17,2.8-3.09,5.18-5.77,7.13-2.68,1.95-6.25,3.44-10.72,4.47-4.47,1.03-10.01,1.54-16.61,1.54h-45.43ZM67.79,2714.8l11-1.21,11,1.21v-5.44l-11,1.21-11-1.21v5.44Z"/>
    <path d="M117.87,2735.34v-18.12h8.46v-9.06h-8.46v-18.12h68.69v16.92l-36.07-1.21v3.93l28.88-1.03v7.25l-28.88-1.09v4.23l37.88-1.81v18.12h-70.5Z"/>
    <path d="M192,2735.34v-18.12h8.46v-9.06h-8.46v-18.12h40.78v18.12h-8.16v9.06h12.93l-1.21-10.75h24.16v28.88h-68.51Z"/>
    <path d="M264.13,2735.34v-18.12h8.46v-9.06h-8.46v-18.12h41.08v18.12h-8.46v9.06h8.46v18.12h-41.08Z"/>
    <path d="M377.16,2731.11c-5.48,1.57-10.94,2.76-16.4,3.56-5.46.8-11.25,1.23-17.37,1.27-8.34.04-15.14-.98-20.42-3.05-5.28-2.07-9.15-4.96-11.63-8.67-2.48-3.7-3.72-7.97-3.72-12.81,0-7.37,2.1-12.87,6.31-16.49,4.21-3.62,10.02-5.44,17.43-5.44,4.03,0,7.47.5,10.33,1.51,2.86,1.01,5.29,2.42,7.28,4.23s3.65,3.95,4.98,6.4h.6v-11.6h21.14v20.84h-42.41v4.53l42.59-2.42,1.27,18.12Z"/>
    <path d="M389.78,2690.03h45.79l23.68,27.19h8.94v18.12h-46.58v-18.12l11.78,1.21v-3.62h-27.19v3.62l11.78-1.21v18.12h-37.82v-18.12h8.52l10.51-9.06h-9.42v-18.12Z"/>
    <path d="M473.63,2735.34v-18.12h12.08v-12.38h-4.23l1.81,9.67h-23.56v-24.47h76.12v24.47h-23.56l1.81-9.67h-4.23v12.38h12.08v18.12h-48.33Z"/>
    <path d="M539.48,2735.34v-18.12h8.46v-9.06h-8.46v-18.12h68.69v16.92l-36.07-1.21v3.93l28.88-1.03v7.25l-28.88-1.09v4.23l37.88-1.81v18.12h-70.5Z"/>
    <path class="cls-2" d="M35.17,2790.71v-18.12h8.46v-9.06h-8.46v-18.12h40.78v18.12h-8.16v9.06h12.93l-1.21-10.75h24.16v28.88H35.17Z"/>
    <path class="cls-2" d="M107.3,2790.71v-18.12h8.46v-9.06h-8.46v-18.12h41.08v18.12h-8.46v9.06h8.46v18.12h-41.08Z"/>
    <path class="cls-2" d="M152,2790.71v-18.12h8.46v-9.06h-8.46v-18.12h42.65v16.13l-10.03-.67v3.87l24.17-2.66v-3.87l-10.51,2.96v-15.77h35.22v18.12h-15.71l10.03,10.21,10.57-1.15v18.12h-33.17l-8.16-11.36v11.36h-45.07ZM184.62,2772.29v3.93l9.55-.91-2.17-3.02h-7.37Z"/>
    <path class="cls-2" d="M242.02,2790.71v-18.12h8.46v-9.06h-8.46v-18.12h68.69v16.92l-36.07-1.21v3.93l28.88-1.03v7.25l-28.88-1.09v4.23l37.88-1.81v18.12h-70.5Z"/>
    <path class="cls-2" d="M44.77,2800.78h45.79l23.68,27.19h8.94v18.12h-46.58v-18.12l11.78,1.21v-3.62h-27.19v3.62l11.78-1.21v18.12h-37.82v-18.12h8.52l10.51-9.06h-9.42v-18.12Z"/>
    <path d="M715.12,2846.09v-18.12h8.46v-9.06h-8.46v-18.12h45.43c6.6,0,12.14.51,16.61,1.54,4.47,1.03,8.04,2.52,10.72,4.47,2.68,1.95,4.6,4.33,5.77,7.13,1.17,2.8,1.75,5.97,1.75,9.51s-.58,6.72-1.75,9.51c-1.17,2.8-3.09,5.18-5.77,7.13-2.68,1.95-6.25,3.44-10.72,4.47-4.47,1.03-10.01,1.54-16.61,1.54h-45.43ZM747.74,2825.55l11-1.21,11,1.21v-5.44l-11,1.21-11-1.21v5.44Z"/>
    <path d="M796.61,2823.14c0-3.38.68-6.47,2.05-9.27,1.37-2.8,3.56-5.23,6.58-7.28,3.02-2.05,7-3.63,11.93-4.74,4.93-1.11,10.98-1.66,18.15-1.66s13.22.55,18.15,1.66c4.93,1.11,8.91,2.69,11.93,4.74,3.02,2.05,5.22,4.48,6.58,7.28,1.37,2.8,2.05,5.89,2.05,9.27s-.69,6.64-2.05,9.51c-1.37,2.88-3.56,5.37-6.58,7.46-3.02,2.09-7,3.71-11.93,4.86-4.93,1.15-10.99,1.72-18.15,1.72s-13.22-.57-18.15-1.72c-4.93-1.15-8.91-2.77-11.93-4.86-3.02-2.09-5.22-4.58-6.58-7.46-1.37-2.88-2.05-6.05-2.05-9.51ZM822.29,2825.73l13.05-1.21,13.05,1.21v-5.44l-13.05,1.21-13.05-1.21v5.44Z"/>
    <path d="M875.27,2818.91v-18.12h33.11l-1.69,26.04h6.1l-1.69-26.04h33.23v18.12h-5.8l.06.3c1.49,6.81,1.34,12.22-.45,16.25-1.79,4.03-5.08,6.91-9.88,8.64-4.79,1.73-10.96,2.6-18.49,2.6-5.64,0-10.58-.48-14.83-1.45-4.25-.97-7.67-2.53-10.27-4.68s-4.28-4.98-5.04-8.49c-.77-3.5-.52-7.81.72-12.93l.06-.24h-5.13Z"/>
    <path d="M1009.5,2846.09h-61.56v-18.12h8.46v-9.06h-8.46v-18.12h57.93c3.5,0,6.56.42,9.18,1.27,2.62.85,4.65,2.08,6.1,3.71,1.45,1.63,2.17,3.64,2.17,6.01.04,5.2-3,8.28-9.12,9.24v.6c4.91.36,8.54,1.53,10.87,3.5,2.34,1.97,3.5,4.73,3.5,8.28,0,2.58-.63,4.81-1.9,6.71-1.27,1.89-3.3,3.36-6.1,4.41-2.8,1.05-6.49,1.57-11.09,1.57ZM980.57,2819.51h16.67v-3.62l-8.34,1.21-8.34-1.21v3.62ZM980.57,2830.99l9.42-1.21,9.42,1.21v-3.62h-18.85v3.62Z"/>
    <path d="M1031.01,2846.09v-18.12h8.46v-9.06h-8.46v-18.12h40.78v18.12h-8.16v9.06h12.93l-1.21-10.75h24.16v28.88h-68.51Z"/>
    <path d="M1103.14,2846.09v-18.12h8.46v-9.06h-8.46v-18.12h68.69v16.92l-36.07-1.21v3.93l28.88-1.03v7.25l-28.88-1.09v4.23l37.88-1.81v18.12h-70.5Z"/>
    <path d="M529.24,2901.47v-18.12h8.46v-9.06h-8.46v-18.12h68.69v16.92l-36.07-1.21v3.93l28.88-1.03v7.25l-28.88-1.09v4.23l37.88-1.81v18.12h-70.5Z"/>
    <path d="M603.36,2901.47v-18.12h8.46v-9.06h-8.46v-18.12h37.21l11.06,11.18v-11.18h36.97v18.12h-7.85v27.19h-28.76l-11.06-10.81v10.81h-37.58ZM627.53,2878.15v7.55l7.67-.66-7.07-6.89h-.6ZM664.44,2880.32h.6v-7.55l-7.43.66,6.83,6.89Z"/>
    <path d="M706.12,2901.47v-18.12h12.08v-12.38h-4.23l1.81,9.67h-23.56v-24.47h76.12v24.47h-23.56l1.81-9.67h-4.23v12.38h12.08v18.12h-48.33Z"/>
    <path d="M771.97,2901.47v-18.12h8.46v-9.06h-8.46v-18.12h68.69v16.92l-36.07-1.21v3.93l28.88-1.03v7.25l-28.88-1.09v4.23l37.88-1.81v18.12h-70.5Z"/>
    <path d="M846.1,2901.47v-18.12h8.46v-9.06h-8.46v-18.12h37.21l11.06,11.18v-11.18h36.97v18.12h-7.85v27.19h-28.76l-11.06-10.81v10.81h-37.58ZM870.26,2878.15v7.55l7.67-.66-7.07-6.89h-.6ZM907.17,2880.32h.6v-7.55l-7.43.66,6.83,6.89Z"/>
    <path d="M934.96,2901.47v-18.12h8.46v-9.06h-8.46v-18.12h45.43c6.6,0,12.14.51,16.61,1.54,4.47,1.03,8.04,2.52,10.72,4.47,2.68,1.95,4.6,4.33,5.77,7.13,1.17,2.8,1.75,5.97,1.75,9.51s-.58,6.72-1.75,9.51c-1.17,2.8-3.09,5.18-5.77,7.13-2.68,1.95-6.25,3.44-10.72,4.47-4.47,1.03-10.01,1.54-16.61,1.54h-45.43ZM967.58,2880.93l11-1.21,11,1.21v-5.44l-11,1.21-11-1.21v5.44Z"/>
    <path d="M1017.66,2901.47v-18.12h8.46v-9.06h-8.46v-18.12h61.2c6.36,0,11.1.92,14.2,2.75,3.1,1.83,4.65,4.84,4.65,9.03,0,2.21-.44,4.17-1.33,5.86-.89,1.69-2.38,3.06-4.47,4.11-2.09,1.05-4.93,1.71-8.52,1.99l5.92,5.68,10.21-1.21v17.1h-29.12l-7.67-11.12v11.12h-45.07ZM1050.29,2871.87v3.62h18v-3.62l-9,1.21-9-1.21ZM1050.29,2883.04v3.93l9.42-.91-2.05-3.02h-7.37Z"/>
    <path d="M1103.15,2901.47v-18.12h8.46v-9.06h-8.46v-18.12h68.69v16.92l-36.07-1.21v3.93l28.88-1.03v7.25l-28.88-1.09v4.23l37.88-1.81v18.12h-70.5Z"/>
  </g>
  <g>
    <path d="M221.4,3517.04c0-1.64.33-3.14,1-4.5.66-1.36,1.73-2.54,3.2-3.54,1.47-1,3.4-1.76,5.8-2.3,2.4-.54,5.34-.81,8.82-.81s6.42.27,8.82.81c2.4.54,4.33,1.31,5.8,2.3,1.47,1,2.53,2.18,3.2,3.54.67,1.36,1,2.86,1,4.5s-.33,3.22-1,4.62c-.67,1.4-1.73,2.61-3.2,3.62-1.47,1.02-3.4,1.8-5.8,2.36s-5.34.84-8.82.84-6.42-.28-8.82-.84c-2.4-.56-4.33-1.34-5.8-2.36s-2.53-2.23-3.2-3.62c-.67-1.4-1-2.94-1-4.62ZM233.87,3518.3l6.34-.59,6.34.59v-2.64l-6.34.59-6.34-.59v2.64Z"/>
    <path d="M259.61,3514.98v-8.8h16.08l-.82,12.65h2.96l-.82-12.65h16.14v8.8h-2.82l.03.15c.72,3.31.65,5.94-.22,7.89s-2.47,3.36-4.8,4.2c-2.33.84-5.32,1.26-8.98,1.26-2.74,0-5.14-.24-7.2-.71-2.06-.47-3.73-1.23-4.99-2.27-1.26-1.05-2.08-2.42-2.45-4.12-.37-1.7-.25-3.8.35-6.28l.03-.12h-2.49Z"/>
    <path d="M301.66,3528.19v-8.8h5.87v-6.02h-2.05l.88,4.7h-11.45v-11.89h36.98v11.89h-11.45l.88-4.7h-2.05v6.02h5.87v8.8h-23.48Z"/>
    <path d="M339.61,3528.19v-8.8h4.11v-4.4h-4.11v-8.8h18.08l5.37,5.43v-5.43h17.96v8.8h-3.82v13.21h-13.97l-5.37-5.25v5.25h-18.25ZM351.35,3516.86v3.67l3.73-.32-3.43-3.35h-.29ZM369.28,3517.92h.29v-3.67l-3.61.32,3.32,3.35Z"/>
    <path d="M381.61,3517.04c0-1.64.33-3.14,1-4.5.66-1.36,1.73-2.54,3.2-3.54,1.47-1,3.4-1.76,5.8-2.3,2.4-.54,5.34-.81,8.82-.81s6.42.27,8.82.81c2.4.54,4.33,1.31,5.8,2.3,1.47,1,2.53,2.18,3.2,3.54.67,1.36,1,2.86,1,4.5s-.33,3.22-1,4.62c-.67,1.4-1.73,2.61-3.2,3.62-1.47,1.02-3.4,1.8-5.8,2.36s-5.34.84-8.82.84-6.42-.28-8.82-.84c-2.4-.56-4.33-1.34-5.8-2.36s-2.53-2.23-3.2-3.62c-.67-1.4-1-2.94-1-4.62ZM394.08,3518.3l6.34-.59,6.34.59v-2.64l-6.34.59-6.34-.59v2.64Z"/>
    <path d="M439.04,3506.18v8.8l-5.58-.59v1.76h12.33v-1.76l-4.99.59v-8.8h19.58v8.8l-5.58-.59v1.76h12.33v-1.76l-4.99.59v-8.8h13.85v8.8h-3.23l-5.9,13.21h-14.5l-3.61-7.6h-.59l-3.61,7.6h-15.58l-5.93-13.21h-3.23v-8.8h19.22Z"/>
    <path d="M483.12,3517.04c0-1.64.33-3.14,1-4.5.66-1.36,1.73-2.54,3.2-3.54,1.47-1,3.4-1.76,5.8-2.3,2.4-.54,5.34-.81,8.82-.81s6.42.27,8.82.81c2.4.54,4.33,1.31,5.8,2.3,1.47,1,2.53,2.18,3.2,3.54.67,1.36,1,2.86,1,4.5s-.33,3.22-1,4.62c-.67,1.4-1.73,2.61-3.2,3.62-1.47,1.02-3.4,1.8-5.8,2.36s-5.34.84-8.82.84-6.42-.28-8.82-.84c-2.4-.56-4.33-1.34-5.8-2.36s-2.53-2.23-3.2-3.62c-.67-1.4-1-2.94-1-4.62ZM495.6,3518.3l6.34-.59,6.34.59v-2.64l-6.34.59-6.34-.59v2.64Z"/>
    <path d="M521.92,3528.19v-8.8h4.11v-4.4h-4.11v-8.8h18.08l5.37,5.43v-5.43h17.96v8.8h-3.82v13.21h-13.97l-5.37-5.25v5.25h-18.25ZM533.66,3516.86v3.67l3.73-.32-3.43-3.35h-.29ZM551.59,3517.92h.29v-3.67l-3.61.32,3.32,3.35Z"/>
    <path class="cls-1" d="M571.05,3528.19v-8.8h4.11v-4.4h-4.11v-8.8h33.31v8.66l-17.46-.59v1.91l13.06-.38v3.46l-13.06-.44v2.05l5.66-.59v7.92h-21.51Z"/>
    <path class="cls-1" d="M606.12,3514.98v-8.8h16.08l-.82,12.65h2.96l-.82-12.65h16.14v8.8h-2.82l.03.15c.72,3.31.65,5.94-.22,7.89s-2.47,3.36-4.8,4.2c-2.33.84-5.32,1.26-8.98,1.26-2.74,0-5.14-.24-7.2-.71-2.06-.47-3.73-1.23-4.99-2.27-1.26-1.05-2.08-2.42-2.45-4.12-.37-1.7-.25-3.8.35-6.28l.03-.12h-2.49Z"/>
    <path class="cls-1" d="M648.18,3528.19v-8.8h5.87v-6.02h-2.05l.88,4.7h-11.45v-11.89h36.98v11.89h-11.45l.88-4.7h-2.05v6.02h5.87v8.8h-23.48Z"/>
    <path class="cls-1" d="M680.17,3514.98v-8.8h16.08l-.82,12.65h2.96l-.82-12.65h16.14v8.8h-2.82l.03.15c.72,3.31.65,5.94-.22,7.89s-2.47,3.36-4.8,4.2c-2.33.84-5.32,1.26-8.98,1.26-2.74,0-5.14-.24-7.2-.71-2.06-.47-3.73-1.23-4.99-2.27-1.26-1.05-2.08-2.42-2.45-4.12-.37-1.7-.25-3.8.35-6.28l.03-.12h-2.49Z"/>
    <path class="cls-1" d="M715.47,3528.19v-8.8h4.11v-4.4h-4.11v-8.8h29.73c3.09,0,5.39.45,6.9,1.34,1.51.89,2.26,2.35,2.26,4.39,0,1.08-.22,2.02-.65,2.85-.43.82-1.15,1.49-2.17,2-1.02.51-2.4.83-4.14.97l2.88,2.76,4.96-.59v8.31h-14.15l-3.73-5.4v5.4h-21.89ZM731.32,3513.81v1.76h8.75v-1.76l-4.37.59-4.37-.59ZM731.32,3519.24v1.91l4.58-.44-1-1.47h-3.58Z"/>
    <path class="cls-1" d="M757,3528.19v-8.8h4.11v-4.4h-4.11v-8.8h33.37v8.22l-17.52-.59v1.91l14.03-.5v3.52l-14.03-.53v2.05l18.4-.88v8.8h-34.25Z"/>
    <path class="cls-1" d="M798.97,3528.19v-8.8h4.11v-4.4h-4.11v-8.8h33.31v8.66l-17.46-.59v1.91l13.06-.38v3.46l-13.06-.44v2.05l5.66-.59v7.92h-21.51Z"/>
    <path class="cls-1" d="M832.87,3517.04c0-1.64.33-3.14,1-4.5.66-1.36,1.73-2.54,3.2-3.54,1.47-1,3.4-1.76,5.8-2.3,2.4-.54,5.34-.81,8.82-.81s6.42.27,8.82.81c2.4.54,4.33,1.31,5.8,2.3,1.47,1,2.53,2.18,3.2,3.54.67,1.36,1,2.86,1,4.5s-.33,3.22-1,4.62c-.67,1.4-1.73,2.61-3.2,3.62-1.47,1.02-3.4,1.8-5.8,2.36s-5.34.84-8.82.84-6.42-.28-8.82-.84c-2.4-.56-4.33-1.34-5.8-2.36s-2.53-2.23-3.2-3.62c-.67-1.4-1-2.94-1-4.62ZM845.34,3518.3l6.34-.59,6.34.59v-2.64l-6.34.59-6.34-.59v2.64Z"/>
    <path class="cls-1" d="M871.67,3528.19v-8.8h4.11v-4.4h-4.11v-8.8h18.08l5.37,5.43v-5.43h17.96v8.8h-3.82v13.21h-13.97l-5.37-5.25v5.25h-18.25ZM883.4,3516.86v3.67l3.73-.32-3.43-3.35h-.29ZM901.34,3517.92h.29v-3.67l-3.61.32,3.32,3.35Z"/>
    <path class="cls-1" d="M921.59,3528.19v-8.8h5.87v-6.02h-2.05l.88,4.7h-11.45v-11.89h36.98v11.89h-11.45l.88-4.7h-2.05v6.02h5.87v8.8h-23.48Z"/>
    <path class="cls-1" d="M965.81,3516.01l5.84-.7c3.27-.39,5.97-.37,8.1.06,2.13.43,3.72,1.17,4.77,2.23,1.05,1.06,1.57,2.34,1.57,3.84,0,1.84-.6,3.28-1.8,4.33-1.2,1.05-3,1.78-5.39,2.2-2.39.42-5.34.63-8.86.63-3.5-.02-6.64-.17-9.42-.44-2.78-.27-5.42-.66-7.92-1.14l.67-7.81,19.37,1.79v-1.91h-7.89c-3.89,0-6.83-.47-8.82-1.42-1.99-.95-2.98-2.59-2.98-4.92,0-2.19.82-3.88,2.47-5.08s4.24-1.79,7.78-1.79c1.92,0,3.57.2,4.95.6,1.38.4,2.57.98,3.58,1.73,1.01.75,1.89,1.66,2.66,2.71h.29v-4.75h9.1v7.92h-18.05v1.91Z"/>
  </g>
  <g>
    <path class="cls-1" d="M256.25,3497.27v-8.8h4.11v-4.4h-4.11v-8.8h18.08l5.37,5.43v-5.43h17.96v8.8h-3.82v13.21h-13.97l-5.37-5.25v5.25h-18.25ZM267.99,3485.94v3.67l3.73-.32-3.43-3.35h-.29ZM285.92,3487h.29v-3.67l-3.61.32,3.32,3.35Z"/>
    <path class="cls-1" d="M298.24,3486.12c0-1.64.33-3.14,1-4.5.66-1.36,1.73-2.54,3.2-3.54,1.47-1,3.4-1.76,5.8-2.3,2.4-.54,5.34-.81,8.82-.81s6.42.27,8.82.81c2.4.54,4.33,1.31,5.8,2.3,1.47,1,2.53,2.18,3.2,3.54.67,1.36,1,2.86,1,4.5s-.33,3.22-1,4.62c-.67,1.4-1.73,2.61-3.2,3.62-1.47,1.02-3.4,1.8-5.8,2.36s-5.34.84-8.82.84-6.42-.28-8.82-.84c-2.4-.56-4.33-1.34-5.8-2.36s-2.53-2.23-3.2-3.62c-.67-1.4-1-2.94-1-4.62ZM310.72,3487.38l6.34-.59,6.34.59v-2.64l-6.34.59-6.34-.59v2.64Z"/>
    <path class="cls-1" d="M337.04,3497.27v-8.8h4.11v-4.4h-4.11v-8.8h29.73c3.09,0,5.39.45,6.9,1.34,1.51.89,2.26,2.35,2.26,4.39,0,1.08-.22,2.02-.65,2.85-.43.82-1.15,1.49-2.17,2-1.02.51-2.4.83-4.14.97l2.88,2.76,4.96-.59v8.31h-14.15l-3.73-5.4v5.4h-21.89ZM352.89,3482.89v1.76h8.75v-1.76l-4.37.59-4.37-.59ZM352.89,3488.32v1.91l4.58-.44-1-1.47h-3.58Z"/>
    <path class="cls-1" d="M378.57,3497.27v-8.8h4.11v-4.4h-4.11v-8.8h19.31l4.55,6.22h.29l4.55-6.22h16.41v8.8h-4.11v4.4h4.11v8.8h-20.31v-6.69l-4.26,5.58h-.29l-4.05-5.43v6.54h-16.2ZM390.31,3485.12v4.7l3.55-.32-3.26-4.37h-.29ZM407.54,3485.12l-3.32,4.37,3.61.32v-4.7h-.29Z"/>
    <path class="cls-1" d="M430.11,3475.26h22.25l11.5,13.21h4.34v8.8h-22.63v-8.8l5.72.59v-1.76h-13.21v1.76l5.72-.59v8.8h-18.37v-8.8h4.14l5.11-4.4h-4.58v-8.8Z"/>
    <path class="cls-1" d="M485.19,3475.26v8.8l-5.93-.59v1.76h13.62v-1.76l-5.93.59v-8.8h16.49v8.8h-3.79l-9.6,13.21h-13.62l-9.48-13.21h-3.76v-8.8h21.98Z"/>
    <path class="cls-1" d="M505.18,3475.26h22.25l11.5,13.21h4.34v8.8h-22.63v-8.8l5.72.59v-1.76h-13.21v1.76l5.72-.59v8.8h-18.37v-8.8h4.14l5.11-4.4h-4.58v-8.8Z"/>
    <path class="cls-1" d="M554.87,3497.56c-1.43,0-2.79-.24-4.08-.71s-2.44-1.15-3.43-2.04c-1-.89-1.78-1.98-2.35-3.27-.57-1.29-.85-2.76-.85-4.4,0-2.47.63-4.61,1.89-6.44,1.26-1.83,3.26-3.24,5.99-4.24,2.73-1,6.3-1.5,10.7-1.5,1.6,0,3.05.02,4.33.07s2.5.12,3.65.22c1.15.1,2.34.22,3.57.37s2.58.33,4.06.54v8.69h-21.72v2.2l22.69-1.53v11.74h-11.74v-5.93h-.29c-.96,1.94-2.45,3.46-4.48,4.56s-4.67,1.66-7.94,1.66Z"/>
    <path class="cls-1" d="M585.74,3475.26h22.25l11.5,13.21h4.34v8.8h-22.63v-8.8l5.72.59v-1.76h-13.21v1.76l5.72-.59v8.8h-18.37v-8.8h4.14l5.11-4.4h-4.58v-8.8Z"/>
    <path class="cls-1" d="M625.6,3497.27v-8.8h4.11v-4.4h-4.11v-8.8h18.08l5.37,5.43v-5.43h17.96v8.8h-3.82v13.21h-13.97l-5.37-5.25v5.25h-18.25ZM637.33,3485.94v3.67l3.73-.32-3.43-3.35h-.29ZM655.27,3487h.29v-3.67l-3.61.32,3.32,3.35Z"/>
    <path class="cls-1" d="M701.75,3497.27h-33.87v-8.8l10.71-3.23h-9.54v-9.98h31.52v8.8l-8.69,2.64h9.86v10.57ZM679.92,3482.3l.91,2.26,6.54-1.97v-.29h-7.45ZM682.27,3489.93h8.92l-1-2.7-7.92,2.41v.29Z"/>
    <path class="cls-1" d="M708.18,3475.26h22.25l11.5,13.21h4.34v8.8h-22.63v-8.8l5.72.59v-1.76h-13.21v1.76l5.72-.59v8.8h-18.37v-8.8h4.14l5.11-4.4h-4.58v-8.8Z"/>
    <path d="M753.99,3497.27v-8.8h4.11v-4.4h-4.11v-8.8h33.37v8.22l-17.52-.59v1.91l14.03-.5v3.52l-14.03-.53v2.05l18.4-.88v8.8h-34.25Z"/>
    <path d="M790,3497.27v-9.98l11.42.38-2.88-3.02-8.33.88v-10.27h15.91l4.2,4.34,1.12-4.34h14.67v9.69l-11.01-.38,2.79,2.88,8.57-.59v10.42h-15.99l-4.58-4.84-1.2,4.84h-14.67Z"/>
    <path d="M834.97,3497.27v-8.8h5.87v-6.02h-2.05l.88,4.7h-11.45v-11.89h36.98v11.89h-11.45l.88-4.7h-2.05v6.02h5.87v8.8h-23.48Z"/>
    <path d="M866.96,3497.27v-8.8h4.11v-4.4h-4.11v-8.8h29.73c3.09,0,5.39.45,6.9,1.34,1.51.89,2.26,2.35,2.26,4.39,0,1.08-.22,2.02-.65,2.85-.43.82-1.15,1.49-2.17,2-1.02.51-2.4.83-4.14.97l2.88,2.76,4.96-.59v8.31h-14.15l-3.73-5.4v5.4h-21.89ZM882.8,3482.89v1.76h8.75v-1.76l-4.37.59-4.37-.59ZM882.8,3488.32v1.91l4.58-.44-1-1.47h-3.58Z"/>
    <path d="M913.15,3475.26h22.25l11.5,13.21h4.34v8.8h-22.63v-8.8l5.72.59v-1.76h-13.21v1.76l5.72-.59v8.8h-18.37v-8.8h4.14l5.11-4.4h-4.58v-8.8Z"/>
  </g>
</svg>