<?xml version="1.0" encoding="UTF-8"?>
<svg id="Layer_1" data-name="Layer 1" xmlns="http://www.w3.org/2000/svg" viewBox="0 0 360 100">
  <defs>
    <style>
      .cls-1 {
        fill: #37f;
      }

      .cls-2 {
        fill: #fff;
      }
    </style>
  </defs>
  <g>
    <path d="M56.31,61.93v-10.95h5.11v-5.48h-5.11v-10.95h41.51v10.22l-21.79-.73v2.37l17.45-.62v4.38l-17.45-.66v2.55l22.89-1.09v10.95h-42.6Z"/>
    <path d="M101.1,61.93v-12.41l14.2.47-3.58-3.76-10.37,1.1v-12.78h19.79l5.22,5.4,1.39-5.4h18.25v12.05l-13.69-.47,3.47,3.58,10.66-.73v12.96h-19.9l-5.69-6.02-1.5,6.02h-18.25Z"/>
    <path d="M157.03,61.93v-10.95h7.3v-7.48h-2.56l1.1,5.84h-14.24v-14.79h46v14.79h-14.24l1.1-5.84h-2.56v7.48h7.3v10.95h-29.2Z"/>
    <path d="M196.82,61.93v-10.95h5.11v-5.48h-5.11v-10.95h36.98c3.85,0,6.7.55,8.58,1.66,1.87,1.11,2.81,2.93,2.81,5.46,0,1.34-.27,2.52-.8,3.54-.54,1.02-1.44,1.85-2.7,2.48-1.27.63-2.98,1.03-5.15,1.2l3.58,3.43,6.17-.73v10.33h-17.6l-4.64-6.72v6.72h-27.23ZM216.53,44.04v2.19h10.88v-2.19l-5.44.73-5.44-.73ZM216.53,50.8v2.37l5.69-.55-1.24-1.83h-4.45Z"/>
    <path d="M254.28,34.55h27.67l14.31,16.43h5.4v10.95h-28.15v-10.95l7.12.73v-2.19h-16.43v2.19l7.12-.73v10.95h-22.85v-10.95h5.15l6.35-5.48h-5.69v-10.95Z"/>
  </g>
  <g>
    <polygon class="cls-1" points="134.24 68.09 136.1 66.31 133.84 65.07 136.05 63.73 134.18 61.96 136.67 61.31 135.44 59.05 138.01 59.21 137.51 56.69 139.95 57.54 140.05 54.97 142.27 56.29 142.8 53.77 144.81 55.4 145.66 52.96 147.47 54.79 148.58 52.46 150.16 54.5 151.59 52.34 152.81 54.62 154.64 52.79 155.29 55.29 157.54 54.02 157.41 56.59 159.94 56.1 159.02 58.51 161.59 58.76 160.09 60.87 162.54 61.67 160.68 63.45 162.94 64.7 160.74 66.05 162.61 67.82 160.12 68.48 161.34 70.75 158.77 70.58 159.25 73.11 156.82 72.24 156.7 74.82 154.48 73.49 153.93 76.01 151.92 74.38 151.07 76.82 149.25 74.98 148.15 77.32 146.57 75.28 145.14 77.44 143.93 75.16 142.1 76.99 141.46 74.49 139.21 75.75 139.35 73.18 136.82 73.66 137.75 71.25 135.18 70.99 136.69 68.9 134.24 68.09"/>
    <g>
      <path class="cls-2" d="M143.76,65.95c-.49.11-.94.09-1.36-.05s-.78-.39-1.08-.75c-.3-.36-.51-.81-.63-1.35-.12-.52-.12-1,0-1.45.11-.45.33-.83.65-1.14.32-.31.72-.52,1.21-.63.49-.11.94-.1,1.37.05s.78.39,1.08.75c.3.35.5.79.62,1.31.12.54.13,1.03.01,1.49s-.33.83-.65,1.14c-.32.31-.72.52-1.21.63ZM143.54,64.99c.17-.04.31-.09.41-.14.1-.06.17-.15.2-.28s.03-.31,0-.55c-.03-.24-.09-.55-.18-.95-.09-.39-.17-.7-.24-.92-.07-.22-.15-.38-.24-.48-.08-.1-.18-.15-.3-.16-.12,0-.26,0-.43.05-.17.04-.31.09-.41.14-.1.06-.17.15-.2.27-.03.12-.04.3,0,.53.03.23.09.54.18.93.09.4.17.71.25.94.07.23.15.39.24.49s.19.16.3.16c.12,0,.26,0,.43-.05Z"/>
      <path class="cls-2" d="M149.07,64.75c-.71.16-1.31.09-1.81-.21-.5-.3-.83-.85-1.01-1.63l-.67-2.93,1.62-.37.81,3.57c.04.17.09.3.15.4.06.1.15.16.25.18.11.02.25.02.42-.02.19-.04.32-.1.41-.17.09-.07.14-.16.15-.27.01-.11,0-.25-.04-.42l-.81-3.57,1.46-.33.67,2.93c.18.79.12,1.43-.17,1.91-.3.48-.77.79-1.43.94Z"/>
      <path class="cls-2" d="M152.78,63.83l-.95-4.2-1.15.26-.23-1.02,3.79-.86.23,1.02-1.15.26.95,4.2-1.5.34Z"/>
      <path class="cls-2" d="M142.62,71.75l-.97-4.29,1.14-.26,1.81,1.75h.06s-.47-2.07-.47-2.07l1.11-.25.97,4.29-1.14.26-1.81-1.76h-.06s.47,2.08.47,2.08l-1.11.25Z"/>
      <path class="cls-2" d="M148.81,70.41c-.4.09-.78.08-1.13-.03-.35-.11-.65-.32-.9-.62-.25-.3-.42-.67-.52-1.12-.1-.43-.1-.83,0-1.19.1-.37.28-.68.54-.93.27-.26.6-.43,1-.52.41-.09.79-.08,1.14.04.35.12.65.32.89.61.24.29.42.65.51,1.08.1.45.11.86.01,1.23-.09.37-.27.69-.54.94-.26.25-.6.43-1.01.52ZM148.62,69.57c.13-.03.23-.06.3-.11.08-.04.12-.11.14-.21.02-.1.02-.24,0-.43-.03-.19-.08-.45-.15-.77-.07-.31-.13-.56-.19-.73-.05-.18-.11-.31-.18-.38-.06-.08-.13-.12-.22-.12-.09,0-.19,0-.32.03-.13.03-.23.06-.3.11-.08.04-.12.11-.15.21-.02.1-.02.24,0,.42s.08.43.15.74c.07.32.14.58.2.76.06.18.12.31.18.4.06.08.14.12.22.13.08,0,.19,0,.32-.03Z"/>
      <path class="cls-2" d="M151.95,69.63l-2.13-4.03,1.42-.32,1.01,2.01h.06s.03-2.26.03-2.26l1.12-.25,1.1,1.99h.06s-.06-2.24-.06-2.24l1.15-.26-.09,4.54-1.26.29-1.14-1.98h-.06s-.12,2.28-.12,2.28l-1.08.25Z"/>
    </g>
  </g>
</svg>