<?xml version="1.0" encoding="UTF-8"?>
<svg id="Layer_1" data-name="Layer 1" xmlns="http://www.w3.org/2000/svg" viewBox="0 0 360 100">
  <defs>
    <style>
      .cls-1 {
        fill: #fff;
      }

      .cls-2 {
        fill: #ff002a;
      }
    </style>
  </defs>
  <rect class="cls-2" width="360" height="100"/>
  <g>
    <path class="cls-1" d="M80.22,74.4c-1.35-.47-2.73-1.14-4.13-2.03l1.61-4.62c1.07.47,2.1.83,3.08,1.08.98.26,2.01.39,3.08.39,1.35,0,2.33-.29,2.94-.88.61-.58.91-1.37.91-2.35s-.14-1.94-.42-2.73c-.28-.79-.75-1.84-1.4-3.15l-5.53-11.2c-.84-1.68-1.59-3.37-2.24-5.07-.65-1.7-.98-3.49-.98-5.36s.43-3.51,1.29-5.08c.86-1.56,2.09-2.82,3.67-3.78,1.59-.96,3.48-1.44,5.67-1.44,1.54,0,2.86.14,3.95.42,1.1.28,2.18.75,3.26,1.4l-1.61,4.41c-.79-.37-1.49-.64-2.1-.81-.61-.16-1.31-.24-2.1-.24-1.21,0-2.09.33-2.62.98-.54.65-.8,1.49-.8,2.52s.2,1.96.6,2.8c.4.84.94,1.82,1.64,2.94l5.6,9.03c.89,1.4,1.62,2.71,2.21,3.92.58,1.21,1.04,2.47,1.37,3.78.33,1.31.49,2.78.49,4.41,0,2.1-.48,4.01-1.44,5.74-.96,1.73-2.31,3.09-4.06,4.1s-3.84,1.5-6.26,1.5-4.32-.23-5.67-.7Z"/>
    <path class="cls-1" d="M103.29,71.32c-1.75-2.52-2.62-6.18-2.62-10.99,0-4.53.91-7.98,2.73-10.36,1.82-2.38,4.32-3.57,7.49-3.57,1.21,0,2.38.22,3.5.67,1.12.44,2.05,1.06,2.8,1.85l-.98-.35v-3.57c0-1.26-.29-2.21-.88-2.83s-1.62-.94-3.11-.94c-2.43,0-4.78.49-7.07,1.47l-1.26-3.92c1.07-.7,2.36-1.26,3.85-1.68,1.49-.42,2.99-.63,4.48-.63,4.43,0,7.78,1.11,10.04,3.33,2.26,2.22,3.4,5.71,3.4,10.46v24.15h-7.63l-.98-4.06h-.28c-.7,1.68-1.67,2.89-2.9,3.64-1.24.75-2.67,1.12-4.31,1.12-2.43,0-4.51-1.26-6.26-3.78ZM115.54,67.96c.44-.79.66-2.26.66-4.41v-13.79l.42,1.54c-.51-.28-1.05-.5-1.61-.67-.56-.16-1.17-.25-1.82-.25-.75,0-1.34.28-1.79.84-.44.56-.77,1.52-.98,2.87s-.32,3.27-.32,5.74.11,4.51.32,5.84.55,2.24,1.01,2.73c.47.49,1.1.74,1.89.74,1.03,0,1.76-.4,2.21-1.19Z"/>
    <path class="cls-1" d="M139.3,70.2h-2.17l-.63,4.2h-6.65V27.15h9.45v43.05ZM139.3,63.48c0,2.29.21,3.91.63,4.87.42.96,1.17,1.43,2.24,1.43.79,0,1.44-.37,1.92-1.12.49-.75.84-2.16,1.05-4.23.21-2.08.32-5.15.32-9.21,0-2.89-.05-5.18-.14-6.86-.09-1.68-.26-2.94-.49-3.78-.23-.84-.56-1.39-.98-1.64-.42-.26-.96-.38-1.61-.38-.75,0-1.45.08-2.1.24-.65.16-1.24.41-1.75.74l-.56-1.4c.51-1.54,1.49-2.84,2.94-3.89,1.45-1.05,2.96-1.58,4.55-1.58,2.05,0,3.79.62,5.21,1.86,1.42,1.24,2.51,3.22,3.25,5.95.75,2.73,1.12,6.31,1.12,10.75,0,4.67-.41,8.45-1.23,11.34-.82,2.89-1.98,5-3.5,6.33s-3.35,2-5.5,2c-1.91,0-3.63-.62-5.14-1.86-1.52-1.24-2.58-3.28-3.19-6.12l2.94-3.43Z"/>
    <path class="cls-1" d="M165.59,73.73c-1.61-.91-2.95-2.22-4.02-3.92-1.07-1.7-1.88-3.73-2.42-6.09-.54-2.36-.8-4.96-.8-7.81s.27-5.38.8-7.73c.54-2.36,1.34-4.4,2.42-6.12,1.07-1.73,2.42-3.07,4.02-4.03,1.61-.96,3.51-1.43,5.71-1.43s4.1.48,5.71,1.43c1.61.96,2.95,2.3,4.03,4.03,1.07,1.73,1.88,3.77,2.42,6.12.54,2.36.8,4.93.8,7.73s-.27,5.45-.8,7.81c-.54,2.36-1.34,4.39-2.42,6.09-1.07,1.7-2.42,3.01-4.03,3.92-1.61.91-3.51,1.37-5.71,1.37s-4.09-.46-5.71-1.37ZM173.29,69.19c.44-.68.75-2.03.91-4.06.16-2.03.25-5.1.25-9.21s-.08-7.15-.25-9.27c-.16-2.12-.47-3.57-.91-4.34-.44-.77-1.11-1.16-2-1.16s-1.55.38-1.99,1.16c-.45.77-.75,2.22-.91,4.34-.16,2.12-.25,5.21-.25,9.27s.08,7.18.25,9.21c.16,2.03.46,3.38.91,4.06.44.68,1.11,1.01,1.99,1.01s1.55-.34,2-1.01Z"/>
    <path class="cls-1" d="M185.5,37.3h17.92l.84,4.2h-18.76v-4.2ZM191.31,72.37c-1.87-1.82-2.8-4.36-2.8-7.63V31.7l9.45-2.52v38.99c0,1.49.72,2.24,2.17,2.24.61,0,1.18-.07,1.71-.21.54-.14,1.11-.33,1.71-.56l1.26,3.78c-.98.61-1.95,1.04-2.9,1.3-.96.26-2.11.38-3.46.38-2.89,0-5.28-.91-7.14-2.73Z"/>
    <path class="cls-1" d="M208.29,71.32c-1.75-2.52-2.62-6.18-2.62-10.99,0-4.53.91-7.98,2.73-10.36,1.82-2.38,4.32-3.57,7.49-3.57,1.21,0,2.38.22,3.5.67,1.12.44,2.05,1.06,2.8,1.85l-.98-.35v-3.57c0-1.26-.29-2.21-.88-2.83s-1.62-.94-3.11-.94c-2.43,0-4.78.49-7.07,1.47l-1.26-3.92c1.07-.7,2.36-1.26,3.85-1.68,1.49-.42,2.99-.63,4.48-.63,4.43,0,7.78,1.11,10.04,3.33,2.26,2.22,3.39,5.71,3.39,10.46v24.15h-7.63l-.98-4.06h-.28c-.7,1.68-1.67,2.89-2.9,3.64-1.24.75-2.67,1.12-4.31,1.12-2.43,0-4.51-1.26-6.26-3.78ZM220.54,67.96c.44-.79.66-2.26.66-4.41v-13.79l.42,1.54c-.51-.28-1.05-.5-1.61-.67-.56-.16-1.17-.25-1.82-.25-.75,0-1.34.28-1.79.84-.44.56-.77,1.52-.98,2.87s-.32,3.27-.32,5.74.11,4.51.32,5.84.55,2.24,1.01,2.73c.47.49,1.1.74,1.89.74,1.03,0,1.76-.4,2.21-1.19Z"/>
    <path class="cls-1" d="M250.49,70.86c-.72,1.33-1.62,2.33-2.69,3.01-1.07.68-2.29,1.02-3.64,1.02-2.1,0-3.91-.63-5.43-1.89-1.52-1.26-2.67-3.2-3.46-5.81-.79-2.61-1.19-5.95-1.19-10.01,0-5.18.4-9.26,1.19-12.25s1.93-5.11,3.39-6.37c1.47-1.26,3.21-1.89,5.21-1.89,1.63,0,3.13.53,4.48,1.58s2.29,2.35,2.8,3.89l-.56,1.4c-.51-.33-1.1-.57-1.75-.74-.65-.16-1.35-.24-2.1-.24-.61,0-1.12.15-1.54.46s-.75.94-.98,1.92c-.23.98-.41,2.45-.53,4.41-.12,1.96-.18,4.57-.18,7.84,0,3.5.11,6.16.32,7.98.21,1.82.56,3.04,1.05,3.67.49.63,1.13.95,1.93.95,1.07,0,1.82-.36,2.24-1.08.42-.72.63-1.79.63-3.18l2.17.35c-.19,2.01-.64,3.67-1.37,5ZM240.87,86.09c-1.73-.61-3.34-1.56-4.83-2.87l1.61-3.71c1.17.65,2.25,1.14,3.25,1.47,1,.33,2.18.49,3.54.49,3.5,0,5.25-1.94,5.25-5.81v-34.16h.91l.63-4.2h7.91v35c0,4.34-1.02,7.88-3.04,10.6-2.03,2.73-5.31,4.09-9.84,4.09-1.87,0-3.66-.3-5.39-.91Z"/>
    <path class="cls-1" d="M268.76,72.65c-1.98-1.63-3.44-3.87-4.38-6.72s-1.4-6.11-1.4-9.8c0-4.01.44-7.48,1.33-10.4.89-2.92,2.25-5.17,4.1-6.75,1.84-1.59,4.16-2.38,6.96-2.38s4.79.69,6.4,2.06c1.61,1.38,2.79,3.14,3.54,5.29.75,2.15,1.12,4.39,1.12,6.72,0,2.66-.49,4.94-1.47,6.83-.98,1.89-2.25,3.33-3.81,4.31-1.56.98-3.19,1.47-4.87,1.47-1.45,0-2.75-.26-3.92-.77-1.17-.51-2.08-1.35-2.73-2.52l.84-1.75c.75.42,1.45.71,2.1.88.65.16,1.42.25,2.31.25.84,0,1.49-.2,1.96-.59s.79-1.18.98-2.35c.19-1.17.28-2.89.28-5.18,0-2.71-.07-4.78-.21-6.23-.14-1.45-.38-2.45-.73-3.01-.35-.56-.85-.84-1.51-.84-.56,0-1.03.2-1.4.59-.37.4-.68,1.12-.91,2.17-.23,1.05-.41,2.56-.52,4.52-.12,1.96-.18,4.53-.18,7.7,0,4.01.13,7.05.38,9.1.26,2.05.72,3.43,1.4,4.13.68.7,1.64,1.05,2.9,1.05,1.35,0,2.64-.2,3.85-.59,1.21-.4,2.4-.9,3.57-1.5l1.4,3.71c-1.4.89-2.85,1.62-4.34,2.21-1.49.58-3.34.88-5.53.88-3.04,0-5.54-.82-7.53-2.45Z"/>
  </g>
</svg>