<?xml version="1.0" encoding="UTF-8"?>
<svg id="Layer_1" data-name="Layer 1" xmlns="http://www.w3.org/2000/svg" viewBox="0 0 360 100">
  <path d="M115.76,74.28c-1.17-.4-2.24-.95-3.2-1.64l.56-1.52c1.01.59,2.03,1.04,3.04,1.36,1.01.32,2.16.48,3.44.48,1.55,0,2.92-.55,4.12-1.64,1.2-1.09,1.8-2.76,1.8-5,0-1.76-.21-3.43-.64-5-.43-1.57-.96-3.16-1.6-4.76l-7.28-20.88c-.48-1.49-.87-2.76-1.16-3.8-.29-1.04-.44-2.25-.44-3.64,0-1.23.27-2.33.8-3.32.53-.99,1.31-1.79,2.32-2.4,1.01-.61,2.21-.92,3.6-.92.91,0,1.73.08,2.48.24.75.16,1.52.48,2.32.96l-.56,1.52c-.69-.32-1.33-.56-1.92-.72-.59-.16-1.25-.24-2-.24-1.28,0-2.25.4-2.92,1.2-.67.8-1,1.92-1,3.36,0,1.01.11,1.95.32,2.8.21.85.51,1.79.88,2.8l7.2,20.32c.64,1.81,1.19,3.36,1.64,4.64.45,1.28.8,2.48,1.04,3.6.24,1.12.36,2.37.36,3.76,0,1.49-.35,2.95-1.04,4.36-.69,1.41-1.71,2.55-3.04,3.4-1.33.85-2.99,1.28-4.96,1.28-1.6,0-2.99-.2-4.16-.6Z"/>
  <path d="M133.72,71c-1.2-2.59-1.8-6.95-1.8-13.08,0-5.6.6-9.63,1.8-12.08,1.2-2.45,2.84-3.68,4.92-3.68.85,0,1.64.16,2.36.48.72.32,1.32.77,1.8,1.36l-.4.16v-4.32c0-2.24-.24-3.79-.72-4.64-.48-.85-1.44-1.28-2.88-1.28-1.33,0-2.61.29-3.84.88l-.56-1.28c.64-.48,1.33-.83,2.08-1.04.75-.21,1.52-.32,2.32-.32,2.51,0,4.27.77,5.28,2.32,1.01,1.55,1.52,3.87,1.52,6.96v32.96h-2.56l-.32-4.96h-.32c-.37,1.81-.96,3.17-1.76,4.08s-1.73,1.36-2.8,1.36c-1.55,0-2.92-1.29-4.12-3.88ZM141.4,70.16c.67-1.87,1-4.43,1-7.68v-18l.24.56c-.59-.53-1.15-.91-1.68-1.12-.53-.21-1.15-.32-1.84-.32-.85,0-1.56.41-2.12,1.24s-1,2.25-1.32,4.28c-.32,2.03-.48,4.93-.48,8.72,0,4.11.12,7.24.36,9.4.24,2.16.61,3.65,1.12,4.48.51.83,1.13,1.24,1.88,1.24,1.23,0,2.17-.93,2.84-2.8Z"/>
  <path d="M153.44,69.6h-1.04l-.24,4.8h-1.92V20.4h3.2v49.2ZM153.44,64.24c0,3.41.32,5.73.96,6.96.64,1.23,1.47,1.84,2.48,1.84.91,0,1.69-.63,2.36-1.88.67-1.25,1.19-3.37,1.56-6.36.37-2.99.56-7.09.56-12.32,0-3.63-.07-6.61-.2-8.96-.13-2.35-.39-4.21-.76-5.6-.37-1.39-.84-2.36-1.4-2.92-.56-.56-1.24-.84-2.04-.84-.91,0-1.73.37-2.48,1.12-.75.75-1.33,1.79-1.76,3.12l-.24-.72c.32-1.76,1-3.11,2.04-4.04,1.04-.93,2.07-1.4,3.08-1.4,1.55,0,2.83.57,3.84,1.72,1.01,1.15,1.79,3.2,2.32,6.16.53,2.96.8,7.08.8,12.36s-.27,9.8-.8,13.08c-.53,3.28-1.33,5.64-2.4,7.08-1.07,1.44-2.43,2.16-4.08,2.16-1.39,0-2.53-.69-3.44-2.08-.91-1.39-1.41-3.23-1.52-5.52l1.12-2.96Z"/>
  <path d="M171.88,72.92c-.99-1.31-1.75-3.04-2.28-5.2-.53-2.16-.91-4.51-1.12-7.04-.21-2.53-.32-5-.32-7.4,0-2.24.11-4.57.32-7,.21-2.43.59-4.71,1.12-6.84.53-2.13,1.29-3.88,2.28-5.24.99-1.36,2.28-2.04,3.88-2.04s2.81.68,3.8,2.04c.99,1.36,1.75,3.11,2.28,5.24.53,2.13.91,4.41,1.12,6.84.21,2.43.32,4.76.32,7,0,2.4-.11,4.87-.32,7.4-.21,2.53-.59,4.88-1.12,7.04-.53,2.16-1.29,3.89-2.28,5.2-.99,1.31-2.25,1.96-3.8,1.96s-2.89-.65-3.88-1.96ZM178.48,70.52c.59-1.73.96-4.09,1.12-7.08.16-2.99.24-6.37.24-10.16s-.08-6.89-.24-9.8c-.16-2.91-.53-5.24-1.12-7-.59-1.76-1.49-2.64-2.72-2.64s-2.2.88-2.76,2.64-.93,4.09-1.12,7c-.19,2.91-.28,6.17-.28,9.8s.09,7.17.28,10.16c.19,2.99.56,5.35,1.12,7.08.56,1.73,1.48,2.6,2.76,2.6s2.13-.87,2.72-2.6Z"/>
  <path d="M184.96,32.64h10.88l.4,1.6h-11.28v-1.6ZM188.96,73c-.85-1.25-1.28-2.87-1.28-4.84V26.48l3.2-.88v44.64c0,1.97.83,2.96,2.48,2.96.69,0,1.24-.08,1.64-.24.4-.16.92-.4,1.56-.72l.56,1.2c-.69.48-1.36.84-2,1.08-.64.24-1.39.36-2.24.36-1.76,0-3.07-.63-3.92-1.88Z"/>
  <path d="M199.4,71c-1.2-2.59-1.8-6.95-1.8-13.08,0-5.6.6-9.63,1.8-12.08,1.2-2.45,2.84-3.68,4.92-3.68.85,0,1.64.16,2.36.48.72.32,1.32.77,1.8,1.36l-.4.16v-4.32c0-2.24-.24-3.79-.72-4.64-.48-.85-1.44-1.28-2.88-1.28-1.33,0-2.61.29-3.84.88l-.56-1.28c.64-.48,1.33-.83,2.08-1.04.75-.21,1.52-.32,2.32-.32,2.51,0,4.27.77,5.28,2.32,1.01,1.55,1.52,3.87,1.52,6.96v32.96h-2.56l-.32-4.96h-.32c-.37,1.81-.96,3.17-1.76,4.08s-1.73,1.36-2.8,1.36c-1.55,0-2.92-1.29-4.12-3.88ZM207.08,70.16c.67-1.87,1-4.43,1-7.68v-18l.24.56c-.59-.53-1.15-.91-1.68-1.12-.53-.21-1.15-.32-1.84-.32-.85,0-1.56.41-2.12,1.24s-1,2.25-1.32,4.28c-.32,2.03-.48,4.93-.48,8.72,0,4.11.12,7.24.36,9.4.24,2.16.61,3.65,1.12,4.48.51.83,1.13,1.24,1.88,1.24,1.23,0,2.17-.93,2.84-2.8Z"/>
  <path d="M226.28,70.08c-.35,1.44-.88,2.59-1.6,3.44-.72.85-1.72,1.28-3,1.28s-2.49-.65-3.48-1.96c-.99-1.31-1.75-3.49-2.28-6.56-.53-3.07-.8-7.21-.8-12.44,0-5.65.28-10.04.84-13.16s1.37-5.31,2.44-6.56c1.07-1.25,2.27-1.88,3.6-1.88s2.44.43,3.32,1.28c.88.85,1.48,1.87,1.8,3.04l-.08.8c-.53-.96-1.12-1.73-1.76-2.32-.64-.59-1.47-.88-2.48-.88-.8,0-1.47.36-2,1.08-.53.72-1,1.87-1.4,3.44s-.68,3.61-.84,6.12-.24,5.52-.24,9.04c0,4.8.15,8.6.44,11.4.29,2.8.73,4.8,1.32,6,.59,1.2,1.31,1.8,2.16,1.8,1.23,0,2.21-.87,2.96-2.6.75-1.73,1.12-3.8,1.12-6.2l.8.96c-.21,1.81-.49,3.44-.84,4.88ZM219.4,85.28c-.93-.37-1.88-.96-2.84-1.76l.64-1.28c.75.53,1.48.95,2.2,1.24.72.29,1.61.44,2.68.44,2.83,0,4.24-1.81,4.24-5.44v-42.88h.24l.48-2.96h2.48v44.48c0,2.51-.55,4.59-1.64,6.24-1.09,1.65-2.92,2.48-5.48,2.48-1.07,0-2.07-.19-3-.56Z"/>
  <path d="M236.48,72.16c-1.01-1.81-1.71-4.32-2.08-7.52-.37-3.2-.56-6.91-.56-11.12,0-5.28.27-9.48.8-12.6.53-3.12,1.32-5.36,2.36-6.72,1.04-1.36,2.31-2.04,3.8-2.04s2.64.56,3.6,1.68c.96,1.12,1.71,2.76,2.24,4.92.53,2.16.8,4.89.8,8.2,0,3.79-.32,6.77-.96,8.96-.64,2.19-1.48,3.72-2.52,4.6s-2.2,1.32-3.48,1.32c-1.01,0-1.92-.19-2.72-.56-.8-.37-1.52-.88-2.16-1.52l.4-.56c.75.43,1.43.72,2.04.88.61.16,1.32.24,2.12.24,1.07,0,1.92-.33,2.56-1,.64-.67,1.08-1.96,1.32-3.88s.36-4.72.36-8.4-.16-6.55-.48-8.44c-.32-1.89-.75-3.16-1.28-3.8-.53-.64-1.12-.96-1.76-.96-.53,0-1.03.24-1.48.72-.45.48-.84,1.4-1.16,2.76-.32,1.36-.56,3.33-.72,5.92-.16,2.59-.24,6.01-.24,10.28,0,4.59.07,8.33.2,11.24.13,2.91.48,5.04,1.04,6.4.56,1.36,1.45,2.04,2.68,2.04.91,0,1.72-.15,2.44-.44.72-.29,1.43-.68,2.12-1.16l.48,1.36c-.75.59-1.53,1.05-2.36,1.4-.83.35-1.77.52-2.84.52-2.03,0-3.55-.91-4.56-2.72Z"/>
</svg>