<?xml version="1.0" encoding="UTF-8"?>
<svg id="Layer_1" data-name="Layer 1" xmlns="http://www.w3.org/2000/svg" viewBox="0 0 360 100">
  <path d="M105.37,66.29c1.47.35,2.81.64,4,.88,1.19.24,2.42.41,3.67.52,1.26.11,2.69.16,4.29.16,1.86,0,3.29-.21,4.29-.62,1-.41,1.7-1.13,2.11-2.14.41-1.02.62-2.44.62-4.26,0-1.65-.14-2.91-.42-3.8-.28-.89-.76-1.56-1.43-2.02-.67-.46-1.57-.81-2.7-1.07l-4.16-1.04c-3.9-1-6.65-2.65-8.25-4.97-1.6-2.32-2.41-5.21-2.41-8.68s1.19-6.39,3.58-8.64c2.38-2.25,5.74-3.38,10.08-3.38,1.3,0,2.43.03,3.38.1.95.06,1.93.16,2.92.29,1,.13,2.19.3,3.58.52v5.13c-1.56-.22-2.86-.39-3.9-.52-1.04-.13-2-.22-2.89-.26-.89-.04-1.92-.06-3.09-.06-1.82,0-3.2.18-4.13.55-.93.37-1.56,1.04-1.88,2.02-.33.97-.49,2.39-.49,4.26,0,1.47.1,2.69.29,3.64.19.95.57,1.71,1.14,2.27.56.56,1.39.98,2.47,1.24l5.33,1.24c3.25.78,5.75,2.35,7.51,4.71,1.75,2.36,2.63,5.19,2.63,8.48,0,3.55-1.21,6.48-3.64,8.78-2.43,2.3-5.92,3.45-10.47,3.45-1.65,0-3.1-.04-4.35-.13-1.26-.09-2.48-.25-3.67-.49-1.19-.24-2.52-.53-4-.88v-5.27Z"/>
  <path d="M142.97,70.94c-2.19-1.41-3.87-3.37-5.04-5.88-1.17-2.51-1.76-5.42-1.76-8.71,0-3.94.58-7.25,1.76-9.91,1.17-2.67,2.81-4.69,4.91-6.08,2.1-1.39,4.54-2.08,7.31-2.08s5.37.8,7.54,2.41c2.17,1.6,3.74,3.93,4.71,6.99.98,3.05,1.12,6.77.42,11.15h-22.1v-4.55h19.37l-2.67.91c0-3.55-.22-6.18-.65-7.86-.43-1.69-1.17-2.81-2.21-3.35-1.04-.54-2.51-.81-4.42-.81-1.39,0-2.55.14-3.48.42-.93.28-1.67.87-2.21,1.75-.54.89-.92,2.21-1.14,3.96-.22,1.75-.33,4.11-.33,7.05,0,3.34.21,5.83.62,7.47.41,1.65,1.19,2.73,2.34,3.25,1.15.52,2.83.78,5.04.78,1.34,0,2.53-.07,3.57-.2s2.1-.33,3.19-.62c1.08-.28,2.34-.64,3.77-1.07v5.33c-1.91.61-3.62,1.05-5.13,1.33-1.52.28-3.34.42-5.46.42-3.12,0-5.77-.7-7.96-2.11Z"/>
  <path d="M174.46,38.93l1.11,3.9-1.04-.65c1.13-1.26,2.53-2.22,4.22-2.89,1.69-.67,3.77-1.01,6.24-1.01,3.51,0,6.27,1.08,8.29,3.25,2.01,2.17,3.02,5.22,3.02,9.17v21.71h-6.83v-22.94c0-2.17-.46-3.69-1.36-4.58-.91-.89-2.45-1.33-4.62-1.33-1.56,0-3.03.11-4.42.33-1.39.22-2.84.63-4.35,1.24l1.1-1.62v28.92h-6.83v-33.47h5.46Z"/>
  <path d="M201.44,69.15l15.4-25.09v-.26h-13.58v-4.88h22.1v3.25l-15.21,25.15v.2h16.9v4.88h-25.61v-3.25Z"/>
  <path d="M253.24,55.69h-10.47c-2.08,0-3.53.46-4.35,1.37-.82.91-1.24,2.58-1.24,5s.41,4.04,1.24,4.84c.82.8,2.3,1.2,4.42,1.2,1.86,0,3.39-.12,4.58-.36,1.19-.24,2.39-.59,3.61-1.07l1.5,1.95c-2.99,2.95-6.74,4.42-11.25,4.42-2.04,0-3.89-.42-5.56-1.27-1.67-.85-2.98-2.07-3.93-3.67-.95-1.6-1.43-3.49-1.43-5.66,0-3.55,1.3-6.33,3.9-8.32s6.26-2.99,10.99-2.99h8v4.55ZM233.93,39.51c1.52-.43,3.09-.75,4.71-.94,1.62-.2,3.28-.29,4.97-.29,4.33,0,7.6.97,9.81,2.92s3.32,4.9,3.32,8.84v22.36h-4.49l-2.34-4.81v-18.78c0-2.12-.45-3.6-1.33-4.42-.89-.82-2.55-1.24-4.97-1.24-1.56,0-3.13.1-4.71.29-1.58.19-3.24.53-4.97,1.01v-4.94Z"/>
</svg>