<?xml version="1.0" encoding="UTF-8"?>
<svg id="Layer_1" data-name="Layer 1" xmlns="http://www.w3.org/2000/svg" viewBox="0 0 360 100">
  <path d="M99.86,71.49v-5.67c1.59.37,3.02.69,4.31.95,1.28.26,2.6.44,3.95.56,1.35.12,2.89.17,4.62.17,2.01,0,3.52-.22,4.55-.67,1.03-.44,1.73-1.21,2.1-2.31.37-1.1.56-2.62.56-4.58,0-1.77-.13-3.14-.38-4.09-.26-.96-.71-1.69-1.37-2.21-.65-.51-1.59-.91-2.8-1.19l-4.48-1.12c-4.2-1.07-7.16-2.85-8.89-5.32-1.73-2.47-2.59-5.58-2.59-9.31s1.28-6.88,3.85-9.31c2.57-2.43,6.18-3.64,10.85-3.64,1.4,0,2.61.04,3.64.11,1.03.07,2.08.17,3.15.31,1.07.14,2.36.33,3.85.56v5.53c-1.68-.23-3.08-.42-4.2-.56-1.12-.14-2.16-.23-3.12-.28-.96-.05-2.06-.07-3.33-.07-1.96,0-3.44.2-4.44.59-1,.4-1.68,1.12-2.03,2.17-.35,1.05-.53,2.58-.53,4.58,0,1.59.1,2.89.32,3.92.21,1.03.62,1.84,1.22,2.45.61.61,1.49,1.05,2.66,1.33l5.74,1.33c3.5.84,6.19,2.53,8.08,5.08,1.89,2.54,2.83,5.59,2.83,9.13,0,3.83-1.31,6.98-3.92,9.45-2.61,2.47-6.37,3.71-11.27,3.71-1.77,0-3.34-.05-4.69-.14-1.35-.09-2.67-.27-3.95-.52-1.28-.26-2.72-.57-4.31-.95Z"/>
  <path d="M147.88,73.1c-3.36,0-6.22-.76-8.58-2.28-2.36-1.52-4.17-3.63-5.42-6.33-1.26-2.71-1.89-5.83-1.89-9.38,0-4.25.63-7.8,1.89-10.67,1.26-2.87,3.02-5.05,5.29-6.54,2.26-1.49,4.89-2.24,7.88-2.24s5.79.86,8.12,2.59c2.33,1.73,4.03,4.24,5.08,7.53s1.2,7.29.46,12h-23.8v-4.9h20.86l-2.87.98c0-3.83-.23-6.65-.7-8.47-.47-1.82-1.26-3.02-2.38-3.61-1.12-.58-2.71-.88-4.76-.88-1.49,0-2.74.15-3.75.46-1,.3-1.8.93-2.38,1.89-.58.96-.99,2.38-1.23,4.27-.23,1.89-.35,4.42-.35,7.59,0,3.59.22,6.28.67,8.05.44,1.77,1.28,2.94,2.52,3.5,1.24.56,3.04.84,5.42.84,1.45,0,2.73-.07,3.85-.21,1.12-.14,2.26-.36,3.43-.67,1.17-.3,2.52-.69,4.06-1.15v5.74c-2.05.65-3.9,1.13-5.53,1.44-1.63.3-3.59.46-5.88.46Z"/>
  <path d="M166.99,36.35h5.88l1.19,4.2-1.12-.7c1.21-1.35,2.73-2.39,4.55-3.12,1.82-.72,4.06-1.08,6.72-1.08,3.78,0,6.75,1.17,8.92,3.5,2.17,2.33,3.25,5.62,3.25,9.87v23.38h-7.35v-24.71c0-2.33-.49-3.98-1.47-4.93-.98-.96-2.64-1.44-4.97-1.44-1.68,0-3.27.12-4.76.35-1.49.23-3.06.68-4.69,1.33l1.19-1.75v31.15h-7.35v-36.05Z"/>
  <path d="M201.78,72.4v-3.5l16.59-27.02v-.28h-14.63v-5.25h23.8v3.5l-16.38,27.09v.21h18.2v5.25h-27.58Z"/>
  <path d="M257.28,49.51v4.9h-11.27c-2.24,0-3.8.49-4.69,1.47-.89.98-1.33,2.78-1.33,5.39s.44,4.35,1.33,5.21c.89.86,2.47,1.29,4.76,1.29,2.01,0,3.65-.13,4.93-.38,1.28-.26,2.58-.64,3.88-1.16l1.61,2.1c-3.22,3.17-7.26,4.76-12.11,4.76-2.19,0-4.19-.46-5.98-1.37-1.8-.91-3.21-2.23-4.24-3.96-1.03-1.73-1.54-3.76-1.54-6.09,0-3.83,1.4-6.81,4.2-8.96s6.74-3.22,11.83-3.22h8.61ZM236.49,42.3v-5.32c1.63-.47,3.32-.8,5.07-1.01s3.54-.32,5.36-.32c4.67,0,8.19,1.05,10.57,3.15,2.38,2.1,3.57,5.27,3.57,9.52v24.08h-4.83l-2.52-5.18v-20.23c0-2.29-.48-3.87-1.44-4.76-.96-.89-2.74-1.33-5.35-1.33-1.68,0-3.37.11-5.08.32-1.7.21-3.49.57-5.35,1.08Z"/>
</svg>