<?xml version="1.0" encoding="UTF-8"?>
<svg id="Layer_1" data-name="Layer 1" xmlns="http://www.w3.org/2000/svg" viewBox="0 0 360 100">
  <defs>
    <style>
      .cls-1 {
        fill: #fff;
      }

      .cls-2 {
        fill: #ff002a;
      }
    </style>
  </defs>
  <rect class="cls-2" width="360" height="100"/>
  <g>
    <path class="cls-1" d="M93.8,62.97c1.73.52,3.26.94,4.58,1.27,1.32.33,2.62.56,3.9.71,1.28.15,2.67.23,4.19.23s2.75-.1,3.58-.29c.82-.19,1.39-.59,1.69-1.2.3-.61.46-1.5.46-2.67s-.12-2.13-.36-2.76c-.24-.63-.67-1.14-1.3-1.53-.63-.39-1.55-.8-2.76-1.24l-3.84-1.43c-3.12-1.17-5.6-2.95-7.44-5.33-1.84-2.38-2.76-5.33-2.76-8.84,0-4.29,1.45-7.69,4.36-10.21,2.9-2.51,7.21-3.77,12.94-3.77,1.43,0,2.76.05,4,.16,1.24.11,2.47.29,3.71.55s2.5.58,3.8.97v7.28c-1.3-.35-2.5-.63-3.61-.84-1.1-.22-2.17-.38-3.18-.49-1.02-.11-2.13-.16-3.35-.16-1.3,0-2.3.12-2.99.36-.69.24-1.17.66-1.43,1.27-.26.61-.39,1.52-.39,2.73s.1,2.13.29,2.76c.19.63.56,1.12,1.1,1.46.54.35,1.31.69,2.31,1.04l4.55,1.56c3.21,1.08,5.72,2.72,7.54,4.91,1.82,2.19,2.73,5.32,2.73,9.39,0,4.64-1.55,8.16-4.65,10.56-3.1,2.4-7.36,3.61-12.77,3.61-1.78,0-3.49-.09-5.14-.26-1.65-.17-3.26-.43-4.84-.78s-3.22-.78-4.91-1.3v-7.73Z"/>
    <path class="cls-1" d="M138.09,71.1c-2.58-1.3-4.6-3.22-6.08-5.75-1.47-2.54-2.21-5.69-2.21-9.46,0-4.2.73-7.65,2.18-10.33,1.45-2.69,3.42-4.68,5.92-5.98,2.49-1.3,5.3-1.95,8.42-1.95,3.6,0,6.6.85,9,2.54,2.4,1.69,4.1,4.13,5.1,7.31,1,3.19,1.11,6.99.33,11.41h-20.02v-5.53h14.04l-4.94,2.14c0-3.29-.08-5.72-.23-7.28-.15-1.56-.48-2.58-.97-3.06-.5-.48-1.27-.71-2.31-.71-.74,0-1.34.11-1.82.33-.48.22-.83.67-1.07,1.37-.24.69-.4,1.78-.49,3.25-.09,1.47-.13,3.49-.13,6.04,0,2.82.14,4.93.42,6.34.28,1.41.8,2.34,1.56,2.8.76.45,1.81.68,3.15.68s2.54-.04,3.71-.13c1.17-.09,2.38-.24,3.64-.46,1.26-.22,2.64-.5,4.16-.84v7.34c-2.17.61-4.25,1.07-6.24,1.4-1.99.33-4.05.49-6.17.49-3.38,0-6.36-.65-8.94-1.95Z"/>
    <path class="cls-1" d="M176.41,38.27l1.88,4.62h-2.08c1.34-1.78,2.91-3.1,4.71-3.96,1.8-.87,4-1.3,6.6-1.3,3.99,0,7.01,1.08,9.07,3.25,2.06,2.17,3.09,5.24,3.09,9.23v22.29h-13.65v-23.01c0-1.6-.23-2.67-.68-3.19-.46-.52-1.57-.78-3.35-.78-1.04,0-1.93.04-2.66.13-.74.09-1.52.24-2.34.46l1.88-2.47v28.86h-13.65v-34.12h11.18Z"/>
    <path class="cls-1" d="M203.19,68.11l11.7-22.36-.13-.32h-10.14v-7.15h25.67v4.55l-12.09,22.03.19.39h12.68v7.15h-27.88v-4.29Z"/>
    <path class="cls-1" d="M256.55,55.3h-6.83c-1.21,0-2.01.33-2.4.97-.39.65-.59,2.19-.59,4.62,0,2.25.2,3.71.59,4.35.39.65,1.19.98,2.4.98,1.08,0,1.99-.09,2.73-.26.74-.17,1.65-.46,2.73-.85l.26.65c-1.56,4.85-5.05,7.28-10.46,7.28-2.38,0-4.44-.48-6.18-1.43-1.73-.95-3.07-2.3-4-4.03s-1.4-3.75-1.4-6.05c0-3.86,1.35-6.78,4.06-8.77,2.71-1.99,6.66-2.99,11.86-2.99h7.21v5.52ZM238.16,38.79c1.52-.48,3.15-.84,4.91-1.1s3.54-.39,5.36-.39c6.2,0,10.76,1.16,13.68,3.48s4.39,6.36,4.39,12.12v19.5h-10.92l-2.4-6.3v-16.83c0-1.86-.31-3.13-.94-3.8-.63-.67-1.9-1.01-3.8-1.01-1.73,0-3.38.08-4.94.23-1.56.15-3.29.47-5.2.94l-.13-6.83Z"/>
  </g>
</svg>