<?xml version="1.0" encoding="UTF-8"?>
<svg id="Layer_1" data-name="Layer 1" xmlns="http://www.w3.org/2000/svg" viewBox="0 0 360 100">
  <defs>
    <style>
      .cls-1 {
        fill: #fff;
      }

      .cls-2 {
        fill: #ff002a;
      }
    </style>
  </defs>
  <rect class="cls-2" width="360" height="100"/>
  <g>
    <path class="cls-1" d="M88.46,73.49v-8.61c1.54.42,2.99.76,4.34,1.01,1.35.26,2.71.44,4.06.56,1.35.12,2.8.18,4.34.18,1.63,0,2.88-.11,3.75-.32.86-.21,1.46-.62,1.78-1.22s.49-1.47.49-2.59c0-1.26-.12-2.21-.35-2.83-.23-.63-.67-1.13-1.29-1.5-.63-.37-1.55-.79-2.77-1.26l-4.2-1.68c-3.36-1.35-6.02-3.31-7.98-5.88s-2.94-5.81-2.94-9.73c0-4.85,1.56-8.61,4.69-11.27,3.13-2.66,7.77-3.99,13.93-3.99,1.59,0,3.04.05,4.38.14,1.33.09,2.64.23,3.92.42,1.28.19,2.65.44,4.1.77v7.84c-1.54-.33-2.92-.56-4.13-.7-1.21-.14-2.35-.25-3.4-.31-1.05-.07-2.18-.11-3.39-.11-1.4,0-2.47.13-3.22.38-.75.26-1.26.74-1.54,1.44-.28.7-.42,1.68-.42,2.94,0,1.35.12,2.37.35,3.04.23.68.65,1.19,1.26,1.54.61.35,1.45.76,2.52,1.23l4.76,1.96c3.36,1.4,6,3.21,7.91,5.42,1.91,2.22,2.87,5.42,2.87,9.62,0,4.99-1.52,8.76-4.55,11.3-3.03,2.54-7.44,3.82-13.23,3.82-2.05,0-4-.06-5.85-.17-1.84-.12-3.59-.3-5.25-.56s-3.3-.55-4.93-.88Z"/>
    <path class="cls-1" d="M144.39,75.1c-3.64,0-6.85-.7-9.62-2.1-2.78-1.4-4.96-3.46-6.54-6.19-1.59-2.73-2.38-6.12-2.38-10.19,0-4.53.78-8.24,2.34-11.13,1.56-2.89,3.69-5.04,6.37-6.44,2.68-1.4,5.71-2.1,9.06-2.1,3.87,0,7.11.91,9.7,2.73,2.59,1.82,4.42,4.44,5.5,7.88,1.07,3.43,1.19,7.52.35,12.29h-21.56v-5.95h15.12l-5.32,2.31c0-3.55-.08-6.16-.25-7.84-.16-1.68-.51-2.78-1.05-3.29-.54-.51-1.37-.77-2.49-.77-.79,0-1.45.12-1.96.35-.51.23-.9.72-1.15,1.47-.26.75-.43,1.91-.53,3.5-.09,1.59-.14,3.76-.14,6.51,0,3.03.15,5.31.46,6.82.3,1.52.86,2.52,1.68,3.01.82.49,1.95.73,3.39.73s2.73-.05,3.99-.14c1.26-.09,2.57-.26,3.92-.49,1.35-.23,2.85-.54,4.48-.91v7.91c-2.33.65-4.57,1.16-6.72,1.5-2.15.35-4.36.53-6.65.53Z"/>
    <path class="cls-1" d="M163.57,37.65h12.04l2.03,4.97h-2.24c1.45-1.91,3.14-3.34,5.08-4.27,1.94-.93,4.3-1.4,7.1-1.4,4.29,0,7.55,1.17,9.76,3.5,2.22,2.33,3.33,5.65,3.33,9.94v24.01h-14.7v-24.78c0-1.73-.24-2.87-.73-3.43s-1.69-.84-3.61-.84c-1.12,0-2.08.05-2.87.14-.79.09-1.63.26-2.52.49l2.03-2.66v31.08h-14.7v-36.75Z"/>
    <path class="cls-1" d="M204.52,74.4v-4.62l12.6-24.08-.14-.35h-10.92v-7.7h27.65v4.9l-13.02,23.73.21.42h13.65v7.7h-30.03Z"/>
    <path class="cls-1" d="M261.71,50.04v5.95h-7.35c-1.31,0-2.17.35-2.59,1.05-.42.7-.63,2.36-.63,4.97,0,2.43.21,3.99.63,4.69.42.7,1.28,1.05,2.59,1.05,1.17,0,2.15-.09,2.94-.28.79-.19,1.77-.49,2.94-.91l.28.7c-1.68,5.23-5.44,7.84-11.27,7.84-2.57,0-4.78-.51-6.65-1.54-1.87-1.03-3.3-2.47-4.3-4.34-1-1.87-1.5-4.04-1.5-6.51,0-4.15,1.46-7.3,4.38-9.45,2.92-2.15,7.17-3.22,12.78-3.22h7.77ZM242.04,45.56l-.14-7.35c1.63-.51,3.39-.91,5.28-1.19,1.89-.28,3.82-.42,5.78-.42,6.67,0,11.58,1.25,14.74,3.75,3.15,2.5,4.72,6.85,4.72,13.05v21h-11.76l-2.59-6.79v-18.13c0-2.01-.34-3.37-1.02-4.09s-2.04-1.08-4.09-1.08c-1.87,0-3.64.08-5.32.24-1.68.16-3.55.5-5.6,1.02Z"/>
  </g>
</svg>