<?xml version="1.0" encoding="UTF-8"?>
<svg id="Layer_1" xmlns="http://www.w3.org/2000/svg" version="1.1" viewBox="0 0 36 24.5">
  <!-- Generator: Adobe Illustrator 29.1.0, SVG Export Plug-In . SVG Version: 2.1.0 Build 142)  -->
  <defs>
    <style>
      .st0 {
        fill: #fff;
      }
    </style>
  </defs>
  <ellipse class="st0" cx="17.7" cy="12.1" rx="14.5" ry="8.4" transform="translate(-2.1 3.9) rotate(-12)"/>
  <path d="M9.6,19.6l3.8-1.2-1-2.4c1.4-.8,1.8-1.3,2-2.3h.2c1.2,5.4,8,5.1,8.1-.7h.2s.4,3.6.4,3.6l3.7-.7-.4-2.8c2.1-.4,3.8-1.3,3.7-4.1-.2-4.5-4.9-4.8-8-2.9l.3,3h-.3c-1.7-4.9-8.3-3.9-7.9,1.4h-.3c-1.4-3.4-4.9-3.6-8.4-1l3.9,10.2h0ZM6.5,2.9l5.2,1.5L14.6.3l4.4,3L22.5,0l2.8,2.3,4-1.7,1.4,3,3.8.7-1,4.2,2.6,2.5-3.4,2.5.9,3.4-3.3.7-1,3.4-4.3-1.1-1.9,3.1-4-2.4-3.6,3.7-3.7-2.3-3.2,2.4-2.2-3.5-3.5-.3,1.1-3.8L0,15.3l2.3-3.6L.6,7.6l4.2-.7,1.8-4h0Z"/>
</svg>