<?xml version="1.0" encoding="UTF-8"?>
<svg id="Layer_1" data-name="Layer 1" xmlns="http://www.w3.org/2000/svg" viewBox="0 0 1080 1080">
  <defs>
    <style>
      .cls-1 {
        fill: #fff;
      }
    </style>
  </defs>
  <rect width="1080" height="1080"/>
  <rect class="cls-1" x="-25.48" y="438.91" width="1130.96" height="245.52"/>
  <g>
    <path class="cls-1" d="M326.5,16.37l9.02,36.74h2.5l9.02-36.74h51.1l9.02,36.74h2.51l9.02-36.74h37.91l-29.89,125.26h-59.79l-9.02-36.74h-2.5l-9.02,36.74h-51.27l-29.89-125.26h61.29Z"/>
    <path class="cls-1" d="M461.6,13.87h53.44v39.41c5.68-9.19,15.37-13.53,28.39-13.53,21.21,0,33.4,14.2,33.4,38.08v63.8h-53.44v-56.78c0-5.18-2-7.01-6.51-7.01h-1.84v63.8h-53.44V13.87Z"/>
    <path class="cls-1" d="M635.44,97.71c.67,4.84,3.67,6.51,10.69,6.51,12.02,0,23.38-.83,40.75-2v37.91c-17.7,2.5-28.89,3.17-45.09,3.17-41.75,0-58.29-22.21-58.29-53.11s21.71-50.44,56.62-50.44c31.9,0,51.1,17.7,51.1,46.26v11.69h-55.78ZM635.28,79.34v6.68h10.02v-6.68c0-3.34-1.84-5.18-5.01-5.18s-5.01,1.84-5.01,5.18Z"/>
    <path class="cls-1" d="M697.9,41.43h43.09l4.68,13.69c6.35-9.85,17.37-15.36,31.4-15.36,22.55,0,36.07,15.87,36.07,38.08v63.8h-53.44v-56.78c0-5.18-2-7.01-6.51-7.01h-1.84v63.8h-53.44V41.43Z"/>
    <path class="cls-1" d="M98.54,234.71v-23.38h-5.68v-35.91l59.12-24.22v24.22h12.19v35.91h-12.19v15.2c0,5.18,1.67,8.02,6.68,8.02,2.51,0,5.18-.33,7.68-.83v41.08c-7.52,1.67-14.86,2.5-24.38,2.5-30.4,0-43.42-16.37-43.42-42.59Z"/>
    <path class="cls-1" d="M173.02,147.87h53.44v39.41c5.68-9.19,15.37-13.53,28.39-13.53,21.21,0,33.4,14.2,33.4,38.08v63.8h-53.44v-56.78c0-5.18-2-7.01-6.51-7.01h-1.84v63.8h-53.44v-127.76Z"/>
    <path class="cls-1" d="M346.87,231.71c.67,4.84,3.67,6.51,10.69,6.51,12.02,0,23.38-.83,40.75-2v37.91c-17.7,2.5-28.89,3.17-45.09,3.17-41.75,0-58.29-22.21-58.29-53.11s21.71-50.44,56.62-50.44c31.9,0,51.1,17.7,51.1,46.26v11.69h-55.78ZM346.7,213.34v6.68h10.02v-6.68c0-3.34-1.84-5.18-5.01-5.18s-5.01,1.84-5.01,5.18Z"/>
    <path class="cls-1" d="M440.55,271.79c12.19,4.51,24.88,7.18,37.91,7.18,15.03,0,21.38-4.17,21.38-12.53v-9.52c-4.51,12.02-14.03,16.37-28.56,16.37-21.54,0-39.08-18.37-39.08-47.93,0-32.4,17.54-51.61,42.25-51.61,13.69,0,23.88,6.35,30.06,16.03l3.84-14.36h44.93v74.65c0,44.26-20.71,68.14-71.48,68.14-12.53,0-28.56-2.17-41.25-5.51v-40.92ZM499.84,234.55v-18.04h-4.84c-5.51,0-8.52,2.67-8.52,9.02s3.01,9.02,8.52,9.02h4.84Z"/>
    <path class="cls-1" d="M559.96,225.36c0-29.73,19.71-52.44,57.45-52.44s57.45,22.71,57.45,52.44-19.71,52.77-57.45,52.77-57.45-23.38-57.45-52.77ZM624.75,225.36c0-6.85-2.5-9.85-7.35-9.85s-7.35,3.01-7.35,9.85,2.5,9.35,7.35,9.35,7.35-2.5,7.35-9.35Z"/>
    <path class="cls-1" d="M679.69,148.7c0-11.19,9.19-20.04,28.56-20.04s28.56,8.85,28.56,20.04-8.85,20.21-28.56,20.21-28.56-8.52-28.56-20.21ZM681.53,175.43h53.44v100.2h-53.44v-100.2Z"/>
    <path class="cls-1" d="M743.32,175.43h43.09l4.68,13.69c6.35-9.85,17.37-15.36,31.4-15.36,22.55,0,36.07,15.87,36.07,38.08v63.8h-53.44v-56.78c0-5.18-2-7.01-6.51-7.01h-1.84v63.8h-53.44v-100.2Z"/>
    <path class="cls-1" d="M873.58,271.79c12.19,4.51,24.88,7.18,37.91,7.18,15.03,0,21.38-4.17,21.38-12.53v-9.52c-4.51,12.02-14.03,16.37-28.56,16.37-21.54,0-39.08-18.37-39.08-47.93,0-32.4,17.54-51.61,42.25-51.61,13.69,0,23.88,6.35,30.06,16.03l3.84-14.36h44.93v74.65c0,44.26-20.71,68.14-71.48,68.14-12.53,0-28.56-2.17-41.25-5.51v-40.92ZM932.87,234.55v-18.04h-4.84c-5.51,0-8.52,2.67-8.52,9.02s3.01,9.02,8.52,9.02h4.84Z"/>
    <path class="cls-1" d="M46.86,405.79c12.19,4.51,24.88,7.18,37.91,7.18,15.03,0,21.38-4.17,21.38-12.53v-9.52c-4.51,12.02-14.03,16.37-28.56,16.37-21.54,0-39.08-18.37-39.08-47.93,0-32.4,17.54-51.61,42.25-51.61,13.69,0,23.88,6.35,30.06,16.03l3.84-14.36h44.93v74.65c0,44.26-20.71,68.14-71.48,68.14-12.53,0-28.56-2.17-41.25-5.51v-40.92ZM106.14,368.55v-18.04h-4.84c-5.51,0-8.52,2.67-8.52,9.02s3.01,9.02,8.52,9.02h4.84Z"/>
    <path class="cls-1" d="M218.2,365.71c.67,4.84,3.67,6.51,10.69,6.51,12.02,0,23.38-.83,40.75-2v37.91c-17.7,2.5-28.89,3.17-45.09,3.17-41.75,0-58.29-22.21-58.29-53.11s21.71-50.44,56.62-50.44c31.9,0,51.1,17.7,51.1,46.26v11.69h-55.78ZM218.03,347.34v6.68h10.02v-6.68c0-3.34-1.84-5.18-5.01-5.18s-5.01,1.84-5.01,5.18Z"/>
    <path class="cls-1" d="M283.83,368.71v-23.38h-5.68v-35.91l59.12-24.22v24.22h12.19v35.91h-12.19v15.2c0,5.18,1.67,8.02,6.68,8.02,2.51,0,5.18-.33,7.68-.83v41.08c-7.52,1.67-14.86,2.5-24.38,2.5-30.4,0-43.42-16.37-43.42-42.59Z"/>
    <path class="cls-1" d="M428.45,355.52c10.69,6.01,17.7,13.69,17.7,27.22,0,16.53-12.53,27.72-46.09,27.72-18.87,0-29.89-1-42.59-3.01v-39.08c10.86,1.34,18.37,1.84,30.4,2v-2l-11.19-4.68c-12.36-5.18-20.04-12.86-20.04-27.39s12.53-27.72,46.09-27.72c14.53,0,24.72.33,39.58,2v36.74c-10.69-.83-16.87-1.17-27.56-1.17v1.67l13.69,7.68Z"/>
    <path class="cls-1" d="M480.55,368.71v-23.38h-5.68v-35.91l59.12-24.22v24.22h12.19v35.91h-12.19v15.2c0,5.18,1.67,8.02,6.68,8.02,2.51,0,5.18-.33,7.68-.83v41.08c-7.52,1.67-14.86,2.5-24.38,2.5-30.4,0-43.42-16.37-43.42-42.59Z"/>
    <path class="cls-1" d="M553.36,359.36c0-29.73,19.71-52.44,57.45-52.44s57.45,22.71,57.45,52.44-19.71,52.77-57.45,52.77-57.45-23.38-57.45-52.77ZM618.16,359.36c0-6.85-2.5-9.85-7.35-9.85s-7.35,3.01-7.35,9.85,2.5,9.35,7.35,9.35,7.35-2.5,7.35-9.35Z"/>
    <path class="cls-1" d="M790.17,409.63h-43.09l-4.34-13.36c-6.01,9.69-16.37,15.03-30.06,15.03-25.38,0-37.74-15.7-37.74-42.92v-58.95h53.44v56.62c0,4.17,1.17,5.68,5.18,5.68h3.17v-62.29h53.44v100.2Z"/>
    <path class="cls-1" d="M805.19,405.79c12.19,4.51,24.88,7.18,37.91,7.18,15.03,0,21.38-4.17,21.38-12.53v-9.52c-4.51,12.02-14.03,16.37-28.56,16.37-21.54,0-39.08-18.37-39.08-47.93,0-32.4,17.54-51.61,42.25-51.61,13.69,0,23.88,6.35,30.06,16.03l3.84-14.36h44.93v74.65c0,44.26-20.71,68.14-71.48,68.14-12.53,0-28.56-2.17-41.25-5.51v-40.92ZM864.48,368.55v-18.04h-4.84c-5.51,0-8.52,2.67-8.52,9.02s3.01,9.02,8.52,9.02h4.84Z"/>
    <path class="cls-1" d="M926.27,281.87h53.44v39.41c5.68-9.19,15.37-13.53,28.39-13.53,21.21,0,33.4,14.2,33.4,38.08v63.8h-53.44v-56.78c0-5.18-2-7.01-6.51-7.01h-1.84v63.8h-53.44v-127.76Z"/>
  </g>
  <g>
    <path class="cls-1" d="M53.62,752.38h-26.72v-50.1h111.9v50.1h-26.72v75.15h-58.45v-75.15Z"/>
    <path class="cls-1" d="M203.08,702.27v48.6h8.35v-48.6h58.45v125.26h-58.45v-43.25h-8.35v43.25h-58.45v-125.26h58.45Z"/>
    <path class="cls-1" d="M278.23,702.27h100.71v45.09h-42.25v7.51h33.9v17.54h-33.9v7.52h44.26v47.6h-102.71v-125.26Z"/>
    <path class="cls-1" d="M438.05,752.38h-26.72v-50.1h111.9v50.1h-26.72v75.15h-58.45v-75.15Z"/>
    <path class="cls-1" d="M525.72,765.07c0-34.07,21.54-63.8,68.64-63.8s68.64,29.73,68.64,63.8c0,35.74-21.54,64.3-68.64,64.3s-68.64-28.56-68.64-64.3ZM604.55,765.07c0-7.52-3.34-12.02-10.19-12.02s-10.19,4.51-10.19,12.02c0,8.18,3.34,11.69,10.19,11.69s10.19-3.51,10.19-11.69Z"/>
    <path class="cls-1" d="M728.96,702.27v67.97c0,4.84,1.5,7.01,5.01,7.01s5.01-2.17,5.01-7.01v-67.97h45.09v69.31c0,34.57-20.54,57.62-57.28,57.62s-57.12-23.05-57.12-57.62v-69.31h59.29Z"/>
    <path class="cls-1" d="M862.22,701.44c17.2,0,30.56,1,44.09,2.5v50.27c-15.87-.33-26.55-.83-38.75-.83-16.7,0-19.21,4.34-19.21,11.69s3.51,10.86,9.35,10.86c1.17,0,2.34,0,3.34-.17v-14.2h56.78v61.46c-18.87,5.18-33.4,6.35-53.11,6.35-53.61,0-75.65-31.9-75.65-64.46s19.71-63.46,73.15-63.46Z"/>
    <path class="cls-1" d="M983.8,702.27v48.6h8.35v-48.6h58.45v125.26h-58.45v-43.25h-8.35v43.25h-58.45v-125.26h58.45Z"/>
    <path class="cls-1" d="M117.66,842.44c17.2,0,30.56,1,44.09,2.5v50.27c-15.87-.33-26.55-.83-38.75-.83-16.7,0-19.21,4.34-19.21,11.69s3.51,10.86,9.35,10.86c1.17,0,2.34,0,3.34-.17v-14.2h56.78v61.46c-18.87,5.18-33.4,6.35-53.11,6.35-53.61,0-75.65-31.9-75.65-64.46s19.71-63.46,73.15-63.46Z"/>
    <path class="cls-1" d="M180.79,843.27h100.71v45.09h-42.25v7.51h33.9v17.54h-33.9v7.52h44.26v47.6h-102.71v-125.26Z"/>
    <path class="cls-1" d="M312.72,893.38h-26.72v-50.1h111.9v50.1h-26.72v75.15h-58.45v-75.15Z"/>
    <path class="cls-1" d="M499.76,842.44c17.2,0,30.56,1,44.09,2.5v50.27c-15.87-.33-26.55-.83-38.75-.83-16.7,0-19.21,4.34-19.21,11.69s3.51,10.86,9.35,10.86c1.17,0,2.34,0,3.34-.17v-14.2h56.78v61.46c-18.87,5.18-33.4,6.35-53.11,6.35-53.61,0-75.65-31.9-75.65-64.46s19.71-63.46,73.15-63.46Z"/>
    <path class="cls-1" d="M561.21,906.07c0-34.07,21.54-63.8,68.64-63.8s68.64,29.73,68.64,63.8c0,35.74-21.54,64.3-68.64,64.3s-68.64-28.56-68.64-64.3ZM640.04,906.07c0-7.52-3.34-12.02-10.19-12.02s-10.19,4.51-10.19,12.02c0,8.18,3.34,11.69,10.19,11.69s10.19-3.51,10.19-11.69Z"/>
    <path class="cls-1" d="M763.61,843.27v125.26h-58.45v-125.26h58.45Z"/>
    <path class="cls-1" d="M771.96,843.27h48.93l24.88,37.74h2.51v-37.74h50.94v125.26h-48.93l-24.88-37.74h-2.5v37.74h-50.94v-125.26Z"/>
    <path class="cls-1" d="M979.04,842.44c17.2,0,30.56,1,44.09,2.5v50.27c-15.87-.33-26.55-.83-38.75-.83-16.7,0-19.21,4.34-19.21,11.69s3.51,10.86,9.35,10.86c1.17,0,2.34,0,3.34-.17v-14.2h56.78v61.46c-18.87,5.18-33.4,6.35-53.11,6.35-53.61,0-75.65-31.9-75.65-64.46s19.71-63.46,73.15-63.46Z"/>
  </g>
  <g>
    <rect class="cls-1" x="-13.76" y="988.88" width="1114.57" height="65.17" transform="translate(-17.74 9.64) rotate(-1)"/>
    <g>
      <path d="M-5.76,1006.03l19.35-.34,10.1,14.75.99-.02-.26-14.93,20.14-.35.86,49.53-19.35.34-10.1-14.75-.99.02.26,14.93-20.14.35-.86-49.53Z"/>
      <path d="M47.64,1029.94c-.23-13.47,8.08-25.38,26.71-25.7,18.62-.32,27.35,11.28,27.58,24.75.25,14.13-8.08,25.58-26.7,25.9-18.62.33-27.34-10.82-27.59-24.95ZM78.81,1029.39c-.05-2.97-1.4-4.73-4.11-4.68-2.71.05-4,1.85-3.95,4.83.06,3.24,1.4,4.6,4.11,4.55,2.71-.05,4-1.46,3.95-4.69Z"/>
      <path d="M113.85,1003.94l28.93-.51,5.89,15.42.99-.02,4.68-15.61,24.04-.42.86,49.53-23.12.4-.27-15.52-.99.02-4.68,15.61-14,.24-5.88-15.42-.99.02.27,15.52-14.86.26-.86-49.53Z"/>
      <path d="M205.13,1002.35l.47,26.88c.03,1.92.64,2.76,2.03,2.74,1.39-.02,1.97-.89,1.93-2.81l-.47-26.88,17.83-.31.48,27.41c.24,13.67-7.73,22.93-22.26,23.18-14.73.26-22.75-8.72-22.98-22.39l-.48-27.41,23.45-.41Z"/>
      <path d="M260.77,1022.12c6.91,2.06,10.49,6.62,10.62,14.28.16,9.38-6.94,14.99-21.07,15.23-7.27.13-13.81-.29-20.57-1.42l-.35-19.88c4.97.77,9.93,1.15,15.02,1.06l-.02-.99-4.72-1.5c-6.91-2.19-10.49-6.75-10.6-12.9-.15-8.65,5.69-14.83,20.81-15.1,6.54-.11,11.3.07,18.24.61l.32,18.56c-4.3-.39-8.27-.52-12.69-.44l.02.99,4.98,1.5Z"/>
      <path d="M304.63,1021.36c6.91,2.06,10.49,6.62,10.62,14.28.16,9.38-6.94,14.99-21.07,15.23-7.26.13-13.81-.29-20.57-1.42l-.35-19.88c4.97.77,9.93,1.15,15.02,1.06l-.02-.99-4.72-1.5c-6.91-2.19-10.49-6.75-10.6-12.9-.15-8.65,5.69-14.83,20.81-15.1,6.54-.11,11.3.07,18.25.61l.32,18.56c-4.3-.39-8.27-.51-12.69-.44l.02.99,4.98,1.5Z"/>
      <path d="M326.99,1000.22l19.35-.34,10.1,14.75.99-.02-.26-14.93,20.14-.35.86,49.53-19.35.34-10.1-14.75-.99.02.26,14.93-20.14.35-.86-49.53Z"/>
      <path d="M380.39,1024.13c-.23-13.47,8.08-25.38,26.71-25.7,18.62-.33,27.35,11.28,27.58,24.75.25,14.13-8.08,25.58-26.7,25.9-18.62.33-27.34-10.82-27.59-24.96ZM411.56,1023.58c-.05-2.97-1.4-4.73-4.11-4.68-2.71.05-4,1.85-3.95,4.83.06,3.24,1.4,4.6,4.11,4.55,2.71-.05,4-1.46,3.95-4.69Z"/>
      <path d="M446.6,998.13l37.18-.65.33,19.15-14.07.25.06,3.3,13.08-.23.25,14.53-13.08.23.22,12.55-23.12.4-.86-49.53Z"/>
      <path d="M509.21,997.04l.47,26.88c.03,1.92.64,2.76,2.03,2.74,1.39-.02,1.97-.89,1.93-2.81l-.47-26.88,17.83-.31.48,27.41c.24,13.67-7.73,22.93-22.26,23.18-14.73.26-22.75-8.72-22.98-22.39l-.48-27.41,23.45-.41Z"/>
      <path d="M564.85,1016.81c6.91,2.06,10.49,6.62,10.62,14.28.16,9.38-6.94,14.99-21.07,15.23-7.26.13-13.81-.29-20.57-1.42l-.35-19.88c4.97.77,9.93,1.15,15.02,1.06l-.02-.99-4.72-1.5c-6.91-2.19-10.49-6.75-10.6-12.9-.15-8.65,5.69-14.83,20.81-15.1,6.54-.11,11.3.07,18.25.61l.32,18.56c-4.3-.39-8.27-.52-12.69-.44l.02.99,4.98,1.5Z"/>
      <path d="M608.71,1016.05c6.91,2.06,10.49,6.62,10.62,14.28.16,9.38-6.94,14.99-21.07,15.23-7.26.13-13.81-.29-20.57-1.42l-.35-19.88c4.97.77,9.93,1.15,15.02,1.06l-.02-.99-4.72-1.5c-6.91-2.19-10.49-6.75-10.6-12.9-.15-8.65,5.69-14.83,20.81-15.1,6.54-.11,11.3.07,18.25.61l.32,18.56c-4.3-.39-8.27-.51-12.69-.44l.02.99,4.98,1.5Z"/>
      <path d="M631.07,994.91l19.35-.34,10.1,14.75.99-.02-.26-14.93,20.14-.35.87,49.54-19.35.34-10.1-14.75-.99.02.26,14.93-20.14.35-.87-49.53Z"/>
      <path d="M684.47,1018.82c-.24-13.47,8.08-25.38,26.7-25.7,18.62-.33,27.35,11.28,27.59,24.75.25,14.13-8.08,25.58-26.7,25.9-18.62.33-27.34-10.82-27.59-24.96ZM715.65,1018.28c-.05-2.97-1.4-4.73-4.11-4.68-2.71.05-4,1.85-3.95,4.83.06,3.24,1.4,4.6,4.11,4.55,2.71-.05,4-1.46,3.95-4.69Z"/>
      <path d="M780.47,992.31c13.08-.23,19.04,4.49,19.19,13.08.07,3.96-1.33,7.09-3.47,9.05,5.97,1.61,9.16,6.25,9.28,13.12.14,8.26-6.56,13.99-18.91,14.2l-35,.61-.87-49.53,29.79-.52ZM774.19,1014.88l1.45-.03c1.92-.03,2.95-1.11,2.92-3.35-.04-2.24-1.11-3.28-3.03-3.25l-1.45.03.12,6.6ZM774.38,1026.11l2.77-.05c2.05-.04,3.15-.98,3.11-3.36-.04-2.38-1.18-3.28-3.23-3.25l-2.77.05.12,6.6Z"/>
      <path d="M829.28,991.45l.47,26.88c.03,1.92.64,2.76,2.03,2.74s1.97-.89,1.93-2.81l-.47-26.88,17.83-.31.48,27.41c.24,13.67-7.72,22.93-22.25,23.18-14.73.26-22.75-8.72-22.99-22.39l-.48-27.41,23.45-.41Z"/>
      <path d="M854.38,991.02l23.12-.4.52,29.72,10.7-.19.35,19.81-33.81.59-.87-49.53Z"/>
      <path d="M891.17,990.37l23.12-.4.52,29.72,10.7-.19.35,19.81-33.82.59-.87-49.53Z"/>
      <path d="M959.16,1009.93c6.91,2.06,10.49,6.62,10.62,14.28.16,9.38-6.94,14.99-21.07,15.23-7.26.13-13.81-.29-20.57-1.42l-.35-19.88c4.97.77,9.93,1.15,15.02,1.06l-.02-.99-4.72-1.5c-6.91-2.19-10.49-6.75-10.6-12.9-.15-8.65,5.69-14.83,20.81-15.1,6.54-.11,11.3.07,18.24.61l.32,18.56c-4.3-.39-8.27-.51-12.69-.44l.02.99,4.98,1.5Z"/>
      <path d="M994.13,988.58l.34,19.22,3.3-.06-.34-19.22,23.12-.4.87,49.53-23.12.4-.3-17.11-3.3.06.3,17.11-23.12.4-.87-49.53,23.12-.4Z"/>
      <path d="M1046.97,987.65l.87,49.53-23.12.4-.87-49.53,23.12-.4Z"/>
      <path d="M1060.2,1007.24l-10.57.18-.35-19.81,44.25-.77.35,19.81-10.57.18.52,29.72-23.12.4-.52-29.72Z"/>
    </g>
  </g>
  <g>
    <path d="M144.2,453.6c56.8,0,82.33,20.94,82.33,58.23,0,17.21-6.31,30.69-15.78,39.01,25.82,7.46,39.3,27.82,39.3,57.66,0,35.86-29.55,60.24-83.19,60.24H14.83v-215.14h129.37ZM115.23,551.13h6.31c8.32,0,12.91-4.59,12.91-14.34s-4.59-14.34-12.91-14.34h-6.31v28.69ZM115.23,599.89h12.05c8.89,0,13.77-4.02,13.77-14.34s-4.88-14.34-13.77-14.34h-12.05v28.69Z"/>
    <path d="M355.61,453.6v116.75c0,8.32,2.58,12.05,8.61,12.05s8.61-3.73,8.61-12.05v-116.75h77.45v119.04c0,59.38-35.28,98.96-98.39,98.96s-98.1-39.58-98.1-98.96v-119.04h101.83Z"/>
    <path d="M594.84,543.67c29.83,9.47,45.04,29.54,45.04,62.82,0,40.73-31.27,64.54-92.65,64.54-31.55,0-59.95-2.29-89.21-7.75v-86.34c21.51,3.73,43.03,5.74,65.11,5.74v-4.3l-20.37-6.88c-29.83-10.04-45.04-30.12-45.04-56.8,0-37.58,25.82-63.97,91.51-63.97,28.4,0,49.05,1.15,79.17,4.02v80.6c-18.65-2.01-35.86-2.87-55.08-2.87v4.3l21.51,6.88Z"/>
    <path d="M683.48,539.65h-45.9v-86.06h192.19v86.06h-45.9v129.08h-100.4v-129.08Z"/>
    <path d="M832.07,561.46c0-58.52,37-109.58,117.9-109.58s117.9,51.06,117.9,109.58c0,61.39-37,110.44-117.9,110.44s-117.9-49.05-117.9-110.44ZM967.46,561.46c0-12.91-5.74-20.65-17.5-20.65s-17.5,7.74-17.5,20.65c0,14.06,5.74,20.08,17.5,20.08s17.5-6.02,17.5-20.08Z"/>
  </g>
</svg>