<?xml version="1.0" encoding="UTF-8"?>
<svg id="Layer_1" data-name="Layer 1" xmlns="http://www.w3.org/2000/svg" viewBox="0 0 1080 1080">
  <defs>
    <style>
      .cls-1 {
        fill: #fff;
      }
    </style>
  </defs>
  <rect x="-54.58" y="156.97" width="1170.62" height="336.06"/>
  <rect x="-54.58" y="820.13" width="1170.62" height="183.55"/>
  <g>
    <path d="M54.58,116.28V41.86h-13.99l-5.25-15.26h32.12l47.86,73.93v-58.67h-12.88l-5.25-15.26h39.59l5.09,15.26h-16.06v95.08l-60.74-95.88v75.21h11.45l5.09,15.26h-41.02l-5.25-15.26h19.24Z"/>
    <path d="M144.57,86.07c0-21.62,13.99-38.48,38-38.48,28.14,0,48.49,21.94,48.49,48.81,0,22.9-17.97,38.64-37.52,38.64-29.89,0-48.97-24.01-48.97-48.97ZM184.16,122.32c19.72,0,34.18-11.29,34.18-34.82,0-17.17-11.29-27.03-28.14-27.03-21.94,0-32.91,15.26-32.91,34.02,0,17.65,10.81,27.82,26.87,27.82Z"/>
    <path d="M256.67,67.3l17.97,40.7,13.04-35.14-9.54-20.83h31.64l-9.38,23.37,13.36,32.59,15.74-40.7-5.25-15.26h23.05l5.25,15.26h-9.38l-28.14,67.89-19.24-48.02-19.24,48.02-30.69-67.89h-8.9l-5.25-15.26h32.12l5.25,15.26h-12.4Z"/>
    <path d="M396.11,107.85c13.67,5.72,23.69,9.7,38.32,9.7,20.99,0,31.32-6.52,31.32-18.6,0-7-6.84-10.49-20.03-12.4-38.64-4.93-46.59-18.92-46.59-36.41,0-15.26,11.92-26.55,33.71-26.55,9.86,0,16.54.16,26.71,3.18l7.15,15.58c-12.88-2.86-18.13-3.66-30.05-3.66-21.15,0-28.3,6.84-28.3,15.58s6.68,13.83,27.82,16.69c28.14,3.82,39.43,14.47,39.43,32.59,0,20.19-19.72,29.57-39.59,29.57-15.26,0-23.37-2.7-33.55-6.84l-6.36-18.44Z"/>
    <path d="M499.93,116.28V27.56h-12.72l-5.25-15.26h27.82v43.72c6.84-4.93,13.51-7.15,20.67-7.15,22.26,0,33.55,14.31,33.55,32.59v34.82h10.33l5.09,15.26h-32.59l-5.25-15.26h12.72v-33.23c0-14.47-7.79-19.87-20.19-19.87-9.22,0-17.49,4.61-24.33,12.24v40.86h9.38l5.09,15.26h-35.46l-5.25-15.26h16.38Z"/>
    <path d="M585.16,86.07c0-21.62,13.99-38.48,38-38.48,28.14,0,48.49,21.94,48.49,48.81,0,22.9-17.97,38.64-37.52,38.64-29.89,0-48.97-24.01-48.97-48.97ZM624.75,122.32c19.72,0,34.18-11.29,34.18-34.82,0-17.17-11.29-27.03-28.14-27.03-21.94,0-32.91,15.26-32.91,34.02,0,17.65,10.81,27.82,26.87,27.82Z"/>
    <path d="M698.52,67.3l17.97,40.7,13.04-35.14-9.54-20.83h31.64l-9.38,23.37,13.36,32.59,15.74-40.7-5.25-15.26h23.05l5.25,15.26h-9.38l-28.14,67.89-19.24-48.02-19.24,48.02-30.69-67.89h-8.9l-5.25-15.26h32.12l5.25,15.26h-12.4Z"/>
    <path d="M823.02,116.28v-48.97h-12.72l-5.25-15.26h27.82v64.23h10.81l5.09,15.26h-36.89l-5.25-15.26h16.38ZM815.7,25.97c0-6.36,3.66-10.18,10.18-10.18s11.77,6.52,11.77,13.83c0,6.84-4.13,10.33-10.18,10.33-6.68,0-11.77-7-11.77-13.99Z"/>
    <path d="M874.37,116.28v-48.97h-14.31l-5.25-15.26h20.51l2.23,6.84c7.31-7,15.26-10.02,23.69-10.02,24.96,0,36.25,14.31,36.25,32.59v34.82h9.86l5.09,15.26h-30.37l-5.25-15.26h10.97v-33.23c0-14.47-7.79-19.87-22.9-19.87-8.11,0-15.42,3.5-20.67,9.54v43.56h7.95l5.09,15.26h-33.71l-5.25-15.26h16.06Z"/>
    <path d="M1044.66,64.44l-18.28,11.13c1.75,4.13,2.54,7.79,2.54,12.56,0,10.18-8.27,20.03-21.62,20.03-10.02,0-16.69-4.13-21.62-10.49l-7.95,4.29c-6.04,3.34-8.11,5.72-8.11,10.02,0,5.88,8.9,8.59,28.62,5.72,37.21-5.25,44.52,13.99,44.52,28.46,0,10.02-9.54,25.12-39.43,25.12-19.24,0-36.41-9.86-36.41-26.39,0-5.09,2.38-10.65,7.95-14.95-10.49-4.61-15.58-12.88-15.58-20.83,0-8.9,4.29-14.95,10.65-18.6l7.79-4.45c-3.66-4.93-5.09-10.33-5.09-16.06,0-10.65,9.7-21.46,23.69-21.46,9.86,0,17.81,4.29,23.53,13.51l17.17-14.31,7.63,16.69ZM992.19,156.82c20.03,0,43.56-7.79,43.56-19.08,0-3.82-12.56-8.43-29.25-5.88-20.35,2.39-32.28,13.67-32.28,19.24,0,3.98,7.47,5.72,17.97,5.72ZM998.55,94.49c10.65,0,20.99-5.56,20.99-17.65,0-8.43-6.84-14.79-15.26-14.79-11.29,0-19.72,7.79-19.72,18.6,0,7,4.77,13.83,13.99,13.83Z"/>
  </g>
  <g>
    <path d="M69.98,626.88v-74.41h-25.44v18.76h-10.02v-34.03h82.52v34.03h-10.02v-18.76h-26.55v74.41h17.01l5.25,15.26h-49.13l-5.25-15.26h21.62Z"/>
    <path d="M141.05,626.88v-88.72h-12.72l-5.25-15.26h27.82v43.72c6.84-4.93,13.51-7.15,20.67-7.15,22.26,0,33.55,14.31,33.55,32.59v34.82h10.33l5.09,15.26h-32.59l-5.25-15.26h12.72v-33.23c0-14.47-7.79-19.87-20.19-19.87-9.22,0-17.49,4.61-24.33,12.24v40.86h9.38l5.09,15.26h-35.46l-5.25-15.26h16.38Z"/>
    <path d="M270.63,644.69c-23.21,0-43.09-16.06-43.09-46.27,0-24.01,16.69-39.91,37.68-39.91,18.92,0,32.91,8.43,32.91,26.08s-27.35,31.96-58.83,26.08c2.23,14.15,12.88,21.46,24.33,21.46,13.99,0,24.8-5.57,34.34-17.17l7.47,11.92c-8.27,11.92-22.58,17.81-34.82,17.81ZM239.15,599.7c22.42,1.27,49.29-9.54,49.29-21.94,0-5.09-3.34-7.95-11.61-7.95-20.35,0-35.14,12.72-37.68,29.89Z"/>
    <path d="M368.89,626.88v-74.41h-13.99l-5.25-15.26h35.3l27.35,59.15,26.39-59.15h31.32l5.09,15.26h-15.42v74.41h12.56l5.09,15.26h-39.43l-5.25-15.26h16.54v-78.23l-35.46,77.11-34.34-74.73v75.84h11.45l5.09,15.26h-41.02l-5.25-15.26h19.24Z"/>
    <path d="M563.19,642.15l-2.7-6.2c-7.47,6.68-17.17,9.38-25.76,9.38-22.26,0-33.55-14.31-33.55-34.66v-32.75h-10.02l-5.09-15.26h24.8v50.56c0,12.4,7.79,17.81,17.33,17.81,11.77,0,21.94-4.29,28.46-12.56v-40.54h-14.79l-5.09-15.26h29.73v64.23h9.54l5.25,15.26h-18.12Z"/>
    <path d="M605.8,626.88v-88.72h-12.72l-5.25-15.26h27.82v103.98h12.4l5.09,15.26h-40.07l-5.25-15.26h17.97Z"/>
    <path d="M655.88,626.88v-88.72h-12.72l-5.25-15.26h27.82v103.98h12.4l5.09,15.26h-40.07l-5.25-15.26h17.97Z"/>
    <path d="M733.32,644.69c-23.21,0-43.09-16.06-43.09-46.27,0-24.01,16.69-39.91,37.68-39.91,18.92,0,32.91,8.43,32.91,26.08s-27.35,31.96-58.83,26.08c2.23,14.15,12.88,21.46,24.33,21.46,13.99,0,24.8-5.57,34.34-17.17l7.47,11.92c-8.27,11.92-22.58,17.81-34.82,17.81ZM701.83,599.7c22.42,1.27,49.29-9.54,49.29-21.94,0-5.09-3.34-7.95-11.61-7.95-20.35,0-35.14,12.72-37.68,29.89Z"/>
    <path d="M791.67,562.65v-24.96h1.75l32.91,40.07h-24.8v42.45c0,6.52,3.5,9.7,8.27,9.7,6.36,0,11.92-3.66,19.4-10.97l7.95,13.67c-6.36,7.31-14.15,11.61-22.74,11.61-16.22,0-22.74-10.02-22.74-27.51v-38.79h-12.4l-5.25-15.26h17.65Z"/>
    <path d="M881.18,596.68c0-21.62,13.99-38.48,38-38.48,28.14,0,48.49,21.94,48.49,48.81,0,22.9-17.97,38.64-37.52,38.64-29.89,0-48.97-24.01-48.97-48.97ZM920.77,632.93c19.72,0,34.18-11.29,34.18-34.82,0-17.17-11.29-27.03-28.14-27.03-21.94,0-32.91,15.26-32.91,34.03,0,17.65,10.81,27.82,26.87,27.82Z"/>
    <path d="M994.23,626.88v-48.97h-9.38l-5.25-15.26h14.63v-11.61c0-20.19,11.77-31.48,33.71-28.94l5.88,15.26c-22.74-1.27-29.1,3.5-29.1,16.69v8.59h12.4l5.25,15.26h-17.65v48.97h17.17l5.09,15.26h-22.26v.32h-10.49v-.32h-12.56l-5.25-15.26h17.81Z"/>
    <path d="M112.35,746.88v-74.41h-25.44v18.76h-10.02v-34.03h82.52v34.03h-10.02v-18.76h-26.55v74.41h17.01l5.25,15.26h-49.13l-5.25-15.26h21.62Z"/>
    <path d="M206.48,755.95l-27.51-58.03h-9.7l-5.25-15.26h34.98l5.25,15.26h-14.31l20.99,45.95,17.01-46.43-4.77-14.79h24.96l-34.5,90.47c-5.09,13.36-15.58,26.39-37.21,29.57l-4.77-18.92c17.97.16,25.92-3.82,31.8-19.71l3.02-8.11Z"/>
    <path d="M266.74,786.63v-88.72h-9.54l-5.09-15.26h19.08l3.34,9.86c8.43-8.11,19.72-12.4,29.73-12.4,21.15,0,39.11,17.97,39.11,46.75,0,22.42-14.95,38.16-36.73,38.16-10.97,0-22.1-3.82-30.05-13.83v35.46h10.97l5.25,15.26h-35.46l-5.25-15.26h14.63ZM276.59,714.61v27.67c4.45,3.82,13.04,7.63,21.78,7.63,17.49,0,34.34-8.11,34.34-28.78,0-16.22-10.49-28.46-22.42-28.46-13.2,0-24.33,7.95-33.71,21.94Z"/>
    <path d="M399.18,764.69c-23.21,0-43.09-16.06-43.09-46.27,0-24.01,16.69-39.91,37.68-39.91,18.92,0,32.91,8.43,32.91,26.08s-27.35,31.96-58.83,26.08c2.23,14.15,12.88,21.46,24.33,21.46,13.99,0,24.8-5.57,34.34-17.17l7.47,11.92c-8.27,11.92-22.58,17.81-34.82,17.81ZM367.7,719.7c22.42,1.27,49.29-9.54,49.29-21.94,0-5.09-3.34-7.95-11.61-7.95-20.35,0-35.14,12.72-37.68,29.89Z"/>
    <path d="M496.33,746.88v-74.57l-12.72.16-5.25-15.26h41.02c30.37,0,58.67,25.6,58.67,62.17,0,31.8-25.92,42.77-41.18,42.77h-53.26l-5.25-15.26h17.97ZM506.82,672.32v74.57h24.17c19.72,0,37.84-14.63,37.84-37.05,0-24.49-21.78-37.84-41.18-37.68l-20.83.16Z"/>
    <path d="M632.27,764.69c-23.21,0-43.09-16.06-43.09-46.27,0-24.01,16.69-39.91,37.68-39.91,18.92,0,32.91,8.43,32.91,26.08s-27.35,31.96-58.83,26.08c2.23,14.15,12.88,21.46,24.33,21.46,13.99,0,24.8-5.57,34.34-17.17l7.47,11.92c-8.27,11.92-22.58,17.81-34.82,17.81ZM600.79,719.7c22.42,1.27,49.29-9.54,49.29-21.94,0-5.09-3.34-7.95-11.61-7.95-20.35,0-35.14,12.72-37.68,29.89Z"/>
    <path d="M676.32,740.21c10.33,4.93,17.97,7.95,29.1,7.95,13.51,0,22.9-3.97,22.9-11.45,0-4.29-3.5-7.16-13.51-8.59-28.14-3.97-35.77-14.47-35.77-27.35,0-11.61,10.02-20.83,26.55-20.83,7.47,0,11.61.48,20.35,1.91l6.84,15.9c-10.02-2.38-13.99-3.02-23.05-3.02-12.4,0-20.67,2.7-20.67,10.49,0,4.77,5.41,8.43,19.56,10.81,21.31,3.66,29.1,12.08,29.1,24.17,0,16.54-18.6,23.53-30.21,23.53s-17.81-2.07-25.44-5.25l-5.72-18.28Z"/>
    <path d="M764.24,746.88v-48.97h-12.72l-5.25-15.26h27.82v64.23h10.81l5.09,15.26h-36.89l-5.25-15.26h16.38ZM756.93,656.57c0-6.36,3.66-10.18,10.18-10.18s11.77,6.52,11.77,13.83c0,6.84-4.13,10.33-10.18,10.33-6.68,0-11.77-7-11.77-13.99Z"/>
    <path d="M883.33,695.05l-18.29,11.13c1.75,4.13,2.54,7.79,2.54,12.56,0,10.18-8.27,20.03-21.62,20.03-10.02,0-16.69-4.13-21.62-10.49l-7.95,4.29c-6.04,3.34-8.11,5.72-8.11,10.02,0,5.88,8.9,8.59,28.62,5.72,37.21-5.25,44.52,13.99,44.52,28.46,0,10.02-9.54,25.12-39.43,25.12-19.24,0-36.41-9.86-36.41-26.39,0-5.09,2.38-10.65,7.95-14.95-10.49-4.61-15.58-12.88-15.58-20.83,0-8.9,4.29-14.95,10.65-18.6l7.79-4.45c-3.66-4.93-5.09-10.33-5.09-16.06,0-10.65,9.7-21.46,23.69-21.46,9.86,0,17.81,4.29,23.53,13.51l17.17-14.31,7.63,16.69ZM830.86,787.43c20.03,0,43.56-7.79,43.56-19.08,0-3.82-12.56-8.43-29.25-5.88-20.35,2.38-32.28,13.67-32.28,19.24,0,3.97,7.47,5.72,17.97,5.72ZM837.22,725.1c10.65,0,20.99-5.57,20.99-17.65,0-8.43-6.84-14.79-15.26-14.79-11.29,0-19.72,7.79-19.72,18.6,0,7,4.77,13.83,13.99,13.83Z"/>
    <path d="M908.77,746.88v-48.97h-14.31l-5.25-15.26h20.51l2.23,6.84c7.31-7,15.26-10.02,23.69-10.02,24.96,0,36.25,14.31,36.25,32.59v34.82h9.86l5.09,15.26h-30.37l-5.25-15.26h10.97v-33.23c0-14.47-7.79-19.87-22.9-19.87-8.11,0-15.42,3.5-20.67,9.54v43.57h7.95l5.09,15.26h-33.71l-5.25-15.26h16.06Z"/>
  </g>
  <g>
    <path d="M176.18,1029.74c6.09,0,9.51,2.48,9.51,7.97v10.5c0,1.08.33,1.78,1.36,1.78.84,0,1.78-.23,3.47-1.78l1.36,3.94c-2.76,1.97-3.7,2.34-5.44,2.34-2.02,0-2.86-1.69-3-4.26-2.2,2.86-4.92,4.59-8.76,4.59-4.92,0-7.59-3.8-7.59-7.83,0-5.58,5.15-9.09,16.31-9.14-.42-2.72-3.47-4.08-5.81-4.08-3.05,0-4.87.47-7.78,1.83l-1.92-4.03c3.14-1.27,5.48-1.83,8.29-1.83ZM172.71,1050.68c4.12,0,7.12-1.26,10.73-6.04v-2.81c-9.09.61-13.92,2.01-13.92,5.95,0,1.45,1.17,2.91,3.19,2.91Z"/>
    <path d="M198.35,1049.61v-26.15h-3.75l-1.55-4.5h8.2v30.65h3.66l1.5,4.5h-11.81l-1.55-4.5h5.29Z"/>
    <path d="M207.95,1047.64c3.05,1.45,5.3,2.34,8.58,2.34,3.98,0,6.75-1.17,6.75-3.37,0-1.27-1.03-2.11-3.98-2.53-8.29-1.17-10.54-4.26-10.54-8.06,0-3.42,2.95-6.14,7.83-6.14,2.2,0,3.42.14,6,.56l2.02,4.69c-2.95-.7-4.12-.89-6.79-.89-3.65,0-6.09.8-6.09,3.09,0,1.41,1.59,2.48,5.76,3.19,6.28,1.08,8.58,3.56,8.58,7.12,0,4.87-5.48,6.94-8.9,6.94s-5.25-.61-7.5-1.55l-1.69-5.39Z"/>
    <path d="M228.48,1040.7c0-6.37,4.12-11.34,11.2-11.34,8.29,0,14.29,6.47,14.29,14.39,0,6.75-5.3,11.39-11.06,11.39-8.81,0-14.43-7.08-14.43-14.43ZM240.15,1051.39c5.81,0,10.07-3.33,10.07-10.26,0-5.06-3.33-7.97-8.29-7.97-6.47,0-9.7,4.5-9.7,10.03,0,5.2,3.19,8.2,7.92,8.2Z"/>
    <path d="M258.33,1062.12l-2.81-4.64c4.26-2.16,4.64-4.12,2.58-9.47l1.03-.84c5.58,5.44,5.72,11.11-.8,14.95Z"/>
    <path d="M282.47,1052.28v-17.1h-4.69l-1.55-4.5h9.18v23.05c0,9.89-4.4,11.2-9.04,11.2l-1.55-5.11c4.92,0,7.64-1.45,7.64-7.54ZM280.17,1022.99c0-1.87,1.08-3,3-3s3.47,1.92,3.47,4.08c0,2.01-1.22,3.05-3,3.05-1.97,0-3.47-2.06-3.47-4.12Z"/>
    <path d="M311.33,1054.11l-.8-1.83c-2.2,1.97-5.06,2.76-7.59,2.76-6.56,0-9.89-4.22-9.89-10.22v-9.65h-2.95l-1.5-4.5h7.31v14.9c0,3.66,2.3,5.25,5.11,5.25,3.47,0,6.47-1.26,8.39-3.7v-11.95h-4.36l-1.5-4.5h8.76v18.93h2.81l1.55,4.5h-5.34Z"/>
    <path d="M317.76,1047.64c3.05,1.45,5.3,2.34,8.58,2.34,3.98,0,6.75-1.17,6.75-3.37,0-1.27-1.03-2.11-3.98-2.53-8.29-1.17-10.54-4.26-10.54-8.06,0-3.42,2.95-6.14,7.83-6.14,2.2,0,3.42.14,6,.56l2.02,4.69c-2.95-.7-4.12-.89-6.79-.89-3.65,0-6.09.8-6.09,3.09,0,1.41,1.59,2.48,5.76,3.19,6.28,1.08,8.58,3.56,8.58,7.12,0,4.87-5.48,6.94-8.9,6.94s-5.25-.61-7.5-1.55l-1.69-5.39Z"/>
    <path d="M341.52,1030.68v-7.36h.52l9.7,11.81h-7.31v12.51c0,1.92,1.03,2.86,2.44,2.86,1.87,0,3.51-1.08,5.72-3.23l2.34,4.03c-1.87,2.16-4.17,3.42-6.7,3.42-4.78,0-6.7-2.95-6.7-8.11v-11.43h-3.65l-1.55-4.5h5.2Z"/>
    <path d="M373.95,1035.17l5.29,12,3.84-10.36-2.81-6.14h9.32l-2.76,6.89,3.94,9.61,4.64-12-1.55-4.5h6.79l1.55,4.5h-2.76l-8.29,20.01-5.67-14.15-5.67,14.15-9.04-20.01h-2.62l-1.55-4.5h9.47l1.55,4.5h-3.65Z"/>
    <path d="M412.24,1029.74c6.09,0,9.51,2.48,9.51,7.97v10.5c0,1.08.33,1.78,1.36,1.78.84,0,1.78-.23,3.47-1.78l1.36,3.94c-2.76,1.97-3.7,2.34-5.44,2.34-2.02,0-2.86-1.69-3-4.26-2.2,2.86-4.92,4.59-8.76,4.59-4.92,0-7.59-3.8-7.59-7.83,0-5.58,5.15-9.09,16.31-9.14-.42-2.72-3.47-4.08-5.81-4.08-3.05,0-4.87.47-7.78,1.83l-1.92-4.03c3.14-1.27,5.48-1.83,8.29-1.83ZM408.77,1050.68c4.12,0,7.12-1.26,10.73-6.04v-2.81c-9.09.61-13.92,2.01-13.92,5.95,0,1.45,1.17,2.91,3.19,2.91Z"/>
    <path d="M434.55,1049.61v-14.43h-3.75l-1.55-4.5h8.2v18.93h3.19l1.5,4.5h-10.87l-1.55-4.5h4.83ZM432.39,1022.99c0-1.87,1.08-3,3-3s3.47,1.92,3.47,4.08c0,2.01-1.22,3.05-3,3.05-1.97,0-3.47-2.06-3.47-4.12Z"/>
    <path d="M446.96,1030.68v-7.36h.52l9.7,11.81h-7.31v12.51c0,1.92,1.03,2.86,2.44,2.86,1.87,0,3.51-1.08,5.72-3.23l2.34,4.03c-1.87,2.16-4.17,3.42-6.7,3.42-4.78,0-6.7-2.95-6.7-8.11v-11.43h-3.65l-1.55-4.5h5.2Z"/>
    <path d="M477.9,1020.88l3.33,4.73c-4.12,4.08-4.55,6.09-1.31,11.2l-.66,1.08c-7.17-5.62-7.83-11.39-1.36-17.01Z"/>
    <path d="M487.5,1030.68v-7.36h.52l9.7,11.81h-7.31v12.51c0,1.92,1.03,2.86,2.44,2.86,1.87,0,3.51-1.08,5.72-3.23l2.34,4.03c-1.87,2.16-4.17,3.42-6.7,3.42-4.78,0-6.7-2.95-6.7-8.11v-11.43h-3.65l-1.55-4.5h5.2Z"/>
    <path d="M507.89,1049.61v-14.43h-3.75l-1.55-4.5h8.2v18.93h3.19l1.5,4.5h-10.87l-1.55-4.5h4.83ZM505.73,1022.99c0-1.87,1.08-3,3-3s3.47,1.92,3.47,4.08c0,2.01-1.22,3.05-3,3.05-1.97,0-3.47-2.06-3.47-4.12Z"/>
    <path d="M522.65,1049.61v-26.15h-3.75l-1.55-4.5h8.2v30.65h3.66l1.5,4.5h-11.81l-1.55-4.5h5.29Z"/>
    <path d="M554.38,1052.28l-8.11-17.1h-2.86l-1.55-4.5h10.31l1.55,4.5h-4.22l6.19,13.54,5.01-13.68-1.41-4.36h7.36l-10.17,26.66c-1.5,3.94-4.59,7.78-10.96,8.72l-1.41-5.58c5.3.05,7.64-1.12,9.37-5.81l.89-2.39Z"/>
    <path d="M568.3,1040.7c0-6.37,4.12-11.34,11.2-11.34,8.29,0,14.29,6.47,14.29,14.39,0,6.75-5.29,11.39-11.06,11.39-8.81,0-14.43-7.08-14.43-14.43ZM579.97,1051.39c5.81,0,10.07-3.33,10.07-10.26,0-5.06-3.33-7.97-8.29-7.97-6.47,0-9.7,4.5-9.7,10.03,0,5.2,3.19,8.2,7.92,8.2Z"/>
    <path d="M616.61,1054.11l-.8-1.83c-2.2,1.97-5.06,2.76-7.59,2.76-6.56,0-9.89-4.22-9.89-10.22v-9.65h-2.95l-1.5-4.5h7.31v14.9c0,3.66,2.3,5.25,5.11,5.25,3.47,0,6.47-1.26,8.39-3.7v-11.95h-4.36l-1.5-4.5h8.76v18.93h2.81l1.55,4.5h-5.34Z"/>
    <path d="M635.5,1047.64c3.04,1.45,5.29,2.34,8.58,2.34,3.98,0,6.75-1.17,6.75-3.37,0-1.27-1.03-2.11-3.98-2.53-8.29-1.17-10.54-4.26-10.54-8.06,0-3.42,2.95-6.14,7.83-6.14,2.2,0,3.42.14,6,.56l2.01,4.69c-2.95-.7-4.12-.89-6.79-.89-3.66,0-6.09.8-6.09,3.09,0,1.41,1.59,2.48,5.76,3.19,6.28,1.08,8.58,3.56,8.58,7.12,0,4.87-5.48,6.94-8.9,6.94s-5.25-.61-7.5-1.55l-1.69-5.39Z"/>
    <path d="M668.77,1054.86c-6.84,0-12.7-4.73-12.7-13.64,0-7.08,4.92-11.76,11.11-11.76,5.58,0,9.7,2.48,9.7,7.69s-8.06,9.42-17.34,7.68c.66,4.17,3.8,6.33,7.17,6.33,4.12,0,7.31-1.64,10.12-5.06l2.2,3.51c-2.44,3.51-6.65,5.25-10.26,5.25ZM659.5,1041.59c6.61.38,14.53-2.81,14.53-6.47,0-1.5-.98-2.34-3.42-2.34-6,0-10.36,3.75-11.11,8.81Z"/>
    <path d="M693.85,1054.86c-6.84,0-12.7-4.73-12.7-13.64,0-7.08,4.92-11.76,11.11-11.76,5.58,0,9.7,2.48,9.7,7.69s-8.06,9.42-17.34,7.68c.66,4.17,3.8,6.33,7.17,6.33,4.12,0,7.31-1.64,10.12-5.06l2.2,3.51c-2.44,3.51-6.65,5.25-10.26,5.25ZM684.57,1041.59c6.61.38,14.53-2.81,14.53-6.47,0-1.5-.98-2.34-3.42-2.34-6,0-10.36,3.75-11.11,8.81Z"/>
    <path d="M721.92,1030.68v-7.36h.52l9.7,11.81h-7.31v12.51c0,1.92,1.03,2.86,2.44,2.86,1.88,0,3.51-1.08,5.72-3.23l2.34,4.03c-1.88,2.16-4.17,3.42-6.7,3.42-4.78,0-6.7-2.95-6.7-8.11v-11.43h-3.66l-1.55-4.5h5.2Z"/>
    <path d="M741.98,1049.61v-26.15h-3.75l-1.55-4.5h8.2v12.89c2.01-1.45,3.98-2.11,6.09-2.11,6.56,0,9.89,4.22,9.89,9.61v10.26h3.05l1.5,4.5h-9.61l-1.55-4.5h3.75v-9.79c0-4.26-2.3-5.86-5.95-5.86-2.72,0-5.16,1.36-7.17,3.61v12.04h2.76l1.5,4.5h-10.45l-1.55-4.5h4.83Z"/>
    <path d="M779.24,1054.86c-6.84,0-12.7-4.73-12.7-13.64,0-7.08,4.92-11.76,11.11-11.76,5.58,0,9.7,2.48,9.7,7.69s-8.06,9.42-17.34,7.68c.66,4.17,3.8,6.33,7.17,6.33,4.12,0,7.31-1.64,10.12-5.06l2.2,3.51c-2.44,3.51-6.65,5.25-10.26,5.25ZM769.96,1041.59c6.61.38,14.53-2.81,14.53-6.47,0-1.5-.98-2.34-3.42-2.34-6,0-10.36,3.75-11.11,8.81Z"/>
    <path d="M807.87,1049.61v-21.93h-3.8l-1.55-4.5h12.14l1.5,4.5h-5.2v21.93h3.7l1.5,4.5h-12.09l-1.55-4.5h5.34Z"/>
    <path d="M821.6,1030.68v-7.36h.52l9.7,11.81h-7.31v12.51c0,1.92,1.03,2.86,2.44,2.86,1.88,0,3.51-1.08,5.72-3.23l2.34,4.03c-1.88,2.16-4.17,3.42-6.7,3.42-4.78,0-6.7-2.95-6.7-8.11v-11.43h-3.66l-1.55-4.5h5.2Z"/>
    <path d="M846.63,1029.74c6.09,0,9.51,2.48,9.51,7.97v10.5c0,1.08.33,1.78,1.36,1.78.84,0,1.78-.23,3.47-1.78l1.36,3.94c-2.76,1.97-3.7,2.34-5.44,2.34-2.01,0-2.86-1.69-3-4.26-2.2,2.86-4.92,4.59-8.76,4.59-4.92,0-7.59-3.8-7.59-7.83,0-5.58,5.16-9.09,16.31-9.14-.42-2.72-3.47-4.08-5.81-4.08-3.05,0-4.87.47-7.78,1.83l-1.92-4.03c3.14-1.27,5.48-1.83,8.29-1.83ZM843.16,1050.68c4.12,0,7.12-1.26,10.73-6.04v-2.81c-9.09.61-13.92,2.01-13.92,5.95,0,1.45,1.17,2.91,3.19,2.91Z"/>
    <path d="M868.98,1049.61v-26.15h-3.75l-1.55-4.5h8.2v30.65h3.66l1.5,4.5h-11.81l-1.55-4.5h5.29Z"/>
    <path d="M884.26,1049.61v-14.43h-3.75l-1.55-4.5h8.2v18.93h3.19l1.5,4.5h-10.87l-1.55-4.5h4.83ZM882.11,1022.99c0-1.87,1.08-3,3-3s3.47,1.92,3.47,4.08c0,2.01-1.22,3.05-3,3.05-1.97,0-3.47-2.06-3.47-4.12Z"/>
    <path d="M912.19,1034.8c-1.26-.42-2.81-.7-4.36-.7-5.76,0-11.39,3.33-11.39,9.47,0,4.03,3.09,7.64,7.54,7.64s7.17-2.11,10.08-4.55l2.16,4.5c-2.62,2.39-5.86,3.75-9.93,3.7-6.61-.09-12.89-4.5-12.89-13.73,0-7.4,5.62-11.71,13.03-11.71,1.59,0,2.67.14,3.75.33l2.01,5.06Z"/>
  </g>
  <g>
    <path class="cls-1" d="M-1.28,866.18c0-15.43,11.36-27.39,28.49-27.39,18.4,0,30.61,12.97,30.61,30.78,0,14.84-11.53,27.98-28.74,27.98-18.32,0-30.36-13.23-30.36-31.37ZM24.42,890.43c15.26,0,25.69-11.19,25.69-25.95,0-11.36-7.29-18.99-17.47-18.99-15.43,0-26.54,10.6-26.54,26.2,0,11.36,7.38,18.74,18.32,18.74Z"/>
    <path class="cls-1" d="M73.34,887.88v-39.68h-6.44l-2.8-8.14h24c16.96,0,25.18,8.99,25.18,19.16s-7.04,14.33-17.21,14.33h-.08l2.63,6.7c2.2,5.51,5.17,8.14,10.6,8.14,2.46,0,5-.42,8.06-1.87l2.54,8.31c-3.48,1.53-6.44,2.29-10.09,2.29-6.87,0-11.19-2.97-14.16-10.6l-5-12.97h-11.96v14.33h6.78l2.71,8.14h-21.28l-2.8-8.14h9.33ZM78.6,848.12v17.3h17.13c9.07,0,12.63-2.37,12.63-8.82,0-4.66-3.22-8.65-11.36-8.56l-18.4.08Z"/>
    <path class="cls-1" d="M127.1,856.68c0-3.65,2.12-5.94,5.77-5.94s6.78,3.73,6.78,7.97c0,3.9-2.37,5.85-5.85,5.85-3.82,0-6.7-3.9-6.7-7.89ZM127.1,888.9c0-3.65,2.12-5.94,5.77-5.94s6.78,3.73,6.78,7.97c0,3.9-2.37,5.85-5.85,5.85-3.82,0-6.7-3.9-6.7-7.89Z"/>
    <path class="cls-1" d="M177.63,887.88v-39.68h-6.44l-2.8-8.14h19.42l2.71,8.14h-7.63v15.52h30.02v-15.52h-6.1l-2.8-8.14h19.42l2.71,8.14h-7.97v39.68h7.21l2.71,8.14h-21.37l-2.8-8.14h8.99v-16.03h-30.02v16.03h6.87l2.71,8.14h-21.37l-2.8-8.14h9.33Z"/>
    <path class="cls-1" d="M233.51,871.77c0-11.53,7.46-20.52,20.27-20.52,15.01,0,25.86,11.7,25.86,26.03,0,12.21-9.58,20.6-20.01,20.6-15.94,0-26.12-12.8-26.12-26.12ZM254.62,891.11c10.51,0,18.23-6.02,18.23-18.57,0-9.16-6.02-14.42-15.01-14.42-11.7,0-17.55,8.14-17.55,18.15,0,9.41,5.77,14.84,14.33,14.84Z"/>
    <path class="cls-1" d="M296.93,861.77l9.58,21.71,6.95-18.74-5.09-11.11h16.87l-5,12.46,7.12,17.38,8.39-21.71-2.8-8.14h12.29l2.8,8.14h-5l-15.01,36.21-10.26-25.61-10.26,25.61-16.37-36.21h-4.75l-2.8-8.14h17.13l2.8,8.14h-6.61Z"/>
    <path class="cls-1" d="M380.28,887.88v-39.68h-6.87l-2.8-8.14h21.96l2.71,8.14h-9.41v39.68h6.7l2.71,8.14h-21.88l-2.8-8.14h9.67Z"/>
    <path class="cls-1" d="M428.69,887.88v-39.68h-6.95l-2.8-8.14h22.98l2.71,8.14h-10.34v39.68h23.49v-12.38h5.17v20.52h-41.21l-2.8-8.14h9.75Z"/>
    <path class="cls-1" d="M492.71,897.38c-12.38,0-22.98-8.56-22.98-24.67,0-12.8,8.9-21.28,20.1-21.28,10.09,0,17.55,4.49,17.55,13.91s-14.58,17.04-31.37,13.91c1.19,7.55,6.87,11.45,12.97,11.45,7.46,0,13.23-2.97,18.32-9.16l3.99,6.36c-4.41,6.36-12.04,9.5-18.57,9.5ZM475.92,873.38c11.96.68,26.29-5.09,26.29-11.7,0-2.71-1.78-4.24-6.19-4.24-10.85,0-18.74,6.78-20.1,15.94Z"/>
    <path class="cls-1" d="M533.92,851.93c11.02,0,17.21,4.49,17.21,14.42v18.99c0,1.95.59,3.22,2.46,3.22,1.53,0,3.22-.42,6.28-3.22l2.46,7.12c-5,3.56-6.7,4.24-9.84,4.24-3.65,0-5.17-3.05-5.43-7.72-3.99,5.17-8.9,8.31-15.86,8.31-8.9,0-13.74-6.87-13.74-14.16,0-10.09,9.33-16.45,29.51-16.53-.76-4.92-6.27-7.38-10.51-7.38-5.51,0-8.82.85-14.08,3.31l-3.48-7.29c5.68-2.29,9.92-3.31,15.01-3.31ZM527.64,889.83c7.46,0,12.89-2.29,19.42-10.94v-5.09c-16.45,1.1-25.18,3.65-25.18,10.77,0,2.63,2.12,5.26,5.77,5.26Z"/>
    <path class="cls-1" d="M573.85,887.88v-26.12h-5.77l-2.8-8.14h11.11l1.53,4.49h.08c2.97-4.16,7.63-6.44,13.31-6.44l2.37,7.55c-7.46,0-11.02,2.12-14.58,8.82v19.84h6.78l2.71,8.14h-20.52l-2.8-8.14h8.56Z"/>
    <path class="cls-1" d="M607.94,887.88v-26.12h-7.63l-2.8-8.14h10.94l1.19,3.65c3.9-3.73,8.14-5.34,12.63-5.34,13.31,0,19.33,7.63,19.33,17.38v18.57h5.26l2.71,8.14h-16.2l-2.8-8.14h5.85v-17.72c0-7.72-4.15-10.6-12.21-10.6-4.32,0-8.22,1.87-11.02,5.09v23.23h4.24l2.71,8.14h-17.98l-2.8-8.14h8.56Z"/>
    <path class="cls-1" d="M676.79,897.38c-12.38,0-22.98-8.56-22.98-24.67,0-12.8,8.9-21.28,20.1-21.28,10.09,0,17.55,4.49,17.55,13.91s-14.58,17.04-31.37,13.91c1.19,7.55,6.87,11.45,12.97,11.45,7.46,0,13.23-2.97,18.32-9.16l3.99,6.36c-4.41,6.36-12.04,9.5-18.57,9.5ZM660,873.38c11.96.68,26.29-5.09,26.29-11.7,0-2.71-1.78-4.24-6.19-4.24-10.85,0-18.74,6.78-20.1,15.94Z"/>
    <path class="cls-1" d="M742.41,832.43v52.06c0,1.95,1.02,3.22,2.88,3.22,1.53,0,4.07-.42,7.29-2.97l2.54,7.63c-5.26,3.65-7.8,4.33-10.94,4.33-3.31,0-5.26-2.63-5.77-6.78-4.24,4.92-10.51,7.46-16.03,7.46-11.28,0-20.86-9.58-20.86-24.93,0-11.96,7.97-20.35,19.59-20.35,5.85,0,11.79,2.04,16.03,7.38v-18.91h-5.85l-2.8-8.14h13.91ZM719.18,890.68c7.04,0,12.97-4.41,17.98-11.87v-14.58c-2.37-2.03-6.95-4.07-11.62-4.07-9.33,0-18.31,4.32-18.31,15.35,0,8.65,5.6,15.18,11.96,15.18Z"/>
    <path class="cls-1" d="M797.7,887.88v-39.68h-13.57v10.01h-5.34v-18.15h44.01v18.15h-5.34v-10.01h-14.16v39.68h9.07l2.8,8.14h-26.2l-2.8-8.14h11.53Z"/>
    <path class="cls-1" d="M825.51,871.77c0-11.53,7.46-20.52,20.27-20.52,15.01,0,25.86,11.7,25.86,26.03,0,12.21-9.58,20.6-20.01,20.6-15.94,0-26.12-12.8-26.12-26.12ZM846.62,891.11c10.51,0,18.23-6.02,18.23-18.57,0-9.16-6.02-14.42-15.01-14.42-11.7,0-17.55,8.14-17.55,18.15,0,9.41,5.77,14.84,14.33,14.84Z"/>
    <path class="cls-1" d="M897.07,883.39c7.29,3.05,12.63,5.17,20.44,5.17,11.19,0,16.7-3.48,16.7-9.92,0-3.73-3.65-5.6-10.68-6.61-20.6-2.63-24.84-10.09-24.84-19.42,0-8.14,6.36-14.16,17.98-14.16,5.26,0,8.82.08,14.25,1.7l3.82,8.31c-6.87-1.53-9.67-1.95-16.03-1.95-11.28,0-15.09,3.65-15.09,8.31s3.56,7.38,14.84,8.9c15.01,2.04,21.03,7.72,21.03,17.38,0,10.77-10.51,15.77-21.11,15.77-8.14,0-12.46-1.44-17.89-3.65l-3.39-9.84Z"/>
    <path class="cls-1" d="M953.71,853.63v-13.31h.93l17.55,21.37h-13.23v22.64c0,3.48,1.87,5.17,4.41,5.17,3.39,0,6.36-1.95,10.34-5.85l4.24,7.29c-3.39,3.9-7.55,6.19-12.12,6.19-8.65,0-12.13-5.34-12.13-14.67v-20.69h-6.61l-2.8-8.14h9.41Z"/>
    <path class="cls-1" d="M981.77,871.77c0-11.53,7.46-20.52,20.27-20.52,15.01,0,25.86,11.7,25.86,26.03,0,12.21-9.58,20.6-20.01,20.6-15.94,0-26.12-12.8-26.12-26.12ZM1002.89,891.11c10.51,0,18.23-6.02,18.23-18.57,0-9.16-6.02-14.42-15.01-14.42-11.7,0-17.55,8.14-17.55,18.15,0,9.41,5.77,14.84,14.33,14.84Z"/>
    <path class="cls-1" d="M1040.79,909.08v-47.32h-5.09l-2.71-8.14h10.17l1.78,5.26c4.49-4.32,10.51-6.61,15.86-6.61,11.28,0,20.86,9.58,20.86,24.93,0,11.96-7.97,20.35-19.59,20.35-5.85,0-11.79-2.04-16.03-7.38v18.91h5.85l2.8,8.14h-18.91l-2.8-8.14h7.8ZM1046.04,870.67v14.75c2.37,2.04,6.95,4.07,11.62,4.07,9.33,0,18.32-4.32,18.32-15.35,0-8.65-5.6-15.18-11.96-15.18-7.04,0-12.97,4.24-17.98,11.7Z"/>
    <path class="cls-1" d="M-10.35,925.64l12.63,32.31,10.34-28.74-4.75-11.7h18.23l-5.85,15.26,10.26,25.18,12.04-32.31h-4.49l-2.8-8.14h10.34v-.08l4.32.08h2.8l2.8,8.14h-5.09l-19.08,49.77-14.42-35.61-13.82,35.61-20.44-49.77h-5.09l-2.8-8.14H-3.39l2.8,8.14h-9.75Z"/>
    <path class="cls-1" d="M53.75,949.21c0-11.53,7.46-20.52,20.27-20.52,15.01,0,25.86,11.7,25.86,26.03,0,12.21-9.58,20.6-20.01,20.6-15.94,0-26.12-12.8-26.12-26.12ZM74.87,968.54c10.51,0,18.23-6.02,18.23-18.57,0-9.16-6.02-14.42-15.01-14.42-11.7,0-17.55,8.14-17.55,18.15,0,9.41,5.77,14.84,14.33,14.84Z"/>
    <path class="cls-1" d="M114.04,965.32v-26.12h-5.77l-2.8-8.14h11.11l1.53,4.49h.08c2.97-4.16,7.63-6.44,13.31-6.44l2.37,7.55c-7.46,0-11.02,2.12-14.58,8.82v19.84h6.78l2.71,8.14h-20.52l-2.8-8.14h8.56Z"/>
    <path class="cls-1" d="M146.43,965.32v-26.12h-5.77l-2.8-8.14h11.11l1.53,4.49h.08c2.97-4.16,7.63-6.44,13.31-6.44l2.37,7.55c-7.46,0-11.02,2.12-14.58,8.82v19.84h6.78l2.71,8.14h-20.52l-2.8-8.14h8.56Z"/>
    <path class="cls-1" d="M190.01,970.15l-14.67-30.95h-5.17l-2.8-8.14h18.65l2.8,8.14h-7.63l11.19,24.51,9.07-24.76-2.54-7.89h13.31l-18.4,48.25c-2.71,7.12-8.31,14.08-19.84,15.77l-2.54-10.09c9.58.08,13.82-2.04,16.96-10.51l1.61-4.32Z"/>
    <path class="cls-1" d="M224.77,965.32v-26.12h-6.78l-2.8-8.14h14.84v34.26h5.77l2.71,8.14h-19.67l-2.8-8.14h8.73ZM220.87,917.16c0-3.39,1.95-5.43,5.43-5.43s6.27,3.48,6.27,7.38c0,3.65-2.2,5.51-5.43,5.51-3.56,0-6.27-3.73-6.27-7.46Z"/>
    <path class="cls-1" d="M252.25,965.32v-26.12h-7.63l-2.8-8.14h10.94l1.19,3.65c3.9-3.73,8.14-5.34,12.63-5.34,13.31,0,19.33,7.63,19.33,17.38v18.57h5.26l2.71,8.14h-16.2l-2.8-8.14h5.85v-17.72c0-7.72-4.15-10.6-12.21-10.6-4.32,0-8.23,1.87-11.02,5.09v23.23h4.24l2.71,8.14h-17.98l-2.8-8.14h8.56Z"/>
    <path class="cls-1" d="M344.07,937.68l-9.75,5.94c.93,2.2,1.36,4.15,1.36,6.7,0,5.43-4.41,10.68-11.53,10.68-5.34,0-8.9-2.2-11.53-5.6l-4.24,2.29c-3.22,1.78-4.32,3.05-4.32,5.34,0,3.14,4.75,4.58,15.26,3.05,19.84-2.8,23.74,7.46,23.74,15.18,0,5.34-5.09,13.4-21.03,13.4-10.26,0-19.42-5.26-19.42-14.08,0-2.71,1.27-5.68,4.24-7.97-5.6-2.46-8.31-6.87-8.31-11.11,0-4.75,2.29-7.97,5.68-9.92l4.15-2.37c-1.95-2.63-2.71-5.51-2.71-8.56,0-5.68,5.17-11.45,12.63-11.45,5.26,0,9.5,2.29,12.55,7.21l9.16-7.63,4.07,8.9ZM316.09,986.94c10.68,0,23.23-4.16,23.23-10.18,0-2.04-6.7-4.49-15.6-3.14-10.85,1.27-17.21,7.29-17.21,10.26,0,2.12,3.99,3.05,9.58,3.05ZM319.48,953.7c5.68,0,11.19-2.97,11.19-9.41,0-4.49-3.65-7.89-8.14-7.89-6.02,0-10.51,4.16-10.51,9.92,0,3.73,2.54,7.38,7.46,7.38Z"/>
    <path class="cls-1" d="M376.72,965.32l14.41-39.68h-6.27l-2.8-8.14h21.11l18.15,47.82h5.68l2.71,8.14h-19.67l-2.8-8.14h8.73l-3.14-8.14h-25.69l-2.97,8.14h6.27l2.71,8.14h-22.64l-2.8-8.14h8.99ZM409.79,949.04l-10.09-26.54-9.58,26.54h19.67Z"/>
    <path class="cls-1" d="M443.87,965.32v-26.12h-7.63l-2.8-8.14h10.94l1.19,3.65c3.9-3.73,8.14-5.34,12.63-5.34,13.31,0,19.33,7.63,19.33,17.38v18.57h5.26l2.71,8.14h-16.2l-2.8-8.14h5.85v-17.72c0-7.72-4.15-10.6-12.21-10.6-4.32,0-8.23,1.87-11.02,5.09v23.23h4.24l2.71,8.14h-17.98l-2.8-8.14h8.56Z"/>
    <path class="cls-1" d="M532.05,909.87v52.06c0,1.95,1.02,3.22,2.88,3.22,1.53,0,4.07-.42,7.29-2.97l2.54,7.63c-5.26,3.65-7.8,4.33-10.94,4.33-3.31,0-5.26-2.63-5.77-6.78-4.24,4.92-10.51,7.46-16.03,7.46-11.28,0-20.86-9.58-20.86-24.93,0-11.96,7.97-20.35,19.59-20.35,5.85,0,11.79,2.04,16.03,7.38v-18.91h-5.85l-2.8-8.14h13.91ZM508.82,968.12c7.04,0,12.97-4.41,17.98-11.87v-14.58c-2.37-2.03-6.95-4.07-11.62-4.07-9.33,0-18.32,4.32-18.32,15.35,0,8.65,5.6,15.18,11.96,15.18Z"/>
    <path class="cls-1" d="M576.99,965.32v-39.68h-6.95l-2.8-8.14h22.98l2.71,8.14h-10.34v39.68h23.49v-12.38h5.17v20.52h-41.21l-2.8-8.14h9.75Z"/>
    <path class="cls-1" d="M618.45,949.21c0-11.53,7.46-20.52,20.27-20.52,15.01,0,25.86,11.7,25.86,26.03,0,12.21-9.58,20.6-20.01,20.6-15.94,0-26.12-12.8-26.12-26.12ZM639.56,968.54c10.51,0,18.23-6.02,18.23-18.57,0-9.16-6.02-14.42-15.01-14.42-11.7,0-17.55,8.14-17.55,18.15,0,9.41,5.77,14.84,14.33,14.84Z"/>
    <path class="cls-1" d="M684.25,939.2l10.68,22.64,10.26-22.64h-.08l-2.8-8.14h13.06l2.8,8.14h-5.26l-17.21,36.21-17.55-36.21h-6.19l-2.8-8.14h20.69l2.8,8.14h-8.39Z"/>
    <path class="cls-1" d="M744.87,974.82c-12.38,0-22.98-8.56-22.98-24.67,0-12.8,8.9-21.28,20.1-21.28,10.09,0,17.55,4.49,17.55,13.91s-14.58,17.04-31.37,13.91c1.19,7.55,6.87,11.45,12.97,11.45,7.46,0,13.23-2.97,18.32-9.16l3.99,6.36c-4.41,6.36-12.04,9.5-18.57,9.5ZM728.08,950.82c11.96.68,26.29-5.09,26.29-11.7,0-2.71-1.78-4.24-6.19-4.24-10.85,0-18.74,6.78-20.1,15.94Z"/>
    <path class="cls-1" d="M807.11,965.32v-39.68h-13.57v10.01h-5.34v-18.15h44.01v18.15h-5.34v-10.01h-14.16v39.68h9.07l2.8,8.14h-26.2l-2.8-8.14h11.53Z"/>
    <path class="cls-1" d="M845.01,965.32v-47.32h-6.78l-2.8-8.14h14.84v23.32c3.65-2.63,7.21-3.82,11.02-3.82,11.87,0,17.89,7.63,17.89,17.38v18.57h5.51l2.71,8.14h-17.38l-2.8-8.14h6.78v-17.72c0-7.72-4.15-10.6-10.77-10.6-4.92,0-9.33,2.46-12.97,6.53v21.79h5l2.71,8.14h-18.91l-2.8-8.14h8.73Z"/>
    <path class="cls-1" d="M914.11,974.82c-12.38,0-22.98-8.56-22.98-24.67,0-12.8,8.9-21.28,20.1-21.28,10.09,0,17.55,4.49,17.55,13.91s-14.58,17.04-31.37,13.91c1.19,7.55,6.87,11.45,12.97,11.45,7.46,0,13.23-2.97,18.32-9.16l3.99,6.36c-4.41,6.36-12.04,9.5-18.57,9.5ZM897.32,950.82c11.96.68,26.29-5.09,26.29-11.7,0-2.71-1.78-4.24-6.19-4.24-10.85,0-18.74,6.78-20.1,15.94Z"/>
    <path class="cls-1" d="M966.43,965.32v-39.68h-6.44l-2.8-8.14h21.37c16.96,0,25.18,10.34,25.18,20.52s-7.04,16.37-17.21,16.37h-14.84v10.94h8.48l2.71,8.14h-22.98l-2.8-8.14h9.33ZM971.68,925.55v20.69h14.5c9.07,0,12.63-4.41,12.63-10.85,0-4.66-3.22-10.01-11.36-9.92l-15.77.08Z"/>
    <path class="cls-1" d="M1031.21,974.82c-12.38,0-22.98-8.56-22.98-24.67,0-12.8,8.9-21.28,20.1-21.28,10.09,0,17.55,4.49,17.55,13.91s-14.58,17.04-31.37,13.91c1.19,7.55,6.87,11.45,12.97,11.45,7.46,0,13.23-2.97,18.32-9.16l3.99,6.36c-4.41,6.36-12.04,9.5-18.57,9.5ZM1014.42,950.82c11.96.68,26.29-5.09,26.29-11.7,0-2.71-1.78-4.24-6.19-4.24-10.85,0-18.74,6.78-20.1,15.94Z"/>
    <path class="cls-1" d="M1064.44,965.32v-26.12h-7.63l-2.8-8.14h10.94l1.19,3.65c3.9-3.73,8.14-5.34,12.63-5.34,13.31,0,19.33,7.63,19.33,17.38v18.57h5.26l2.71,8.14h-16.2l-2.8-8.14h5.85v-17.72c0-7.72-4.15-10.6-12.21-10.6-4.32,0-8.22,1.87-11.02,5.09v23.23h4.24l2.71,8.14h-17.98l-2.8-8.14h8.56Z"/>
  </g>
  <g>
    <path class="cls-1" d="M49.92,317.4v-107.15h-17.4l-7.56-21.98h64.8c45.79,0,68,24.27,68,51.74s-19,38.69-46.48,38.69h-.23l7.1,18.09c5.95,14.88,13.97,21.98,28.62,21.98,6.64,0,13.51-1.14,21.75-5.04l6.87,22.44c-9.39,4.12-17.4,6.18-27.25,6.18-18.55,0-30.22-8.01-38.24-28.62l-13.51-35.03h-32.28v38.69h18.32l7.33,21.98h-57.47l-7.56-21.98h25.19ZM64.12,210.02v46.71h46.25c24.5,0,34.11-6.41,34.11-23.81,0-12.59-8.7-23.35-30.68-23.12l-49.68.23Z"/>
    <path class="cls-1" d="M206.99,317.4v-107.15h-17.4l-7.56-21.98h128.22v48.08h-15.11v-26.1h-73.04v41.21h43.5v-13.74h13.97v55.18h-13.97v-19.46h-43.5v43.96h75.1v-34.57h15.11v56.55h-122.95l-7.56-21.98h25.19Z"/>
    <path class="cls-1" d="M359.47,210.25l40.75,91.81,36.86-91.81h-.23l-7.56-21.98h38.69l7.56,21.98h-14.88l-58.61,134.4-60.22-134.4h-14.42l-7.56-21.98h56.55l7.56,21.98h-24.5Z"/>
    <path class="cls-1" d="M505.77,317.4v-107.15h-17.4l-7.56-21.98h128.22v48.08h-15.11v-26.1h-73.04v41.21h43.5v-13.74h13.97v55.18h-13.97v-19.46h-43.5v43.96h75.1v-34.57h15.11v56.55h-122.95l-7.56-21.98h25.19Z"/>
    <path class="cls-1" d="M647.5,317.4v-107.15h-17.4l-7.56-21.98h64.79c45.79,0,68,24.27,68,51.74s-19,38.69-46.48,38.69h-.23l7.1,18.09c5.95,14.88,13.97,21.98,28.62,21.98,6.64,0,13.51-1.14,21.75-5.04l6.87,22.44c-9.39,4.12-17.4,6.18-27.25,6.18-18.54,0-30.22-8.01-38.24-28.62l-13.51-35.03h-32.28v38.69h18.32l7.33,21.98h-57.47l-7.56-21.98h25.19ZM661.69,210.02v46.71h46.25c24.5,0,34.11-6.41,34.11-23.81,0-12.59-8.7-23.35-30.68-23.12l-49.68.23Z"/>
    <path class="cls-1" d="M780.06,305.27c19.69,8.24,34.12,13.97,55.18,13.97,30.22,0,45.11-9.39,45.11-26.79,0-10.07-9.85-15.11-28.85-17.86-55.64-7.1-67.08-27.25-67.08-52.43,0-21.98,17.17-38.24,48.54-38.24,14.2,0,23.81.23,38.46,4.58l10.3,22.44c-18.54-4.12-26.1-5.27-43.27-5.27-30.45,0-40.75,9.85-40.75,22.44s9.62,19.92,40.07,24.04c40.53,5.49,56.78,20.83,56.78,46.94,0,29.08-28.39,42.59-57.01,42.59-21.98,0-33.66-3.89-48.31-9.85l-9.16-26.56Z"/>
    <path class="cls-1" d="M927.74,317.4v-107.15h-17.4l-7.56-21.98h128.22v48.08h-15.11v-26.1h-73.04v41.21h43.5v-13.74h13.97v55.18h-13.97v-19.46h-43.5v43.96h75.1v-34.57h15.11v56.55h-122.95l-7.56-21.98h25.19Z"/>
  </g>
  <g>
    <path class="cls-1" d="M122.85,386.52c-13.83-5.33-22.13-5.93-32.8-5.93-30.83,0-57.51,19.76-57.51,52.76,0,24.31,21.94,47.23,47.23,47.23,21.34,0,38.14-9.49,51.58-26.88l9.88,21.15c-15.81,13.44-30.83,21.54-52.76,21.34-35.37-.59-69.56-24.11-69.56-73.51,0-39.72,27.27-62.84,66.99-62.84,10.47,0,17.98.59,29.84,3.95l7.11,22.73Z"/>
    <path class="cls-1" d="M147.95,423.47c0-35.97,26.48-63.83,66.4-63.83,42.88,0,71.34,30.24,71.34,71.74,0,34.58-26.88,65.21-66.99,65.21-42.69,0-70.75-30.83-70.75-73.12ZM207.83,479.99c35.57,0,59.88-26.08,59.88-60.47,0-26.48-17-44.27-40.71-44.27-35.97,0-61.85,24.7-61.85,61.06,0,26.48,17.19,43.67,42.69,43.67Z"/>
    <path class="cls-1" d="M315.53,474.06v-92.48h-17.39l-6.52-18.97h39.92l59.48,91.89v-72.92h-16.01l-6.52-18.97h49.21l6.32,18.97h-19.96v118.17l-75.49-119.16v93.47h14.23l6.32,18.97h-50.99l-6.52-18.97h23.91Z"/>
    <path class="cls-1" d="M481.72,474.06v-92.48h-31.62v23.32h-12.45v-42.29h102.56v42.29h-12.45v-23.32h-33v92.48h21.15l6.52,18.97h-61.06l-6.52-18.97h26.88Z"/>
    <path class="cls-1" d="M575.59,474.06v-92.48h-15.02l-6.52-18.97h55.92c39.52,0,58.69,20.95,58.69,44.66s-16.4,33.4-40.12,33.4h-.2l6.13,15.61c5.14,12.85,12.05,18.97,24.7,18.97,5.73,0,11.66-.99,18.77-4.35l5.93,19.37c-8.1,3.56-15.02,5.34-23.52,5.34-16.01,0-26.08-6.92-33-24.7l-11.66-30.24h-27.86v33.4h15.81l6.32,18.97h-49.6l-6.52-18.97h21.74ZM587.84,381.38v40.31h39.92c21.14,0,29.44-5.53,29.44-20.55,0-10.87-7.51-20.16-26.48-19.96l-42.88.2Z"/>
    <path class="cls-1" d="M710.56,474.06l33.59-92.48h-14.62l-6.52-18.97h49.21l42.29,111.46h13.24l6.32,18.97h-45.85l-6.52-18.97h20.35l-7.31-18.97h-59.88l-6.92,18.97h14.62l6.32,18.97h-52.76l-6.52-18.97h20.95ZM787.63,436.12l-23.52-61.85-22.33,61.85h45.85Z"/>
    <path class="cls-1" d="M836.05,463.59c17,7.11,29.44,12.05,47.62,12.05,26.09,0,38.93-8.1,38.93-23.12,0-8.69-8.5-13.04-24.9-15.41-48.02-6.13-57.9-23.52-57.9-45.25,0-18.97,14.82-33,41.89-33,12.25,0,20.55.2,33.2,3.95l8.89,19.37c-16.01-3.56-22.53-4.54-37.35-4.54-26.28,0-35.18,8.5-35.18,19.37s8.3,17.19,34.58,20.75c34.98,4.74,49.01,17.98,49.01,40.51,0,25.1-24.5,36.76-49.21,36.76-18.97,0-29.05-3.36-41.7-8.5l-7.9-22.92Z"/>
    <path class="cls-1" d="M979.91,474.06v-92.48h-31.62v23.32h-12.45v-42.29h102.56v42.29h-12.45v-23.32h-33v92.48h21.14l6.52,18.97h-61.06l-6.52-18.97h26.88Z"/>
  </g>
</svg>