<?xml version="1.0" encoding="UTF-8"?>
<svg id="Layer_1" data-name="Layer 1" xmlns="http://www.w3.org/2000/svg" viewBox="0 0 1080 1080">
  <defs>
    <style>
      .cls-1 {
        fill: #fff;
      }
    </style>
  </defs>
  <rect y="0" width="1080" height="1080"/>
  <rect class="cls-1" width="1080" height="213.89"/>
  <rect class="cls-1" x="-3.12" y="424.94" width="1083.12" height="118.06"/>
  <g>
    <path class="cls-1" d="M40.44,200.39h36l44.1,109.5h7.5v-109.5h45v207h-36l-44.1-107.4h-7.5v107.4h-45v-207Z"/>
    <path class="cls-1" d="M227.64,410.39c-23.4,0-35.1-13.5-35.1-42v-24.9c0-29.1,14.4-43.8,49.5-43.8h22.5v-21.3h-58.8v-30c12.9-4.2,24.3-6,40.5-6,37.8,0,60.3,18.3,60.3,54.9v110.1h-36l-4.2-19.5h-5.7c-4.5,13.8-16.2,22.5-33,22.5ZM264.54,372.89v-55.2h-30v55.2h30Z"/>
    <path class="cls-1" d="M327.54,369.59v-125.7h45v129h33v-129h45v163.5h-34.8l-6.9-19.5h-3.9c-8.1,15.6-20.7,22.5-39.3,22.5-23.7,0-38.1-14.4-38.1-40.8Z"/>
    <path class="cls-1" d="M473.04,353.09v-57.3c0-39,15-54.9,39.6-54.9,17.7,0,28.2,6.9,35.7,21h5.4l4.8-18h37.5v152.4c0,48.6-24,69.9-65.7,69.6-18.3,0-30.6-1.2-47.7-4.8v-35.7h68.4v-40.5h-4.8c-7.8,15.6-16.8,22.5-33.6,22.5-23.7,0-39.6-14.4-39.6-54.3ZM551.04,369.89v-93h-33v93h33Z"/>
    <path class="cls-1" d="M620.03,194.39h45v67.5h3.3c8.4-13.5,20.7-21,40.8-21,26.4,0,35.4,15.6,35.4,38.1v128.4h-45v-130.5h-34.5v130.5h-45v-213Z"/>
    <path class="cls-1" d="M769.13,363.29v-104.1h-12.6v-15.3l57.6-44.1v44.1h23.7v15h-23.7v114h27v34.5c-8.4,1.8-16.2,3-27,3-30.9,0-45-17.4-45-47.1Z"/>
    <path class="cls-1" d="M896.63,416.09l-53.1-173.4,47.4,1.2,29.7,105.3h9v-105.3h45.3l-55.5,223.5-47.7-20.4,24.9-30.9Z"/>
  </g>
  <g>
    <path class="cls-1" d="M-9.92,534.29h45v168h36.6v39H-9.92v-207Z"/>
    <path class="cls-1" d="M115.48,534.29h61.2l41.1,207h-51.3l-8.1-44.4h-33.3v44.4h-45.9l36.3-207ZM125.08,675.89h29.4l-16.8-90.9h-12.6v90.9Z"/>
    <path class="cls-1" d="M230.68,702.29h61.5l-41.7-61.8c-13.8-20.4-19.8-37.5-19.8-56.7,0-31.5,20.4-52.5,57.6-52.5,12,0,19.5,1.2,30,4.5v37.5h-54.3l44.7,62.4c13.8,19.2,21.6,36,21.6,57.6,0,32.4-22.5,51-55.5,51-15.9,0-28.5-1.5-44.1-5.7v-36.3Z"/>
    <path class="cls-1" d="M344.97,677.39v-75.9c0-51.3,26.1-70.2,62.7-70.2,14.7,0,21.6.9,31.5,3.3v38.7h-47.7v129h50.4v37.2c-11.7,2.4-23.1,4.2-36.6,4.2-34.5,0-60.3-19.8-60.3-66.3Z"/>
    <path class="cls-1" d="M458.37,534.29h45v207h-45v-207Z"/>
    <path class="cls-1" d="M519.87,534.29h49.8l27.9,147h10.5v-147h46.5l-40.5,207h-50.7l-43.5-207Z"/>
    <path class="cls-1" d="M671.07,534.29h45v207h-45v-207Z"/>
    <path class="cls-1" d="M870.56,606.29v66.3c0,48.6-26.7,71.7-66,71.7s-66-23.1-66-71.7v-66.3c0-53.1,26.7-75,66-75s66,21.9,66,75ZM785.06,702.29h39v-129h-39v129Z"/>
    <path class="cls-1" d="M891.56,671.69v-137.4h46.5v168h36v-168h46.5v137.4c0,47.7-23.4,72.6-64.5,72.6s-64.5-24.9-64.5-72.6Z"/>
    <path class="cls-1" d="M1039.46,702.29h61.5l-41.7-61.8c-13.8-20.4-19.8-37.5-19.8-56.7,0-31.5,20.4-52.5,57.6-52.5,12,0,19.5,1.2,30,4.5v37.5h-54.3l44.7,62.4c13.8,19.2,21.6,36,21.6,57.6,0,32.4-22.5,51-55.5,51-15.9,0-28.5-1.5-44.1-5.7v-36.3Z"/>
  </g>
  <g>
    <path d="M362.69-18.69h53.7c49.5,0,68.1,20.1,68.1,51.3,0,20.7-9.6,35.1-25.5,43.2v4.5c23.1,9.6,34.2,23.7,34.2,50.4,0,36.9-27.6,57.6-69.9,57.6h-60.6V-18.69ZM442.49,72.81V20.31h-34.8v52.5h34.8ZM446.99,149.31v-55.5h-39.3v55.5h39.3Z"/>
    <path d="M544.79,191.31c-23.4,0-35.1-13.5-35.1-42v-24.9c0-29.1,14.4-43.8,49.5-43.8h22.5v-21.3h-58.8v-30c12.9-4.2,24.3-6,40.5-6,37.8,0,60.3,18.3,60.3,54.9v110.1h-36l-4.2-19.5h-5.7c-4.5,13.8-16.2,22.5-33,22.5ZM581.69,153.81v-55.2h-30v55.2h30Z"/>
    <path d="M627.28,24.81h47.1l17.4,115.2h9V32.31h60.9l15.6,107.7h9V24.81h37.2l-28.2,163.5h-51.6l-13.5-104.4h-6l-14.4,104.4h-52.5l-30-163.5Z"/>
    <path d="M832.78,134.31v-55.5c0-41.1,16.5-57,39.6-57,18,0,27.6,7.2,35.1,21h3.3V-24.69h45v213h-38.1l-4.5-19.5h-3c-9.3,15.6-21,22.5-37.8,22.5-23.1,0-39.6-14.7-39.6-57ZM910.79,153.81V57.81h-33v96h33Z"/>
    <path d="M1017.28,197.01l-53.1-173.4,47.4,1.2,29.7,105.3h9V24.81h45.3l-55.5,223.5-47.7-20.4,24.9-30.9Z"/>
  </g>
  <g>
    <path d="M-10.12,500.11H10.38l-13.9-20.6c-4.6-6.8-6.6-12.5-6.6-18.9,0-10.5,6.8-17.5,19.2-17.5,4,0,6.5.4,10,1.5v12.5H.98l14.9,20.8c4.6,6.4,7.2,12,7.2,19.2,0,10.8-7.5,17-18.5,17-5.3,0-9.5-.5-14.7-1.9v-12.1Z"/>
    <path d="M38.18,514.11c-7.8,0-11.7-4.5-11.7-14v-8.3c0-9.7,4.8-14.6,16.5-14.6h7.5v-7.1h-19.6v-10c4.3-1.4,8.1-2,13.5-2,12.6,0,20.1,6.1,20.1,18.3v36.7h-12l-1.4-6.5h-1.9c-1.5,4.6-5.4,7.5-11,7.5ZM50.48,501.61v-18.4h-10v18.4h10Z"/>
    <path d="M71.48,500.51v-41.9h15v43h11v-43h15v54.5h-11.6l-2.3-6.5h-1.3c-2.7,5.2-6.9,7.5-13.1,7.5-7.9,0-12.7-4.8-12.7-13.6Z"/>
    <path d="M119.48,492.21v-13.2c0-13.1,5.9-20.9,18.4-20.9,3.5,0,6.6.3,9.4,1.1v11h-12.8v31.4h13.8v11.4c-3.3.7-5.4,1.1-10.8,1.1-11.5,0-18-7.3-18-21.9Z"/>
    <path d="M168.18,516.01l-17.7-57.8,15.8.4,9.9,35.1h3v-35.1h15.1l-18.5,74.5-15.9-6.8,8.3-10.3Z"/>
    <path d="M213.98,444.11h16.3c18.2,0,24.7,9,24.7,22.8,0,7-3.1,12.6-9.7,16.1l12.5,30.1h-17.8l-7.9-24.6h-3.1v24.6h-15v-69ZM228.98,457.11v24.9h11.3v-24.9h-11.3Z"/>
    <path d="M272.48,514.11c-7.8,0-11.7-4.5-11.7-14v-8.3c0-9.7,4.8-14.6,16.5-14.6h7.5v-7.1h-19.6v-10c4.3-1.4,8.1-2,13.5-2,12.6,0,20.1,6.1,20.1,18.3v36.7h-12l-1.4-6.5h-1.9c-1.5,4.6-5.4,7.5-11,7.5ZM284.78,501.61v-18.4h-10v18.4h10Z"/>
    <path d="M305.77,500.51v-41.9h15v43h11v-43h15v54.5h-11.6l-2.3-6.5h-1.3c-2.7,5.2-6.9,7.5-13.1,7.5-7.9,0-12.7-4.8-12.7-13.6Z"/>
    <path d="M354.77,458.61h12.1l2.1,6h1c2.9-4.4,7.3-7,14-7,8.8,0,11.8,5.2,11.8,12.7v42.8h-15v-43.5h-11v43.5h-15v-54.5Z"/>
    <path d="M402.77,492.21v-13.2c0-13.1,5.9-20.9,18.4-20.9,3.5,0,6.6.3,9.4,1.1v11h-12.8v31.4h13.8v11.4c-3.3.7-5.4,1.1-10.8,1.1-11.5,0-18-7.3-18-21.9Z"/>
    <path d="M437.97,442.11h15v22.5h1.1c2.8-4.5,6.9-7,13.6-7,8.8,0,11.8,5.2,11.8,12.7v42.8h-15v-43.5h-11.5v43.5h-15v-71Z"/>
    <path d="M498.97,516.01l-17.7-57.8,15.8.4,9.9,35.1h3v-35.1h15.1l-18.5,74.5-15.9-6.8,8.3-10.3Z"/>
    <path d="M544.77,444.11h16.3c18.2,0,24.7,9,24.7,22.8,0,7-3.1,12.6-9.7,16.1l12.5,30.1h-17.8l-7.9-24.6h-3.1v24.6h-15v-69ZM559.77,457.11v24.9h11.3v-24.9h-11.3Z"/>
    <path d="M591.07,500.51v-41.9h15v43h11v-43h15v54.5h-11.6l-2.3-6.5h-1.3c-2.7,5.2-6.9,7.5-13.1,7.5-7.9,0-12.7-4.8-12.7-13.6Z"/>
    <path d="M639.57,495.11v-18.5c0-13.7,5.5-19,13.2-19,6,0,9.2,2.4,11.7,7h1.1v-22.5h15v71h-12.7l-1.5-6.5h-1c-3.1,5.2-7,7.5-12.6,7.5-7.7,0-13.2-4.9-13.2-19ZM665.57,501.61v-32h-11v32h11Z"/>
    <path d="M687.57,495.11v-18.5c0-11.4,5.5-18.5,18.6-18.5,12.3,0,17.9,6.6,17.9,19.9v15.6h-22.5v8h20.9v10.5c-4.6,1.4-9,2-15.7,2-13.6,0-19.2-8.2-19.2-19ZM701.57,469.61v18h9.5v-18h-9.5Z"/>
    <path d="M744.76,491.81v-25.3c0-17.1,8.7-23.4,20.9-23.4,4.9,0,7.2.3,10.5,1.1v12.9h-15.9v43h16.8v12.4c-3.9.8-7.7,1.4-12.2,1.4-11.5,0-20.1-6.6-20.1-22.1Z"/>
    <path d="M782.06,458.61h11.4l2.6,7.5h1.6c2.5-6.1,5.3-8.5,12.9-8.5v13.5h-13.5v42h-15v-54.5Z"/>
    <path d="M815.56,500.51v-41.9h15v43h11v-43h15v54.5h-11.6l-2.3-6.5h-1.3c-2.7,5.2-6.9,7.5-13.1,7.5-7.9,0-12.7-4.8-12.7-13.6Z"/>
    <path d="M864.06,495.11v-18.5c0-13.7,5.5-19,13.2-19,6,0,9.2,2.4,11.7,7h1.1v-22.5h15v71h-12.7l-1.5-6.5h-1c-3.1,5.2-7,7.5-12.6,7.5-7.7,0-13.2-4.9-13.2-19ZM890.06,501.61v-32h-11v32h11Z"/>
    <path d="M912.06,495.11v-18.5c0-11.4,5.5-18.5,18.6-18.5,12.3,0,17.9,6.6,17.9,19.9v15.6h-22.5v8h20.9v10.5c-4.6,1.4-9,2-15.7,2-13.6,0-19.2-8.2-19.2-19ZM926.06,469.61v18h9.5v-18h-9.5Z"/>
    <path d="M970.26,444.11h15v56h12.2v13h-27.2v-69Z"/>
    <path d="M1000.96,495.11v-18.5c0-11.4,5.5-18.5,18.6-18.5,12.3,0,17.9,6.6,17.9,19.9v15.6h-22.5v8h20.9v10.5c-4.6,1.4-9,2-15.7,2-13.6,0-19.2-8.2-19.2-19ZM1014.96,469.61v18h9.5v-18h-9.5Z"/>
    <path d="M1039.66,458.61h15.7l5.8,38.4h3v-35.9h20.3l5.2,35.9h3v-38.4h12.4l-9.4,54.5h-17.2l-4.5-34.8h-2l-4.8,34.8h-17.5l-10-54.5Z"/>
  </g>
  <rect class="cls-1" y="740.29" width="1075.16" height="118.06"/>
  <g>
    <path d="M24.67,746.95h25.5v117.3h-25.5v-117.3Z"/>
    <path d="M64.62,771.6h20.57l3.57,10.2h1.7c4.93-7.48,12.41-11.9,23.8-11.9,14.96,0,20.06,8.84,20.06,21.59v72.76h-25.5v-73.95h-18.7v73.95h-25.5v-92.65Z"/>
    <path d="M147.07,833.65v-31.45c0-23.29,9.35-32.3,22.44-32.3,10.2,0,15.64,4.08,19.89,11.9h1.87v-38.25h25.5v120.7h-21.59l-2.55-11.05h-1.7c-5.27,8.84-11.9,12.75-21.42,12.75-13.09,0-22.44-8.33-22.44-32.3ZM191.27,844.7v-54.4h-18.7v54.4h18.7Z"/>
    <path d="M228.67,833.65v-31.45c0-19.38,9.35-31.45,31.62-31.45,20.91,0,30.43,11.22,30.43,33.83v26.52h-38.25v13.6h35.53v17.85c-7.82,2.38-15.3,3.4-26.69,3.4-23.12,0-32.64-13.94-32.64-32.3ZM252.47,790.3v30.6h16.15v-30.6h-16.15Z"/>
    <path d="M300.91,828.72v-22.44c0-22.27,10.03-35.53,31.28-35.53,5.95,0,11.22.51,15.98,1.87v18.7h-21.76v53.38h23.46v19.38c-5.61,1.19-9.18,1.87-18.36,1.87-19.55,0-30.6-12.41-30.6-37.23Z"/>
    <path d="M359.05,833.65v-31.45c0-19.38,9.35-31.45,31.62-31.45,20.91,0,30.43,11.22,30.43,33.83v26.52h-38.25v13.6h35.53v17.85c-7.82,2.38-15.3,3.4-26.69,3.4-23.12,0-32.64-13.94-32.64-32.3ZM382.85,790.3v30.6h16.15v-30.6h-16.15Z"/>
    <path d="M433,771.6h20.57l3.57,10.2h1.7c4.93-7.48,12.41-11.9,23.8-11.9,14.96,0,20.06,8.84,20.06,21.59v72.76h-25.5v-73.95h-18.7v73.95h-25.5v-92.65Z"/>
    <path d="M518.34,839.26v-58.99h-7.14v-8.67l32.64-24.99v24.99h13.43v8.5h-13.43v64.6h15.3v19.55c-4.76,1.02-9.18,1.7-15.3,1.7-17.51,0-25.5-9.86-25.5-26.69Z"/>
    <path d="M592.62,746.95h29.24c27.71,0,41.31,12.41,41.31,41.31v9.52c0,24.65-11.9,37.23-36.55,37.23h-8.5v29.24h-25.5v-117.3ZM618.12,769.05v54.06h19.55v-54.06h-19.55Z"/>
    <path d="M670.82,771.6h19.38l4.42,12.75h2.72c4.25-10.37,9.01-14.45,21.93-14.45v22.95h-22.95v71.4h-25.5v-92.65Z"/>
    <path d="M726.07,828.04v-21.76c0-23.46,12.07-36.38,33.15-36.38s33.15,12.92,33.15,36.38v21.76c0,22.95-9.35,37.91-33.15,37.91s-33.15-14.96-33.15-37.91ZM768.57,790.3h-18.7v54.4h18.7v-54.4Z"/>
    <path d="M804.95,780.1h-8.33v-8.5h15.47v-2.55c-7.65-2.21-11.56-8.16-11.56-14.45,0-11.22,7.48-17.85,22.1-17.85,6.63,0,11.73.68,17.68,2.89v17h-16.83l4.93,14.96h13.77v8.5h-11.73v84.15h-25.5v-84.15Z"/>
    <path d="M862.07,865.95c-13.26,0-19.89-7.65-19.89-23.8v-14.11c0-16.49,8.16-24.82,28.05-24.82h12.75v-12.07h-33.32v-17c7.31-2.38,13.77-3.4,22.95-3.4,21.42,0,34.17,10.37,34.17,31.11v62.39h-20.4l-2.38-11.05h-3.23c-2.55,7.82-9.18,12.75-18.7,12.75ZM882.98,844.7v-31.28h-17v31.28h17Z"/>
    <path d="M920.38,771.6h20.57l3.57,10.2h1.7c4.93-7.48,12.41-11.9,23.8-11.9,14.96,0,20.06,8.84,20.06,21.59v72.76h-25.5v-73.95h-18.7v73.95h-25.5v-92.65Z"/>
    <path d="M1001.98,833.65v-31.45c0-19.38,9.35-31.45,31.62-31.45,20.91,0,30.43,11.22,30.43,33.83v26.52h-38.25v13.6h35.53v17.85c-7.82,2.38-15.3,3.4-26.69,3.4-23.12,0-32.64-13.94-32.64-32.3ZM1025.78,790.3v30.6h16.15v-30.6h-16.15Z"/>
  </g>
  <g>
    <path class="cls-1" d="M-30.35,982.77v-38.4c0-41.4,21.3-64.2,58.5-64.2s58.5,22.8,58.5,64.2v38.4c0,40.5-16.5,66.9-58.5,66.9s-58.5-26.4-58.5-66.9ZM44.65,916.17H11.65v96h33v-96Z"/>
    <path class="cls-1" d="M107.65,883.17h34.2l7.8,22.5h4.8c7.5-18.3,15.9-25.5,38.7-25.5v40.5h-40.5v126h-45v-163.5Z"/>
    <path class="cls-1" d="M381.25,911.67v66.3c0,48.6-26.7,71.7-66,71.7s-66-23.1-66-71.7v-66.3c0-53.1,26.7-75,66-75s66,21.9,66,75ZM295.75,1007.67h39v-129h-39v129Z"/>
    <path class="cls-1" d="M402.25,833.67h45v67.5h3.3c9.3-12.9,19.8-21,37.5-21,22.8,0,37.2,13.2,37.2,57v55.5c0,39.3-14.4,57-37.8,57-17.4,0-30.3-6.9-38.1-22.5h-4.8l-4.5,19.5h-37.8v-213ZM447.25,916.17v96h33v-96h-33Z"/>
    <path class="cls-1" d="M538.74,1043.97v-31.8h51.6l-30-38.1c-14.4-18.3-20.1-31.8-20.1-49.8,0-24.6,17.1-42.6,48-42.6,13.2,0,18.3,1.2,29.4,4.8v29.4h-46.5l38.7,46.5c12.9,15.3,16.8,27,16.8,44.4,0,25.2-16.8,42.9-48.9,42.9-12.6,0-25.8-1.5-39-5.7Z"/>
    <path class="cls-1" d="M638.64,983.97v-39.6c0-39.3,17.7-62.7,55.2-62.7,10.5,0,19.8.9,28.2,3.3v33h-38.4v94.2h41.4v34.2c-9.9,2.1-16.2,3.3-32.4,3.3-34.5,0-54-21.9-54-65.7Z"/>
    <path class="cls-1" d="M741.24,992.67v-55.5c0-34.2,16.5-55.5,55.8-55.5,36.9,0,53.7,19.8,53.7,59.7v46.8h-67.5v24h62.7v31.5c-13.8,4.2-27,6-47.1,6-40.8,0-57.6-24.6-57.6-57ZM783.24,916.17v54h28.5v-54h-28.5Z"/>
    <path class="cls-1" d="M871.73,883.17h36.3l6.3,18h3c8.7-13.2,21.9-21,42-21,26.4,0,35.4,15.6,35.4,38.1v128.4h-45v-130.5h-33v130.5h-45v-163.5Z"/>
    <path class="cls-1" d="M1015.73,992.67v-55.5c0-34.2,16.5-55.5,55.8-55.5,36.9,0,53.7,19.8,53.7,59.7v46.8h-67.5v24h62.7v31.5c-13.8,4.2-27,6-47.1,6-40.8,0-57.6-24.6-57.6-57ZM1057.73,916.17v54h28.5v-54h-28.5Z"/>
  </g>
</svg>