<?xml version="1.0" encoding="UTF-8"?>
<svg id="Layer_1" data-name="Layer 1" xmlns="http://www.w3.org/2000/svg" viewBox="0 0 1080 1080">
  <defs>
    <style>
      .cls-1 {
        fill: #fff;
      }
    </style>
  </defs>
  <rect width="1080" height="1080"/>
  <rect class="cls-1" x="-19.36" width="1118.72" height="216.28"/>
  <rect class="cls-1" x="-19.36" y="419.94" width="1122.67" height="118.06"/>
  <rect class="cls-1" x="-19.36" y="721.24" width="1118.72" height="124.11"/>
  <g>
    <path d="M445.13,21.2h44.93c41.42,0,56.98,16.82,56.98,42.92,0,17.32-8.03,29.37-21.34,36.15v3.77c19.33,8.03,28.61,19.83,28.61,42.17,0,30.87-23.09,48.19-58.48,48.19h-50.7V21.2ZM511.9,97.75v-43.93h-29.12v43.93h29.12ZM515.66,161.76v-46.44h-32.88v46.44h32.88Z"/>
    <path d="M597.48,196.9c-19.58,0-29.37-11.3-29.37-35.14v-20.83c0-24.35,12.05-36.65,41.42-36.65h18.83v-17.82h-49.2v-25.1c10.79-3.51,20.33-5.02,33.89-5.02,31.63,0,50.45,15.31,50.45,45.93v92.12h-30.12l-3.51-16.32h-4.77c-3.77,11.55-13.55,18.83-27.61,18.83ZM628.36,165.52v-46.19h-25.1v46.19h25.1Z"/>
    <path d="M671.53,57.59h39.41l14.56,96.39h7.53V63.87h50.95l13.05,90.11h7.53V57.59h31.12l-23.59,136.8h-43.17l-11.29-87.35h-5.02l-12.05,87.35h-43.93l-25.1-136.8Z"/>
    <path d="M843.47,149.21v-46.44c0-34.39,13.81-47.69,33.13-47.69,15.06,0,23.09,6.02,29.37,17.57h2.76V16.18h37.65v178.21h-31.88l-3.77-16.32h-2.51c-7.78,13.05-17.57,18.83-31.63,18.83-19.33,0-33.13-12.3-33.13-47.69ZM908.73,165.52v-80.32h-27.61v80.32h27.61Z"/>
    <path d="M997.83,201.67l-44.43-145.08,39.66,1,24.85,88.1h7.53V57.59h37.9l-46.44,187-39.91-17.07,20.83-25.85Z"/>
  </g>
  <g>
    <path class="cls-1" d="M16.52,233.35h30.12l36.9,91.62h6.27v-91.62h37.65v173.19h-30.12l-36.9-89.86h-6.28v89.86H16.52v-173.19Z"/>
    <path class="cls-1" d="M173.14,409.05c-19.58,0-29.37-11.3-29.37-35.14v-20.83c0-24.35,12.05-36.65,41.42-36.65h18.83v-17.82h-49.2v-25.1c10.79-3.51,20.33-5.02,33.89-5.02,31.63,0,50.45,15.31,50.45,45.93v92.12h-30.12l-3.51-16.32h-4.77c-3.77,11.55-13.55,18.83-27.61,18.83ZM204.02,377.68v-46.19h-25.1v46.19h25.1Z"/>
    <path class="cls-1" d="M256.72,374.92v-105.17h37.65v107.93h27.61v-107.93h37.65v136.8h-29.12l-5.77-16.32h-3.26c-6.78,13.05-17.32,18.83-32.88,18.83-19.83,0-31.88-12.05-31.88-34.14Z"/>
    <path class="cls-1" d="M378.46,361.11v-47.94c0-32.63,12.55-45.93,33.13-45.93,14.81,0,23.59,5.77,29.87,17.57h4.52l4.02-15.06h31.38v127.51c0,40.66-20.08,58.48-54.97,58.23-15.31,0-25.6-1-39.91-4.02v-29.87h57.23v-33.89h-4.02c-6.53,13.05-14.06,18.83-28.11,18.83-19.83,0-33.13-12.05-33.13-45.43ZM443.72,375.17v-77.81h-27.61v77.81h27.61Z"/>
    <path class="cls-1" d="M501.44,228.33h37.65v56.48h2.76c7.03-11.3,17.32-17.57,34.14-17.57,22.09,0,29.62,13.05,29.62,31.88v107.43h-37.65v-109.19h-28.87v109.19h-37.65v-178.21Z"/>
    <path class="cls-1" d="M626.19,369.65v-87.1h-10.54v-12.8l48.19-36.9v36.9h19.83v12.55h-19.83v95.38h22.59v28.87c-7.03,1.51-13.55,2.51-22.59,2.51-25.85,0-37.65-14.56-37.65-39.41Z"/>
    <path class="cls-1" d="M732.86,413.82l-44.43-145.08,39.66,1,24.85,88.1h7.53v-88.1h37.9l-46.44,187-39.91-17.07,20.83-25.85Z"/>
  </g>
  <g>
    <path d="M-9.51,499.58H10.78l-13.76-20.39c-4.55-6.73-6.53-12.38-6.53-18.71,0-10.4,6.73-17.32,19.01-17.32,3.96,0,6.44.4,9.9,1.48v12.38H1.48l14.75,20.59c4.55,6.34,7.13,11.88,7.13,19.01,0,10.69-7.42,16.83-18.31,16.83-5.25,0-9.4-.49-14.55-1.88v-11.98Z"/>
    <path d="M38.3,513.44c-7.72,0-11.58-4.45-11.58-13.86v-8.22c0-9.6,4.75-14.45,16.33-14.45h7.43v-7.03h-19.4v-9.9c4.26-1.39,8.02-1.98,13.36-1.98,12.47,0,19.9,6.04,19.9,18.12v36.33h-11.88l-1.39-6.44h-1.88c-1.48,4.55-5.35,7.42-10.89,7.42ZM50.48,501.07v-18.22h-9.9v18.22h9.9Z"/>
    <path d="M71.27,499.98v-41.48h14.85v42.57h10.89v-42.57h14.85v53.95h-11.48l-2.28-6.44h-1.29c-2.67,5.15-6.83,7.42-12.97,7.42-7.82,0-12.57-4.75-12.57-13.46Z"/>
    <path d="M118.79,491.76v-13.07c0-12.97,5.84-20.69,18.22-20.69,3.47,0,6.53.3,9.31,1.09v10.89h-12.67v31.09h13.66v11.29c-3.27.69-5.35,1.09-10.69,1.09-11.39,0-17.82-7.23-17.82-21.68Z"/>
    <path d="M167,515.32l-17.52-57.22,15.64.4,9.8,34.75h2.97v-34.75h14.95l-18.31,73.75-15.74-6.73,8.22-10.2Z"/>
    <path d="M212.34,444.14h16.14c18.02,0,24.45,8.91,24.45,22.57,0,6.93-3.07,12.47-9.6,15.94l12.38,29.8h-17.62l-7.82-24.35h-3.07v24.35h-14.85v-68.31ZM227.19,457.01v24.65h11.19v-24.65h-11.19Z"/>
    <path d="M270.26,513.44c-7.72,0-11.58-4.45-11.58-13.86v-8.22c0-9.6,4.75-14.45,16.33-14.45h7.43v-7.03h-19.4v-9.9c4.26-1.39,8.02-1.98,13.36-1.98,12.47,0,19.9,6.04,19.9,18.12v36.33h-11.88l-1.39-6.44h-1.88c-1.48,4.55-5.35,7.42-10.89,7.42ZM282.43,501.07v-18.22h-9.9v18.22h9.9Z"/>
    <path d="M303.22,499.98v-41.48h14.85v42.57h10.89v-42.57h14.85v53.95h-11.48l-2.28-6.44h-1.29c-2.67,5.15-6.83,7.42-12.97,7.42-7.82,0-12.57-4.75-12.57-13.46Z"/>
    <path d="M351.73,458.5h11.98l2.08,5.94h.99c2.87-4.36,7.23-6.93,13.86-6.93,8.71,0,11.68,5.15,11.68,12.57v42.37h-14.85v-43.06h-10.89v43.06h-14.85v-53.95Z"/>
    <path d="M399.25,491.76v-13.07c0-12.97,5.84-20.69,18.22-20.69,3.46,0,6.53.3,9.31,1.09v10.89h-12.67v31.09h13.66v11.29c-3.27.69-5.35,1.09-10.69,1.09-11.38,0-17.82-7.23-17.82-21.68Z"/>
    <path d="M434.1,442.16h14.85v22.27h1.09c2.77-4.45,6.83-6.93,13.46-6.93,8.71,0,11.68,5.15,11.68,12.57v42.37h-14.85v-43.06h-11.38v43.06h-14.85v-70.29Z"/>
    <path d="M494.49,515.32l-17.52-57.22,15.64.4,9.8,34.75h2.97v-34.75h14.95l-18.31,73.75-15.74-6.73,8.22-10.2Z"/>
    <path d="M539.83,444.14h16.14c18.02,0,24.45,8.91,24.45,22.57,0,6.93-3.07,12.47-9.6,15.94l12.38,29.8h-17.62l-7.82-24.35h-3.07v24.35h-14.85v-68.31ZM554.68,457.01v24.65h11.19v-24.65h-11.19Z"/>
    <path d="M585.67,499.98v-41.48h14.85v42.57h10.89v-42.57h14.85v53.95h-11.48l-2.28-6.44h-1.29c-2.67,5.15-6.83,7.42-12.97,7.42-7.82,0-12.57-4.75-12.57-13.46Z"/>
    <path d="M633.68,494.63v-18.31c0-13.56,5.45-18.81,13.07-18.81,5.94,0,9.11,2.38,11.58,6.93h1.09v-22.27h14.85v70.29h-12.57l-1.48-6.44h-.99c-3.07,5.15-6.93,7.42-12.47,7.42-7.62,0-13.07-4.85-13.07-18.81ZM659.42,501.07v-31.68h-10.89v31.68h10.89Z"/>
    <path d="M681.2,494.63v-18.31c0-11.29,5.45-18.31,18.41-18.31,12.18,0,17.72,6.53,17.72,19.7v15.44h-22.27v7.92h20.69v10.4c-4.55,1.39-8.91,1.98-15.54,1.98-13.46,0-19.01-8.12-19.01-18.81ZM695.06,469.39v17.82h9.4v-17.82h-9.4Z"/>
    <path d="M737.82,491.36v-25.05c0-16.93,8.61-23.17,20.69-23.17,4.85,0,7.13.3,10.39,1.09v12.77h-15.74v42.57h16.63v12.28c-3.86.79-7.62,1.39-12.08,1.39-11.38,0-19.9-6.53-19.9-21.88Z"/>
    <path d="M774.75,458.5h11.29l2.57,7.42h1.58c2.47-6.04,5.25-8.41,12.77-8.41v13.36h-13.37v41.58h-14.85v-53.95Z"/>
    <path d="M807.91,499.98v-41.48h14.85v42.57h10.89v-42.57h14.85v53.95h-11.48l-2.28-6.44h-1.29c-2.67,5.15-6.83,7.42-12.97,7.42-7.82,0-12.57-4.75-12.57-13.46Z"/>
    <path d="M855.93,494.63v-18.31c0-13.56,5.45-18.81,13.07-18.81,5.94,0,9.11,2.38,11.58,6.93h1.09v-22.27h14.85v70.29h-12.57l-1.48-6.44h-.99c-3.07,5.15-6.93,7.42-12.47,7.42-7.62,0-13.07-4.85-13.07-18.81ZM881.67,501.07v-31.68h-10.89v31.68h10.89Z"/>
    <path d="M903.45,494.63v-18.31c0-11.29,5.45-18.31,18.41-18.31,12.18,0,17.72,6.53,17.72,19.7v15.44h-22.27v7.92h20.69v10.4c-4.55,1.39-8.91,1.98-15.54,1.98-13.46,0-19.01-8.12-19.01-18.81ZM917.31,469.39v17.82h9.4v-17.82h-9.4Z"/>
    <path d="M961.06,444.14h14.85v55.44h12.08v12.87h-26.93v-68.31Z"/>
    <path d="M991.45,494.63v-18.31c0-11.29,5.45-18.31,18.41-18.31,12.18,0,17.72,6.53,17.72,19.7v15.44h-22.27v7.92h20.69v10.4c-4.55,1.39-8.91,1.98-15.54,1.98-13.46,0-19.01-8.12-19.01-18.81ZM1005.31,469.39v17.82h9.4v-17.82h-9.4Z"/>
    <path d="M1029.77,458.5h15.54l5.74,38.02h2.97v-35.54h20.1l5.15,35.54h2.97v-38.02h12.28l-9.31,53.95h-17.03l-4.46-34.45h-1.98l-4.75,34.45h-17.33l-9.9-53.95Z"/>
  </g>
  <g>
    <path class="cls-1" d="M-4.56,556.75h37.65v140.56h30.62v32.63H-4.56v-173.2Z"/>
    <path class="cls-1" d="M100.35,556.75h51.21l34.39,173.2h-42.92l-6.78-37.15h-27.86v37.15h-38.4l30.37-173.2ZM108.38,675.23h24.6l-14.06-76.05h-10.54v76.05Z"/>
    <path class="cls-1" d="M196.73,697.32h51.46l-34.89-51.71c-11.55-17.07-16.57-31.38-16.57-47.44,0-26.36,17.07-43.93,48.19-43.93,10.04,0,16.32,1,25.1,3.77v31.38h-45.43l37.4,52.21c11.55,16.06,18.07,30.12,18.07,48.19,0,27.11-18.83,42.67-46.44,42.67-13.3,0-23.85-1.25-36.9-4.77v-30.37Z"/>
    <path class="cls-1" d="M292.36,676.49v-63.5c0-42.92,21.84-58.74,52.46-58.74,12.3,0,18.07.75,26.36,2.76v32.38h-39.91v107.93h42.17v31.12c-9.79,2.01-19.33,3.51-30.62,3.51-28.87,0-50.45-16.57-50.45-55.47Z"/>
    <path class="cls-1" d="M387.24,556.75h37.65v173.2h-37.65v-173.2Z"/>
    <path class="cls-1" d="M438.69,556.75h41.67l23.34,122.99h8.79v-122.99h38.91l-33.89,173.2h-42.42l-36.4-173.2Z"/>
    <path class="cls-1" d="M565.19,556.75h37.65v173.2h-37.65v-173.2Z"/>
    <path class="cls-1" d="M732.11,617v55.47c0,40.66-22.34,59.99-55.22,59.99s-55.22-19.33-55.22-59.99v-55.47c0-44.43,22.34-62.75,55.22-62.75s55.22,18.32,55.22,62.75ZM660.57,697.32h32.63v-107.93h-32.63v107.93Z"/>
    <path class="cls-1" d="M749.68,671.72v-114.96h38.91v140.56h30.12v-140.56h38.91v114.96c0,39.91-19.58,60.74-53.97,60.74s-53.97-20.83-53.97-60.74Z"/>
    <path class="cls-1" d="M873.42,697.32h51.46l-34.89-51.71c-11.55-17.07-16.57-31.38-16.57-47.44,0-26.36,17.07-43.93,48.19-43.93,10.04,0,16.32,1,25.1,3.77v31.38h-45.43l37.4,52.21c11.55,16.06,18.07,30.12,18.07,48.19,0,27.11-18.83,42.67-46.44,42.67-13.3,0-23.85-1.25-36.9-4.77v-30.37Z"/>
  </g>
  <g>
    <path d="M1.07,737.44h26.2v120.5H1.07v-120.5Z"/>
    <path d="M42.11,762.77h21.13l3.67,10.48h1.75c5.06-7.68,12.75-12.22,24.45-12.22,15.37,0,20.61,9.08,20.61,22.18v74.74h-26.2v-75.97h-19.21v75.97h-26.2v-95.18Z"/>
    <path d="M126.81,826.51v-32.31c0-23.93,9.6-33.18,23.05-33.18,10.48,0,16.07,4.19,20.43,12.22h1.92v-39.29h26.2v123.99h-22.18l-2.62-11.35h-1.75c-5.41,9.08-12.22,13.1-22,13.1-13.45,0-23.05-8.56-23.05-33.18ZM172.21,837.86v-55.88h-19.21v55.88h19.21Z"/>
    <path d="M210.63,826.51v-32.31c0-19.91,9.6-32.31,32.48-32.31,21.48,0,31.26,11.53,31.26,34.75v27.24h-39.29v13.97h36.5v18.34c-8.03,2.44-15.72,3.49-27.42,3.49-23.75,0-33.53-14.32-33.53-33.18ZM235.08,781.98v31.43h16.59v-31.43h-16.59Z"/>
    <path d="M284.85,821.44v-23.05c0-22.88,10.3-36.5,32.13-36.5,6.11,0,11.53.52,16.42,1.92v19.21h-22.35v54.84h24.1v19.91c-5.76,1.22-9.43,1.92-18.86,1.92-20.08,0-31.43-12.75-31.43-38.25Z"/>
    <path d="M344.58,826.51v-32.31c0-19.91,9.6-32.31,32.48-32.31,21.48,0,31.26,11.53,31.26,34.75v27.24h-39.29v13.97h36.5v18.34c-8.03,2.44-15.72,3.49-27.42,3.49-23.75,0-33.53-14.32-33.53-33.18ZM369.02,781.98v31.43h16.59v-31.43h-16.59Z"/>
    <path d="M420.54,762.77h21.13l3.67,10.48h1.75c5.06-7.68,12.75-12.22,24.45-12.22,15.37,0,20.61,9.08,20.61,22.18v74.74h-26.2v-75.97h-19.21v75.97h-26.2v-95.18Z"/>
    <path d="M508.21,832.27v-60.6h-7.33v-8.91l33.53-25.67v25.67h13.8v8.73h-13.8v66.36h15.72v20.08c-4.89,1.05-9.43,1.75-15.72,1.75-17.99,0-26.2-10.13-26.2-27.42Z"/>
    <path d="M584.52,737.44h30.04c28.47,0,42.44,12.75,42.44,42.44v9.78c0,25.32-12.22,38.25-37.55,38.25h-8.73v30.04h-26.2v-120.5ZM610.72,760.15v55.54h20.08v-55.54h-20.08Z"/>
    <path d="M664.86,762.77h19.91l4.54,13.1h2.79c4.37-10.65,9.26-14.84,22.53-14.84v23.58h-23.58v73.35h-26.2v-95.18Z"/>
    <path d="M721.61,820.75v-22.35c0-24.1,12.4-37.37,34.05-37.37s34.05,13.27,34.05,37.37v22.35c0,23.58-9.61,38.94-34.05,38.94s-34.05-15.37-34.05-38.94ZM765.27,781.98h-19.21v55.88h19.21v-55.88Z"/>
    <path d="M802.65,771.5h-8.56v-8.73h15.89v-2.62c-7.86-2.27-11.88-8.38-11.88-14.84,0-11.53,7.68-18.34,22.7-18.34,6.81,0,12.05.7,18.16,2.97v17.46h-17.29l5.06,15.37h14.15v8.73h-12.05v86.45h-26.2v-86.45Z"/>
    <path d="M861.32,859.69c-13.62,0-20.43-7.86-20.43-24.45v-14.49c0-16.94,8.38-25.5,28.81-25.5h13.1v-12.4h-34.23v-17.46c7.51-2.44,14.15-3.49,23.58-3.49,22,0,35.1,10.65,35.1,31.96v64.09h-20.96l-2.45-11.35h-3.32c-2.62,8.03-9.43,13.1-19.21,13.1ZM882.8,837.86v-32.13h-17.46v32.13h17.46Z"/>
    <path d="M921.22,762.77h21.13l3.67,10.48h1.75c5.06-7.68,12.75-12.22,24.45-12.22,15.37,0,20.61,9.08,20.61,22.18v74.74h-26.2v-75.97h-19.21v75.97h-26.2v-95.18Z"/>
    <path d="M1005.05,826.51v-32.31c0-19.91,9.6-32.31,32.48-32.31,21.48,0,31.26,11.53,31.26,34.75v27.24h-39.29v13.97h36.5v18.34c-8.03,2.44-15.72,3.49-27.42,3.49-23.75,0-33.53-14.32-33.53-33.18ZM1029.5,781.98v31.43h16.59v-31.43h-16.59Z"/>
  </g>
  <g>
    <path class="cls-1" d="M142.93,935.86v55.47c0,40.66-22.34,59.99-55.22,59.99s-55.22-19.33-55.22-59.99v-55.47c0-44.43,22.34-62.75,55.22-62.75s55.22,18.32,55.22,62.75ZM71.39,1016.18h32.63v-107.93h-32.63v107.93Z"/>
    <path class="cls-1" d="M160.5,875.62h40.91c45.68,0,62,22.59,62,57.23,0,17.57-7.78,31.63-24.35,40.41l31.38,75.55h-44.68l-19.83-61.75h-7.78v61.75h-37.65v-173.2ZM198.15,908.25v62.5h28.36v-62.5h-28.36Z"/>
    <path class="cls-1" d="M426.55,935.86v55.47c0,40.66-22.34,59.99-55.22,59.99s-55.22-19.33-55.22-59.99v-55.47c0-44.43,22.34-62.75,55.22-62.75s55.22,18.32,55.22,62.75ZM355.02,1016.18h32.63v-107.93h-32.63v107.93Z"/>
    <path class="cls-1" d="M444.12,875.62h44.93c41.42,0,56.98,16.82,56.98,42.92,0,17.32-8.03,29.37-21.34,36.14v3.77c19.33,8.03,28.61,19.83,28.61,42.17,0,30.87-23.09,48.19-58.48,48.19h-50.7v-173.2ZM510.89,952.17v-43.93h-29.12v43.93h29.12ZM514.65,1016.18v-46.44h-32.88v46.44h32.88Z"/>
    <path class="cls-1" d="M561.34,1016.18h51.46l-34.89-51.71c-11.55-17.07-16.57-31.38-16.57-47.44,0-26.36,17.07-43.93,48.19-43.93,10.04,0,16.32,1,25.1,3.77v31.38h-45.43l37.4,52.21c11.55,16.06,18.07,30.12,18.07,48.19,0,27.11-18.83,42.67-46.44,42.67-13.3,0-23.85-1.25-36.9-4.77v-30.37Z"/>
    <path class="cls-1" d="M656.46,995.35v-63.5c0-42.92,21.84-58.74,52.46-58.74,12.3,0,18.07.75,26.36,2.76v32.38h-39.91v107.93h42.17v31.12c-9.79,2.01-19.33,3.51-30.62,3.51-28.87,0-50.45-16.57-50.45-55.47Z"/>
    <path class="cls-1" d="M750.08,875.62h73.29v32.63h-34.39v47.19h28.62v17.57h-28.62v43.17h36.15v32.63h-75.05v-173.2Z"/>
    <path class="cls-1" d="M841.45,875.62h30.12l36.9,91.62h6.27v-91.62h37.65v173.2h-30.12l-36.9-89.86h-6.28v89.86h-37.65v-173.2Z"/>
    <path class="cls-1" d="M972.47,875.62h73.29v32.63h-34.39v47.19h28.62v17.57h-28.62v43.17h36.15v32.63h-75.05v-173.2Z"/>
  </g>
</svg>