<?xml version="1.0" encoding="UTF-8"?>
<svg id="Layer_1" data-name="Layer 1" xmlns="http://www.w3.org/2000/svg" viewBox="0 0 1080 1080">
  <defs>
    <style>
      .cls-1, .cls-2 {
        stroke: #000;
        stroke-linejoin: bevel;
        stroke-width: 1.77px;
      }

      .cls-1, .cls-3 {
        fill: #fff;
      }

      .cls-2 {
        fill: none;
      }
    </style>
  </defs>
  <g>
    <g>
      <path d="M1099.93,835.83l-5.46,6.59-9.59,36.58-3.46,1.68-2.35-1.84,3.79-36.74-2.13-11.09,2.63,1.81-11.18,6.42-.61-4.97,11.83-12.12,5.78-1.68,3.64,2.95,2.27,13.01-4.62-.69,8.86-4.87.61,4.97ZM1097.92,869.73l-1.99,1.12-12.11,1.2-6.2,1.34-1.62-1.45.17-5.65,1.73-1.67,9.02-1.98,10.88-.95,1.71,2.12-1.59,5.92Z"/>
      <path d="M1072.18,839.24l-8.94,14.39-3.57.83-2.62-1.71-3.78-13.5-3.73-.51-5.5,3.97-.61-4.97,6.32-9.02,4.9-1.77,6.84,2.26,3.74,12.34-4.34.05,10.68-7.33.61,4.97ZM1062.04,877.63l-4.87,4.38-6.6-1.13-1.11-5.88,4.14-10.3,5.1-3.24,4.87,1.92.69,5.64-2.22,8.62Z"/>
      <path d="M1044.04,842.69l-13.91,22.66-5.55,1.17-2.96-2.93.04-16.98-1.73-.76-8.19,16.62-3.6,2.09-3.76-1.58-7.15-18.13,2.44,1.83-6.1,2.2-.61-4.97,7.56-6.75,4.56-.56,3.04,2.73,4.93,12.68-2.57.32,15.74-24.24,4.09-1.28,3.11,2.53-.73,17.64,1.73.76,9-10.03.61,4.97Z"/>
      <path d="M993.58,848.89l-6.6,5.95,1.93-3.15-1.66,10.87-5.52,10.09-8.07,4.97-7.16-.19-.77-6.31,5.11-10.23,7.77-6.68-.16-1.34-7.08-8.93,3.71.32-11.81,8.34-.61-4.97,9.19-7.63-1.55,3.1-6.68-8.01,1.69-12.92,7.76-10.65,8.98-4.69,6.76,7.12,1.6,10.67-4.02,9.71-7.66,6.76,2.07-3.55,5.27,5.95,2.3,5.34-4.18.51,8.79-5.44.61,4.97ZM979.86,818.08l-6.08-.8-.96,10.3,6.47,7.94-2.81,1.51,4.19-4.39,1.78-8.27-2.6-6.28Z"/>
      <path d="M956.03,862.13l-1.34,43.33-.77-15.72,2.54,16.76-3.05,5.03-4.16,2.26-.94-1.34.89-38.33-.04-34.14,5.46-3.48,1.6,1.26-.19,24.37Z"/>
      <path d="M942.92,855.11l-12.9,23.02-3.93.97-2.49-1.44,1-25.63-2-.53-9.43,24.53-3.04,1.93-3.37-1.53-9.3-23.88,1.74,1.63-6.75,7.13-.35-2.87,5.38-8.03,3.47-1.59,3.35,2.11,5.92,17.6,1.58.29,12.67-27.26,3.56-.83,2.38,2.13-.05,22.41,1.73.76,10.46-13.8.35,2.87Z"/>
      <path d="M892.45,861.3l-8.46,7.34,1.04-4.11-.92,18.45-5.04,24.97-8.93,16.03-5.82,2.07-3.9-7.38.76-22.89,7.03-15.8,11.14-15.33-.47,4.81-2.01-19.54-1.66-.18-6.75,24.4-3.84,2.51-3.57-1.6-5.99-15.75,2.64-1.29-8.4,8.6-.35-2.87,6.62-9.74,2.75-1.21,2.55,1.14,5.11,14.12,1.52-.19,6.61-25.55,4.54-2.3,3.24,3.58,2.98,19.52-.46-.62,7.7-4.05.35,2.87ZM877.98,869.97l-8.7,16.39-3.24,26.29,2.91,3.23,4.02-1.85,6.47-43.18-1.46-.89Z"/>
      <path d="M849.29,866.6l-11.58,11.8-9.18,13.25-9.68,5.26-7.18-2.71-.13-1.05,12.22-4.99,9.33-8.13,1.83-20.5-3.03-.31-12.14,22.15-3.92,1.84-2.94-1.97-3.67-16.52-7.07,7.66-.35-2.87,6.87-10.06,4.19-1.19,2.47,2.02,2.91,15.84,1.33-.16,9.92-20.62,4.91-4,4.06.86,2.53,9.58-2.01,10.33,9.97-8.4.35,2.87Z"/>
      <path d="M789.93,893.1l-.25-1.23,5.59,1.54,3.08,5.44-1.85,4.59-4.16,1.48-4.31-3.64-1.37-7.2,4.35.82-12.41-.51-3.6-6.54,2.9-18.79-1.78-1.14-8.67,8.73-.35-2.87,11.98-13.98,3.65-.93,2.69,3.07-5.06,29.53-.67-2.34,8.29,2.28-1.34.07,6.53-12.83,8.63-9.11.35,2.87-12.22,20.71Z"/>
      <path d="M752.49,865.49l2.4,2.23.07,17.84,1.52.59,10.64-12.36.35,2.87-13.6,19.71-2.57,1.09-2.03-1.59-1.6-16.97-2.23-.11-11.21,25.82-2.9.74-2.26-1.08-1.91-25.76-2.15-.22-6.69,18.57-3.66,2.39-3.98-1.74-5.86-18.68,2.15-1.33-8.23,7.61-.35-2.87,7.18-9.13,2.79-.83,2.46,1.93,4.49,16.91,1.65.09,11.67-26.75,3.05-1.05,2.54,1.82.89,24.53,2.16.32,12.16-23.51,3.05-1.05Z"/>
      <path d="M691.61,893.04l-4.92,11.76-4.18,6.04-2.16-.32-.14-1.92-.89-.18-2.48,2.63-4.88,1.08-6.92-6.04-1.68-9.78,3.7-13.06-1.23-.62-7.67,7.44-.35-2.87,7.54-8.49,1.39-.46,3.71,1.1-2.91,2.2,8.06-9.82,7.26-2.15,5.9,4.03,2.31,6.99.29,9.47-1.17-1.7,8.22-6.15.35,2.87-7.13,7.95ZM685.05,878.91l-7.16-3.29-6.25,4.07,1.53,4.57-4.14,4.78,1.16,12.56,5.97,4.6,3.61-.44.21-4.58,7.1-8.15-2.02-14.11Z"/>
      <path d="M658.16,890.07l-12.9,23.02-3.93.97-2.49-1.44,1-25.63-2-.53-9.43,24.54-3.04,1.92-3.37-1.53-9.3-23.88,1.74,1.63-6.75,7.13-.35-2.87,5.38-8.03,3.47-1.59,3.35,2.11,5.92,17.6,1.58.29,12.67-27.26,3.56-.83,2.38,2.13-.05,22.41,1.73.76,10.46-13.8.35,2.87Z"/>
      <path d="M607.69,896.27l-8.77,12.62-2.28,1.06-2.26-1.08-6.43-13.86-2.35-1.07-6.04,5.79-.35-2.87,7.36-9.25,3.99-1.27,2.68,2.19,5.67,11.62,2.23.11,6.2-6.87.35,2.87ZM595.92,930.11l-3.13,2.81-4.23-.64-.66-3.8,2.66-6.63,3.22-2.04,3.13,1.17.45,3.63-1.45,5.51Z"/>
      <path d="M572.43,907.68l-4.92,11.76-4.18,6.04-2.16-.32-.14-1.92-.89-.18-2.48,2.63-4.88,1.08-6.92-6.04-1.68-9.78,3.7-13.07-1.23-.62-7.67,7.44-.35-2.87,7.54-8.49,1.39-.46,3.7,1.1-2.91,2.2,8.06-9.82,7.26-2.15,5.9,4.03,2.3,6.99.29,9.47-1.17-1.7,8.22-6.15.35,2.87-7.13,7.96ZM565.87,893.55l-7.16-3.29-6.25,4.07,1.53,4.57-4.14,4.78,1.16,12.56,5.97,4.6,3.61-.44.21-4.58,7.1-8.15-2.02-14.11Z"/>
      <path d="M538.62,901.84l.35,2.87-8.27,7.32-3.73,12.87-3.12,6.01-3.53,1.11-2.15-3.33,1.05-7.99,5.32-7.73-1.87-15.19-6.88-.22-6.04,14.42-2.06,9.95-2.07,2-2.55-1.14-3.42-17.62-7.93,5.34-.35-2.87,8.11-7.79,2.75-1.21,2.99,1.57,1.53,7.77,1.45.02,5.44-15.41,7.38-2.75,5.58,3.78,3.28,14.15,8.73-5.92Z"/>
      <path d="M491.73,910.51l-9.5,21.63-6.49,4.48-6.83-2.17-4.85-13.57,7.34-20.4.84,1.35-13.87,12.76-.35-2.87,10.92-12.4,6.85-3.17,6.67,2.48,2.17,5.84-.92,1.18-8.75-3.68,1.72-2.54-6.17,12.59,2.54,19.09,5.49-.87,12.85-22.63.35,2.87Z"/>
      <path d="M450.67,923.41l1.83-4.78-1.54,23.57-7.17,24.94-6.3,9.21-3.92.29-3.36-7.73,2.7-32.24,6.33-12.13,8.57-5.61-1.4,3.57-.65-10.78-2.83-5.76-5.61-.09-9.56,12.52-.35-2.87,7.7-14.33,8.39-3.16,6.29,4.85,2.54,14.43-1.9.23,7.59-5.78.35,2.87-7.7,8.8ZM439.72,929.31l-3.49,37.58,3.28,1.54,7.24-43.96-1.06-.74-5.97,5.58Z"/>
      <path d="M427.77,918.36l-7.45,8.48-2.39,11.16-2.31,4.75-2.28,1.05-2.23-1.67.36-9.65,3.73-5.79-.81,2.82-1.14-14.8-7.04-.78-5.85,13.62-1.57,17.85-2.73,1.31-1.97-1.12-2.17-31.06,1.47.98-9.79,8.28-.35-2.87,9.74-10.22-1.72,3.32,4.36-18.67,3.95-9.5,2.8-.73,1.22,2.08-1.11,12.94-6.9,13.75.98-10.11.93,21.71-1.43-2.25,5.23.13-4,2.82,3.1-9.3,6.49-8.46,5.55-1.17,5.99,6.35,1.47,11.17-1.63-.67,9.17-8.59.35,2.87Z"/>
      <path d="M370.19,910.69l6.37,7.85,4.12,17.05-1.98,17.7-5.55,17.66-8.61,10.85-8.89,4.58-9.52-3.68-5.58-7.75-.02-15.13,3.38-8.66,5.93-1.99,4.46,4.88-.45,7.33-6.51,13.02,1.58,1.84,11.98-1.47,4.88-7.39,2.08-11.31.74-16-1.55-10.28-3.47-7.82-6.69-1.8-7.63,2.3-9.22,6.66-.61-4.97,10.23-11.73,10.22-3.97,10.31,2.23Z"/>
      <path d="M340.04,929.13l-6.21,6.78,2.25-4.45-1.34,18.98-6.37,25.13-10.36,16.21-8.17,2.65-5.56-4.46-.38-12.56,7.36-17.88,15.44-27.5-1.46,5.42-.86-14.83-1.66-.18-7.49,23.04-4.41,2.58-3.57-1.6-5.47-17.85,2.98-.85-7.86,6.69-.61-4.97,6.02-7.53,4.67-2.03,4.15,2.4,2.74,8.2,2-.24,8.17-21.47,6.61-1.98,3.24,3.58,2.73,17.51-4.12.22,6.94-3.96.61,4.97ZM324.17,945.24l-8.51,20.25-3.15,14.45,2.53.95,3.98-8.44,7.19-26.29-2.04-.91Z"/>
      <path d="M291.28,937.54l3.35-2.54-5.95,17.51-9.59,8.35-11.88,1.46-5.52-4.85-.95-7.74,8.65-11.25,13.29-5.71.08,3-2.95-7.5-6.74.15-13.65,10.6-.61-4.97,11.02-11.63,11.61-3.66,9.07,4.71,3.48,10.24-3.55-2.18,5.82-2.07.61,4.97-5.6,3.11ZM275.73,942.07l-3.01,12.4,5.9.15,3.98-16.3-.85-.67-6.02,4.42Z"/>
      <path d="M259.44,939.03l-7.89,6.5-12,18.54-11.44,5.87-4.08-1.05-.46-3.73,5.25-6.75,11.11-9.32,1.97-13.04-1.8-.55-12.93,19.63-3.45,1.78-3.42-1.91-1.53-14.85-6.47,4.68-.61-4.97,7.88-10.47,5.43-1.35,4.63,3.89.81,8.15,1.65.09,3.77-9.39,6.67-6.15,6.3-2.13,4.23,4.62-.58,11.03,6.35-4.08.61,4.97Z"/>
      <path d="M212.29,944.82l-8.87,7.88,3.1-5.42-6.03,31-4.44,4.72-3.1-1.66-.72-16.11,6.13-15.3-2.33,22.69,1.55-36.86-2.53-.17-3.83,26.17-4.33,3.25-6.26-2.24-6.39-18.23,2.29.59-7.02,4.94-.61-4.97,8.7-8.54,4.56-.56,3.06,2.92,1.72,10.07h1.54s9.83-44.08,9.83-44.08l5.01-.81,2.19,2.16.94,39.85-4.41.25,9.62-6.52.61,4.97Z"/>
      <path d="M169.52,950.07l-11.12,23.38-5.64,3.6-5.77-2.2-8.95-13.94,7.95-16.2-.43,4.32-9.4,5.13-.61-4.97,11.28-11.86,7.24-3.12,6.89,4.3,1.22,9.94-1.3,1.23-10.1-2.93,3.12-2.9-2.49,13.5-1.39,7.54,2.01.63,16.89-20.41.61,4.97Z"/>
      <path d="M107.41,970.69l-2.38.29-7.34-15.01-3.02-.21-5.19,4.13-.61-4.97,7.77-10.56,4.74-1.46,5.91,4.12,6.99,15.24-.15,2.73-6.73,5.68ZM136.16,954.17l-11.39,16.43,4.16-8.56-4.84,28.14-8.02,26.59-5.48,2.52-4.24-3.07,2.14-21.89,6.89-24.03,6.23-10.56-2.39,16.69.29-29.04-1.53-.69-10.83,17.92-4.49,22.38-3.83,1.05-2.35-1.85.15-5.84,11.23-24.08,14.41-24.08,4.46-.64,3.05,3.6-.19,23.59-5.37-1.28,11.33-8.28.61,4.97Z"/>
      <path d="M89.49,959.9l-7.89,6.5-12,18.55-11.44,5.87-4.08-1.05-.46-3.73,5.25-6.75,11.11-9.32,1.97-13.04-1.8-.55-12.93,19.63-3.45,1.78-3.42-1.91-1.53-14.85-6.47,4.67-.61-4.97,7.88-10.47,5.43-1.35,4.63,3.89.81,8.15,1.65.09,3.77-9.39,6.67-6.15,6.3-2.13,4.23,4.62-.58,11.03,6.35-4.08.61,4.97Z"/>
      <path d="M42.35,965.69l-5.46,6.59-9.6,36.58-3.46,1.68-2.35-1.84,3.79-36.74-2.13-11.09,2.63,1.81-11.18,6.42-.61-4.97,11.83-12.12,5.78-1.68,3.64,2.95,2.27,13.01-4.62-.69,8.86-4.87.61,4.97ZM40.34,999.59l-1.98,1.12-12.11,1.2-6.2,1.34-1.62-1.45.17-5.65,1.73-1.67,9.02-1.98,10.88-.95,1.71,2.12-1.59,5.92Z"/>
      <path d="M8.99,972.21l3.35-2.55-5.95,17.51-9.59,8.35-11.88,1.46-5.52-4.85-.95-7.74,8.65-11.25,13.29-5.71.08,3-2.95-7.5-6.74.15-13.65,10.6-.61-4.97,11.02-11.63,11.61-3.66,9.07,4.71,3.48,10.24-3.55-2.18,5.82-2.07.61,4.97-5.6,3.11ZM-6.56,976.73l-3.01,12.4,5.9.15,3.98-16.3-.85-.67-6.02,4.42Z"/>
      <path d="M1104.15,614.77l-12.88,9.83,2.86-3.45-5.98,31.48-2.77,2.57-2.67-2.1.31-17.11,6.71-15.28-1.25,7.91.98-37.56-1.46-.11-6.08,38.48-4.78,3.5-3.75-2.25-3.25-18.61,1.39.31-10.16,7.65-.35-2.87,7.63-8.6,4.35-.73,4.07,4.06.74,11.55,1.63-.1,8.99-47.76,3.53-1.11,2.19,2.16-.08,43.37-2.17-.41,11.89-7.67.35,2.87Z"/>
      <path d="M1053.67,628.83l1.82-4.78-1.54,23.57-7.17,24.93-6.3,9.21-3.92.29-3.36-7.73,2.7-32.24,6.33-12.13,8.57-5.61-1.4,3.57-.65-10.78-2.83-5.76-5.61-.09-9.56,12.52-.35-2.87,7.7-14.33,8.39-3.17,6.29,4.85,2.54,14.43-1.9.23,7.59-5.78.35,2.87-7.7,8.8ZM1042.72,634.73l-3.49,37.58,3.28,1.54,7.24-43.96-1.06-.75-5.97,5.58Z"/>
      <path d="M1030.77,623.78l-11.58,11.8-9.18,13.25-9.68,5.26-7.18-2.71-.13-1.05,12.22-4.99,9.33-8.13,1.83-20.5-3.03-.31-12.14,22.15-3.92,1.84-2.94-1.97-3.67-16.52-7.07,7.66-.35-2.87,6.87-10.06,4.2-1.19,2.47,2.02,2.91,15.84,1.33-.16,9.92-20.62,4.91-4,4.06.86,2.53,9.58-2.01,10.33,9.97-8.4.35,2.87Z"/>
      <path d="M983.63,629.57l-10.45,10.01,5.08-7.32-8.55,18.41-11.01,6.98-3.82-.5-.51-3.33,6.62-7.41,13.52-10.88-2.93,3.66-.59-13.41-6.01-4.98-5.74,1.97-10.51,11.09-.35-2.87,8.49-13.36,10.23-3.88,9.52,6.79.97,11.81-2.39.2,8.06-5.84.35,2.87Z"/>
      <path d="M941.37,638.25l2.07-2-3.97,14.84-9.95,9.37-8.55,1.05-5.1-5.39,2.61-10.21,8.28-7.22,11.2-3.9-.25,1.87-3.43-10.64-10.57-.45-12.41,12.87-.35-2.87,11.23-13.79,9.71-3.42,8.9,6.47,2.31,10.19-2.4-1.45,7.69-2.59.35,2.87-7.37,4.4ZM922.54,645.99l1.23,9.26,8.53-.46,5.63-16.21-.38-.73-15.02,8.15Z"/>
      <path d="M896.32,627.29l2.4,2.23.07,17.84,1.52.59,10.64-12.36.35,2.87-13.6,19.71-2.57,1.09-2.03-1.59-1.6-16.97-2.23-.11-11.21,25.82-2.9.74-2.26-1.08-1.91-25.76-2.15-.22-6.69,18.57-3.66,2.39-3.98-1.74-5.86-18.68,2.15-1.33-8.23,7.61-.35-2.87,7.18-9.13,2.79-.83,2.46,1.93,4.49,16.91,1.65.09,11.67-26.75,3.05-1.05,2.54,1.82.89,24.53,2.16.32,12.16-23.51,3.05-1.05Z"/>
      <path d="M835.21,651.29l2.07-2-3.97,14.84-9.95,9.37-8.55,1.05-5.1-5.39,2.61-10.21,8.28-7.22,11.2-3.9-.25,1.87-3.43-10.64-10.57-.45-12.41,12.87-.35-2.87,11.23-13.79,9.71-3.42,8.9,6.47,2.31,10.19-2.4-1.45,7.69-2.59.35,2.87-7.37,4.4ZM816.38,659.03l1.23,9.26,8.53-.46,5.63-16.21-.38-.73-15.02,8.15Z"/>
      <path d="M805.13,651.49l-12.9,23.02-3.93.97-2.49-1.44,1-25.63-1.99-.53-9.43,24.54-3.04,1.92-3.37-1.53-9.3-23.88,1.74,1.63-6.75,7.13-.35-2.87,5.38-8.03,3.47-1.59,3.35,2.11,5.92,17.61,1.58.29,12.67-27.26,3.56-.83,2.38,2.13-.05,22.41,1.73.76,10.46-13.8.35,2.87Z"/>
      <path d="M754.66,657.68l-8.36,12.86-7.68,29.36-2.05,1.42-1.98-1.21,5.14-36.71-3.21-15.12,2.24.98-11.86,11.84-.35-2.87,8.59-11.72,5.2-3.26,3.45,2.97,2.78,20.32-1.39-1.87,9.11-9.85.35,2.87ZM752.17,691.65l-1.99,1.12-12.58,1.25-4.79,1.07-1.62-1.45.41-3.74,1.72-1.67,7.61-1.71,11.36-1.01.76,2.23-.87,3.89Z"/>
      <path d="M726.9,661.09l-9.5,21.63-6.49,4.48-6.83-2.17-4.85-13.57,7.34-20.4.84,1.35-13.87,12.76-.35-2.87,10.92-12.4,6.85-3.17,6.67,2.48,2.17,5.84-.92,1.18-8.75-3.68,1.71-2.54-6.17,12.59,2.54,19.09,5.49-.87,12.85-22.63.35,2.87Z"/>
      <path d="M694.39,714.55l-1.58,7.56-12.66,4.56-14.35.21-7.74-4.09-6.54-6.86-1.13-11.6,4.63-11.82,9.6-12.14-3.26,5.64-6.17-14.08-10.06-15.16.73-1.93,6.63-2.56,5.79,1.62,8.44,14.48,4.94,14.33-.11,2.25-8.44,4.33-1.81,9.63,1.54,10.97,6.61,5.88,10.35.96,13.47-3.4,1.12,1.22ZM678.02,712.39l-2.49-1.44,1.19-57.86,8.87-4.78,1.55,1.65.55,57.94-9.68,4.49Z"/>
      <path d="M641.94,673.95l3.35-2.54-5.96,17.51-9.59,8.35-11.88,1.46-5.52-4.85-.95-7.74,8.65-11.25,13.29-5.71.08,3-2.95-7.5-6.74.15-13.65,10.6-.61-4.97,11.02-11.63,11.61-3.66,9.07,4.71,3.48,10.24-3.55-2.18,5.82-2.07.61,4.97-5.6,3.11ZM626.38,678.48l-3.01,12.4,5.9.15,3.98-16.3-.85-.67-6.02,4.42Z"/>
      <path d="M610.09,675.44l-8.87,7.88,3.1-5.42-6.03,31-4.44,4.72-3.1-1.66-.72-16.11,6.13-15.3-2.33,22.69,1.55-36.86-2.53-.17-3.83,26.17-4.33,3.25-6.26-2.24-6.39-18.23,2.29.59-7.02,4.94-.61-4.97,8.7-8.54,4.56-.56,3.06,2.92,1.72,10.07h1.54s9.83-44.08,9.83-44.08l5.01-.81,2.19,2.16.94,39.85-4.41.25,9.62-6.52.61,4.97Z"/>
      <path d="M566.71,675.72l.61,4.97-6.04,6.56-2.55,13.8-4.62,5.61-4.96,1.29-2.14-3.33.9-8.36,4.07-10.88-.89-7.26-5.67-.56-5.37,8.9-.6,10.07-5.91,2.96-4.28-2.67-3.3-14.34-5.87,4.02-.61-4.97,10.35-7.67,3.1-1.45,3.75,2.25,1.45,4.77,1.24-.15,5.02-11,8.65-3.39,4.88,4.35,2.69,10.92,6.11-4.44Z"/>
      <path d="M513.26,696.93l2.72-7.71-2.67,27-5.64,22.42-8.39,12.57-7.41.91-3.1-7.96,2.01-28.38,6.02-12.28,11.97-14.08-3.24,7.38-1.94-21.29-6.68-.15-1.79,14.48-2.29-8.45,8.42,4.11-.03,6.02-7.29,10.6-5.32.65-3.18-10.96,8.65-22.3,11.82-6.69,5.6,6.3,4.4,19.34-3.74-.61,7.33-6.33.61,4.97-6.82,10.44ZM504.17,700.66l-3.41,7.6-2.56,26.31,1.66,2.51,2.28-1.05,3.59-34.39-1.57-.97Z"/>
      <path d="M482.03,696.4l2.78-3.25-.92,25.53-6.06,23.73-6.49,9.24-5.8.71-5.05-5.78-.97-25.2,4.98-18.36,11.94-11.17-1.16,7.81-1.1-8.98-2.37-5.14-4.89-.56-8.63,9.11-.61-4.97,9.07-12.56,6.22-3.58,7.49,4.42,4.18,14.42-3.58-2.47,7.23-3.99.61,4.97-6.88,6.08ZM468.74,709.96l-.25,30.97,2.67.55,3.8-40.53-1.06-.74-5.17,9.75Z"/>
      <path d="M458.3,694.07l-8.94,14.39-3.56.83-2.62-1.71-3.78-13.5-3.73-.51-5.49,3.97-.61-4.97,6.32-9.02,4.9-1.77,6.84,2.27,3.74,12.34-4.34.05,10.68-7.33.61,4.97ZM448.16,732.47l-4.86,4.38-6.6-1.13-1.11-5.88,4.14-10.3,5.1-3.25,4.87,1.92.69,5.64-2.22,8.61Z"/>
      <path d="M430.17,697.53l-8.34,8.3,4.78-5.83-8.9,16.32-12.14,8.77-5.87-.64-.47-5.37,6.34-8.05,13.31-9.49-3.61,5.97-.39-11.79-3.53-4.42-4,1.17-12.07,9.34-.61-4.97,7.96-11.36,12.87-4.39,9.83,6.16,1.38,11.28-1.9-2.09,4.73-3.88.61,4.97Z"/>
      <path d="M395.29,701.81l-11.12,23.38-5.64,3.6-5.77-2.2-8.95-13.94,7.95-16.21-.43,4.32-9.4,5.13-.61-4.97,11.28-11.86,7.24-3.12,6.9,4.29,1.22,9.94-1.3,1.23-10.1-2.93,3.12-2.9-2.49,13.5-1.39,7.54,2.01.63,16.89-20.41.61,4.97Z"/>
      <path d="M354.7,715.43l-1.34,43.33-.77-15.72,2.54,16.76-3.05,5.03-4.16,2.26-.94-1.34.89-38.33-.04-34.14,5.46-3.48,1.6,1.26-.19,24.37Z"/>
      <path d="M326.61,697.25l2.4,2.23.07,17.84,1.52.59,10.64-12.36.35,2.87-13.6,19.71-2.57,1.09-2.03-1.59-1.6-16.97-2.23-.12-11.21,25.82-2.9.74-2.26-1.08-1.91-25.76-2.15-.22-6.69,18.57-3.66,2.39-3.98-1.74-5.86-18.68,2.15-1.33-8.23,7.61-.35-2.87,7.18-9.13,2.79-.83,2.46,1.93,4.49,16.91,1.65.09,11.67-26.75,3.05-1.05,2.54,1.82.89,24.53,2.16.32,12.16-23.51,3.05-1.05Z"/>
      <path d="M272.87,716.84l-12.88,9.83,2.86-3.45-5.98,31.48-2.77,2.57-2.67-2.1.31-17.11,6.71-15.28-1.25,7.91.98-37.56-1.46-.11-6.08,38.48-4.78,3.5-3.75-2.25-3.25-18.61,1.39.31-10.16,7.65-.35-2.87,7.63-8.6,4.35-.73,4.07,4.06.74,11.55,1.63-.1,8.99-47.76,3.53-1.11,2.19,2.16-.08,43.37-2.17-.41,11.89-7.67.35,2.87Z"/>
      <path d="M222.72,726.49l2.07-2-3.97,14.84-9.94,9.37-8.55,1.05-5.1-5.39,2.61-10.21,8.28-7.22,11.2-3.9-.25,1.87-3.43-10.64-10.57-.45-12.41,12.87-.35-2.87,11.23-13.79,9.71-3.42,8.9,6.47,2.31,10.19-2.4-1.45,7.69-2.59.35,2.87-7.37,4.4ZM203.9,734.23l1.23,9.26,8.53-.46,5.63-16.21-.38-.73-15.02,8.15Z"/>
      <path d="M180.43,747.4l-.25-1.23,5.59,1.54,3.08,5.44-1.85,4.59-4.16,1.48-4.31-3.64-1.37-7.2,4.35.82-12.41-.51-3.6-6.54,2.9-18.79-1.78-1.14-8.67,8.73-.35-2.87,11.98-13.98,3.65-.93,2.69,3.07-5.06,29.53-.67-2.34,8.29,2.28-1.34.07,6.53-12.83,8.63-9.11.35,2.87-12.22,20.71Z"/>
      <path d="M157.95,730.95l-8.77,12.62-2.28,1.06-2.26-1.08-6.43-13.86-2.35-1.07-6.04,5.79-.35-2.87,7.36-9.25,3.99-1.27,2.68,2.19,5.67,11.62,2.23.11,6.2-6.87.35,2.87ZM146.19,764.79l-3.13,2.81-4.23-.64-.66-3.8,2.66-6.63,3.22-2.04,3.13,1.17.45,3.63-1.45,5.51Z"/>
      <path d="M129.82,734.41l-11.58,11.8-9.18,13.25-9.68,5.26-7.18-2.71-.13-1.05,12.22-4.99,9.33-8.13,1.83-20.5-3.03-.31-12.14,22.15-3.92,1.84-2.94-1.97-3.67-16.52-7.07,7.66-.35-2.87,6.87-10.06,4.19-1.19,2.47,2.02,2.91,15.84,1.33-.16,9.91-20.62,4.91-4,4.06.86,2.53,9.58-2.01,10.33,9.97-8.4.35,2.87Z"/>
      <path d="M74.98,749l1.83-4.78-1.54,23.57-7.17,24.93-6.3,9.21-3.92.29-3.36-7.74,2.7-32.24,6.33-12.13,8.57-5.61-1.4,3.57-.65-10.78-2.83-5.76-5.61-.09-9.56,12.52-.35-2.87,7.7-14.33,8.39-3.17,6.29,4.85,2.54,14.43-1.9.23,7.59-5.78.35,2.87-7.7,8.8ZM64.03,754.9l-3.49,37.58,3.28,1.54,7.24-43.96-1.06-.75-5.97,5.58Z"/>
      <path d="M52.07,743.95l-8.77,12.62-2.28,1.06-2.26-1.08-6.43-13.86-2.35-1.07-6.04,5.79-.35-2.87,7.36-9.24,3.99-1.27,2.68,2.19,5.67,11.62,2.23.11,6.2-6.87.35,2.87ZM40.31,777.79l-3.13,2.81-4.23-.64-.66-3.8,2.66-6.63,3.22-2.04,3.13,1.17.45,3.63-1.45,5.51Z"/>
      <path d="M23.94,747.41l-9.5,21.63-6.49,4.48-6.83-2.17-4.85-13.57,7.34-20.4.84,1.35-13.87,12.76-.35-2.87,10.92-12.4,6.85-3.17,6.67,2.48,2.16,5.84-.92,1.18-8.75-3.68,1.71-2.54-6.17,12.59,2.54,19.09,5.49-.87,12.85-22.63.35,2.87Z"/>
      <path d="M1102.56,179.13l2.79-3.25-.92,25.53-6.06,23.73-6.49,9.24-5.8.71-5.05-5.78-.97-25.2,4.98-18.36,11.94-11.17-1.16,7.81-1.1-8.98-2.37-5.14-4.89-.56-8.63,9.11-.61-4.97,9.07-12.56,6.22-3.58,7.49,4.41,4.18,14.42-3.58-2.47,7.23-3.99.61,4.97-6.88,6.08ZM1089.27,192.69l-.25,30.97,2.67.54,3.8-40.53-1.06-.74-5.17,9.75Z"/>
      <path d="M1074.27,182.89l-5.21,13.35-5.13,6.16-3.21-.19-.9-3.38-1.26-.04-2.51,3.9-7.14,1.56-6.73-5.28-.74-10.77,3.84-10.37-1.15-.73-5.89,4.7-.61-4.97,5.67-7.29,3.54-1.02,4.62,2.25-4.03,2.53,8.62-9.98,8.41-2.2,6.95,5.55,1.99,5.19v7.76s-1.3-2.65-1.3-2.65l6.12-5.12.61,4.97-4.56,6.09ZM1064.58,174.67l-3.87-3.21-7.45,2.18,1.03,4.43-4.09,5.16,1.06,8.6,4.03,3,4.09-.5.1-3.89,5.88-8.68-.77-7.08Z"/>
      <path d="M1038.25,181.79l-13.91,22.66-5.55,1.17-2.96-2.93.04-16.98-1.73-.76-8.19,16.62-3.6,2.09-3.76-1.57-7.15-18.13,2.44,1.83-6.1,2.2-.61-4.97,7.56-6.75,4.56-.56,3.04,2.73,4.93,12.68-2.57.31,15.74-24.24,4.09-1.28,3.11,2.53-.73,17.65,1.73.76,9-10.03.61,4.97Z"/>
      <path d="M953.91,240.64l-7.76,17.73-3.92-.49-.95-17.93,2.99-13.36,5.74-14.57-1.61,12.03-2.03-21.28-4.38-8.19-7.25-.08-.61-4.97,10.18-6.68,5.33.22,2.64,2.68,3.41,10.45,2.02-.05,5.29-12.68,6.4-9.13,7.18-3.6,4.59,4.38,1.13,14.7-3.18-2.33,8.04-4.48.61,4.97-10.99,11.05,4.75-6.89-5.61,16.4-15.16,12.44-6.75.83-.55-10.8,9.44,1.46,7.54-10.92,1.95-14.79-1.93-.83-10.22,12.6-3.49,10.9-2.83,31.19Z"/>
      <path d="M929.14,197.61l3.35-2.54-5.95,17.51-9.59,8.35-11.88,1.46-5.52-4.85-.95-7.74,8.65-11.25,13.29-5.71.08,3-2.95-7.5-6.74.15-13.65,10.6-.61-4.97,11.02-11.63,11.61-3.66,9.07,4.71,3.48,10.24-3.55-2.18,5.82-2.07.61,4.97-5.6,3.11ZM913.58,202.14l-3.01,12.4,5.9.15,3.98-16.3-.85-.67-6.02,4.42Z"/>
      <path d="M888.82,258.23l-2.95,1.14-4.17-1.72,4.43-30.71-.63-31.06-5.55-5.14-7.58,1.12-12.95,30.49,1.52-7.27.66,20.29-2.52,16.41-3.14,9.79-2.77,1.79-2.41-2.32-.5-10.32,6.47-27.47-.17,15.93-4.74-48.79,5.25-3.65,1.39,1.09,1.3,22.34,1.37.12,4.38-16.16,7.91-9.41,11.45-.24,7.71,10.89.87,22.01-1.63,22.9-3.01,17.93Z"/>
      <path d="M846.63,205.31l-12.9,23.02-3.93.97-2.49-1.44,1-25.63-2-.53-9.43,24.53-3.04,1.93-3.37-1.53-9.3-23.88,1.74,1.63-6.75,7.13-.35-2.87,5.38-8.03,3.47-1.59,3.35,2.11,5.92,17.6,1.58.29,12.67-27.26,3.57-.83,2.38,2.13-.04,22.41,1.73.76,10.46-13.8.35,2.87Z"/>
      <path d="M796.16,211.51l-11.58,11.8-9.18,13.25-9.68,5.26-7.18-2.71-.13-1.05,12.22-4.99,9.32-8.13,1.83-20.5-3.03-.31-12.14,22.15-3.92,1.84-2.94-1.97-3.67-16.52-7.07,7.66-.35-2.87,6.87-10.06,4.2-1.19,2.47,2.03,2.91,15.84,1.33-.16,9.92-20.62,4.91-4,4.06.86,2.53,9.58-2.01,10.33,9.97-8.4.35,2.87Z"/>
      <path d="M749.02,217.3l-10.45,10.01,5.08-7.32-8.54,18.41-11.01,6.98-3.82-.5-.51-3.33,6.62-7.41,13.52-10.88-2.93,3.66-.58-13.41-6.01-4.98-5.74,1.97-10.51,11.09-.35-2.87,8.49-13.36,10.23-3.88,9.52,6.78.97,11.81-2.39.2,8.06-5.84.35,2.87Z"/>
      <path d="M714.13,221.58l-10.45,10.01,5.08-7.32-8.54,18.41-11.01,6.98-3.82-.5-.51-3.33,6.62-7.41,13.52-10.88-2.93,3.66-.58-13.41-6.02-4.99-5.74,1.97-10.51,11.09-.35-2.87,8.49-13.36,10.23-3.88,9.52,6.78.97,11.81-2.39.2,8.06-5.84.35,2.87Z"/>
      <path d="M672.13,233.82l-4.92,11.76-4.18,6.04-2.16-.32-.14-1.92-.89-.18-2.47,2.63-4.88,1.08-6.92-6.04-1.68-9.78,3.7-13.06-1.23-.62-7.67,7.44-.35-2.87,7.54-8.49,1.39-.46,3.7,1.1-2.91,2.2,8.06-9.82,7.26-2.15,5.9,4.03,2.31,6.99.29,9.47-1.17-1.7,8.22-6.15.35,2.87-7.13,7.96ZM665.57,219.69l-7.16-3.29-6.25,4.07,1.53,4.57-4.14,4.78,1.16,12.56,5.97,4.6,3.61-.44.21-4.58,7.1-8.15-2.02-14.11Z"/>
      <path d="M623.69,219.69l2.4,2.23.07,17.84,1.52.59,10.64-12.37.35,2.87-13.6,19.71-2.57,1.09-2.03-1.59-1.6-16.97-2.23-.11-11.21,25.82-2.9.74-2.26-1.08-1.91-25.76-2.15-.22-6.69,18.57-3.66,2.39-3.98-1.74-5.86-18.68,2.15-1.33-8.23,7.61-.35-2.87,7.18-9.12,2.79-.83,2.46,1.93,4.49,16.91,1.65.09,11.67-26.75,3.05-1.05,2.54,1.82.89,24.53,2.16.32,12.16-23.51,3.05-1.05Z"/>
      <path d="M569.95,239.29l-12.88,9.83,2.86-3.45-5.98,31.48-2.77,2.57-2.67-2.1.31-17.11,6.71-15.28-1.25,7.91.98-37.56-1.46-.11-6.08,38.48-4.78,3.5-3.75-2.25-3.25-18.61,1.39.31-10.16,7.65-.35-2.87,7.63-8.6,4.35-.73,4.07,4.06.74,11.55,1.63-.1,8.99-47.76,3.53-1.11,2.19,2.16-.08,43.37-2.17-.41,11.89-7.67.35,2.87Z"/>
      <path d="M527.18,244.54l-11.58,11.8-9.18,13.25-9.68,5.26-7.18-2.71-.13-1.05,12.22-4.99,9.33-8.13,1.83-20.5-3.03-.31-12.14,22.15-3.92,1.84-2.94-1.97-3.67-16.52-7.07,7.66-.35-2.87,6.87-10.06,4.19-1.19,2.47,2.03,2.91,15.84,1.33-.16,9.91-20.62,4.91-4,4.06.86,2.53,9.58-2.01,10.33,9.97-8.4.35,2.87Z"/>
      <path d="M480.04,250.33l-12.9,23.02-3.93.97-2.49-1.44,1-25.63-2-.53-9.43,24.53-3.04,1.93-3.37-1.53-9.3-23.88,1.74,1.63-6.75,7.13-.35-2.87,5.38-8.03,3.47-1.59,3.35,2.11,5.92,17.6,1.58.29,12.67-27.26,3.56-.83,2.38,2.13-.05,22.41,1.73.76,10.46-13.8.35,2.87Z"/>
      <path d="M429.57,256.52l-8.77,12.62-2.28,1.06-2.25-1.08-6.43-13.86-2.35-1.07-6.04,5.79-.35-2.87,7.35-9.24,3.99-1.27,2.68,2.19,5.67,11.62,2.23.11,6.2-6.87.35,2.87ZM417.8,290.36l-3.13,2.81-4.23-.65-.66-3.8,2.66-6.63,3.22-2.04,3.13,1.17.45,3.63-1.45,5.51Z"/>
      <path d="M394.06,264.38l2.07-2-3.97,14.84-9.94,9.37-8.55,1.05-5.1-5.39,2.6-10.21,8.28-7.22,11.2-3.9-.25,1.87-3.43-10.64-10.57-.45-12.41,12.87-.35-2.87,11.23-13.79,9.71-3.42,8.9,6.47,2.31,10.19-2.4-1.45,7.69-2.59.35,2.87-7.37,4.4ZM375.23,272.12l1.23,9.26,8.53-.47,5.63-16.21-.38-.73-15.02,8.15Z"/>
      <path d="M325.02,317.37l-5.44,17.74-4.28-.25,1.43-18.22,3.46-13.42,5.32-15.59-2.29,14.35-2.73-34-3.3-2.5-6.26,5.62-.35-2.87,7.09-9.02,4.55.12,4.03,3.77,1.22,15.47h1.64s6.63-18.28,6.63-18.28l7.56-9.17,5.35-2.01,3.37,3.08,2.54,19.09-2.15-2.55,11.2-7,.35,2.87-12.63,11.83,2.33-3.78-3.25,11.26-13.81,13.24-8.88-.85.09-5.54,11.07.58,9.1-18.58-.63-14.57-4.1-1.15-6.22,10.66-7.61,19.75-4.43,29.93Z"/>
      <path d="M303.05,330.16l-6.48,1.47-4.88-2.02,3.92-30.16-.16-27.24-4.51-5.27-5.13.63-12.17,26.62,3.58-14.02.98,26.84-1.57,16.29-4.6,8.91-4.92,3.13-3.51-3.45-.07-11.54,6.49-28.05-2.08,19.17-4-48.3,8.29-4.8,2.29,1.37.64,15.44,1.47.21,3.9-11.44,6.64-7.22,11.93-.3,7.7,10.89.87,22.01-1.63,22.9-3.01,17.93Z"/>
      <path d="M260.48,277.28l-13.91,22.66-5.55,1.17-2.96-2.93.04-16.98-1.73-.76-8.19,16.62-3.6,2.09-3.76-1.57-7.15-18.13,2.44,1.83-6.1,2.2-.61-4.97,7.56-6.75,4.56-.56,3.04,2.73,4.93,12.68-2.57.32,15.74-24.24,4.09-1.28,3.11,2.53-.73,17.65,1.73.76,9-10.03.61,4.97Z"/>
      <path d="M210.01,283.48l-8.34,8.3,4.78-5.83-8.9,16.32-12.14,8.77-5.87-.64-.47-5.37,6.34-8.05,13.31-9.49-3.61,5.97-.39-11.79-3.53-4.42-4,1.17-12.07,9.34-.61-4.97,7.96-11.36,12.87-4.39,9.83,6.16,1.38,11.28-1.9-2.09,4.73-3.88.61,4.97Z"/>
      <path d="M164.95,309.38l-.21-4.05,7.18,1.93,1.21,10.62-3.44,3.43-4.85.6-4.94-2.5-1.63-8.53,4.94.94-14.25.2-3.66-7.02,6.35-19.79-1.93-1.61-9.29,8.41-.61-4.97,11.68-12.49,8.09-.9,4.77,5.04-8.3,28.28-2.74-2.67,9.43.59-4.22,2.56,8.54-17.64,7.44-7.02.61,4.97-10.18,21.62Z"/>
      <path d="M140.43,292.02l-8.94,14.39-3.57.83-2.62-1.71-3.78-13.5-3.73-.51-5.49,3.97-.61-4.97,6.32-9.02,4.9-1.77,6.84,2.26,3.73,12.35-4.34.05,10.68-7.33.61,4.97ZM130.29,330.42l-4.87,4.38-6.6-1.13-1.11-5.88,4.14-10.3,5.1-3.24,4.87,1.92.69,5.64-2.22,8.62Z"/>
      <path d="M112.3,295.48l-5.46,6.59-9.59,36.58-3.46,1.69-2.35-1.85,3.79-36.74-2.13-11.09,2.63,1.81-11.18,6.42-.61-4.97,11.83-12.12,5.78-1.68,3.64,2.95,2.27,13.01-4.62-.69,8.86-4.87.61,4.97ZM110.29,329.38l-1.98,1.12-12.11,1.2-6.2,1.34-1.63-1.45.18-5.65,1.73-1.67,9.02-1.98,10.88-.95,1.71,2.12-1.59,5.92Z"/>
      <path d="M84.55,298.89l-8.94,14.39-3.56.83-2.62-1.71-3.78-13.5-3.73-.51-5.49,3.97-.61-4.97,6.32-9.02,4.9-1.77,6.84,2.26,3.74,12.34-4.34.05,10.68-7.33.61,4.97ZM74.4,337.28l-4.86,4.38-6.6-1.13-1.11-5.88,4.14-10.3,5.1-3.24,4.87,1.92.69,5.64-2.22,8.62Z"/>
      <path d="M56.41,302.34l-8.34,8.3,4.78-5.83-8.9,16.32-12.14,8.77-5.87-.64-.47-5.37,6.34-8.05,13.31-9.49-3.61,5.97-.39-11.79-3.53-4.42-4,1.17-12.07,9.34-.61-4.97,7.96-11.36,12.87-4.39,9.83,6.17,1.38,11.28-1.9-2.09,4.73-3.88.61,4.97Z"/>
      <path d="M21.53,306.62l-8.94,14.39-3.57.83-2.62-1.71-3.78-13.5-3.73-.51-5.49,3.97-.61-4.97,6.32-9.02,4.9-1.76,6.84,2.26,3.74,12.35-4.34.05,10.68-7.33.61,4.97ZM11.39,345.02l-4.87,4.38-6.6-1.13-1.11-5.88,4.14-10.3,5.1-3.24,4.87,1.92.69,5.64-2.22,8.62Z"/>
      <path d="M905.78-22.49l-8.77,12.62-2.28,1.06-2.26-1.08-6.43-13.86-2.35-1.07-6.04,5.79-.35-2.87,7.36-9.24,3.99-1.27,2.68,2.19,5.67,11.62,2.23.11,6.2-6.87.35,2.87ZM894.02,11.35l-3.13,2.81-4.23-.65-.66-3.8,2.66-6.63,3.22-2.04,3.13,1.17.45,3.63-1.45,5.51Z"/>
      <path d="M877.65-19.03l-9.5,21.63-6.49,4.48-6.83-2.17-4.85-13.57,7.34-20.4.84,1.35-13.87,12.76-.35-2.87,10.92-12.4,6.85-3.17,6.67,2.48,2.17,5.84-.92,1.18-8.75-3.68,1.71-2.54-6.17,12.59,2.54,19.09,5.49-.87,12.85-22.63.35,2.87Z"/>
      <path d="M810.46,45.08l-9.82,5.67-2.71-1.61,2.75-71.14,7.34-7.01,3.03,1.08-.59,73.01ZM842.47,1.68l-25.46,11.08-9.22,1.13-.43-3.54,29.31-16.69,6.11,5.75-.3,2.27ZM838.5,41.64l-9.44,5.62-2.71-1.61,1.38-72.04,6.97-6.87,3.03,1.08.77,73.82Z"/>
      <path d="M794.82-13.91l.61,4.97-6.04,6.56-2.55,13.8-4.62,5.61-4.96,1.29-2.14-3.33.9-8.36,4.07-10.88-.89-7.26-5.67-.57-5.37,8.9-.6,10.06-5.91,2.96-4.28-2.67-3.3-14.34-5.87,4.02-.61-4.97,10.35-7.67,3.1-1.45,3.75,2.25,1.45,4.77,1.24-.15,5.02-10.99,8.65-3.39,4.88,4.35,2.69,10.92,6.11-4.44Z"/>
      <path d="M734.06-14.5l3.11,2.53-1.68,12.23,1.52.59,10.57-8.96.61,4.97-17.77,22.65-3.23,1.17-2.41-2.32-.18-12.49-1.57-.2-10.19,19.97-3.76,1.62-3.08-2.34-.78-19.69-1.77-.27-5.42,11.63-4.18,2.07-4.18-1.82-6.36-14.83,1.5.4-5.34,2.89-.61-4.97,8.71-7.66,3.25-.21,2.52,1.63,4.53,10.21,1.65.09,10.05-18.69,3.05-1.05,2.54,1.82,1.08,18.98,1.86.26,11.86-19.69,4.09-.5Z"/>
      <path d="M679.47,5.3l-7.89,6.5-12,18.55-11.44,5.87-4.08-1.05-.46-3.73,5.25-6.76,11.11-9.32,1.97-13.04-1.81-.55-12.93,19.63-3.45,1.78-3.42-1.91-1.53-14.85-6.47,4.67-.61-4.97,7.88-10.47,5.43-1.34,4.63,3.89.81,8.15,1.65.09,3.77-9.39,6.67-6.15,6.3-2.13,4.23,4.62-.58,11.03,6.35-4.08.61,4.97Z"/>
      <path d="M632.33,11.09l-13.91,22.66-5.55,1.17-2.96-2.93.04-16.98-1.73-.76-8.19,16.62-3.6,2.09-3.76-1.57-7.15-18.13,2.44,1.83-6.1,2.2-.61-4.97,7.56-6.75,4.56-.56,3.04,2.73,4.93,12.68-2.57.32,15.74-24.24,4.09-1.28,3.11,2.53-.73,17.65,1.73.76,9-10.03.61,4.97Z"/>
      <path d="M581.86,17.28l-8.94,14.39-3.56.83-2.62-1.72-3.78-13.5-3.73-.51-5.49,3.97-.61-4.97,6.32-9.02,4.9-1.77,6.84,2.26,3.73,12.34-4.34.05,10.68-7.33.61,4.97ZM571.72,55.68l-4.87,4.38-6.6-1.13-1.11-5.88,4.14-10.3,5.1-3.25,4.87,1.92.69,5.64-2.22,8.62Z"/>
      <path d="M553.73,20.74l-5.46,6.59-9.59,36.58-3.46,1.69-2.35-1.85,3.79-36.74-2.13-11.09,2.63,1.81-11.18,6.42-.61-4.97,11.83-12.12,5.78-1.68,3.64,2.95,2.27,13.01-4.62-.69,8.86-4.87.61,4.97ZM551.71,54.64l-1.98,1.12-12.11,1.19-6.2,1.34-1.62-1.45.17-5.65,1.73-1.67,9.02-1.98,10.88-.95,1.71,2.12-1.59,5.92Z"/>
      <path d="M525.97,24.15l-7.89,6.5-12,18.55-11.44,5.87-4.08-1.05-.46-3.73,5.25-6.76,11.11-9.32,1.97-13.04-1.8-.55-12.93,19.63-3.45,1.78-3.42-1.91-1.53-14.85-6.47,4.67-.61-4.97,7.88-10.47,5.43-1.35,4.63,3.89.81,8.15,1.65.09,3.77-9.39,6.67-6.15,6.3-2.13,4.23,4.62-.58,11.03,6.35-4.08.61,4.97Z"/>
      <path d="M468.65,51.55l-.21-4.05,7.18,1.93,1.21,10.62-3.44,3.43-4.85.6-4.94-2.5-1.63-8.53,4.94.94-14.25.2-3.66-7.02,6.35-19.79-1.93-1.61-9.29,8.42-.61-4.97,11.68-12.49,8.09-.9,4.77,5.04-8.3,28.27-2.74-2.67,9.43.59-4.22,2.55,8.54-17.64,7.43-7.02.61,4.97-10.18,21.62Z"/>
      <path d="M444.14,34.19l-8.94,14.39-3.56.83-2.62-1.71-3.78-13.5-3.73-.51-5.49,3.97-.61-4.97,6.32-9.02,4.9-1.77,6.84,2.26,3.74,12.34-4.34.05,10.68-7.33.61,4.97ZM434,72.59l-4.86,4.38-6.6-1.13-1.11-5.88,4.14-10.3,5.1-3.25,4.87,1.92.69,5.64-2.22,8.62Z"/>
      <path d="M416.01,37.65l-7.89,6.5-12,18.55-11.44,5.87-4.08-1.05-.46-3.73,5.25-6.76,11.11-9.32,1.97-13.04-1.8-.55-12.93,19.63-3.45,1.78-3.42-1.91-1.53-14.85-6.47,4.67-.61-4.97,7.88-10.47,5.43-1.34,4.63,3.89.81,8.15,1.65.09,3.77-9.39,6.67-6.15,6.3-2.13,4.23,4.62-.58,11.03,6.35-4.08.61,4.97Z"/>
      <path d="M368.86,43.44l-13.91,22.66-5.55,1.17-2.97-2.93.04-16.98-1.73-.76-8.19,16.62-3.6,2.09-3.76-1.58-7.15-18.13,2.44,1.83-6.1,2.2-.61-4.97,7.57-6.75,4.56-.56,3.04,2.73,4.93,12.68-2.57.32,15.74-24.24,4.09-1.28,3.11,2.53-.73,17.65,1.73.76,9-10.03.61,4.97Z"/>
      <path d="M318.39,49.63l-11.12,23.38-5.64,3.6-5.77-2.2-8.95-13.94,7.95-16.2-.43,4.32-9.4,5.13-.61-4.97,11.28-11.86,7.24-3.12,6.9,4.29,1.22,9.94-1.3,1.23-10.1-2.93,3.12-2.9-2.49,13.5-1.39,7.54,2.01.63,16.89-20.41.61,4.97Z"/>
      <path d="M272.74,113.92l-1.83-1.52,1.94-17.21-.76-25.03-7.87-20.86-5.06.43-8.5,22.67-2.71,29.82-2.47-13.86,5.54,25.51-.66,2.51-6.24,1.06-2.96-6.81,1.28-20.24,7.15-29.78,10.75-20.14,4.92-1.57,3.85,2.24,8.54,20.87,2.8,15.76-1.94,28.17-.21-16.66,3.03,20.77-8.6,3.87Z"/>
      <path d="M232.13,63.72l2.07-2-3.97,14.84-9.95,9.37-8.55,1.05-5.1-5.39,2.6-10.21,8.28-7.22,11.2-3.9-.25,1.87-3.43-10.64-10.57-.45-12.41,12.87-.35-2.87,11.23-13.79,9.71-3.42,8.9,6.47,2.31,10.19-2.4-1.45,7.69-2.59.35,2.87-7.37,4.4ZM213.3,71.46l1.23,9.26,8.53-.46,5.63-16.21-.38-.73-15.02,8.15Z"/>
      <path d="M202.05,63.92l-12.9,23.02-3.93.97-2.49-1.44,1-25.63-1.99-.53-9.43,24.53-3.04,1.93-3.37-1.53-9.3-23.88,1.74,1.63-6.75,7.13-.35-2.87,5.38-8.03,3.47-1.59,3.35,2.11,5.92,17.6,1.58.29,12.67-27.26,3.56-.83,2.38,2.13-.05,22.41,1.73.76,10.46-13.8.35,2.87Z"/>
      <path d="M144.46,78.07l-4.92,11.76-4.18,6.04-2.16-.32-.14-1.92-.89-.18-2.47,2.63-4.88,1.08-6.92-6.04-1.68-9.78,3.7-13.06-1.23-.62-7.67,7.44-.35-2.87,7.54-8.49,1.39-.46,3.7,1.1-2.91,2.2,8.06-9.82,7.26-2.15,5.9,4.03,2.31,6.99.29,9.47-1.17-1.7,8.22-6.15.35,2.87-7.13,7.96ZM137.9,63.94l-7.16-3.29-6.25,4.07,1.53,4.57-4.14,4.78,1.16,12.56,5.97,4.6,3.61-.44.21-4.58,7.1-8.15-2.02-14.11Z"/>
      <path d="M96.03,63.94l2.4,2.23.07,17.84,1.52.59,10.64-12.36.35,2.87-13.6,19.71-2.57,1.09-2.03-1.59-1.6-16.97-2.23-.11-11.21,25.82-2.9.74-2.26-1.08-1.91-25.76-2.15-.22-6.69,18.57-3.66,2.39-3.98-1.74-5.86-18.68,2.15-1.33-8.23,7.61-.35-2.87,7.18-9.12,2.79-.83,2.46,1.93,4.49,16.91,1.65.09,11.67-26.75,3.05-1.05,2.54,1.82.89,24.53,2.16.32,12.16-23.51,3.05-1.05Z"/>
      <path d="M35.15,91.49l-4.92,11.76-4.18,6.04-2.16-.32-.14-1.92-.89-.18-2.47,2.63-4.88,1.08-6.92-6.04-1.68-9.78,3.7-13.06-1.23-.62-7.67,7.44-.35-2.87,7.54-8.49,1.39-.46,3.7,1.1-2.91,2.2,8.06-9.82,7.26-2.15,5.9,4.03,2.31,6.99.29,9.47-1.17-1.7,8.22-6.15.35,2.87-7.13,7.96ZM28.59,77.36l-7.16-3.29-6.25,4.07,1.53,4.57-4.14,4.78,1.16,12.56,5.97,4.6,3.61-.44.21-4.58,7.1-8.15-2.02-14.11Z"/>
      <path d="M1.35,85.65l.35,2.87-8.27,7.32-3.73,12.87-3.12,6.01-3.53,1.11-2.14-3.33,1.05-7.99,5.32-7.73-1.87-15.19-6.88-.22-6.04,14.42-2.06,9.95-2.07,2-2.55-1.14-3.42-17.62-7.93,5.34-.35-2.87,8.11-7.79,2.75-1.21,2.99,1.57,1.53,7.77,1.45.02,5.44-15.41,7.38-2.75,5.58,3.78,3.28,14.15,8.73-5.92Z"/>
    </g>
    <g>
      <path d="M-23.35,218.59l12.68-13-7.87,10.57,7.34-16.42,13.45-9.12,5.59.77.53,4.3-19.41,14.8,7.25-8.55-3.32,16.99,1.92.73,9.61-13.69,4.28-2.85,3.84,3.02.73,13.01-.7-.21,7.98-5.73.61,4.97-11.65,12,3.73-6.57-3.8,30.34-4.02,3.4-4.15-3.18.4-20.32,3.74-13.55-.27,20.6-2.41-23.56-1.84-.84-4.18,9.92-5.09,4.89-4.42,1.71-3.5-3.35-1.42-12.34,4.49-.36-9.51,6.6-.61-4.97Z"/>
      <path d="M21.17,218.17l-.61-4.97,6.04-6.56,2.55-13.8,4.62-5.61,4.96-1.29,2.15,3.33-.9,8.36-4.07,10.88.89,7.26,5.67.56,5.37-8.9.6-10.06,5.91-2.96,4.28,2.67,3.3,14.34,5.88-4.02.61,4.97-10.35,7.67-3.1,1.45-3.75-2.25-1.45-4.77-1.24.15-5.02,11-8.65,3.39-4.88-4.35-2.69-10.92-6.11,4.44Z"/>
      <path d="M67.8,207.4l8.94-14.39,3.57-.83,2.62,1.71,3.78,13.5,3.73.51,5.5-3.97.61,4.97-6.32,9.02-4.9,1.77-6.84-2.27-3.73-12.34,4.34-.05-10.68,7.33-.61-4.97ZM77.94,169l4.87-4.38,6.6,1.13,1.11,5.88-4.14,10.31-5.1,3.24-4.87-1.92-.69-5.64,2.22-8.61Z"/>
      <path d="M95.93,203.94l11.12-23.38,5.64-3.6,5.77,2.2,8.95,13.94-7.95,16.21.43-4.32,9.4-5.13.61,4.97-11.28,11.86-7.24,3.12-6.9-4.29-1.22-9.94,1.3-1.23,10.1,2.93-3.12,2.9,2.49-13.5,1.39-7.54-2.01-.63-16.89,20.41-.61-4.97Z"/>
      <path d="M130.73,183.28l26.12-9.61,13.97-1.72-.15,2.73-33.15,13.67-6.99-3.51.19-1.58ZM135.88,141.13l5.94-2.67,1.51,1.27-1.23,75.61-4.48,2.78-1.67-1.06-.06-75.94ZM166.8,137.53l6.29-2.23,1.29,1.1-3.05,74.19-4.87,2.73-1.58-1.07,1.92-74.73Z"/>
      <path d="M178.69,196.69l-.35-2.87,8.27-7.32,3.73-12.87,3.12-6.01,3.53-1.11,2.15,3.33-1.05,7.98-5.32,7.73,1.87,15.19,6.88.22,6.04-14.42,2.06-9.95,2.07-2,2.55,1.14,3.42,17.62,7.93-5.34.35,2.87-8.11,7.79-2.75,1.21-2.99-1.57-1.53-7.77-1.45-.02-5.44,15.41-7.38,2.75-5.58-3.78-3.28-14.15-8.73,5.92Z"/>
      <path d="M240.55,199.18l-2.4-2.23-.07-17.84-1.52-.59-10.64,12.36-.35-2.87,13.6-19.71,2.57-1.09,2.03,1.59,1.6,16.97,2.23.11,11.21-25.82,2.9-.74,2.26,1.08,1.91,25.76,2.15.22,6.69-18.57,3.66-2.39,3.98,1.74,5.86,18.68-2.15,1.33,8.23-7.61.35,2.87-7.18,9.13-2.79.83-2.46-1.93-4.49-16.91-1.65-.09-11.67,26.75-3.05,1.05-2.54-1.82-.89-24.53-2.16-.32-12.16,23.51-3.05,1.05Z"/>
      <path d="M294.3,179.59l11.58-11.8,9.18-13.25,9.68-5.26,7.18,2.71.13,1.05-12.22,4.99-9.33,8.13-1.83,20.5,3.03.31,12.14-22.15,3.92-1.84,2.94,1.97,3.67,16.52,7.07-7.66.35,2.87-6.87,10.06-4.2,1.19-2.47-2.02-2.91-15.84-1.33.16-9.91,20.62-4.91,4-4.06-.86-2.53-9.58,2.01-10.34-9.97,8.4-.35-2.87Z"/>
      <path d="M341.44,173.8l12.9-23.02,3.93-.97,2.49,1.44-1,25.63,1.99.53,9.43-24.54,3.04-1.92,3.37,1.53,9.3,23.88-1.74-1.63,6.75-7.13.35,2.87-5.38,8.03-3.47,1.59-3.35-2.11-5.92-17.61-1.58-.29-12.67,27.26-3.56.83-2.38-2.13.05-22.41-1.73-.76-10.46,13.8-.35-2.87Z"/>
      <path d="M391.91,167.6l8.77-12.62,2.28-1.06,2.25,1.08,6.43,13.86,2.35,1.07,6.04-5.79.35,2.87-7.36,9.24-3.99,1.27-2.68-2.19-5.67-11.62-2.23-.11-6.2,6.87-.35-2.87ZM403.67,133.76l3.13-2.81,4.23.64.66,3.8-2.66,6.63-3.22,2.04-3.13-1.17-.45-3.63,1.45-5.51Z"/>
      <path d="M420.04,164.15l8.36-12.86,7.68-29.36,2.05-1.42,1.98,1.21-5.14,36.71,3.21,15.12-2.24-.99,11.86-11.83.35,2.87-8.59,11.72-5.2,3.26-3.45-2.97-2.78-20.32,1.39,1.87-9.11,9.85-.35-2.87ZM422.53,130.19l1.99-1.12,12.58-1.25,4.79-1.07,1.63,1.45-.41,3.74-1.72,1.67-7.61,1.71-11.36,1.01-.76-2.24.87-3.89Z"/>
      <path d="M447.8,160.74l11.58-11.8,9.18-13.25,9.68-5.26,7.18,2.71.13,1.05-12.22,4.99-9.32,8.13-1.83,20.5,3.03.31,12.14-22.15,3.92-1.84,2.94,1.97,3.67,16.52,7.07-7.66.35,2.87-6.87,10.06-4.2,1.19-2.47-2.02-2.91-15.84-1.33.16-9.91,20.62-4.91,4-4.06-.86-2.53-9.58,2.01-10.34-9.97,8.4-.35-2.87Z"/>
      <path d="M507.16,134.25l.25,1.23-5.59-1.54-3.08-5.44,1.85-4.59,4.16-1.48,4.31,3.64,1.37,7.2-4.35-.82,12.41.51,3.6,6.54-2.9,18.79,1.78,1.14,8.67-8.73.35,2.87-11.98,13.98-3.65.93-2.69-3.07,5.06-29.53.67,2.34-8.29-2.28,1.34-.07-6.53,12.83-8.63,9.11-.35-2.87,12.22-20.7Z"/>
      <path d="M529.63,150.69l8.77-12.62,2.28-1.06,2.25,1.08,6.43,13.86,2.35,1.07,6.04-5.79.35,2.87-7.36,9.24-3.99,1.27-2.68-2.19-5.67-11.62-2.23-.11-6.2,6.87-.35-2.87ZM541.39,116.85l3.13-2.81,4.23.64.66,3.8-2.66,6.63-3.22,2.04-3.14-1.17-.45-3.63,1.45-5.51Z"/>
      <path d="M557.76,147.24l11.58-11.8,9.18-13.25,9.68-5.26,7.18,2.71.13,1.05-12.22,4.99-9.33,8.13-1.82,20.5,3.03.31,12.14-22.15,3.92-1.84,2.94,1.97,3.67,16.52,7.07-7.66.35,2.87-6.87,10.06-4.2,1.19-2.47-2.02-2.91-15.84-1.33.16-9.92,20.62-4.91,4-4.06-.86-2.53-9.58,2.01-10.34-9.97,8.4-.35-2.87Z"/>
      <path d="M604.91,141.45l12.9-23.02,3.93-.97,2.49,1.44-1,25.63,2,.53,9.43-24.54,3.04-1.92,3.37,1.53,9.3,23.88-1.74-1.63,6.75-7.13.35,2.87-5.38,8.03-3.47,1.59-3.35-2.11-5.92-17.61-1.58-.29-12.67,27.26-3.56.83-2.38-2.13.04-22.41-1.73-.76-10.46,13.8-.35-2.87Z"/>
      <path d="M655.38,135.25l9.5-21.63,6.49-4.48,6.83,2.17,4.85,13.57-7.34,20.4-.84-1.35,13.87-12.76.35,2.87-10.92,12.4-6.85,3.17-6.67-2.48-2.17-5.84.92-1.18,8.75,3.68-1.71,2.54,6.17-12.59-2.54-19.09-5.49.87-12.85,22.63-.35-2.87Z"/>
      <path d="M704.74,70.51l1.83,1.52-2.6,17.3,1.62,26.57,5.07,14.61,2.3-.09,7.81-20.46,3.52-27.11,1.05,14.03-4.59-25.63.66-2.51,6.55-1.68,4.02,6.78-.07,21.44-7.6,26.93-12.28,22.55-5.36,1.14-5.13-3.25-6.35-18.72-2.57-17.82,1.06-27.48.79,18.23-3.61-22.35,13.88-4.03Z"/>
      <path d="M739.68,122.48l-3.35,2.55,5.95-17.51,9.59-8.35,11.88-1.46,5.52,4.85.95,7.74-8.65,11.25-13.29,5.71-.08-3,2.95,7.5,6.73-.15,13.65-10.6.61,4.97-11.02,11.63-11.61,3.66-9.07-4.71-3.48-10.24,3.55,2.18-5.82,2.07-.61-4.97,5.6-3.11ZM755.23,117.95l3.01-12.4-5.9-.15-3.98,16.3.85.67,6.02-4.42Z"/>
      <path d="M771.52,120.99l13.91-22.66,5.55-1.17,2.96,2.93-.04,16.98,1.73.76,8.19-16.62,3.6-2.09,3.76,1.57,7.15,18.13-2.44-1.83,6.1-2.2.61,4.97-7.57,6.75-4.56.56-3.04-2.73-4.93-12.68,2.57-.31-15.74,24.24-4.09,1.28-3.11-2.53.73-17.65-1.73-.76-9,10.03-.61-4.97Z"/>
      <path d="M826.55,108.71l5.21-13.35,5.13-6.16,3.21.19.9,3.38,1.26.04,2.51-3.9,7.14-1.56,6.73,5.29.74,10.77-3.84,10.37,1.15.73,5.89-4.7.61,4.97-5.67,7.29-3.54,1.02-4.62-2.25,4.03-2.53-8.62,9.98-8.41,2.2-6.95-5.55-1.99-5.19v-7.76s1.3,2.65,1.3,2.65l-6.12,5.12-.61-4.97,4.56-6.09ZM836.25,116.92l3.87,3.21,7.45-2.18-1.03-4.43,4.09-5.16-1.06-8.6-4.04-3-4.09.5-.1,3.89-5.88,8.68.77,7.08Z"/>
      <path d="M876.71,121.17l-3.11-2.53,1.68-12.23-1.52-.59-10.57,8.96-.61-4.97,17.77-22.65,3.23-1.17,2.41,2.32.18,12.49,1.57.2,10.19-19.97,3.76-1.62,3.08,2.34.78,19.69,1.77.27,5.42-11.63,4.18-2.07,4.18,1.81,6.36,14.84-1.5-.4,5.34-2.89.61,4.97-8.71,7.66-3.25.21-2.52-1.63-4.53-10.21-1.65-.09-10.05,18.69-3.05,1.05-2.54-1.82-1.08-18.98-1.86-.26-11.86,19.69-4.09.5Z"/>
      <path d="M935.86,95.28l5.21-13.35,5.13-6.16,3.21.19.9,3.38,1.26.04,2.51-3.9,7.14-1.56,6.73,5.29.74,10.77-3.84,10.37,1.15.73,5.89-4.7.61,4.97-5.67,7.29-3.54,1.02-4.62-2.25,4.03-2.53-8.62,9.98-8.41,2.2-6.95-5.55-1.99-5.19v-7.76s1.3,2.65,1.3,2.65l-6.12,5.12-.61-4.97,4.56-6.09ZM945.55,103.5l3.87,3.21,7.45-2.18-1.03-4.43,4.09-5.16-1.06-8.6-4.04-3-4.09.5-.1,3.89-5.88,8.68.77,7.08Z"/>
      <path d="M972.49,101.36l-.61-4.97,6.04-6.56,2.55-13.8,4.62-5.61,4.96-1.29,2.14,3.33-.9,8.36-4.07,10.88.89,7.26,5.66.56,5.37-8.9.6-10.06,5.91-2.96,4.29,2.67,3.3,14.34,5.87-4.02.61,4.97-10.35,7.67-3.1,1.45-3.75-2.25-1.45-4.77-1.24.15-5.02,11-8.65,3.39-4.88-4.35-2.69-10.92-6.11,4.44Z"/>
      <path d="M1019.12,90.59l11.12-23.38,5.63-3.6,5.77,2.2,8.95,13.94-7.95,16.21.43-4.32,9.4-5.13.61,4.97-11.28,11.86-7.24,3.12-6.89-4.29-1.22-9.94,1.3-1.23,10.1,2.93-3.12,2.9,2.49-13.5,1.39-7.54-2.01-.63-16.89,20.41-.61-4.97Z"/>
      <path d="M1059.36,80.41l-2.78,3.25.92-25.53,6.06-23.73,6.49-9.24,5.8-.71,5.05,5.78.97,25.2-4.98,18.36-11.94,11.17,1.16-7.81,1.1,8.98,2.37,5.14,4.89.56,8.63-9.11.61,4.97-9.07,12.56-6.22,3.58-7.49-4.42-4.18-14.42,3.58,2.47-7.23,3.99-.61-4.97,6.88-6.08ZM1072.65,66.85l.25-30.97-2.67-.55-3.8,40.53,1.06.74,5.17-9.75Z"/>
      <path d="M-11.31,437.65l12.9-23.02,3.93-.97,2.49,1.44-1,25.63,1.99.53,9.43-24.54,3.04-1.92,3.37,1.53,9.3,23.88-1.74-1.63,6.75-7.13.35,2.87-5.38,8.03-3.47,1.59-3.35-2.11-5.92-17.6-1.58-.29-12.67,27.26-3.56.83-2.38-2.13.05-22.41-1.73-.76-10.46,13.8-.35-2.87Z"/>
      <path d="M78.12,378.66l5.44-17.74,4.28.25-1.43,18.22-3.47,13.42-5.32,15.59,2.29-14.35,2.73,34,3.3,2.5,6.26-5.62.35,2.87-7.09,9.02-4.55-.12-4.03-3.77-1.22-15.47h-1.64s-6.63,18.28-6.63,18.28l-7.56,9.17-5.35,2.01-3.37-3.08-2.54-19.09,2.15,2.55-11.2,7-.35-2.87,12.63-11.83-2.33,3.78,3.25-11.26,13.81-13.24,8.88.85-.09,5.54-11.07-.58-9.1,18.58.63,14.57,4.1,1.15,6.22-10.66,7.61-19.75,4.43-29.93Z"/>
      <path d="M99.57,420.55l-2.07,2,3.97-14.84,9.95-9.37,8.55-1.05,5.1,5.39-2.61,10.21-8.28,7.22-11.2,3.9.25-1.87,3.43,10.64,10.57.45,12.41-12.87.35,2.87-11.23,13.79-9.71,3.42-8.9-6.47-2.31-10.19,2.4,1.45-7.69,2.59-.35-2.87,7.37-4.4ZM118.39,412.8l-1.23-9.26-8.53.47-5.63,16.21.38.73,15.02-8.15Z"/>
      <path d="M137.54,361.27l6.48-1.47,4.88,2.02-3.92,30.16.16,27.24,4.51,5.27,5.13-.63,12.17-26.62-3.58,14.02-.98-26.84,1.57-16.29,4.6-8.91,4.92-3.13,3.51,3.45.07,11.54-6.49,28.05,2.08-19.17,4,48.3-8.29,4.8-2.29-1.37-.64-15.44-1.47-.21-3.9,11.44-6.64,7.22-11.93.3-7.71-10.89-.87-22.01,1.63-22.9,3.01-17.93Z"/>
      <path d="M180.11,414.15l13.91-22.66,5.55-1.17,2.97,2.93-.04,16.98,1.73.76,8.19-16.62,3.6-2.09,3.76,1.57,7.15,18.13-2.44-1.83,6.1-2.2.61,4.97-7.57,6.75-4.56.56-3.04-2.73-4.93-12.68,2.57-.31-15.74,24.24-4.09,1.28-3.11-2.53.73-17.65-1.73-.76-9,10.03-.61-4.97Z"/>
      <path d="M230.58,407.95l7.89-6.5,12-18.54,11.44-5.87,4.08,1.05.46,3.73-5.25,6.76-11.11,9.32-1.97,13.04,1.8.55,12.93-19.63,3.45-1.78,3.42,1.91,1.53,14.85,6.47-4.68.61,4.97-7.88,10.47-5.43,1.35-4.63-3.89-.81-8.15-1.65-.09-3.77,9.39-6.67,6.15-6.3,2.13-4.23-4.62.58-11.03-6.35,4.08-.61-4.97Z"/>
      <path d="M277.73,402.16l8.34-8.3-4.78,5.83,8.9-16.32,12.14-8.77,5.87.64.47,5.37-6.34,8.05-13.31,9.49,3.61-5.97.39,11.79,3.53,4.42,4-1.17,12.07-9.34.61,4.97-7.96,11.36-12.87,4.39-9.83-6.16-1.38-11.28,1.9,2.09-4.73,3.88-.61-4.97Z"/>
      <path d="M312.61,397.88l8.34-8.3-4.78,5.83,8.9-16.32,12.14-8.77,5.87.64.47,5.37-6.34,8.05-13.31,9.49,3.61-5.97.39,11.79,3.53,4.42,4-1.17,12.07-9.34.61,4.97-7.96,11.36-12.87,4.39-9.83-6.16-1.38-11.28,1.9,2.09-4.73,3.88-.61-4.97Z"/>
      <path d="M352.05,387.51l5.21-13.35,5.13-6.16,3.21.19.9,3.38,1.26.04,2.51-3.9,7.14-1.56,6.73,5.29.74,10.77-3.84,10.37,1.15.73,5.89-4.7.61,4.97-5.67,7.29-3.54,1.02-4.62-2.25,4.03-2.53-8.62,9.98-8.41,2.2-6.95-5.55-1.99-5.19v-7.76s1.3,2.65,1.3,2.65l-6.12,5.12-.61-4.97,4.56-6.09ZM361.74,395.73l3.87,3.21,7.45-2.18-1.03-4.43,4.09-5.16-1.06-8.6-4.03-3-4.09.5-.1,3.89-5.88,8.68.77,7.08Z"/>
      <path d="M402.21,399.97l-3.11-2.53,1.68-12.23-1.52-.59-10.57,8.96-.61-4.97,17.77-22.65,3.23-1.17,2.41,2.32.18,12.49,1.57.2,10.19-19.97,3.76-1.62,3.08,2.34.78,19.69,1.77.27,5.42-11.63,4.18-2.06,4.18,1.81,6.36,14.84-1.5-.4,5.34-2.89.61,4.97-8.71,7.66-3.25.21-2.52-1.63-4.53-10.21-1.65-.09-10.05,18.69-3.05,1.05-2.54-1.82-1.08-18.98-1.86-.26-11.86,19.69-4.09.5Z"/>
      <path d="M456.79,380.17l8.87-7.88-3.1,5.42,6.03-31,4.44-4.72,3.1,1.66.72,16.11-6.13,15.3,2.33-22.69-1.55,36.86,2.53.17,3.83-26.17,4.33-3.25,6.26,2.24,6.39,18.23-2.29-.59,7.02-4.94.61,4.97-8.7,8.54-4.56.56-3.06-2.92-1.72-10.07h-1.54s-9.83,44.08-9.83,44.08l-5.01.81-2.19-2.16-.94-39.85,4.41-.25-9.62,6.52-.61-4.97Z"/>
      <path d="M499.57,374.92l7.89-6.5,12-18.54,11.44-5.87,4.08,1.05.46,3.73-5.25,6.76-11.11,9.32-1.97,13.05,1.8.55,12.93-19.63,3.45-1.78,3.42,1.91,1.53,14.85,6.47-4.68.61,4.97-7.88,10.47-5.43,1.35-4.63-3.89-.81-8.15-1.65-.09-3.77,9.39-6.67,6.15-6.3,2.13-4.23-4.62.58-11.03-6.35,4.08-.61-4.97Z"/>
      <path d="M546.71,369.13l13.91-22.66,5.55-1.17,2.96,2.93-.04,16.98,1.73.76,8.19-16.62,3.6-2.09,3.76,1.57,7.15,18.13-2.44-1.83,6.1-2.2.61,4.97-7.57,6.75-4.56.56-3.04-2.73-4.93-12.68,2.57-.31-15.74,24.24-4.09,1.28-3.11-2.53.73-17.65-1.73-.76-9,10.03-.61-4.97Z"/>
      <path d="M597.18,362.94l8.94-14.39,3.56-.83,2.62,1.71,3.78,13.5,3.73.51,5.49-3.97.61,4.97-6.32,9.02-4.9,1.77-6.84-2.27-3.73-12.34,4.34-.05-10.68,7.33-.61-4.97ZM607.32,324.54l4.86-4.38,6.6,1.13,1.11,5.88-4.14,10.3-5.1,3.24-4.87-1.92-.69-5.64,2.22-8.62Z"/>
      <path d="M630.91,356.37l-3.35,2.55,5.95-17.51,9.59-8.35,11.88-1.46,5.52,4.85.95,7.74-8.65,11.25-13.29,5.71-.08-3,2.95,7.5,6.74-.15,13.65-10.6.61,4.97-11.02,11.63-11.61,3.66-9.07-4.71-3.48-10.24,3.55,2.18-5.82,2.07-.61-4.97,5.6-3.11ZM646.47,351.84l3.01-12.4-5.9-.15-3.98,16.3.85.67,6.02-4.42Z"/>
      <path d="M696.62,302.23l7.76-17.73,3.92.49.95,17.93-2.99,13.36-5.74,14.57,1.61-12.03,2.04,21.28,4.38,8.19,7.25.08.61,4.97-10.18,6.68-5.33-.22-2.65-2.68-3.4-10.45-2.02.05-5.29,12.68-6.4,9.13-7.18,3.6-4.59-4.38-1.13-14.7,3.18,2.33-8.04,4.48-.61-4.97,10.99-11.05-4.75,6.89,5.61-16.4,15.16-12.44,6.75-.83.55,10.8-9.44-1.46-7.54,10.92-1.95,14.79,1.93.83,10.22-12.6,3.49-10.9,2.83-31.19Z"/>
      <path d="M724.26,289.23l2.95-1.14,4.17,1.72-4.43,30.71.63,31.06,5.55,5.14,7.58-1.12,12.95-30.49-1.52,7.27-.66-20.29,2.52-16.41,3.14-9.79,2.77-1.79,2.41,2.32.5,10.32-6.47,27.47.17-15.93,4.74,48.79-5.24,3.65-1.39-1.09-1.3-22.34-1.37-.12-4.38,16.15-7.91,9.41-11.45.24-7.7-10.89-.87-22.01,1.63-22.9,3.01-17.93Z"/>
      <path d="M766.46,342.15l12.9-23.02,3.93-.97,2.49,1.44-1,25.63,1.99.53,9.43-24.53,3.04-1.93,3.37,1.53,9.3,23.88-1.74-1.63,6.75-7.13.35,2.87-5.38,8.03-3.47,1.59-3.35-2.11-5.92-17.6-1.58-.29-12.67,27.26-3.56.83-2.38-2.13.05-22.41-1.73-.76-10.46,13.8-.35-2.87Z"/>
      <path d="M816.93,335.95l10.45-10.01-5.08,7.32,8.54-18.41,11.01-6.98,3.82.5.51,3.33-6.62,7.41-13.52,10.88,2.93-3.66.58,13.41,6.02,4.98,5.74-1.97,10.51-11.09.35,2.87-8.49,13.36-10.23,3.88-9.52-6.79-.97-11.81,2.39-.2-8.06,5.84-.35-2.87Z"/>
      <path d="M864.03,310.97l.25,1.23-5.59-1.54-3.08-5.44,1.85-4.59,4.16-1.48,4.31,3.64,1.37,7.2-4.35-.82,12.41.51,3.6,6.54-2.9,18.79,1.78,1.14,8.67-8.73.35,2.87-11.98,13.98-3.65.93-2.69-3.06,5.06-29.53.67,2.34-8.29-2.28,1.34-.07-6.53,12.83-8.63,9.11-.35-2.87,12.22-20.7Z"/>
      <path d="M886.5,327.41l8.77-12.62,2.28-1.06,2.25,1.08,6.43,13.86,2.35,1.07,6.04-5.79.35,2.87-7.36,9.24-3.99,1.27-2.68-2.19-5.67-11.62-2.23-.11-6.2,6.87-.35-2.87ZM898.27,293.57l3.13-2.81,4.23.64.66,3.8-2.66,6.63-3.22,2.04-3.13-1.17-.45-3.63,1.45-5.51Z"/>
      <path d="M914.63,323.96l8.36-12.86,7.68-29.36,2.05-1.42,1.98,1.21-5.14,36.71,3.21,15.12-2.24-.98,11.86-11.84.35,2.87-8.59,11.72-5.2,3.26-3.45-2.97-2.78-20.32,1.39,1.87-9.11,9.85-.35-2.87ZM917.12,290l1.99-1.12,12.58-1.25,4.79-1.07,1.63,1.45-.41,3.74-1.73,1.67-7.6,1.71-11.36,1.01-.76-2.23.87-3.89Z"/>
      <path d="M942.39,320.55l8.77-12.62,2.28-1.06,2.25,1.08,6.43,13.86,2.35,1.07,6.04-5.79.35,2.87-7.36,9.25-3.99,1.27-2.68-2.19-5.67-11.62-2.23-.11-6.2,6.87-.35-2.87ZM954.15,286.71l3.13-2.81,4.23.64.66,3.8-2.66,6.63-3.22,2.04-3.13-1.17-.45-3.63,1.45-5.51Z"/>
      <path d="M970.52,317.1l10.45-10.01-5.08,7.32,8.55-18.41,11.01-6.98,3.82.5.51,3.33-6.62,7.41-13.52,10.88,2.93-3.66.58,13.41,6.02,4.99,5.74-1.97,10.51-11.09.35,2.87-8.49,13.36-10.23,3.88-9.52-6.79-.97-11.81,2.39-.2-8.06,5.84-.35-2.87Z"/>
      <path d="M1005.4,312.81l8.77-12.62,2.28-1.06,2.26,1.08,6.43,13.86,2.35,1.07,6.04-5.79.35,2.87-7.35,9.25-3.99,1.27-2.68-2.19-5.67-11.62-2.23-.11-6.2,6.87-.35-2.87ZM1017.17,278.97l3.13-2.81,4.23.64.66,3.8-2.66,6.63-3.22,2.04-3.13-1.17-.45-3.63,1.45-5.51Z"/>
      <path d="M1033.54,309.36l9.5-21.63,6.49-4.48,6.83,2.17,4.85,13.56-7.34,20.4-.84-1.35,13.87-12.76.35,2.87-10.92,12.4-6.85,3.17-6.67-2.48-2.16-5.84.92-1.18,8.75,3.68-1.71,2.54,6.17-12.59-2.54-19.09-5.49.87-12.85,22.63-.35-2.87Z"/>
      <path d="M1074.27,300.87l-2.07,2,3.97-14.84,9.94-9.37,8.55-1.05,5.1,5.39-2.61,10.21-8.28,7.22-11.2,3.9.25-1.87,3.43,10.64,10.57.45,12.41-12.87.35,2.87-11.24,13.79-9.71,3.42-8.9-6.47-2.31-10.19,2.4,1.45-7.69,2.59-.35-2.87,7.37-4.4ZM1093.1,293.12l-1.23-9.26-8.53.47-5.63,16.21.38.73,15.02-8.15Z"/>
      <path d="M-4.06,877.84l11.12-23.38,5.64-3.6,5.77,2.2,8.95,13.94-7.95,16.2.43-4.32,9.4-5.13.61,4.97-11.28,11.86-7.24,3.12-6.9-4.29-1.22-9.94,1.3-1.23,10.1,2.93-3.12,2.9,2.49-13.5,1.39-7.54-2.01-.63-16.89,20.41-.61-4.97Z"/>
      <path d="M29.31,873.74l8.87-7.88-3.1,5.42,6.03-31,4.44-4.71,3.1,1.66.72,16.11-6.13,15.3,2.33-22.69-1.55,36.86,2.53.17,3.83-26.17,4.33-3.25,6.26,2.24,6.39,18.23-2.29-.59,7.02-4.94.61,4.97-8.7,8.54-4.56.56-3.06-2.92-1.72-10.07h-1.54s-9.83,44.08-9.83,44.08l-5.01.81-2.19-2.16-.94-39.85,4.41-.25-9.62,6.52-.61-4.97Z"/>
      <path d="M78.95,862.41l-2.78,3.25.92-25.53,6.06-23.73,6.49-9.24,5.8-.71,5.05,5.78.97,25.2-4.98,18.36-11.94,11.17,1.16-7.81,1.1,8.98,2.37,5.14,4.89.56,8.63-9.11.61,4.97-9.07,12.56-6.22,3.58-7.49-4.41-4.18-14.42,3.58,2.47-7.23,3.99-.61-4.97,6.88-6.08ZM92.24,848.85l.25-30.97-2.67-.54-3.8,40.53,1.06.75,5.17-9.75Z"/>
      <path d="M102.68,864.73l7.89-6.5,12-18.55,11.44-5.87,4.08,1.05.46,3.73-5.25,6.76-11.11,9.32-1.97,13.04,1.8.55,12.93-19.63,3.45-1.78,3.42,1.91,1.53,14.85,6.47-4.67.61,4.97-7.88,10.47-5.43,1.35-4.63-3.89-.81-8.15-1.65-.09-3.77,9.39-6.67,6.15-6.3,2.13-4.23-4.62.58-11.03-6.35,4.08-.61-4.97Z"/>
      <path d="M149.83,858.94l8.34-8.3-4.78,5.83,8.9-16.32,12.14-8.76,5.87.64.47,5.37-6.34,8.05-13.31,9.49,3.61-5.97.39,11.79,3.53,4.42,4.01-1.17,12.07-9.34.61,4.97-7.96,11.36-12.87,4.39-9.83-6.17-1.38-11.28,1.9,2.09-4.73,3.88-.61-4.97Z"/>
      <path d="M190.31,851.55l-3.35,2.54,5.95-17.51,9.59-8.35,11.88-1.46,5.52,4.85.95,7.74-8.65,11.25-13.29,5.71-.08-3,2.95,7.5,6.74-.15,13.65-10.6.61,4.97-11.02,11.63-11.61,3.66-9.07-4.71-3.48-10.24,3.55,2.18-5.82,2.07-.61-4.97,5.6-3.11ZM205.86,847.02l3.01-12.4-5.9-.15-3.98,16.3.85.67,6.02-4.42Z"/>
      <path d="M236.29,861.42l-3.11-2.53,1.68-12.23-1.52-.59-10.57,8.96-.61-4.97,17.77-22.65,3.23-1.17,2.41,2.32.18,12.49,1.57.2,10.19-19.97,3.76-1.62,3.08,2.34.78,19.69,1.77.27,5.42-11.63,4.18-2.07,4.18,1.82,6.36,14.83-1.5-.4,5.34-2.89.61,4.97-8.71,7.67-3.26.21-2.52-1.63-4.53-10.21-1.65-.09-10.05,18.69-3.05,1.05-2.54-1.82-1.08-18.98-1.86-.26-11.86,19.69-4.09.5Z"/>
      <path d="M296.48,838.51l-3.35,2.54,5.95-17.51,9.59-8.36,11.88-1.46,5.52,4.85.95,7.74-8.65,11.25-13.29,5.71-.08-3,2.95,7.5,6.74-.15,13.65-10.6.61,4.97-11.02,11.63-11.61,3.66-9.07-4.71-3.48-10.24,3.55,2.18-5.82,2.07-.61-4.97,5.6-3.11ZM312.03,833.98l3.01-12.4-5.9-.15-3.98,16.3.85.67,6.02-4.42Z"/>
      <path d="M328.32,837.03l13.91-22.66,5.55-1.17,2.96,2.93-.04,16.98,1.73.76,8.19-16.62,3.6-2.09,3.76,1.58,7.15,18.13-2.44-1.83,6.1-2.2.61,4.97-7.56,6.75-4.56.56-3.04-2.73-4.93-12.68,2.57-.32-15.74,24.24-4.09,1.28-3.11-2.53.73-17.64-1.73-.76-9,10.03-.61-4.97Z"/>
      <path d="M378.79,830.83l5.46-6.59,9.59-36.58,3.46-1.69,2.35,1.85-3.79,36.74,2.13,11.09-2.63-1.81,11.18-6.42.61,4.97-11.83,12.12-5.78,1.68-3.64-2.95-2.27-13.01,4.62.69-8.86,4.87-.61-4.97ZM380.81,796.93l1.98-1.12,12.11-1.19,6.2-1.34,1.63,1.45-.17,5.65-1.73,1.67-9.02,1.98-10.88.95-1.71-2.12,1.59-5.92Z"/>
      <path d="M406.55,827.42l11.12-23.38,5.64-3.6,5.77,2.2,8.95,13.94-7.95,16.2.43-4.32,9.4-5.13.61,4.97-11.28,11.86-7.24,3.12-6.9-4.29-1.22-9.94,1.3-1.23,10.1,2.93-3.12,2.9,2.49-13.5,1.39-7.54-2.01-.63-16.89,20.41-.61-4.97Z"/>
      <path d="M440.64,770.37l1.67-4.47,10.66-3.54,12.84-.7,10.12,3.8,5.05,8.11,1.29,11.29-4.94,12.44-11.06,10.48,2.02-4.8,6.17,14.08,10.06,15.16.16,1.34-4.49,2.69-4.5-1.29-8.36-14.69-5.17-16.15.16-1.09,8.82-3.61,3.37-11.86-1.42-12.34-7.11-6.79-10.74-.23-13.48,3.4-1.11-1.22ZM456.02,776.15l1.25,1.5-2.01,59.03-5.87,2.47-.97-.85.45-60,7.17-2.14Z"/>
      <path d="M493.47,813.26l-2.07,2,3.97-14.84,9.94-9.37,8.55-1.05,5.1,5.39-2.6,10.21-8.28,7.22-11.2,3.9.25-1.87,3.43,10.64,10.57.45,12.41-12.87.35,2.87-11.23,13.79-9.71,3.42-8.9-6.47-2.31-10.19,2.4,1.45-7.69,2.59-.35-2.87,7.37-4.4ZM512.3,805.51l-1.23-9.26-8.53.46-5.63,16.21.38.73,15.02-8.15Z"/>
      <path d="M523.55,813.06l12.88-9.83-2.86,3.45,5.98-31.48,2.77-2.57,2.67,2.1-.31,17.11-6.71,15.28,1.25-7.91-.98,37.56,1.46.11,6.08-38.48,4.78-3.5,3.75,2.26,3.25,18.61-1.39-.32,10.16-7.65.35,2.87-7.63,8.6-4.35.73-4.07-4.06-.74-11.55-1.63.1-8.99,47.76-3.53,1.11-2.19-2.16.08-43.37,2.17.41-11.89,7.67-.35-2.87Z"/>
      <path d="M566.67,810.67l-.35-2.87,8.27-7.32,3.73-12.87,3.12-6.01,3.53-1.11,2.14,3.33-1.05,7.99-5.32,7.73,1.87,15.19,6.88.22,6.04-14.42,2.06-9.95,2.07-2,2.55,1.14,3.42,17.62,7.93-5.34.35,2.87-8.11,7.79-2.75,1.21-2.99-1.57-1.53-7.76-1.45-.02-5.44,15.41-7.38,2.75-5.58-3.78-3.28-14.15-8.73,5.92Z"/>
      <path d="M623.45,792.16l-2.36,4.36,1.53-22.11,7.13-26,6.61-11.38,4.62-.08,3.69,8.86-2.75,27.11-8.08,14.38-10.06,9.97,3-5.41.57,22.72,6.44,1.34,7.68-17.63-.85,5.63-5.2-3.05.02-5.34,4.51-6.47,5.12.05,1.8,9.19-11.12,20.18-6.85,4.72-6.11-4.97-1.62-21.82,1.25,3.14-8.51,5.31-.35-2.87,9.89-9.85ZM627.9,789.96l6.14-8.9,4.76-31.91-2.37-4.37-2.76,1.11-6.87,43.04,1.09,1.03Z"/>
      <path d="M652.43,789.37l-1.83,4.78,1.54-23.57,7.17-24.94,6.3-9.21,3.92-.29,3.36,7.74-2.7,32.24-6.33,12.13-8.57,5.61,1.4-3.57.65,10.78,2.83,5.76,5.61.09,9.56-12.52.35,2.87-7.7,14.33-8.39,3.17-6.29-4.85-2.54-14.43,1.9-.23-7.59,5.78-.35-2.87,7.7-8.8ZM663.38,783.47l3.49-37.58-3.28-1.54-7.24,43.96,1.06.74,5.97-5.58Z"/>
      <path d="M675.34,794.42l8.77-12.62,2.28-1.06,2.25,1.08,6.43,13.86,2.35,1.07,6.04-5.79.35,2.87-7.36,9.24-3.99,1.27-2.68-2.19-5.67-11.62-2.23-.11-6.2,6.87-.35-2.87ZM687.1,760.58l3.13-2.81,4.23.65.66,3.8-2.66,6.63-3.22,2.04-3.13-1.17-.45-3.63,1.45-5.51Z"/>
      <path d="M703.47,790.96l10.45-10.01-5.08,7.32,8.54-18.41,11.01-6.98,3.82.5.51,3.33-6.62,7.41-13.52,10.88,2.93-3.66.58,13.41,6.01,4.99,5.74-1.97,10.51-11.09.35,2.87-8.49,13.36-10.23,3.88-9.52-6.79-.97-11.81,2.39-.2-8.06,5.84-.35-2.87Z"/>
      <path d="M738.35,786.68l9.5-21.63,6.49-4.48,6.83,2.17,4.85,13.57-7.34,20.4-.84-1.35,13.87-12.76.35,2.87-10.92,12.4-6.85,3.17-6.67-2.48-2.17-5.84.92-1.18,8.75,3.68-1.71,2.54,6.17-12.59-2.54-19.09-5.49.87-12.85,22.63-.35-2.87Z"/>
      <path d="M776.49,774.34l1.67-33.57-.06,9.71-3.98-9.6,4.47-15.48,7.93-4.56,2.88,1.49-1.55,40.06.38,32.16-9.01,5.18-2.69-1.51-.04-23.86Z"/>
      <path d="M806,791.47l-3.11-2.53,1.68-12.23-1.52-.59-10.57,8.96-.61-4.97,17.77-22.65,3.23-1.17,2.41,2.32.18,12.49,1.57.2,10.19-19.97,3.76-1.62,3.08,2.34.78,19.69,1.77.27,5.42-11.63,4.18-2.07,4.18,1.82,6.36,14.84-1.5-.4,5.34-2.89.61,4.97-8.71,7.67-3.25.21-2.52-1.63-4.53-10.21-1.65-.09-10.05,18.69-3.05,1.05-2.54-1.82-1.08-18.98-1.86-.26-11.86,19.69-4.09.5Z"/>
      <path d="M860.58,771.67l8.87-7.88-3.1,5.42,6.03-31,4.44-4.71,3.1,1.66.72,16.11-6.13,15.3,2.33-22.69-1.55,36.86,2.53.17,3.83-26.17,4.33-3.25,6.26,2.24,6.39,18.23-2.29-.59,7.02-4.94.61,4.97-8.7,8.54-4.56.56-3.06-2.92-1.72-10.07h-1.54s-9.83,44.07-9.83,44.07l-5.01.81-2.19-2.16-.94-39.85,4.41-.25-9.62,6.52-.61-4.97Z"/>
      <path d="M908.96,763.31l-3.35,2.54,5.95-17.51,9.59-8.35,11.88-1.46,5.52,4.85.95,7.74-8.65,11.25-13.29,5.71-.08-3,2.95,7.5,6.74-.15,13.65-10.6.61,4.97-11.02,11.63-11.61,3.66-9.07-4.71-3.48-10.24,3.55,2.18-5.82,2.07-.61-4.97,5.6-3.11ZM924.51,758.78l3.01-12.4-5.9-.15-3.98,16.3.85.67,6.02-4.42Z"/>
      <path d="M950.98,740.2l.21,4.05-7.18-1.93-1.21-10.62,3.44-3.43,4.85-.59,4.94,2.5,1.63,8.53-4.94-.94,14.25-.2,3.66,7.02-6.35,19.79,1.93,1.61,9.29-8.42.61,4.97-11.68,12.49-8.09.9-4.77-5.04,8.3-28.27,2.74,2.67-9.43-.59,4.22-2.56-8.54,17.64-7.43,7.02-.61-4.97,10.18-21.62Z"/>
      <path d="M975.5,757.56l8.94-14.39,3.57-.83,2.62,1.71,3.78,13.5,3.73.51,5.5-3.97.61,4.97-6.32,9.02-4.9,1.77-6.84-2.26-3.73-12.34,4.34-.05-10.68,7.33-.61-4.97ZM985.64,719.17l4.87-4.38,6.6,1.13,1.11,5.88-4.14,10.3-5.1,3.24-4.87-1.92-.69-5.64,2.22-8.62Z"/>
      <path d="M1003.63,754.11l7.89-6.5,12-18.55,11.44-5.87,4.08,1.05.46,3.73-5.25,6.76-11.11,9.32-1.97,13.04,1.8.55,12.93-19.63,3.45-1.78,3.42,1.91,1.53,14.85,6.47-4.67.61,4.97-7.88,10.47-5.43,1.35-4.63-3.89-.81-8.15-1.65-.09-3.77,9.39-6.67,6.15-6.3,2.13-4.23-4.62.58-11.03-6.35,4.08-.61-4.97Z"/>
      <path d="M1057.65,742.24l-2.78,3.25.92-25.53,6.06-23.73,6.49-9.24,5.8-.71,5.05,5.78.97,25.2-4.98,18.36-11.94,11.17,1.16-7.81,1.1,8.98,2.37,5.14,4.89.56,8.63-9.11.61,4.97-9.07,12.56-6.22,3.58-7.49-4.42-4.18-14.42,3.58,2.47-7.23,3.99-.61-4.97,6.88-6.08ZM1070.94,728.68l.25-30.97-2.67-.54-3.8,40.53,1.06.74,5.17-9.75Z"/>
      <path d="M-4.18,1090.54l-1.82,4.78,1.54-23.57,7.17-24.94,6.3-9.21,3.92-.29,3.36,7.73-2.7,32.24-6.33,12.13-8.57,5.61,1.4-3.57.65,10.78,2.83,5.76,5.61.09,9.56-12.52.35,2.87-7.7,14.33-8.39,3.16-6.29-4.85-2.54-14.43,1.9-.23-7.59,5.78-.35-2.87,7.7-8.8ZM6.77,1084.63l3.49-37.58-3.28-1.54-7.24,43.96,1.06.74,5.97-5.58Z"/>
      <path d="M25.85,1087.63l4.92-11.76,4.18-6.04,2.16.32.14,1.92.89.18,2.47-2.63,4.88-1.08,6.92,6.04,1.68,9.78-3.7,13.07,1.23.62,7.67-7.44.35,2.87-7.54,8.49-1.39.46-3.7-1.1,2.91-2.2-8.06,9.82-7.26,2.15-5.9-4.03-2.31-6.99-.29-9.47,1.17,1.7-8.22,6.15-.35-2.87,7.13-7.96ZM32.41,1101.76l7.16,3.29,6.25-4.07-1.52-4.57,4.14-4.78-1.16-12.56-5.97-4.6-3.61.44-.21,4.58-7.1,8.15,2.02,14.11Z"/>
      <path d="M59.31,1090.6l8.36-12.86,7.68-29.36,2.05-1.42,1.98,1.21-5.14,36.71,3.21,15.13-2.24-.99,11.86-11.83.35,2.87-8.59,11.72-5.2,3.26-3.45-2.97-2.78-20.32,1.39,1.87-9.11,9.85-.35-2.87ZM61.8,1056.63l1.99-1.12,12.58-1.25,4.79-1.07,1.63,1.45-.41,3.74-1.72,1.67-7.6,1.71-11.36,1.01-.76-2.24.87-3.89Z"/>
      <path d="M87.06,1087.19l8.36-12.86,7.68-29.36,2.05-1.42,1.98,1.21-5.14,36.71,3.21,15.13-2.24-.99,11.86-11.83.35,2.87-8.59,11.72-5.2,3.26-3.45-2.97-2.78-20.32,1.39,1.87-9.11,9.85-.35-2.87ZM89.55,1053.23l1.98-1.12,12.58-1.25,4.79-1.07,1.62,1.45-.41,3.74-1.73,1.67-7.6,1.71-11.36,1.01-.76-2.24.87-3.89Z"/>
      <path d="M114.82,1083.78l8.77-12.62,2.28-1.06,2.25,1.08,6.43,13.86,2.35,1.07,6.04-5.79.35,2.87-7.35,9.25-3.99,1.27-2.68-2.19-5.67-11.62-2.23-.11-6.2,6.87-.35-2.87ZM126.58,1049.94l3.13-2.81,4.23.64.66,3.8-2.66,6.63-3.22,2.04-3.13-1.17-.45-3.63,1.45-5.51Z"/>
      <path d="M142.95,1080.33l12.9-23.02,3.93-.97,2.49,1.44-1,25.63,1.99.53,9.43-24.54,3.04-1.93,3.37,1.53,9.3,23.88-1.74-1.63,6.75-7.13.35,2.87-5.38,8.03-3.47,1.59-3.35-2.11-5.92-17.6-1.58-.29-12.67,27.26-3.56.83-2.38-2.13.05-22.41-1.73-.76-10.46,13.8-.35-2.87Z"/>
      <path d="M193.42,1074.13l8.96-10.31-1.17,3.05-.33-6.65,3.96-8.63,7.17-5.25,5.82-.52,2.06,4.98-5.7,8.56-8.13,6.04.14,1.15,9.45,11.74-2.15.55,10.25-8.44.35,2.87-7.45,6.93-.27-1.42,6.03,9.83-2.09,12.87-6.87,10.06-5.5,2.32-5.26-3.53-3.92-9.12,2.13-10.93,10.37-9.03-.83,1.85-5.08-6.84-4.06-8.72,2.44.19-9.96,9.27-.35-2.87ZM207.38,1106.85l6.07-.07,4.07-13.21-6.48-9.58,2.21-1.63-6.32,6.69-2.25,9.2,2.69,8.59Z"/>
      <path d="M228.51,1062.16l1.67-33.57-.06,9.71-3.98-9.6,4.47-15.49,7.93-4.56,2.88,1.49-1.55,40.06.38,32.16-9.01,5.18-2.69-1.51-.03-23.86Z"/>
      <path d="M243.89,1067.93l13.91-22.66,5.55-1.17,2.97,2.93-.04,16.98,1.73.76,8.19-16.62,3.6-2.09,3.76,1.58,7.15,18.13-2.44-1.83,6.1-2.2.61,4.97-7.56,6.75-4.56.56-3.04-2.73-4.93-12.68,2.57-.32-15.74,24.24-4.09,1.28-3.11-2.53.73-17.65-1.73-.76-9,10.03-.61-4.97Z"/>
      <path d="M294.36,1061.74l6.21-6.78-2.25,4.45,1.34-18.98,6.37-25.13,10.36-16.21,8.17-2.65,5.56,4.46.39,12.56-7.36,17.88-15.44,27.5,1.46-5.42.86,14.83,1.66.18,7.5-23.04,4.41-2.58,3.57,1.6,5.47,17.85-2.98.85,7.86-6.69.61,4.97-6.02,7.53-4.67,2.03-4.15-2.4-2.74-8.2-2,.25-8.17,21.47-6.61,1.98-3.24-3.58-2.73-17.51,4.12-.21-6.94,3.96-.61-4.97ZM310.23,1045.63l8.51-20.25,3.15-14.45-2.53-.95-3.98,8.44-7.19,26.3,2.04.91Z"/>
      <path d="M337.51,1056.44l7.89-6.5,12-18.54,11.44-5.87,4.08,1.05.46,3.73-5.25,6.76-11.11,9.32-1.97,13.05,1.8.55,12.93-19.63,3.45-1.78,3.42,1.91,1.53,14.85,6.47-4.67.61,4.97-7.88,10.47-5.43,1.34-4.63-3.89-.81-8.15-1.65-.09-3.77,9.38-6.67,6.16-6.3,2.13-4.23-4.62.58-11.03-6.35,4.08-.61-4.97Z"/>
      <path d="M394.83,1029.03l.21,4.05-7.18-1.93-1.21-10.62,3.44-3.43,4.85-.59,4.94,2.5,1.63,8.53-4.94-.95,14.25-.2,3.66,7.02-6.35,19.79,1.93,1.61,9.29-8.42.61,4.97-11.68,12.49-8.09.9-4.77-5.04,8.3-28.27,2.74,2.67-9.43-.59,4.22-2.55-8.54,17.64-7.44,7.02-.61-4.97,10.18-21.62Z"/>
      <path d="M433.47,1057.75l-3.11-2.53,1.68-12.23-1.52-.59-10.57,8.96-.61-4.97,17.77-22.65,3.23-1.17,2.41,2.32.18,12.49,1.57.2,10.19-19.97,3.76-1.62,3.08,2.34.78,19.69,1.77.27,5.42-11.63,4.19-2.06,4.18,1.81,6.36,14.84-1.5-.4,5.34-2.89.61,4.97-8.71,7.66-3.25.21-2.52-1.63-4.53-10.21-1.65-.09-10.05,18.69-3.05,1.05-2.54-1.82-1.08-18.98-1.86-.26-11.86,19.69-4.09.5Z"/>
      <path d="M492.62,1031.86l5.21-13.35,5.13-6.16,3.21.19.9,3.38,1.26.04,2.51-3.9,7.14-1.56,6.73,5.29.74,10.77-3.84,10.37,1.15.73,5.89-4.7.61,4.97-5.67,7.29-3.54,1.02-4.62-2.25,4.03-2.53-8.62,9.98-8.41,2.2-6.95-5.55-1.99-5.19v-7.76s1.3,2.66,1.3,2.66l-6.12,5.12-.61-4.97,4.56-6.09ZM502.32,1040.08l3.87,3.21,7.45-2.18-1.03-4.43,4.09-5.16-1.06-8.6-4.03-3-4.09.5-.1,3.89-5.88,8.68.77,7.08Z"/>
      <path d="M528.65,1032.97l13.91-22.66,5.55-1.17,2.97,2.93-.04,16.98,1.73.76,8.19-16.62,3.6-2.09,3.76,1.58,7.15,18.13-2.44-1.83,6.1-2.2.61,4.97-7.56,6.75-4.56.56-3.04-2.73-4.93-12.68,2.57-.32-15.74,24.24-4.09,1.28-3.11-2.53.73-17.64-1.73-.76-9,10.03-.61-4.97Z"/>
      <path d="M579.12,1026.77l8.94-14.39,3.57-.83,2.62,1.71,3.78,13.5,3.73.51,5.5-3.97.61,4.97-6.32,9.02-4.9,1.77-6.84-2.26-3.74-12.35,4.34-.05-10.68,7.33-.61-4.97ZM589.26,988.38l4.87-4.38,6.6,1.13,1.11,5.88-4.14,10.3-5.1,3.25-4.87-1.92-.69-5.64,2.22-8.62Z"/>
      <path d="M611.81,1017.23l5.21-13.35,5.13-6.16,3.21.19.9,3.38,1.26.04,2.51-3.9,7.14-1.56,6.73,5.29.74,10.77-3.84,10.37,1.15.73,5.89-4.7.61,4.97-5.67,7.29-3.54,1.02-4.62-2.25,4.03-2.53-8.62,9.98-8.41,2.2-6.95-5.55-1.99-5.19v-7.76s1.3,2.66,1.3,2.66l-6.12,5.12-.61-4.97,4.56-6.09ZM621.5,1025.45l3.87,3.21,7.45-2.18-1.03-4.43,4.09-5.16-1.06-8.6-4.04-3-4.09.5-.1,3.89-5.88,8.68.77,7.08Z"/>
      <path d="M648.45,1023.3l-.61-4.97,6.04-6.56,2.55-13.8,4.62-5.61,4.96-1.29,2.14,3.33-.9,8.36-4.07,10.88.89,7.26,5.67.57,5.37-8.9.6-10.06,5.91-2.96,4.29,2.67,3.3,14.34,5.87-4.02.61,4.97-10.35,7.67-3.1,1.45-3.75-2.25-1.45-4.77-1.24.15-5.02,11-8.65,3.39-4.88-4.35-2.69-10.92-6.11,4.44Z"/>
      <path d="M695.07,1012.53l11.12-23.38,5.63-3.6,5.77,2.2,8.95,13.94-7.95,16.2.43-4.32,9.4-5.13.61,4.97-11.28,11.86-7.24,3.12-6.89-4.29-1.22-9.94,1.3-1.23,10.1,2.93-3.12,2.9,2.49-13.5,1.39-7.54-2.01-.63-16.89,20.41-.61-4.97Z"/>
      <path d="M735.31,1002.36l-2.78,3.25.92-25.53,6.06-23.73,6.49-9.24,5.8-.71,5.05,5.78.97,25.2-4.98,18.36-11.94,11.17,1.16-7.81,1.1,8.98,2.37,5.14,4.89.56,8.62-9.11.61,4.97-9.07,12.56-6.22,3.58-7.49-4.42-4.18-14.42,3.58,2.47-7.23,3.99-.61-4.97,6.88-6.08ZM748.6,988.79l.25-30.97-2.67-.54-3.8,40.53,1.06.75,5.17-9.75Z"/>
      <path d="M759.04,1004.68l6.38-9.32,1.92-11.1,3.6-5.29,5.12-1.5,3.24,2.8-.74,8.92-6.02,10.73,3.08-7.17.58,10.99,4.39,1.21,3.82-5.8,4.39-20.81,4.47-2.1,4.33,2.28-.19,25.92-2.26.47,8.09-5.65.61,4.97-10.44,11.66,3.28-9.42-4.7,20.66-4.63,11.04-5.68,2.44-2.71-5.58,1.36-10.93,10.11-18.21-4.43,12.67,1.87-16.23,1.21,1.99-4.69-1.27,1.63-1.66-2.61,8.57-5.93,4.32-5.86,1.01-3.7-3.42-1.97-9.75,2.83,1.01-9.13,6.55-.61-4.97Z"/>
      <path d="M817.66,1012.23l-5.9-8.78-4.41-13.14.59-15.59,3.72-16.07,9.56-17.18,9.07-4.7,9.51,3.59,4.37,8.1.42,10.52-2.37,5.82-5.36,1.92-3.43-4.33.57-7.15,3.22-9.13-.96-1.53-11.98,1.47-5.85,6.54-4.7,13.58v14.26s3.38,15.59,3.38,15.59l5.84,9.08,6.19.89,5.98-1.61,11.74-10.46.35,2.87-11.52,13.05-8.2,4.69-9.83-2.29Z"/>
      <path d="M846.77,993.91l8.46-7.34-1.04,4.1.92-18.45,5.04-24.96,8.93-16.03,5.82-2.07,3.9,7.38-.76,22.89-7.03,15.8-11.14,15.33.47-4.81,2.01,19.54,1.66.18,6.75-24.4,3.84-2.51,3.57,1.6,5.99,15.75-2.64,1.29,8.4-8.6.35,2.87-6.62,9.74-2.75,1.21-2.55-1.14-5.11-14.12-1.52.19-6.61,25.55-4.54,2.3-3.24-3.58-2.98-19.52.46.62-7.7,4.05-.35-2.87ZM861.24,985.25l8.7-16.39,3.24-26.29-2.91-3.23-4.02,1.85-6.47,43.18,1.46.89Z"/>
      <path d="M897.29,984.21l-2.07,2,3.97-14.84,9.95-9.37,8.55-1.05,5.1,5.39-2.61,10.21-8.28,7.22-11.2,3.9.25-1.87,3.43,10.64,10.57.45,12.41-12.87.35,2.87-11.23,13.79-9.71,3.42-8.9-6.47-2.31-10.19,2.4,1.45-7.69,2.59-.35-2.87,7.37-4.4ZM916.12,976.47l-1.23-9.26-8.53.46-5.63,16.21.38.73,15.02-8.15Z"/>
      <path d="M927.37,984.01l11.58-11.8,9.18-13.25,9.68-5.26,7.18,2.71.13,1.05-12.22,4.99-9.32,8.13-1.83,20.5,3.03.31,12.14-22.15,3.92-1.84,2.94,1.97,3.67,16.52,7.07-7.66.35,2.87-6.87,10.06-4.19,1.19-2.47-2.02-2.91-15.84-1.33.16-9.92,20.62-4.91,4-4.06-.86-2.53-9.58,2.01-10.33-9.97,8.4-.35-2.87Z"/>
      <path d="M974.51,978.22l12.88-9.83-2.86,3.45,5.98-31.48,2.77-2.57,2.67,2.1-.31,17.11-6.71,15.28,1.25-7.91-.98,37.56,1.46.11,6.08-38.48,4.78-3.5,3.75,2.25,3.25,18.61-1.39-.32,10.16-7.65.35,2.87-7.63,8.6-4.35.73-4.07-4.06-.74-11.55-1.63.1-8.99,47.76-3.53,1.11-2.19-2.16.08-43.37,2.17.41-11.89,7.67-.35-2.87Z"/>
      <path d="M1017.28,972.97l9.5-21.63,6.49-4.48,6.83,2.17,4.85,13.57-7.34,20.4-.84-1.35,13.87-12.76.35,2.87-10.92,12.4-6.85,3.17-6.67-2.48-2.17-5.84.92-1.18,8.75,3.68-1.71,2.54,6.17-12.59-2.54-19.09-5.49.87-12.85,22.63-.35-2.87Z"/>
      <path d="M1050.64,968.88l14.41-16.22-3.28,5.54,1.56-27.35,5.68-24.46,1.97-1.99,2.57,2.11-.31,19.44-1.7,17.57-4.73,14.16.88-14.85.06,36.66,1.53.68,8.6-17.16,3.39-26.61,2.88-.93,2.35,1.85-.15,5.84-8.66,25.31-9.68,23.3-3.62,1.12-1.58-2.62-1.18-30.02,1.4.41-12.05,11.08-.35-2.87ZM1076.64,955.89l2.28.5,6.92,13.12,3.02.21,8.46-6.57.35,2.87-9.29,10.74-3.97,1.46-3.25-2.12-9.16-15.66.8-2.14,3.85-2.41Z"/>
    </g>
  </g>
  <g>
    <rect x="-247.21" y="367.31" width="1574.41" height="340.53" transform="translate(-61.49 69.82) rotate(-7)"/>
    <g>
      <g>
        <polygon class="cls-1" points="258.02 489.15 239.3 530.02 239.37 529.96 258.11 489.05 258.26 428.57 236.3 385.53 236.23 385.72 258.18 428.72 258.02 489.15 258.02 489.15"/>
        <polygon class="cls-1" points="239.3 530.02 205.79 536.68 205.83 536.63 239.37 529.96 239.3 530.02 239.3 530.02"/>
        <path class="cls-1" d="M194.92,481.16c8.87-17.03,18.13-33.92,26.62-51.13l-26.59,51.03-3.1,32.39,13.97,23.18-.04.05-13.96-23.16,3.09-32.36h0Z"/>
        <polygon class="cls-1" points="221.49 430.17 215.53 422.79 215.58 422.63 221.55 430.03 221.49 430.17 221.49 430.17"/>
        <path class="cls-1" d="M116.73,679.1l28.68,27.95v.1s-28.72-27.97-28.72-27.97l-15.14-65.72c1.08-21.92,2.15-43.83,3.23-65.75.29-5.85.08-11.96,1.09-17.73,1.95-11.19,5.23-22.3,7.83-33.36,2.5-10.64,4.99-21.27,7.49-31.91l28.67-34.01,65.73-8.07-.05.15-65.67,8.06-28.65,33.98c-4.92,20.98-9.85,41.95-14.77,62.93-1.19,5.05-1.14,10.13-1.39,15.31-.67,13.72-1.35,27.45-2.02,41.17-.48,9.73-.96,19.47-1.43,29.2l15.13,65.66h0Z"/>
        <polygon class="cls-1" points="195.57 667.39 203.15 589.29 203.19 589.29 195.61 667.45 174.1 693.97 145.4 707.15 145.41 707.05 174.09 693.89 195.57 667.39 195.57 667.39"/>
        <path class="cls-1" d="M203.15,589.29c19.52-5.79,39.01-11.67,58.56-17.35-19.52,5.79-39.01,11.67-58.56,17.35h0Z"/>
        <polygon class="cls-1" points="266.83 581.47 250.21 799.78 250.29 799.95 266.93 581.46 261.71 571.94 261.62 571.96 266.83 581.47 266.83 581.47"/>
        <polygon class="cls-1" points="250.21 799.78 211.45 813.16 211.5 813.35 250.29 799.95 250.21 799.78 250.21 799.78"/>
        <polygon class="cls-1" points="203.39 805.01 202.35 706.15 202.39 706.25 203.42 805.2 211.5 813.35 211.45 813.16 203.39 805.01 203.39 805.01"/>
        <polygon class="cls-1" points="202.35 706.15 192.66 705.31 192.69 705.4 202.39 706.25 202.35 706.15 202.35 706.15"/>
        <polygon class="cls-1" points="170.2 752.74 131.37 777.82 131.34 777.98 170.21 752.88 192.69 705.4 192.66 705.31 170.2 752.74 170.2 752.74"/>
        <path class="cls-1" d="M55.49,719.1c-3.66-25.04-7.31-50.07-10.97-75.11-.88-6-1.86-11.23-1.31-17.21,1.36-14.58,2.72-29.17,4.07-43.75,1.1-11.8,2.2-23.61,3.3-35.41l34.02-88.96,43.3-58.62,54.63-28.03,53.7,13.71.07-.19-53.74-13.72-54.67,28.06-43.34,58.67-34.05,89.03c-2.34,25.12-4.68,50.24-7.01,75.35-1.9,20.45,3.95,41.71,6.9,61.91,1.67,11.46,3.35,22.92,5.02,34.38l36.77,44.27,39.18,14.5.02-.16-39.14-14.49-36.73-44.23h0Z"/>
        <polygon class="cls-1" points="223.77 402.42 240.37 428.06 221.55 430.03 215.58 422.63 223.77 402.42 223.77 402.42"/>
        <polygon class="cls-1" points="203.42 805.2 214.5 800.67 211.5 813.35 203.42 805.2 203.42 805.2"/>
        <polygon class="cls-1" points="266.93 581.46 250.29 799.95 227.44 782.44 230.8 680.08 227.37 676.03 232.77 613.63 256.93 583.62 261.71 571.94 266.93 581.46 266.93 581.46"/>
        <polygon class="cls-1" points="250.29 799.95 211.5 813.35 214.5 800.67 227.44 782.44 250.29 799.95 250.29 799.95"/>
        <path class="cls-1" d="M42.75,631.83l12.74,87.27,36.73,44.23,39.14,14.49,38.83-25.07,22.46-47.43,9.69.84,1.03,98.86,8.07,8.15,38.75-13.39,16.62-218.3-5.21-9.51-58.47,17.33-7.58,78.09-21.48,26.5-28.68,13.16-28.68-27.95-15.13-65.66c1.08-21.9,2.15-43.79,3.23-65.69.29-5.84.08-11.95,1.09-17.72,1.95-11.18,5.23-22.28,7.82-33.33,2.49-10.63,4.99-21.26,7.48-31.88l28.65-33.98,65.67-8.06,5.96,7.39-26.57,50.99-3.09,32.36,13.96,23.16,33.52-6.66,18.71-40.87.16-60.43-21.94-43-53.7-13.71-54.63,28.03-43.3,58.62-34.02,88.96-7.84,84.22h0Z"/>
        <path class="cls-1" d="M261.71,571.94l-4.78,11.68-24.16,30.01-29.58-24.34c19.51-5.78,39.01-11.56,58.52-17.35Z"/>
        <path class="cls-1" d="M220.28,505.64l-1.45,1.6-13.01,29.39-13.97-23.18,3.1-32.39,26.59-51.03,18.83-1.96c-.04,14.45-6.17,29.72-9.6,43.68-2.85,11.6-7.37,22.3-10.49,33.9h0Z"/>
        <path class="cls-1" d="M220.28,505.64c3.12-11.6,7.63-22.3,10.49-33.9,3.43-13.96,9.56-29.23,9.6-43.68l-16.61-25.64-.72-.39,13.26-16.5,21.96,43.03-.16,60.49-18.73,40.91-19.09-24.32h0Z"/>
        <polygon class="cls-1" points="205.83 536.63 218.84 507.24 220.28 505.64 239.37 529.96 205.83 536.63 205.83 536.63"/>
        <polygon class="cls-1" points="227.44 782.44 214.5 800.67 203.42 805.2 202.39 706.25 230.8 680.08 227.44 782.44 227.44 782.44"/>
        <polygon class="cls-1" points="186.56 694.74 223.73 679.03 227.37 676.03 230.8 680.08 202.39 706.25 192.69 705.4 186.56 694.74 186.56 694.74"/>
        <path class="cls-1" d="M186.56,694.74c-9.69,15.41-24.28,27.24-37.18,40.02l-9.66,5.31,5.68-32.91,28.71-13.18,21.5-26.52,7.59-78.16,29.58,24.34-5.4,62.4-3.63,3-37.18,15.7h0Z"/>
        <path class="cls-1" d="M139.71,740.06l9.66-5.31c12.9-12.78,27.49-24.6,37.18-40.02l6.13,10.67-22.48,47.48-38.87,25.1-4.36-39.15c4.24.41,8.49.82,12.73,1.23Z"/>
        <path class="cls-1" d="M72.73,616.03c2.08-29.25,2.77-58.31,9.62-86.9,3.46-14.43,8.67-28.61,13.03-42.79,3.26-10.62,5.7-22.9,12.65-31.84,6.44-8.29,13.02-16.49,19.52-24.73,4.11-5.21,7.99-11.94,13.05-16.25l45.12-13.92,37.32,2.44.72.39-8.18,20.21-65.73,8.07-28.67,34.01c-4.93,20.99-9.86,41.99-14.78,62.98-1.19,5.06-1.14,10.14-1.4,15.33-.67,13.73-1.35,27.47-2.02,41.2-.48,9.74-.96,19.49-1.44,29.23l15.14,65.72,28.71,27.97-5.68,32.91-12.73-1.23-11.96-7.54-25.21-27.31-3.8-7.48c-5.01-26.7-11.48-53.34-13.28-80.47h0Z"/>
        <path class="cls-1" d="M72.73,616.03c1.8,27.13,8.27,53.77,13.28,80.47l3.8,7.48,25.21,27.31,11.96,7.54,4.36,39.15-39.18-14.5-36.77-44.27c-3.66-25.06-7.32-50.12-10.98-75.17-.88-6.01-1.86-11.24-1.31-17.23,1.36-14.6,2.72-29.2,4.08-43.79,1.1-11.82,2.2-23.63,3.3-35.45l34.05-89.03,43.34-58.67,54.67-28.06,53.74,13.72-13.26,16.5-37.32-2.44-45.12,13.92c-4.16,3.53-7.31,8.97-10.68,13.24-6.25,7.91-12.5,15.83-18.74,23.74-7.03,8.91-10.4,18.25-13.71,29.01-8.26,26.87-18.89,54.25-20.91,82.52-1.28,18-2.56,36-3.84,53.99h0Z"/>
      </g>
      <g>
        <path class="cls-1" d="M364.97,552.12l9.24,67.02,23.53,51.53,36.72,18.89,21.93-2.69,32.24-21.76c6.21-22.98,12.41-45.95,18.62-68.93,1.65-6.12,4.19-12.53,4.69-18.86.96-12.1.18-24.6.27-36.73.09-11.85.17-23.7.26-35.56l-21.5-68.05-42.12-29.92-37.37,4.59-.02-.1,37.4-4.59,42.15,29.94,21.52,68.11c-.17,23.41-.34,46.82-.52,70.24-.04,5.76-2.04,11.08-3.54,16.64-3.87,14.31-7.73,28.62-11.6,42.93l-8.21,30.39-32.26,21.78-21.94,2.69-36.74-18.9-23.54-51.57c-2.98-21.58-6.97-43.25-8.96-64.94-.51-5.58.84-11.33,1.53-16.89,1.74-14.06,3.48-28.12,5.22-42.19,1.21-9.79,2.42-19.57,3.63-29.36l35.86-54.28.02.1-35.83,54.24-10.66,86.24h0Z"/>
        <polygon class="cls-1" points="364.6 380.28 388.58 386.92 388.54 386.8 364.55 380.15 364.6 380.28 364.6 380.28"/>
        <polygon class="cls-1" points="315.9 626.3 318.13 556.91 318.04 556.92 315.81 626.36 336.21 693.58 372.6 738.48 419.03 749.58 447.95 746.03 505.24 701.33 554.18 613.38 572.25 533.79 561.81 432.27 522.95 367.31 475 339.61 428.62 345.3 388.54 386.8 388.58 386.92 428.63 345.46 474.97 339.77 522.89 367.45 561.71 432.36 572.15 533.8 554.09 613.33 505.19 701.21 447.94 745.87 419.04 749.42 372.65 738.33 336.29 693.47 315.9 626.3 315.9 626.3"/>
        <path class="cls-1" d="M318.13,556.91l-20.24-11.3h-.11s20.25,11.31,20.25,11.31h.09Z"/>
        <path class="cls-1" d="M297.9,545.61l-1.54-8.46c12.7-21.73,25.41-43.47,38.11-65.2,10.31-17.64,14.2-37.91,20-57.46,3.38-11.41,6.76-22.81,10.14-34.22l-.06-.13c-7.12,24.04-14.25,48.08-21.37,72.12-5.83,19.68-18.95,37.01-29.26,54.64-5.89,10.08-11.78,20.16-17.67,30.23l1.54,8.46h.11Z"/>
        <polygon class="cls-1" points="364.55 380.15 388.54 386.8 393.87 406.33 381.61 410.89 364.55 380.15 364.55 380.15"/>
        <path class="cls-1" d="M345.06,622.56c-1.37-26.18-5-53.13-2.97-79.28l-6.19-12.17c6.07-17.93,12.15-35.86,18.22-53.79,1.97-5.82,2.88-11.91,4.8-17.67,2.5-7.49,6.88-14.79,10.21-21.95,4.16-8.94,8.32-17.88,12.47-26.81l12.26-4.56,8.11-10.11,9.46,15.32-35.86,54.28c-2.75,22.22-5.49,44.43-8.24,66.65-.8,6.5-2.51,13.53-2.37,20.09.22,10.67,3.02,21.88,4.47,32.43,1.57,11.4,3.15,22.8,4.72,34.21l23.54,51.57,36.74,18.9,21.94-2.69,32.26-21.78c6.19-22.92,12.38-45.84,18.57-68.76,1.66-6.13,4.19-12.57,4.76-18.9,1.09-12.13.18-24.78.27-36.96.09-11.86.17-23.72.26-35.58l-21.52-68.11-42.15-29.94-37.4,4.59-9.46-15.32,41.71-20.87,13.54-1.66,10.3,2.58c9.25,5.94,19.87,11.2,28.35,18.19,7.9,6.51,14.49,15.64,21.45,23.18,3.74,8.32,8.53,16.68,11.4,25.33,2.3,6.92,3.09,14.72,4.56,21.85,2.27,11,4.64,21.98,6.82,32.99,1.42,7.13,1.16,14.61,1.51,21.86.89,18.64-2.27,36.89-4.42,55.42-1.53,13.2-5.01,26.08-10.01,38.37-8.33,20.49-16.66,40.97-24.99,61.46-4.07,4.45-7.91,9.47-12.4,13.49-5.77,5.16-12.85,9.34-19.12,13.89-10.34,7.51-22.36,11.39-34.15,16.28l-7.37.91c-12.84-2.27-24.72-7.53-36.93-12.05l-17.73-14.44c-3.05-4.91-6.68-9.76-9.23-14.94s-4.23-11.2-6.3-16.66c-4.8-12.72-10.99-25.54-13.91-38.84h0Z"/>
        <polygon class="cls-1" points="306.94 539.03 335.9 531.11 342.09 543.27 318.04 556.92 297.79 545.61 306.94 539.03 306.94 539.03"/>
        <path class="cls-1" d="M345.06,622.56c2.92,13.3,9.11,26.13,13.91,38.84,2.07,5.47,3.73,11.4,6.3,16.66s6.18,10.03,9.23,14.94l17.73,14.44c12.21,4.52,24.09,9.78,36.93,12.05l7.37-.91c11.79-4.9,23.81-8.77,34.15-16.28,6.26-4.55,13.19-8.75,19.03-13.83,4.56-3.96,8.4-9.09,12.49-13.55,7.34-18.06,14.68-36.11,22.03-54.17,5.32-13.09,10.2-25.98,12.33-40.09,1.6-10.6,2.48-21.37,3.72-32.02.79-6.77,2.09-13.56,1.76-20.38-.44-9.14-.17-18.62-1.35-27.69s-3.6-17.43-5.38-26.01c-2.11-10.22-3.28-21.3-6.46-31.24-2.81-8.77-7.74-17.27-11.52-25.67-6.96-7.54-13.54-16.67-21.45-23.18-8.48-6.99-19.09-12.25-28.35-18.19l-10.3-2.58-13.54,1.66-41.71,20.87-8.11,10.11-5.32-19.53,40.08-41.49,46.38-5.69,47.96,27.7,38.86,64.96,10.44,101.52-18.08,79.59-48.94,87.95-57.29,44.69-28.92,3.55-46.42-11.1-36.39-44.9-20.4-67.22,2.23-69.45,24.05-13.64c-2.03,26.16,1.6,53.11,2.97,79.28h0Z"/>
        <path class="cls-1" d="M306.94,539.03l-9.15,6.57-1.54-8.46c12.8-21.89,25.59-43.78,38.39-65.67,10.31-17.64,14.15-38.12,19.94-57.65,3.33-11.23,6.65-22.45,9.98-33.68l17.06,30.74c-7.38,15.86-16.47,31.7-22.39,48.14-1.73,4.8-2.3,10.05-3.96,14.95-3.58,10.56-7.16,21.13-10.74,31.69-2.87,8.48-5.75,16.96-8.62,25.44l-28.96,7.93h0Z"/>
      </g>
      <g>
        <polygon class="cls-1" points="743.28 534.14 718.64 391.53 718.65 391.43 743.32 534.16 743.28 534.14 743.28 534.14"/>
        <polygon class="cls-1" points="718.64 391.53 707.69 392.88 707.7 392.77 718.65 391.43 718.64 391.53 718.64 391.53"/>
        <path class="cls-1" d="M671.58,555.5c12.84-4.86,25.59-10.17,38.58-14.59,10.5-3.57,22.22-4.66,33.12-6.77l.04.02c-10.91,2.11-22.62,3.21-33.15,6.78-13.01,4.41-25.77,9.75-38.62,14.61l.02-.04h0Z"/>
        <polygon class="cls-1" points="707.69 392.88 671.58 555.5 671.55 555.54 707.7 392.77 707.69 392.88 707.69 392.88"/>
        <polygon class="cls-1" points="591.28 593.11 594.78 584.55 594.69 584.62 591.19 593.18 591.28 593.11 591.28 593.11"/>
        <polygon class="cls-1" points="594.78 584.55 620.11 574.97 620.04 575.03 594.69 584.62 594.78 584.55 594.78 584.55"/>
        <polygon class="cls-1" points="620.11 574.97 691.31 321.23 691.3 321.06 620.04 575.03 620.11 574.97 620.11 574.97"/>
        <polygon class="cls-1" points="747.9 296.5 766.19 301.36 766.24 301.18 747.94 296.31 691.3 321.06 691.31 321.23 747.9 296.5 747.9 296.5"/>
        <polygon class="cls-1" points="766.19 301.36 804.39 522.3 804.48 522.31 766.24 301.18 766.19 301.36 766.19 301.36"/>
        <path class="cls-1" d="M804.39,522.3c5.14-1,10.29-2.1,15.45-2.96l-15.35,2.97h-.09Z"/>
        <polygon class="cls-1" points="819.73 519.33 824.56 533.99 824.67 534 819.84 519.34 819.73 519.33 819.73 519.33"/>
        <polygon class="cls-1" points="824.56 533.99 806.93 550.43 807.03 550.47 824.67 534 824.56 533.99 824.56 533.99"/>
        <polygon class="cls-1" points="806.93 550.43 811.54 670.72 811.63 670.85 807.03 550.47 806.93 550.43 806.93 550.43"/>
        <polygon class="cls-1" points="811.54 670.72 778.08 702.77 778.15 702.93 811.63 670.85 811.54 670.72 811.54 670.72"/>
        <polygon class="cls-1" points="778.08 702.77 758.48 699.59 758.53 699.75 778.15 702.93 778.08 702.77 778.08 702.77"/>
        <polygon class="cls-1" points="758.48 699.59 748.52 577.18 748.57 577.23 758.53 699.75 758.48 699.59 758.48 699.59"/>
        <polygon class="cls-1" points="748.52 577.18 658.85 615.36 658.81 615.45 748.57 577.23 748.52 577.18 748.52 577.18"/>
        <path class="cls-1" d="M639.95,709.57l-25.67,21.44-.07.19,25.69-21.46c6.31-31.44,12.01-63.07,18.95-94.38l-18.9,94.2h0Z"/>
        <polygon class="cls-1" points="603.47 721.16 610.92 626.14 591.28 593.11 591.19 593.18 610.84 626.24 603.38 721.34 603.47 721.16 603.47 721.16"/>
        <polygon class="cls-1" points="614.28 731.01 603.47 721.16 603.38 721.34 614.21 731.2 614.28 731.01 614.28 731.01"/>
        <polygon class="cls-1" points="824.67 534 813.03 531.02 819.84 519.34 824.67 534 824.67 534"/>
        <polygon class="cls-1" points="594.69 584.62 602.19 592.39 591.19 593.18 594.69 584.62 594.69 584.62"/>
        <polygon class="cls-1" points="747.94 296.31 766.24 301.18 749.51 316.39 732.51 347.89 724.85 350 691.3 321.06 747.94 296.31 747.94 296.31"/>
        <path class="cls-1" d="M819.84,519.34l-6.81,11.68-22.36,11.41,13.82-20.11c5.12-.99,10.24-1.98,15.35-2.97Z"/>
        <polygon class="cls-1" points="658.81 615.45 639.9 709.74 614.21 731.2 614.48 717.01 623.27 700 634.26 620.85 631.12 602.59 635.91 596.94 658.81 615.45 658.81 615.45"/>
        <polygon class="cls-1" points="776.13 537.54 790.67 542.43 813.03 531.02 824.67 534 807.03 550.47 776.07 537.71 776.13 537.54 776.13 537.54"/>
        <polygon class="cls-1" points="776.07 537.71 807.03 550.47 811.63 670.85 783.34 659.52 776.07 537.71 776.07 537.71"/>
        <polygon class="cls-1" points="774.68 532.32 765.36 549.37 743.32 534.16 718.65 391.43 744.33 356.74 774.68 532.32 774.68 532.32"/>
        <polygon class="cls-1" points="783.34 659.52 811.63 670.85 778.15 702.93 773.04 686.49 783.34 659.52 783.34 659.52"/>
        <polygon class="cls-1" points="724.85 350 732.51 347.89 744.33 356.74 718.65 391.43 707.7 392.77 693.49 377.05 724.85 350 724.85 350"/>
        <polygon class="cls-1" points="775.53 532.78 776.13 537.54 776.07 537.71 783.34 659.52 773.04 686.49 758.53 699.75 748.57 577.23 775.53 532.78 775.53 532.78"/>
        <polygon class="cls-1" points="758.53 699.75 773.04 686.49 778.15 702.93 758.53 699.75 758.53 699.75"/>
        <polygon class="cls-1" points="744.33 356.74 732.51 347.89 749.51 316.39 766.24 301.18 804.48 522.31 790.67 542.43 776.13 537.54 775.53 532.78 774.68 532.32 744.33 356.74 744.33 356.74"/>
        <polygon class="cls-1" points="691.3 321.06 724.85 350 693.49 377.05 639.31 592.78 620.04 575.03 691.3 321.06 691.3 321.06"/>
        <polygon class="cls-1" points="693.49 377.05 707.7 392.77 671.55 555.54 639.31 592.78 693.49 377.05 693.49 377.05"/>
        <path class="cls-1" d="M635.91,596.94c32.22-12.95,64.1-27.56,97.31-37.73,10.71-3.28,21.43-6.56,32.14-9.84l9.32-17.05.84.46-26.96,44.46-89.75,38.22-22.9-18.51h0Z"/>
        <path class="cls-1" d="M620.04,575.03l19.27,17.75,32.25-37.24c12.85-4.86,25.61-10.18,38.62-14.61,10.51-3.58,22.24-4.67,33.15-6.78l22.05,15.22c-15.78,4.83-32.02,8.93-47.5,14.63-20.5,7.55-40.62,16.33-60.89,24.47-7.02,2.82-14.05,5.65-21.07,8.47l-4.79,5.64-28.93-10.2-7.51-7.77c8.45-3.2,16.9-6.39,25.35-9.59Z"/>
        <path class="cls-1" d="M602.19,592.39l28.93,10.2,3.14,18.27-10.99,79.15-8.79,17.01-11.1,4.33,7.46-95.1-19.65-33.06c3.67-.26,7.34-.53,11.01-.79Z"/>
        <polygon class="cls-1" points="603.38 721.34 614.48 717.01 614.21 731.2 603.38 721.34 603.38 721.34"/>
      </g>
      <g>
        <polygon class="cls-1" points="1036.88 287.22 1033.65 322.69 1033.73 322.53 1036.96 287.03 1036.88 287.22 1036.88 287.22"/>
        <polygon class="cls-1" points="1033.65 322.69 946.19 328.44 946.19 328.29 1033.73 322.53 1033.65 322.69 1033.65 322.69"/>
        <path class="cls-1" d="M956.47,521.76c1.05,41.09,2.1,82.17,3.15,123.26.15,5.76.27,11.52.45,17.27-1.13-44.3-2.26-88.6-3.39-132.9-.27-10.72.48-21.37,1.01-32.08,1.36-27.8,2.73-55.6,4.09-83.4.98-20,1.96-40,2.94-60l-18.52-25.62v.15s18.51,25.59,18.51,25.59l-8.22,167.72h0Z"/>
        <polygon class="cls-1" points="960.05 662.11 911.71 688.38 911.67 688.58 960.06 662.29 960.05 662.11 960.05 662.11"/>
        <polygon class="cls-1" points="911.71 688.38 899.52 679.71 899.47 679.9 911.67 688.58 911.71 688.38 911.71 688.38"/>
        <path class="cls-1" d="M895.4,489.61l4.56-152.53-.05-.14c-1.46,48.75-2.91,97.51-4.37,146.26-1.29,43.28,1.56,86.96,2.49,130.24.48,22.15.96,44.31,1.44,66.46l.05-.19-4.12-190.1h0Z"/>
        <polygon class="cls-1" points="899.96 337.08 832.92 355.47 832.81 355.35 899.91 336.94 899.96 337.08 899.96 337.08"/>
        <path class="cls-1" d="M825.09,304.08c13.88-3.66,27.75-7.32,41.63-10.98,12.45-3.28,25.26-7.97,37.99-9.97,15.47-2.43,31.76-2.37,47.37-3.54,10.77-.8,21.69-2.77,32.38-1.01,17.47,2.88,34.94,5.76,52.42,8.64l.08-.19c-15.55-2.56-31.09-5.12-46.64-7.69-11.1-1.83-20.03-1.31-31.37-.46-17.43,1.3-35.02,2.02-52.39,3.92-10.8,1.18-21.68,5.31-32.16,8.07-16.48,4.35-32.95,8.69-49.43,13.04l.12.17h0Z"/>
        <polygon class="cls-1" points="821.47 315.71 825.09 304.08 824.97 303.91 821.34 315.55 832.81 355.35 832.92 355.47 821.47 315.71 821.47 315.71"/>
        <polygon class="cls-1" points="1033.73 322.53 1015.43 303.58 1036.96 287.03 1033.73 322.53 1033.73 322.53"/>
        <polygon class="cls-1" points="929.13 644.63 960.06 662.29 911.67 688.58 912.6 673.04 929.13 644.63 929.13 644.63"/>
        <path class="cls-1" d="M825.09,304.08l-3.63,11.62,11.46,39.76,67.04-18.39c-1.46,48.71-2.91,97.41-4.37,146.12-1.29,43.23,1.55,86.88,2.49,130.11.48,22.13.96,44.26,1.44,66.4l12.19,8.67,48.34-26.27c-1.13-44.14-2.25-88.29-3.38-132.43-.27-10.58.44-21.06.96-31.64,1.38-28.06,2.75-56.13,4.13-84.19.98-19.94,1.96-39.88,2.93-59.82l-18.5-25.59,87.46-5.75,3.23-35.47c-15.53-2.56-31.06-5.12-46.6-7.68-11.09-1.83-20.01-1.31-31.34-.46-17.41,1.3-34.98,2.02-52.34,3.91-10.79,1.18-21.66,5.3-32.13,8.06-16.46,4.34-32.92,8.69-49.38,13.03h0Z"/>
        <path class="cls-1" d="M908.33,306.56c20.19-1.42,40.38-2.84,60.58-4.26,15.49-1.09,31.03.51,46.53,1.28l18.29,18.95-87.54,5.76-43.82-20.75c1.99-.33,3.98-.65,5.96-.98Z"/>
        <path class="cls-1" d="M902.36,307.54l-.85,2.35-51.11,13.75-14.21-8.02-11.22-11.71c13.89-3.66,27.78-7.33,41.67-10.99,12.46-3.29,25.28-7.97,38.03-9.98,15.49-2.43,31.79-2.38,47.42-3.54,10.78-.81,21.71-2.77,32.41-1.01,17.49,2.88,34.98,5.76,52.47,8.65l-21.53,16.55c-16.75-.83-33.28-2.21-50.01-1.03-20.9,1.47-42.37,1.6-63.06,4.99h0Z"/>
        <path class="cls-1" d="M916.8,315.33l-15.29-5.44.85-2.35,43.82,20.75,18.52,25.62c-2.21,45.02-4.42,90.05-6.62,135.07-1.75,35.61-.64,70.76.27,106.44.57,22.29,1.14,44.58,1.71,66.87l-30.94-17.66c-.94-39.68-1.87-79.36-2.81-119.04-.79-33.38,1.56-66.96,2.88-100.29.81-20.58,1.62-41.16,2.44-61.74l-14.83-48.24h0Z"/>
        <path class="cls-1" d="M926.22,521.49l2.91,123.14-16.53,28.41-13.12,6.86c-1.09-50.22-2.18-100.43-3.27-150.65-.85-39.22.29-78.08,1.46-117.32.75-25,1.49-49.99,2.24-74.99l16.89-21.61,14.83,48.24c-1.66,42-3.83,84.01-4.97,126.02-.29,10.63-.29,21.27-.44,31.9h0Z"/>
        <polygon class="cls-1" points="899.47 679.9 912.6 673.04 911.67 688.58 899.47 679.9 899.47 679.9"/>
        <polygon class="cls-1" points="850.41 323.64 901.51 309.89 916.8 315.33 899.91 336.94 832.81 355.35 850.41 323.64 850.41 323.64"/>
        <polygon class="cls-1" points="824.97 303.91 836.19 315.62 850.41 323.64 832.81 355.35 821.34 315.55 824.97 303.91 824.97 303.91"/>
      </g>
      <polyline class="cls-2" points="495.65 665.2 509.2 674.91 512.24 701.33"/>
    </g>
  </g>
  <polygon points="736.9 1079.7 1082.48 1037.26 1082.48 1079.69 736.9 1079.7 736.9 1079.7"/>
  <polygon points="345.58 0 0 42.43 0 0 345.58 0 345.58 0"/>
  <g>
    <rect x="334.68" y="155.43" width="410.63" height="102.57"/>
    <g>
      <path class="cls-3" d="M357.49,225.37l-.23-13.5,3.6-13.88,6.52-11.43,6.67-7.06,8.21-3.38,6.83,3.91,3.07,6.52-1.23,7.44-2.3,5.22-4.99.61-1.69-3.76.92-3.6,4.22-9.2-.38-1.15h-10.97l-6.21,6.44-3.6,8.36-3.07,14.34.54,11.66,3.3,7.13,5.83.69,8.9-10.12,2.15-12.58,5.75-1.53.46.92-6.75,34.21-3.45,1.3-.92-.84,2.3-16.26-.92-.23-4.53,7.29-7.82,3.22-5.68-2.91-4.53-7.82Z"/>
      <path class="cls-3" d="M398.6,216.17l5.29-34.13-.92,12.5-.38-13.5,2.92-3.68,3.53-1.38.61,1.15-4.45,30.22-3.3,27-4.68,2.22-1.15-1.15,2.53-19.25Z"/>
      <path class="cls-3" d="M419.77,177.59l4.68-1.15,2.22,18.25,5.45,20.4h-1l12.66-21.02,7.98-17.87,3.45.84-8.97,56.83-4.68,2.15-.77-1.15,5.29-36.36-1.15-.46-12.12,20.71-4.83,1.23-5.98-21.32-1.46.31-4.6,36.05-2.45,1.53-1.07-.84,7.36-58.14Z"/>
      <path class="cls-3" d="M465.1,177.59l4.68-1.15,2.22,18.25,5.45,20.4h-1l12.66-21.02,7.98-17.87,3.45.84-8.97,56.83-4.68,2.15-.77-1.15,5.29-36.36-1.15-.46-12.12,20.71-4.83,1.23-5.98-21.32-1.46.31-4.6,36.05-2.45,1.53-1.07-.84,7.36-58.14Z"/>
      <path class="cls-3" d="M506.28,216.17l5.29-34.13-.92,12.5-.38-13.5,2.92-3.68,3.53-1.38.61,1.15-4.45,30.22-3.3,27-4.68,2.22-1.15-1.15,2.53-19.25Z"/>
      <path class="cls-3" d="M526.46,234.65l-3.83-7.52-2.22-10.81,1.99-12.27,4.52-12.35,9.28-12.66,7.67-2.84,7.21,3.76,2.68,6.83-.69,8.36-2.46,4.37-4.45,1-2.3-3.76,1.15-5.6,3.45-6.9-.61-1.3h-9.66l-5.29,4.6-5.06,10.28-1.38,11.27,1.15,12.66,3.76,7.75,4.83,1.3,4.91-.69,10.35-7.13v2.3l-10.43,9.2-6.98,2.91-7.59-2.76Z"/>
      <path class="cls-3" d="M563.19,185.95l-.31-6.98,6.98-3.14,1.07,1.38-5.37,29.91h2.15l6.14-1.61,8.13-12.66,3.83-16.11,2.3-1.46h2.99l1,2.07-2.61,9.74-9.51,15.34-6.6,5.6,1.38-2.22,7.98,26.38-3.14,1.07,11.5-10.28v2.3l-8.59,9.82-3.91,1.76-2.45-2.45-6.37-24.77-5.29,3.45-2.84,22.01-5.14,2.15-1.07-1.23,7.75-50.08Z"/>
      <path class="cls-3" d="M600.24,176.06l2.76,1.61.08,16.26,4.14,12.73,4.91.38,2.99-16.87,4.99-12.66,3.22-1.15,1.53,2.07-4.37,16.18-7.13,17.18,2.07-6.75-7.13,29.99-4.52,1.61-1.07-1.15,3.6-14.19,4.76-10.74.08,2.99-10.66-8.44-3.37-13.88-.08-13.81,3.22-1.38Z"/>
      <path class="cls-3" d="M648.1,234.65l-3.38-7.36-1.99-11.73,1.76-13.73.31,1.38-1.84-1.53-.08-.69,7.36-11.2-3.99,7.21,5.22-14.27,3.99,1.53-2.91.23,9.28-8.13h7.9l5.98,5.45,3.76,11.04-.84,14.65-3.38,12.12-6.44,11.27-9.43,6.29h-5.52l-5.75-2.53ZM663.44,230.59l6.06-4.68,4.68-12.66.61-14.42-3.3-10.97-5.98-5.22h-6.14l-8.51,8.82-3.61,14.19,1,14.42,3.61,7.82,5.14,2.84,6.44-.15Z"/>
      <path class="cls-3" d="M696.65,187.25l.84,1.3-7.36,46.48-4.91,1.38-.69-.77,6.21-47.4,5.91-1ZM684.99,181.2l1.76-3.38,8.82-1.76,10.28.69,7.67,3.99,3.22,6.9-.08,9.05-5.14,9.36-9.82,7.21,2.07-3.6,3.53,11.74,6.52,12.96v1.07l-3.83,1.69-3.45-1.46-5.22-12.42-2.53-13.27.23-.84,7.36-1.99,3.83-9.05.08-9.89-4.99-6.06-8.51-1.23-11.04,1.38-.77-1.07Z"/>
    </g>
  </g>
  <g>
    <rect x="253.33" y="842" width="573.33" height="102.57"/>
    <g>
      <path class="cls-3" d="M282.71,905.13l17.1-41.34,4.68-1.84,2.84.38,1.99,35.97-1.69,21.63-3.83,3.22-1.69-.61,1.3-22.32-1-28.53-2.99.38-12.04,32.83-5.52,16.95-1.84,2.76-1.46-1.69,4.14-17.79ZM298.28,897.85l14.57-1.38.46.77-1.69,2.61-28.92,8.44-4.07-3.68.38-1.3,19.25-5.45Z"/>
      <path class="cls-3" d="M324.13,921.17l-3.83-7.52-2.22-10.81,1.99-12.27,4.52-12.35,9.28-12.66,7.67-2.84,7.21,3.76,2.68,6.83-.69,8.36-2.45,4.37-4.45,1-2.3-3.76,1.15-5.6,3.45-6.9-.61-1.3h-9.66l-5.29,4.6-5.06,10.28-1.38,11.27,1.15,12.66,3.76,7.75,4.83,1.3,4.91-.69,10.35-7.13v2.3l-10.43,9.2-6.98,2.92-7.59-2.76Z"/>
      <path class="cls-3" d="M368.07,862.26l11.35.84,5.22,2.22-1.15,2.61-14.57-.54-14.57,1.76-1-3.53.77-1.69,13.96-1.69ZM370.6,865.48l.69,7.82-3.22,25.92-1.53,21.25-5.45,2.92-1.38-1.38,3.3-33.29,3.6-22.55,3.99-.69Z"/>
      <path class="cls-3" d="M391.77,863.56l2.45-.61,3.14,1.76-6.52,23.85-2.53,24.62,3.91,4.6,6.14-.15,13.27-22.86-1.92,5.6,1.46-16.11,3.6-12.73,3.45-7.44,2.38-1.15,1.69,2.07-.61,8.21-7.82,21.09,1.69-12.58-1,39.04-4.53,2.38-1-1,1.15-17.79-1.07-.23-5.06,12.35-7.21,6.67-9.13-.92-5.06-9.36,1.46-17.49,3.53-17.95,4.14-13.88Z"/>
      <path class="cls-3" d="M426.59,905.13l17.1-41.34,4.68-1.84,2.84.38,1.99,35.97-1.69,21.63-3.83,3.22-1.69-.61,1.3-22.32-1-28.53-2.99.38-12.04,32.83-5.52,16.95-1.84,2.76-1.46-1.69,4.14-17.79ZM442.16,897.85l14.57-1.38.46.77-1.69,2.61-28.92,8.44-4.07-3.68.38-1.3,19.25-5.45Z"/>
      <path class="cls-3" d="M474.76,862.64l1.3,1.15-5.37,29.15-2.99,26.77-1.07-1.3,17.33-3.83.77,1.07-.08,2.76-14.42,4.68-5.75-1.15-2.15-5.22,1.92-18.87,5.75-33.59,4.76-1.61Z"/>
      <path class="cls-3" d="M502.29,862.64l1.3,1.15-5.37,29.15-2.99,26.77-1.07-1.3,17.33-3.83.77,1.07-.08,2.76-14.42,4.68-5.75-1.15-2.15-5.22,1.92-18.87,5.75-33.59,4.76-1.61Z"/>
      <path class="cls-3" d="M519.94,862.57l2.76,1.61.08,16.26,4.14,12.73,4.91.38,2.99-16.87,4.99-12.66,3.22-1.15,1.54,2.07-4.37,16.18-7.13,17.18,2.07-6.75-7.13,29.99-4.52,1.61-1.07-1.15,3.6-14.19,4.76-10.74.08,2.99-10.66-8.44-3.37-13.88-.08-13.81,3.22-1.38Z"/>
      <path class="cls-3" d="M575.77,862.26l11.35.84,5.22,2.22-1.15,2.61-14.57-.54-14.57,1.76-1-3.53.77-1.69,13.96-1.69ZM578.3,865.48l.69,7.82-3.22,25.92-1.53,21.25-5.45,2.92-1.38-1.38,3.3-33.29,3.6-22.55,3.99-.69Z"/>
      <path class="cls-3" d="M589.04,894.17l7.75-25.54,7.13-4.91,8.82-1.15,6.67.77.92,1.61-1.99,4.07-6.75-.77-11.5,1.84,1.99-2.84-6.67,26.15-.15.61,12.88-5.68,5.37-.61,1.61,1.46-1.15,4.53-8.9.84-10.66,3.07.38-1.92-2.07,21.02,5.06.84,5.6-.69,10.2-4.99,1.15.84-1,4.83-7.29,4.06-9.36,1.76-6.6-2.53-3.38-5.6,1.92-21.09Z"/>
      <path class="cls-3" d="M635.14,873.76l.84,1.3-7.36,46.48-4.91,1.38-.69-.77,6.21-47.4,5.91-1ZM623.48,867.71l1.76-3.38,8.82-1.76,10.28.69,7.67,3.99,3.22,6.9-.08,9.05-5.14,9.36-9.82,7.21,2.07-3.61,3.53,11.74,6.52,12.96v1.07l-3.83,1.69-3.45-1.46-5.22-12.42-2.53-13.27.23-.84,7.36-1.99,3.84-9.05.08-9.89-4.99-6.06-8.51-1.23-11.04,1.38-.77-1.07Z"/>
      <path class="cls-3" d="M673.03,873.76l.84,1.3-7.36,46.48-4.91,1.38-.69-.77,6.21-47.4,5.91-1ZM661.37,867.71l1.76-3.38,8.82-1.76,10.28.69,7.67,3.99,3.22,6.9-.08,9.05-5.14,9.36-9.82,7.21,2.07-3.61,3.53,11.74,6.52,12.96v1.07l-3.83,1.69-3.45-1.46-5.22-12.42-2.53-13.27.23-.84,7.36-1.99,3.83-9.05.08-9.89-4.99-6.06-8.51-1.23-11.04,1.38-.77-1.07Z"/>
      <path class="cls-3" d="M699.95,902.68l5.29-34.13-.92,12.5-.38-13.5,2.91-3.68,3.53-1.38.61,1.15-4.45,30.22-3.3,27-4.68,2.22-1.15-1.15,2.53-19.25Z"/>
      <path class="cls-3" d="M719.2,897.24l.61.84-5.68,1.07-.54-2.61.61-1,5.83-1.99-1,2.15,4.06-25.62,7.06-5.68,12.04-1.07,4.37,1.46-.92,4.53-7.44-.92-10.89,1.61,1-.84-3.22,24.39-.54-.84,15.95-3.99,1.61,1.07-1.15,4.68-16.49,2.68.38-1.38-2.38,25.16-4.22,1.69-.92-.92,1.84-24.47Z"/>
      <path class="cls-3" d="M748.65,902.68l5.29-34.13-.92,12.5-.38-13.5,2.91-3.68,3.53-1.38.61,1.15-4.45,30.22-3.3,27-4.68,2.22-1.15-1.15,2.53-19.25Z"/>
      <path class="cls-3" d="M768.13,921.17l-3.83-7.52-2.22-10.81,1.99-12.27,4.53-12.35,9.28-12.66,7.67-2.84,7.21,3.76,2.69,6.83-.69,8.36-2.45,4.37-4.45,1-2.3-3.76,1.15-5.6,3.45-6.9-.61-1.3h-9.67l-5.29,4.6-5.06,10.28-1.38,11.27,1.15,12.66,3.76,7.75,4.83,1.3,4.91-.69,10.36-7.13v2.3l-10.43,9.2-6.98,2.92-7.59-2.76Z"/>
    </g>
  </g>
</svg>