<?xml version="1.0" encoding="UTF-8"?>
<svg id="Layer_1" data-name="Layer 1" xmlns="http://www.w3.org/2000/svg" viewBox="0 0 1080 1080">
  <defs>
    <style>
      .cls-1 {
        fill: #fff;
      }
    </style>
  </defs>
  <g>
    <path d="M142.15,87.45l7.27-4.87,10.85,4.87-.17.68h-17.61l-.34-.68ZM152.49,31.9l1.2,7.78-5.9-10.94.26-.43h5.98l14.19,49.32h1.28l13.68-49.32h5.73l.17.43-5.73,11.03,1.45-7.27,5.04,55.64h-3.5l-3.93-44.36h-1.28l-12.39,44.79h-.94l-12.82-44.79h-1.28l-3.33,44.36h-2.22l4.36-56.24ZM177.96,87.45l10.26-4.87,7.52,4.87-.34.68h-17.18l-.26-.68Z"/>
    <path d="M209.07,86.86c-2.17-1.42-4.05-3.49-5.64-6.2-1.6-2.71-2.82-6-3.68-9.87-.85-3.87-1.28-8.26-1.28-13.16,0-4.44.43-8.5,1.28-12.18.85-3.68,2.08-6.87,3.68-9.57,1.59-2.71,3.48-4.79,5.64-6.24,2.17-1.45,4.53-2.18,7.09-2.18s5.01.73,7.18,2.18c2.17,1.45,4.05,3.53,5.64,6.24,1.59,2.71,2.82,5.9,3.68,9.57.85,3.68,1.28,7.74,1.28,12.18,0,4.9-.43,9.29-1.28,13.16-.85,3.88-2.08,7.17-3.68,9.87-1.6,2.71-3.48,4.77-5.64,6.2-2.17,1.42-4.56,2.14-7.18,2.14s-4.93-.71-7.09-2.14ZM203.99,72.92c.83,4.39,2.22,7.81,4.19,10.26,1.97,2.45,4.63,3.68,7.99,3.68s6.11-1.22,8.08-3.68c1.97-2.45,3.36-5.87,4.19-10.26.83-4.39,1.24-9.49,1.24-15.3,0-5.18-.41-9.9-1.24-14.15-.83-4.24-2.22-7.62-4.19-10.13-1.97-2.51-4.66-3.76-8.08-3.76s-6.03,1.25-7.99,3.76c-1.97,2.51-3.36,5.88-4.19,10.13-.83,4.25-1.24,8.96-1.24,14.15,0,5.81.41,10.91,1.24,15.3Z"/>
    <path d="M258.9,87.45l-.17.68h-19.92l-.17-.68,8.55-5.73,11.71,5.73ZM246.34,88.14v-52.48l1.28,3.76-8.21-10.68.17-.43h5.98l26.41,49.75-3.25-1.62h3.33V28.31h2.14v60.26h-.51l-25.47-48.12,3.16,2.39h-2.91v45.3h-2.14ZM261.72,28.82l.17-.51h18.63l.17.51-7.44,5.04-11.54-5.04Z"/>
    <path d="M296,86.86c-2.17-1.42-4.05-3.49-5.64-6.2-1.6-2.71-2.82-6-3.68-9.87-.85-3.87-1.28-8.26-1.28-13.16,0-4.44.43-8.5,1.28-12.18.85-3.68,2.08-6.87,3.68-9.57,1.59-2.71,3.48-4.79,5.64-6.24,2.17-1.45,4.53-2.18,7.09-2.18s5.01.73,7.18,2.18c2.17,1.45,4.05,3.53,5.64,6.24,1.59,2.71,2.82,5.9,3.68,9.57.85,3.68,1.28,7.74,1.28,12.18,0,4.9-.43,9.29-1.28,13.16-.85,3.88-2.08,7.17-3.68,9.87-1.6,2.71-3.48,4.77-5.64,6.2-2.17,1.42-4.56,2.14-7.18,2.14s-4.93-.71-7.09-2.14ZM290.91,72.92c.83,4.39,2.22,7.81,4.19,10.26,1.97,2.45,4.63,3.68,7.99,3.68s6.11-1.22,8.08-3.68c1.97-2.45,3.36-5.87,4.19-10.26.83-4.39,1.24-9.49,1.24-15.3,0-5.18-.41-9.9-1.24-14.15-.83-4.24-2.22-7.62-4.19-10.13-1.97-2.51-4.66-3.76-8.08-3.76s-6.03,1.25-7.99,3.76c-1.97,2.51-3.36,5.88-4.19,10.13-.83,4.25-1.24,8.96-1.24,14.15,0,5.81.41,10.91,1.24,15.3Z"/>
    <path d="M345.83,87.45l-.17.68h-19.92l-.17-.68,8.55-5.73,11.71,5.73ZM333.26,88.14v-52.48l1.28,3.76-8.21-10.68.17-.43h5.98l26.41,49.75-3.25-1.62h3.33V28.31h2.14v60.26h-.51l-25.47-48.12,3.16,2.39h-2.91v45.3h-2.14ZM348.65,28.82l.17-.51h18.63l.17.51-7.44,5.04-11.54-5.04Z"/>
    <path d="M369.25,28.31h17.52l.17.51-10.85,5.3-7.01-5.3.17-.51ZM381.47,86.56c-2.34-1.62-4.12-3.83-5.34-6.62-1.23-2.79-1.84-5.87-1.84-9.23V28.31h3.42v40.69c0,5.64,1.07,9.89,3.21,12.74,2.14,2.85,5.4,4.27,9.79,4.27,3.76,0,6.72-1.21,8.89-3.63,2.16-2.42,3.25-6.25,3.25-11.5V28.31h2.14v41.03c0,6.67-1.4,11.6-4.19,14.79-2.79,3.19-6.47,4.81-11.03,4.87-3.19,0-5.96-.81-8.29-2.44ZM393.35,28.31h16.84l.17.51-6.58,5.3-10.6-5.3.17-.51Z"/>
    <path d="M424.29,86.47c-2-1.68-3.65-3.92-4.96-6.71-1.31-2.79-2.29-5.9-2.95-9.32-.66-3.42-.98-6.87-.98-10.34,0-4.96.37-9.43,1.11-13.42.74-3.99,1.87-7.42,3.38-10.3,1.51-2.88,3.46-5.09,5.85-6.62,2.39-1.54,5.21-2.31,8.46-2.31,1.77,0,3.45.1,5.04.3,1.59.2,3.19.53,4.79.98v15.81l-.77.26-6.41-16.15,3.42.94h-7.09c-2.73,0-5.17.83-7.31,2.48-2.14,1.65-3.8,4.54-5,8.68-1.2,4.13-1.79,9.9-1.79,17.31,0,9.29,1.12,16.31,3.38,21.07,2.25,4.76,5.37,7.14,9.36,7.14,3.7,0,6.54-1.55,8.5-4.66,1.97-3.1,3.58-7.88,4.83-14.32l1.28.26c-1.08,7.24-2.89,12.62-5.43,16.15-2.54,3.53-5.74,5.3-9.62,5.3-2.73,0-5.1-.84-7.09-2.52Z"/>
    <path d="M450.27,87.45l8.55-5.3.85,5.98h-9.06l-.34-.68ZM450.87,28.31h18.55l.17.51-10.09,5.04-8.8-5.04.17-.51ZM458.4,28.31h3.42v57.69h14.19l5.81-15.73,1.03.17-.68,17.69h-23.76V28.31Z"/>
    <path d="M487.2,87.45l8.55-5.3.85,5.98h-9.06l-.34-.68ZM488.05,28.31h8.97l-1.28,5.56-8.03-4.87.34-.68ZM495.32,28.31h23.85l.94,15.21-.77.17-6.92-13.42h-13.68v25.56h9.57l3.25-6.67h.94l2.14,18.38-.68.17-5.64-9.74h-9.57v28.04h15.73l6.75-15.73.77.17-.85,17.69h-25.81V28.31Z"/>
    <path d="M524.89,87.45l6.84-4.87,8.97,4.87-.34.68h-15.13l-.34-.68ZM543.44,33.69l-.34,2.56-4.02-7.52.26-.43h6.67l15.38,59.83h-3.76l-12.31-48.72h-1.28l-12.48,48.72h-2.31l14.19-54.45ZM535.06,69.25h19.74v2.14h-19.74v-2.14ZM548.65,87.45l9.92-4.87,7.01,4.87-.34.68h-16.24l-.34-.68Z"/>
    <path d="M567.46,87.45l9.15-4.87,10.09,4.87-.34.68h-18.55l-.34-.68ZM568.31,28.31h8.46l-.85,5.56-7.95-4.87.34-.68ZM575.49,28.31h8.03c3.7,0,6.94.64,9.7,1.92,2.76,1.28,4.92,3.11,6.45,5.47,1.54,2.37,2.31,5.14,2.31,8.33,0,3.36-.76,6.37-2.26,9.02-1.51,2.65-3.66,4.72-6.45,6.2-2.79,1.48-6.1,2.22-9.92,2.22h-6.33v-2.14h5.47c5.47,0,9.44-1.08,11.92-3.25,2.48-2.17,3.72-5.9,3.72-11.2,0-3.59-.51-6.44-1.54-8.55-1.03-2.11-2.72-3.62-5.09-4.53-2.37-.91-5.57-1.37-9.62-1.37h-2.99v57.69h-3.42V28.31ZM590.36,59.76c.68,3.08,1.4,5.87,2.14,8.38.74,2.51,1.64,4.86,2.69,7.05,1.05,2.19,2.44,4.39,4.15,6.58,1.71,2.19,3.87,4.57,6.5,7.14l-.6.94c-3.82-2.68-6.94-5.43-9.36-8.25-2.42-2.82-4.33-5.93-5.73-9.32-1.4-3.39-2.52-7.25-3.38-11.58l3.59-.94Z"/>
    <path d="M143,161.71l8.97-4.87,10.09,4.87-.34.68h-18.38l-.34-.68ZM143.86,102.57h8.29l-.85,5.56-7.78-4.87.34-.68ZM150.87,102.57h6.24c4.05,0,7.52.71,10.43,2.14,2.91,1.42,5.16,3.52,6.75,6.28,1.59,2.76,2.39,6.17,2.39,10.21,0,3.36-.54,6.3-1.62,8.8-1.08,2.51-2.54,4.59-4.36,6.24-1.82,1.65-3.9,2.89-6.24,3.72-2.34.83-4.76,1.24-7.27,1.24h-4.19v-2.14h5.64c2.79,0,5.24-.63,7.35-1.88,2.11-1.25,3.76-3.11,4.96-5.56,1.2-2.45,1.79-5.47,1.79-9.06,0-4.27-.56-7.72-1.67-10.34-1.11-2.62-2.76-4.53-4.96-5.73-2.19-1.2-4.92-1.79-8.16-1.79h-3.68v57.69h-3.42v-59.83Z"/>
    <path d="M192.92,161.11c-2.17-1.42-4.05-3.49-5.64-6.2-1.6-2.71-2.82-6-3.68-9.87-.85-3.87-1.28-8.26-1.28-13.16,0-4.44.43-8.5,1.28-12.18.85-3.68,2.08-6.87,3.68-9.57,1.59-2.71,3.48-4.79,5.64-6.24,2.17-1.45,4.53-2.18,7.09-2.18s5.01.73,7.18,2.18c2.17,1.45,4.05,3.53,5.64,6.24,1.59,2.71,2.82,5.9,3.68,9.57.85,3.68,1.28,7.74,1.28,12.18,0,4.9-.43,9.29-1.28,13.16-.85,3.88-2.08,7.17-3.68,9.87-1.6,2.71-3.48,4.77-5.64,6.2-2.17,1.42-4.56,2.14-7.18,2.14s-4.93-.71-7.09-2.14ZM187.83,147.18c.83,4.39,2.22,7.81,4.19,10.26,1.97,2.45,4.63,3.68,7.99,3.68s6.11-1.22,8.08-3.68c1.97-2.45,3.36-5.87,4.19-10.26.83-4.39,1.24-9.49,1.24-15.3,0-5.18-.41-9.9-1.24-14.15-.83-4.24-2.22-7.62-4.19-10.13-1.97-2.51-4.66-3.76-8.08-3.76s-6.03,1.25-7.99,3.76c-1.97,2.51-3.36,5.88-4.19,10.13-.83,4.25-1.24,8.96-1.24,14.15,0,5.81.41,10.91,1.24,15.3Z"/>
    <path d="M222.06,161.71l8.55-5.3.85,5.98h-9.06l-.34-.68ZM222.66,102.57h18.55l.17.51-10.09,5.04-8.8-5.04.17-.51ZM230.19,102.57h3.42v57.69h14.19l5.81-15.73,1.03.17-.68,17.69h-23.76v-59.83Z"/>
    <path d="M254.2,102.57h13.85l.26.43-7.86,4.79-6.41-4.79.17-.43ZM260.95,102.57l10.68,30.94h1.28l10.26-30.94h2.48l-13.25,39.4h-1.2l-14.02-39.4h3.76ZM263.6,161.71l8.38-4.87,8.38,4.87-.34.68h-16.07l-.34-.68ZM270.19,136.75h3.42v25.64h-3.42v-25.64ZM276.51,102.57h12.39l.26.43-6.33,4.79-6.5-4.79.17-.43Z"/>
    <path d="M294.12,143.17l1.2-.17,6.75,19.06-3.85-1.11,6.84.17c3.3.06,5.84-.91,7.61-2.91,1.77-1.99,2.65-4.62,2.65-7.86,0-1.99-.2-3.68-.6-5.04-.4-1.37-1.07-2.69-2.01-3.97-.94-1.28-2.24-2.72-3.89-4.32l-6.67-6.5c-2.45-2.45-4.37-4.97-5.77-7.56-1.4-2.59-2.09-5.4-2.09-8.42,0-2.51.44-4.71,1.32-6.62.88-1.91,2.28-3.42,4.19-4.53,1.91-1.11,4.34-1.67,7.31-1.67,1.65,0,3.1.1,4.36.3,1.25.2,2.68.53,4.27.98v14.1l-.77.26-6.67-14.27,3.33.6h-6.15c-2.39,0-4.37.85-5.94,2.56-1.57,1.71-2.35,4.02-2.35,6.92s.47,5.27,1.41,7.27c.94,2,2.44,3.99,4.49,5.98l7.78,7.52c2.68,2.51,4.63,4.91,5.85,7.22,1.22,2.31,1.84,5.03,1.84,8.16,0,2.68-.57,5.07-1.71,7.18-1.14,2.11-2.66,3.76-4.57,4.96-1.91,1.2-4.03,1.79-6.37,1.79-2.05,0-4.12-.16-6.2-.47-2.08-.31-3.95-.73-5.6-1.24v-18.38Z"/>
    <path d="M322.58,161.71l8.55-5.3.85,5.98h-9.06l-.34-.68ZM323.43,102.57h8.97l-1.28,5.56-8.03-4.87.34-.68ZM330.7,102.57h23.85l.94,15.21-.77.17-6.92-13.42h-13.68v25.56h9.57l3.25-6.67h.94l2.14,18.38-.68.17-5.64-9.74h-9.57v28.04h15.73l6.75-15.73.77.17-.85,17.69h-25.81v-59.83Z"/>
    <path d="M360.61,161.71l7.27-4.87,10.85,4.87-.17.68h-17.61l-.34-.68ZM370.96,106.16l1.2,7.78-5.9-10.94.26-.43h5.98l14.19,49.32h1.28l13.68-49.32h5.73l.17.43-5.73,11.03,1.45-7.27,5.04,55.64h-3.5l-3.93-44.36h-1.28l-12.39,44.79h-.94l-12.82-44.79h-1.28l-3.33,44.36h-2.22l4.36-56.24ZM396.43,161.71l10.26-4.87,7.52,4.87-.34.68h-17.18l-.26-.68Z"/>
    <path d="M415.74,161.71l6.84-4.87,8.97,4.87-.34.68h-15.13l-.34-.68ZM434.29,107.95l-.34,2.56-4.02-7.52.26-.43h6.67l15.39,59.83h-3.76l-12.31-48.72h-1.28l-12.48,48.72h-2.31l14.19-54.45ZM425.91,143.51h19.74v2.14h-19.74v-2.14ZM439.5,161.71l9.92-4.87,7.01,4.87-.34.68h-16.24l-.34-.68Z"/>
    <path d="M478.65,161.71l-.17.68h-19.92l-.17-.68,8.55-5.73,11.71,5.73ZM466.09,162.4v-52.48l1.28,3.76-8.21-10.68.17-.43h5.98l26.41,49.75-3.25-1.62h3.33v-48.12h2.14v60.26h-.51l-25.47-48.12,3.16,2.39h-2.91v45.3h-2.14ZM481.47,103.08l.17-.51h18.63l.17.51-7.44,5.04-11.54-5.04Z"/>
    <path d="M502.41,118.81l1.54-16.24h33.25l1.54,16.24-.94.26-6.33-14.36h-21.8l-6.33,14.36-.94-.26ZM510.45,161.71l10.09-5.3,10.09,5.3-.34.68h-19.49l-.34-.68ZM518.82,102.57h3.42v59.83h-3.42v-59.83Z"/>
    <path d="M541.64,161.71l9.23-4.87,9.23,4.87-.34.68h-17.78l-.34-.68ZM542.24,102.57h17.27l.17.51-8.8,5.04-8.8-5.04.17-.51ZM549.16,102.57h3.42v59.83h-3.42v-59.83Z"/>
    <path d="M574.12,160.73c-2-1.68-3.65-3.92-4.96-6.71-1.31-2.79-2.29-5.9-2.95-9.32-.66-3.42-.98-6.87-.98-10.34,0-4.96.37-9.43,1.11-13.42.74-3.99,1.87-7.42,3.38-10.3,1.51-2.88,3.46-5.09,5.85-6.62,2.39-1.54,5.21-2.31,8.46-2.31,1.77,0,3.45.1,5.04.3,1.59.2,3.19.53,4.79.98v15.81l-.77.26-6.41-16.15,3.42.94h-7.09c-2.74,0-5.17.83-7.31,2.48-2.14,1.65-3.8,4.54-5,8.68-1.2,4.13-1.79,9.9-1.79,17.31,0,9.29,1.12,16.31,3.38,21.07,2.25,4.76,5.37,7.14,9.36,7.14,3.7,0,6.54-1.55,8.5-4.66,1.97-3.1,3.58-7.88,4.83-14.32l1.28.26c-1.08,7.24-2.89,12.62-5.43,16.15-2.54,3.53-5.74,5.3-9.62,5.3-2.74,0-5.1-.84-7.09-2.52Z"/>
    <path d="M602.24,143.17l1.2-.17,6.75,19.06-3.85-1.11,6.84.17c3.3.06,5.84-.91,7.61-2.91,1.77-1.99,2.65-4.62,2.65-7.86,0-1.99-.2-3.68-.6-5.04-.4-1.37-1.07-2.69-2.01-3.97-.94-1.28-2.24-2.72-3.89-4.32l-6.67-6.5c-2.45-2.45-4.37-4.97-5.77-7.56-1.4-2.59-2.09-5.4-2.09-8.42,0-2.51.44-4.71,1.33-6.62.88-1.91,2.28-3.42,4.19-4.53,1.91-1.11,4.34-1.67,7.31-1.67,1.65,0,3.11.1,4.36.3,1.25.2,2.68.53,4.27.98v14.1l-.77.26-6.67-14.27,3.33.6h-6.15c-2.39,0-4.37.85-5.94,2.56-1.57,1.71-2.35,4.02-2.35,6.92s.47,5.27,1.41,7.27c.94,2,2.44,3.99,4.49,5.98l7.78,7.52c2.68,2.51,4.63,4.91,5.86,7.22,1.22,2.31,1.84,5.03,1.84,8.16,0,2.68-.57,5.07-1.71,7.18-1.14,2.11-2.66,3.76-4.57,4.96-1.91,1.2-4.03,1.79-6.37,1.79-2.05,0-4.12-.16-6.2-.47-2.08-.31-3.95-.73-5.6-1.24v-18.38Z"/>
    <path d="M141.72,224.63l2.91-17.86h38.63l2.91,17.86-1.37.51-9.74-14.1h-22.22l-9.74,14.1-1.37-.51ZM153.35,265.92l10.51-12.56,10.51,12.56-.34.68h-20.34l-.34-.68ZM159.24,206.77h9.4v59.83h-9.4v-59.83Z"/>
    <path d="M188.48,265.92l9.23-12.99,10.17,12.99-.34.68h-18.72l-.34-.68ZM189.07,206.77h17.69l.34.68-9.4,11.28-8.97-11.28.34-.68ZM193.43,206.77h9.4v25.98h17.52v-25.98h9.4v59.83h-9.4v-29.15h-17.52v29.15h-9.4v-59.83ZM215.4,265.92l10.09-12.99,9.23,12.99-.34.68h-18.63l-.34-.68ZM216.42,206.77h17.69l.34.68-8.97,11.28-9.4-11.28.34-.68Z"/>
    <path d="M239.25,265.92l5.81-7.35,1.28,8.03h-6.75l-.34-.68ZM239.67,206.77h6.67l-1.28,7.09-5.73-6.41.34-.68ZM244.63,206.77h30.09l1.54,18.03-1.45.34-8.12-14.1h-12.65v21.71h8.55l3.68-5.81h1.2l2.99,18.29-1.2.77-6.67-8.97h-8.55v25.3h15.3l7.52-14.7,1.45.43-1.71,18.55h-31.97v-59.83Z"/>
    <path d="M296.17,264.8c-2.62-1.77-4.86-4.13-6.71-7.09-1.85-2.96-3.28-6.3-4.27-10-1-3.7-1.5-7.46-1.5-11.28,0-4.05.5-7.89,1.5-11.54,1-3.65,2.42-6.89,4.27-9.74,1.85-2.85,4.09-5.1,6.71-6.75,2.62-1.65,5.56-2.48,8.8-2.48s6.18.83,8.8,2.48c2.62,1.65,4.89,3.9,6.8,6.75,1.91,2.85,3.38,6.1,4.4,9.74,1.03,3.65,1.54,7.49,1.54,11.54,0,3.82-.51,7.58-1.54,11.28-1.03,3.7-2.49,7.04-4.4,10-1.91,2.96-4.17,5.33-6.8,7.09-2.62,1.77-5.56,2.65-8.8,2.65s-6.18-.88-8.8-2.65ZM295.19,251.3c.83,3.88,2.05,6.75,3.68,8.63s3.66,2.82,6.11,2.82,4.67-.94,6.33-2.82c1.65-1.88,2.89-4.76,3.72-8.63.83-3.87,1.24-8.83,1.24-14.87s-.41-11.04-1.24-14.83c-.83-3.79-2.07-6.57-3.72-8.33-1.65-1.77-3.76-2.65-6.33-2.65s-4.49.88-6.11,2.65c-1.62,1.77-2.85,4.54-3.68,8.33-.83,3.79-1.24,8.73-1.24,14.83s.41,11,1.24,14.87Z"/>
    <path d="M329.42,265.92l9.23-12.99,10.94,12.99-.34.68h-19.49l-.34-.68ZM329.85,206.77h6.67l-1.28,6.84-5.73-6.15.34-.68ZM334.8,206.77h16.5c3.99,0,7.38.58,10.17,1.75,2.79,1.17,4.93,2.92,6.41,5.26,1.48,2.34,2.22,5.24,2.22,8.72s-.84,6.62-2.52,9.27c-1.68,2.65-4.07,4.69-7.18,6.11-3.11,1.42-6.82,2.14-11.15,2.14h-7.61v-4.02h6.75c4.39,0,7.52-1.17,9.4-3.5,1.88-2.34,2.82-5.67,2.82-10,0-2.62-.4-4.79-1.2-6.5-.8-1.71-2.02-2.99-3.68-3.85-1.65-.85-3.76-1.28-6.33-1.28h-5.21v55.73h-9.4v-59.83ZM357.28,236c1.08,3.08,2.12,5.96,3.12,8.63,1,2.68,2.08,5.29,3.25,7.82,1.17,2.54,2.49,5.1,3.97,7.69,1.48,2.59,3.22,5.34,5.21,8.25l-.77,1.03c-5.07-2.05-9.13-4.47-12.18-7.27-3.05-2.79-5.46-6.14-7.22-10.04-1.77-3.9-3.36-8.5-4.79-13.8l9.4-2.31Z"/>
    <path d="M376,265.92l5.81-7.35,1.28,8.03h-6.75l-.34-.68ZM376.43,206.77h6.67l-1.28,7.09-5.73-6.41.34-.68ZM381.39,206.77h30.09l1.54,18.03-1.45.34-8.12-14.1h-12.65v21.71h8.55l3.68-5.81h1.2l2.99,18.29-1.2.77-6.67-8.97h-8.55v25.3h15.3l7.52-14.7,1.45.43-1.71,18.55h-31.97v-59.83Z"/>
    <path d="M417.97,224.63l2.91-17.86h38.63l2.91,17.86-1.37.51-9.74-14.1h-22.22l-9.74,14.1-1.37-.51ZM429.59,265.92l10.51-12.56,10.51,12.56-.34.68h-20.34l-.34-.68ZM435.49,206.77h9.4v59.83h-9.4v-59.83Z"/>
    <path d="M465.92,265.92l8.8-14.27,8.8,14.27-.34.68h-16.92l-.34-.68ZM466.52,206.77h16.41l.34.68-8.55,12.99-8.55-12.99.34-.68ZM470.02,206.77h9.4v59.83h-9.4v-59.83Z"/>
    <path d="M501.65,265.45c-2.34-1.34-4.4-3.26-6.2-5.77-1.79-2.51-3.21-5.54-4.23-9.1-1.03-3.56-1.54-7.53-1.54-11.92s.41-8.46,1.24-12.39c.83-3.93,2.17-7.42,4.02-10.47,1.85-3.05,4.27-5.46,7.27-7.22,2.99-1.77,6.65-2.65,10.98-2.65,1.94,0,3.66.07,5.17.21,1.51.14,3.06.36,4.66.64v18.46l-1.45.34-8.97-17.69,3.85,2.31h-4.19c-2.96,0-5.38.91-7.27,2.73-1.88,1.82-3.26,4.66-4.15,8.5-.88,3.85-1.32,8.82-1.32,14.92,0,8.15,1.08,14.26,3.25,18.33,2.17,4.07,5.13,6.11,8.89,6.11,3.36,0,5.95-1.22,7.78-3.68,1.82-2.45,3.36-6.04,4.62-10.77l1.88.51c-.91,6.9-2.81,12.05-5.68,15.47-2.88,3.42-6.6,5.13-11.15,5.13-2.62,0-5.1-.67-7.44-2.01Z"/>
    <path d="M527.54,265.92l7.86-8.8,9.66,8.8-.34.68h-16.84l-.34-.68ZM547.2,211.13l-.26,5.73-3.85-9.66.26-.43h11.79l17.35,59.83h-10.34l-12.65-46.33h-.51l-11.79,46.33h-5.98l15.98-55.47ZM539.08,246.51h21.8v4.7h-21.8v-4.7ZM555.07,265.92l9.66-10.86,9.83,10.86-.34.68h-18.8l-.34-.68Z"/>
    <path d="M577.12,265.92l5.81-7.69,1.28,8.38h-6.75l-.34-.68ZM578.31,206.77h19.06l.34.68-11.79,10.51-7.95-10.51.34-.68ZM582.5,206.77h9.4v55.56h13.25l8.03-18.12,1.45.43-1.2,21.97h-30.94v-59.83Z"/>
    <path d="M142.58,340.18l9.23-12.99,10.09,12.99-.34.68h-18.63l-.34-.68ZM143,281.03h6.67l-1.28,6.84-5.73-6.15.34-.68ZM147.96,281.03h12.99c3.25,0,6.33.58,9.23,1.75,2.91,1.17,5.27,3.11,7.09,5.81,1.82,2.71,2.73,6.34,2.73,10.9,0,3.19-.57,5.94-1.71,8.25-1.14,2.31-2.66,4.2-4.57,5.68-1.91,1.48-4.03,2.58-6.37,3.29-2.34.71-4.7,1.07-7.09,1.07h-4.7v-4.1h4.02c2.05,0,3.97-.41,5.77-1.24,1.79-.83,3.23-2.28,4.32-4.36,1.08-2.08,1.62-4.94,1.62-8.59s-.54-6.5-1.62-8.55c-1.08-2.05-2.52-3.5-4.32-4.36-1.79-.85-3.72-1.28-5.77-1.28h-2.22v55.56h-9.4v-59.83Z"/>
    <path d="M181.55,340.18l9.23-12.99,10.94,12.99-.34.68h-19.49l-.34-.68ZM181.98,281.03h6.67l-1.28,6.84-5.73-6.15.34-.68ZM186.94,281.03h16.5c3.99,0,7.38.58,10.17,1.75,2.79,1.17,4.93,2.92,6.41,5.26,1.48,2.34,2.22,5.24,2.22,8.72s-.84,6.62-2.52,9.27c-1.68,2.65-4.07,4.69-7.18,6.11-3.11,1.42-6.82,2.14-11.15,2.14h-7.61v-4.02h6.75c4.39,0,7.52-1.17,9.4-3.5,1.88-2.34,2.82-5.67,2.82-10,0-2.62-.4-4.79-1.2-6.5-.8-1.71-2.02-2.99-3.68-3.85-1.65-.85-3.76-1.28-6.33-1.28h-5.21v55.73h-9.4v-59.83ZM209.42,310.26c1.08,3.08,2.12,5.96,3.12,8.63,1,2.68,2.08,5.29,3.25,7.82,1.17,2.54,2.49,5.1,3.97,7.69,1.48,2.59,3.22,5.34,5.21,8.25l-.77,1.03c-5.07-2.05-9.13-4.47-12.18-7.27-3.05-2.79-5.46-6.14-7.22-10.04-1.77-3.9-3.36-8.5-4.79-13.8l9.4-2.31Z"/>
    <path d="M227.71,340.18l7.86-8.8,9.66,8.8-.34.68h-16.84l-.34-.68ZM247.36,285.39l-.26,5.73-3.85-9.66.26-.43h11.79l17.35,59.83h-10.34l-12.65-46.33h-.51l-11.8,46.33h-5.98l15.98-55.47ZM239.24,320.77h21.8v4.7h-21.8v-4.7ZM255.23,340.18l9.66-10.86,9.83,10.86-.34.68h-18.8l-.34-.68Z"/>
    <path d="M315.14,334.02l5.21,1.54v1.2c-2.45,1.14-4.82,2.08-7.09,2.82-2.28.74-4.5,1.28-6.67,1.62-2.17.34-4.3.51-6.41.51-3.93,0-7.34-.8-10.21-2.39-2.88-1.59-5.24-3.79-7.09-6.58-1.85-2.79-3.22-6.01-4.1-9.66-.88-3.65-1.32-7.55-1.32-11.71,0-4.44.53-8.56,1.58-12.35,1.05-3.79,2.58-7.09,4.57-9.92,1.99-2.82,4.4-5.01,7.22-6.58,2.82-1.57,6-2.35,9.53-2.35,2.17,0,4.16.09,5.98.26,1.82.17,3.7.46,5.64.85v18.21l-1.62.43-8.21-17.01,5.21,1.54h-7.27c-2.39,0-4.4.5-6.03,1.5-1.62,1-2.89,2.56-3.8,4.7-.91,2.14-1.57,4.91-1.97,8.33-.4,3.42-.6,7.55-.6,12.39,0,6.61.47,11.78,1.41,15.51.94,3.73,2.35,6.37,4.23,7.91,1.88,1.54,4.16,2.31,6.84,2.31,1.99,0,3.82-.11,5.47-.34,1.65-.23,3.48-.6,5.47-1.11l-4.96,2.56v-25.39l-10.34-3.25.17-2.05h19.15v26.5Z"/>
    <path d="M323.18,340.18l8.12-10.17,10.17,10.17-.34.68h-17.61l-.34-.68ZM332.84,285.13l.6,6.15-5.47-9.57.43-.68h13.59l11.28,40.94h.43l10.17-40.94h12.22l.43.77-5.47,9.4,1.62-7.35,5.98,57.01h-9.4l-3.93-43.42h-.43l-11.28,43.42h-4.27l-12.22-43.42h-.43l-3.08,43.42h-5.56l4.79-55.73ZM362.84,340.18l10.6-11.97,9.83,11.97-.34.68h-19.74l-.34-.68Z"/>
    <path d="M385.91,340.18l7.86-8.8,9.66,8.8-.34.68h-16.84l-.34-.68ZM405.57,285.39l-.26,5.73-3.85-9.66.26-.43h11.79l17.35,59.83h-10.34l-12.65-46.33h-.51l-11.8,46.33h-5.98l15.98-55.47ZM397.45,320.77h21.8v4.7h-21.8v-4.7ZM413.44,340.18l9.66-10.86,9.83,10.86-.34.68h-18.8l-.34-.68Z"/>
    <path d="M430.62,298.89l2.91-17.86h38.63l2.91,17.86-1.37.51-9.74-14.1h-22.22l-9.74,14.1-1.37-.51ZM442.24,340.18l10.51-12.56,10.51,12.56-.34.68h-20.34l-.34-.68ZM448.14,281.03h9.4v59.83h-9.4v-59.83Z"/>
    <path d="M478.74,340.18l8.8-14.27,8.8,14.27-.34.68h-16.92l-.34-.68ZM479.34,281.03h16.41l.34.68-8.55,12.99-8.55-12.99.34-.68ZM482.84,281.03h9.4v59.83h-9.4v-59.83Z"/>
    <path d="M501.9,319.75l1.45-.43,9.15,19.66-4.96-1.71,7.95.17c3.48.06,5.97-.58,7.48-1.92,1.51-1.34,2.27-3.46,2.27-6.37,0-1.48-.19-2.76-.56-3.85-.37-1.08-.97-2.12-1.79-3.12-.83-1-1.95-2.04-3.38-3.12l-7.86-6.24c-2.79-2.17-5.04-4.73-6.75-7.69-1.71-2.96-2.56-6.04-2.56-9.23,0-2.96.54-5.63,1.62-7.99,1.08-2.36,2.79-4.24,5.13-5.64,2.34-1.4,5.38-2.09,9.15-2.09,2.16,0,4.27.11,6.32.34,2.05.23,3.85.48,5.38.77v17.35l-1.45.26-8.21-15.9,2.22,1.45h-5.38c-2.85,0-4.87.74-6.07,2.22-1.2,1.48-1.8,3.53-1.8,6.15,0,2,.4,3.65,1.2,4.96.8,1.31,2.14,2.68,4.02,4.1l8.46,6.32c3.48,2.56,6.14,5.13,7.99,7.69,1.85,2.56,2.78,5.61,2.78,9.15,0,3.13-.64,5.96-1.92,8.46-1.28,2.51-3.25,4.5-5.9,5.98-2.65,1.48-6.06,2.22-10.21,2.22-2.51,0-5-.27-7.48-.81-2.48-.54-4.57-1.27-6.28-2.18v-18.98Z"/>
    <path d="M536.34,340.18l8.12-10.17,10.17,10.17-.34.68h-17.61l-.34-.68ZM546,285.13l.6,6.15-5.47-9.57.43-.68h13.59l11.28,40.94h.43l10.17-40.94h12.22l.43.77-5.47,9.4,1.62-7.35,5.98,57.01h-9.4l-3.93-43.42h-.43l-11.28,43.42h-4.27l-12.22-43.42h-.43l-3.08,43.42h-5.56l4.79-55.73ZM576,340.18l10.6-11.97,9.83,11.97-.34.68h-19.74l-.34-.68Z"/>
    <path d="M143,444.38l8.97-4.87,10.09,4.87-.34.68h-18.38l-.34-.68ZM143.86,385.23h8.29l-.85,5.56-7.78-4.87.34-.68ZM150.87,385.23h6.24c4.05,0,7.52.71,10.43,2.14,2.91,1.42,5.16,3.52,6.75,6.28,1.59,2.76,2.39,6.17,2.39,10.21,0,3.36-.54,6.3-1.62,8.8-1.08,2.51-2.54,4.59-4.36,6.24-1.82,1.65-3.9,2.89-6.24,3.72-2.34.83-4.76,1.24-7.27,1.24h-4.19v-2.14h5.64c2.79,0,5.24-.63,7.35-1.88,2.11-1.25,3.76-3.11,4.96-5.56,1.2-2.45,1.79-5.47,1.79-9.06,0-4.27-.56-7.72-1.67-10.34-1.11-2.62-2.76-4.53-4.96-5.73-2.19-1.2-4.92-1.79-8.16-1.79h-3.68v57.69h-3.42v-59.83Z"/>
    <path d="M181.38,425.83l1.2-.17,6.75,19.06-3.85-1.11,6.84.17c3.3.06,5.84-.91,7.61-2.91,1.77-1.99,2.65-4.62,2.65-7.86,0-1.99-.2-3.68-.6-5.04-.4-1.37-1.07-2.69-2.01-3.97-.94-1.28-2.24-2.72-3.89-4.32l-6.67-6.5c-2.45-2.45-4.37-4.97-5.77-7.56-1.4-2.59-2.09-5.4-2.09-8.42,0-2.51.44-4.71,1.32-6.62.88-1.91,2.28-3.42,4.19-4.53,1.91-1.11,4.34-1.67,7.31-1.67,1.65,0,3.1.1,4.36.3,1.25.2,2.68.53,4.27.98v14.1l-.77.26-6.67-14.27,3.33.6h-6.15c-2.39,0-4.37.85-5.94,2.56-1.57,1.71-2.35,4.02-2.35,6.92s.47,5.27,1.41,7.27c.94,2,2.44,3.99,4.49,5.98l7.78,7.52c2.68,2.51,4.63,4.91,5.85,7.22,1.22,2.31,1.84,5.03,1.84,8.16,0,2.68-.57,5.07-1.71,7.18-1.14,2.11-2.66,3.76-4.57,4.96-1.91,1.2-4.03,1.79-6.37,1.79-2.05,0-4.12-.16-6.2-.47-2.08-.31-3.95-.73-5.6-1.24v-18.38Z"/>
    <path d="M208.82,444.38l8.55-5.3.85,5.98h-9.06l-.34-.68ZM209.67,385.23h8.97l-1.28,5.56-8.03-4.87.34-.68ZM216.94,385.23h23.85l.94,15.21-.77.17-6.92-13.42h-13.68v25.56h9.57l3.25-6.67h.94l2.14,18.38-.68.17-5.64-9.74h-9.57v28.04h15.73l6.75-15.73.77.17-.85,17.69h-25.81v-59.83Z"/>
    <path d="M245.91,385.23h17.52l.17.51-10.85,5.3-7.01-5.3.17-.51ZM258.13,443.48c-2.34-1.62-4.12-3.83-5.34-6.62-1.23-2.79-1.84-5.87-1.84-9.23v-42.39h3.42v40.69c0,5.64,1.07,9.89,3.21,12.74,2.14,2.85,5.4,4.27,9.79,4.27,3.76,0,6.72-1.21,8.89-3.63,2.16-2.42,3.25-6.25,3.25-11.5v-42.57h2.14v41.03c0,6.67-1.4,11.6-4.19,14.79-2.79,3.19-6.47,4.81-11.03,4.87-3.19,0-5.96-.81-8.29-2.44ZM270.01,385.23h16.84l.17.51-6.58,5.3-10.6-5.3.17-.51Z"/>
    <path d="M289.42,444.38l8.55-5.3.85,5.98h-9.06l-.34-.68ZM290.27,385.23h8.97l-1.28,5.56-8.03-4.87.34-.68ZM297.54,385.23h7.09c5.01,0,9.23,1.28,12.65,3.85,3.42,2.56,6,6.03,7.74,10.38,1.74,4.36,2.61,9.3,2.61,14.83,0,3.99-.37,7.82-1.11,11.5-.74,3.68-1.98,6.97-3.72,9.87-1.74,2.91-4.1,5.2-7.09,6.88-2.99,1.68-6.74,2.52-11.24,2.52h-5.04v-2.14h6.58c2.51,0,4.84-.47,7.01-1.41,2.17-.94,4.05-2.49,5.64-4.66,1.59-2.16,2.85-5.09,3.76-8.76.91-3.68,1.37-8.28,1.37-13.8,0-5.24-.5-9.62-1.5-13.12-1-3.5-2.44-6.3-4.32-8.38-1.88-2.08-4.13-3.58-6.75-4.49-2.62-.91-5.58-1.37-8.89-1.37h-1.37v58.12h-3.42v-59.83Z"/>
    <path d="M344.12,443.78c-2.17-1.42-4.05-3.49-5.64-6.2-1.6-2.71-2.82-6-3.68-9.87-.85-3.87-1.28-8.26-1.28-13.16,0-4.44.43-8.5,1.28-12.18.85-3.68,2.08-6.87,3.68-9.57,1.59-2.71,3.48-4.79,5.64-6.24,2.17-1.45,4.53-2.18,7.09-2.18s5.01.73,7.18,2.18c2.17,1.45,4.05,3.53,5.64,6.24,1.59,2.71,2.82,5.9,3.68,9.57.85,3.68,1.28,7.74,1.28,12.18,0,4.9-.43,9.29-1.28,13.16-.85,3.88-2.08,7.17-3.68,9.87-1.6,2.71-3.48,4.77-5.64,6.2-2.17,1.42-4.56,2.14-7.18,2.14s-4.93-.71-7.09-2.14ZM339.03,429.85c.83,4.39,2.22,7.81,4.19,10.26,1.97,2.45,4.63,3.68,7.99,3.68s6.11-1.22,8.08-3.68c1.97-2.45,3.36-5.87,4.19-10.26.83-4.39,1.24-9.49,1.24-15.3,0-5.18-.41-9.9-1.24-14.15-.83-4.24-2.22-7.62-4.19-10.13-1.97-2.51-4.66-3.76-8.08-3.76s-6.03,1.25-7.99,3.76c-1.97,2.51-3.36,5.88-4.19,10.13-.83,4.25-1.24,8.96-1.24,14.15,0,5.81.41,10.91,1.24,15.3Z"/>
    <path d="M371.81,444.38l8.55-5.3.85,5.98h-9.06l-.34-.68ZM372.41,385.23h18.55l.17.51-10.09,5.04-8.8-5.04.17-.51ZM379.93,385.23h3.42v57.69h14.19l5.81-15.73,1.03.17-.68,17.69h-23.76v-59.83Z"/>
    <path d="M407.62,385.23h17.52l.17.51-10.85,5.3-7.01-5.3.17-.51ZM419.85,443.48c-2.34-1.62-4.12-3.83-5.34-6.62-1.23-2.79-1.84-5.87-1.84-9.23v-42.39h3.42v40.69c0,5.64,1.07,9.89,3.21,12.74,2.14,2.85,5.4,4.27,9.79,4.27,3.76,0,6.72-1.21,8.89-3.63,2.16-2.42,3.25-6.25,3.25-11.5v-42.57h2.14v41.03c0,6.67-1.4,11.6-4.19,14.79-2.79,3.19-6.47,4.81-11.03,4.87-3.19,0-5.96-.81-8.29-2.44ZM431.73,385.23h16.84l.17.51-6.58,5.3-10.6-5.3.17-.51Z"/>
    <path d="M462.07,443.39c-2-1.68-3.65-3.92-4.96-6.71-1.31-2.79-2.29-5.9-2.95-9.32-.66-3.42-.98-6.87-.98-10.34,0-4.96.37-9.43,1.11-13.42.74-3.99,1.87-7.42,3.38-10.3,1.51-2.88,3.46-5.09,5.85-6.62,2.39-1.54,5.21-2.31,8.46-2.31,1.77,0,3.45.1,5.04.3,1.59.2,3.19.53,4.79.98v15.81l-.77.26-6.41-16.15,3.42.94h-7.09c-2.73,0-5.17.83-7.31,2.48-2.14,1.65-3.8,4.54-5,8.68-1.2,4.13-1.79,9.9-1.79,17.31,0,9.29,1.12,16.31,3.38,21.07,2.25,4.76,5.37,7.14,9.36,7.14,3.7,0,6.54-1.55,8.5-4.66,1.97-3.1,3.58-7.88,4.83-14.32l1.28.26c-1.08,7.24-2.89,12.62-5.43,16.15-2.54,3.53-5.74,5.3-9.62,5.3-2.73,0-5.1-.84-7.09-2.52Z"/>
    <path d="M488.22,444.38l9.15-4.87,10.09,4.87-.34.68h-18.55l-.34-.68ZM489.08,385.23h8.46l-.85,5.56-7.95-4.87.34-.68ZM496.26,385.23h8.03c3.7,0,6.94.64,9.7,1.92,2.76,1.28,4.91,3.11,6.45,5.47,1.54,2.37,2.31,5.14,2.31,8.33,0,3.36-.76,6.37-2.27,9.02-1.51,2.65-3.66,4.72-6.45,6.2-2.79,1.48-6.1,2.22-9.91,2.22h-6.33v-2.14h5.47c5.47,0,9.44-1.08,11.92-3.25,2.48-2.17,3.72-5.9,3.72-11.2,0-3.59-.51-6.44-1.54-8.55-1.03-2.11-2.72-3.62-5.09-4.53-2.37-.91-5.57-1.37-9.62-1.37h-2.99v57.69h-3.42v-59.83ZM511.13,416.68c.68,3.08,1.4,5.87,2.14,8.38.74,2.51,1.64,4.86,2.69,7.05,1.05,2.19,2.44,4.39,4.15,6.58,1.71,2.19,3.87,4.57,6.5,7.14l-.6.94c-3.82-2.68-6.94-5.43-9.36-8.25-2.42-2.82-4.33-5.93-5.73-9.32-1.4-3.39-2.52-7.25-3.38-11.58l3.59-.94Z"/>
    <path d="M528.23,444.38l6.84-4.87,8.97,4.87-.34.68h-15.13l-.34-.68ZM546.77,390.61l-.34,2.56-4.02-7.52.26-.43h6.67l15.38,59.83h-3.76l-12.31-48.72h-1.28l-12.48,48.72h-2.31l14.19-54.45ZM538.4,426.17h19.74v2.14h-19.74v-2.14ZM551.99,444.38l9.92-4.87,7.01,4.87-.34.68h-16.24l-.34-.68Z"/>
    <path d="M567.71,401.47l1.54-16.24h33.25l1.54,16.24-.94.26-6.33-14.36h-21.8l-6.32,14.36-.94-.26ZM575.75,444.38l10.09-5.3,10.09,5.3-.34.68h-19.49l-.34-.68ZM584.12,385.23h3.42v59.83h-3.42v-59.83Z"/>
    <path d="M606.77,444.38l9.23-4.87,9.23,4.87-.34.68h-17.78l-.34-.68ZM607.37,385.23h17.27l.17.51-8.8,5.04-8.8-5.04.17-.51ZM614.29,385.23h3.42v59.83h-3.42v-59.83Z"/>
    <path d="M627.88,385.23h17.18l.26.43-11.03,4.7-6.58-4.7.17-.43ZM634.98,385.23l13.76,49.66h1.28l13.08-49.66h2.39l-16.33,60.26h-.85l-17.01-60.26h3.67ZM653.36,385.23h16.41l.26.43-6.84,4.7-10-4.7.17-.43Z"/>
    <path d="M671.82,444.38l8.55-5.3.85,5.98h-9.06l-.34-.68ZM672.67,385.23h8.98l-1.28,5.56-8.04-4.87.34-.68ZM679.94,385.23h23.85l.94,15.21-.77.17-6.92-13.42h-13.68v25.56h9.57l3.25-6.67h.94l2.14,18.38-.68.17-5.64-9.74h-9.57v28.04h15.73l6.75-15.73.77.17-.86,17.69h-25.81v-59.83Z"/>
    <path d="M143,518.64l8.97-4.87,10.09,4.87-.34.68h-18.38l-.34-.68ZM143.86,459.49h8.29l-.85,5.56-7.78-4.87.34-.68ZM150.87,459.49h6.24c4.05,0,7.52.71,10.43,2.14,2.91,1.42,5.16,3.52,6.75,6.28,1.59,2.76,2.39,6.17,2.39,10.21,0,3.36-.54,6.3-1.62,8.8-1.08,2.51-2.54,4.59-4.36,6.24-1.82,1.65-3.9,2.89-6.24,3.72-2.34.83-4.76,1.24-7.27,1.24h-4.19v-2.14h5.64c2.79,0,5.24-.63,7.35-1.88,2.11-1.25,3.76-3.11,4.96-5.56,1.2-2.45,1.79-5.47,1.79-9.06,0-4.27-.56-7.72-1.67-10.34-1.11-2.62-2.76-4.53-4.96-5.73-2.19-1.2-4.92-1.79-8.16-1.79h-3.68v57.69h-3.42v-59.83Z"/>
    <path d="M178.73,518.64l8.55-4.87,10.43,4.87-.17.68h-18.63l-.17-.68ZM179.16,459.49h18.03l.17.51-10.09,5.04-8.29-5.04.17-.51ZM185.57,459.49h3.42v28.12h23.85v-28.12h3.42v59.83h-3.42v-29.57h-23.85v29.57h-3.42v-59.83ZM204.2,518.64l10.34-4.87,8.55,4.87-.17.68h-18.55l-.17-.68ZM204.63,459.49h18.04l.17.51-8.29,5.04-10.09-5.04.17-.51Z"/>
    <path d="M227.54,518.64l9.23-4.87,9.23,4.87-.34.68h-17.78l-.34-.68ZM228.13,459.49h17.27l.17.51-8.8,5.04-8.8-5.04.17-.51ZM235.06,459.49h3.42v59.83h-3.42v-59.83Z"/>
    <path d="M248.99,518.64l8.55-5.3.85,5.98h-9.06l-.34-.68ZM249.59,459.49h18.55l.17.51-10.09,5.04-8.8-5.04.17-.51ZM257.11,459.49h3.42v57.69h14.19l5.81-15.73,1.03.17-.68,17.69h-23.76v-59.83Z"/>
    <path d="M284.37,518.64l6.84-4.87,8.97,4.87-.34.68h-15.13l-.34-.68ZM302.92,464.87l-.34,2.56-4.02-7.52.26-.43h6.67l15.39,59.83h-3.76l-12.31-48.72h-1.28l-12.48,48.72h-2.31l14.19-54.45ZM294.54,500.43h19.74v2.14h-19.74v-2.14ZM308.14,518.64l9.92-4.87,7.01,4.87-.34.68h-16.24l-.34-.68Z"/>
    <path d="M347.2,518.64l-.17.68h-19.92l-.17-.68,8.55-5.73,11.71,5.73ZM334.63,519.32v-52.48l1.28,3.76-8.21-10.68.17-.43h5.98l26.41,49.75-3.25-1.62h3.33v-48.12h2.14v60.26h-.51l-25.47-48.12,3.16,2.39h-2.91v45.3h-2.14ZM350.02,460l.17-.51h18.63l.17.51-7.44,5.04-11.54-5.04Z"/>
    <path d="M370.96,475.73l1.54-16.24h33.25l1.54,16.24-.94.26-6.33-14.36h-21.8l-6.33,14.36-.94-.26ZM378.99,518.64l10.09-5.3,10.09,5.3-.34.68h-19.49l-.34-.68ZM387.37,459.49h3.42v59.83h-3.42v-59.83Z"/>
    <path d="M410.36,518.64l8.55-4.87,10.43,4.87-.17.68h-18.63l-.17-.68ZM410.79,459.49h18.03l.17.51-10.09,5.04-8.29-5.04.17-.51ZM417.2,459.49h3.42v28.12h23.85v-28.12h3.42v59.83h-3.42v-29.57h-23.85v29.57h-3.42v-59.83ZM435.83,518.64l10.34-4.87,8.55,4.87-.17.68h-18.55l-.17-.68ZM436.26,459.49h18.04l.17.51-8.29,5.04-10.09-5.04.17-.51Z"/>
    <path d="M458.22,518.64l9.15-4.87,10.09,4.87-.34.68h-18.55l-.34-.68ZM459.08,459.49h8.46l-.85,5.56-7.95-4.87.34-.68ZM466.26,459.49h8.03c3.7,0,6.94.64,9.7,1.92,2.76,1.28,4.91,3.11,6.45,5.47,1.54,2.37,2.31,5.14,2.31,8.33,0,3.36-.76,6.37-2.27,9.02-1.51,2.65-3.66,4.72-6.45,6.2-2.79,1.48-6.1,2.22-9.91,2.22h-6.33v-2.14h5.47c5.47,0,9.44-1.08,11.92-3.25,2.48-2.17,3.72-5.9,3.72-11.2,0-3.59-.51-6.44-1.54-8.55-1.03-2.11-2.72-3.62-5.09-4.53-2.37-.91-5.57-1.37-9.62-1.37h-2.99v57.69h-3.42v-59.83ZM481.13,490.94c.68,3.08,1.4,5.87,2.14,8.38.74,2.51,1.64,4.86,2.69,7.05,1.05,2.19,2.44,4.39,4.15,6.58,1.71,2.19,3.87,4.57,6.5,7.14l-.6.94c-3.82-2.68-6.94-5.43-9.36-8.25-2.42-2.82-4.33-5.93-5.73-9.32-1.4-3.39-2.52-7.25-3.38-11.58l3.59-.94Z"/>
    <path d="M509.76,518.04c-2.17-1.42-4.05-3.49-5.64-6.2-1.6-2.71-2.82-6-3.68-9.87-.85-3.87-1.28-8.26-1.28-13.16,0-4.44.43-8.5,1.28-12.18.85-3.68,2.08-6.87,3.68-9.57,1.59-2.71,3.48-4.79,5.64-6.24,2.17-1.45,4.53-2.18,7.09-2.18s5.01.73,7.18,2.18c2.17,1.45,4.05,3.53,5.64,6.24,1.59,2.71,2.82,5.9,3.68,9.57.85,3.68,1.28,7.74,1.28,12.18,0,4.9-.43,9.29-1.28,13.16-.85,3.88-2.08,7.17-3.68,9.87-1.6,2.71-3.48,4.77-5.64,6.2-2.17,1.42-4.56,2.14-7.18,2.14s-4.93-.71-7.09-2.14ZM504.68,504.11c.83,4.39,2.22,7.81,4.19,10.26,1.97,2.45,4.63,3.68,7.99,3.68s6.11-1.22,8.08-3.68c1.97-2.45,3.36-5.87,4.19-10.26.83-4.39,1.24-9.49,1.24-15.3,0-5.18-.41-9.9-1.24-14.15-.83-4.24-2.22-7.62-4.19-10.13-1.97-2.51-4.66-3.76-8.08-3.76s-6.03,1.25-7.99,3.76c-1.97,2.51-3.36,5.88-4.19,10.13-.83,4.25-1.24,8.96-1.24,14.15,0,5.81.41,10.91,1.24,15.3Z"/>
    <path d="M537.37,518.64l8.97-4.87,10.09,4.87-.34.68h-18.38l-.34-.68ZM538.22,459.49h8.29l-.85,5.56-7.78-4.87.34-.68ZM545.23,459.49h6.24c4.05,0,7.52.71,10.43,2.14,2.91,1.42,5.16,3.52,6.75,6.28,1.59,2.76,2.39,6.17,2.39,10.21,0,3.36-.54,6.3-1.62,8.8-1.08,2.51-2.54,4.59-4.36,6.24-1.82,1.65-3.9,2.89-6.24,3.72-2.34.83-4.76,1.24-7.26,1.24h-4.19v-2.14h5.64c2.79,0,5.24-.63,7.35-1.88,2.11-1.25,3.76-3.11,4.96-5.56,1.2-2.45,1.79-5.47,1.79-9.06,0-4.27-.56-7.72-1.67-10.34-1.11-2.62-2.76-4.53-4.96-5.73-2.19-1.2-4.92-1.79-8.16-1.79h-3.68v57.69h-3.42v-59.83Z"/>
    <path d="M572.75,459.49h13.85l.26.43-7.86,4.79-6.41-4.79.17-.43ZM579.51,459.49l10.68,30.94h1.28l10.26-30.94h2.48l-13.25,39.4h-1.2l-14.02-39.4h3.76ZM582.16,518.64l8.38-4.87,8.38,4.87-.34.68h-16.07l-.34-.68ZM588.74,493.68h3.42v25.64h-3.42v-25.64ZM595.06,459.49h12.39l.26.43-6.32,4.79-6.5-4.79.17-.43Z"/>
    <path d="M142.75,622.84l9.23-12.99,10.94,12.99-.34.68h-19.49l-.34-.68ZM143.17,563.69h6.67l-1.28,6.84-5.73-6.15.34-.68ZM148.13,563.69h16.5c3.99,0,7.38.58,10.17,1.75,2.79,1.17,4.93,2.92,6.41,5.26,1.48,2.34,2.22,5.24,2.22,8.72s-.84,6.62-2.52,9.27c-1.68,2.65-4.07,4.69-7.18,6.11-3.11,1.42-6.82,2.14-11.15,2.14h-7.61v-4.02h6.75c4.39,0,7.52-1.17,9.4-3.5,1.88-2.34,2.82-5.67,2.82-10,0-2.62-.4-4.79-1.2-6.5-.8-1.71-2.02-2.99-3.68-3.85-1.65-.85-3.76-1.28-6.33-1.28h-5.21v55.73h-9.4v-59.83ZM170.61,592.92c1.08,3.08,2.12,5.96,3.12,8.63,1,2.68,2.08,5.29,3.25,7.82,1.17,2.54,2.49,5.1,3.97,7.69,1.48,2.59,3.22,5.34,5.21,8.25l-.77,1.03c-5.07-2.05-9.13-4.47-12.18-7.26-3.05-2.79-5.46-6.14-7.22-10.04-1.77-3.9-3.36-8.5-4.79-13.8l9.4-2.31Z"/>
    <path d="M183.94,622.84l7.86-8.8,9.66,8.8-.34.68h-16.84l-.34-.68ZM203.6,568.05l-.26,5.73-3.85-9.66.26-.43h11.79l17.35,59.83h-10.34l-12.65-46.33h-.51l-11.8,46.33h-5.98l15.98-55.47ZM195.48,603.44h21.8v4.7h-21.8v-4.7ZM211.47,622.84l9.66-10.86,9.83,10.86-.34.68h-18.8l-.34-.68Z"/>
    <path d="M233.09,622.84l9.23-12.99,10.09,12.99-.34.68h-18.63l-.34-.68ZM233.52,563.69h6.67l-1.28,6.84-5.73-6.15.34-.68ZM238.48,563.69h12.99c3.25,0,6.33.58,9.23,1.75,2.91,1.17,5.27,3.11,7.09,5.81,1.82,2.71,2.73,6.34,2.73,10.9,0,3.19-.57,5.94-1.71,8.25-1.14,2.31-2.66,4.2-4.57,5.68-1.91,1.48-4.03,2.58-6.37,3.29-2.34.71-4.7,1.07-7.09,1.07h-4.7v-4.1h4.02c2.05,0,3.97-.41,5.77-1.24,1.79-.83,3.23-2.28,4.32-4.36,1.08-2.08,1.62-4.94,1.62-8.59s-.54-6.5-1.62-8.55c-1.08-2.05-2.52-3.5-4.32-4.36s-3.72-1.28-5.77-1.28h-2.22v55.56h-9.4v-59.83Z"/>
    <path d="M273.77,622.84l8.8-14.27,8.8,14.27-.34.68h-16.92l-.34-.68ZM274.37,563.69h16.41l.34.68-8.55,12.99-8.55-12.99.34-.68ZM277.88,563.69h9.4v59.83h-9.4v-59.83Z"/>
    <path d="M296.25,622.84l5.81-7.35,1.28,8.03h-6.75l-.34-.68ZM296.68,563.69h6.67l-1.28,7.09-5.73-6.41.34-.68ZM301.64,563.69h10.17c6.1,0,11.25,1.08,15.47,3.25,4.22,2.17,7.41,5.41,9.57,9.74,2.17,4.33,3.25,9.74,3.25,16.24,0,4.27-.58,8.26-1.75,11.97-1.17,3.7-2.91,6.95-5.21,9.74-2.31,2.79-5.13,4.97-8.46,6.54-3.33,1.57-7.19,2.35-11.58,2.35h-5.3v-4.7h6.67c2.28,0,4.36-.37,6.24-1.11,1.88-.74,3.5-2.04,4.87-3.89,1.37-1.85,2.42-4.47,3.16-7.86.74-3.39,1.11-7.74,1.11-13.04s-.38-9.5-1.15-12.78c-.77-3.28-1.87-5.8-3.29-7.56-1.43-1.77-3.15-2.98-5.17-3.63-2.02-.65-4.32-.98-6.88-.98h-2.31v55.56h-9.4v-59.83Z"/>
    <path d="M360.36,622.84l5.81-7.35,1.28,8.03h-6.75l-.34-.68ZM360.78,563.69h6.67l-1.28,7.09-5.73-6.41.34-.68ZM365.74,563.69h30.09l1.54,18.04-1.45.34-8.12-14.1h-12.65v21.71h8.55l3.68-5.81h1.2l2.99,18.29-1.2.77-6.67-8.97h-8.55v25.3h15.3l7.52-14.7,1.45.43-1.71,18.55h-31.97v-59.83Z"/>
    <path d="M402.32,622.84l11.71-10.68,7.52,10.68-.34.68h-18.55l-.34-.68ZM404.03,563.69h20.86l.26.43-9.57,10.09-11.8-10.09.26-.43ZM423.86,590.1h6.58l17.78,33.42h-11.45l-11.88-24.53h-.51l-11.71,24.53h-7.09l18.29-33.42ZM417.97,563.69l9.83,22.14h.51l10.34-22.14h6.07l-15.9,31.54h-6.07l-15.98-31.54h11.2ZM430.62,622.84l7.95-11.62,12.22,11.62-.34.68h-19.49l-.34-.68ZM431.04,563.69h16.92l.26.43-9.92,8.46-7.44-8.46.17-.43Z"/>
    <path d="M462.15,622.37c-2.34-1.34-4.4-3.26-6.2-5.77-1.79-2.51-3.21-5.54-4.23-9.1-1.03-3.56-1.54-7.54-1.54-11.92s.41-8.46,1.24-12.39c.83-3.93,2.17-7.42,4.02-10.47,1.85-3.05,4.27-5.46,7.27-7.22,2.99-1.77,6.65-2.65,10.98-2.65,1.94,0,3.66.07,5.17.21,1.51.14,3.06.36,4.66.64v18.46l-1.45.34-8.97-17.69,3.85,2.31h-4.19c-2.96,0-5.38.91-7.27,2.74-1.88,1.82-3.26,4.66-4.15,8.5-.88,3.85-1.32,8.82-1.32,14.92,0,8.15,1.08,14.26,3.25,18.33,2.17,4.08,5.13,6.11,8.89,6.11,3.36,0,5.95-1.22,7.78-3.67,1.82-2.45,3.36-6.04,4.62-10.77l1.88.51c-.91,6.9-2.81,12.05-5.68,15.47-2.88,3.42-6.6,5.13-11.15,5.13-2.62,0-5.1-.67-7.44-2.01Z"/>
    <path d="M491.13,622.84l9.23-12.99,10.17,12.99-.34.68h-18.72l-.34-.68ZM491.73,563.69h17.69l.34.68-9.4,11.28-8.97-11.28.34-.68ZM496.09,563.69h9.4v25.98h17.52v-25.98h9.4v59.83h-9.4v-29.15h-17.52v29.15h-9.4v-59.83ZM518.05,622.84l10.09-12.99,9.23,12.99-.34.68h-18.63l-.34-.68ZM519.08,563.69h17.69l.34.68-8.97,11.28-9.4-11.28.34-.68Z"/>
    <path d="M540.96,622.84l7.86-8.8,9.66,8.8-.34.68h-16.84l-.34-.68ZM560.62,568.05l-.26,5.73-3.85-9.66.26-.43h11.79l17.35,59.83h-10.34l-12.65-46.33h-.51l-11.79,46.33h-5.98l15.98-55.47ZM552.5,603.44h21.8v4.7h-21.8v-4.7ZM568.48,622.84l9.66-10.86,9.83,10.86-.34.68h-18.8l-.34-.68Z"/>
    <path d="M610.53,622.84l-.34.68h-19.66l-.34-.68,7.95-11.28,12.39,11.28ZM596.69,623.52v-54.87l1.03,5.98-7.44-10.34.26-.6h13.25l22.91,43.59-5.64-2.91h4.36v-40.69h4.7v59.83h-5.98l-24.45-46.58,4.02,3.59h-2.31v42.99h-4.7ZM616.26,564.38l.34-.68h18.98l.34.68-7.69,10.43-11.97-10.43Z"/>
    <path d="M675.66,616.68l5.21,1.54v1.2c-2.45,1.14-4.82,2.08-7.09,2.82-2.28.74-4.5,1.28-6.67,1.62-2.17.34-4.3.51-6.41.51-3.93,0-7.34-.8-10.21-2.39-2.88-1.59-5.24-3.79-7.09-6.58-1.85-2.79-3.22-6.01-4.1-9.66-.88-3.65-1.33-7.55-1.33-11.71,0-4.44.53-8.56,1.58-12.35,1.05-3.79,2.58-7.09,4.57-9.92,1.99-2.82,4.4-5.01,7.22-6.58,2.82-1.57,6-2.35,9.53-2.35,2.16,0,4.16.08,5.98.26,1.82.17,3.7.46,5.64.85v18.21l-1.62.43-8.21-17.01,5.21,1.54h-7.27c-2.39,0-4.4.5-6.03,1.5-1.62,1-2.89,2.56-3.8,4.7-.91,2.14-1.57,4.92-1.97,8.33-.4,3.42-.6,7.55-.6,12.39,0,6.61.47,11.78,1.41,15.51.94,3.73,2.35,6.37,4.23,7.91,1.88,1.54,4.16,2.31,6.84,2.31,1.99,0,3.82-.11,5.47-.34,1.65-.23,3.47-.6,5.47-1.11l-4.96,2.56v-25.39l-10.34-3.25.17-2.05h19.15v26.5Z"/>
    <path d="M683.78,622.84l5.81-7.35,1.28,8.03h-6.75l-.34-.68ZM684.21,563.69h6.67l-1.28,7.09-5.73-6.41.34-.68ZM689.17,563.69h30.09l1.54,18.04-1.45.34-8.12-14.1h-12.65v21.71h8.55l3.67-5.81h1.2l2.99,18.29-1.2.77-6.67-8.97h-8.55v25.3h15.3l7.52-14.7,1.45.43-1.71,18.55h-31.97v-59.83Z"/>
    <path d="M156.68,696.63c-2.34-1.34-4.4-3.26-6.2-5.77-1.79-2.51-3.21-5.54-4.23-9.1-1.03-3.56-1.54-7.54-1.54-11.92s.41-8.46,1.24-12.39c.83-3.93,2.17-7.42,4.02-10.47,1.85-3.05,4.27-5.46,7.27-7.22,2.99-1.77,6.65-2.65,10.98-2.65,1.94,0,3.66.07,5.17.21,1.51.14,3.06.36,4.66.64v18.46l-1.45.34-8.97-17.69,3.85,2.31h-4.19c-2.96,0-5.38.91-7.27,2.74-1.88,1.82-3.26,4.66-4.15,8.5-.88,3.85-1.32,8.82-1.32,14.92,0,8.15,1.08,14.26,3.25,18.33,2.17,4.08,5.13,6.11,8.89,6.11,3.36,0,5.95-1.22,7.78-3.67,1.82-2.45,3.36-6.04,4.62-10.77l1.88.51c-.91,6.9-2.81,12.05-5.68,15.47-2.88,3.42-6.6,5.13-11.15,5.13-2.62,0-5.1-.67-7.44-2.01Z"/>
    <path d="M183.69,697.1l9.23-12.99,10.94,12.99-.34.68h-19.49l-.34-.68ZM184.12,637.95h6.67l-1.28,6.84-5.73-6.15.34-.68ZM189.07,637.95h16.5c3.99,0,7.38.58,10.17,1.75,2.79,1.17,4.93,2.92,6.41,5.26,1.48,2.34,2.22,5.24,2.22,8.72s-.84,6.62-2.52,9.27c-1.68,2.65-4.07,4.69-7.18,6.11-3.11,1.42-6.82,2.14-11.15,2.14h-7.61v-4.02h6.75c4.39,0,7.52-1.17,9.4-3.5,1.88-2.34,2.82-5.67,2.82-10,0-2.62-.4-4.79-1.2-6.5-.8-1.71-2.02-2.99-3.68-3.85-1.65-.85-3.76-1.28-6.33-1.28h-5.21v55.73h-9.4v-59.83ZM211.55,667.18c1.08,3.08,2.12,5.96,3.12,8.63,1,2.68,2.08,5.29,3.25,7.82,1.17,2.54,2.49,5.1,3.97,7.69,1.48,2.59,3.22,5.34,5.21,8.25l-.77,1.03c-5.07-2.05-9.13-4.47-12.18-7.26-3.05-2.79-5.46-6.14-7.22-10.04-1.77-3.9-3.36-8.5-4.79-13.8l9.4-2.31Z"/>
    <path d="M224.97,637.95h19.92l.26.43-9.06,9.74-11.37-9.74.26-.43ZM238.9,637.95l9.66,28.29h.51l9.4-28.29h5.13l-14.62,41.11h-5.38l-15.73-41.11h11.03ZM237.79,697.1l8.8-12.99,8.8,12.99-.34.68h-16.92l-.34-.68ZM241.9,671.37h9.4v26.41h-9.4v-26.41ZM251.9,637.95h14.36l.26.43-7.69,7.44-7.09-7.44.17-.43Z"/>
    <path d="M268.56,697.1l9.23-12.99,10.09,12.99-.34.68h-18.63l-.34-.68ZM268.99,637.95h6.67l-1.28,6.84-5.73-6.15.34-.68ZM273.95,637.95h12.99c3.25,0,6.33.58,9.23,1.75,2.91,1.17,5.27,3.11,7.09,5.81,1.82,2.71,2.73,6.34,2.73,10.9,0,3.19-.57,5.94-1.71,8.25-1.14,2.31-2.66,4.2-4.57,5.68-1.91,1.48-4.03,2.58-6.37,3.29-2.34.71-4.7,1.07-7.09,1.07h-4.7v-4.1h4.02c2.05,0,3.97-.41,5.77-1.24,1.79-.83,3.23-2.28,4.32-4.36,1.08-2.08,1.62-4.94,1.62-8.59s-.54-6.5-1.62-8.55c-1.08-2.05-2.52-3.5-4.32-4.36s-3.72-1.28-5.77-1.28h-2.22v55.56h-9.4v-59.83Z"/>
    <path d="M307.79,655.81l2.91-17.86h38.63l2.91,17.86-1.37.51-9.74-14.1h-22.22l-9.74,14.1-1.37-.51ZM319.42,697.1l10.51-12.56,10.51,12.56-.34.68h-20.34l-.34-.68ZM325.31,637.95h9.4v59.83h-9.4v-59.83Z"/>
    <path d="M366.77,695.99c-2.62-1.77-4.86-4.13-6.71-7.09-1.85-2.96-3.28-6.29-4.27-10-1-3.7-1.5-7.46-1.5-11.28,0-4.05.5-7.89,1.5-11.54,1-3.65,2.42-6.89,4.27-9.74,1.85-2.85,4.09-5.1,6.71-6.75,2.62-1.65,5.56-2.48,8.8-2.48s6.18.83,8.8,2.48c2.62,1.65,4.89,3.9,6.8,6.75,1.91,2.85,3.38,6.1,4.4,9.74,1.03,3.65,1.54,7.49,1.54,11.54,0,3.82-.51,7.58-1.54,11.28-1.03,3.71-2.49,7.04-4.4,10-1.91,2.96-4.17,5.33-6.8,7.09-2.62,1.77-5.56,2.65-8.8,2.65s-6.18-.88-8.8-2.65ZM365.79,682.48c.83,3.88,2.05,6.75,3.68,8.63,1.62,1.88,3.66,2.82,6.11,2.82s4.67-.94,6.33-2.82c1.65-1.88,2.89-4.76,3.72-8.63.83-3.87,1.24-8.83,1.24-14.87s-.41-11.04-1.24-14.83c-.83-3.79-2.07-6.57-3.72-8.33-1.65-1.77-3.76-2.65-6.33-2.65s-4.49.88-6.11,2.65c-1.62,1.77-2.85,4.54-3.68,8.33-.83,3.79-1.24,8.73-1.24,14.83s.41,11,1.24,14.87Z"/>
    <path d="M400.36,697.1l5.81-7.69,1.28,8.38h-6.75l-.34-.68ZM401.56,637.95h19.06l.34.68-11.8,10.51-7.95-10.51.34-.68ZM405.74,637.95h9.4v55.56h13.25l8.03-18.12,1.45.43-1.2,21.97h-30.94v-59.83Z"/>
    <path d="M442.33,697.1l8.8-14.27,8.8,14.27-.34.68h-16.92l-.34-.68ZM442.92,637.95h16.41l.34.68-8.55,12.99-8.55-12.99.34-.68ZM446.43,637.95h9.4v59.83h-9.4v-59.83Z"/>
    <path d="M463.27,655.81l2.91-17.86h38.63l2.91,17.86-1.37.51-9.74-14.1h-22.22l-9.74,14.1-1.37-.51ZM474.89,697.1l10.51-12.56,10.51,12.56-.34.68h-20.34l-.34-.68ZM480.79,637.95h9.4v59.83h-9.4v-59.83Z"/>
    <path d="M509.76,697.1l9.23-12.99,10.17,12.99-.34.68h-18.72l-.34-.68ZM510.36,637.95h17.69l.34.68-9.4,11.28-8.97-11.28.34-.68ZM514.72,637.95h9.4v25.98h17.52v-25.98h9.4v59.83h-9.4v-29.15h-17.52v29.15h-9.4v-59.83ZM536.69,697.1l10.09-12.99,9.23,12.99-.34.68h-18.63l-.34-.68ZM537.71,637.95h17.69l.34.68-8.97,11.28-9.4-11.28.34-.68Z"/>
    <path d="M572.42,695.99c-2.62-1.77-4.86-4.13-6.71-7.09-1.85-2.96-3.28-6.29-4.27-10-1-3.7-1.5-7.46-1.5-11.28,0-4.05.5-7.89,1.5-11.54,1-3.65,2.42-6.89,4.27-9.74,1.85-2.85,4.09-5.1,6.71-6.75,2.62-1.65,5.56-2.48,8.8-2.48s6.18.83,8.8,2.48c2.62,1.65,4.88,3.9,6.79,6.75,1.91,2.85,3.38,6.1,4.4,9.74,1.03,3.65,1.54,7.49,1.54,11.54,0,3.82-.51,7.58-1.54,11.28-1.03,3.71-2.49,7.04-4.4,10-1.91,2.96-4.17,5.33-6.79,7.09-2.62,1.77-5.56,2.65-8.8,2.65s-6.18-.88-8.8-2.65ZM571.43,682.48c.83,3.88,2.05,6.75,3.68,8.63,1.62,1.88,3.66,2.82,6.11,2.82s4.67-.94,6.32-2.82c1.65-1.88,2.89-4.76,3.72-8.63.83-3.87,1.24-8.83,1.24-14.87s-.41-11.04-1.24-14.83c-.83-3.79-2.07-6.57-3.72-8.33-1.65-1.77-3.76-2.65-6.32-2.65s-4.49.88-6.11,2.65c-1.62,1.77-2.85,4.54-3.68,8.33-.83,3.79-1.24,8.73-1.24,14.83s.41,11,1.24,14.87Z"/>
    <path d="M647.72,690.94l5.21,1.54v1.2c-2.45,1.14-4.82,2.08-7.09,2.82-2.28.74-4.5,1.28-6.67,1.62-2.17.34-4.3.51-6.41.51-3.93,0-7.34-.8-10.21-2.39-2.88-1.59-5.24-3.79-7.09-6.58-1.85-2.79-3.22-6.01-4.1-9.66-.88-3.65-1.33-7.55-1.33-11.71,0-4.44.53-8.56,1.58-12.35,1.05-3.79,2.58-7.09,4.57-9.92,1.99-2.82,4.4-5.01,7.22-6.58,2.82-1.57,6-2.35,9.53-2.35,2.16,0,4.16.08,5.98.26,1.82.17,3.7.46,5.64.85v18.21l-1.62.43-8.21-17.01,5.21,1.54h-7.27c-2.39,0-4.4.5-6.03,1.5-1.62,1-2.89,2.56-3.8,4.7-.91,2.14-1.57,4.92-1.97,8.33-.4,3.42-.6,7.55-.6,12.39,0,6.61.47,11.78,1.41,15.51.94,3.73,2.35,6.37,4.23,7.91,1.88,1.54,4.16,2.31,6.84,2.31,1.99,0,3.82-.11,5.47-.34,1.65-.23,3.47-.6,5.47-1.11l-4.96,2.56v-25.39l-10.34-3.25.17-2.05h19.15v26.5Z"/>
    <path d="M656.26,697.1l9.23-12.99,10.94,12.99-.34.68h-19.49l-.34-.68ZM656.69,637.95h6.67l-1.28,6.84-5.73-6.15.34-.68ZM661.65,637.95h16.5c3.99,0,7.38.58,10.17,1.75,2.79,1.17,4.93,2.92,6.41,5.26,1.48,2.34,2.22,5.24,2.22,8.72s-.84,6.62-2.52,9.27c-1.68,2.65-4.08,4.69-7.18,6.11-3.11,1.42-6.83,2.14-11.15,2.14h-7.61v-4.02h6.75c4.39,0,7.52-1.17,9.4-3.5,1.88-2.34,2.82-5.67,2.82-10,0-2.62-.4-4.79-1.2-6.5-.8-1.71-2.02-2.99-3.68-3.85-1.65-.85-3.76-1.28-6.32-1.28h-5.21v55.73h-9.4v-59.83ZM684.13,667.18c1.08,3.08,2.12,5.96,3.12,8.63,1,2.68,2.08,5.29,3.25,7.82,1.17,2.54,2.49,5.1,3.97,7.69,1.48,2.59,3.22,5.34,5.21,8.25l-.77,1.03c-5.07-2.05-9.13-4.47-12.18-7.26-3.05-2.79-5.46-6.14-7.22-10.04-1.77-3.9-3.36-8.5-4.79-13.8l9.4-2.31Z"/>
    <path d="M697.46,697.1l7.86-8.8,9.66,8.8-.34.68h-16.84l-.34-.68ZM717.12,642.31l-.26,5.73-3.85-9.66.26-.43h11.8l17.35,59.83h-10.34l-12.65-46.33h-.51l-11.79,46.33h-5.98l15.98-55.47ZM709,677.7h21.8v4.7h-21.8v-4.7ZM724.98,697.1l9.66-10.86,9.83,10.86-.34.68h-18.8l-.34-.68Z"/>
    <path d="M746.61,697.1l9.23-12.99,10.08,12.99-.34.68h-18.63l-.34-.68ZM747.03,637.95h6.67l-1.28,6.84-5.73-6.15.34-.68ZM751.99,637.95h12.99c3.25,0,6.32.58,9.23,1.75,2.91,1.17,5.27,3.11,7.09,5.81,1.82,2.71,2.74,6.34,2.74,10.9,0,3.19-.57,5.94-1.71,8.25-1.14,2.31-2.66,4.2-4.57,5.68-1.91,1.48-4.03,2.58-6.37,3.29-2.34.71-4.7,1.07-7.09,1.07h-4.7v-4.1h4.02c2.05,0,3.97-.41,5.77-1.24,1.79-.83,3.23-2.28,4.32-4.36,1.08-2.08,1.62-4.94,1.62-8.59s-.54-6.5-1.62-8.55c-1.08-2.05-2.52-3.5-4.32-4.36s-3.72-1.28-5.77-1.28h-2.22v55.56h-9.4v-59.83Z"/>
    <path d="M785.84,697.1l9.23-12.99,10.17,12.99-.34.68h-18.72l-.34-.68ZM786.44,637.95h17.69l.34.68-9.4,11.28-8.97-11.28.34-.68ZM790.79,637.95h9.4v25.98h17.52v-25.98h9.4v59.83h-9.4v-29.15h-17.52v29.15h-9.4v-59.83ZM812.76,697.1l10.08-12.99,9.23,12.99-.34.68h-18.63l-.34-.68ZM813.79,637.95h17.69l.34.68-8.98,11.28-9.4-11.28.34-.68Z"/>
    <path d="M834.81,637.95h19.92l.26.43-9.06,9.74-11.37-9.74.26-.43ZM848.75,637.95l9.66,28.29h.51l9.4-28.29h5.13l-14.62,41.11h-5.38l-15.73-41.11h11.03ZM847.63,697.1l8.8-12.99,8.8,12.99-.34.68h-16.92l-.34-.68ZM851.74,671.37h9.4v26.41h-9.4v-26.41ZM861.74,637.95h14.36l.26.43-7.69,7.44-7.09-7.44.17-.43Z"/>
    <path d="M142.15,801.3l7.27-4.87,10.85,4.87-.17.68h-17.61l-.34-.68ZM152.49,745.74l1.2,7.78-5.9-10.94.26-.43h5.98l14.19,49.32h1.28l13.68-49.32h5.73l.17.43-5.73,11.03,1.45-7.26,5.04,55.64h-3.5l-3.93-44.36h-1.28l-12.39,44.79h-.94l-12.82-44.79h-1.28l-3.33,44.36h-2.22l4.36-56.24ZM177.96,801.3l10.26-4.87,7.52,4.87-.34.68h-17.18l-.26-.68Z"/>
    <path d="M197.62,801.3l8.55-5.3.85,5.98h-9.06l-.34-.68ZM198.47,742.15h8.97l-1.28,5.56-8.03-4.87.34-.68ZM205.74,742.15h23.85l.94,15.21-.77.17-6.92-13.42h-13.68v25.56h9.57l3.25-6.67h.94l2.14,18.38-.68.17-5.64-9.74h-9.57v28.04h15.73l6.75-15.73.77.17-.85,17.69h-25.81v-59.83Z"/>
    <path d="M235.57,758.39l1.54-16.24h33.25l1.54,16.24-.94.26-6.33-14.36h-21.8l-6.33,14.36-.94-.26ZM243.6,801.3l10.09-5.3,10.09,5.3-.34.68h-19.49l-.34-.68ZM251.98,742.15h3.42v59.83h-3.42v-59.83Z"/>
    <path d="M267.28,801.3l6.84-4.87,8.97,4.87-.34.68h-15.13l-.34-.68ZM285.83,747.54l-.34,2.56-4.02-7.52.26-.43h6.67l15.39,59.83h-3.76l-12.31-48.72h-1.28l-12.48,48.72h-2.31l14.19-54.45ZM277.45,783.09h19.74v2.14h-19.74v-2.14ZM291.04,801.3l9.92-4.87,7.01,4.87-.34.68h-16.24l-.34-.68Z"/>
    <path d="M310.27,801.3l9.15-4.87,10.09,4.87-.34.68h-18.55l-.34-.68ZM311.13,742.15h8.46l-.85,5.56-7.95-4.87.34-.68ZM318.31,742.15h8.03c3.7,0,6.94.64,9.7,1.92,2.76,1.28,4.91,3.11,6.45,5.47,1.54,2.37,2.31,5.14,2.31,8.33,0,3.36-.76,6.37-2.27,9.02-1.51,2.65-3.66,4.72-6.45,6.2-2.79,1.48-6.1,2.22-9.91,2.22h-6.33v-2.14h5.47c5.47,0,9.44-1.08,11.92-3.25,2.48-2.17,3.72-5.9,3.72-11.2,0-3.59-.51-6.44-1.54-8.55-1.03-2.11-2.72-3.62-5.09-4.53-2.37-.91-5.57-1.37-9.62-1.37h-2.99v57.69h-3.42v-59.83ZM333.18,773.61c.68,3.08,1.4,5.87,2.14,8.38.74,2.51,1.64,4.86,2.69,7.05,1.05,2.19,2.44,4.39,4.15,6.58,1.71,2.19,3.87,4.57,6.5,7.14l-.6.94c-3.82-2.68-6.94-5.43-9.36-8.25-2.42-2.82-4.33-5.93-5.73-9.32-1.4-3.39-2.52-7.25-3.38-11.58l3.59-.94Z"/>
    <path d="M350.78,801.3l8.55-5.3.85,5.98h-9.06l-.34-.68ZM351.64,742.15h8.97l-1.28,5.56-8.03-4.87.34-.68ZM358.9,742.15h23.85l.94,15.21-.77.17-6.92-13.42h-13.68v25.56h9.57l3.25-6.67h.94l2.14,18.38-.68.17-5.64-9.74h-9.57v28.04h15.73l6.75-15.73.77.17-.85,17.69h-25.81v-59.83Z"/>
    <path d="M399.93,800.32c-2-1.68-3.65-3.92-4.96-6.71-1.31-2.79-2.29-5.9-2.95-9.32-.66-3.42-.98-6.87-.98-10.34,0-4.96.37-9.43,1.11-13.42.74-3.99,1.87-7.42,3.38-10.3,1.51-2.88,3.46-5.09,5.85-6.62,2.39-1.54,5.21-2.31,8.46-2.31,1.77,0,3.45.1,5.04.3,1.59.2,3.19.53,4.79.98v15.81l-.77.26-6.41-16.15,3.42.94h-7.09c-2.73,0-5.17.83-7.31,2.48-2.14,1.65-3.8,4.54-5,8.68-1.2,4.13-1.79,9.9-1.79,17.31,0,9.29,1.12,16.31,3.38,21.07,2.25,4.76,5.37,7.14,9.36,7.14,3.7,0,6.54-1.55,8.5-4.66,1.97-3.1,3.58-7.88,4.83-14.32l1.28.26c-1.08,7.24-2.89,12.62-5.43,16.15-2.54,3.53-5.74,5.3-9.62,5.3-2.73,0-5.1-.84-7.09-2.52Z"/>
    <path d="M425.57,742.15h17.52l.17.51-10.85,5.3-7.01-5.3.17-.51ZM437.8,800.4c-2.34-1.62-4.12-3.83-5.34-6.62-1.23-2.79-1.84-5.87-1.84-9.23v-42.39h3.42v40.69c0,5.64,1.07,9.89,3.21,12.74,2.14,2.85,5.4,4.27,9.79,4.27,3.76,0,6.72-1.21,8.89-3.63,2.16-2.42,3.25-6.25,3.25-11.5v-42.57h2.14v41.03c0,6.67-1.4,11.6-4.19,14.79-2.79,3.19-6.47,4.81-11.03,4.87-3.19,0-5.96-.81-8.29-2.44ZM449.68,742.15h16.84l.17.51-6.58,5.3-10.6-5.3.17-.51Z"/>
    <path d="M468.91,801.3l9.15-4.87,10.09,4.87-.34.68h-18.55l-.34-.68ZM469.76,742.15h8.46l-.85,5.56-7.95-4.87.34-.68ZM476.94,742.15h8.03c3.7,0,6.94.64,9.7,1.92,2.76,1.28,4.91,3.11,6.45,5.47,1.54,2.37,2.31,5.14,2.31,8.33,0,3.36-.76,6.37-2.27,9.02-1.51,2.65-3.66,4.72-6.45,6.2-2.79,1.48-6.1,2.22-9.91,2.22h-6.33v-2.14h5.47c5.47,0,9.44-1.08,11.92-3.25,2.48-2.17,3.72-5.9,3.72-11.2,0-3.59-.51-6.44-1.54-8.55-1.03-2.11-2.72-3.62-5.09-4.53-2.37-.91-5.57-1.37-9.62-1.37h-2.99v57.69h-3.42v-59.83ZM491.81,773.61c.68,3.08,1.4,5.87,2.14,8.38.74,2.51,1.64,4.86,2.69,7.05,1.05,2.19,2.44,4.39,4.15,6.58,1.71,2.19,3.87,4.57,6.5,7.14l-.6.94c-3.82-2.68-6.94-5.43-9.36-8.25-2.42-2.82-4.33-5.93-5.73-9.32-1.4-3.39-2.52-7.25-3.38-11.58l3.59-.94Z"/>
    <path d="M510.96,782.75l1.2-.17,6.75,19.06-3.85-1.11,6.84.17c3.3.06,5.84-.91,7.61-2.91,1.77-1.99,2.65-4.62,2.65-7.86,0-1.99-.2-3.68-.6-5.04-.4-1.37-1.07-2.69-2.01-3.97-.94-1.28-2.24-2.72-3.89-4.32l-6.67-6.5c-2.45-2.45-4.37-4.97-5.77-7.56-1.4-2.59-2.09-5.4-2.09-8.42,0-2.51.44-4.71,1.32-6.62.88-1.91,2.28-3.42,4.19-4.53,1.91-1.11,4.34-1.67,7.31-1.67,1.65,0,3.1.1,4.36.3,1.25.2,2.68.53,4.27.98v14.1l-.77.26-6.67-14.27,3.33.6h-6.15c-2.39,0-4.37.85-5.94,2.56-1.57,1.71-2.35,4.02-2.35,6.92s.47,5.27,1.41,7.26c.94,2,2.44,3.99,4.49,5.98l7.78,7.52c2.68,2.51,4.63,4.92,5.85,7.22,1.22,2.31,1.84,5.03,1.84,8.16,0,2.68-.57,5.07-1.71,7.18-1.14,2.11-2.66,3.76-4.57,4.96-1.91,1.2-4.03,1.79-6.37,1.79-2.05,0-4.12-.16-6.2-.47-2.08-.31-3.95-.73-5.6-1.24v-18.38Z"/>
    <path d="M539.42,801.3l9.23-4.87,9.23,4.87-.34.68h-17.78l-.34-.68ZM540.02,742.15h17.27l.17.51-8.8,5.04-8.8-5.04.17-.51ZM546.94,742.15h3.42v59.83h-3.42v-59.83Z"/>
    <path d="M560.7,742.15h17.18l.26.43-11.03,4.7-6.58-4.7.17-.43ZM567.8,742.15l13.76,49.66h1.28l13.08-49.66h2.39l-16.33,60.26h-.85l-17.01-60.26h3.67ZM586.17,742.15h16.41l.26.43-6.84,4.7-10-4.7.17-.43Z"/>
    <path d="M604.46,801.3l8.55-5.3.85,5.98h-9.06l-.34-.68ZM605.32,742.15h8.98l-1.28,5.56-8.04-4.87.34-.68ZM612.58,742.15h23.85l.94,15.21-.77.17-6.92-13.42h-13.68v25.56h9.57l3.25-6.67h.94l2.14,18.38-.68.17-5.64-9.74h-9.57v28.04h15.73l6.75-15.73.77.17-.86,17.69h-25.81v-59.83Z"/>
    <path d="M144.29,857.01l1.2-.17,6.75,19.06-3.85-1.11,6.84.17c3.3.06,5.84-.91,7.61-2.91,1.77-1.99,2.65-4.62,2.65-7.86,0-1.99-.2-3.68-.6-5.04-.4-1.37-1.07-2.69-2.01-3.97-.94-1.28-2.24-2.72-3.89-4.32l-6.67-6.5c-2.45-2.45-4.37-4.97-5.77-7.56-1.4-2.59-2.09-5.4-2.09-8.42,0-2.51.44-4.71,1.32-6.62.88-1.91,2.28-3.42,4.19-4.53,1.91-1.11,4.34-1.67,7.31-1.67,1.65,0,3.1.1,4.36.3,1.25.2,2.68.53,4.27.98v14.1l-.77.26-6.67-14.27,3.33.6h-6.15c-2.39,0-4.37.85-5.94,2.56-1.57,1.71-2.35,4.02-2.35,6.92s.47,5.27,1.41,7.26c.94,2,2.44,3.99,4.49,5.98l7.78,7.52c2.68,2.51,4.63,4.92,5.85,7.22,1.22,2.31,1.84,5.03,1.84,8.16,0,2.68-.57,5.07-1.71,7.18-1.14,2.11-2.66,3.76-4.57,4.96-1.91,1.2-4.03,1.79-6.37,1.79-2.05,0-4.12-.16-6.2-.47-2.08-.31-3.95-.73-5.6-1.24v-18.38Z"/>
    <path d="M170.27,875.56l8.55-5.3.85,5.98h-9.06l-.34-.68ZM171.12,816.41h8.97l-1.28,5.56-8.03-4.87.34-.68ZM178.39,816.41h23.85l.94,15.21-.77.17-6.92-13.42h-13.68v25.56h9.57l3.25-6.67h.94l2.14,18.38-.68.17-5.64-9.74h-9.57v28.04h15.73l6.75-15.73.77.17-.85,17.69h-25.81v-59.83Z"/>
    <path d="M208.3,875.56l8.55-5.3.85,5.98h-9.06l-.34-.68ZM208.9,816.41h18.55l.17.51-10.09,5.04-8.8-5.04.17-.51ZM216.42,816.41h3.42v57.69h14.19l5.81-15.73,1.03.17-.68,17.69h-23.76v-59.83Z"/>
    <path d="M244.88,875.56l9.23-4.87,12.22,4.87-.34.68h-20.77l-.34-.68ZM245.74,816.41h8.55l-.85,5.56-8.03-4.87.34-.68ZM253,816.41h24.7l1.28,17.18-.77.17-6.75-15.21h-15.04v28.21h8.97l2.91-7.18h.94l2.31,18.97-.85.17-5.3-9.83h-8.97v27.35h-3.42v-59.83Z"/>
    <path d="M281.3,875.56l8.55-5.3.85,5.98h-9.06l-.34-.68ZM282.15,816.41h8.97l-1.28,5.56-8.03-4.87.34-.68ZM289.42,816.41h23.85l.94,15.21-.77.17-6.92-13.42h-13.68v25.56h9.57l3.25-6.67h.94l2.14,18.38-.68.17-5.64-9.74h-9.57v28.04h15.73l6.75-15.73.77.17-.85,17.69h-25.81v-59.83Z"/>
    <path d="M317.19,816.41h17.18l.26.43-11.03,4.7-6.58-4.7.17-.43ZM324.29,816.41l13.76,49.66h1.28l13.08-49.66h2.39l-16.33,60.26h-.85l-17.01-60.26h3.68ZM342.67,816.41h16.41l.26.43-6.84,4.7-10-4.7.17-.43Z"/>
    <path d="M352.66,875.56l6.84-4.87,8.97,4.87-.34.68h-15.13l-.34-.68ZM371.21,821.8l-.34,2.56-4.02-7.52.26-.43h6.67l15.39,59.83h-3.76l-12.31-48.72h-1.28l-12.48,48.72h-2.31l14.19-54.45ZM362.84,857.35h19.74v2.14h-19.74v-2.14ZM376.43,875.56l9.92-4.87,7.01,4.87-.34.68h-16.24l-.34-.68Z"/>
    <path d="M395.31,875.56l8.55-5.3.85,5.98h-9.06l-.34-.68ZM395.91,816.41h18.55l.17.51-10.09,5.04-8.8-5.04.17-.51ZM403.43,816.41h3.42v57.69h14.19l5.81-15.73,1.03.17-.68,17.69h-23.76v-59.83Z"/>
    <path d="M429.5,816.41h17.52l.17.51-10.85,5.3-7.01-5.3.17-.51ZM441.73,874.66c-2.34-1.62-4.12-3.83-5.34-6.62-1.23-2.79-1.84-5.87-1.84-9.23v-42.39h3.42v40.69c0,5.64,1.07,9.89,3.21,12.74,2.14,2.85,5.4,4.27,9.79,4.27,3.76,0,6.72-1.21,8.89-3.63,2.16-2.42,3.25-6.25,3.25-11.5v-42.57h2.14v41.03c0,6.67-1.4,11.6-4.19,14.79-2.79,3.19-6.47,4.81-11.03,4.87-3.19,0-5.96-.81-8.29-2.44ZM453.61,816.41h16.84l.17.51-6.58,5.3-10.6-5.3.17-.51Z"/>
    <path d="M468.39,875.56l6.84-4.87,8.97,4.87-.34.68h-15.13l-.34-.68ZM486.94,821.8l-.34,2.56-4.02-7.52.26-.43h6.67l15.39,59.83h-3.76l-12.31-48.72h-1.28l-12.48,48.72h-2.31l14.19-54.45ZM478.56,857.35h19.74v2.14h-19.74v-2.14ZM492.15,875.56l9.92-4.87,7.01,4.87-.34.68h-16.24l-.34-.68Z"/>
    <path d="M506.77,832.65l1.54-16.24h33.25l1.54,16.24-.94.26-6.33-14.36h-21.8l-6.33,14.36-.94-.26ZM514.8,875.56l10.09-5.3,10.09,5.3-.34.68h-19.49l-.34-.68ZM523.18,816.41h3.42v59.83h-3.42v-59.83Z"/>
    <path d="M545.74,875.56l9.23-4.87,9.23,4.87-.34.68h-17.78l-.34-.68ZM546.34,816.41h17.27l.17.51-8.8,5.04-8.8-5.04.17-.51ZM553.27,816.41h3.42v59.83h-3.42v-59.83Z"/>
    <path d="M579.59,874.96c-2.17-1.42-4.05-3.49-5.64-6.2-1.6-2.71-2.82-6-3.68-9.87-.85-3.88-1.28-8.26-1.28-13.16,0-4.45.43-8.5,1.28-12.18.86-3.68,2.08-6.87,3.68-9.57,1.59-2.71,3.47-4.79,5.64-6.24,2.16-1.45,4.53-2.18,7.09-2.18s5.01.73,7.18,2.18c2.17,1.45,4.05,3.53,5.64,6.24,1.59,2.71,2.82,5.9,3.67,9.57.86,3.67,1.28,7.73,1.28,12.18,0,4.9-.43,9.29-1.28,13.16-.85,3.88-2.08,7.17-3.67,9.87-1.6,2.71-3.48,4.77-5.64,6.2-2.17,1.42-4.56,2.14-7.18,2.14s-4.93-.71-7.09-2.14ZM574.5,861.03c.83,4.39,2.22,7.81,4.19,10.26s4.63,3.67,7.99,3.67,6.11-1.22,8.08-3.67,3.36-5.87,4.19-10.26c.83-4.39,1.24-9.49,1.24-15.3,0-5.18-.41-9.9-1.24-14.15-.83-4.24-2.22-7.62-4.19-10.13-1.97-2.51-4.66-3.76-8.08-3.76s-6.03,1.25-7.99,3.76c-1.97,2.51-3.36,5.88-4.19,10.13-.83,4.25-1.24,8.96-1.24,14.15,0,5.81.41,10.91,1.24,15.3Z"/>
    <path d="M628.05,875.56l-.17.68h-19.92l-.17-.68,8.55-5.73,11.71,5.73ZM615.49,876.24v-52.48l1.28,3.76-8.21-10.68.17-.43h5.98l26.41,49.75-3.25-1.62h3.33v-48.12h2.14v60.26h-.51l-25.47-48.12,3.16,2.39h-2.91v45.3h-2.14ZM630.87,816.92l.17-.51h18.63l.17.51-7.44,5.04-11.54-5.04Z"/>
    <path d="M653.69,857.01l1.2-.17,6.75,19.06-3.85-1.11,6.84.17c3.3.06,5.84-.91,7.61-2.91,1.77-1.99,2.65-4.62,2.65-7.86,0-1.99-.2-3.68-.6-5.04-.4-1.37-1.07-2.69-2.01-3.97s-2.24-2.72-3.89-4.32l-6.67-6.5c-2.45-2.45-4.37-4.97-5.77-7.56-1.4-2.59-2.09-5.4-2.09-8.42,0-2.51.44-4.71,1.33-6.62.88-1.91,2.28-3.42,4.19-4.53,1.91-1.11,4.34-1.67,7.31-1.67,1.65,0,3.11.1,4.36.3,1.25.2,2.68.53,4.27.98v14.1l-.77.26-6.67-14.27,3.33.6h-6.15c-2.39,0-4.37.85-5.94,2.56-1.57,1.71-2.35,4.02-2.35,6.92s.47,5.27,1.41,7.26c.94,2,2.44,3.99,4.49,5.98l7.78,7.52c2.68,2.51,4.63,4.92,5.86,7.22,1.22,2.31,1.84,5.03,1.84,8.16,0,2.68-.57,5.07-1.71,7.18-1.14,2.11-2.66,3.76-4.57,4.96-1.91,1.2-4.03,1.79-6.37,1.79-2.05,0-4.12-.16-6.2-.47-2.08-.31-3.95-.73-5.6-1.24v-18.38Z"/>
    <path d="M142.58,979.76l9.23-12.99,10.09,12.99-.34.68h-18.63l-.34-.68ZM143,920.61h6.67l-1.28,6.84-5.73-6.15.34-.68ZM147.96,920.61h12.99c3.25,0,6.33.58,9.23,1.75,2.91,1.17,5.27,3.11,7.09,5.81,1.82,2.71,2.73,6.34,2.73,10.9,0,3.19-.57,5.94-1.71,8.25-1.14,2.31-2.66,4.2-4.57,5.68-1.91,1.48-4.03,2.58-6.37,3.29-2.34.71-4.7,1.07-7.09,1.07h-4.7v-4.1h4.02c2.05,0,3.97-.41,5.77-1.24,1.79-.83,3.23-2.28,4.32-4.36,1.08-2.08,1.62-4.94,1.62-8.59s-.54-6.5-1.62-8.55c-1.08-2.05-2.52-3.5-4.32-4.36s-3.72-1.28-5.77-1.28h-2.22v55.56h-9.4v-59.83Z"/>
    <path d="M196.85,978.65c-2.62-1.77-4.86-4.13-6.71-7.09-1.85-2.96-3.28-6.29-4.27-10-1-3.7-1.5-7.46-1.5-11.28,0-4.05.5-7.89,1.5-11.54,1-3.65,2.42-6.89,4.27-9.74,1.85-2.85,4.09-5.1,6.71-6.75,2.62-1.65,5.56-2.48,8.8-2.48s6.18.83,8.8,2.48c2.62,1.65,4.89,3.9,6.8,6.75,1.91,2.85,3.38,6.1,4.4,9.74,1.03,3.65,1.54,7.49,1.54,11.54,0,3.82-.51,7.58-1.54,11.28-1.03,3.71-2.49,7.04-4.4,10-1.91,2.96-4.17,5.33-6.8,7.09-2.62,1.77-5.56,2.65-8.8,2.65s-6.18-.88-8.8-2.65ZM195.87,965.15c.83,3.88,2.05,6.75,3.68,8.63,1.62,1.88,3.66,2.82,6.11,2.82s4.67-.94,6.33-2.82c1.65-1.88,2.89-4.76,3.72-8.63.83-3.87,1.24-8.83,1.24-14.87s-.41-11.04-1.24-14.83c-.83-3.79-2.07-6.57-3.72-8.33-1.65-1.77-3.76-2.65-6.33-2.65s-4.49.88-6.11,2.65c-1.62,1.77-2.85,4.54-3.68,8.33-.83,3.79-1.24,8.73-1.24,14.83s.41,11,1.24,14.87Z"/>
    <path d="M232.58,959.33l1.45-.43,9.15,19.66-4.96-1.71,7.95.17c3.48.06,5.97-.58,7.48-1.92,1.51-1.34,2.27-3.46,2.27-6.37,0-1.48-.19-2.76-.56-3.85-.37-1.08-.97-2.12-1.79-3.12-.83-1-1.95-2.04-3.38-3.12l-7.86-6.24c-2.79-2.17-5.04-4.73-6.75-7.69s-2.56-6.04-2.56-9.23c0-2.96.54-5.63,1.62-7.99,1.08-2.36,2.79-4.25,5.13-5.64,2.34-1.4,5.38-2.09,9.15-2.09,2.16,0,4.27.11,6.32.34,2.05.23,3.85.48,5.38.77v17.35l-1.45.26-8.21-15.9,2.22,1.45h-5.38c-2.85,0-4.87.74-6.07,2.22-1.2,1.48-1.8,3.53-1.8,6.15,0,2,.4,3.65,1.2,4.96.8,1.31,2.14,2.68,4.02,4.1l8.46,6.33c3.48,2.56,6.14,5.13,7.99,7.69,1.85,2.56,2.78,5.61,2.78,9.15,0,3.13-.64,5.96-1.92,8.46-1.28,2.51-3.25,4.5-5.9,5.98-2.65,1.48-6.06,2.22-10.21,2.22-2.51,0-5-.27-7.48-.81-2.48-.54-4.57-1.27-6.28-2.18v-18.98Z"/>
    <path d="M263.86,938.48l2.91-17.86h38.63l2.91,17.86-1.37.51-9.74-14.1h-22.22l-9.74,14.1-1.37-.51ZM275.48,979.76l10.51-12.56,10.51,12.56-.34.68h-20.34l-.34-.68ZM281.38,920.61h9.4v59.83h-9.4v-59.83Z"/>
    <path d="M310.36,979.76l9.23-12.99,10.17,12.99-.34.68h-18.72l-.34-.68ZM310.96,920.61h17.69l.34.68-9.4,11.28-8.97-11.28.34-.68ZM315.32,920.61h9.4v25.98h17.52v-25.98h9.4v59.83h-9.4v-29.15h-17.52v29.15h-9.4v-59.83ZM337.28,979.76l10.09-12.99,9.23,12.99-.34.68h-18.63l-.34-.68ZM338.31,920.61h17.69l.34.68-8.97,11.28-9.4-11.28.34-.68Z"/>
    <path d="M362.41,979.76l8.8-14.27,8.8,14.27-.34.68h-16.92l-.34-.68ZM363.01,920.61h16.41l.34.68-8.55,12.99-8.55-12.99.34-.68ZM366.51,920.61h9.4v59.83h-9.4v-59.83Z"/>
    <path d="M385.57,959.33l1.45-.43,9.15,19.66-4.96-1.71,7.95.17c3.48.06,5.97-.58,7.48-1.92,1.51-1.34,2.27-3.46,2.27-6.37,0-1.48-.19-2.76-.56-3.85-.37-1.08-.97-2.12-1.79-3.12-.83-1-1.95-2.04-3.38-3.12l-7.86-6.24c-2.79-2.17-5.04-4.73-6.75-7.69s-2.56-6.04-2.56-9.23c0-2.96.54-5.63,1.62-7.99,1.08-2.36,2.79-4.25,5.13-5.64,2.34-1.4,5.38-2.09,9.15-2.09,2.16,0,4.27.11,6.32.34,2.05.23,3.85.48,5.38.77v17.35l-1.45.26-8.21-15.9,2.22,1.45h-5.38c-2.85,0-4.87.74-6.07,2.22-1.2,1.48-1.8,3.53-1.8,6.15,0,2,.4,3.65,1.2,4.96.8,1.31,2.14,2.68,4.02,4.1l8.46,6.33c3.48,2.56,6.14,5.13,7.99,7.69,1.85,2.56,2.78,5.61,2.78,9.15,0,3.13-.64,5.96-1.92,8.46-1.28,2.51-3.25,4.5-5.9,5.98-2.65,1.48-6.06,2.22-10.21,2.22-2.51,0-5-.27-7.48-.81-2.48-.54-4.57-1.27-6.28-2.18v-18.98Z"/>
    <path d="M417.71,938.48l2.91-17.86h38.63l2.91,17.86-1.37.51-9.74-14.1h-22.22l-9.74,14.1-1.37-.51ZM429.33,979.76l10.51-12.56,10.51,12.56-.34.68h-20.34l-.34-.68ZM435.23,920.61h9.4v59.83h-9.4v-59.83Z"/>
    <path d="M477.71,978.65c-2.62-1.77-4.86-4.13-6.71-7.09-1.85-2.96-3.28-6.29-4.27-10-1-3.7-1.5-7.46-1.5-11.28,0-4.05.5-7.89,1.5-11.54,1-3.65,2.42-6.89,4.27-9.74,1.85-2.85,4.09-5.1,6.71-6.75,2.62-1.65,5.56-2.48,8.8-2.48s6.18.83,8.8,2.48c2.62,1.65,4.89,3.9,6.8,6.75,1.91,2.85,3.38,6.1,4.4,9.74,1.03,3.65,1.54,7.49,1.54,11.54,0,3.82-.51,7.58-1.54,11.28-1.03,3.71-2.49,7.04-4.4,10-1.91,2.96-4.17,5.33-6.8,7.09-2.62,1.77-5.56,2.65-8.8,2.65s-6.18-.88-8.8-2.65ZM476.73,965.15c.83,3.88,2.05,6.75,3.68,8.63,1.62,1.88,3.66,2.82,6.11,2.82s4.67-.94,6.33-2.82c1.65-1.88,2.89-4.76,3.72-8.63.83-3.87,1.24-8.83,1.24-14.87s-.41-11.04-1.24-14.83c-.83-3.79-2.07-6.57-3.72-8.33-1.65-1.77-3.76-2.65-6.33-2.65s-4.49.88-6.11,2.65c-1.62,1.77-2.85,4.54-3.68,8.33-.83,3.79-1.24,8.73-1.24,14.83s.41,11,1.24,14.87Z"/>
    <path d="M510.87,979.76l9.23-12.99,10.94,12.99-.34.68h-19.49l-.34-.68ZM511.3,920.61h6.67l-1.28,6.84-5.73-6.15.34-.68ZM516.26,920.61h16.5c3.99,0,7.38.58,10.17,1.75,2.79,1.17,4.93,2.92,6.41,5.26,1.48,2.34,2.22,5.24,2.22,8.72s-.84,6.62-2.52,9.27c-1.68,2.65-4.08,4.69-7.18,6.11-3.11,1.42-6.82,2.14-11.15,2.14h-7.61v-4.02h6.75c4.39,0,7.52-1.17,9.4-3.5,1.88-2.34,2.82-5.67,2.82-10,0-2.62-.4-4.79-1.2-6.5-.8-1.71-2.02-2.99-3.68-3.85-1.65-.85-3.76-1.28-6.33-1.28h-5.21v55.73h-9.4v-59.83ZM538.74,949.85c1.08,3.08,2.12,5.96,3.12,8.63,1,2.68,2.08,5.29,3.25,7.82,1.17,2.54,2.49,5.1,3.97,7.69,1.48,2.59,3.22,5.34,5.21,8.25l-.77,1.03c-5.07-2.05-9.13-4.47-12.18-7.26-3.05-2.79-5.46-6.14-7.22-10.04-1.77-3.9-3.36-8.5-4.79-13.8l9.4-2.31Z"/>
    <path d="M558.06,979.76l8.8-14.27,8.8,14.27-.34.68h-16.92l-.34-.68ZM558.65,920.61h16.41l.34.68-8.55,12.99-8.55-12.99.34-.68ZM562.16,920.61h9.4v59.83h-9.4v-59.83Z"/>
    <path d="M578.91,979.76l7.86-8.8,9.66,8.8-.34.68h-16.84l-.34-.68ZM598.57,924.97l-.26,5.73-3.85-9.66.26-.43h11.8l17.35,59.83h-10.34l-12.65-46.33h-.51l-11.79,46.33h-5.98l15.98-55.47ZM590.45,960.36h21.8v4.7h-21.8v-4.7ZM606.43,979.76l9.66-10.86,9.83,10.86-.34.68h-18.8l-.34-.68Z"/>
    <path d="M648.14,979.76l-.34.68h-19.66l-.34-.68,7.95-11.28,12.39,11.28ZM634.29,980.45v-54.87l1.03,5.98-7.44-10.34.26-.6h13.25l22.91,43.59-5.64-2.91h4.36v-40.69h4.7v59.83h-5.98l-24.45-46.58,4.02,3.59h-2.31v42.99h-4.7ZM653.87,921.3l.34-.68h18.98l.34.68-7.69,10.43-11.97-10.43Z"/>
    <path d="M142.75,1054.02l9.23-12.99,10.94,12.99-.34.68h-19.49l-.34-.68ZM143.17,994.87h6.67l-1.28,7.95-5.73-7.27.34-.68ZM148.13,994.87h29.15l1.45,19.23-1.37.43-8.03-15.38h-12.22v24.1h7.18l3.76-6.58h1.28l2.91,19.74-1.28.77-6.67-9.66h-7.18v27.18h-8.97v-59.83Z"/>
    <path d="M181.38,994.87h18.98l.34.68-11.88,11.28-7.78-11.28.34-.68ZM194.42,1053.29c-2.76-1.51-4.89-3.66-6.37-6.45-1.48-2.79-2.22-6.04-2.22-9.74v-42.22h9.4v40c0,5.07.88,8.61,2.65,10.6,1.77,2,4.56,2.99,8.38,2.99,3.36,0,5.97-.9,7.82-2.69,1.85-1.79,2.78-4.92,2.78-9.36v-41.54h5.13v39.83c0,6.84-1.62,12.02-4.87,15.56-3.25,3.53-7.58,5.3-12.99,5.3-3.71,0-6.94-.76-9.7-2.26ZM208.56,994.87h18.04l.34.68-7.18,9.57-11.54-9.57.34-.68Z"/>
    <path d="M228.48,1012.74l2.91-17.86h38.63l2.91,17.86-1.37.51-9.74-14.1h-22.22l-9.74,14.1-1.37-.51ZM240.1,1054.02l10.51-12.56,10.51,12.56-.34.68h-20.34l-.34-.68ZM246,994.87h9.4v59.83h-9.4v-59.83Z"/>
    <path d="M274.37,994.87h18.98l.34.68-11.88,11.28-7.78-11.28.34-.68ZM287.41,1053.29c-2.76-1.51-4.89-3.66-6.37-6.45-1.48-2.79-2.22-6.04-2.22-9.74v-42.22h9.4v40c0,5.07.88,8.61,2.65,10.6,1.77,2,4.56,2.99,8.38,2.99,3.36,0,5.97-.9,7.82-2.69,1.85-1.79,2.78-4.92,2.78-9.36v-41.54h5.13v39.83c0,6.84-1.62,12.02-4.87,15.56-3.25,3.53-7.58,5.3-12.99,5.3-3.71,0-6.94-.76-9.7-2.26ZM301.55,994.87h18.04l.34.68-7.18,9.57-11.54-9.57.34-.68Z"/>
    <path d="M323.01,1054.02l9.23-12.99,10.94,12.99-.34.68h-19.49l-.34-.68ZM323.43,994.87h6.67l-1.28,6.84-5.73-6.15.34-.68ZM328.39,994.87h16.5c3.99,0,7.38.58,10.17,1.75,2.79,1.17,4.93,2.92,6.41,5.26,1.48,2.34,2.22,5.24,2.22,8.72s-.84,6.62-2.52,9.27c-1.68,2.65-4.07,4.69-7.18,6.11-3.11,1.42-6.82,2.14-11.15,2.14h-7.61v-4.02h6.75c4.39,0,7.52-1.17,9.4-3.5,1.88-2.34,2.82-5.67,2.82-10,0-2.62-.4-4.79-1.2-6.5-.8-1.71-2.02-2.99-3.68-3.85-1.65-.85-3.76-1.28-6.33-1.28h-5.21v55.73h-9.4v-59.83ZM350.87,1024.11c1.08,3.08,2.12,5.96,3.12,8.63,1,2.68,2.08,5.29,3.25,7.82,1.17,2.54,2.49,5.1,3.97,7.69,1.48,2.59,3.22,5.34,5.21,8.25l-.77,1.03c-5.07-2.05-9.13-4.47-12.18-7.26-3.05-2.79-5.46-6.14-7.22-10.04-1.77-3.9-3.36-8.5-4.79-13.8l9.4-2.31Z"/>
    <path d="M380.7,1052.91c-2.62-1.77-4.86-4.13-6.71-7.09-1.85-2.96-3.28-6.29-4.27-10-1-3.7-1.5-7.46-1.5-11.28,0-4.05.5-7.89,1.5-11.54,1-3.65,2.42-6.89,4.27-9.74,1.85-2.85,4.09-5.1,6.71-6.75,2.62-1.65,5.56-2.48,8.8-2.48s6.18.83,8.8,2.48c2.62,1.65,4.89,3.9,6.8,6.75,1.91,2.85,3.38,6.1,4.4,9.74,1.03,3.65,1.54,7.49,1.54,11.54,0,3.82-.51,7.58-1.54,11.28-1.03,3.71-2.49,7.04-4.4,10-1.91,2.96-4.17,5.33-6.8,7.09-2.62,1.77-5.56,2.65-8.8,2.65s-6.18-.88-8.8-2.65ZM379.72,1039.41c.83,3.88,2.05,6.75,3.68,8.63,1.62,1.88,3.66,2.82,6.11,2.82s4.67-.94,6.33-2.82c1.65-1.88,2.89-4.76,3.72-8.63.83-3.87,1.24-8.83,1.24-14.87s-.41-11.04-1.24-14.83c-.83-3.79-2.07-6.57-3.72-8.33-1.65-1.77-3.76-2.65-6.33-2.65s-4.49.88-6.11,2.65c-1.62,1.77-2.85,4.54-3.68,8.33-.83,3.79-1.24,8.73-1.24,14.83s.41,11,1.24,14.87Z"/>
    <path d="M413.78,1054.02l5.81-7.69,1.28,8.38h-6.75l-.34-.68ZM414.98,994.87h19.06l.34.68-11.8,10.51-7.95-10.51.34-.68ZM419.16,994.87h9.4v55.56h13.25l8.03-18.12,1.45.43-1.2,21.97h-30.94v-59.83Z"/>
    <path d="M468.22,1052.91c-2.62-1.77-4.86-4.13-6.71-7.09-1.85-2.96-3.28-6.29-4.27-10-1-3.7-1.5-7.46-1.5-11.28,0-4.05.5-7.89,1.5-11.54,1-3.65,2.42-6.89,4.27-9.74,1.85-2.85,4.09-5.1,6.71-6.75,2.62-1.65,5.56-2.48,8.8-2.48s6.18.83,8.8,2.48c2.62,1.65,4.89,3.9,6.8,6.75,1.91,2.85,3.38,6.1,4.4,9.74,1.03,3.65,1.54,7.49,1.54,11.54,0,3.82-.51,7.58-1.54,11.28-1.03,3.71-2.49,7.04-4.4,10-1.91,2.96-4.17,5.33-6.8,7.09-2.62,1.77-5.56,2.65-8.8,2.65s-6.18-.88-8.8-2.65ZM467.24,1039.41c.83,3.88,2.05,6.75,3.68,8.63,1.62,1.88,3.66,2.82,6.11,2.82s4.67-.94,6.33-2.82c1.65-1.88,2.89-4.76,3.72-8.63.83-3.87,1.24-8.83,1.24-14.87s-.41-11.04-1.24-14.83c-.83-3.79-2.07-6.57-3.72-8.33-1.65-1.77-3.76-2.65-6.33-2.65s-4.49.88-6.11,2.65c-1.62,1.77-2.85,4.54-3.68,8.33-.83,3.79-1.24,8.73-1.24,14.83s.41,11,1.24,14.87Z"/>
    <path d="M542.93,1047.87l5.21,1.54v1.2c-2.45,1.14-4.82,2.08-7.09,2.82-2.28.74-4.5,1.28-6.67,1.62-2.17.34-4.3.51-6.41.51-3.93,0-7.34-.8-10.21-2.39-2.88-1.59-5.24-3.79-7.09-6.58-1.85-2.79-3.22-6.01-4.1-9.66-.88-3.65-1.32-7.55-1.32-11.71,0-4.44.53-8.56,1.58-12.35,1.05-3.79,2.58-7.09,4.57-9.92,1.99-2.82,4.4-5.01,7.22-6.58,2.82-1.57,6-2.35,9.53-2.35,2.17,0,4.16.08,5.98.26,1.82.17,3.7.46,5.64.85v18.21l-1.62.43-8.21-17.01,5.21,1.54h-7.27c-2.39,0-4.4.5-6.03,1.5s-2.89,2.56-3.8,4.7c-.91,2.14-1.57,4.92-1.97,8.33-.4,3.42-.6,7.55-.6,12.39,0,6.61.47,11.78,1.41,15.51.94,3.73,2.35,6.37,4.23,7.91,1.88,1.54,4.16,2.31,6.84,2.31,1.99,0,3.82-.11,5.47-.34,1.65-.23,3.48-.6,5.47-1.11l-4.96,2.56v-25.39l-10.34-3.25.17-2.05h19.15v26.5Z"/>
    <path d="M545.75,994.87h19.91l.26.43-9.06,9.74-11.37-9.74.26-.43ZM559.68,994.87l9.66,28.29h.51l9.4-28.29h5.13l-14.62,41.11h-5.38l-15.73-41.11h11.03ZM558.57,1054.02l8.8-12.99,8.8,12.99-.34.68h-16.92l-.34-.68ZM562.67,1028.29h9.4v26.41h-9.4v-26.41ZM572.67,994.87h14.36l.26.43-7.69,7.44-7.1-7.44.17-.43Z"/>
  </g>
  <g>
    <g>
      <rect x="-2.61" y="920.62" width="109.96" height="134.09"/>
      <rect x="-2.61" y="742.15" width="109.96" height="134.09"/>
      <rect x="-2.61" y="563.69" width="109.96" height="134.09"/>
      <rect x="-2.61" y="385.23" width="109.96" height="134.09"/>
      <rect x="-2.61" y="206.77" width="109.96" height="134.09"/>
      <rect x="-2.61" y="28.31" width="109.96" height="134.09"/>
    </g>
    <g>
      <g>
        <path class="cls-1" d="M28.82,157.98l8.53-1.31-11.99,6.46-.47-.28v-6.56l54.06-15.55v-1.41l-54.06-14.99v-6.28l.47-.19,12.09,6.28-7.96-1.59,60.99-5.53v3.84l-48.62,4.31v1.41l49.09,13.58v1.03l-49.09,14.05v1.41l48.62,3.65v2.44l-61.65-4.78ZM89.72,130.06l-5.34-11.24,5.34-8.24.75.38v18.83l-.75.28ZM89.72,169.32l-5.34-7.96,5.34-11.9.75.19v19.3l-.75.37Z"/>
        <path class="cls-1" d="M89.06,96.99c-1.56,2.37-3.83,4.44-6.79,6.18-2.97,1.75-6.57,3.09-10.82,4.03-4.25.94-9.06,1.41-14.43,1.41-4.87,0-9.32-.47-13.35-1.41-4.03-.94-7.53-2.28-10.49-4.03-2.97-1.75-5.25-3.81-6.84-6.18-1.59-2.37-2.39-4.97-2.39-7.78s.8-5.5,2.39-7.87c1.59-2.37,3.87-4.43,6.84-6.18,2.97-1.75,6.46-3.09,10.49-4.03,4.03-.94,8.48-1.41,13.35-1.41,5.37,0,10.18.47,14.43,1.41,4.25.94,7.85,2.28,10.82,4.03,2.97,1.75,5.23,3.81,6.79,6.18,1.56,2.37,2.34,5,2.34,7.87s-.78,5.4-2.34,7.78ZM73.79,102.57c4.81-.9,8.56-2.44,11.24-4.59,2.69-2.15,4.03-5.07,4.03-8.76s-1.34-6.7-4.03-8.85c-2.69-2.15-6.43-3.68-11.24-4.59-4.81-.9-10.4-1.36-16.77-1.36-5.68,0-10.85.45-15.5,1.36-4.65.91-8.35,2.44-11.1,4.59-2.75,2.15-4.12,5.11-4.12,8.85s1.37,6.6,4.12,8.76c2.75,2.15,6.45,3.69,11.1,4.59,4.65.91,9.82,1.36,15.5,1.36,6.37,0,11.96-.45,16.77-1.36Z"/>
        <path class="cls-1" d="M25.45,40.97l-.56-.19v-20.42l.56-.19,5.53,8.15-5.53,12.65ZM90.47,57.83h-57.52l4.12-1.41-11.71,8.99-.47-.19v-6.56l54.52-28.95-1.78,3.56v-3.65H24.89v-2.34h66.05v.56l-52.74,27.92,2.62-3.47v3.19h49.65v2.34ZM89.72,44.06l.75.19v21.83l-.75.19-6.28-9.37,6.28-12.83Z"/>
      </g>
      <g>
        <path class="cls-1" d="M44.47,347.73l-19.58-3.19v-42.35l19.58-3.19.56,1.5-15.46,10.68v24.36l15.46,10.68-.56,1.5ZM24.89,328.53v-10.31h65.58v10.31H24.89ZM89.72,334.99l-13.77-11.52,13.77-11.52.75.38v22.3l-.75.38Z"/>
        <path class="cls-1" d="M24.89,267.35v-19.77l.75-.37,10.49,7.87-10.49,12.65-.75-.38ZM88.92,282.86c-1.65,3.03-4.01,5.36-7.07,6.98-3.06,1.62-6.62,2.44-10.68,2.44H24.89v-10.31h43.84c5.56,0,9.43-.97,11.62-2.9,2.19-1.94,3.28-5,3.28-9.18,0-3.68-.98-6.54-2.95-8.57-1.97-2.03-5.39-3.04-10.26-3.04H24.89v-5.62h43.66c7.49,0,13.18,1.78,17.05,5.34,3.87,3.56,5.81,8.31,5.81,14.24,0,4.06-.83,7.6-2.48,10.63ZM24.89,297.14v-20.8l.75-.37,12.37,13.02-12.37,8.52-.75-.37Z"/>
        <path class="cls-1" d="M24.89,237.65v-32.98l19.77-1.69.37,1.59-15.46,8.9v13.87h23.8v-9.37l-6.37-4.03v-1.31l20.05-3.28.84,1.31-9.84,7.31v9.37h27.73v-16.77l-16.11-8.24.47-1.59,20.33,1.87v35.04H24.89ZM24.89,243.09v-7.31l7.78,1.41-7.03,6.28-.75-.38ZM89.72,243.56l-8.06-6.37,8.81-1.41v7.4l-.75.37Z"/>
      </g>
      <g>
        <path class="cls-1" d="M24.89,481.53v-17.52l.56-.19,5.53,9.18-5.53,8.71-.56-.19ZM24.89,519.56l50.12-9.84-.19-1.41-47.03-10.68v-2.72l47.22-10.96v-1.41l-50.12-9.37v-2.53l66.05,12.74v.94l-52.28,11.99v1.41l52.28,11.71v.94l-66.05,13.21v-4.03ZM24.89,505.51v-17.52l.56-.19,6,8.34-6,9.56-.56-.19ZM24.89,529.5v-19.3l.56-.19,5.53,10.96-5.53,8.71-.56-.19Z"/>
        <path class="cls-1" d="M24.89,452.11v-26.14l16.68-1.03.19.84-14.71,7.59v14.99h28.01v-10.49l-7.31-3.56v-1.03l20.14-2.34.19.75-10.68,6.18v10.49h30.73v-17.24l-17.24-7.4.19-.84,19.39.94v28.29H24.89ZM24.89,460.08v-9.84l6.09,1.41-5.34,8.81-.75-.37ZM89.72,461.01l-5.81-9.37,6.56-.94v9.93l-.75.37Z"/>
        <path class="cls-1" d="M24.89,411.36v-7.78c0-5.5,1.41-10.12,4.22-13.87,2.81-3.75,6.6-6.57,11.38-8.48,4.78-1.9,10.2-2.86,16.25-2.86,4.37,0,8.57.41,12.6,1.22,4.03.81,7.64,2.17,10.82,4.08,3.19,1.91,5.7,4.5,7.54,7.78,1.84,3.28,2.76,7.39,2.76,12.32v5.53h-2.34v-7.21c0-2.75-.52-5.31-1.55-7.68-1.03-2.37-2.73-4.43-5.11-6.18-2.37-1.75-5.57-3.12-9.6-4.12-4.03-1-9.07-1.5-15.13-1.5-5.75,0-10.54.55-14.38,1.64-3.84,1.09-6.9,2.67-9.18,4.73-2.28,2.06-3.92,4.53-4.92,7.4-1,2.87-1.5,6.12-1.5,9.74v1.5h63.71v3.75H24.89ZM24.89,419.32v-9.84l6.09,1.41-5.34,8.81-.75-.37ZM89.72,420.26l-5.81-9.37,6.56-.94v9.93l-.75.37Z"/>
      </g>
      <g>
        <path class="cls-1" d="M44.47,708.73l-19.58-3.18v-42.35l19.58-3.19.56,1.5-15.46,10.68v24.36l15.46,10.68-.56,1.5ZM24.89,689.53v-10.31h65.58v10.31H24.89ZM89.72,695.99l-13.77-11.52,13.77-11.52.75.37v22.3l-.75.37Z"/>
        <path class="cls-1" d="M24.89,627.69v-19.39l.75-.38,12.37,9.84-12.37,10.31-.75-.38ZM24.89,652.89v-10.31h28.48v-19.21h-28.48v-10.31h65.58v10.31h-31.95v19.21h31.95v10.31H24.89ZM24.89,657.67v-19.39l.75-.38,12.37,10.3-12.37,9.84-.75-.38ZM89.72,628.82l-14.24-11.05,14.24-10.12.75.38v20.42l-.75.38ZM89.72,658.33l-14.24-10.12,14.24-11.15.75.38v20.52l-.75.37Z"/>
        <path class="cls-1" d="M24.89,573.17v-19.77l.75-.38,10.49,7.87-10.49,12.65-.75-.38ZM88.92,588.67c-1.65,3.03-4.01,5.36-7.07,6.98-3.06,1.62-6.62,2.44-10.68,2.44H24.89v-10.3h43.84c5.56,0,9.43-.97,11.62-2.9,2.19-1.94,3.28-5,3.28-9.18,0-3.68-.98-6.54-2.95-8.57-1.97-2.03-5.39-3.04-10.26-3.04H24.89v-5.62h43.66c7.49,0,13.18,1.78,17.05,5.34,3.87,3.56,5.81,8.31,5.81,14.24,0,4.06-.83,7.6-2.48,10.63ZM24.89,602.96v-20.8l.75-.38,12.37,13.02-12.37,8.53-.75-.38Z"/>
      </g>
      <g>
        <path class="cls-1" d="M24.89,852.34v-27.08l18.83-1.41.19.84-16.68,7.4v16.49h30.92v-9.84l-7.87-3.19v-1.03l20.8-2.53.19.94-10.77,5.81v9.84h29.98v3.75H24.89ZM24.89,860.3v-9.37l6.09.94-5.34,8.81-.75-.38ZM89.72,861.24l-5.34-10.12,5.34-13.4.75.38v22.77l-.75.38Z"/>
        <path class="cls-1" d="M24.89,812.62v-8.81c0-4.06.7-7.6,2.11-10.63,1.41-3.03,3.4-5.39,6-7.07,2.59-1.69,5.64-2.53,9.13-2.53,3.69,0,6.98.83,9.88,2.48,2.9,1.66,5.17,4.01,6.79,7.07,1.62,3.06,2.44,6.68,2.44,10.87v6.93h-2.34v-6c0-6-1.19-10.35-3.56-13.07-2.37-2.72-6.46-4.08-12.27-4.08-3.93,0-7.06.56-9.37,1.69-2.31,1.12-3.97,2.98-4.97,5.57-1,2.59-1.5,6.11-1.5,10.54v3.28h63.24v3.75H24.89ZM24.89,820.49v-9.27l6.09.94-5.34,8.71-.75-.38ZM59.37,796.32c3.37-.75,6.43-1.53,9.18-2.34,2.75-.81,5.33-1.79,7.73-2.95,2.41-1.16,4.81-2.67,7.21-4.54,2.4-1.87,5.01-4.25,7.82-7.12l1.03.66c-2.93,4.18-5.95,7.6-9.04,10.26-3.09,2.66-6.5,4.75-10.21,6.28-3.72,1.53-7.95,2.76-12.69,3.7l-1.03-3.94ZM89.72,821.43l-5.34-10.02,5.34-11.05.75.37v20.33l-.75.38Z"/>
        <path class="cls-1" d="M24.89,776.46v-18.92l.56-.19,5.53,9.65-5.53,9.65-.56-.19ZM24.89,768.87v-3.75h65.58v3.75H24.89ZM89.72,777.11l-5.34-10.12,5.34-10.12.75.37v19.49l-.75.37Z"/>
      </g>
      <g>
        <path class="cls-1" d="M67.33,1045.98l-.47-1.59,21.55-10.02-1.87,5.43.19-8.71c.06-3.81-.64-6.54-2.11-8.2-1.47-1.65-3.79-2.48-6.98-2.48-1.62,0-3.03.2-4.22.61-1.19.41-2.33,1.06-3.42,1.97-1.09.91-2.23,2.14-3.42,3.7l-6.84,8.62c-2.37,3.06-5.18,5.53-8.43,7.4-3.25,1.87-6.62,2.81-10.12,2.81-3.25,0-6.17-.59-8.76-1.78-2.59-1.19-4.65-3.06-6.18-5.62-1.53-2.56-2.3-5.9-2.3-10.02,0-2.37.13-4.68.38-6.93.25-2.25.53-4.22.84-5.9h19.02l.28,1.59-17.43,8.99,1.59-2.44v5.9c0,3.12.81,5.34,2.44,6.65,1.62,1.31,3.87,1.97,6.75,1.97,2.19,0,4-.44,5.43-1.31,1.44-.87,2.94-2.34,4.5-4.4l6.93-9.27c2.81-3.81,5.62-6.73,8.43-8.76,2.81-2.03,6.15-3.04,10.02-3.04,3.44,0,6.53.7,9.27,2.11,2.75,1.41,4.93,3.56,6.56,6.46s2.44,6.64,2.44,11.2c0,2.75-.3,5.48-.89,8.2s-1.39,5.01-2.39,6.89h-20.8Z"/>
        <path class="cls-1" d="M29.67,989.77l6.28.28-10.59,4.22-.47-.28v-12.93l65.58-19.02v11.34l-50.78,13.87v.56l50.78,12.93v6.56l-60.8-17.52ZM68.45,998.67v-23.89h5.15v23.89h-5.15ZM89.72,981.15l-11.9-10.59,11.9-10.77.75.38v20.61l-.75.38ZM89.72,1011.31l-9.65-8.62,9.65-10.59.75.38v18.46l-.75.38Z"/>
        <path class="cls-1" d="M44.47,965.78l-19.58-3.18v-42.35l19.58-3.19.56,1.5-15.46,10.68v24.36l15.46,10.68-.56,1.5ZM24.89,946.58v-10.31h65.58v10.31H24.89ZM89.72,953.04l-13.77-11.52,13.77-11.52.75.37v22.3l-.75.37Z"/>
      </g>
    </g>
  </g>
  <g>
    <g>
      <rect x="970.04" y="920.62" width="109.96" height="134.09"/>
      <rect x="970.04" y="742.15" width="109.96" height="134.09"/>
      <rect x="970.04" y="563.69" width="109.96" height="134.09"/>
      <rect x="970.04" y="385.23" width="109.96" height="134.09"/>
      <rect x="970.04" y="206.77" width="109.96" height="134.09"/>
      <rect x="970.04" y="28.31" width="109.96" height="134.09"/>
    </g>
    <g>
      <g>
        <path class="cls-1" d="M992.01,157.42l8.45-1.3-11.89,6.41-.46-.28v-6.5l53.58-15.41v-1.39l-53.58-14.86v-6.22l.46-.19,11.98,6.22-7.89-1.58,60.45-5.48v3.81l-48.19,4.27v1.39l48.66,13.46v1.02l-48.66,13.93v1.39l48.19,3.62v2.41l-61.1-4.74ZM1052.37,129.75l-5.29-11.14,5.29-8.17.74.37v18.66l-.74.28ZM1052.37,168.66l-5.29-7.89,5.29-11.79.74.19v19.13l-.74.37Z"/>
        <path class="cls-1" d="M1051.72,96.97c-1.55,2.35-3.79,4.4-6.73,6.13-2.94,1.73-6.51,3.06-10.73,3.99-4.21.93-8.97,1.39-14.3,1.39-4.83,0-9.24-.46-13.23-1.39-3.99-.93-7.46-2.26-10.4-3.99-2.94-1.73-5.2-3.77-6.78-6.13-1.58-2.35-2.37-4.92-2.37-7.71s.79-5.45,2.37-7.8c1.58-2.35,3.84-4.39,6.78-6.13,2.94-1.73,6.41-3.06,10.4-3.99,3.99-.93,8.4-1.39,13.23-1.39,5.33,0,10.09.46,14.3,1.39,4.21.93,7.79,2.26,10.73,3.99,2.94,1.73,5.19,3.78,6.73,6.13,1.55,2.35,2.32,4.95,2.32,7.8s-.78,5.35-2.32,7.71ZM1036.58,102.5c4.77-.9,8.48-2.41,11.14-4.55,2.66-2.14,3.99-5.03,3.99-8.68s-1.33-6.64-3.99-8.78c-2.66-2.14-6.38-3.65-11.14-4.55-4.77-.9-10.31-1.35-16.62-1.35-5.63,0-10.76.45-15.37,1.35-4.61.9-8.28,2.41-11,4.55-2.72,2.14-4.09,5.06-4.09,8.78s1.36,6.55,4.09,8.68c2.72,2.14,6.39,3.65,11,4.55,4.61.9,9.74,1.35,15.37,1.35,6.31,0,11.86-.45,16.62-1.35Z"/>
        <path class="cls-1" d="M988.67,41.45l-.56-.19v-20.24l.56-.19,5.48,8.08-5.48,12.54ZM1053.11,58.16h-57.01l4.09-1.39-11.61,8.91-.46-.19v-6.5l54.04-28.69-1.76,3.53v-3.62h-52.28v-2.32h65.46v.56l-52.28,27.67,2.6-3.44v3.16h49.21v2.32ZM1052.37,44.51l.74.19v21.64l-.74.19-6.22-9.29,6.22-12.72Z"/>
      </g>
      <g>
        <path class="cls-1" d="M1007.52,347.07l-19.41-3.16v-41.97l19.41-3.16.56,1.49-15.32,10.59v24.14l15.32,10.59-.56,1.49ZM988.11,328.04v-10.21h65v10.21h-65ZM1052.37,334.45l-13.65-11.42,13.65-11.42.74.37v22.1l-.74.37Z"/>
        <path class="cls-1" d="M988.11,267.4v-19.59l.74-.37,10.4,7.8-10.4,12.54-.74-.37ZM1051.58,282.77c-1.64,3-3.98,5.31-7.01,6.92-3.03,1.61-6.56,2.41-10.59,2.41h-45.87v-10.21h43.46c5.51,0,9.35-.96,11.51-2.88,2.17-1.92,3.25-4.95,3.25-9.1,0-3.65-.97-6.48-2.92-8.5-1.95-2.01-5.34-3.02-10.17-3.02h-45.13v-5.57h43.27c7.43,0,13.06,1.76,16.9,5.29,3.84,3.53,5.76,8.23,5.76,14.11,0,4.02-.82,7.54-2.46,10.54ZM988.11,296.93v-20.61l.74-.37,12.26,12.91-12.26,8.45-.74-.37Z"/>
        <path class="cls-1" d="M988.11,237.97v-32.69l19.59-1.67.37,1.58-15.32,8.82v13.74h23.59v-9.29l-6.31-3.99v-1.3l19.87-3.25.84,1.3-9.75,7.24v9.29h27.49v-16.62l-15.97-8.17.46-1.58,20.15,1.86v34.73h-65ZM988.11,243.35v-7.24l7.71,1.39-6.96,6.22-.74-.37ZM1052.37,243.82l-7.99-6.31,8.73-1.39v7.34l-.74.37Z"/>
      </g>
      <g>
        <path class="cls-1" d="M988.11,481.28v-17.36l.56-.19,5.48,9.1-5.48,8.64-.56-.19ZM988.11,518.98l49.68-9.75-.19-1.39-46.61-10.59v-2.69l46.8-10.86v-1.39l-49.68-9.29v-2.51l65.46,12.63v.93l-51.81,11.89v1.39l51.81,11.61v.93l-65.46,13.09v-3.99ZM988.11,505.05v-17.36l.56-.19,5.94,8.26-5.94,9.47-.56-.19ZM988.11,528.82v-19.13l.56-.19,5.48,10.86-5.48,8.64-.56-.19Z"/>
        <path class="cls-1" d="M988.11,452.12v-25.91l16.53-1.02.19.84-14.58,7.52v14.86h27.76v-10.4l-7.24-3.53v-1.02l19.96-2.32.19.74-10.59,6.13v10.4h30.46v-17.09l-17.09-7.34.19-.84,19.22.93v28.04h-65ZM988.11,460.02v-9.75l6.04,1.39-5.29,8.73-.74-.37ZM1052.37,460.94l-5.76-9.29,6.5-.93v9.84l-.74.37Z"/>
        <path class="cls-1" d="M988.11,411.73v-7.71c0-5.45,1.39-10.03,4.18-13.74,2.79-3.71,6.55-6.51,11.28-8.4,4.74-1.89,10.11-2.83,16.11-2.83,4.33,0,8.5.4,12.49,1.21,3.99.81,7.57,2.15,10.72,4.04,3.16,1.89,5.65,4.46,7.48,7.71,1.83,3.25,2.74,7.32,2.74,12.21v5.48h-2.32v-7.15c0-2.72-.51-5.26-1.53-7.61-1.02-2.35-2.71-4.4-5.06-6.13-2.35-1.73-5.52-3.09-9.52-4.09-3.99-.99-8.99-1.49-15-1.49-5.7,0-10.45.54-14.25,1.62-3.81,1.08-6.84,2.65-9.1,4.69s-3.88,4.49-4.88,7.34c-.99,2.85-1.49,6.07-1.49,9.66v1.49h63.14v3.71h-65ZM988.11,419.62v-9.75l6.04,1.39-5.29,8.73-.74-.37ZM1052.37,420.55l-5.76-9.29,6.5-.93v9.84l-.74.37Z"/>
      </g>
      <g>
        <path class="cls-1" d="M1007.52,708.04l-19.41-3.16v-41.97l19.41-3.16.56,1.49-15.32,10.59v24.14l15.32,10.59-.56,1.49ZM988.11,689v-10.21h65v10.21h-65ZM1052.37,695.41l-13.65-11.42,13.65-11.42.74.37v22.1l-.74.37Z"/>
        <path class="cls-1" d="M988.11,627.71v-19.22l.74-.37,12.26,9.75-12.26,10.21-.74-.37ZM988.11,652.69v-10.21h28.23v-19.04h-28.23v-10.21h65v10.21h-31.67v19.04h31.67v10.21h-65ZM988.11,657.43v-19.22l.74-.37,12.26,10.21-12.26,9.75-.74-.37ZM1052.37,628.83l-14.11-10.96,14.11-10.03.74.37v20.24l-.74.37ZM1052.37,658.08l-14.11-10.03,14.11-11.05.74.37v20.34l-.74.37Z"/>
        <path class="cls-1" d="M988.11,573.67v-19.59l.74-.37,10.4,7.8-10.4,12.54-.74-.37ZM1051.58,589.04c-1.64,3-3.98,5.31-7.01,6.92-3.03,1.61-6.56,2.41-10.59,2.41h-45.87v-10.21h43.46c5.51,0,9.35-.96,11.51-2.88,2.17-1.92,3.25-4.95,3.25-9.1,0-3.65-.97-6.48-2.92-8.5-1.95-2.01-5.34-3.02-10.17-3.02h-45.13v-5.57h43.27c7.43,0,13.06,1.76,16.9,5.29,3.84,3.53,5.76,8.23,5.76,14.11,0,4.02-.82,7.54-2.46,10.54ZM988.11,603.2v-20.61l.74-.37,12.26,12.91-12.26,8.45-.74-.37Z"/>
      </g>
      <g>
        <path class="cls-1" d="M988.11,851.96v-26.84l18.67-1.39.19.84-16.53,7.33v16.34h30.64v-9.75l-7.8-3.16v-1.02l20.61-2.51.19.93-10.68,5.76v9.75h29.71v3.71h-65ZM988.11,859.85v-9.29l6.04.93-5.29,8.73-.74-.37ZM1052.37,860.78l-5.29-10.03,5.29-13.28.74.37v22.56l-.74.37Z"/>
        <path class="cls-1" d="M988.11,812.58v-8.73c0-4.02.7-7.54,2.09-10.54,1.39-3,3.38-5.34,5.94-7.01,2.57-1.67,5.59-2.51,9.05-2.51,3.65,0,6.92.82,9.8,2.46,2.88,1.64,5.12,3.98,6.73,7.01,1.61,3.03,2.41,6.62,2.41,10.77v6.87h-2.32v-5.94c0-5.94-1.18-10.26-3.53-12.95-2.35-2.69-6.41-4.04-12.16-4.04-3.9,0-6.99.56-9.29,1.67-2.29,1.11-3.93,2.96-4.92,5.52-.99,2.57-1.49,6.05-1.49,10.45v3.25h62.68v3.71h-65ZM988.11,820.38v-9.19l6.04.93-5.29,8.64-.74-.37ZM1022.28,796.43c3.34-.74,6.38-1.52,9.1-2.32,2.72-.8,5.28-1.78,7.66-2.92,2.38-1.15,4.77-2.65,7.15-4.5,2.38-1.86,4.97-4.21,7.75-7.06l1.02.65c-2.91,4.15-5.9,7.54-8.96,10.17-3.06,2.63-6.44,4.71-10.12,6.22-3.68,1.52-7.88,2.74-12.58,3.67l-1.02-3.9ZM1052.37,821.31l-5.29-9.94,5.29-10.96.74.37v20.15l-.74.37Z"/>
        <path class="cls-1" d="M988.11,776.74v-18.76l.56-.19,5.48,9.56-5.48,9.56-.56-.19ZM988.11,769.22v-3.71h65v3.71h-65ZM1052.37,777.39l-5.29-10.03,5.29-10.03.74.37v19.31l-.74.37Z"/>
      </g>
      <g>
        <path class="cls-1" d="M1030.18,1045.42l-.46-1.58,21.36-9.94-1.86,5.39.19-8.64c.06-3.78-.63-6.48-2.09-8.12-1.45-1.64-3.76-2.46-6.92-2.46-1.61,0-3,.2-4.18.6-1.17.4-2.31,1.05-3.39,1.95-1.08.9-2.21,2.12-3.39,3.67l-6.78,8.54c-2.35,3.03-5.14,5.48-8.36,7.34-3.22,1.86-6.56,2.79-10.03,2.79-3.22,0-6.11-.59-8.68-1.76-2.57-1.18-4.61-3.03-6.13-5.57-1.52-2.54-2.27-5.85-2.27-9.94,0-2.35.12-4.64.37-6.87.25-2.23.53-4.18.84-5.85h18.85l.28,1.58-17.27,8.91,1.58-2.41v5.85c0,3.1.8,5.29,2.41,6.59,1.61,1.3,3.84,1.95,6.69,1.95,2.17,0,3.96-.43,5.39-1.3,1.42-.87,2.91-2.32,4.46-4.36l6.87-9.19c2.79-3.78,5.57-6.67,8.36-8.68,2.79-2.01,6.1-3.02,9.94-3.02,3.41,0,6.47.7,9.19,2.09,2.73,1.39,4.89,3.53,6.5,6.41,1.61,2.88,2.42,6.58,2.42,11.1,0,2.72-.29,5.43-.88,8.12-.59,2.69-1.38,4.97-2.37,6.83h-20.62Z"/>
        <path class="cls-1" d="M992.85,989.7l6.22.28-10.49,4.18-.46-.28v-12.81l65-18.85v11.24l-50.33,13.74v.56l50.33,12.81v6.5l-60.26-17.36ZM1031.29,998.52v-23.68h5.11v23.68h-5.11ZM1052.37,981.16l-11.79-10.49,11.79-10.68.74.37v20.43l-.74.37ZM1052.37,1011.06l-9.56-8.54,9.56-10.49.74.37v18.29l-.74.37Z"/>
        <path class="cls-1" d="M1007.52,965.93l-19.41-3.16v-41.97l19.41-3.16.56,1.49-15.32,10.59v24.14l15.32,10.59-.56,1.49ZM988.11,946.9v-10.21h65v10.21h-65ZM1052.37,953.3l-13.65-11.42,13.65-11.42.74.37v22.1l-.74.37Z"/>
      </g>
    </g>
  </g>
</svg>