<?xml version="1.0" encoding="UTF-8"?>
<svg id="Layer_1" data-name="Layer 1" xmlns="http://www.w3.org/2000/svg" viewBox="0 0 1080 1080">
  <defs>
    <style>
      .cls-1 {
        fill: #fff;
      }
    </style>
  </defs>
  <rect x="-42.63" y="267.21" width="1165.26" height="79.08"/>
  <g>
    <path d="M27.73,267.89c6.37-1.44,11.42-3.29,15.12-5.55,3.7-2.26,6.48-5.81,8.33-10.65,1.85-4.83,2.98-11.77,3.39-20.83l7.1-135.78c.41-9.67-1.34-16.3-5.25-19.9-3.91-3.6-9.77-5.81-17.59-6.63v-6.17h40.12l-9.88,175.59c-.42,6.79.26,11.99,2.01,15.58,1.75,3.6,4.63,6.43,8.64,8.49,4.01,2.06,9.2,4.01,15.58,5.86v6.17H27.73v-6.17ZM79.26,100.63h-10.49v-38.27h31.17l35.49,133h2.47l36.72-133h15.43l-9.26,38.27h-2.78l-44.13,158h-12.04l-42.59-158ZM158.88,267.89c7.41-1.44,13.32-3.29,17.74-5.55,4.42-2.26,7.61-5.4,9.57-9.41,1.95-4.01,2.72-9.31,2.31-15.89l-9.88-174.67h54.62v6.17c-8.23.82-14.35,3.14-18.36,6.94-4.01,3.81-5.71,10.96-5.09,21.45l8.64,133.93c.62,8.64,1.9,15.43,3.86,20.37,1.95,4.94,4.88,8.59,8.79,10.96,3.91,2.37,8.84,4.27,14.81,5.71v6.17h-87.02v-6.17Z"/>
    <path d="M327.37,193.51c-10.7,1.23-19.44,3.39-26.23,6.48s-11.83,7.15-15.12,12.19c-3.29,5.04-4.94,11.26-4.94,18.67,0,8.44,2.05,14.87,6.17,19.29,4.11,4.43,10.59,6.63,19.44,6.63,4.11,0,7.82-.31,11.11-.93,3.29-.62,6.68-1.44,10.18-2.47l1.23,1.85c-3.91,7-8.95,12.4-15.12,16.2s-13.17,5.71-20.98,5.71c-12.76,0-22.58-3.44-29.47-10.34-6.9-6.89-10.34-16.2-10.34-27.93,0-10.9,3.29-20.31,9.88-28.24,6.58-7.92,15.48-14.14,26.69-18.67,11.21-4.52,23.71-7.1,37.49-7.71v9.26ZM339.1,131.18c8.02,9.67,12.04,23.66,12.04,41.97v72.21c0,7.61,3.5,11.42,10.49,11.42,3.7,0,6.84-1.44,9.41-4.32,2.57-2.88,4.68-7.92,6.33-15.12l4.32.62c-.41,12.55-3.65,22.22-9.72,29.01-6.07,6.79-13.32,10.18-21.76,10.18-8.85,0-15.64-2.78-20.37-8.33-4.73-5.55-7.1-13.37-7.1-23.45v-87.64c0-10.9-1.6-18.1-4.78-21.6-3.19-3.5-9.21-5.25-18.05-5.25-4.94,0-10.55.62-16.82,1.85-6.28,1.23-11.57,2.98-15.89,5.25l6.48-6.79c5.55,2.27,10.34,5.92,14.35,10.96,4.01,5.04,6.02,11.16,6.02,18.36,0,5.15-1.6,9.31-4.78,12.5-3.19,3.19-7.25,4.78-12.19,4.78s-9.46-1.85-12.96-5.55c-3.5-3.7-5.25-8.74-5.25-15.12,0-12.34,3.96-22.17,11.88-29.47,7.92-7.3,18.77-10.96,32.56-10.96,15.84,0,27.77,4.84,35.8,14.5Z"/>
    <path d="M411.3,267.89c-7.41-6.17-13.27-15.07-17.59-26.69-4.32-11.62-6.48-25.56-6.48-41.81s1.9-29.98,5.71-42.43c3.8-12.44,9.88-22.27,18.21-29.47,8.33-7.2,19.39-10.8,33.17-10.8,10.69,0,19.49,3.29,26.38,9.88,6.89,6.59,10.34,15.02,10.34,25.3,0,7.61-1.75,13.94-5.25,18.98-3.5,5.04-8.02,7.56-13.58,7.56-4.53,0-8.49-1.7-11.88-5.09s-5.09-7.66-5.09-12.81c0-6.58,2.05-12.34,6.17-17.28,4.11-4.94,9.67-8.74,16.66-11.42l-1.23,3.09c-4.53-1.44-8.69-2.47-12.5-3.09-3.81-.62-8.18-.93-13.12-.93-6.79,0-12.04,1.7-15.74,5.09s-6.28,9.52-7.71,18.36c-1.44,8.85-2.16,21.4-2.16,37.65s1.08,28.14,3.24,36.88c2.16,8.75,5.4,14.81,9.72,18.21s9.77,5.09,16.36,5.09c4.94,0,9.36-.93,13.27-2.78,3.91-1.85,7.56-5.45,10.96-10.8,3.39-5.35,6.53-13.16,9.41-23.45l4.94.93c-2.27,21.4-7.3,36.93-15.12,46.6-7.82,9.67-18.62,14.5-32.4,14.5-9.06,0-17.28-3.09-24.69-9.26Z"/>
    <path d="M492.46,268.5c4.52-1.64,7.92-3.65,10.18-6.02,2.26-2.36,3.8-5.91,4.63-10.65.82-4.73,1.23-11.21,1.23-19.44V89.52c0-4.73-.46-8.38-1.39-10.96-.93-2.57-2.78-4.63-5.55-6.17s-6.94-2.93-12.5-4.17v-4.01l47.22-17.28v194.72c0,7,.46,12.24,1.39,15.74.93,3.5,2.42,5.97,4.47,7.41,2.05,1.44,4.73,2.68,8.02,3.7v5.55h-57.71v-5.55ZM568.99,269.12c4.11-1.44,7.2-3.19,9.26-5.25,2.05-2.05,3.44-4.99,4.17-8.79.72-3.8,1.08-9,1.08-15.58v-82.4c0-7.2-1.39-11.98-4.17-14.35-2.78-2.36-8.18-3.55-16.2-3.55-5.76,0-10.75.26-14.97.77-4.22.52-8.69,1.39-13.42,2.62l-.93-1.85c4.32-6.99,10.59-12.75,18.82-17.28,8.23-4.52,17.07-6.79,26.54-6.79,11.11,0,19.23,2.83,24.38,8.49,5.14,5.66,7.71,13.42,7.71,23.3v91.04c0,7,.46,12.34,1.39,16.05s2.42,6.53,4.47,8.49c2.05,1.96,4.73,3.65,8.02,5.09v4.94h-56.16v-4.94Z"/>
    <path d="M658.48,189.81l45.67-4.63c1.23-19.95.77-34.15-1.39-42.59-2.16-8.43-7.25-12.65-15.28-12.65-5.55,0-9.98,1.65-13.27,4.94-3.29,3.29-5.61,9.21-6.94,17.74-1.34,8.54-2.01,20.73-2.01,36.57,0,16.87,1.13,29.89,3.39,39.04,2.26,9.16,5.76,15.48,10.49,18.98,4.73,3.5,10.7,5.25,17.9,5.25,6.17,0,11.31-.87,15.43-2.62,4.11-1.75,7.82-4.88,11.11-9.41,3.29-4.52,6.48-11,9.57-19.44l5.86.93c-2.47,13.38-6.12,24.12-10.96,32.25-4.84,8.13-10.49,13.99-16.97,17.59s-13.63,5.4-21.45,5.4c-11.11,0-20.63-3.09-28.54-9.26-7.92-6.17-13.94-15.07-18.05-26.69-4.12-11.62-6.17-25.46-6.17-41.51,0-17.9,2.21-33.02,6.63-45.36,4.42-12.34,10.8-21.7,19.13-28.08,8.33-6.37,18.15-9.57,29.47-9.57,9.46,0,17.23,2.52,23.3,7.56,6.07,5.04,10.65,11.68,13.73,19.9,3.09,8.23,4.88,17.18,5.4,26.85.51,9.67-.15,19.13-2.01,28.39h-74.06v-9.57Z"/>
    <path d="M768.34,110.04c4.94-4.21,8.69-10.13,11.26-17.74,2.57-7.61,4.37-17.59,5.4-29.93h7.71v67.27h-44.44v-9.88c8.43-2.26,15.12-5.5,20.06-9.72ZM792.72,119.76v99.98c0,12.96,1.03,21.45,3.09,25.46,2.05,4.01,6.17,6.02,12.34,6.02,5.14,0,8.84-1.23,11.11-3.7,2.26-2.47,3.4-6.99,3.4-13.58v-41.04h10.49v40.43c0,16.05-3.14,27.36-9.41,33.95-6.28,6.59-14.25,9.88-23.92,9.88-11.93,0-20.73-4.01-26.38-12.04-5.66-8.02-8.49-18.31-8.49-30.86v-114.49h27.77ZM786.86,119.76h44.13v9.88h-44.13v-9.88Z"/>
    <path d="M865.24,110.04c4.94-4.21,8.69-10.13,11.26-17.74,2.57-7.61,4.37-17.59,5.4-29.93h7.71v67.27h-44.44v-9.88c8.43-2.26,15.12-5.5,20.06-9.72ZM889.62,119.76v99.98c0,12.96,1.03,21.45,3.09,25.46,2.05,4.01,6.17,6.02,12.34,6.02,5.14,0,8.84-1.23,11.11-3.7,2.26-2.47,3.4-6.99,3.4-13.58v-41.04h10.49v40.43c0,16.05-3.14,27.36-9.41,33.95-6.28,6.59-14.25,9.88-23.92,9.88-11.93,0-20.73-4.01-26.38-12.04-5.66-8.02-8.49-18.31-8.49-30.86v-114.49h27.77ZM883.75,119.76h44.13v9.88h-44.13v-9.88Z"/>
    <path d="M971.7,189.81l45.67-4.63c1.23-19.95.77-34.15-1.39-42.59-2.16-8.43-7.25-12.65-15.28-12.65-5.55,0-9.98,1.65-13.27,4.94-3.29,3.29-5.61,9.21-6.94,17.74-1.34,8.54-2.01,20.73-2.01,36.57,0,16.87,1.13,29.89,3.39,39.04,2.26,9.16,5.76,15.48,10.49,18.98,4.73,3.5,10.7,5.25,17.9,5.25,6.17,0,11.31-.87,15.43-2.62,4.11-1.75,7.82-4.88,11.11-9.41,3.29-4.52,6.48-11,9.57-19.44l5.86.93c-2.47,13.38-6.12,24.12-10.96,32.25-4.84,8.13-10.49,13.99-16.97,17.59s-13.63,5.4-21.45,5.4c-11.11,0-20.63-3.09-28.54-9.26-7.92-6.17-13.94-15.07-18.05-26.69-4.12-11.62-6.17-25.46-6.17-41.51,0-17.9,2.21-33.02,6.63-45.36,4.42-12.34,10.8-21.7,19.13-28.08,8.33-6.37,18.15-9.57,29.47-9.57,9.46,0,17.23,2.52,23.3,7.56,6.07,5.04,10.65,11.68,13.73,19.9,3.09,8.23,4.88,17.18,5.4,26.85.51,9.67-.15,19.13-2.01,28.39h-74.06v-9.57Z"/>
  </g>
  <g>
    <path d="M34.2,360.98v3.12h-3.8c-2.21,0-4.2.57-5.95,1.71-1.76,1.14-3.25,3.07-4.49,5.8-1.24,2.73-2.31,6.5-3.22,11.32l-2.15-.29.98-21.66h18.63ZM21.52,425.95c2.54-.39,4.47-.94,5.81-1.66,1.33-.71,2.24-1.84,2.73-3.37.49-1.53.73-3.66.73-6.39v-53.56h10.63v53.56c0,2.73.24,4.86.73,6.39.49,1.53,1.41,2.65,2.78,3.37,1.37.72,3.28,1.27,5.76,1.66v1.95h-29.17v-1.95ZM57.62,382.64l-2.15.29c-.85-4.81-1.9-8.59-3.17-11.32-1.27-2.73-2.77-4.67-4.49-5.8-1.72-1.14-3.72-1.71-6-1.71h-3.8v-3.12h18.63l.98,21.66Z"/>
    <path d="M61.03,426.15c1.43-.52,2.5-1.15,3.22-1.9.71-.75,1.2-1.87,1.46-3.37.26-1.5.39-3.54.39-6.15v-45.17c0-1.5-.15-2.65-.44-3.46-.29-.81-.88-1.46-1.76-1.95s-2.2-.93-3.95-1.32v-1.27l14.93-5.46v61.56c0,2.21.15,3.87.44,4.98.29,1.11.76,1.89,1.41,2.34.65.46,1.5.85,2.54,1.17v1.76h-18.24v-1.76ZM85.23,426.34c1.3-.45,2.28-1.01,2.93-1.66s1.09-1.58,1.32-2.78c.23-1.2.34-2.84.34-4.93v-26.05c0-2.28-.44-3.79-1.32-4.54-.88-.75-2.59-1.12-5.12-1.12-1.82,0-3.4.08-4.73.24-1.33.16-2.75.44-4.24.83l-.29-.59c1.37-2.21,3.35-4.03,5.95-5.46,2.6-1.43,5.4-2.15,8.39-2.15,3.51,0,6.08.9,7.71,2.68,1.62,1.79,2.44,4.24,2.44,7.37v28.78c0,2.21.15,3.9.44,5.07.29,1.17.76,2.07,1.41,2.68.65.62,1.5,1.16,2.54,1.61v1.56h-17.76v-1.56Z"/>
    <path d="M114.69,401.27l14.44-1.46c.39-6.31.24-10.8-.44-13.46-.68-2.67-2.29-4-4.83-4-1.76,0-3.16.52-4.2,1.56s-1.77,2.91-2.2,5.61c-.42,2.7-.63,6.55-.63,11.56,0,5.33.36,9.45,1.07,12.34.71,2.89,1.82,4.9,3.32,6,1.5,1.11,3.38,1.66,5.66,1.66,1.95,0,3.58-.28,4.88-.83,1.3-.55,2.47-1.54,3.51-2.98,1.04-1.43,2.05-3.48,3.02-6.15l1.85.29c-.78,4.23-1.94,7.63-3.46,10.2-1.53,2.57-3.32,4.42-5.37,5.56s-4.31,1.71-6.78,1.71c-3.51,0-6.52-.98-9.02-2.93-2.5-1.95-4.41-4.76-5.71-8.44-1.3-3.67-1.95-8.05-1.95-13.12,0-5.66.7-10.44,2.1-14.34,1.4-3.9,3.42-6.86,6.05-8.88,2.63-2.02,5.74-3.02,9.32-3.02,2.99,0,5.45.8,7.37,2.39,1.92,1.59,3.37,3.69,4.34,6.29.98,2.6,1.54,5.43,1.71,8.49.16,3.06-.05,6.05-.63,8.98h-23.41v-3.02Z"/>
    <path d="M160.64,425.95c1.89-.39,3.35-.91,4.39-1.56,1.04-.65,1.79-1.64,2.24-2.98.45-1.33.68-3.1.68-5.32v-44.2c0-3.32-.55-5.58-1.66-6.78-1.11-1.2-2.83-1.93-5.17-2.19v-1.95h26.34v1.95c-1.95.19-3.63.63-5.02,1.32-1.4.68-2.46,1.74-3.17,3.17-.72,1.43-1.07,3.32-1.07,5.66v54.83h-17.56v-1.95ZM174.49,427.9v-3.12h5.76c3.25,0,6-.62,8.24-1.85,2.24-1.23,4.15-3.51,5.71-6.83,1.56-3.32,2.86-8.13,3.9-14.44l2.44.2-1.37,26.05h-24.68Z"/>
    <path d="M213.62,401.27l14.44-1.46c.39-6.31.24-10.8-.44-13.46-.68-2.67-2.29-4-4.83-4-1.76,0-3.16.52-4.2,1.56s-1.77,2.91-2.2,5.61c-.42,2.7-.63,6.55-.63,11.56,0,5.33.36,9.45,1.07,12.34.71,2.89,1.82,4.9,3.32,6,1.5,1.11,3.38,1.66,5.66,1.66,1.95,0,3.58-.28,4.88-.83,1.3-.55,2.47-1.54,3.51-2.98,1.04-1.43,2.05-3.48,3.02-6.15l1.85.29c-.78,4.23-1.94,7.63-3.46,10.2-1.53,2.57-3.32,4.42-5.37,5.56s-4.31,1.71-6.78,1.71c-3.51,0-6.52-.98-9.02-2.93-2.5-1.95-4.41-4.76-5.71-8.44-1.3-3.67-1.95-8.05-1.95-13.12,0-5.66.7-10.44,2.1-14.34,1.4-3.9,3.42-6.86,6.05-8.88,2.63-2.02,5.74-3.02,9.32-3.02,2.99,0,5.45.8,7.37,2.39,1.92,1.59,3.37,3.69,4.34,6.29.98,2.6,1.54,5.43,1.71,8.49.16,3.06-.05,6.05-.63,8.98h-23.41v-3.02Z"/>
    <path d="M266.4,402.44c-3.38.39-6.15,1.07-8.29,2.05s-3.74,2.26-4.78,3.85c-1.04,1.59-1.56,3.56-1.56,5.9,0,2.67.65,4.7,1.95,6.1,1.3,1.4,3.35,2.1,6.15,2.1,1.3,0,2.47-.1,3.51-.29,1.04-.19,2.11-.45,3.22-.78l.39.59c-1.24,2.21-2.83,3.92-4.78,5.12-1.95,1.2-4.16,1.8-6.63,1.8-4.03,0-7.14-1.09-9.32-3.27-2.18-2.18-3.27-5.12-3.27-8.83,0-3.45,1.04-6.42,3.12-8.93,2.08-2.5,4.89-4.47,8.44-5.9,3.54-1.43,7.5-2.24,11.85-2.44v2.93ZM270.1,382.73c2.54,3.06,3.8,7.48,3.8,13.27v22.83c0,2.41,1.11,3.61,3.32,3.61,1.17,0,2.16-.45,2.98-1.37.81-.91,1.48-2.5,2-4.78l1.37.2c-.13,3.97-1.16,7.02-3.07,9.17-1.92,2.15-4.21,3.22-6.88,3.22-2.8,0-4.94-.88-6.44-2.63-1.5-1.76-2.24-4.23-2.24-7.41v-27.71c0-3.45-.5-5.72-1.51-6.83-1.01-1.1-2.91-1.66-5.71-1.66-1.56,0-3.33.2-5.32.59-1.98.39-3.66.94-5.02,1.66l2.05-2.15c1.76.72,3.27,1.87,4.54,3.46,1.27,1.59,1.9,3.53,1.9,5.81,0,1.63-.5,2.94-1.51,3.95s-2.29,1.51-3.85,1.51-2.99-.59-4.1-1.76c-1.11-1.17-1.66-2.76-1.66-4.78,0-3.9,1.25-7.01,3.76-9.32,2.5-2.31,5.93-3.46,10.29-3.46,5.01,0,8.78,1.53,11.32,4.59Z"/>
    <path d="M285.71,426.34c1.5-.45,2.6-1.15,3.32-2.1.71-.94,1.19-2.19,1.41-3.76.23-1.56.34-3.48.34-5.76v-25.95c0-2.21-.33-3.74-.98-4.59-.65-.84-2.05-1.56-4.2-2.15v-.98l13.37-3.41.59,7.71v32.29c0,2.21.15,3.85.44,4.93.29,1.07.76,1.85,1.42,2.34.65.49,1.5.96,2.54,1.41v1.56h-18.24v-1.56ZM309.52,426.34c1.3-.45,2.28-1.01,2.93-1.66s1.09-1.58,1.32-2.78c.23-1.2.34-2.84.34-4.93v-26.05c0-2.28-.44-3.79-1.32-4.54-.88-.75-2.59-1.12-5.12-1.12-1.82,0-3.4.08-4.73.24-1.33.16-2.75.44-4.24.83l-.29-.59c1.37-2.21,3.35-4.03,5.95-5.46,2.6-1.43,5.4-2.15,8.39-2.15,3.51,0,6.08.9,7.71,2.68,1.62,1.79,2.44,4.24,2.44,7.37v28.78c0,2.21.15,3.9.44,5.07.29,1.17.76,2.07,1.41,2.68.65.62,1.5,1.16,2.54,1.61v1.56h-17.76v-1.56Z"/>
    <path d="M348.05,425.95c2.02-.45,3.61-1.04,4.78-1.76,1.17-.71,2.05-1.84,2.63-3.37.59-1.53.94-3.72,1.07-6.59l2.24-42.93c.13-3.06-.42-5.15-1.66-6.29-1.24-1.14-3.09-1.84-5.56-2.1v-1.95h12.68l-3.12,55.51c-.13,2.15.08,3.79.63,4.93.55,1.14,1.46,2.03,2.73,2.68,1.27.65,2.91,1.27,4.93,1.85v1.95h-21.37v-1.95ZM364.34,373.07h-3.32v-12.1h9.85l11.22,42.05h.78l11.61-42.05h4.88l-2.93,12.1h-.88l-13.95,49.95h-3.81l-13.46-49.95ZM389.51,425.95c2.34-.45,4.21-1.04,5.61-1.76,1.4-.71,2.41-1.71,3.02-2.98.62-1.27.86-2.94.73-5.02l-3.12-55.22h17.27v1.95c-2.6.26-4.54.99-5.8,2.19-1.27,1.2-1.81,3.46-1.61,6.78l2.73,42.34c.19,2.73.6,4.88,1.22,6.44.62,1.56,1.54,2.72,2.78,3.46,1.23.75,2.8,1.35,4.68,1.81v1.95h-27.51v-1.95Z"/>
    <path d="M424.73,401.27l14.44-1.46c.39-6.31.24-10.8-.44-13.46-.68-2.67-2.29-4-4.83-4-1.76,0-3.16.52-4.2,1.56s-1.77,2.91-2.2,5.61c-.42,2.7-.63,6.55-.63,11.56,0,5.33.36,9.45,1.07,12.34.71,2.89,1.82,4.9,3.32,6,1.5,1.11,3.38,1.66,5.66,1.66,1.95,0,3.58-.28,4.88-.83,1.3-.55,2.47-1.54,3.51-2.98,1.04-1.43,2.05-3.48,3.02-6.15l1.85.29c-.78,4.23-1.94,7.63-3.46,10.2-1.53,2.57-3.32,4.42-5.37,5.56s-4.31,1.71-6.78,1.71c-3.51,0-6.52-.98-9.02-2.93-2.5-1.95-4.41-4.76-5.71-8.44-1.3-3.67-1.95-8.05-1.95-13.12,0-5.66.7-10.44,2.1-14.34,1.4-3.9,3.42-6.86,6.05-8.88,2.63-2.02,5.74-3.02,9.32-3.02,2.99,0,5.45.8,7.37,2.39,1.92,1.59,3.37,3.69,4.34,6.29.98,2.6,1.54,5.43,1.71,8.49.16,3.06-.05,6.05-.63,8.98h-23.41v-3.02Z"/>
    <path d="M478.88,402.44c-3.38.39-6.15,1.07-8.29,2.05s-3.74,2.26-4.78,3.85c-1.04,1.59-1.56,3.56-1.56,5.9,0,2.67.65,4.7,1.95,6.1,1.3,1.4,3.35,2.1,6.15,2.1,1.3,0,2.47-.1,3.51-.29,1.04-.19,2.11-.45,3.22-.78l.39.59c-1.24,2.21-2.83,3.92-4.78,5.12-1.95,1.2-4.16,1.8-6.63,1.8-4.03,0-7.14-1.09-9.32-3.27-2.18-2.18-3.27-5.12-3.27-8.83,0-3.45,1.04-6.42,3.12-8.93,2.08-2.5,4.89-4.47,8.44-5.9,3.54-1.43,7.5-2.24,11.85-2.44v2.93ZM482.59,382.73c2.54,3.06,3.8,7.48,3.8,13.27v22.83c0,2.41,1.11,3.61,3.32,3.61,1.17,0,2.16-.45,2.98-1.37.81-.91,1.48-2.5,2-4.78l1.37.2c-.13,3.97-1.16,7.02-3.07,9.17-1.92,2.15-4.21,3.22-6.88,3.22-2.8,0-4.94-.88-6.44-2.63-1.5-1.76-2.24-4.23-2.24-7.41v-27.71c0-3.45-.5-5.72-1.51-6.83-1.01-1.1-2.91-1.66-5.71-1.66-1.56,0-3.33.2-5.32.59-1.98.39-3.66.94-5.02,1.66l2.05-2.15c1.76.72,3.27,1.87,4.54,3.46,1.27,1.59,1.9,3.53,1.9,5.81,0,1.63-.5,2.94-1.51,3.95s-2.29,1.51-3.85,1.51-2.99-.59-4.1-1.76c-1.11-1.17-1.66-2.76-1.66-4.78,0-3.9,1.25-7.01,3.76-9.32,2.5-2.31,5.93-3.46,10.29-3.46,5.01,0,8.78,1.53,11.32,4.59Z"/>
    <path d="M498.78,426.34c1.5-.45,2.6-1.15,3.32-2.1.71-.94,1.19-2.19,1.41-3.76.23-1.56.34-3.48.34-5.76v-25.95c0-2.21-.33-3.74-.98-4.59-.65-.84-2.05-1.56-4.2-2.15v-.98l13.37-3.41.59,7.71v32.29c0,2.21.15,3.85.44,4.93.29,1.07.76,1.85,1.42,2.34.65.49,1.5.96,2.54,1.41v1.56h-18.24v-1.56ZM522.58,426.34c1.3-.45,2.28-1.01,2.93-1.66s1.09-1.58,1.32-2.78c.23-1.2.34-2.84.34-4.93v-26.05c0-2.28-.44-3.79-1.32-4.54-.88-.75-2.59-1.12-5.12-1.12-1.82,0-3.4.08-4.73.24-1.33.16-2.75.44-4.24.83l-.29-.59c1.37-2.21,3.35-4.03,5.95-5.46,2.6-1.43,5.4-2.15,8.39-2.15,3.51,0,6.08.9,7.71,2.68,1.62,1.79,2.44,4.24,2.44,7.37v28.78c0,2.21.15,3.9.44,5.07.29,1.17.76,2.07,1.41,2.68.65.62,1.5,1.16,2.54,1.61v1.56h-17.76v-1.56Z"/>
    <path d="M561.12,425.95c2.02-.45,3.61-1.04,4.78-1.76,1.17-.71,2.05-1.84,2.63-3.37.58-1.53.94-3.72,1.07-6.59l2.24-42.93c.13-3.06-.42-5.15-1.66-6.29-1.24-1.14-3.09-1.84-5.56-2.1v-1.95h12.68l-3.12,55.51c-.13,2.15.08,3.79.63,4.93.55,1.14,1.46,2.03,2.73,2.68,1.27.65,2.91,1.27,4.93,1.85v1.95h-21.37v-1.95ZM577.41,373.07h-3.32v-12.1h9.85l11.22,42.05h.78l11.61-42.05h4.88l-2.93,12.1h-.88l-13.95,49.95h-3.8l-13.46-49.95ZM602.58,425.95c2.34-.45,4.21-1.04,5.61-1.76,1.4-.71,2.41-1.71,3.02-2.98.62-1.27.86-2.94.73-5.02l-3.12-55.22h17.27v1.95c-2.6.26-4.54.99-5.81,2.19-1.27,1.2-1.8,3.46-1.61,6.78l2.73,42.34c.2,2.73.6,4.88,1.22,6.44.62,1.56,1.54,2.72,2.78,3.46,1.24.75,2.8,1.35,4.68,1.81v1.95h-27.51v-1.95Z"/>
    <path d="M656.14,402.44c-3.38.39-6.15,1.07-8.29,2.05-2.15.98-3.74,2.26-4.78,3.85-1.04,1.59-1.56,3.56-1.56,5.9,0,2.67.65,4.7,1.95,6.1,1.3,1.4,3.35,2.1,6.15,2.1,1.3,0,2.47-.1,3.51-.29,1.04-.19,2.11-.45,3.22-.78l.39.59c-1.24,2.21-2.83,3.92-4.78,5.12-1.95,1.2-4.16,1.8-6.63,1.8-4.03,0-7.14-1.09-9.32-3.27-2.18-2.18-3.27-5.12-3.27-8.83,0-3.45,1.04-6.42,3.12-8.93,2.08-2.5,4.89-4.47,8.44-5.9,3.54-1.43,7.5-2.24,11.85-2.44v2.93ZM659.85,382.73c2.54,3.06,3.8,7.48,3.8,13.27v22.83c0,2.41,1.1,3.61,3.32,3.61,1.17,0,2.16-.45,2.98-1.37.81-.91,1.48-2.5,2-4.78l1.37.2c-.13,3.97-1.16,7.02-3.07,9.17-1.92,2.15-4.21,3.22-6.88,3.22-2.8,0-4.94-.88-6.44-2.63-1.5-1.76-2.24-4.23-2.24-7.41v-27.71c0-3.45-.5-5.72-1.51-6.83-1.01-1.1-2.91-1.66-5.71-1.66-1.56,0-3.33.2-5.32.59-1.98.39-3.66.94-5.02,1.66l2.05-2.15c1.76.72,3.27,1.87,4.54,3.46,1.27,1.59,1.9,3.53,1.9,5.81,0,1.63-.5,2.94-1.51,3.95s-2.29,1.51-3.85,1.51-2.99-.59-4.1-1.76c-1.11-1.17-1.66-2.76-1.66-4.78,0-3.9,1.25-7.01,3.76-9.32,2.5-2.31,5.93-3.46,10.29-3.46,5.01,0,8.78,1.53,11.32,4.59Z"/>
    <path d="M674.09,426.25c1.3-.45,2.36-.99,3.17-1.61.81-.62,1.41-1.54,1.8-2.78.39-1.23.59-3.06.59-5.46v-27.61c0-2.21-.31-3.74-.93-4.59-.62-.84-1.87-1.56-3.76-2.15v-.98l13.66-3.32v38.63c0,2.41.16,4.23.49,5.46.33,1.24.88,2.16,1.66,2.78.78.62,1.85,1.16,3.22,1.61v1.66h-19.9v-1.66ZM679.85,367.12c-1.11-1.37-1.66-3.22-1.66-5.56s.55-4.16,1.66-5.46c1.11-1.3,2.44-1.95,4-1.95s2.78.65,3.85,1.95c1.07,1.3,1.61,3.12,1.61,5.46s-.54,4.2-1.61,5.56c-1.07,1.37-2.36,2.05-3.85,2.05s-2.89-.68-4-2.05Z"/>
    <path d="M698.29,426.34c1.5-.45,2.6-1.15,3.32-2.1.71-.94,1.19-2.19,1.41-3.76.23-1.56.34-3.48.34-5.76v-25.95c0-2.21-.33-3.74-.98-4.59-.65-.84-2.05-1.56-4.2-2.15v-.98l13.37-3.41.58,7.71v32.29c0,2.21.15,3.85.44,4.93.29,1.07.76,1.85,1.41,2.34.65.49,1.5.96,2.54,1.41v1.56h-18.24v-1.56ZM722.09,426.34c1.3-.45,2.28-1.01,2.93-1.66.65-.65,1.09-1.58,1.32-2.78.23-1.2.34-2.84.34-4.93v-26.05c0-2.28-.44-3.79-1.32-4.54-.88-.75-2.58-1.12-5.12-1.12-1.82,0-3.4.08-4.73.24-1.33.16-2.75.44-4.24.83l-.29-.59c1.37-2.21,3.35-4.03,5.95-5.46,2.6-1.43,5.4-2.15,8.39-2.15,3.51,0,6.08.9,7.71,2.68,1.62,1.79,2.44,4.24,2.44,7.37v28.78c0,2.21.15,3.9.44,5.07.29,1.17.76,2.07,1.42,2.68.65.62,1.5,1.16,2.54,1.61v1.56h-17.76v-1.56Z"/>
    <path d="M760.63,425.95c2.02-.45,3.61-1.04,4.78-1.76,1.17-.71,2.05-1.84,2.63-3.37.58-1.53.94-3.72,1.07-6.59l2.24-42.93c.13-3.06-.42-5.15-1.66-6.29-1.24-1.14-3.09-1.84-5.56-2.1v-1.95h12.68l-3.12,55.51c-.13,2.15.08,3.79.63,4.93.55,1.14,1.46,2.03,2.73,2.68,1.27.65,2.91,1.27,4.93,1.85v1.95h-21.37v-1.95ZM776.92,373.07h-3.32v-12.1h9.85l11.22,42.05h.78l11.61-42.05h4.88l-2.93,12.1h-.88l-13.95,49.95h-3.8l-13.46-49.95ZM802.09,425.95c2.34-.45,4.21-1.04,5.61-1.76,1.4-.71,2.41-1.71,3.02-2.98.62-1.27.86-2.94.73-5.02l-3.12-55.22h17.27v1.95c-2.6.26-4.54.99-5.81,2.19-1.27,1.2-1.8,3.46-1.61,6.78l2.73,42.34c.2,2.73.6,4.88,1.22,6.44.62,1.56,1.54,2.72,2.78,3.46,1.24.75,2.8,1.35,4.68,1.81v1.95h-27.51v-1.95Z"/>
    <path d="M856.14,402.44c-3.38.39-6.15,1.07-8.29,2.05-2.15.98-3.74,2.26-4.78,3.85-1.04,1.59-1.56,3.56-1.56,5.9,0,2.67.65,4.7,1.95,6.1,1.3,1.4,3.35,2.1,6.15,2.1,1.3,0,2.47-.1,3.51-.29,1.04-.19,2.11-.45,3.22-.78l.39.59c-1.24,2.21-2.83,3.92-4.78,5.12-1.95,1.2-4.16,1.8-6.63,1.8-4.03,0-7.14-1.09-9.32-3.27-2.18-2.18-3.27-5.12-3.27-8.83,0-3.45,1.04-6.42,3.12-8.93,2.08-2.5,4.89-4.47,8.44-5.9,3.54-1.43,7.5-2.24,11.85-2.44v2.93ZM859.85,382.73c2.54,3.06,3.8,7.48,3.8,13.27v22.83c0,2.41,1.1,3.61,3.32,3.61,1.17,0,2.16-.45,2.98-1.37.81-.91,1.48-2.5,2-4.78l1.37.2c-.13,3.97-1.16,7.02-3.07,9.17-1.92,2.15-4.21,3.22-6.88,3.22-2.8,0-4.94-.88-6.44-2.63-1.5-1.76-2.24-4.23-2.24-7.41v-27.71c0-3.45-.5-5.72-1.51-6.83-1.01-1.1-2.91-1.66-5.71-1.66-1.56,0-3.33.2-5.32.59-1.98.39-3.66.94-5.02,1.66l2.05-2.15c1.76.72,3.27,1.87,4.54,3.46,1.27,1.59,1.9,3.53,1.9,5.81,0,1.63-.5,2.94-1.51,3.95s-2.29,1.51-3.85,1.51-2.99-.59-4.1-1.76c-1.11-1.17-1.66-2.76-1.66-4.78,0-3.9,1.25-7.01,3.76-9.32,2.5-2.31,5.93-3.46,10.29-3.46,5.01,0,8.78,1.53,11.32,4.59Z"/>
    <path d="M875.84,426.34c1.5-.45,2.6-1.15,3.32-2.1.71-.94,1.19-2.19,1.41-3.76.23-1.56.34-3.48.34-5.76v-25.95c0-2.21-.33-3.74-.98-4.59-.65-.84-2.05-1.56-4.2-2.15v-.98l13.37-3.41.58,7.71v32.29c0,2.21.15,3.85.44,4.93.29,1.07.76,1.85,1.41,2.34.65.49,1.5.96,2.54,1.41v1.56h-18.24v-1.56ZM899.65,426.34c1.3-.45,2.28-1.01,2.93-1.66.65-.65,1.09-1.58,1.32-2.78.23-1.2.34-2.84.34-4.93v-26.05c0-2.28-.44-3.79-1.32-4.54-.88-.75-2.58-1.12-5.12-1.12-1.82,0-3.4.08-4.73.24-1.33.16-2.75.44-4.24.83l-.29-.59c1.37-2.21,3.35-4.03,5.95-5.46,2.6-1.43,5.4-2.15,8.39-2.15,3.51,0,6.08.9,7.71,2.68,1.62,1.79,2.44,4.24,2.44,7.37v28.78c0,2.21.15,3.9.44,5.07.29,1.17.76,2.07,1.42,2.68.65.62,1.5,1.16,2.54,1.61v1.56h-17.76v-1.56Z"/>
    <path d="M944.92,402.44c-3.38.39-6.15,1.07-8.29,2.05-2.15.98-3.74,2.26-4.78,3.85-1.04,1.59-1.56,3.56-1.56,5.9,0,2.67.65,4.7,1.95,6.1,1.3,1.4,3.35,2.1,6.15,2.1,1.3,0,2.47-.1,3.51-.29,1.04-.19,2.11-.45,3.22-.78l.39.59c-1.24,2.21-2.83,3.92-4.78,5.12-1.95,1.2-4.16,1.8-6.63,1.8-4.03,0-7.14-1.09-9.32-3.27-2.18-2.18-3.27-5.12-3.27-8.83,0-3.45,1.04-6.42,3.12-8.93,2.08-2.5,4.89-4.47,8.44-5.9,3.54-1.43,7.5-2.24,11.85-2.44v2.93ZM948.62,382.73c2.54,3.06,3.8,7.48,3.8,13.27v22.83c0,2.41,1.1,3.61,3.32,3.61,1.17,0,2.16-.45,2.98-1.37.81-.91,1.48-2.5,2-4.78l1.37.2c-.13,3.97-1.16,7.02-3.07,9.17-1.92,2.15-4.21,3.22-6.88,3.22-2.8,0-4.94-.88-6.44-2.63-1.5-1.76-2.24-4.23-2.24-7.41v-27.71c0-3.45-.5-5.72-1.51-6.83-1.01-1.1-2.91-1.66-5.71-1.66-1.56,0-3.33.2-5.32.59-1.98.39-3.66.94-5.02,1.66l2.05-2.15c1.76.72,3.27,1.87,4.54,3.46,1.27,1.59,1.9,3.53,1.9,5.81,0,1.63-.5,2.94-1.51,3.95s-2.29,1.51-3.85,1.51-2.99-.59-4.1-1.76c-1.11-1.17-1.66-2.76-1.66-4.78,0-3.9,1.25-7.01,3.76-9.32,2.5-2.31,5.93-3.46,10.29-3.46,5.01,0,8.78,1.53,11.32,4.59Z"/>
    <path d="M969.21,376.05c1.56-1.33,2.75-3.2,3.56-5.61.81-2.41,1.38-5.56,1.71-9.46h2.44v21.27h-14.05v-3.12c2.67-.71,4.78-1.74,6.34-3.07ZM976.92,379.12v31.61c0,4.1.33,6.78.98,8.05.65,1.27,1.95,1.9,3.9,1.9,1.62,0,2.79-.39,3.51-1.17.71-.78,1.07-2.21,1.07-4.29v-12.98h3.32v12.78c0,5.07-.99,8.65-2.98,10.73-1.99,2.08-4.5,3.12-7.56,3.12-3.77,0-6.55-1.27-8.34-3.8s-2.68-5.79-2.68-9.76v-36.2h8.78ZM975.06,379.12h13.95v3.12h-13.95v-3.12Z"/>
    <path d="M1002.38,401.27l14.44-1.46c.39-6.31.24-10.8-.44-13.46-.68-2.67-2.29-4-4.83-4-1.76,0-3.16.52-4.19,1.56-1.04,1.04-1.77,2.91-2.2,5.61-.42,2.7-.63,6.55-.63,11.56,0,5.33.36,9.45,1.07,12.34.71,2.89,1.82,4.9,3.32,6,1.5,1.11,3.38,1.66,5.66,1.66,1.95,0,3.58-.28,4.88-.83,1.3-.55,2.47-1.54,3.51-2.98,1.04-1.43,2.05-3.48,3.02-6.15l1.85.29c-.78,4.23-1.94,7.63-3.46,10.2-1.53,2.57-3.32,4.42-5.37,5.56s-4.31,1.71-6.78,1.71c-3.51,0-6.52-.98-9.02-2.93-2.5-1.95-4.41-4.76-5.71-8.44-1.3-3.67-1.95-8.05-1.95-13.12,0-5.66.7-10.44,2.1-14.34,1.4-3.9,3.42-6.86,6.05-8.88,2.63-2.02,5.74-3.02,9.32-3.02,2.99,0,5.45.8,7.37,2.39,1.92,1.59,3.37,3.69,4.34,6.29.98,2.6,1.54,5.43,1.71,8.49.16,3.06-.05,6.05-.63,8.98h-23.42v-3.02Z"/>
    <path d="M1039.84,401.27l14.44-1.46c.39-6.31.24-10.8-.44-13.46-.68-2.67-2.29-4-4.83-4-1.76,0-3.16.52-4.19,1.56-1.04,1.04-1.77,2.91-2.2,5.61-.42,2.7-.63,6.55-.63,11.56,0,5.33.36,9.45,1.07,12.34.71,2.89,1.82,4.9,3.32,6,1.5,1.11,3.38,1.66,5.66,1.66,1.95,0,3.58-.28,4.88-.83,1.3-.55,2.47-1.54,3.51-2.98,1.04-1.43,2.05-3.48,3.02-6.15l1.85.29c-.78,4.23-1.94,7.63-3.46,10.2-1.53,2.57-3.32,4.42-5.37,5.56s-4.31,1.71-6.78,1.71c-3.51,0-6.52-.98-9.02-2.93-2.5-1.95-4.41-4.76-5.71-8.44-1.3-3.67-1.95-8.05-1.95-13.12,0-5.66.7-10.44,2.1-14.34,1.4-3.9,3.42-6.86,6.05-8.88,2.63-2.02,5.74-3.02,9.32-3.02,2.99,0,5.45.8,7.37,2.39,1.92,1.59,3.37,3.69,4.34,6.29.98,2.6,1.54,5.43,1.71,8.49.16,3.06-.05,6.05-.63,8.98h-23.42v-3.02Z"/>
  </g>
  <g>
    <path class="cls-1" d="M20.25,346.63c2.86-.45,5.06-1.12,6.59-2,1.53-.88,2.65-2.18,3.37-3.9.71-1.72,1.2-4.11,1.46-7.17l3.32-40c.32-3.77-.1-6.31-1.27-7.61-1.17-1.3-3.38-2.08-6.63-2.34v-1.95h13.66l-3.71,54.63c-.13,2.28.08,4.08.63,5.41.55,1.33,1.74,2.36,3.56,3.07,1.82.72,4.52,1.33,8.1,1.85v1.95h-29.07v-1.95ZM41.23,293.75h-3.41v-12.1h10.63l15.02,43.71h.98l14.34-43.71h5.27v12.1h-4.49l-16.98,50.54h-3.9l-17.46-50.54ZM75.67,346.63c2.54-.59,4.49-1.23,5.85-1.95,1.37-.71,2.28-1.79,2.73-3.22.45-1.43.55-3.41.29-5.95l-4.68-53.85h18.54v1.95c-2.86.26-4.8.99-5.81,2.19-1.01,1.2-1.38,3.46-1.12,6.78l3.8,40.39c.32,3.19.83,5.69,1.51,7.51.68,1.82,1.72,3.17,3.12,4.05,1.4.88,3.33,1.58,5.8,2.1v1.95h-30.05v-1.95Z"/>
    <path class="cls-1" d="M106.69,346.92c2.15-.59,3.79-1.2,4.93-1.85,1.14-.65,1.93-1.59,2.39-2.83.45-1.23.68-2.96.68-5.17v-27.61c0-2.21-.34-3.74-1.02-4.59-.68-.84-2.23-1.56-4.63-2.15v-.98l14.63-3.32v38.63c0,2.21.2,3.97.59,5.27.39,1.3,1.11,2.29,2.15,2.98,1.04.68,2.57,1.22,4.59,1.61v1.66h-24.29v-1.66ZM114.45,287.75c-1.14-1.4-1.71-3.23-1.71-5.51s.57-4.08,1.71-5.41c1.14-1.33,2.62-2,4.44-2s3.19.67,4.29,2c1.11,1.33,1.66,3.14,1.66,5.41s-.55,4.11-1.66,5.51c-1.11,1.4-2.54,2.1-4.29,2.1s-3.3-.7-4.44-2.1Z"/>
    <path class="cls-1" d="M142.64,296.97c1.85-1.43,3.27-3.3,4.24-5.61.98-2.31,1.72-5.06,2.24-8.24h2.44v19.8h-16.49v-2.83c3.19-.65,5.71-1.69,7.56-3.12ZM151.57,299.8v33.17c0,3.38.55,5.74,1.66,7.07,1.1,1.33,2.86,2,5.27,2,2.28,0,4-.65,5.17-1.95,1.17-1.3,1.76-3.28,1.76-5.95v-11.22h2.93v9.95c0,5.92-1.11,10.18-3.32,12.78-2.21,2.6-5.3,3.9-9.27,3.9-4.29,0-7.53-1.35-9.71-4.05-2.18-2.7-3.27-6.62-3.27-11.76v-33.95h8.78ZM149.71,299.8h17.85v3.12h-17.85v-3.12Z"/>
    <path class="cls-1" d="M188.2,346.68c-3.02-1.98-5.4-4.86-7.12-8.63-1.72-3.77-2.59-8.29-2.59-13.56s.86-10.1,2.59-13.9c1.72-3.81,4.23-6.71,7.51-8.73,3.28-2.02,7.27-3.02,11.95-3.02,4.29,0,7.77,1.2,10.44,3.61,2.67,2.41,4,5.63,4,9.66,0,1.95-.52,3.48-1.56,4.59-1.04,1.11-2.41,1.66-4.1,1.66-1.43,0-2.68-.54-3.76-1.61-1.07-1.07-1.61-2.42-1.61-4.05s.42-3.35,1.27-4.98c.84-1.62,2.24-2.99,4.2-4.1l.59,1.27c-1.82-.52-3.48-.89-4.98-1.12-1.5-.23-3.32-.34-5.46-.34-2.86,0-5.19.65-6.98,1.95-1.79,1.3-3.09,3.3-3.9,6-.81,2.7-1.22,6.1-1.22,10.2,0,4.94.52,8.93,1.56,11.95,1.04,3.02,2.57,5.22,4.59,6.59,2.02,1.37,4.45,2.05,7.32,2.05,2.34,0,4.42-.39,6.24-1.17,1.82-.78,3.4-2.11,4.73-4,1.33-1.89,2.39-4.45,3.17-7.71l1.66.19c-.52,6.63-2.5,11.66-5.95,15.07-3.45,3.41-7.55,5.12-12.29,5.12-3.84,0-7.27-.99-10.29-2.98Z"/>
    <path class="cls-1" d="M222.59,346.82c1.89-.59,3.33-1.25,4.34-2,1.01-.75,1.71-1.8,2.1-3.17s.59-3.25.59-5.66v-45.66c0-1.76-.15-3.12-.44-4.1-.29-.98-.91-1.72-1.85-2.24-.94-.52-2.39-.98-4.34-1.37v-1.17l15.41-5.56v61.46c0,2.08.16,3.76.49,5.02.32,1.27.93,2.23,1.81,2.88.88.65,2.06,1.17,3.56,1.56v1.76h-21.66v-1.76ZM254.2,346.82c1.95-.39,3.37-.91,4.24-1.56.88-.65,1.42-1.61,1.61-2.88.2-1.27.29-2.94.29-5.02v-22.83c0-3.12-.72-5.35-2.15-6.68-1.43-1.33-3.94-2-7.51-2-2.6,0-5.02.15-7.27.44-2.24.29-4.24.73-6,1.32l-.19-1.17c2.15-2.28,4.5-4.11,7.07-5.51,2.57-1.4,5.93-2.1,10.1-2.1,4.81,0,8.47,1.24,10.98,3.71,2.5,2.47,3.76,5.92,3.76,10.34v24.1c0,2.21.18,3.95.54,5.22.36,1.27.99,2.23,1.9,2.88.91.65,2.21,1.24,3.9,1.76v1.76h-21.27v-1.76Z"/>
    <path class="cls-1" d="M294.2,346.63c2.47-.39,4.41-.96,5.8-1.71,1.4-.75,2.41-1.95,3.02-3.61.62-1.66.93-3.92.93-6.78v-41.95c0-3.32-.65-5.58-1.95-6.78-1.3-1.2-3.74-1.93-7.32-2.19v-1.95h20v52.88c0,2.8.36,5.02,1.07,6.68.71,1.66,1.93,2.89,3.66,3.71,1.72.81,4.05,1.38,6.98,1.71v1.95h-32.2v-1.95ZM345.9,303.7h-2.24c-.58-4.81-1.66-8.54-3.22-11.17s-3.76-4.45-6.59-5.46c-2.83-1.01-6.46-1.51-10.88-1.51h-13.46v-3.9h36.39v22.05ZM333.9,303.7l1.76,28.1-2.15.2c-.52-3.45-1.19-6.11-2-8-.81-1.89-1.95-3.2-3.42-3.95-1.46-.75-3.5-1.12-6.1-1.12h-12.2v-3.9h13.07c2.02,0,3.64-.37,4.88-1.12,1.23-.75,2.16-1.95,2.78-3.61.62-1.66.99-3.85,1.12-6.59h2.24Z"/>
    <path class="cls-1" d="M356.05,322.43l21.56-1.66c0-6.37-.6-10.93-1.8-13.66-1.2-2.73-3.76-4.1-7.66-4.1-1.82,0-3.5.55-5.02,1.66-1.53,1.11-2.73,3.02-3.61,5.76-.88,2.73-1.32,6.57-1.32,11.51s.54,8.99,1.61,11.95c1.07,2.96,2.62,5.07,4.63,6.34,2.02,1.27,4.36,1.9,7.02,1.9,2.47,0,4.59-.36,6.34-1.07,1.76-.71,3.25-1.84,4.49-3.37,1.23-1.53,2.21-3.53,2.93-6l2.24.49c-.72,4.03-2,7.33-3.85,9.9-1.85,2.57-4.03,4.46-6.54,5.66-2.5,1.2-5.12,1.8-7.85,1.8-3.9,0-7.35-.98-10.34-2.93-2.99-1.95-5.35-4.76-7.07-8.44-1.72-3.67-2.59-8.05-2.59-13.12,0-6.05.93-11.01,2.78-14.88,1.85-3.87,4.28-6.73,7.27-8.59,2.99-1.85,6.21-2.78,9.66-2.78s6.13.7,8.44,2.1c2.31,1.4,4.16,3.32,5.56,5.76,1.4,2.44,2.36,5.22,2.88,8.34.52,3.12.62,6.44.29,9.95h-30.05v-2.54Z"/>
    <path class="cls-1" d="M422.49,323.6c-5.01.13-8.85.77-11.51,1.9-2.67,1.14-4.49,2.52-5.46,4.15-.98,1.63-1.46,3.32-1.46,5.07,0,2.8.72,4.96,2.15,6.49,1.43,1.53,3.74,2.29,6.93,2.29,2.21,0,4.05-.18,5.51-.54,1.46-.36,2.91-.89,4.34-1.61l.39.88c-2.02,2.6-4.18,4.47-6.49,5.61-2.31,1.14-5.12,1.71-8.44,1.71-3.97,0-7.16-1.15-9.56-3.46-2.41-2.31-3.61-5.38-3.61-9.22,0-3.25.91-6.11,2.73-8.59,1.82-2.47,4.73-4.39,8.73-5.76s9.25-2.05,15.76-2.05v3.12ZM426,303.5c2.67,3.12,4,7.51,4,13.17v22.54c0,2.6,1.27,3.9,3.8,3.9,1.5,0,2.7-.31,3.61-.93.91-.62,1.79-1.54,2.63-2.78l.98.98c-1.17,3.12-2.72,5.43-4.63,6.93-1.92,1.5-4.21,2.24-6.88,2.24-2.8,0-4.91-.81-6.34-2.44-1.43-1.62-2.15-4.13-2.15-7.51v-27.81c0-2.99-.72-5.12-2.15-6.39-1.43-1.27-3.77-1.9-7.02-1.9-2.15,0-4.21.16-6.2.49-1.98.33-3.66.85-5.02,1.56l2.44-2.34c1.89,1.04,3.37,2.38,4.44,4,1.07,1.63,1.61,3.45,1.61,5.46,0,1.37-.49,2.57-1.46,3.61-.98,1.04-2.28,1.56-3.9,1.56s-2.99-.6-4.1-1.8c-1.11-1.2-1.66-2.75-1.66-4.63,0-3.45,1.23-6.41,3.71-8.88s6.44-3.71,11.9-3.71,9.72,1.56,12.39,4.68Z"/>
    <path class="cls-1" d="M448.98,296.97c1.85-1.43,3.27-3.3,4.24-5.61.98-2.31,1.72-5.06,2.24-8.24h2.44v19.8h-16.49v-2.83c3.19-.65,5.71-1.69,7.56-3.12ZM457.9,299.8v33.17c0,3.38.55,5.74,1.66,7.07,1.1,1.33,2.86,2,5.27,2,2.28,0,4-.65,5.17-1.95,1.17-1.3,1.76-3.28,1.76-5.95v-11.22h2.93v9.95c0,5.92-1.11,10.18-3.32,12.78-2.21,2.6-5.3,3.9-9.27,3.9-4.29,0-7.53-1.35-9.71-4.05-2.18-2.7-3.27-6.62-3.27-11.76v-33.95h8.78ZM456.05,299.8h17.85v3.12h-17.85v-3.12Z"/>
    <path class="cls-1" d="M495.95,346.63c1.76-.52,3.27-1.11,4.54-1.76,1.27-.65,2.26-1.66,2.98-3.02.71-1.37,1.07-3.35,1.07-5.95v-43.32c0-3.32-.59-5.58-1.76-6.78-1.17-1.2-3.06-1.93-5.66-2.19v-1.95h25.56v1.95c-2.93.26-4.93.99-6,2.19-1.07,1.2-1.61,3.46-1.61,6.78v43.32c0,2.47.24,4.39.73,5.76s1.3,2.41,2.44,3.12c1.14.72,2.68,1.33,4.63,1.85v1.95h-26.93v-1.95ZM511.07,312.09h39.32v4.39h-39.32v-4.39ZM539.36,348.58v-1.95c1.95-.52,3.5-1.14,4.63-1.85,1.14-.72,1.95-1.76,2.44-3.12.49-1.37.73-3.28.73-5.76v-43.32c0-3.32-.54-5.58-1.61-6.78-1.07-1.2-3.07-1.93-6-2.19v-1.95h25.56v1.95c-2.6.26-4.49.99-5.66,2.19-1.17,1.2-1.76,3.46-1.76,6.78v43.32c0,2.6.36,4.59,1.07,5.95.71,1.37,1.72,2.38,3.03,3.02,1.3.65,2.79,1.24,4.49,1.76v1.95h-26.93Z"/>
    <path class="cls-1" d="M598.68,323.6c-5.01.13-8.85.77-11.51,1.9-2.67,1.14-4.49,2.52-5.46,4.15-.98,1.63-1.46,3.32-1.46,5.07,0,2.8.71,4.96,2.15,6.49,1.43,1.53,3.74,2.29,6.93,2.29,2.21,0,4.05-.18,5.51-.54,1.46-.36,2.91-.89,4.34-1.61l.39.88c-2.02,2.6-4.18,4.47-6.49,5.61-2.31,1.14-5.12,1.71-8.44,1.71-3.97,0-7.16-1.15-9.56-3.46-2.41-2.31-3.61-5.38-3.61-9.22,0-3.25.91-6.11,2.73-8.59,1.82-2.47,4.73-4.39,8.73-5.76s9.25-2.05,15.76-2.05v3.12ZM602.19,303.5c2.67,3.12,4,7.51,4,13.17v22.54c0,2.6,1.27,3.9,3.8,3.9,1.5,0,2.7-.31,3.61-.93.91-.62,1.79-1.54,2.63-2.78l.98.98c-1.17,3.12-2.72,5.43-4.63,6.93-1.92,1.5-4.21,2.24-6.88,2.24-2.8,0-4.91-.81-6.34-2.44-1.43-1.62-2.15-4.13-2.15-7.51v-27.81c0-2.99-.72-5.12-2.15-6.39-1.43-1.27-3.77-1.9-7.02-1.9-2.15,0-4.21.16-6.19.49-1.99.33-3.66.85-5.02,1.56l2.44-2.34c1.89,1.04,3.37,2.38,4.44,4,1.07,1.63,1.61,3.45,1.61,5.46,0,1.37-.49,2.57-1.46,3.61-.98,1.04-2.28,1.56-3.9,1.56s-2.99-.6-4.1-1.8c-1.11-1.2-1.66-2.75-1.66-4.63,0-3.45,1.24-6.41,3.71-8.88,2.47-2.47,6.44-3.71,11.9-3.71s9.72,1.56,12.39,4.68Z"/>
    <path class="cls-1" d="M626.05,296.97c1.85-1.43,3.27-3.3,4.24-5.61.98-2.31,1.72-5.06,2.24-8.24h2.44v19.8h-16.49v-2.83c3.19-.65,5.71-1.69,7.56-3.12ZM634.97,299.8v33.17c0,3.38.55,5.74,1.66,7.07,1.11,1.33,2.86,2,5.27,2,2.28,0,4-.65,5.17-1.95,1.17-1.3,1.76-3.28,1.76-5.95v-11.22h2.93v9.95c0,5.92-1.11,10.18-3.32,12.78-2.21,2.6-5.3,3.9-9.27,3.9-4.29,0-7.53-1.35-9.71-4.05-2.18-2.7-3.27-6.62-3.27-11.76v-33.95h8.78ZM633.12,299.8h17.85v3.12h-17.85v-3.12Z"/>
    <path class="cls-1" d="M671.22,346.68c-3.02-1.98-5.4-4.86-7.12-8.63-1.72-3.77-2.59-8.29-2.59-13.56s.86-10.1,2.59-13.9c1.72-3.81,4.23-6.71,7.51-8.73,3.28-2.02,7.27-3.02,11.95-3.02,4.29,0,7.77,1.2,10.44,3.61,2.67,2.41,4,5.63,4,9.66,0,1.95-.52,3.48-1.56,4.59-1.04,1.11-2.41,1.66-4.1,1.66-1.43,0-2.68-.54-3.76-1.61-1.07-1.07-1.61-2.42-1.61-4.05s.42-3.35,1.27-4.98c.84-1.62,2.24-2.99,4.19-4.1l.59,1.27c-1.82-.52-3.48-.89-4.98-1.12-1.5-.23-3.32-.34-5.46-.34-2.86,0-5.19.65-6.98,1.95-1.79,1.3-3.09,3.3-3.9,6-.81,2.7-1.22,6.1-1.22,10.2,0,4.94.52,8.93,1.56,11.95,1.04,3.02,2.57,5.22,4.58,6.59,2.02,1.37,4.45,2.05,7.32,2.05,2.34,0,4.42-.39,6.24-1.17,1.82-.78,3.4-2.11,4.73-4,1.33-1.89,2.39-4.45,3.17-7.71l1.66.19c-.52,6.63-2.5,11.66-5.95,15.07-3.45,3.41-7.55,5.12-12.29,5.12-3.84,0-7.27-.99-10.29-2.98Z"/>
    <path class="cls-1" d="M705.9,346.82c1.89-.59,3.33-1.25,4.34-2,1.01-.75,1.71-1.8,2.1-3.17.39-1.37.58-3.25.58-5.66v-45.66c0-1.76-.15-3.12-.44-4.1-.29-.98-.91-1.72-1.85-2.24-.94-.52-2.39-.98-4.34-1.37v-1.17l15.41-5.56v61.46c0,2.08.16,3.76.49,5.02.32,1.27.93,2.23,1.8,2.88.88.65,2.06,1.17,3.56,1.56v1.76h-21.66v-1.76ZM737.51,346.82c1.95-.39,3.37-.91,4.24-1.56.88-.65,1.42-1.61,1.61-2.88.19-1.27.29-2.94.29-5.02v-22.83c0-3.12-.72-5.35-2.15-6.68-1.43-1.33-3.94-2-7.51-2-2.6,0-5.02.15-7.27.44-2.24.29-4.24.73-6,1.32l-.2-1.17c2.15-2.28,4.5-4.11,7.07-5.51,2.57-1.4,5.93-2.1,10.1-2.1,4.81,0,8.47,1.24,10.98,3.71,2.5,2.47,3.76,5.92,3.76,10.34v24.1c0,2.21.18,3.95.54,5.22.36,1.27.99,2.23,1.9,2.88.91.65,2.21,1.24,3.9,1.76v1.76h-21.27v-1.76Z"/>
    <path class="cls-1" d="M772.24,322.43l21.56-1.66c0-6.37-.6-10.93-1.81-13.66-1.2-2.73-3.76-4.1-7.66-4.1-1.82,0-3.5.55-5.02,1.66-1.53,1.11-2.73,3.02-3.61,5.76-.88,2.73-1.32,6.57-1.32,11.51s.54,8.99,1.61,11.95c1.07,2.96,2.62,5.07,4.63,6.34,2.01,1.27,4.36,1.9,7.02,1.9,2.47,0,4.58-.36,6.34-1.07,1.76-.71,3.25-1.84,4.49-3.37,1.23-1.53,2.21-3.53,2.93-6l2.24.49c-.72,4.03-2,7.33-3.85,9.9-1.85,2.57-4.03,4.46-6.54,5.66-2.5,1.2-5.12,1.8-7.85,1.8-3.9,0-7.35-.98-10.34-2.93-2.99-1.95-5.35-4.76-7.07-8.44-1.72-3.67-2.58-8.05-2.58-13.12,0-6.05.93-11.01,2.78-14.88,1.85-3.87,4.28-6.73,7.27-8.59,2.99-1.85,6.21-2.78,9.66-2.78s6.13.7,8.44,2.1c2.31,1.4,4.16,3.32,5.56,5.76,1.4,2.44,2.36,5.22,2.88,8.34s.62,6.44.29,9.95h-30.05v-2.54Z"/>
    <path class="cls-1" d="M815.9,296.97c1.85-1.43,3.27-3.3,4.24-5.61.98-2.31,1.72-5.06,2.24-8.24h2.44v19.8h-16.49v-2.83c3.19-.65,5.71-1.69,7.56-3.12ZM824.82,299.8v33.17c0,3.38.55,5.74,1.66,7.07,1.11,1.33,2.86,2,5.27,2,2.28,0,4-.65,5.17-1.95,1.17-1.3,1.76-3.28,1.76-5.95v-11.22h2.93v9.95c0,5.92-1.11,10.18-3.32,12.78-2.21,2.6-5.3,3.9-9.27,3.9-4.29,0-7.53-1.35-9.71-4.05-2.18-2.7-3.27-6.62-3.27-11.76v-33.95h8.78ZM822.97,299.8h17.85v3.12h-17.85v-3.12Z"/>
    <path class="cls-1" d="M862.87,346.63c1.76-.52,3.27-1.11,4.54-1.76,1.27-.65,2.26-1.66,2.98-3.02.71-1.37,1.07-3.35,1.07-5.95v-43.32c0-3.32-.58-5.58-1.76-6.78-1.17-1.2-3.06-1.93-5.66-2.19v-1.95h25.56v1.95c-2.93.26-4.93.99-6,2.19-1.07,1.2-1.61,3.46-1.61,6.78v43.32c0,2.47.24,4.39.73,5.76.49,1.37,1.3,2.41,2.44,3.12,1.14.72,2.68,1.33,4.63,1.85v1.95h-26.93v-1.95ZM877.99,312.09h39.32v4.39h-39.32v-4.39ZM906.28,348.58v-1.95c1.95-.52,3.5-1.14,4.63-1.85,1.14-.72,1.95-1.76,2.44-3.12.49-1.37.73-3.28.73-5.76v-43.32c0-3.32-.54-5.58-1.61-6.78-1.07-1.2-3.07-1.93-6-2.19v-1.95h25.56v1.95c-2.6.26-4.49.99-5.66,2.19-1.17,1.2-1.76,3.46-1.76,6.78v43.32c0,2.6.36,4.59,1.07,5.95.71,1.37,1.72,2.38,3.02,3.02,1.3.65,2.8,1.24,4.49,1.76v1.95h-26.93Z"/>
    <path class="cls-1" d="M941.02,322.43l21.56-1.66c0-6.37-.6-10.93-1.81-13.66-1.2-2.73-3.76-4.1-7.66-4.1-1.82,0-3.5.55-5.02,1.66-1.53,1.11-2.73,3.02-3.61,5.76-.88,2.73-1.32,6.57-1.32,11.51s.54,8.99,1.61,11.95c1.07,2.96,2.62,5.07,4.63,6.34,2.01,1.27,4.36,1.9,7.02,1.9,2.47,0,4.58-.36,6.34-1.07,1.76-.71,3.25-1.84,4.49-3.37,1.23-1.53,2.21-3.53,2.93-6l2.24.49c-.72,4.03-2,7.33-3.85,9.9-1.85,2.57-4.03,4.46-6.54,5.66-2.5,1.2-5.12,1.8-7.85,1.8-3.9,0-7.35-.98-10.34-2.93-2.99-1.95-5.35-4.76-7.07-8.44-1.72-3.67-2.58-8.05-2.58-13.12,0-6.05.93-11.01,2.78-14.88,1.85-3.87,4.28-6.73,7.27-8.59,2.99-1.85,6.21-2.78,9.66-2.78s6.13.7,8.44,2.1c2.31,1.4,4.16,3.32,5.56,5.76,1.4,2.44,2.36,5.22,2.88,8.34s.62,6.44.29,9.95h-30.05v-2.54Z"/>
    <path class="cls-1" d="M1007.45,323.6c-5.01.13-8.85.77-11.51,1.9-2.67,1.14-4.49,2.52-5.46,4.15-.98,1.63-1.46,3.32-1.46,5.07,0,2.8.71,4.96,2.15,6.49,1.43,1.53,3.74,2.29,6.93,2.29,2.21,0,4.05-.18,5.51-.54,1.46-.36,2.91-.89,4.34-1.61l.39.88c-2.02,2.6-4.18,4.47-6.49,5.61-2.31,1.14-5.12,1.71-8.44,1.71-3.97,0-7.16-1.15-9.56-3.46-2.41-2.31-3.61-5.38-3.61-9.22,0-3.25.91-6.11,2.73-8.59,1.82-2.47,4.73-4.39,8.73-5.76s9.25-2.05,15.76-2.05v3.12ZM1010.97,303.5c2.67,3.12,4,7.51,4,13.17v22.54c0,2.6,1.27,3.9,3.8,3.9,1.5,0,2.7-.31,3.61-.93.91-.62,1.79-1.54,2.63-2.78l.98.98c-1.17,3.12-2.72,5.43-4.63,6.93-1.92,1.5-4.21,2.24-6.88,2.24-2.8,0-4.91-.81-6.34-2.44-1.43-1.62-2.15-4.13-2.15-7.51v-27.81c0-2.99-.72-5.12-2.15-6.39-1.43-1.27-3.77-1.9-7.02-1.9-2.15,0-4.21.16-6.19.49-1.99.33-3.66.85-5.02,1.56l2.44-2.34c1.89,1.04,3.37,2.38,4.44,4,1.07,1.63,1.61,3.45,1.61,5.46,0,1.37-.49,2.57-1.46,3.61-.98,1.04-2.28,1.56-3.9,1.56s-2.99-.6-4.1-1.8c-1.11-1.2-1.66-2.75-1.66-4.63,0-3.45,1.24-6.41,3.71-8.88,2.47-2.47,6.44-3.71,11.9-3.71s9.72,1.56,12.39,4.68Z"/>
    <path class="cls-1" d="M1033.94,296.97c1.85-1.43,3.27-3.3,4.24-5.61.98-2.31,1.72-5.06,2.24-8.24h2.44v19.8h-16.49v-2.83c3.19-.65,5.71-1.69,7.56-3.12ZM1042.87,299.8v33.17c0,3.38.55,5.74,1.66,7.07,1.11,1.33,2.86,2,5.27,2,2.28,0,4-.65,5.17-1.95,1.17-1.3,1.76-3.28,1.76-5.95v-11.22h2.93v9.95c0,5.92-1.11,10.18-3.32,12.78-2.21,2.6-5.3,3.9-9.27,3.9-4.29,0-7.53-1.35-9.71-4.05-2.18-2.7-3.27-6.62-3.27-11.76v-33.95h8.78ZM1041.01,299.8h17.85v3.12h-17.85v-3.12Z"/>
  </g>
  <rect x="-42.63" y="444.57" width="1165.26" height="639.15"/>
  <g>
    <path class="cls-1" d="M-23.17,564.41c5.05-.88,8.94-1.93,11.66-3.13,2.72-1.2,4.61-3.16,5.69-5.88,1.07-2.72,1.61-6.67,1.61-11.85v-84.19c0-6.45-1.27-10.84-3.79-13.18-2.53-2.34-7.27-3.76-14.22-4.27v-3.79h61.63v3.79c-6.2.51-10.94,1.42-14.22,2.75-3.29,1.33-5.53,3.45-6.73,6.35-1.2,2.91-1.8,7.14-1.8,12.7v104.48H-23.17v-3.79ZM9.45,568.2v-7.58h14.6c9.73,0,17.79-1.17,24.18-3.51,6.38-2.34,11.66-6.7,15.83-13.08,4.17-6.38,7.84-15.52,11-27.4l3.79.57-3.6,51.01H9.45Z"/>
    <path class="cls-1" d="M144.08,519.66c-9.74.25-17.19,1.49-22.38,3.7-5.19,2.21-8.72,4.9-10.62,8.06-1.9,3.16-2.84,6.45-2.84,9.86,0,5.44,1.39,9.64,4.17,12.61,2.78,2.97,7.27,4.46,13.46,4.46,4.3,0,7.87-.35,10.71-1.04,2.84-.69,5.66-1.74,8.44-3.13l.76,1.71c-3.92,5.06-8.12,8.69-12.61,10.9-4.49,2.21-9.96,3.32-16.4,3.32-7.71,0-13.91-2.24-18.58-6.73-4.68-4.49-7.02-10.46-7.02-17.92,0-6.32,1.77-11.88,5.31-16.69,3.54-4.8,9.2-8.53,16.97-11.19s17.98-3.98,30.62-3.98v6.07ZM150.91,480.6c5.18,6.07,7.77,14.6,7.77,25.6v43.8c0,5.06,2.47,7.58,7.4,7.58,2.91,0,5.24-.6,7.02-1.8,1.77-1.2,3.48-3,5.12-5.4l1.9,1.9c-2.28,6.07-5.28,10.56-9.01,13.46-3.73,2.91-8.19,4.36-13.37,4.36-5.44,0-9.55-1.58-12.33-4.74-2.78-3.16-4.17-8.03-4.17-14.6v-54.04c0-5.81-1.39-9.96-4.17-12.42-2.78-2.46-7.33-3.7-13.65-3.7-4.17,0-8.19.32-12.04.95-3.86.63-7.11,1.64-9.77,3.03l4.74-4.55c3.67,2.02,6.54,4.62,8.63,7.77,2.09,3.16,3.13,6.7,3.13,10.62,0,2.65-.95,5-2.84,7.02-1.9,2.02-4.43,3.03-7.58,3.03s-5.82-1.17-7.96-3.51c-2.15-2.34-3.22-5.34-3.22-9.01,0-6.7,2.4-12.45,7.21-17.26s12.52-7.21,23.13-7.21,18.9,3.03,24.08,9.1Z"/>
    <path class="cls-1" d="M190.44,467.89c3.6-2.78,6.35-6.41,8.25-10.9,1.9-4.49,3.35-9.83,4.36-16.02h4.74v38.49h-32.05v-5.5c6.19-1.26,11.09-3.29,14.7-6.07ZM207.79,473.39v64.47c0,6.58,1.07,11.16,3.22,13.75,2.15,2.59,5.56,3.89,10.24,3.89,4.42,0,7.77-1.26,10.05-3.79,2.28-2.53,3.41-6.38,3.41-11.57v-21.81h5.69v19.34c0,11.5-2.15,19.79-6.45,24.84-4.3,5.06-10.3,7.58-18.01,7.58-8.34,0-14.63-2.62-18.87-7.87-4.24-5.25-6.35-12.86-6.35-22.85v-65.99h17.07ZM204.19,473.39h34.7v6.07h-34.7v-6.07Z"/>
    <path class="cls-1" d="M267.71,517.39l41.91-3.22c0-12.39-1.17-21.24-3.51-26.55-2.34-5.31-7.3-7.96-14.89-7.96-3.54,0-6.8,1.08-9.77,3.22-2.97,2.15-5.31,5.88-7.02,11.19s-2.56,12.77-2.56,22.38,1.04,17.48,3.13,23.23c2.09,5.75,5.09,9.86,9.01,12.33,3.92,2.46,8.47,3.7,13.65,3.7,4.8,0,8.91-.69,12.33-2.09,3.41-1.39,6.32-3.57,8.72-6.54,2.4-2.97,4.3-6.86,5.69-11.66l4.36.95c-1.39,7.84-3.89,14.25-7.49,19.25-3.6,5-7.84,8.66-12.7,11-4.87,2.34-9.96,3.51-15.26,3.51-7.58,0-14.29-1.9-20.1-5.69-5.82-3.79-10.4-9.26-13.75-16.4-3.35-7.14-5.03-15.64-5.03-25.5,0-11.76,1.8-21.39,5.4-28.92,3.6-7.52,8.31-13.08,14.13-16.69,5.81-3.6,12.07-5.4,18.77-5.4s11.91,1.36,16.4,4.08c4.49,2.72,8.09,6.45,10.81,11.19,2.72,4.74,4.58,10.14,5.59,16.21,1.01,6.07,1.2,12.52.57,19.34h-58.4v-4.93Z"/>
    <path class="cls-1" d="M484.77,564.41c3.92-.88,7.02-2.02,9.29-3.41,2.28-1.39,3.98-3.57,5.12-6.54,1.14-2.97,1.83-7.23,2.09-12.8l4.36-83.43c.25-5.94-.82-10.02-3.22-12.23-2.4-2.21-6.01-3.57-10.81-4.08v-3.79h24.65l-6.07,107.9c-.25,4.17.16,7.37,1.23,9.58,1.07,2.21,2.84,3.95,5.31,5.21,2.47,1.27,5.66,2.47,9.58,3.6v3.79h-41.53v-3.79ZM516.44,461.64h-6.45v-23.51h19.15l21.81,81.73h1.52l22.57-81.73h9.48l-5.69,23.51h-1.71l-27.12,97.09h-7.4l-26.17-97.09ZM565.36,564.41c4.55-.88,8.18-2.02,10.9-3.41,2.72-1.39,4.67-3.32,5.88-5.78,1.2-2.46,1.67-5.72,1.42-9.77l-6.07-107.33h33.56v3.79c-5.06.51-8.82,1.93-11.28,4.27-2.46,2.34-3.51,6.73-3.13,13.18l5.31,82.3c.38,5.31,1.17,9.48,2.37,12.51,1.2,3.03,3,5.28,5.4,6.73,2.4,1.46,5.43,2.62,9.1,3.51v3.79h-53.47v-3.79Z"/>
    <path class="cls-1" d="M637.6,516.44l28.06-2.84c.76-12.26.47-20.98-.85-26.17-1.33-5.18-4.46-7.77-9.39-7.77-3.41,0-6.13,1.01-8.15,3.03-2.02,2.02-3.45,5.66-4.27,10.9-.82,5.25-1.23,12.74-1.23,22.47,0,10.37.69,18.36,2.09,23.99,1.39,5.63,3.54,9.51,6.45,11.66,2.91,2.15,6.57,3.22,11,3.22,3.79,0,6.95-.54,9.48-1.61,2.53-1.07,4.8-3,6.83-5.78,2.02-2.78,3.98-6.76,5.88-11.95l3.6.57c-1.52,8.22-3.76,14.82-6.73,19.82-2.97,5-6.45,8.6-10.43,10.81-3.98,2.21-8.38,3.32-13.18,3.32-6.83,0-12.67-1.9-17.54-5.69-4.87-3.79-8.57-9.26-11.09-16.4-2.53-7.14-3.79-15.64-3.79-25.5,0-11,1.36-20.29,4.08-27.87,2.72-7.58,6.64-13.34,11.76-17.26,5.12-3.92,11.16-5.88,18.11-5.88,5.81,0,10.59,1.55,14.32,4.65,3.73,3.1,6.54,7.18,8.44,12.23,1.9,5.06,3,10.56,3.32,16.5.31,5.94-.09,11.76-1.23,17.44h-45.51v-5.88Z"/>
    <path class="cls-1" d="M709.47,467.42c3.03-2.59,5.34-6.23,6.92-10.9,1.58-4.68,2.68-10.81,3.32-18.39h4.74v41.34h-27.31v-6.07c5.18-1.39,9.29-3.38,12.33-5.97ZM724.45,473.39v61.44c0,7.96.63,13.18,1.9,15.64,1.26,2.46,3.79,3.7,7.58,3.7,3.16,0,5.43-.76,6.83-2.28,1.39-1.52,2.09-4.3,2.09-8.34v-25.22h6.45v24.84c0,9.86-1.93,16.81-5.78,20.86-3.86,4.05-8.75,6.07-14.7,6.07-7.33,0-12.74-2.47-16.21-7.4-3.48-4.93-5.21-11.25-5.21-18.96v-70.35h17.07ZM720.84,473.39h27.12v6.07h-27.12v-6.07Z"/>
    <path class="cls-1" d="M762.56,564.79c2.78-1.01,4.87-2.24,6.26-3.7,1.39-1.45,2.34-3.63,2.84-6.54.5-2.91.76-6.89.76-11.95v-87.79c0-2.91-.28-5.15-.85-6.73-.57-1.58-1.71-2.84-3.41-3.79-1.71-.95-4.27-1.8-7.68-2.56v-2.47l29.01-10.62v119.65c0,4.3.29,7.52.85,9.67.57,2.15,1.48,3.67,2.75,4.55,1.26.89,2.91,1.64,4.93,2.28v3.41h-35.46v-3.41ZM809.58,565.17c2.53-.88,4.42-1.96,5.69-3.22s2.12-3.06,2.56-5.4c.44-2.34.66-5.53.66-9.58v-50.63c0-4.42-.85-7.36-2.56-8.82-1.71-1.45-5.03-2.18-9.96-2.18-3.54,0-6.61.16-9.2.47-2.59.32-5.34.85-8.25,1.61l-.57-1.14c2.65-4.3,6.51-7.84,11.57-10.62,5.05-2.78,10.49-4.17,16.31-4.17,6.83,0,11.82,1.74,14.98,5.21,3.16,3.48,4.74,8.25,4.74,14.32v55.94c0,4.3.29,7.58.85,9.86.57,2.28,1.48,4.01,2.75,5.21,1.26,1.2,2.91,2.25,4.93,3.13v3.03h-34.51v-3.03Z"/>
    <path class="cls-1" d="M900.98,518.71c-6.58.76-11.95,2.09-16.12,3.98-4.17,1.9-7.27,4.39-9.29,7.49-2.02,3.1-3.03,6.92-3.03,11.47,0,5.18,1.26,9.13,3.79,11.85,2.53,2.72,6.51,4.08,11.95,4.08,2.53,0,4.8-.19,6.83-.57,2.02-.38,4.11-.88,6.26-1.52l.76,1.14c-2.4,4.3-5.5,7.62-9.29,9.96-3.79,2.34-8.09,3.51-12.89,3.51-7.84,0-13.88-2.12-18.11-6.35-4.24-4.23-6.35-9.96-6.35-17.16,0-6.7,2.02-12.48,6.07-17.35,4.04-4.86,9.51-8.69,16.4-11.47,6.89-2.78,14.57-4.36,23.04-4.74v5.69ZM908.19,480.41c4.93,5.94,7.4,14.54,7.4,25.79v44.37c0,4.68,2.15,7.02,6.45,7.02,2.28,0,4.2-.88,5.78-2.65,1.58-1.77,2.87-4.87,3.89-9.29l2.65.38c-.25,7.71-2.25,13.65-5.97,17.82-3.73,4.17-8.19,6.26-13.37,6.26-5.44,0-9.61-1.71-12.52-5.12-2.91-3.41-4.36-8.22-4.36-14.41v-53.85c0-6.7-.98-11.12-2.94-13.27-1.96-2.15-5.66-3.22-11.09-3.22-3.03,0-6.48.38-10.33,1.14-3.86.76-7.11,1.83-9.77,3.22l3.98-4.17c3.41,1.39,6.35,3.64,8.82,6.73,2.46,3.1,3.7,6.86,3.7,11.28,0,3.16-.98,5.72-2.94,7.68-1.96,1.96-4.46,2.94-7.49,2.94s-5.82-1.14-7.96-3.41c-2.15-2.28-3.22-5.37-3.22-9.29,0-7.58,2.43-13.62,7.3-18.11,4.87-4.49,11.53-6.73,20-6.73,9.73,0,17.07,2.97,22,8.91Z"/>
    <path class="cls-1" d="M940.23,565.17c2.91-.88,5.05-2.24,6.45-4.08,1.39-1.83,2.31-4.27,2.75-7.3.44-3.03.66-6.76.66-11.19v-50.44c0-4.3-.63-7.27-1.9-8.91-1.27-1.64-3.98-3.03-8.15-4.17v-1.9l25.98-6.64,1.14,14.98v62.76c0,4.3.28,7.49.85,9.58.57,2.08,1.48,3.6,2.75,4.55,1.26.95,2.91,1.87,4.93,2.75v3.03h-35.46v-3.03ZM986.5,565.17c2.53-.88,4.42-1.96,5.69-3.22s2.12-3.06,2.56-5.4c.44-2.34.66-5.53.66-9.58v-50.63c0-4.42-.85-7.36-2.56-8.82-1.71-1.45-5.03-2.18-9.96-2.18-3.54,0-6.61.16-9.2.47-2.59.32-5.34.85-8.25,1.61l-.57-1.14c2.65-4.3,6.51-7.84,11.57-10.62,5.05-2.78,10.49-4.17,16.31-4.17,6.83,0,11.82,1.74,14.98,5.21,3.16,3.48,4.74,8.25,4.74,14.32v55.94c0,4.3.29,7.58.85,9.86.57,2.28,1.48,4.01,2.75,5.21,1.26,1.2,2.91,2.25,4.93,3.13v3.03h-34.51v-3.03Z"/>
    <path class="cls-1" d="M1043.76,516.44l28.06-2.84c.76-12.26.47-20.98-.85-26.17-1.33-5.18-4.46-7.77-9.39-7.77-3.41,0-6.13,1.01-8.15,3.03-2.02,2.02-3.45,5.66-4.27,10.9-.82,5.25-1.23,12.74-1.23,22.47,0,10.37.69,18.36,2.09,23.99,1.39,5.63,3.54,9.51,6.45,11.66,2.91,2.15,6.57,3.22,11,3.22,3.79,0,6.95-.54,9.48-1.61,2.53-1.07,4.8-3,6.83-5.78,2.02-2.78,3.98-6.76,5.88-11.95l3.6.57c-1.52,8.22-3.76,14.82-6.73,19.82-2.97,5-6.45,8.6-10.43,10.81-3.98,2.21-8.38,3.32-13.18,3.32-6.83,0-12.67-1.9-17.54-5.69-4.87-3.79-8.57-9.26-11.09-16.4-2.53-7.14-3.79-15.64-3.79-25.5,0-11,1.36-20.29,4.08-27.87,2.72-7.58,6.64-13.34,11.76-17.26,5.12-3.92,11.16-5.88,18.11-5.88,5.81,0,10.59,1.55,14.32,4.65,3.73,3.1,6.54,7.18,8.44,12.23,1.9,5.06,3,10.56,3.32,16.5.31,5.94-.09,11.76-1.23,17.44h-45.51v-5.88Z"/>
    <path class="cls-1" d="M-19.94,725.41c3.92-.88,7.02-2.02,9.29-3.41,2.28-1.39,3.98-3.57,5.12-6.54,1.14-2.97,1.83-7.23,2.09-12.8l4.36-83.43c.25-5.94-.82-10.02-3.22-12.23-2.4-2.21-6.01-3.57-10.81-4.08v-3.79H11.54l-6.07,107.89c-.25,4.17.16,7.37,1.23,9.58,1.07,2.21,2.84,3.95,5.31,5.21,2.47,1.27,5.66,2.47,9.58,3.6v3.79H-19.94v-3.79ZM11.73,622.64h-6.45v-23.51h19.15l21.81,81.73h1.52l22.56-81.73h9.48l-5.69,23.51h-1.71l-27.12,97.09h-7.4l-26.17-97.09ZM60.65,725.41c4.55-.88,8.18-2.02,10.9-3.41,2.72-1.39,4.68-3.32,5.88-5.78,1.2-2.46,1.67-5.72,1.42-9.77l-6.07-107.33h33.56v3.79c-5.06.51-8.82,1.93-11.28,4.27-2.47,2.34-3.51,6.73-3.13,13.18l5.31,82.3c.38,5.31,1.17,9.48,2.37,12.51,1.2,3.03,3,5.28,5.4,6.73,2.4,1.46,5.43,2.62,9.1,3.51v3.79h-53.47v-3.79Z"/>
    <path class="cls-1" d="M141.8,631.93v72.25c0,4.43,1.04,7.84,3.13,10.24,2.09,2.4,5.21,3.6,9.39,3.6,3.54,0,6.48-.22,8.82-.66,2.34-.44,4.9-1.17,7.68-2.18l.57,1.14c-2.78,5.06-6.04,8.79-9.77,11.19-3.73,2.4-8.31,3.6-13.75,3.6-4.3,0-8.22-.92-11.76-2.75-3.54-1.83-6.32-4.55-8.34-8.15-2.02-3.6-3.03-7.93-3.03-12.99v-53.09c0-3.16-.28-5.66-.85-7.49-.57-1.83-1.49-3.35-2.75-4.55-1.27-1.2-2.97-2.31-5.12-3.32v-2.09l25.79-4.74ZM186.17,631.93v78.88c0,2.78.35,4.77,1.04,5.97.69,1.2,1.99,1.8,3.89,1.8,2.28,0,4.2-.57,5.78-1.71,1.58-1.14,3-3.85,4.27-8.15l2.28.95c-1.52,8.6-3.95,14.32-7.3,17.16-3.35,2.84-7.3,4.27-11.85,4.27-2.53,0-4.96-.6-7.3-1.8-2.34-1.2-4.24-2.97-5.69-5.31-1.45-2.34-2.18-5.21-2.18-8.63v-61.06c0-3.79-.28-6.67-.85-8.63-.57-1.96-1.49-3.41-2.75-4.36-1.27-.95-2.97-1.8-5.12-2.56v-2.09l25.79-4.74Z"/>
    <path class="cls-1" d="M218.22,628.42c3.03-2.59,5.34-6.22,6.92-10.9,1.58-4.67,2.68-10.81,3.32-18.39h4.74v41.34h-27.31v-6.07c5.18-1.39,9.29-3.38,12.33-5.97ZM233.2,634.39v61.44c0,7.96.63,13.18,1.9,15.64,1.26,2.46,3.79,3.7,7.58,3.7,3.16,0,5.43-.76,6.83-2.28,1.39-1.52,2.09-4.3,2.09-8.34v-25.22h6.45v24.84c0,9.86-1.93,16.81-5.78,20.86-3.86,4.05-8.75,6.07-14.7,6.07-7.33,0-12.74-2.47-16.21-7.4-3.48-4.93-5.21-11.25-5.21-18.96v-70.35h17.07ZM229.6,634.39h27.12v6.07h-27.12v-6.07Z"/>
    <path class="cls-1" d="M316.82,679.71c-6.57.76-11.95,2.09-16.12,3.98-4.17,1.9-7.27,4.39-9.29,7.49-2.02,3.1-3.03,6.92-3.03,11.47,0,5.18,1.26,9.13,3.79,11.85,2.53,2.72,6.51,4.08,11.95,4.08,2.53,0,4.8-.19,6.83-.57,2.02-.38,4.11-.88,6.26-1.52l.76,1.14c-2.4,4.3-5.5,7.62-9.29,9.96-3.79,2.34-8.09,3.51-12.89,3.51-7.84,0-13.88-2.12-18.11-6.35-4.24-4.23-6.35-9.96-6.35-17.16,0-6.7,2.02-12.48,6.07-17.35,4.04-4.87,9.51-8.69,16.4-11.47,6.89-2.78,14.57-4.36,23.04-4.74v5.69ZM324.03,641.41c4.93,5.94,7.4,14.54,7.4,25.79v44.37c0,4.68,2.15,7.02,6.45,7.02,2.28,0,4.2-.88,5.78-2.65,1.58-1.77,2.87-4.87,3.89-9.29l2.65.38c-.25,7.71-2.25,13.65-5.97,17.82-3.73,4.17-8.19,6.26-13.37,6.26-5.44,0-9.61-1.71-12.52-5.12-2.91-3.41-4.36-8.22-4.36-14.41v-53.85c0-6.7-.98-11.12-2.94-13.27-1.96-2.15-5.66-3.22-11.09-3.22-3.03,0-6.48.38-10.33,1.14-3.86.76-7.11,1.83-9.77,3.22l3.98-4.17c3.41,1.39,6.35,3.64,8.82,6.73,2.47,3.1,3.7,6.86,3.7,11.28,0,3.16-.98,5.72-2.94,7.68-1.96,1.96-4.46,2.94-7.49,2.94s-5.82-1.14-7.96-3.41c-2.15-2.28-3.22-5.37-3.22-9.29,0-7.58,2.43-13.62,7.3-18.11,4.87-4.49,11.53-6.73,20.01-6.73,9.73,0,17.07,2.97,22,8.91Z"/>
    <path class="cls-1" d="M354.74,726.17c2.91-.88,5.05-2.24,6.45-4.08,1.39-1.83,2.31-4.27,2.75-7.3.44-3.03.66-6.76.66-11.19v-50.44c0-4.3-.63-7.27-1.9-8.91-1.27-1.64-3.98-3.03-8.15-4.17v-1.9l25.98-6.64,1.14,14.98v62.76c0,4.3.28,7.49.85,9.58.57,2.08,1.48,3.6,2.75,4.55,1.26.95,2.91,1.87,4.93,2.75v3.03h-35.46v-3.03ZM401.01,726.17c2.53-.88,4.42-1.96,5.69-3.22,1.26-1.26,2.12-3.06,2.56-5.4.44-2.34.66-5.53.66-9.58v-50.63c0-4.42-.85-7.36-2.56-8.82-1.71-1.45-5.02-2.18-9.96-2.18-3.54,0-6.61.16-9.2.47-2.59.32-5.34.85-8.25,1.61l-.57-1.14c2.65-4.3,6.51-7.84,11.57-10.62,5.05-2.78,10.49-4.17,16.31-4.17,6.83,0,11.82,1.74,14.98,5.21,3.16,3.48,4.74,8.25,4.74,14.32v55.94c0,4.3.28,7.58.85,9.86s1.48,4.01,2.75,5.21c1.26,1.2,2.91,2.25,4.93,3.13v3.03h-34.51v-3.03Z"/>
    <path class="cls-1" d="M449.17,628.42c3.03-2.59,5.34-6.22,6.92-10.9,1.58-4.67,2.68-10.81,3.32-18.39h4.74v41.34h-27.31v-6.07c5.18-1.39,9.29-3.38,12.33-5.97ZM464.15,634.39v61.44c0,7.96.63,13.18,1.9,15.64,1.26,2.46,3.79,3.7,7.58,3.7,3.16,0,5.43-.76,6.83-2.28,1.39-1.52,2.09-4.3,2.09-8.34v-25.22h6.45v24.84c0,9.86-1.93,16.81-5.78,20.86-3.86,4.05-8.75,6.07-14.7,6.07-7.33,0-12.74-2.47-16.21-7.4-3.48-4.93-5.21-11.25-5.21-18.96v-70.35h17.07ZM460.55,634.39h27.12v6.07h-27.12v-6.07Z"/>
    <path class="cls-1" d="M677.61,599.12v6.07h-9.29c-6.83,0-12.67,1.27-17.54,3.79-4.87,2.53-9.04,6.8-12.51,12.8-3.48,6.01-6.54,14.25-9.2,24.75l-3.79-.57,2.84-46.84h49.49ZM648.98,725.41c6.45-.88,11.28-2.21,14.51-3.98,3.22-1.77,5.4-4.39,6.54-7.87,1.14-3.48,1.71-8.18,1.71-14.13v-100.31h22v100.31c0,5.94.57,10.65,1.71,14.13,1.14,3.48,3.32,6.1,6.54,7.87,3.22,1.77,8.06,3.1,14.51,3.98v3.79h-67.51v-3.79ZM740.18,645.96l-3.79.57c-2.66-10.49-5.72-18.74-9.2-24.75-3.48-6-7.62-10.27-12.42-12.8-4.81-2.53-10.68-3.79-17.63-3.79h-9.29v-6.07h49.49l2.84,46.84Z"/>
    <path class="cls-1" d="M757.06,678.39l41.91-3.22c0-12.39-1.17-21.24-3.51-26.55-2.34-5.31-7.3-7.96-14.88-7.96-3.54,0-6.8,1.08-9.77,3.22-2.97,2.15-5.31,5.88-7.02,11.19-1.71,5.31-2.56,12.77-2.56,22.38s1.04,17.48,3.13,23.23c2.09,5.75,5.09,9.86,9.01,12.33,3.92,2.46,8.47,3.7,13.65,3.7,4.8,0,8.91-.69,12.33-2.09,3.41-1.39,6.32-3.57,8.72-6.54,2.4-2.97,4.3-6.86,5.69-11.66l4.36.95c-1.39,7.84-3.89,14.25-7.49,19.25-3.6,5-7.84,8.66-12.7,11-4.87,2.34-9.96,3.51-15.26,3.51-7.58,0-14.29-1.9-20.1-5.69-5.82-3.79-10.4-9.26-13.75-16.4-3.35-7.14-5.03-15.64-5.03-25.5,0-11.76,1.8-21.39,5.4-28.92,3.6-7.52,8.31-13.08,14.13-16.69,5.81-3.6,12.07-5.4,18.77-5.4s11.91,1.36,16.4,4.08c4.49,2.72,8.09,6.45,10.81,11.19,2.72,4.74,4.58,10.14,5.59,16.21,1.01,6.07,1.2,12.51.57,19.34h-58.4v-4.93Z"/>
    <path class="cls-1" d="M847.7,678.39l41.91-3.22c0-12.39-1.17-21.24-3.51-26.55-2.34-5.31-7.3-7.96-14.88-7.96-3.54,0-6.8,1.08-9.77,3.22-2.97,2.15-5.31,5.88-7.02,11.19-1.71,5.31-2.56,12.77-2.56,22.38s1.04,17.48,3.13,23.23c2.09,5.75,5.09,9.86,9.01,12.33,3.92,2.46,8.47,3.7,13.65,3.7,4.8,0,8.91-.69,12.33-2.09,3.41-1.39,6.32-3.57,8.72-6.54,2.4-2.97,4.3-6.86,5.69-11.66l4.36.95c-1.39,7.84-3.89,14.25-7.49,19.25-3.6,5-7.84,8.66-12.7,11-4.87,2.34-9.96,3.51-15.26,3.51-7.58,0-14.29-1.9-20.1-5.69-5.82-3.79-10.4-9.26-13.75-16.4-3.35-7.14-5.03-15.64-5.03-25.5,0-11.76,1.8-21.39,5.4-28.92,3.6-7.52,8.31-13.08,14.13-16.69,5.81-3.6,12.07-5.4,18.77-5.4s11.91,1.36,16.4,4.08c4.49,2.72,8.09,6.45,10.81,11.19,2.72,4.74,4.58,10.14,5.59,16.21,1.01,6.07,1.2,12.51.57,19.34h-58.4v-4.93Z"/>
    <path class="cls-1" d="M928.38,628.89c3.6-2.78,6.35-6.42,8.25-10.9,1.9-4.49,3.35-9.83,4.36-16.02h4.74v38.49h-32.05v-5.5c6.19-1.26,11.09-3.29,14.7-6.07ZM945.73,634.39v64.47c0,6.58,1.07,11.16,3.22,13.75,2.15,2.59,5.56,3.89,10.24,3.89,4.42,0,7.78-1.26,10.05-3.79,2.28-2.53,3.41-6.38,3.41-11.57v-21.81h5.69v19.34c0,11.5-2.15,19.79-6.45,24.84-4.3,5.06-10.3,7.58-18.01,7.58-8.34,0-14.63-2.62-18.87-7.87-4.24-5.25-6.35-12.86-6.35-22.85v-65.99h17.07ZM942.13,634.39h34.7v6.07h-34.7v-6.07Z"/>
    <path class="cls-1" d="M989.15,725.79c3.67-1.14,6.48-2.43,8.44-3.89,1.96-1.45,3.32-3.51,4.08-6.16.76-2.66,1.14-6.32,1.14-11v-88.74c0-3.41-.28-6.07-.85-7.96-.57-1.9-1.77-3.35-3.6-4.36-1.83-1.01-4.65-1.9-8.44-2.66v-2.28l29.96-10.81v119.46c0,4.05.31,7.3.95,9.77.63,2.46,1.8,4.33,3.51,5.59,1.71,1.27,4.01,2.28,6.92,3.03v3.41h-42.1v-3.41ZM1050.59,725.79c3.79-.76,6.54-1.77,8.25-3.03,1.71-1.26,2.75-3.13,3.13-5.59.38-2.46.57-5.72.57-9.77v-44.37c0-6.07-1.39-10.4-4.17-12.99-2.78-2.59-7.65-3.89-14.6-3.89-5.06,0-9.77.29-14.13.85-4.36.57-8.25,1.42-11.66,2.56l-.38-2.28c4.17-4.42,8.75-7.99,13.75-10.71,4.99-2.72,11.53-4.08,19.63-4.08,9.35,0,16.46,2.4,21.33,7.21,4.87,4.81,7.3,11.5,7.3,20.1v46.84c0,4.3.35,7.68,1.04,10.15.69,2.46,1.93,4.33,3.7,5.59,1.77,1.26,4.3,2.4,7.58,3.41v3.41h-41.34v-3.41Z"/>
    <path class="cls-1" d="M-23.17,886.41c4.8-.76,8.56-1.86,11.28-3.32,2.72-1.45,4.68-3.79,5.88-7.02,1.2-3.22,1.8-7.61,1.8-13.18v-81.54c0-6.45-1.27-10.84-3.79-13.18-2.53-2.34-7.27-3.76-14.22-4.27v-3.79H16.66v102.77c0,5.44.69,9.77,2.09,12.99,1.39,3.22,3.76,5.63,7.11,7.21,3.35,1.58,7.87,2.69,13.56,3.32v3.79H-23.17v-3.79ZM77.33,802.98h-4.36c-1.14-9.35-3.22-16.59-6.26-21.71-3.03-5.12-7.3-8.66-12.8-10.62-5.5-1.96-12.55-2.94-21.14-2.94H6.61v-7.58h70.73v42.85ZM54.01,802.98l3.41,54.61-4.17.38c-1.01-6.7-2.31-11.88-3.89-15.55-1.58-3.67-3.79-6.23-6.64-7.68-2.84-1.45-6.8-2.18-11.85-2.18H7.17v-7.58h25.41c3.92,0,7.08-.73,9.48-2.18,2.4-1.45,4.2-3.79,5.4-7.02,1.2-3.22,1.93-7.49,2.18-12.8h4.36Z"/>
    <path class="cls-1" d="M131.37,841.66c-9.74.25-17.19,1.49-22.38,3.7-5.19,2.21-8.72,4.9-10.62,8.06-1.9,3.16-2.84,6.45-2.84,9.86,0,5.44,1.39,9.64,4.17,12.61,2.78,2.97,7.27,4.46,13.46,4.46,4.3,0,7.87-.35,10.71-1.04,2.84-.69,5.66-1.74,8.44-3.13l.76,1.71c-3.92,5.06-8.12,8.69-12.61,10.9-4.49,2.21-9.96,3.32-16.4,3.32-7.71,0-13.91-2.24-18.58-6.73-4.68-4.49-7.02-10.46-7.02-17.92,0-6.32,1.77-11.88,5.31-16.69,3.54-4.8,9.2-8.53,16.97-11.19s17.98-3.98,30.62-3.98v6.07ZM138.2,802.6c5.18,6.07,7.77,14.6,7.77,25.6v43.8c0,5.06,2.47,7.58,7.4,7.58,2.91,0,5.24-.6,7.02-1.8,1.77-1.2,3.48-3,5.12-5.4l1.9,1.9c-2.28,6.07-5.28,10.56-9.01,13.46-3.73,2.91-8.19,4.36-13.37,4.36-5.44,0-9.55-1.58-12.33-4.74-2.78-3.16-4.17-8.03-4.17-14.6v-54.04c0-5.81-1.39-9.96-4.17-12.42-2.78-2.47-7.33-3.7-13.65-3.7-4.17,0-8.19.32-12.04.95-3.86.63-7.11,1.64-9.77,3.03l4.74-4.55c3.67,2.02,6.54,4.62,8.63,7.77,2.09,3.16,3.13,6.7,3.13,10.62,0,2.66-.95,5-2.84,7.02-1.9,2.02-4.43,3.03-7.58,3.03s-5.82-1.17-7.96-3.51c-2.15-2.34-3.22-5.34-3.22-9.01,0-6.7,2.4-12.45,7.21-17.25s12.52-7.21,23.13-7.21,18.9,3.03,24.08,9.1Z"/>
    <path class="cls-1" d="M172.71,886.98c4.17-1.14,7.36-2.34,9.58-3.6,2.21-1.26,3.76-3.1,4.65-5.5.88-2.4,1.33-5.75,1.33-10.05v-53.66c0-4.3-.66-7.27-1.99-8.91-1.33-1.64-4.33-3.03-9.01-4.17v-1.9l28.44-6.45v75.09c0,4.3.38,7.71,1.14,10.24.76,2.53,2.15,4.46,4.17,5.78,2.02,1.33,4.99,2.37,8.91,3.13v3.22h-47.22v-3.22ZM187.79,771.97c-2.21-2.72-3.32-6.29-3.32-10.71s1.1-7.93,3.32-10.52c2.21-2.59,5.09-3.89,8.63-3.89s6.19,1.3,8.34,3.89c2.15,2.59,3.22,6.1,3.22,10.52s-1.08,8-3.22,10.71c-2.15,2.72-4.93,4.08-8.34,4.08s-6.42-1.36-8.63-4.08Z"/>
    <path class="cls-1" d="M230.92,886.98c3.67-1.14,6.48-2.28,8.44-3.41,1.96-1.14,3.32-2.97,4.08-5.5.76-2.53,1.14-6.32,1.14-11.38v-52.53c0-4.3-.63-7.27-1.9-8.91-1.27-1.64-3.98-3.03-8.15-4.17v-1.9l24.84-6.64,2.28,14.98v62.95c0,3.92.35,6.92,1.04,9.01.69,2.09,1.93,3.67,3.7,4.74,1.77,1.08,4.3,1.99,7.58,2.75v3.22h-43.04v-3.22ZM291.41,886.98c3.67-.76,6.41-1.67,8.25-2.75,1.83-1.07,3.03-2.66,3.6-4.74s.85-5.09.85-9.01v-46.65c0-5.94-1.52-10.21-4.55-12.8-3.03-2.59-7.84-3.89-14.41-3.89-5.44,0-10.33.35-14.7,1.04-4.36.7-8.25,1.74-11.66,3.13l-.57-1.14c4.68-5.81,9.89-10.05,15.64-12.7,5.75-2.66,12.17-3.98,19.25-3.98,9.35,0,16.37,2.44,21.05,7.3,4.68,4.87,7.02,11.73,7.02,20.57v45.32c0,5.06.35,8.85,1.04,11.38.69,2.53,2.02,4.36,3.98,5.5,1.96,1.14,4.71,2.28,8.25,3.41v3.22h-43.04v-3.22Z"/>
    <path class="cls-1" d="M348.01,789.89c3.6-2.78,6.35-6.42,8.25-10.9,1.9-4.49,3.35-9.83,4.36-16.02h4.74v38.49h-32.05v-5.5c6.19-1.26,11.09-3.29,14.7-6.07ZM365.36,795.39v64.47c0,6.58,1.07,11.16,3.22,13.75,2.15,2.59,5.56,3.89,10.24,3.89,4.42,0,7.77-1.26,10.05-3.79,2.28-2.53,3.41-6.38,3.41-11.57v-21.81h5.69v19.34c0,11.5-2.15,19.79-6.45,24.84-4.3,5.06-10.3,7.58-18.01,7.58-8.34,0-14.63-2.62-18.87-7.87-4.24-5.25-6.35-12.86-6.35-22.85v-65.99h17.07ZM361.76,795.39h34.7v6.07h-34.7v-6.07Z"/>
    <path class="cls-1" d="M553.79,760.12v6.07h-7.4c-4.3,0-8.15,1.11-11.57,3.32-3.41,2.21-6.32,5.97-8.72,11.28-2.4,5.31-4.49,12.64-6.26,22l-4.17-.57,1.9-42.1h36.22ZM529.14,886.41c4.93-.76,8.69-1.83,11.28-3.22,2.59-1.39,4.36-3.57,5.31-6.54.95-2.97,1.42-7.11,1.42-12.42v-104.1h20.67v104.1c0,5.31.47,9.45,1.42,12.42.95,2.97,2.75,5.15,5.4,6.54,2.66,1.39,6.38,2.46,11.19,3.22v3.79h-56.7v-3.79ZM599.3,802.22l-4.17.57c-1.64-9.35-3.7-16.69-6.16-22-2.46-5.31-5.37-9.07-8.72-11.28-3.35-2.21-7.24-3.32-11.66-3.32h-7.4v-6.07h36.22l1.9,42.1Z"/>
    <path class="cls-1" d="M606.51,886.98c2.53-.88,4.58-1.93,6.16-3.13,1.58-1.2,2.75-3,3.51-5.4.76-2.4,1.14-5.94,1.14-10.62v-53.66c0-4.3-.6-7.27-1.8-8.91-1.2-1.64-3.64-3.03-7.3-4.17v-1.9l26.55-6.45v75.09c0,4.68.31,8.22.95,10.62.63,2.4,1.71,4.2,3.22,5.4,1.52,1.2,3.6,2.25,6.26,3.13v3.22h-38.68v-3.22ZM617.69,772.07c-2.15-2.65-3.22-6.26-3.22-10.81s1.07-8.09,3.22-10.62c2.15-2.53,4.74-3.79,7.77-3.79s5.4,1.26,7.49,3.79c2.08,2.53,3.13,6.07,3.13,10.62s-1.04,8.15-3.13,10.81c-2.09,2.66-4.58,3.98-7.49,3.98s-5.63-1.33-7.77-3.98Z"/>
    <path class="cls-1" d="M663.96,789.42c3.03-2.59,5.34-6.22,6.92-10.9,1.58-4.67,2.68-10.81,3.32-18.39h4.74v41.34h-27.31v-6.07c5.18-1.39,9.29-3.38,12.33-5.97ZM678.94,795.39v61.44c0,7.96.63,13.18,1.9,15.64,1.26,2.46,3.79,3.7,7.58,3.7,3.16,0,5.43-.76,6.83-2.28,1.39-1.52,2.09-4.3,2.09-8.34v-25.22h6.45v24.84c0,9.86-1.93,16.81-5.78,20.86-3.86,4.05-8.75,6.07-14.7,6.07-7.33,0-12.74-2.47-16.21-7.4-3.48-4.93-5.21-11.25-5.21-18.96v-70.35h17.07ZM675.34,795.39h27.12v6.07h-27.12v-6.07Z"/>
    <path class="cls-1" d="M761.8,840.71c-6.58.76-11.95,2.09-16.12,3.98-4.17,1.9-7.27,4.39-9.29,7.49-2.02,3.1-3.03,6.92-3.03,11.47,0,5.18,1.26,9.13,3.79,11.85,2.53,2.72,6.51,4.08,11.95,4.08,2.53,0,4.8-.19,6.83-.57,2.02-.38,4.11-.88,6.26-1.52l.76,1.14c-2.4,4.3-5.5,7.62-9.29,9.96-3.79,2.34-8.09,3.51-12.89,3.51-7.84,0-13.88-2.12-18.11-6.35-4.24-4.23-6.35-9.96-6.35-17.16,0-6.7,2.02-12.48,6.07-17.35,4.04-4.87,9.51-8.69,16.4-11.47,6.89-2.78,14.57-4.36,23.04-4.74v5.69ZM769.01,802.41c4.93,5.94,7.4,14.54,7.4,25.79v44.37c0,4.68,2.15,7.02,6.45,7.02,2.28,0,4.2-.88,5.78-2.65,1.58-1.77,2.87-4.87,3.89-9.29l2.65.38c-.25,7.71-2.25,13.65-5.97,17.82-3.73,4.17-8.19,6.26-13.37,6.26-5.44,0-9.61-1.71-12.52-5.12-2.91-3.41-4.36-8.22-4.36-14.41v-53.85c0-6.7-.98-11.12-2.94-13.27-1.96-2.15-5.66-3.22-11.09-3.22-3.03,0-6.48.38-10.33,1.14-3.86.76-7.11,1.83-9.77,3.22l3.98-4.17c3.41,1.39,6.35,3.64,8.82,6.73,2.46,3.1,3.7,6.86,3.7,11.28,0,3.16-.98,5.72-2.94,7.68-1.96,1.96-4.46,2.94-7.49,2.94s-5.82-1.14-7.96-3.41c-2.15-2.28-3.22-5.37-3.22-9.29,0-7.58,2.43-13.62,7.3-18.11,4.87-4.49,11.53-6.73,20-6.73,9.73,0,17.07,2.97,22,8.91Z"/>
    <path class="cls-1" d="M798.78,887.17c2.91-.88,5.05-2.24,6.45-4.08,1.39-1.83,2.31-4.27,2.75-7.3.44-3.03.66-6.76.66-11.19v-50.44c0-4.3-.63-7.27-1.9-8.91-1.27-1.64-3.98-3.03-8.15-4.17v-1.9l25.98-6.64,1.14,14.98v62.76c0,4.3.28,7.49.85,9.58.57,2.08,1.48,3.6,2.75,4.55,1.26.95,2.91,1.87,4.93,2.75v3.03h-35.46v-3.03ZM845.04,887.17c2.53-.88,4.42-1.96,5.69-3.22s2.12-3.06,2.56-5.4c.44-2.34.66-5.53.66-9.58v-50.63c0-4.42-.85-7.36-2.56-8.82-1.71-1.45-5.03-2.18-9.96-2.18-3.54,0-6.61.16-9.2.47-2.59.32-5.34.85-8.25,1.61l-.57-1.14c2.65-4.3,6.51-7.84,11.57-10.62,5.05-2.78,10.49-4.17,16.31-4.17,6.83,0,11.82,1.74,14.98,5.21,3.16,3.48,4.74,8.25,4.74,14.32v55.94c0,4.3.29,7.58.85,9.86.57,2.28,1.48,4.01,2.75,5.21,1.26,1.2,2.91,2.25,4.93,3.13v3.03h-34.51v-3.03Z"/>
    <path class="cls-1" d="M932.65,840.71c-6.58.76-11.95,2.09-16.12,3.98-4.17,1.9-7.27,4.39-9.29,7.49-2.02,3.1-3.03,6.92-3.03,11.47,0,5.18,1.26,9.13,3.79,11.85,2.53,2.72,6.51,4.08,11.95,4.08,2.53,0,4.8-.19,6.83-.57,2.02-.38,4.11-.88,6.26-1.52l.76,1.14c-2.4,4.3-5.5,7.62-9.29,9.96-3.79,2.34-8.09,3.51-12.89,3.51-7.84,0-13.88-2.12-18.11-6.35-4.24-4.23-6.35-9.96-6.35-17.16,0-6.7,2.02-12.48,6.07-17.35,4.04-4.87,9.51-8.69,16.4-11.47,6.89-2.78,14.57-4.36,23.04-4.74v5.69ZM939.85,802.41c4.93,5.94,7.4,14.54,7.4,25.79v44.37c0,4.68,2.15,7.02,6.45,7.02,2.28,0,4.2-.88,5.78-2.65,1.58-1.77,2.87-4.87,3.89-9.29l2.65.38c-.25,7.71-2.25,13.65-5.97,17.82-3.73,4.17-8.19,6.26-13.37,6.26-5.44,0-9.61-1.71-12.52-5.12-2.91-3.41-4.36-8.22-4.36-14.41v-53.85c0-6.7-.98-11.12-2.94-13.27-1.96-2.15-5.66-3.22-11.09-3.22-3.03,0-6.48.38-10.33,1.14-3.86.76-7.11,1.83-9.77,3.22l3.98-4.17c3.41,1.39,6.35,3.64,8.82,6.73,2.46,3.1,3.7,6.86,3.7,11.28,0,3.16-.98,5.72-2.94,7.68-1.96,1.96-4.46,2.94-7.49,2.94s-5.82-1.14-7.96-3.41c-2.15-2.28-3.22-5.37-3.22-9.29,0-7.58,2.43-13.62,7.3-18.11,4.87-4.49,11.53-6.73,20-6.73,9.73,0,17.07,2.97,22,8.91Z"/>
    <path class="cls-1" d="M978.72,789.42c3.03-2.59,5.34-6.22,6.92-10.9,1.58-4.67,2.68-10.81,3.32-18.39h4.74v41.34h-27.31v-6.07c5.18-1.39,9.29-3.38,12.33-5.97ZM993.7,795.39v61.44c0,7.96.63,13.18,1.9,15.64,1.26,2.46,3.79,3.7,7.58,3.7,3.16,0,5.43-.76,6.83-2.28,1.39-1.52,2.09-4.3,2.09-8.34v-25.22h6.45v24.84c0,9.86-1.93,16.81-5.78,20.86-3.86,4.05-8.75,6.07-14.7,6.07-7.33,0-12.74-2.47-16.21-7.4-3.48-4.93-5.21-11.25-5.21-18.96v-70.35h17.07ZM990.1,795.39h27.12v6.07h-27.12v-6.07Z"/>
    <path class="cls-1" d="M1043.76,838.44l28.06-2.84c.76-12.26.47-20.98-.85-26.17-1.33-5.18-4.46-7.77-9.39-7.77-3.41,0-6.13,1.01-8.15,3.03s-3.45,5.66-4.27,10.9c-.82,5.25-1.23,12.74-1.23,22.47,0,10.37.69,18.36,2.09,23.99,1.39,5.63,3.54,9.51,6.45,11.66,2.91,2.15,6.57,3.22,11,3.22,3.79,0,6.95-.54,9.48-1.61,2.53-1.07,4.8-3,6.83-5.78,2.02-2.78,3.98-6.76,5.88-11.95l3.6.57c-1.52,8.22-3.76,14.82-6.73,19.82-2.97,5-6.45,8.6-10.43,10.81-3.98,2.21-8.38,3.32-13.18,3.32-6.83,0-12.67-1.9-17.54-5.69-4.87-3.79-8.57-9.26-11.09-16.4-2.53-7.14-3.79-15.64-3.79-25.5,0-11,1.36-20.29,4.08-27.87,2.72-7.58,6.64-13.34,11.76-17.26,5.12-3.92,11.16-5.88,18.11-5.88,5.81,0,10.59,1.55,14.32,4.65,3.73,3.1,6.54,7.18,8.44,12.23,1.9,5.06,3,10.56,3.32,16.5.31,5.94-.09,11.76-1.23,17.45h-45.51v-5.88Z"/>
    <path class="cls-1" d="M-22.22,1047.41c3.67-.76,6.51-1.77,8.53-3.03,2.02-1.26,3.48-3.19,4.36-5.78.88-2.59,1.33-6.04,1.33-10.33v-85.9c0-6.45-1.08-10.84-3.22-13.18-2.15-2.34-5.5-3.76-10.05-4.27v-3.79H29.93v3.79c-3.79.38-7.05,1.23-9.77,2.56-2.72,1.33-4.77,3.38-6.16,6.16-1.39,2.78-2.09,6.45-2.09,11v106.57H-22.22v-3.79ZM4.71,1051.2v-6.07h11.19c6.32,0,11.66-1.2,16.02-3.6,4.36-2.4,8.06-6.83,11.09-13.27,3.03-6.45,5.56-15.8,7.58-28.06l4.74.38-2.65,50.63H4.71Z"/>
    <path class="cls-1" d="M63.3,1047.98c2.53-.88,4.58-1.93,6.16-3.13,1.58-1.2,2.75-3,3.51-5.4.76-2.4,1.14-5.94,1.14-10.62v-53.66c0-4.3-.6-7.27-1.8-8.91-1.2-1.64-3.64-3.03-7.3-4.17v-1.9l26.55-6.45v75.09c0,4.68.31,8.22.95,10.62.63,2.4,1.71,4.2,3.22,5.4,1.52,1.2,3.6,2.25,6.26,3.13v3.22h-38.68v-3.22ZM74.49,933.07c-2.15-2.65-3.22-6.26-3.22-10.81s1.07-8.09,3.22-10.62c2.15-2.53,4.74-3.79,7.77-3.79s5.4,1.26,7.49,3.79c2.09,2.53,3.13,6.07,3.13,10.62s-1.04,8.15-3.13,10.81c-2.09,2.66-4.58,3.98-7.49,3.98s-5.63-1.33-7.77-3.98Z"/>
    <path class="cls-1" d="M115.64,950.42c3.03-2.59,5.34-6.22,6.92-10.9,1.58-4.67,2.68-10.81,3.32-18.39h4.74v41.34h-27.31v-6.07c5.18-1.39,9.29-3.38,12.33-5.97ZM130.62,956.39v61.44c0,7.96.63,13.18,1.9,15.64,1.26,2.46,3.79,3.7,7.58,3.7,3.16,0,5.43-.76,6.83-2.28,1.39-1.52,2.09-4.3,2.09-8.34v-25.22h6.45v24.84c0,9.86-1.93,16.81-5.78,20.86-3.86,4.05-8.75,6.07-14.7,6.07-7.33,0-12.74-2.47-16.21-7.4-3.48-4.93-5.21-11.25-5.21-18.96v-70.35h17.07ZM127.01,956.39h27.12v6.07h-27.12v-6.07Z"/>
    <path class="cls-1" d="M163.99,1047.79c2.78-1.01,4.86-2.24,6.26-3.7,1.39-1.45,2.34-3.63,2.84-6.54.5-2.91.76-6.89.76-11.95v-87.79c0-2.91-.28-5.15-.85-6.73-.57-1.58-1.71-2.84-3.41-3.79s-4.27-1.8-7.68-2.56v-2.46l29.01-10.62v119.65c0,4.3.28,7.52.85,9.67.57,2.15,1.48,3.67,2.75,4.55,1.26.89,2.91,1.64,4.93,2.28v3.41h-35.46v-3.41ZM211.01,1048.17c2.53-.88,4.42-1.96,5.69-3.22,1.26-1.26,2.12-3.06,2.56-5.4.44-2.34.66-5.53.66-9.58v-50.63c0-4.42-.85-7.36-2.56-8.82-1.71-1.45-5.02-2.18-9.96-2.18-3.54,0-6.61.16-9.2.47-2.59.32-5.34.85-8.25,1.61l-.57-1.14c2.65-4.3,6.51-7.84,11.57-10.62,5.05-2.78,10.49-4.17,16.31-4.17,6.83,0,11.82,1.74,14.98,5.21,3.16,3.48,4.74,8.25,4.74,14.32v55.94c0,4.3.28,7.58.85,9.86s1.48,4.01,2.75,5.21c1.26,1.2,2.91,2.25,4.93,3.13v3.03h-34.51v-3.03Z"/>
    <path class="cls-1" d="M276.24,953.93v72.25c0,4.43,1.04,7.84,3.13,10.24,2.09,2.4,5.21,3.6,9.39,3.6,3.54,0,6.48-.22,8.82-.66,2.34-.44,4.9-1.17,7.68-2.18l.57,1.14c-2.78,5.06-6.04,8.79-9.77,11.19-3.73,2.4-8.31,3.6-13.75,3.6-4.3,0-8.22-.92-11.76-2.75-3.54-1.83-6.32-4.55-8.34-8.15-2.02-3.6-3.03-7.93-3.03-12.99v-53.09c0-3.16-.28-5.66-.85-7.49-.57-1.83-1.49-3.35-2.75-4.55-1.27-1.2-2.97-2.31-5.12-3.32v-2.09l25.79-4.74ZM320.61,953.93v78.88c0,2.78.35,4.77,1.04,5.97.69,1.2,1.99,1.8,3.89,1.8,2.28,0,4.2-.57,5.78-1.71,1.58-1.14,3-3.85,4.27-8.15l2.28.95c-1.52,8.6-3.95,14.32-7.3,17.16-3.35,2.84-7.3,4.27-11.85,4.27-2.53,0-4.96-.6-7.3-1.8-2.34-1.2-4.24-2.97-5.69-5.31-1.45-2.34-2.18-5.21-2.18-8.63v-61.06c0-3.79-.28-6.67-.85-8.63-.57-1.96-1.49-3.41-2.75-4.36-1.27-.95-2.97-1.8-5.12-2.56v-2.09l25.79-4.74Z"/>
    <path class="cls-1" d="M390.58,1001.71c-6.57.76-11.95,2.09-16.12,3.98-4.17,1.9-7.27,4.39-9.29,7.49-2.02,3.1-3.03,6.92-3.03,11.47,0,5.18,1.26,9.13,3.79,11.85,2.53,2.72,6.51,4.08,11.95,4.08,2.53,0,4.8-.19,6.83-.57,2.02-.38,4.11-.88,6.26-1.52l.76,1.14c-2.4,4.3-5.5,7.62-9.29,9.96-3.79,2.34-8.09,3.51-12.89,3.51-7.84,0-13.88-2.12-18.11-6.35-4.24-4.23-6.35-9.96-6.35-17.16,0-6.7,2.02-12.48,6.07-17.35,4.04-4.87,9.51-8.69,16.4-11.47,6.89-2.78,14.57-4.36,23.04-4.74v5.69ZM397.79,963.41c4.93,5.94,7.4,14.54,7.4,25.79v44.37c0,4.68,2.15,7.02,6.45,7.02,2.28,0,4.2-.88,5.78-2.65,1.58-1.77,2.87-4.87,3.89-9.29l2.65.38c-.25,7.71-2.25,13.65-5.97,17.82-3.73,4.17-8.19,6.26-13.37,6.26-5.44,0-9.61-1.71-12.52-5.12-2.91-3.41-4.36-8.22-4.36-14.41v-53.85c0-6.7-.98-11.12-2.94-13.27-1.96-2.15-5.66-3.22-11.09-3.22-3.03,0-6.48.38-10.33,1.14-3.86.76-7.11,1.83-9.77,3.22l3.98-4.17c3.41,1.39,6.35,3.64,8.82,6.73,2.47,3.1,3.7,6.86,3.7,11.28,0,3.16-.98,5.72-2.94,7.68-1.96,1.96-4.46,2.94-7.49,2.94s-5.82-1.14-7.96-3.41c-2.15-2.28-3.22-5.37-3.22-9.29,0-7.58,2.43-13.62,7.3-18.11,4.87-4.49,11.53-6.73,20.01-6.73,9.73,0,17.07,2.97,22,8.91Z"/>
    <path class="cls-1" d="M428.51,1048.17c2.91-.88,5.05-2.24,6.45-4.08,1.39-1.83,2.31-4.27,2.75-7.3.44-3.03.66-6.76.66-11.19v-50.44c0-4.3-.63-7.27-1.9-8.91-1.27-1.64-3.98-3.03-8.15-4.17v-1.9l25.98-6.64,1.14,14.98v62.76c0,4.3.28,7.49.85,9.58.57,2.08,1.48,3.6,2.75,4.55,1.26.95,2.91,1.87,4.93,2.75v3.03h-35.46v-3.03ZM474.77,1048.17c2.53-.88,4.42-1.96,5.69-3.22,1.26-1.26,2.12-3.06,2.56-5.4.44-2.34.66-5.53.66-9.58v-50.63c0-4.42-.85-7.36-2.56-8.82-1.71-1.45-5.02-2.18-9.96-2.18-3.54,0-6.61.16-9.2.47-2.59.32-5.34.85-8.25,1.61l-.57-1.14c2.65-4.3,6.51-7.84,11.57-10.62,5.05-2.78,10.49-4.17,16.31-4.17,6.83,0,11.82,1.74,14.98,5.21,3.16,3.48,4.74,8.25,4.74,14.32v55.94c0,4.3.28,7.58.85,9.86s1.48,4.01,2.75,5.21c1.26,1.2,2.91,2.25,4.93,3.13v3.03h-34.51v-3.03Z"/>
    <path class="cls-1" d="M517.82,1047.98c2.53-.88,4.58-1.93,6.16-3.13,1.58-1.2,2.75-3,3.51-5.4.76-2.4,1.14-5.94,1.14-10.62v-53.66c0-4.3-.6-7.27-1.8-8.91-1.2-1.64-3.64-3.03-7.3-4.17v-1.9l26.55-6.45v75.09c0,4.68.31,8.22.95,10.62.63,2.4,1.71,4.2,3.22,5.4,1.52,1.2,3.6,2.25,6.26,3.13v3.22h-38.68v-3.22ZM529,933.07c-2.15-2.65-3.22-6.26-3.22-10.81s1.07-8.09,3.22-10.62c2.15-2.53,4.74-3.79,7.77-3.79s5.4,1.26,7.49,3.79c2.09,2.53,3.13,6.07,3.13,10.62s-1.04,8.15-3.13,10.81c-2.09,2.66-4.58,3.98-7.49,3.98s-5.63-1.33-7.77-3.98Z"/>
    <path class="cls-1" d="M608.83,1001.71c-6.58.76-11.95,2.09-16.12,3.98-4.17,1.9-7.27,4.39-9.29,7.49-2.02,3.1-3.03,6.92-3.03,11.47,0,5.18,1.26,9.13,3.79,11.85,2.53,2.72,6.51,4.08,11.95,4.08,2.53,0,4.8-.19,6.83-.57,2.02-.38,4.11-.88,6.26-1.52l.76,1.14c-2.4,4.3-5.5,7.62-9.29,9.96-3.79,2.34-8.09,3.51-12.89,3.51-7.84,0-13.88-2.12-18.11-6.35-4.24-4.23-6.35-9.96-6.35-17.16,0-6.7,2.02-12.48,6.07-17.35,4.04-4.87,9.51-8.69,16.4-11.47,6.89-2.78,14.57-4.36,23.04-4.74v5.69ZM616.04,963.41c4.93,5.94,7.4,14.54,7.4,25.79v44.37c0,4.68,2.15,7.02,6.45,7.02,2.28,0,4.2-.88,5.78-2.65,1.58-1.77,2.87-4.87,3.89-9.29l2.65.38c-.25,7.71-2.25,13.65-5.97,17.82-3.73,4.17-8.19,6.26-13.37,6.26-5.44,0-9.61-1.71-12.52-5.12-2.91-3.41-4.36-8.22-4.36-14.41v-53.85c0-6.7-.98-11.12-2.94-13.27-1.96-2.15-5.66-3.22-11.09-3.22-3.03,0-6.48.38-10.33,1.14-3.86.76-7.11,1.83-9.77,3.22l3.98-4.17c3.41,1.39,6.35,3.64,8.82,6.73,2.46,3.1,3.7,6.86,3.7,11.28,0,3.16-.98,5.72-2.94,7.68-1.96,1.96-4.46,2.94-7.49,2.94s-5.82-1.14-7.96-3.41c-2.15-2.28-3.22-5.37-3.22-9.29,0-7.58,2.43-13.62,7.3-18.11,4.87-4.49,11.53-6.73,20-6.73,9.73,0,17.07,2.97,22,8.91Z"/>
    <path class="cls-1" d="M647.89,1048.17c2.91-.88,5.05-2.24,6.45-4.08,1.39-1.83,2.31-4.27,2.75-7.3.44-3.03.66-6.76.66-11.19v-50.44c0-4.3-.63-7.27-1.9-8.91-1.27-1.64-3.98-3.03-8.15-4.17v-1.9l25.98-6.64,1.14,14.98v62.76c0,4.3.28,7.49.85,9.58.57,2.08,1.48,3.6,2.75,4.55,1.26.95,2.91,1.87,4.93,2.75v3.03h-35.46v-3.03ZM694.16,1048.17c2.53-.88,4.42-1.96,5.69-3.22s2.12-3.06,2.56-5.4c.44-2.34.66-5.53.66-9.58v-50.63c0-4.42-.85-7.36-2.56-8.82-1.71-1.45-5.03-2.18-9.96-2.18-3.54,0-6.61.16-9.2.47-2.59.32-5.34.85-8.25,1.61l-.57-1.14c2.65-4.3,6.51-7.84,11.57-10.62,5.05-2.78,10.49-4.17,16.31-4.17,6.83,0,11.82,1.74,14.98,5.21,3.16,3.48,4.74,8.25,4.74,14.32v55.94c0,4.3.29,7.58.85,9.86.57,2.28,1.48,4.01,2.75,5.21,1.26,1.2,2.91,2.25,4.93,3.13v3.03h-34.51v-3.03Z"/>
    <path class="cls-1" d="M864.39,1047.41c4.8-.76,8.56-1.86,11.28-3.32,2.72-1.45,4.68-3.79,5.88-7.02,1.2-3.22,1.8-7.61,1.8-13.18v-81.54c0-6.45-1.27-10.84-3.79-13.18-2.53-2.34-7.27-3.76-14.22-4.27v-3.79h38.87v102.77c0,5.44.69,9.77,2.09,12.99,1.39,3.22,3.76,5.63,7.11,7.21,3.35,1.58,7.87,2.69,13.56,3.32v3.79h-62.58v-3.79ZM964.88,963.98h-4.36c-1.14-9.35-3.22-16.59-6.26-21.71-3.03-5.12-7.3-8.66-12.8-10.62-5.5-1.96-12.55-2.94-21.14-2.94h-26.17v-7.58h70.73v42.85ZM941.56,963.98l3.41,54.61-4.17.38c-1.01-6.7-2.31-11.88-3.89-15.55-1.58-3.67-3.79-6.23-6.64-7.68-2.84-1.45-6.8-2.18-11.85-2.18h-23.7v-7.58h25.41c3.92,0,7.08-.73,9.48-2.18,2.4-1.45,4.2-3.79,5.4-7.02,1.2-3.22,1.93-7.49,2.18-12.8h4.36Z"/>
    <path class="cls-1" d="M970.95,1047.98c4.17-1.14,7.36-2.34,9.58-3.6,2.21-1.26,3.76-3.1,4.65-5.5.88-2.4,1.33-5.75,1.33-10.05v-53.66c0-4.3-.66-7.27-1.99-8.91-1.33-1.64-4.33-3.03-9.01-4.17v-1.9l28.44-6.45v75.09c0,4.3.38,7.71,1.14,10.24.76,2.53,2.15,4.46,4.17,5.78,2.02,1.33,4.99,2.37,8.91,3.13v3.22h-47.22v-3.22ZM986.03,932.97c-2.21-2.72-3.32-6.29-3.32-10.71s1.11-7.93,3.32-10.52c2.21-2.59,5.09-3.89,8.63-3.89s6.19,1.3,8.34,3.89c2.15,2.59,3.22,6.1,3.22,10.52s-1.08,8-3.22,10.71c-2.15,2.72-4.93,4.08-8.34,4.08s-6.42-1.36-8.63-4.08Z"/>
    <path class="cls-1" d="M1037.03,950.89c3.6-2.78,6.35-6.42,8.25-10.9,1.9-4.49,3.35-9.83,4.36-16.02h4.74v38.49h-32.05v-5.5c6.19-1.26,11.09-3.29,14.7-6.07ZM1054.38,956.39v64.47c0,6.58,1.07,11.16,3.22,13.75,2.15,2.59,5.56,3.89,10.24,3.89,4.42,0,7.78-1.26,10.05-3.79,2.28-2.53,3.41-6.38,3.41-11.57v-21.81h5.69v19.34c0,11.5-2.15,19.79-6.45,24.84-4.3,5.06-10.3,7.58-18.01,7.58-8.34,0-14.63-2.62-18.87-7.87-4.24-5.25-6.35-12.86-6.35-22.85v-65.99h17.07ZM1050.78,956.39h34.7v6.07h-34.7v-6.07Z"/>
  </g>
</svg>