<?xml version="1.0" encoding="UTF-8"?>
<svg id="Layer_1" data-name="Layer 1" xmlns="http://www.w3.org/2000/svg" viewBox="0 0 1080 1080">
  <defs>
    <style>
      .cls-1 {
        fill: #fff;
      }
    </style>
  </defs>
  <rect x="-65.49" y="708.36" width="1210.98" height="371.64"/>
  <rect x="-65.49" y="376.29" width="1210.98" height="66.75"/>
  <g>
    <path d="M31.65,28.67h27.22c22.79,0,34.45,10.59,34.45,28.96,0,9.12-4.96,18.63-14.88,24.13l20.11,39.01c.54,1.07.13,1.74-1.07,1.74h-19.84c-1.21,0-2.28-.67-2.81-1.88l-15.69-34.59h-9.38v34.45c0,1.21-.8,2.01-2.01,2.01h-16.09c-1.21,0-2.01-.8-2.01-2.01V30.68c0-1.21.8-2.01,2.01-2.01ZM73.75,57.63c0-7.78-4.69-12.2-12.07-12.2h-11.93v23.86h11.93c7.37,0,12.07-5.09,12.07-11.66Z"/>
    <path d="M109.81,88.06v-25.07c0-22.39,14.34-35.66,34.99-35.66s34.99,13.27,34.99,35.66v25.07c0,22.39-14.34,35.8-34.99,35.8s-34.99-13.41-34.99-35.8ZM159.01,89.8v-29.23c0-12.47-5.76-16.49-14.21-16.49s-14.21,4.02-14.21,16.49v29.23c0,10.86,5.76,16.62,14.21,16.62s14.21-5.77,14.21-16.62Z"/>
    <path d="M263.98,30.68v57.38c0,22.39-13.67,35.8-32.98,35.8s-32.98-13.41-32.98-35.8V30.68c0-1.21.8-2.01,2.01-2.01h16.09c1.21,0,2.01.8,2.01,2.01v60.19c0,11.26,4.16,15.55,12.87,15.55s12.87-4.29,12.87-15.55V30.68c0-1.21.8-2.01,2.01-2.01h16.09c1.21,0,2.01.8,2.01,2.01Z"/>
    <path d="M285.43,28.67h16.36c1.21,0,2.41.67,2.95,1.74l29.09,56.17V30.68c0-1.21.8-2.01,2.01-2.01h15.42c1.21,0,2.01.8,2.01,2.01v89.82c0,1.21-.8,2.01-2.01,2.01h-17.03c-1.21,0-2.41-.67-2.95-1.74l-28.42-53.63v53.36c0,1.21-.8,2.01-2.01,2.01h-15.42c-1.21,0-2.01-.8-2.01-2.01V30.68c0-1.21.8-2.01,2.01-2.01Z"/>
    <path d="M373.23,120.5V30.68c0-1.21.8-2.01,2.01-2.01h32.31c19.71,0,33.38,10.32,33.38,36.2v20.11c0,30.16-16.49,37.54-32.85,37.54h-32.85c-1.21,0-2.01-.8-2.01-2.01ZM420.16,93.15v-34.86c0-7.51-4.02-12.87-12.6-12.87h-13.54v59.66h14.08c9.65,0,12.07-3.35,12.07-11.93Z"/>
    <path d="M515.87,63.79v22.52c0,15.82,4.83,20.11,14.75,20.11,6.97,0,12.06-3.35,12.06-11.93v-4.29c0-1.21.8-2.01,2.01-2.01h15.15c1.21,0,2.01.8,2.01,2.01-.8,22.39-13.54,33.52-31.24,33.65-20.51.13-34.19-13.41-34.19-35.8v-25.07c0-22.39,13.67-35.66,33.38-35.66s30.16,10.86,30.83,31.37c0,1.21-.8,2.01-2.01,2.01h-13.94c-1.21,0-2.01-.8-2.01-2.01v-1.74c0-7.51-4.16-12.87-12.87-12.87s-13.94,4.02-13.94,19.71Z"/>
    <path d="M574.99,88.06v-25.07c0-22.39,14.34-35.66,34.99-35.66s34.99,13.27,34.99,35.66v25.07c0,22.39-14.34,35.8-34.99,35.8s-34.99-13.41-34.99-35.8ZM624.19,89.8v-29.23c0-12.47-5.77-16.49-14.21-16.49s-14.21,4.02-14.21,16.49v29.23c0,10.86,5.76,16.62,14.21,16.62s14.21-5.77,14.21-16.62Z"/>
    <path d="M662.93,28.67h27.21c22.79,0,34.45,10.59,34.45,28.96,0,9.12-4.96,18.63-14.88,24.13l20.11,39.01c.54,1.07.13,1.74-1.07,1.74h-19.84c-1.21,0-2.28-.67-2.82-1.88l-15.69-34.59h-9.38v34.45c0,1.21-.8,2.01-2.01,2.01h-16.09c-1.21,0-2.01-.8-2.01-2.01V30.68c0-1.21.8-2.01,2.01-2.01ZM705.03,57.63c0-7.78-4.69-12.2-12.07-12.2h-11.93v23.86h11.93c7.37,0,12.07-5.09,12.07-11.66Z"/>
    <path d="M746.85,28.67h16.36c1.21,0,2.41.67,2.95,1.74l29.09,56.17V30.68c0-1.21.8-2.01,2.01-2.01h15.42c1.21,0,2.01.8,2.01,2.01v89.82c0,1.21-.8,2.01-2.01,2.01h-17.03c-1.21,0-2.41-.67-2.95-1.74l-28.42-53.63v53.36c0,1.21-.8,2.01-2.01,2.01h-15.42c-1.21,0-2.01-.8-2.01-2.01V30.68c0-1.21.8-2.01,2.01-2.01Z"/>
    <path d="M837.48,28.67h50.01c1.21,0,2.01.8,2.01,2.01v12.74c0,1.21-.8,2.01-2.01,2.01h-31.91v21.32h28.69c1.21,0,2.01.8,2.01,2.01v12.74c0,1.21-.8,2.01-2.01,2.01h-28.69v21.58h33.11c1.21,0,2.01.8,2.01,2.01v13.41c0,1.21-.8,2.01-2.01,2.01h-51.21c-1.21,0-2.01-.8-2.01-2.01V30.68c0-1.21.8-2.01,2.01-2.01Z"/>
    <path d="M911.07,28.67h27.21c22.79,0,34.45,10.59,34.45,28.96,0,9.12-4.96,18.63-14.88,24.13l20.11,39.01c.54,1.07.13,1.74-1.07,1.74h-19.84c-1.21,0-2.28-.67-2.82-1.88l-15.69-34.59h-9.38v34.45c0,1.21-.8,2.01-2.01,2.01h-16.09c-1.21,0-2.01-.8-2.01-2.01V30.68c0-1.21.8-2.01,2.01-2.01ZM953.17,57.63c0-7.78-4.69-12.2-12.07-12.2h-11.93v23.86h11.93c7.37,0,12.07-5.09,12.07-11.66Z"/>
    <path d="M992.31,53.2c0-14.88,11.26-25.87,28.42-25.87,13.94,0,23.73,6.17,28.42,21.58.27,1.07-.27,2.15-1.34,2.68l-12.07,4.69c-1.07.54-2.15,0-2.41-1.07-2.15-7.24-6.3-10.59-12.33-10.59s-9.25,3.75-9.25,8.85,2.28,8.85,8.18,11.26l10.99,4.56c14.21,5.9,20.78,13.81,20.78,27.35,0,16.22-13.54,27.22-31.77,27.22s-31.77-11.13-32.58-30.83c0-1.21.8-2.01,2.01-2.01h15.82c1.21,0,2.01.8,2.14,2.01.54,8.71,5.36,13.41,12.6,13.41,6.57,0,11.4-3.75,11.4-9.79,0-4.69-2.15-7.51-7.91-10.05l-9.79-4.29c-14.75-6.44-21.32-16.49-21.32-29.09Z"/>
    <path d="M31.72,144.67h14.21c1.21,0,2.41.67,2.95,1.74l24,47.73,22.79-47.59c.4-1.21,1.61-1.88,2.82-1.88h12.74c1.21,0,2.01.8,2.01,2.01v89.82c0,1.21-.8,2.01-2.01,2.01h-16.09c-1.21,0-2.01-.8-2.01-2.01v-48.53l-16.22,32.44c-.54,1.07-1.74,1.74-2.95,1.74h-6.7c-1.21,0-2.41-.67-2.95-1.74l-16.49-31.64v47.73c0,1.21-.8,2.01-2.01,2.01h-14.08c-1.21,0-2.01-.8-2.01-2.01v-89.82c0-1.21.8-2.01,2.01-2.01Z"/>
    <path d="M126.63,236.64l24.13-90.09c.27-1.07,1.34-1.88,2.55-1.88h26.14c1.21,0,2.28.8,2.55,1.88l24.13,90.09c.27,1.07-.27,1.88-1.47,1.88h-16.89c-1.21,0-2.15-.8-2.55-2.01l-4.29-16.89h-29.36l-4.16,16.89c-.4,1.21-1.34,2.01-2.55,2.01h-16.76c-1.21,0-1.74-.8-1.48-1.88ZM176.64,202.85l-10.73-42.36-10.32,42.36h21.05Z"/>
    <path d="M235.09,179.79v22.52c0,15.82,4.83,20.11,14.75,20.11,6.97,0,12.07-3.35,12.07-11.93v-4.29c0-1.21.8-2.01,2.01-2.01h15.15c1.21,0,2.01.8,2.01,2.01-.8,22.39-13.54,33.52-31.24,33.65-20.51.13-34.19-13.41-34.19-35.79v-25.07c0-22.39,13.67-35.66,33.38-35.66s30.16,10.86,30.83,31.37c0,1.21-.8,2.01-2.01,2.01h-13.94c-1.21,0-2.01-.8-2.01-2.01v-1.74c0-7.51-4.16-12.87-12.87-12.87s-13.94,4.02-13.94,19.71Z"/>
    <path d="M298.23,144.67h16.09c1.21,0,2.01.8,2.01,2.01v36.73h28.82v-36.73c0-1.21.8-2.01,2.01-2.01h16.09c1.21,0,2.01.8,2.01,2.01v89.82c0,1.21-.8,2.01-2.01,2.01h-16.09c-1.21,0-2.01-.8-2.01-2.01v-35.66h-28.82v35.66c0,1.21-.8,2.01-2.01,2.01h-16.09c-1.21,0-2.01-.8-2.01-2.01v-89.82c0-1.21.8-2.01,2.01-2.01Z"/>
    <path d="M387.65,144.67h16.09c1.21,0,2.01.8,2.01,2.01v89.82c0,1.21-.8,2.01-2.01,2.01h-16.09c-1.21,0-2.01-.8-2.01-2.01v-89.82c0-1.21.8-2.01,2.01-2.01Z"/>
    <path d="M427.06,144.67h16.36c1.21,0,2.41.67,2.95,1.74l29.09,56.17v-55.9c0-1.21.8-2.01,2.01-2.01h15.42c1.21,0,2.01.8,2.01,2.01v89.82c0,1.21-.8,2.01-2.01,2.01h-17.03c-1.21,0-2.41-.67-2.95-1.74l-28.42-53.62v53.36c0,1.21-.8,2.01-2.01,2.01h-15.42c-1.21,0-2.01-.8-2.01-2.01v-89.82c0-1.21.8-2.01,2.01-2.01Z"/>
    <path d="M516.74,144.67h50c1.21,0,2.01.8,2.01,2.01v12.74c0,1.21-.8,2.01-2.01,2.01h-31.91v21.32h28.69c1.21,0,2.01.8,2.01,2.01v12.74c0,1.21-.8,2.01-2.01,2.01h-28.69v21.58h33.11c1.21,0,2.01.8,2.01,2.01v13.41c0,1.21-.8,2.01-2.01,2.01h-51.21c-1.21,0-2.01-.8-2.01-2.01v-89.82c0-1.21.8-2.01,2.01-2.01Z"/>
    <path d="M629.35,144.67h14.21c1.21,0,2.41.67,2.95,1.74l24,47.73,22.79-47.59c.4-1.21,1.61-1.88,2.82-1.88h12.74c1.21,0,2.01.8,2.01,2.01v89.82c0,1.21-.8,2.01-2.01,2.01h-16.09c-1.21,0-2.01-.8-2.01-2.01v-48.53l-16.22,32.44c-.54,1.07-1.74,1.74-2.95,1.74h-6.7c-1.21,0-2.41-.67-2.95-1.74l-16.49-31.64v47.73c0,1.21-.8,2.01-2.01,2.01h-14.08c-1.21,0-2.01-.8-2.01-2.01v-89.82c0-1.21.8-2.01,2.01-2.01Z"/>
    <path d="M732.98,144.67h16.09c1.21,0,2.01.8,2.01,2.01v89.82c0,1.21-.8,2.01-2.01,2.01h-16.09c-1.21,0-2.01-.8-2.01-2.01v-89.82c0-1.21.8-2.01,2.01-2.01Z"/>
    <path d="M771.85,144.67h16.09c1.21,0,2.01.8,2.01,2.01v74.4h33.65c1.21,0,2.01.8,2.01,2.01v13.41c0,1.21-.8,2.01-2.01,2.01h-51.75c-1.21,0-2.01-.8-2.01-2.01v-89.82c0-1.21.8-2.01,2.01-2.01Z"/>
    <path d="M841.7,144.67h16.09c1.21,0,2.01.8,2.01,2.01v74.4h33.65c1.21,0,2.01.8,2.01,2.01v13.41c0,1.21-.8,2.01-2.01,2.01h-51.75c-1.21,0-2.01-.8-2.01-2.01v-89.82c0-1.21.8-2.01,2.01-2.01Z"/>
    <path d="M913.82,144.67h50.01c1.21,0,2.01.8,2.01,2.01v12.74c0,1.21-.8,2.01-2.01,2.01h-31.91v21.32h28.69c1.21,0,2.01.8,2.01,2.01v12.74c0,1.21-.8,2.01-2.01,2.01h-28.69v21.58h33.11c1.21,0,2.01.8,2.01,2.01v13.41c0,1.21-.8,2.01-2.01,2.01h-51.21c-1.21,0-2.01-.8-2.01-2.01v-89.82c0-1.21.8-2.01,2.01-2.01Z"/>
    <path d="M982.59,236.5v-89.82c0-1.21.8-2.01,2.01-2.01h32.31c19.71,0,33.38,10.32,33.38,36.2v20.11c0,30.17-16.49,37.54-32.85,37.54h-32.85c-1.21,0-2.01-.8-2.01-2.01ZM1029.51,209.15v-34.86c0-7.51-4.02-12.87-12.6-12.87h-13.54v59.66h14.08c9.65,0,12.07-3.35,12.07-11.93Z"/>
    <path d="M31.92,260.67h27.22c22.79,0,34.45,10.59,34.45,28.96,0,9.12-4.96,18.63-14.88,24.13l20.11,39.01c.54,1.07.13,1.74-1.07,1.74h-19.84c-1.21,0-2.28-.67-2.81-1.88l-15.69-34.59h-9.38v34.45c0,1.21-.8,2.01-2.01,2.01h-16.09c-1.21,0-2.01-.8-2.01-2.01v-89.82c0-1.21.8-2.01,2.01-2.01ZM74.02,289.63c0-7.78-4.69-12.2-12.07-12.2h-11.93v23.86h11.93c7.37,0,12.07-5.09,12.07-11.66Z"/>
    <path d="M116.25,260.67h50.01c1.21,0,2.01.8,2.01,2.01v12.74c0,1.21-.8,2.01-2.01,2.01h-31.91v21.32h28.69c1.21,0,2.01.8,2.01,2.01v12.74c0,1.21-.8,2.01-2.01,2.01h-28.69v21.58h33.11c1.21,0,2.01.8,2.01,2.01v13.41c0,1.21-.8,2.01-2.01,2.01h-51.21c-1.21,0-2.01-.8-2.01-2.01v-89.82c0-1.21.8-2.01,2.01-2.01Z"/>
    <path d="M178.98,275.42v-12.74c0-1.21.8-2.01,2.01-2.01h60.6c1.21,0,2.01.8,2.01,2.01v12.74c0,1.21-.8,2.01-2.01,2.01h-20.24v75.08c0,1.21-.8,2.01-2.01,2.01h-16.09c-1.21,0-2.01-.8-2.01-2.01v-75.08h-20.24c-1.21,0-2.01-.8-2.01-2.01Z"/>
    <path d="M256.87,260.67h27.22c22.79,0,34.45,10.59,34.45,28.96,0,9.12-4.96,18.63-14.88,24.13l20.11,39.01c.54,1.07.13,1.74-1.07,1.74h-19.84c-1.21,0-2.28-.67-2.81-1.88l-15.69-34.59h-9.38v34.45c0,1.21-.8,2.01-2.01,2.01h-16.09c-1.21,0-2.01-.8-2.01-2.01v-89.82c0-1.21.8-2.01,2.01-2.01ZM298.97,289.63c0-7.78-4.69-12.2-12.07-12.2h-11.93v23.86h11.93c7.37,0,12.07-5.09,12.07-11.66Z"/>
    <path d="M332.35,320.06v-25.07c0-22.39,14.34-35.66,34.99-35.66s34.99,13.27,34.99,35.66v25.07c0,22.39-14.34,35.79-34.99,35.79s-34.99-13.41-34.99-35.79ZM381.55,321.8v-29.23c0-12.47-5.76-16.49-14.21-16.49s-14.21,4.02-14.21,16.49v29.23c0,10.86,5.76,16.62,14.21,16.62s14.21-5.76,14.21-16.62Z"/>
    <path d="M477.53,295.79v22.52c0,15.82,4.83,20.11,15.55,20.11,7.64,0,12.74-3.49,12.74-11.93v-8.98h-13.81c-1.21,0-2.01-.8-2.01-2.01v-12.74c0-1.21.8-2.01,2.01-2.01h31.24c1.21,0,2.01.8,2.01,2.01v23.06c-.94,19.84-14.34,29.9-32.18,30.03-21.32.13-34.99-13.41-34.99-35.79v-25.07c0-22.39,13.67-35.66,34.19-35.66,17.43,0,26.01,8.85,30.16,21.58.4,1.07,0,2.28-1.07,2.82l-12.07,5.9c-1.07.54-2.01.13-2.41-.94-3.75-9.12-7.64-12.6-14.61-12.6-9.92,0-14.75,4.02-14.75,19.71Z"/>
    <path d="M544.83,260.67h50.01c1.21,0,2.01.8,2.01,2.01v12.74c0,1.21-.8,2.01-2.01,2.01h-31.91v21.32h28.69c1.21,0,2.01.8,2.01,2.01v12.74c0,1.21-.8,2.01-2.01,2.01h-28.69v21.58h33.11c1.21,0,2.01.8,2.01,2.01v13.41c0,1.21-.8,2.01-2.01,2.01h-51.21c-1.21,0-2.01-.8-2.01-2.01v-89.82c0-1.21.8-2.01,2.01-2.01Z"/>
    <path d="M610.78,320.06v-25.07c0-22.39,14.34-35.66,34.99-35.66s34.99,13.27,34.99,35.66v25.07c0,22.39-14.34,35.79-34.99,35.79s-34.99-13.41-34.99-35.79ZM659.99,321.8v-29.23c0-12.47-5.76-16.49-14.21-16.49s-14.21,4.02-14.21,16.49v29.23c0,10.86,5.76,16.62,14.21,16.62s14.21-5.76,14.21-16.62Z"/>
    <path d="M742.29,285.2c0-14.88,11.26-25.88,28.42-25.88,13.94,0,23.73,6.17,28.42,21.58.27,1.07-.27,2.14-1.34,2.68l-12.07,4.69c-1.07.54-2.15,0-2.41-1.07-2.15-7.24-6.3-10.59-12.33-10.59s-9.25,3.75-9.25,8.85,2.28,8.85,8.18,11.26l10.99,4.56c14.21,5.9,20.78,13.81,20.78,27.35,0,16.22-13.54,27.21-31.77,27.21s-31.77-11.13-32.58-30.83c0-1.21.8-2.01,2.01-2.01h15.82c1.21,0,2.01.8,2.14,2.01.54,8.71,5.36,13.41,12.6,13.41,6.57,0,11.4-3.75,11.4-9.79,0-4.69-2.15-7.51-7.91-10.05l-9.79-4.29c-14.75-6.44-21.32-16.49-21.32-29.09Z"/>
    <path d="M811.07,352.64l24.13-90.09c.27-1.07,1.34-1.88,2.55-1.88h26.14c1.21,0,2.28.8,2.55,1.88l24.13,90.09c.27,1.07-.27,1.88-1.47,1.88h-16.89c-1.21,0-2.15-.8-2.55-2.01l-4.29-16.89h-29.36l-4.16,16.89c-.4,1.21-1.34,2.01-2.55,2.01h-16.76c-1.21,0-1.74-.8-1.47-1.88ZM861.07,318.85l-10.73-42.36-10.32,42.36h21.05Z"/>
    <path d="M906.52,260.67h16.36c1.21,0,2.41.67,2.95,1.74l29.09,56.17v-55.91c0-1.21.8-2.01,2.01-2.01h15.42c1.21,0,2.01.8,2.01,2.01v89.82c0,1.21-.8,2.01-2.01,2.01h-17.03c-1.21,0-2.41-.67-2.95-1.74l-28.42-53.62v53.36c0,1.21-.8,2.01-2.01,2.01h-15.42c-1.21,0-2.01-.8-2.01-2.01v-89.82c0-1.21.8-2.01,2.01-2.01Z"/>
    <path d="M992.04,285.2c0-14.88,11.26-25.88,28.42-25.88,13.94,0,23.73,6.17,28.42,21.58.27,1.07-.27,2.14-1.34,2.68l-12.07,4.69c-1.07.54-2.15,0-2.41-1.07-2.15-7.24-6.3-10.59-12.33-10.59s-9.25,3.75-9.25,8.85,2.28,8.85,8.18,11.26l10.99,4.56c14.21,5.9,20.78,13.81,20.78,27.35,0,16.22-13.54,27.21-31.77,27.21s-31.77-11.13-32.58-30.83c0-1.21.8-2.01,2.01-2.01h15.82c1.21,0,2.01.8,2.14,2.01.54,8.71,5.36,13.41,12.6,13.41,6.57,0,11.4-3.75,11.4-9.79,0-4.69-2.15-7.51-7.91-10.05l-9.79-4.29c-14.75-6.44-21.32-16.49-21.32-29.09Z"/>
  </g>
  <g>
    <path d="M41.35,461.82h33.81c2.87,0,5.74,1.59,7.02,4.15l57.09,113.55,54.22-113.23c.96-2.87,3.83-4.47,6.7-4.47h30.3c2.87,0,4.78,1.91,4.78,4.78v213.7c0,2.87-1.91,4.78-4.78,4.78h-38.27c-2.87,0-4.78-1.91-4.78-4.78v-115.46l-38.59,77.19c-1.28,2.55-4.15,4.15-7.02,4.15h-15.95c-2.87,0-5.74-1.59-7.02-4.15l-39.23-75.27v113.55c0,2.87-1.91,4.78-4.78,4.78h-33.49c-2.87,0-4.78-1.91-4.78-4.78v-213.7c0-2.87,1.91-4.78,4.78-4.78Z"/>
    <path d="M270.36,680.62l57.41-214.34c.64-2.55,3.19-4.47,6.06-4.47h62.2c2.87,0,5.42,1.91,6.06,4.47l57.41,214.34c.64,2.55-.64,4.47-3.51,4.47h-40.19c-2.87,0-5.1-1.91-6.06-4.78l-10.21-40.19h-69.85l-9.89,40.19c-.96,2.87-3.19,4.78-6.06,4.78h-39.87c-2.87,0-4.15-1.91-3.51-4.47ZM389.33,600.25l-25.52-100.79-24.56,100.79h50.08Z"/>
    <path d="M495.54,680.31v-213.7c0-2.87,1.91-4.78,4.78-4.78h76.87c46.89,0,79.42,24.56,79.42,86.12v47.84c0,71.76-39.23,89.31-78.14,89.31h-78.14c-2.87,0-4.78-1.91-4.78-4.78ZM607.17,615.24v-82.93c0-17.86-9.57-30.62-29.98-30.62h-32.21v141.94h33.49c22.96,0,28.71-7.97,28.71-28.39Z"/>
    <path d="M704.14,680.31v-213.7c0-2.87,1.91-4.78,4.78-4.78h76.87c46.89,0,79.42,24.56,79.42,86.12v47.84c0,71.76-39.23,89.31-78.14,89.31h-78.14c-2.87,0-4.78-1.91-4.78-4.78ZM815.77,615.24v-82.93c0-17.86-9.57-30.62-29.98-30.62h-32.21v141.94h33.49c22.96,0,28.71-7.97,28.71-28.39Z"/>
    <path d="M891.05,461.82h40.83c2.87,0,5.42,1.91,6.38,4.47l34.77,91.54,29.98-91.54c.96-2.55,3.51-4.47,6.38-4.47h37c2.87,0,4.15,1.91,3.19,4.47l-55.82,146.08v67.94c0,2.87-1.91,4.78-4.78,4.78h-38.27c-2.87,0-4.79-1.91-4.79-4.78v-65.71l-58.05-148.31c-.96-2.55.32-4.47,3.19-4.47Z"/>
  </g>
  <g>
    <path class="cls-1" d="M23.14,822.85l-30.83-90.09c-.4-1.07.13-1.88,1.34-1.88H11.88c1.21,0,2.28.8,2.68,1.88l18.9,58.85,18.1-58.85c.27-1.07,1.34-1.88,2.55-1.88h16.22c1.21,0,1.74.8,1.34,1.88l-30.83,90.09c-.4,1.07-1.47,1.88-2.68,1.88h-12.33c-1.21,0-2.28-.8-2.68-1.88Z"/>
    <path class="cls-1" d="M84.81,730.88h50.01c1.21,0,2.01.8,2.01,2.01v12.74c0,1.21-.8,2.01-2.01,2.01h-31.91v21.32h28.69c1.21,0,2.01.8,2.01,2.01v12.74c0,1.21-.8,2.01-2.01,2.01h-28.69v21.58h33.11c1.21,0,2.01.8,2.01,2.01v13.41c0,1.21-.8,2.01-2.01,2.01h-51.21c-1.21,0-2.01-.8-2.01-2.01v-89.82c0-1.21.8-2.01,2.01-2.01Z"/>
    <path class="cls-1" d="M157.6,730.88h27.22c22.79,0,34.45,10.59,34.45,28.96,0,9.12-4.96,18.63-14.88,24.13l20.11,39.01c.54,1.07.13,1.74-1.07,1.74h-19.84c-1.21,0-2.28-.67-2.81-1.88l-15.69-34.59h-9.38v34.45c0,1.21-.8,2.01-2.01,2.01h-16.09c-1.21,0-2.01-.8-2.01-2.01v-89.82c0-1.21.8-2.01,2.01-2.01ZM199.7,759.84c0-7.78-4.69-12.2-12.07-12.2h-11.93v23.86h11.93c7.37,0,12.07-5.09,12.07-11.66Z"/>
    <path class="cls-1" d="M229.73,730.88h17.16c1.21,0,2.28.8,2.68,1.88l14.61,38.48,12.6-38.48c.4-1.07,1.47-1.88,2.68-1.88h15.55c1.21,0,1.74.8,1.34,1.88l-23.46,61.4v28.56c0,1.21-.8,2.01-2.01,2.01h-16.09c-1.21,0-2.01-.8-2.01-2.01v-27.62l-24.4-62.34c-.4-1.07.13-1.88,1.34-1.88Z"/>
    <path class="cls-1" d="M355.87,766v22.52c0,15.82,4.83,20.11,15.55,20.11,7.64,0,12.74-3.49,12.74-11.93v-8.98h-13.81c-1.21,0-2.01-.8-2.01-2.01v-12.74c0-1.21.8-2.01,2.01-2.01h31.24c1.21,0,2.01.8,2.01,2.01v23.06c-.94,19.84-14.34,29.9-32.18,30.03-21.32.13-34.99-13.41-34.99-35.79v-25.07c0-22.39,13.67-35.66,34.19-35.66,17.43,0,26.01,8.85,30.16,21.58.4,1.07,0,2.28-1.07,2.82l-12.07,5.9c-1.07.54-2.01.13-2.41-.94-3.75-9.12-7.64-12.6-14.61-12.6-9.92,0-14.75,4.02-14.75,19.71Z"/>
    <path class="cls-1" d="M419.82,730.88h50.01c1.21,0,2.01.8,2.01,2.01v12.74c0,1.21-.8,2.01-2.01,2.01h-31.91v21.32h28.69c1.21,0,2.01.8,2.01,2.01v12.74c0,1.21-.8,2.01-2.01,2.01h-28.69v21.58h33.11c1.21,0,2.01.8,2.01,2.01v13.41c0,1.21-.8,2.01-2.01,2.01h-51.21c-1.21,0-2.01-.8-2.01-2.01v-89.82c0-1.21.8-2.01,2.01-2.01Z"/>
    <path class="cls-1" d="M491,730.88h16.36c1.21,0,2.41.67,2.95,1.74l29.09,56.17v-55.9c0-1.21.8-2.01,2.01-2.01h15.42c1.21,0,2.01.8,2.01,2.01v89.82c0,1.21-.8,2.01-2.01,2.01h-17.03c-1.21,0-2.41-.67-2.95-1.74l-28.42-53.62v53.36c0,1.21-.8,2.01-2.01,2.01h-15.42c-1.21,0-2.01-.8-2.01-2.01v-89.82c0-1.21.8-2.01,2.01-2.01Z"/>
    <path class="cls-1" d="M578.81,730.88h50.01c1.21,0,2.01.8,2.01,2.01v12.74c0,1.21-.8,2.01-2.01,2.01h-31.91v21.32h28.69c1.21,0,2.01.8,2.01,2.01v12.74c0,1.21-.8,2.01-2.01,2.01h-28.69v21.58h33.11c1.21,0,2.01.8,2.01,2.01v13.41c0,1.21-.8,2.01-2.01,2.01h-51.21c-1.21,0-2.01-.8-2.01-2.01v-89.82c0-1.21.8-2.01,2.01-2.01Z"/>
    <path class="cls-1" d="M649.73,730.88h27.21c22.79,0,34.45,10.59,34.45,28.96,0,9.12-4.96,18.63-14.88,24.13l20.11,39.01c.54,1.07.13,1.74-1.07,1.74h-19.84c-1.21,0-2.28-.67-2.82-1.88l-15.69-34.59h-9.38v34.45c0,1.21-.8,2.01-2.01,2.01h-16.09c-1.21,0-2.01-.8-2.01-2.01v-89.82c0-1.21.8-2.01,2.01-2.01ZM691.82,759.84c0-7.78-4.69-12.2-12.07-12.2h-11.93v23.86h11.93c7.37,0,12.07-5.09,12.07-11.66Z"/>
    <path class="cls-1" d="M726.14,790.27v-25.07c0-22.39,14.34-35.66,34.99-35.66s34.99,13.27,34.99,35.66v25.07c0,22.39-14.34,35.79-34.99,35.79s-34.99-13.41-34.99-35.79ZM775.34,792.01v-29.23c0-12.47-5.76-16.49-14.21-16.49s-14.21,4.02-14.21,16.49v29.23c0,10.86,5.76,16.62,14.21,16.62s14.21-5.76,14.21-16.62Z"/>
    <path class="cls-1" d="M878.03,732.89v57.38c0,22.39-13.67,35.79-32.98,35.79s-32.98-13.41-32.98-35.79v-57.38c0-1.21.8-2.01,2.01-2.01h16.09c1.21,0,2.01.8,2.01,2.01v60.19c0,11.26,4.16,15.55,12.87,15.55s12.87-4.29,12.87-15.55v-60.19c0-1.21.8-2.01,2.01-2.01h16.09c1.21,0,2.01.8,2.01,2.01Z"/>
    <path class="cls-1" d="M895.19,755.41c0-14.88,11.26-25.87,28.42-25.87,13.94,0,23.73,6.17,28.42,21.58.27,1.07-.27,2.14-1.34,2.68l-12.07,4.69c-1.07.54-2.15,0-2.41-1.07-2.15-7.24-6.3-10.59-12.33-10.59s-9.25,3.75-9.25,8.85,2.28,8.85,8.18,11.26l10.99,4.56c14.21,5.9,20.78,13.81,20.78,27.35,0,16.22-13.54,27.21-31.77,27.21s-31.77-11.13-32.58-30.83c0-1.21.8-2.01,2.01-2.01h15.82c1.21,0,2.01.8,2.14,2.01.54,8.71,5.36,13.41,12.6,13.41,6.57,0,11.4-3.75,11.4-9.79,0-4.69-2.15-7.51-7.91-10.05l-9.79-4.29c-14.75-6.44-21.32-16.49-21.32-29.09Z"/>
    <path class="cls-1" d="M969.72,730.88h16.09c1.21,0,2.01.8,2.01,2.01v74.4h33.65c1.21,0,2.01.8,2.01,2.01v13.41c0,1.21-.8,2.01-2.01,2.01h-51.75c-1.21,0-2.01-.8-2.01-2.01v-89.82c0-1.21.8-2.01,2.01-2.01Z"/>
    <path class="cls-1" d="M1018.25,730.88h17.16c1.21,0,2.28.8,2.68,1.88l14.61,38.48,12.6-38.48c.4-1.07,1.48-1.88,2.68-1.88h15.55c1.21,0,1.74.8,1.34,1.88l-23.46,61.4v28.56c0,1.21-.8,2.01-2.01,2.01h-16.09c-1.21,0-2.01-.8-2.01-2.01v-27.62l-24.4-62.34c-.4-1.07.13-1.88,1.34-1.88Z"/>
    <path class="cls-1" d="M11.55,871.41c0-14.88,11.26-25.88,28.42-25.88,13.94,0,23.73,6.17,28.42,21.58.27,1.07-.27,2.14-1.34,2.68l-12.07,4.69c-1.07.54-2.15,0-2.41-1.07-2.15-7.24-6.3-10.59-12.33-10.59s-9.25,3.75-9.25,8.85,2.28,8.85,8.18,11.26l10.99,4.56c14.21,5.9,20.78,13.81,20.78,27.35,0,16.22-13.54,27.21-31.77,27.21s-31.77-11.13-32.58-30.83c0-1.21.8-2.01,2.01-2.01h15.82c1.21,0,2.01.8,2.15,2.01.54,8.71,5.36,13.41,12.6,13.41,6.57,0,11.4-3.75,11.4-9.79,0-4.69-2.15-7.51-7.91-10.05l-9.79-4.29c-14.75-6.44-21.32-16.49-21.32-29.09Z"/>
    <path class="cls-1" d="M86.08,846.88h25.87c21.45,0,34.45,10.19,34.45,30.43,0,18.5-11.8,30.3-33.38,30.3h-8.85v31.1c0,1.21-.8,2.01-2.01,2.01h-16.09c-1.21,0-2.01-.8-2.01-2.01v-89.82c0-1.21.8-2.01,2.01-2.01ZM126.84,877.31c0-7.51-4.02-13.67-12.6-13.67h-10.06v26.54h10.59c8.45,0,12.07-4.96,12.07-12.87Z"/>
    <path class="cls-1" d="M145.47,938.85l24.13-90.09c.27-1.07,1.34-1.88,2.55-1.88h26.14c1.21,0,2.28.8,2.55,1.88l24.13,90.09c.27,1.07-.27,1.88-1.47,1.88h-16.89c-1.21,0-2.15-.8-2.55-2.01l-4.29-16.89h-29.36l-4.16,16.89c-.4,1.21-1.34,2.01-2.55,2.01h-16.76c-1.21,0-1.74-.8-1.48-1.88ZM195.47,905.06l-10.73-42.36-10.32,42.36h21.05Z"/>
    <path class="cls-1" d="M253.65,882v22.52c0,15.82,4.83,20.11,14.75,20.11,6.97,0,12.07-3.35,12.07-11.93v-4.29c0-1.21.8-2.01,2.01-2.01h15.15c1.21,0,2.01.8,2.01,2.01-.8,22.39-13.54,33.52-31.24,33.65-20.51.13-34.19-13.41-34.19-35.79v-25.07c0-22.39,13.67-35.66,33.38-35.66s30.16,10.86,30.83,31.37c0,1.21-.8,2.01-2.01,2.01h-13.94c-1.21,0-2.01-.8-2.01-2.01v-1.74c0-7.51-4.16-12.87-12.87-12.87s-13.94,4.02-13.94,19.71Z"/>
    <path class="cls-1" d="M315.32,846.88h50.01c1.21,0,2.01.8,2.01,2.01v12.74c0,1.21-.8,2.01-2.01,2.01h-31.91v21.32h28.69c1.21,0,2.01.8,2.01,2.01v12.74c0,1.21-.8,2.01-2.01,2.01h-28.69v21.58h33.11c1.21,0,2.01.8,2.01,2.01v13.41c0,1.21-.8,2.01-2.01,2.01h-51.21c-1.21,0-2.01-.8-2.01-2.01v-89.82c0-1.21.8-2.01,2.01-2.01Z"/>
    <path class="cls-1" d="M382.75,938.71v-89.82c0-1.21.8-2.01,2.01-2.01h32.31c19.71,0,33.38,10.32,33.38,36.2v20.11c0,30.17-16.49,37.54-32.85,37.54h-32.85c-1.21,0-2.01-.8-2.01-2.01ZM429.67,911.36v-34.86c0-7.51-4.02-12.87-12.6-12.87h-13.54v59.66h14.08c9.65,0,12.07-3.35,12.07-11.93Z"/>
    <path class="cls-1" d="M497.37,938.71v-89.82c0-1.21.8-2.01,2.01-2.01h27.48c21.72,0,31.77,12.47,31.77,25.74,0,7.51-2.28,13.67-7.11,17.7,8.85,5.09,13,13.27,13,23.86,0,15.69-12.47,26.54-34.72,26.54h-30.43c-1.21,0-2.01-.8-2.01-2.01ZM527.67,885.22c8.71,0,11.93-3.62,11.93-10.59s-3.22-10.99-11.93-10.99h-10.19v21.58h10.19ZM543.22,912.97c0-7.64-4.42-11.66-12.33-11.66h-13.41v21.99h13.41c7.91,0,12.33-3.49,12.33-10.32Z"/>
    <path class="cls-1" d="M643.9,848.89v57.38c0,22.39-13.67,35.79-32.98,35.79s-32.98-13.41-32.98-35.79v-57.38c0-1.21.8-2.01,2.01-2.01h16.09c1.21,0,2.01.8,2.01,2.01v60.2c0,11.26,4.16,15.55,12.87,15.55s12.87-4.29,12.87-15.55v-60.2c0-1.21.8-2.01,2.01-2.01h16.09c1.21,0,2.01.8,2.01,2.01Z"/>
    <path class="cls-1" d="M654.89,861.62v-12.74c0-1.21.8-2.01,2.01-2.01h60.6c1.21,0,2.01.8,2.01,2.01v12.74c0,1.21-.8,2.01-2.01,2.01h-20.24v75.08c0,1.21-.8,2.01-2.01,2.01h-16.09c-1.21,0-2.01-.8-2.01-2.01v-75.08h-20.24c-1.21,0-2.01-.8-2.01-2.01Z"/>
    <path class="cls-1" d="M762.67,871.41c0-14.88,11.26-25.88,28.42-25.88,13.94,0,23.73,6.17,28.42,21.58.27,1.07-.27,2.14-1.34,2.68l-12.07,4.69c-1.07.54-2.15,0-2.41-1.07-2.15-7.24-6.3-10.59-12.33-10.59s-9.25,3.75-9.25,8.85,2.28,8.85,8.18,11.26l10.99,4.56c14.21,5.9,20.78,13.81,20.78,27.35,0,16.22-13.54,27.21-31.77,27.21s-31.77-11.13-32.58-30.83c0-1.21.8-2.01,2.01-2.01h15.82c1.21,0,2.01.8,2.14,2.01.54,8.71,5.36,13.41,12.6,13.41,6.57,0,11.4-3.75,11.4-9.79,0-4.69-2.15-7.51-7.91-10.05l-9.79-4.29c-14.75-6.44-21.32-16.49-21.32-29.09Z"/>
    <path class="cls-1" d="M827.42,861.62v-12.74c0-1.21.8-2.01,2.01-2.01h60.6c1.21,0,2.01.8,2.01,2.01v12.74c0,1.21-.8,2.01-2.01,2.01h-20.24v75.08c0,1.21-.8,2.01-2.01,2.01h-16.09c-1.21,0-2.01-.8-2.01-2.01v-75.08h-20.24c-1.21,0-2.01-.8-2.01-2.01Z"/>
    <path class="cls-1" d="M906.38,846.88h16.09c1.21,0,2.01.8,2.01,2.01v89.82c0,1.21-.8,2.01-2.01,2.01h-16.09c-1.21,0-2.01-.8-2.01-2.01v-89.82c0-1.21.8-2.01,2.01-2.01Z"/>
    <path class="cls-1" d="M944.86,846.88h16.09c1.21,0,2.01.8,2.01,2.01v74.41h33.65c1.21,0,2.01.8,2.01,2.01v13.41c0,1.21-.8,2.01-2.01,2.01h-51.75c-1.21,0-2.01-.8-2.01-2.01v-89.82c0-1.21.8-2.01,2.01-2.01Z"/>
    <path class="cls-1" d="M1013.63,846.88h16.09c1.21,0,2.01.8,2.01,2.01v74.41h33.65c1.21,0,2.01.8,2.01,2.01v13.41c0,1.21-.8,2.01-2.01,2.01h-51.75c-1.21,0-2.01-.8-2.01-2.01v-89.82c0-1.21.8-2.01,2.01-2.01Z"/>
    <path class="cls-1" d="M-33.97,1054.71v-89.82c0-1.21.8-2.01,2.01-2.01H.35c19.71,0,33.38,10.32,33.38,36.2v20.11c0,30.17-16.49,37.54-32.85,37.54H-31.95c-1.21,0-2.01-.8-2.01-2.01ZM12.96,1027.36v-34.86c0-7.51-4.02-12.87-12.6-12.87h-13.54v59.66H.89c9.65,0,12.07-3.35,12.07-11.93Z"/>
    <path class="cls-1" d="M52.37,962.88h50.01c1.21,0,2.01.8,2.01,2.01v12.74c0,1.21-.8,2.01-2.01,2.01h-31.91v21.32h28.69c1.21,0,2.01.8,2.01,2.01v12.74c0,1.21-.8,2.01-2.01,2.01h-28.69v21.58h33.11c1.21,0,2.01.8,2.01,2.01v13.41c0,1.21-.8,2.01-2.01,2.01h-51.21c-1.21,0-2.01-.8-2.01-2.01v-89.82c0-1.21.8-2.01,2.01-2.01Z"/>
    <path class="cls-1" d="M125.56,962.88h46.65c1.21,0,2.01.8,2.01,2.01v12.74c0,1.21-.8,2.01-2.01,2.01h-28.56v25.47h23.73c1.21,0,2.01.8,2.01,2.01v12.74c0,1.21-.8,2.01-2.01,2.01h-23.73v32.85c0,1.21-.8,2.01-2.01,2.01h-16.09c-1.21,0-2.01-.8-2.01-2.01v-89.82c0-1.21.8-2.01,2.01-2.01Z"/>
    <path class="cls-1" d="M188.71,962.88h16.09c1.21,0,2.01.8,2.01,2.01v89.82c0,1.21-.8,2.01-2.01,2.01h-16.09c-1.21,0-2.01-.8-2.01-2.01v-89.82c0-1.21.8-2.01,2.01-2.01Z"/>
    <path class="cls-1" d="M228.92,962.88h16.36c1.21,0,2.41.67,2.95,1.74l29.09,56.17v-55.91c0-1.21.8-2.01,2.01-2.01h15.42c1.21,0,2.01.8,2.01,2.01v89.82c0,1.21-.8,2.01-2.01,2.01h-17.03c-1.21,0-2.41-.67-2.95-1.74l-28.42-53.62v53.36c0,1.21-.8,2.01-2.01,2.01h-15.42c-1.21,0-2.01-.8-2.01-2.01v-89.82c0-1.21.8-2.01,2.01-2.01Z"/>
    <path class="cls-1" d="M317.8,962.88h16.09c1.21,0,2.01.8,2.01,2.01v89.82c0,1.21-.8,2.01-2.01,2.01h-16.09c-1.21,0-2.01-.8-2.01-2.01v-89.82c0-1.21.8-2.01,2.01-2.01Z"/>
    <path class="cls-1" d="M348.77,977.62v-12.74c0-1.21.8-2.01,2.01-2.01h60.6c1.21,0,2.01.8,2.01,2.01v12.74c0,1.21-.8,2.01-2.01,2.01h-20.24v75.08c0,1.21-.8,2.01-2.01,2.01h-16.09c-1.21,0-2.01-.8-2.01-2.01v-75.08h-20.24c-1.21,0-2.01-.8-2.01-2.01Z"/>
    <path class="cls-1" d="M426.25,962.88h50.01c1.21,0,2.01.8,2.01,2.01v12.74c0,1.21-.8,2.01-2.01,2.01h-31.91v21.32h28.69c1.21,0,2.01.8,2.01,2.01v12.74c0,1.21-.8,2.01-2.01,2.01h-28.69v21.58h33.11c1.21,0,2.01.8,2.01,2.01v13.41c0,1.21-.8,2.01-2.01,2.01h-51.21c-1.21,0-2.01-.8-2.01-2.01v-89.82c0-1.21.8-2.01,2.01-2.01Z"/>
    <path class="cls-1" d="M497.3,962.88h16.09c1.21,0,2.01.8,2.01,2.01v74.41h33.65c1.21,0,2.01.8,2.01,2.01v13.41c0,1.21-.8,2.01-2.01,2.01h-51.75c-1.21,0-2.01-.8-2.01-2.01v-89.82c0-1.21.8-2.01,2.01-2.01Z"/>
    <path class="cls-1" d="M540.07,962.88h17.16c1.21,0,2.28.8,2.68,1.88l14.61,38.48,12.6-38.48c.4-1.07,1.47-1.88,2.68-1.88h15.55c1.21,0,1.74.8,1.34,1.88l-23.46,61.4v28.56c0,1.21-.8,2.01-2.01,2.01h-16.09c-1.21,0-2.01-.8-2.01-2.01v-27.62l-24.4-62.34c-.4-1.07.13-1.88,1.34-1.88Z"/>
    <path class="cls-1" d="M650.67,962.88h16.36c1.21,0,2.41.67,2.95,1.74l29.09,56.17v-55.91c0-1.21.8-2.01,2.01-2.01h15.42c1.21,0,2.01.8,2.01,2.01v89.82c0,1.21-.8,2.01-2.01,2.01h-17.03c-1.21,0-2.41-.67-2.95-1.74l-28.42-53.62v53.36c0,1.21-.8,2.01-2.01,2.01h-15.42c-1.21,0-2.01-.8-2.01-2.01v-89.82c0-1.21.8-2.01,2.01-2.01Z"/>
    <path class="cls-1" d="M733.11,1022.27v-25.07c0-22.39,14.34-35.66,34.99-35.66s34.99,13.27,34.99,35.66v25.07c0,22.39-14.34,35.79-34.99,35.79s-34.99-13.41-34.99-35.79ZM782.31,1024.01v-29.23c0-12.47-5.77-16.49-14.21-16.49s-14.21,4.02-14.21,16.49v29.23c0,10.86,5.76,16.62,14.21,16.62s14.21-5.76,14.21-16.62Z"/>
    <path class="cls-1" d="M809.79,977.62v-12.74c0-1.21.8-2.01,2.01-2.01h60.6c1.21,0,2.01.8,2.01,2.01v12.74c0,1.21-.8,2.01-2.01,2.01h-20.24v75.08c0,1.21-.8,2.01-2.01,2.01h-16.09c-1.21,0-2.01-.8-2.01-2.01v-75.08h-20.24c-1.21,0-2.01-.8-2.01-2.01Z"/>
    <path class="cls-1" d="M919.32,1054.71v-89.82c0-1.21.8-2.01,2.01-2.01h32.31c19.71,0,33.38,10.32,33.38,36.2v20.11c0,30.17-16.49,37.54-32.85,37.54h-32.85c-1.21,0-2.01-.8-2.01-2.01ZM966.24,1027.36v-34.86c0-7.51-4.02-12.87-12.6-12.87h-13.54v59.66h14.08c9.65,0,12.07-3.35,12.07-11.93Z"/>
    <path class="cls-1" d="M1003.51,962.88h16.09c1.21,0,2.01.8,2.01,2.01v89.82c0,1.21-.8,2.01-2.01,2.01h-16.09c-1.21,0-2.01-.8-2.01-2.01v-89.82c0-1.21.8-2.01,2.01-2.01Z"/>
    <path class="cls-1" d="M1042.25,962.88h16.36c1.21,0,2.41.67,2.95,1.74l29.09,56.17v-55.91c0-1.21.8-2.01,2.01-2.01h15.42c1.21,0,2.01.8,2.01,2.01v89.82c0,1.21-.8,2.01-2.01,2.01h-17.03c-1.21,0-2.41-.67-2.95-1.74l-28.42-53.62v53.36c0,1.21-.8,2.01-2.01,2.01h-15.42c-1.21,0-2.01-.8-2.01-2.01v-89.82c0-1.21.8-2.01,2.01-2.01Z"/>
  </g>
  <g>
    <path class="cls-1" d="M24.09,424.92v-20.73h-1.83c-.41,0-.69-.28-.69-.69v-3.81c0-.41.28-.69.69-.69h1.83v-1.79c0-4.68,3.16-7.43,7.79-7.43,1.61,0,3.21.28,4.91.92.37.18.55.55.46.92l-1.1,3.67c-.09.37-.46.55-.83.46-1.05-.32-1.74-.37-2.29-.37-1.51,0-2.06.87-2.06,2.84v.78h5.27c.41,0,.69.28.69.69v3.81c0,.41-.27.69-.69.69h-5.27v20.73c0,.41-.27.69-.69.69h-5.5c-.41,0-.69-.27-.69-.69Z"/>
    <path class="cls-1" d="M57.29,419.69c-1.19,3.48-4.36,5.92-9.17,5.92-5.96,0-9.72-3.94-9.72-10.32v-6.24c0-6.74,3.76-10.5,9.72-10.5s9.31,3.99,9.31,9.68v5.5c0,.41-.27.69-.69.69h-11.69v1.93c0,2.48,1.05,3.76,3.07,3.76s2.93-1.01,3.71-3.12c.14-.37.46-.5.83-.32l4.22,2.06c.37.18.5.6.41.96ZM51.01,409.84v-2.8c0-2.06-1.05-3.21-2.89-3.21-2.02,0-3.07,1.15-3.07,3.67v2.34h5.96Z"/>
    <path class="cls-1" d="M60.86,416.67c0-5.41,3.71-8.39,10.18-8.39h2.89v-.69c0-2.25-1.38-3.39-3.39-3.39-1.47,0-2.8.64-3.94,1.88-.23.32-.6.37-.92.05l-2.71-2.75c-.32-.32-.32-.73-.09-1.05,2.16-2.52,4.54-3.76,8.16-3.76,5.73,0,9.31,3.99,9.31,9.26l.05,16.64c0,.41-.28.69-.69.69h-3.26c-.41,0-.73-.27-.87-.69l-.28-1.1c-1.56,1.42-3.53,2.25-5.64,2.25-4.95,0-8.8-3.99-8.8-8.94ZM74.21,416.53v-3.44h-3.16c-2.61,0-4.22,1.38-4.22,3.44s1.6,3.71,3.71,3.71,3.67-1.33,3.67-3.71Z"/>
    <path class="cls-1" d="M87.04,393.47h5.5c.41,0,.69.27.69.69v4.86h5.27c.41,0,.69.28.69.69v3.81c0,.41-.27.69-.69.69h-5.27v12.93c0,1.97.87,2.84,2.52,2.84,1.24,0,2.02-.41,3.12-1.19.32-.23.69-.18.87.18l1.51,2.89c.18.37.14.78-.14,1.1-1.7,1.79-3.85,2.66-6.6,2.66-4.81,0-8.16-3.12-8.16-8.02v-13.39h-1.83c-.41,0-.69-.28-.69-.69v-3.81c0-.41.28-.69.69-.69h1.83v-4.86c0-.41.28-.69.69-.69Z"/>
    <path class="cls-1" d="M114.51,420.11c2.16,0,3.67-1.42,3.67-4.22v-16.19c0-.41.28-.69.69-.69h5.27c.41,0,.69.28.69.69v24.76c0,.41-.27.69-.69.69h-3.76c-.41,0-.78-.27-.87-.64l-.46-1.65c-1.65,1.97-3.99,2.75-6.69,2.75-3.99,0-8.07-2.66-8.07-9.72l-.05-16.19c0-.41.28-.69.69-.69h5.32c.41,0,.69.28.69.69v16.14c0,2.84,1.51,4.26,3.58,4.26Z"/>
    <path class="cls-1" d="M130.24,424.46v-24.76c0-.41.28-.69.69-.69h3.76c.41,0,.78.28.87.64l.37,1.38c1.38-1.7,3.35-2.48,5.23-2.48,2.06,0,3.49.46,4.86,1.38.32.23.41.64.28,1.05l-1.88,3.81c-.14.41-.5.5-.83.27-.92-.6-1.88-.92-3.07-.92-1.6,0-3.39.87-3.39,3.94v16.37c0,.41-.27.69-.69.69h-5.5c-.41,0-.69-.27-.69-.69Z"/>
    <path class="cls-1" d="M149.22,392.14c0-2.06,1.65-3.71,3.71-3.71s3.71,1.65,3.71,3.71-1.65,3.71-3.71,3.71-3.71-1.65-3.71-3.71ZM150.27,399.02h5.27c.41,0,.69.28.69.69v24.76c0,.41-.28.69-.69.69h-5.27c-.41,0-.69-.27-.69-.69v-24.76c0-.41.27-.69.69-.69Z"/>
    <path class="cls-1" d="M172.37,404.06c-2.15,0-3.67,1.42-3.67,4.22v16.19c0,.41-.28.69-.69.69h-5.27c-.41,0-.69-.27-.69-.69v-24.76c0-.41.28-.69.69-.69h3.76c.41,0,.78.28.87.64l.46,1.65c1.65-1.97,3.99-2.75,6.69-2.75,3.99,0,8.07,2.66,8.07,8.02l.05,17.88c0,.41-.28.69-.69.69h-5.32c-.41,0-.69-.27-.69-.69v-16.14c0-2.84-1.51-4.26-3.58-4.26Z"/>
    <path class="cls-1" d="M197.96,434.09c-4.13,0-7.11-1.7-9.35-4.45-.23-.32-.23-.78.05-1.05l2.71-3.12c.27-.27.64-.32.92,0,2.02,2.16,3.53,2.89,5.55,2.89,2.57,0,4.08-1.24,4.08-3.67v-2.84c-1.28,1.19-2.93,1.65-5.18,1.65-4.54,0-8.71-2.93-8.71-9.77v-6.28c0-5.82,3.44-8.9,8.12-8.9,2.71,0,5,.78,6.65,2.75l.46-1.65c.09-.37.46-.64.87-.64h3.76c.41,0,.69.28.69.69v23.71c0,7.11-4.63,10.68-10.59,10.68ZM194.66,409.06v4.17c0,3.44,1.47,4.86,3.58,4.86s3.67-1.42,3.67-4.22v-5.59c0-2.8-1.51-4.22-3.67-4.22-1.88,0-3.3,1.19-3.53,3.62-.05.41-.05.96-.05,1.38Z"/>
    <path class="cls-1" d="M234.91,404.06c-2.15,0-3.67,1.42-3.67,4.22v16.19c0,.41-.28.69-.69.69h-5.27c-.41,0-.69-.27-.69-.69v-24.76c0-.41.28-.69.69-.69h3.76c.41,0,.78.28.87.64l.46,1.65c1.65-1.97,3.99-2.75,6.69-2.75,3.99,0,8.07,2.66,8.07,8.02l.05,17.88c0,.41-.28.69-.69.69h-5.32c-.41,0-.69-.27-.69-.69v-16.14c0-2.84-1.51-4.26-3.58-4.26Z"/>
    <path class="cls-1" d="M260.96,420.11c2.16,0,3.67-1.42,3.67-4.22v-16.19c0-.41.27-.69.69-.69h5.27c.41,0,.69.28.69.69v24.76c0,.41-.28.69-.69.69h-3.76c-.41,0-.78-.27-.87-.64l-.46-1.65c-1.65,1.97-3.99,2.75-6.69,2.75-3.99,0-8.07-2.66-8.07-9.72l-.05-16.19c0-.41.28-.69.69-.69h5.32c.41,0,.69.28.69.69v16.14c0,2.84,1.51,4.26,3.58,4.26Z"/>
    <path class="cls-1" d="M286.95,404.06c-2.16,0-3.53,1.42-3.53,4.22v16.19c0,.41-.28.69-.69.69h-5.27c-.41,0-.69-.27-.69-.69v-24.76c0-.41.28-.69.69-.69h3.76c.41,0,.78.28.87.64l.55,2.06c1.65-2.43,3.94-3.16,6.6-3.16s5.27,1.24,6.74,3.71c1.65-2.89,4.08-3.71,6.92-3.71,3.85,0,7.79,2.66,7.79,8.02l.05,17.88c0,.41-.28.69-.69.69h-5.32c-.41,0-.69-.27-.69-.69v-16.14c0-2.84-1.51-4.26-3.44-4.26-2.16,0-3.53,1.42-3.53,4.22l-.05-.05.05,16.23c0,.41-.28.69-.69.69h-5.32c-.41,0-.69-.27-.69-.69v-16.14c0-2.84-1.51-4.26-3.44-4.26Z"/>
    <path class="cls-1" d="M316.25,424.46v-32.56c0-.41.28-.69.69-.69h5.27c.41,0,.69.28.69.69v8.53c1.56-1.33,3.58-1.88,5.82-1.88,4.72,0,8.07,3.07,8.07,8.9v8.57c0,6.92-4.17,9.58-8.71,9.58-2.8,0-4.68-.73-6.1-2.61l-.41,1.51c-.09.37-.46.64-.87.64h-3.76c-.41,0-.69-.27-.69-.69ZM330.1,407.68c-.23-2.43-1.65-3.62-3.53-3.62-2.15,0-3.67,1.42-3.67,4.22v7.61c0,2.8,1.51,4.22,3.67,4.22s3.58-1.42,3.58-4.86v-6.19c0-.41,0-.96-.05-1.38Z"/>
    <path class="cls-1" d="M360.13,419.69c-1.19,3.48-4.36,5.92-9.17,5.92-5.96,0-9.72-3.94-9.72-10.32v-6.24c0-6.74,3.76-10.5,9.72-10.5s9.31,3.99,9.31,9.68v5.5c0,.41-.28.69-.69.69h-11.69v1.93c0,2.48,1.05,3.76,3.07,3.76s2.93-1.01,3.71-3.12c.14-.37.46-.5.83-.32l4.22,2.06c.37.18.5.6.41.96ZM353.85,409.84v-2.8c0-2.06-1.05-3.21-2.89-3.21-2.02,0-3.07,1.15-3.07,3.67v2.34h5.96Z"/>
    <path class="cls-1" d="M365.22,424.46v-24.76c0-.41.28-.69.69-.69h3.76c.41,0,.78.28.87.64l.37,1.38c1.38-1.7,3.35-2.48,5.23-2.48,2.06,0,3.48.46,4.86,1.38.32.23.41.64.28,1.05l-1.88,3.81c-.14.41-.5.5-.83.27-.92-.6-1.88-.92-3.07-.92-1.6,0-3.39.87-3.39,3.94v16.37c0,.41-.28.69-.69.69h-5.5c-.41,0-.69-.27-.69-.69Z"/>
    <path class="cls-1" d="M383.28,406.12c0-4.91,3.85-7.57,8.35-7.57,3.76,0,6.56,1.7,7.89,5.87.09.37-.09.73-.46.92l-3.48,1.42c-.37.18-.73,0-.83-.37-.6-1.7-1.51-2.66-3.12-2.66-1.51,0-2.34,1.01-2.34,2.15s.37,1.97,1.7,2.43l2.89.96c5.13,1.7,6.83,4.63,6.83,8.3,0,4.08-3.81,8.02-9.12,8.02s-8.85-3.58-9.17-8.44c0-.41.28-.69.69-.69h4.68c.41,0,.69.27.73.69.18,2.43,1.33,3.35,3.07,3.35s2.89-1.1,2.89-2.57c0-1.38-.78-2.29-2.2-2.8l-3.07-1.1c-4.22-1.51-5.92-4.81-5.92-7.93Z"/>
    <path class="cls-1" d="M415.47,424.92v-20.73h-1.83c-.41,0-.69-.28-.69-.69v-3.81c0-.41.28-.69.69-.69h1.83v-1.79c0-4.68,3.16-7.43,7.79-7.43,1.6,0,3.21.28,4.91.92.37.18.55.55.46.92l-1.1,3.67c-.09.37-.46.55-.83.46-1.05-.32-1.74-.37-2.29-.37-1.51,0-2.06.87-2.06,2.84v.78h5.27c.41,0,.69.28.69.69v3.81c0,.41-.28.69-.69.69h-5.27v20.73c0,.41-.28.69-.69.69h-5.5c-.41,0-.69-.27-.69-.69Z"/>
    <path class="cls-1" d="M431.66,424.46v-24.76c0-.41.28-.69.69-.69h3.76c.41,0,.78.28.87.64l.37,1.38c1.38-1.7,3.35-2.48,5.23-2.48,2.06,0,3.49.46,4.86,1.38.32.23.41.64.28,1.05l-1.88,3.81c-.14.41-.5.5-.83.27-.92-.6-1.88-.92-3.07-.92-1.6,0-3.39.87-3.39,3.94v16.37c0,.41-.27.69-.69.69h-5.5c-.41,0-.69-.27-.69-.69Z"/>
    <path class="cls-1" d="M449.54,415.48v-6.42c0-6.74,4.22-10.5,10.59-10.5s10.59,3.76,10.59,10.5v6.42c0,6.19-4.22,10.13-10.59,10.13s-10.59-3.94-10.59-10.13ZM463.61,416.07v-7.89c0-2.61-1.05-4.36-3.48-4.36s-3.48,1.74-3.48,4.36v7.89c0,2.57,1.05,4.03,3.48,4.03s3.48-1.47,3.48-4.03Z"/>
    <path class="cls-1" d="M485.35,404.06c-2.16,0-3.53,1.42-3.53,4.22v16.19c0,.41-.28.69-.69.69h-5.27c-.41,0-.69-.27-.69-.69v-24.76c0-.41.28-.69.69-.69h3.76c.41,0,.78.28.87.64l.55,2.06c1.65-2.43,3.94-3.16,6.6-3.16s5.27,1.24,6.74,3.71c1.65-2.89,4.08-3.71,6.92-3.71,3.85,0,7.79,2.66,7.79,8.02l.05,17.88c0,.41-.28.69-.69.69h-5.32c-.41,0-.69-.27-.69-.69v-16.14c0-2.84-1.51-4.26-3.44-4.26-2.16,0-3.53,1.42-3.53,4.22l-.05-.05.05,16.23c0,.41-.28.69-.69.69h-5.32c-.41,0-.69-.27-.69-.69v-16.14c0-2.84-1.51-4.26-3.44-4.26Z"/>
    <path class="cls-1" d="M535.46,424.46v-22.74l-6.24,6.19c-.32.32-.69.32-.96,0l-3.12-3.39c-.27-.32-.27-.69.05-.96l10.91-10.5h5.32c.41,0,.69.27.69.69v30.72c0,.41-.28.69-.69.69h-5.27c-.41,0-.69-.27-.69-.69Z"/>
    <path class="cls-1" d="M561.14,424.46l-.14-4.95c0-.41.18-.87.46-1.19l11.14-11.46c1.19-1.19,1.97-2.52,1.97-4.22,0-2.11-1.1-3.94-3.58-3.94-2.2,0-3.35,1.33-3.53,3.76-.05.41-.32.69-.73.69h-4.72c-.41,0-.69-.27-.69-.69.32-6.79,4.81-9.9,9.67-9.9,5.82,0,10.09,4.36,10.09,10.13,0,3.21-1.15,5.78-3.67,8.39l-7.61,7.84h10.5c.41,0,.69.27.69.69v4.86c0,.41-.27.69-.69.69h-18.48c-.41,0-.69-.27-.69-.69Z"/>
    <path class="cls-1" d="M595.89,415.52c0-.41.28-.69.69-.69h5.18c.41,0,.69.28.69.69.23,2.84,1.56,4.13,4.08,4.13,2.29,0,3.94-1.56,3.94-3.81,0-2.52-1.74-4.08-4.22-4.08h-1.7c-.41,0-.69-.27-.69-.69l.05-4.13c0-.41.28-.69.69-.69h1.65c2.43,0,4.04-1.79,4.04-3.81,0-2.48-1.65-3.9-3.81-3.9-1.88,0-3.62,1.19-3.85,3.81-.05.41-.32.69-.73.69h-4.81c-.41,0-.69-.27-.69-.69.27-6.1,4.26-9.77,10.09-9.77s10.18,4.17,10.18,9.26c0,2.66-1.15,5.18-3.07,6.6,2.66,1.83,3.81,4.31,3.81,7.61,0,5.27-4.49,9.54-10.87,9.54-5.64,0-10.32-2.98-10.64-10.09Z"/>
    <path class="cls-1" d="M643.81,424.46v-10.5h-12.2c-.41,0-.69-.28-.69-.69v-4.63c0-.41.14-.92.32-1.28l7.25-13.71c.18-.37.6-.6,1.01-.6h6.42c.41,0,.55.23.37.6l-7.57,14.12h5.09v-3.76c0-.41.28-.69.69-.69h5.27c.41,0,.69.27.69.69v3.76h2.43c.41,0,.69.27.69.69v4.81c0,.41-.27.69-.69.69h-2.43v10.5c0,.41-.28.69-.69.69h-5.27c-.41,0-.69-.27-.69-.69Z"/>
    <path class="cls-1" d="M668.02,417.86c-.05-.41.23-.69.64-.69h5.27c.41,0,.83.23,1.05.55.73.92,1.65,1.42,3.07,1.42,2.02,0,3.67-1.56,3.67-3.71,0-1.97-1.51-3.81-3.67-3.81-1.33,0-2.29.55-2.98,1.42-.28.32-.69.55-1.1.55h-5.32c-.41,0-.69-.28-.64-.69l1.56-19.17c.05-.41.32-.69.73-.69h16.09c.41,0,.69.27.69.69v5.23c0,.41-.28.69-.69.69h-10.87l-.46,6.42c1.1-.55,2.43-.87,3.99-.87,4.86,0,9.63,3.58,9.63,10.23,0,5.41-4.31,10.27-10.91,10.27-5.69,0-9.4-3.67-9.77-7.84Z"/>
    <path class="cls-1" d="M704.33,415.52v-11.28c0-7.06,4.13-11.05,10.04-11.05,4.91,0,8.16,2.61,9.45,6.88.09.37-.05.73-.46.92l-4.13,1.93c-.41.18-.73,0-.87-.37-.87-2.02-1.97-3.07-3.99-3.07-2.38,0-3.71,1.24-3.71,4.31v2.43c1.19-.6,2.57-1.01,3.99-1.01,5.09,0,9.86,3.26,9.86,10.09,0,5.96-4.86,10.18-10.36,10.18s-9.81-4.54-9.81-9.95ZM718.08,415.29c0-2.06-1.65-3.71-3.71-3.71s-3.71,1.65-3.71,3.71,1.65,3.71,3.71,3.71,3.71-1.65,3.71-3.71Z"/>
    <path class="cls-1" d="M740.46,424.51l11.83-25.26h-11.6c-.41,0-.69-.27-.69-.69v-4.81c0-.41.27-.69.69-.69h18.48c.41,0,.69.27.69.69v4.59c0,.41-.09.92-.27,1.33l-11.33,24.85c-.18.41-.55.64-.96.64h-6.42c-.41,0-.55-.23-.41-.64Z"/>
    <path class="cls-1" d="M774.48,415.57c0-3.16,1.1-6.1,4.22-8.16-1.56-1.7-2.43-3.76-2.43-5.96,0-4.63,4.13-8.62,9.17-8.62s9.17,3.99,9.17,8.62c0,2.2-.87,4.26-2.43,5.96,3.12,2.06,4.17,5,4.17,8.16,0,5.23-4.49,9.95-10.91,9.95s-10.96-4.72-10.96-9.95ZM789.61,414.93c0-2.29-1.88-4.17-4.22-4.17s-4.17,1.88-4.17,4.17,1.88,4.22,4.17,4.22,4.22-1.88,4.22-4.22ZM788.56,402.04c0-1.74-1.38-3.12-3.12-3.12s-3.12,1.38-3.12,3.12,1.33,3.12,3.12,3.12,3.12-1.38,3.12-3.12Z"/>
    <path class="cls-1" d="M831.52,402.91v11.97c0,6.6-4.31,10.59-10.22,10.59-4.49,0-8.39-2.38-9.77-7.47-.14-.41.09-.78.46-.96l4.22-1.74c.37-.18.73,0,.87.37.92,2.2,2.16,3.21,4.22,3.21,2.29,0,3.76-.92,3.76-3.99v-2.93c-1.24.64-2.57.92-4.08.92-4.91,0-9.81-3.85-9.81-10.09s4.86-10.18,10.36-10.18c5.92,0,10,3.99,10,10.32ZM817.58,402.73c0,2.06,1.65,3.71,3.71,3.71s3.71-1.65,3.71-3.71-1.65-3.71-3.71-3.71-3.71,1.65-3.71,3.71Z"/>
    <path class="cls-1" d="M857.33,424.46v-22.74l-6.24,6.19c-.32.32-.69.32-.96,0l-3.12-3.39c-.27-.32-.27-.69.05-.96l10.91-10.5h5.32c.41,0,.69.27.69.69v30.72c0,.41-.28.69-.69.69h-5.27c-.41,0-.69-.27-.69-.69Z"/>
    <path class="cls-1" d="M868.33,414.56v-11.56c0-5.96,4.68-10.41,10.82-10.41s10.82,4.45,10.82,10.41v11.56c0,6.46-4.68,11.05-10.82,11.05s-10.82-4.59-10.82-11.05ZM883.33,415.25v-11.6c0-3.58-1.65-4.95-4.17-4.95s-4.17,1.38-4.17,4.95v11.6c0,2.71,1.65,4.17,4.17,4.17s4.17-1.47,4.17-4.17Z"/>
    <path class="cls-1" d="M915.33,424.46v-22.74l-6.24,6.19c-.32.32-.69.32-.96,0l-3.12-3.39c-.28-.32-.28-.69.05-.96l10.91-10.5h5.32c.41,0,.69.27.69.69v30.72c0,.41-.28.69-.69.69h-5.27c-.41,0-.69-.27-.69-.69Z"/>
    <path class="cls-1" d="M934.82,424.46v-22.74l-6.24,6.19c-.32.32-.69.32-.96,0l-3.12-3.39c-.28-.32-.28-.69.05-.96l10.91-10.5h5.32c.41,0,.69.27.69.69v30.72c0,.41-.28.69-.69.69h-5.27c-.41,0-.69-.27-.69-.69Z"/>
    <path class="cls-1" d="M970.58,424.46v-22.74l-6.24,6.19c-.32.32-.69.32-.96,0l-3.12-3.39c-.27-.32-.27-.69.05-.96l10.91-10.5h5.32c.41,0,.69.27.69.69v30.72c0,.41-.28.69-.69.69h-5.27c-.41,0-.69-.27-.69-.69Z"/>
    <path class="cls-1" d="M981.13,424.46l-.14-4.95c0-.41.18-.87.46-1.19l11.14-11.46c1.19-1.19,1.97-2.52,1.97-4.22,0-2.11-1.1-3.94-3.58-3.94-2.2,0-3.35,1.33-3.53,3.76-.05.41-.32.69-.73.69h-4.72c-.41,0-.69-.27-.69-.69.32-6.79,4.81-9.9,9.67-9.9,5.82,0,10.09,4.36,10.09,10.13,0,3.21-1.15,5.78-3.67,8.39l-7.61,7.84h10.5c.41,0,.69.27.69.69v4.86c0,.41-.28.69-.69.69h-18.48c-.41,0-.69-.27-.69-.69Z"/>
    <path class="cls-1" d="M1026.98,424.46v-22.74l-6.24,6.19c-.32.32-.69.32-.96,0l-3.12-3.39c-.28-.32-.28-.69.05-.96l10.91-10.5h5.32c.41,0,.69.27.69.69v30.72c0,.41-.28.69-.69.69h-5.27c-.41,0-.69-.27-.69-.69Z"/>
    <path class="cls-1" d="M1036.93,415.52c0-.41.28-.69.69-.69h5.18c.41,0,.69.28.69.69.23,2.84,1.56,4.13,4.08,4.13,2.29,0,3.94-1.56,3.94-3.81,0-2.52-1.74-4.08-4.22-4.08h-1.7c-.41,0-.69-.27-.69-.69l.05-4.13c0-.41.27-.69.69-.69h1.65c2.43,0,4.04-1.79,4.04-3.81,0-2.48-1.65-3.9-3.81-3.9-1.88,0-3.62,1.19-3.85,3.81-.05.41-.32.69-.73.69h-4.81c-.41,0-.69-.27-.69-.69.28-6.1,4.26-9.77,10.09-9.77s10.18,4.17,10.18,9.26c0,2.66-1.15,5.18-3.07,6.6,2.66,1.83,3.81,4.31,3.81,7.61,0,5.27-4.49,9.54-10.87,9.54-5.64,0-10.32-2.98-10.64-10.09Z"/>
  </g>
</svg>