<?xml version="1.0" encoding="UTF-8"?>
<svg id="Layer_1" data-name="Layer 1" xmlns="http://www.w3.org/2000/svg" viewBox="0 0 1080 1080">
  <defs>
    <style>
      .cls-1 {
        fill: #37f;
      }

      .cls-2 {
        fill: #fff;
      }
    </style>
  </defs>
  <rect class="cls-1" y="0" width="1080" height="1080"/>
  <g>
    <g>
      <path class="cls-2" d="M64.51,226.97v-68.68h32.05v-34.34h-32.05V55.27h141.03l41.9,42.35v-42.35h140.11v68.68h-29.76v103.02h-108.97l-41.9-40.98v40.98H64.51ZM156.09,138.6v28.62l29.07-2.52-26.79-26.1h-2.29ZM295.97,146.85h2.29v-28.62l-28.16,2.52,25.87,26.1Z"/>
      <path class="cls-2" d="M392.12,139.98c0-12.82,2.59-24.53,7.78-35.14,5.19-10.61,13.51-19.8,24.95-27.59s26.52-13.77,45.22-17.97c18.69-4.2,41.63-6.3,68.8-6.3s50.1,2.1,68.8,6.3c18.69,4.2,33.77,10.19,45.21,17.97,11.45,7.78,19.76,16.98,24.95,27.59,5.19,10.61,7.78,22.32,7.78,35.14s-2.6,25.15-7.78,36.06c-5.19,10.91-13.51,20.34-24.95,28.27-11.45,7.94-26.52,14.08-45.21,18.43-18.7,4.35-41.63,6.52-68.8,6.52s-50.1-2.18-68.8-6.52c-18.7-4.35-33.77-10.49-45.22-18.43-11.45-7.93-19.77-17.36-24.95-28.27-5.19-10.91-7.78-22.93-7.78-36.06ZM489.42,149.82l49.45-4.58,49.45,4.58v-20.6l-49.45,4.58-49.45-4.58v20.6Z"/>
      <path class="cls-2" d="M694.78,226.97v-68.68h32.05v-34.34h-32.05V55.27h231.91c24.11,0,42.04,3.47,53.8,10.42,11.75,6.95,17.63,18.35,17.63,34.23,0,8.4-1.68,15.8-5.04,22.21-3.36,6.41-9.01,11.6-16.94,15.57-7.94,3.97-18.7,6.49-32.28,7.56l22.44,21.52,38.69-4.58v64.79h-110.35l-29.08-42.12v42.12h-170.79ZM818.4,114.79v13.74h68.22v-13.74l-34.11,4.58-34.11-4.58ZM818.4,157.15v14.88l35.71-3.43-7.78-11.45h-27.93Z"/>
      <path class="cls-2" d="M64.51,424.97v-68.68h32.05v-34.34h-32.05v-68.68h150.64l35.49,48.53h2.29l35.49-48.53h127.98v68.68h-32.05v34.34h32.05v68.68h-158.42v-52.2l-33.2,43.5h-2.29l-31.59-42.35v51.05h-126.37ZM156.09,330.19v36.63l27.7-2.52-25.41-34.11h-2.29ZM290.47,330.19l-25.87,34.11,28.16,2.52v-36.63h-2.29Z"/>
      <path class="cls-2" d="M466.52,253.27h173.54l89.74,103.02h33.88v68.68h-176.51v-68.68l44.64,4.58v-13.74h-103.02v13.74l44.64-4.58v68.68h-143.31v-68.68h32.28l39.83-34.34h-35.71v-68.68Z"/>
      <path class="cls-2" d="M567.01,451.27v68.68l-46.25-4.58v13.74h106.23v-13.74l-46.25,4.58v-68.68h128.66v68.68h-29.53l-74.86,103.02h-106.23l-73.95-103.02h-29.3v-68.68h171.47Z"/>
      <path class="cls-2" d="M722.92,451.27h173.53l89.74,103.02h33.88v68.68h-176.51v-68.68l44.64,4.58v-13.74h-103.02v13.74l44.64-4.58v68.68h-143.31v-68.68h32.28l39.83-34.34h-35.71v-68.68Z"/>
      <path class="cls-2" d="M143.5,823.26c-11.14,0-21.75-1.83-31.82-5.49s-19-8.96-26.79-15.91c-7.78-6.94-13.89-15.45-18.31-25.53-4.43-10.07-6.64-21.52-6.64-34.34,0-19.23,4.92-35.98,14.77-50.25,9.84-14.27,25.41-25.3,46.7-33.08,21.29-7.78,49.11-11.68,83.45-11.68,12.51,0,23.77.19,33.77.57,9.99.38,19.5.96,28.5,1.72,9,.77,18.28,1.72,27.82,2.86,9.54,1.15,20.11,2.56,31.71,4.24v67.77h-169.41v17.17l176.97-11.91v91.58h-91.58v-46.25h-2.29c-7.48,15.11-19.12,26.98-34.91,35.6-15.8,8.62-36.44,12.93-61.93,12.93Z"/>
      <path class="cls-2" d="M384.34,649.27h173.53l89.74,103.02h33.88v68.68h-176.51v-68.68l44.64,4.58v-13.74h-103.02v13.74l44.64-4.58v68.68h-143.31v-68.68h32.28l39.83-34.34h-35.71v-68.68Z"/>
      <path class="cls-2" d="M695.23,820.97v-68.68h32.05v-34.34h-32.05v-68.68h141.03l41.9,42.35v-42.35h140.11v68.68h-29.76v103.02h-108.97l-41.9-40.98v40.98h-142.4ZM786.81,732.6v28.62l29.08-2.52-26.79-26.1h-2.29ZM926.69,740.85h2.29v-28.62l-28.16,2.52,25.87,26.1Z"/>
      <path class="cls-2" d="M328.71,1018.97H64.51v-68.68l83.56-25.18h-74.4v-77.84h245.88v68.68l-67.77,20.6h76.92v82.42ZM158.38,902.22l7.1,17.63,51.05-15.34v-2.29h-58.15ZM176.69,961.74h69.6l-7.78-21.06-61.81,18.77v2.29Z"/>
      <path class="cls-2" d="M378.84,847.27h173.53l89.74,103.02h33.88v68.68h-176.51v-68.68l44.64,4.58v-13.74h-103.02v13.74l44.64-4.58v68.68h-143.31v-68.68h32.28l39.83-34.34h-35.71v-68.68Z"/>
    </g>
    <g>
      <path class="cls-2" d="M64.51,226.97v-68.68h32.05v-34.34h-32.05V55.27h141.03l41.9,42.35v-42.35h140.11v68.68h-29.76v103.02h-108.97l-41.9-40.98v40.98H64.51ZM156.09,138.6v28.62l29.07-2.52-26.79-26.1h-2.29ZM295.97,146.85h2.29v-28.62l-28.16,2.52,25.87,26.1Z"/>
      <path class="cls-2" d="M392.12,139.98c0-12.82,2.59-24.53,7.78-35.14,5.19-10.61,13.51-19.8,24.95-27.59s26.52-13.77,45.22-17.97c18.69-4.2,41.63-6.3,68.8-6.3s50.1,2.1,68.8,6.3c18.69,4.2,33.77,10.19,45.21,17.97,11.45,7.78,19.76,16.98,24.95,27.59,5.19,10.61,7.78,22.32,7.78,35.14s-2.6,25.15-7.78,36.06c-5.19,10.91-13.51,20.34-24.95,28.27-11.45,7.94-26.52,14.08-45.21,18.43-18.7,4.35-41.63,6.52-68.8,6.52s-50.1-2.18-68.8-6.52c-18.7-4.35-33.77-10.49-45.22-18.43-11.45-7.93-19.77-17.36-24.95-28.27-5.19-10.91-7.78-22.93-7.78-36.06ZM489.42,149.82l49.45-4.58,49.45,4.58v-20.6l-49.45,4.58-49.45-4.58v20.6Z"/>
      <path class="cls-2" d="M694.78,226.97v-68.68h32.05v-34.34h-32.05V55.27h231.91c24.11,0,42.04,3.47,53.8,10.42,11.75,6.95,17.63,18.35,17.63,34.23,0,8.4-1.68,15.8-5.04,22.21-3.36,6.41-9.01,11.6-16.94,15.57-7.94,3.97-18.7,6.49-32.28,7.56l22.44,21.52,38.69-4.58v64.79h-110.35l-29.08-42.12v42.12h-170.79ZM818.4,114.79v13.74h68.22v-13.74l-34.11,4.58-34.11-4.58ZM818.4,157.15v14.88l35.71-3.43-7.78-11.45h-27.93Z"/>
      <path class="cls-2" d="M64.51,424.97v-68.68h32.05v-34.34h-32.05v-68.68h150.64l35.49,48.53h2.29l35.49-48.53h127.98v68.68h-32.05v34.34h32.05v68.68h-158.42v-52.2l-33.2,43.5h-2.29l-31.59-42.35v51.05h-126.37ZM156.09,330.19v36.63l27.7-2.52-25.41-34.11h-2.29ZM290.47,330.19l-25.87,34.11,28.16,2.52v-36.63h-2.29Z"/>
      <path class="cls-2" d="M466.52,253.27h173.54l89.74,103.02h33.88v68.68h-176.51v-68.68l44.64,4.58v-13.74h-103.02v13.74l44.64-4.58v68.68h-143.31v-68.68h32.28l39.83-34.34h-35.71v-68.68Z"/>
      <path class="cls-2" d="M567.01,451.27v68.68l-46.25-4.58v13.74h106.23v-13.74l-46.25,4.58v-68.68h128.66v68.68h-29.53l-74.86,103.02h-106.23l-73.95-103.02h-29.3v-68.68h171.47Z"/>
      <path class="cls-2" d="M722.92,451.27h173.53l89.74,103.02h33.88v68.68h-176.51v-68.68l44.64,4.58v-13.74h-103.02v13.74l44.64-4.58v68.68h-143.31v-68.68h32.28l39.83-34.34h-35.71v-68.68Z"/>
      <path class="cls-2" d="M143.5,823.26c-11.14,0-21.75-1.83-31.82-5.49s-19-8.96-26.79-15.91c-7.78-6.94-13.89-15.45-18.31-25.53-4.43-10.07-6.64-21.52-6.64-34.34,0-19.23,4.92-35.98,14.77-50.25,9.84-14.27,25.41-25.3,46.7-33.08,21.29-7.78,49.11-11.68,83.45-11.68,12.51,0,23.77.19,33.77.57,9.99.38,19.5.96,28.5,1.72,9,.77,18.28,1.72,27.82,2.86,9.54,1.15,20.11,2.56,31.71,4.24v67.77h-169.41v17.17l176.97-11.91v91.58h-91.58v-46.25h-2.29c-7.48,15.11-19.12,26.98-34.91,35.6-15.8,8.62-36.44,12.93-61.93,12.93Z"/>
      <path class="cls-2" d="M384.34,649.27h173.53l89.74,103.02h33.88v68.68h-176.51v-68.68l44.64,4.58v-13.74h-103.02v13.74l44.64-4.58v68.68h-143.31v-68.68h32.28l39.83-34.34h-35.71v-68.68Z"/>
      <path class="cls-2" d="M695.23,820.97v-68.68h32.05v-34.34h-32.05v-68.68h141.03l41.9,42.35v-42.35h140.11v68.68h-29.76v103.02h-108.97l-41.9-40.98v40.98h-142.4ZM786.81,732.6v28.62l29.08-2.52-26.79-26.1h-2.29ZM926.69,740.85h2.29v-28.62l-28.16,2.52,25.87,26.1Z"/>
      <path class="cls-2" d="M328.71,1018.97H64.51v-68.68l83.56-25.18h-74.4v-77.84h245.88v68.68l-67.77,20.6h76.92v82.42ZM158.38,902.22l7.1,17.63,51.05-15.34v-2.29h-58.15ZM176.69,961.74h69.6l-7.78-21.06-61.81,18.77v2.29Z"/>
      <path class="cls-2" d="M378.84,847.27h173.53l89.74,103.02h33.88v68.68h-176.51v-68.68l44.64,4.58v-13.74h-103.02v13.74l44.64-4.58v68.68h-143.31v-68.68h32.28l39.83-34.34h-35.71v-68.68Z"/>
    </g>
  </g>
  <g>
    <path d="M1020.06,515.95h-11.81v-5.51h-5.91v5.51h-11.81v-44.77h11.03l-.79,23.51h2.56l-.67-18.82h4.72l-.71,18.82h2.76l-1.18-24.69h11.81v45.95Z"/>
    <path d="M1020.06,467.64h-13.39l.51-15.32-4.06,3.86,1.18,11.18h-13.78v-21.34l5.83-5.63-5.83-1.5v-19.69h12.99l-.51,14.77,3.86-3.74-.79-11.5h13.98v21.46l-6.5,6.14,6.5,1.61v19.69Z"/>
    <path d="M1020.06,407.32h-11.81v-7.88h-8.07v2.76l6.3-1.18v15.36h-15.95v-49.61h15.95v15.36l-6.3-1.18v2.76h8.07v-7.88h11.81v31.5Z"/>
    <path d="M1020.06,364.4h-11.81v-5.51h-5.91v5.51h-11.81v-39.89c0-4.15.6-7.23,1.79-9.25,1.19-2.02,3.16-3.03,5.89-3.03,1.44,0,2.72.29,3.82.87,1.1.58,2,1.55,2.68,2.91.68,1.37,1.12,3.22,1.3,5.55l3.7-3.86-.79-6.65h11.14v18.98l-7.25,5h7.25v29.37ZM1000.77,343.14h2.36v-11.73h-2.36l.79,5.87-.79,5.87ZM1008.05,343.14h2.56l-.59-6.14-1.97,1.34v4.8Z"/>
    <path d="M990.53,302.42v-29.85l17.72-15.44v-5.83h11.81v30.36h-11.81l.79-7.68h-2.36v17.72h2.36l-.79-7.68h11.81v24.65h-11.81v-5.55l-5.91-6.85v6.14h-11.81Z"/>
  </g>
  <g>
    <path d="M109.82,480.34h-45.44v-11.81l14.37-4.33h-12.8v-13.39h42.29v11.81l-11.65,3.54h13.23v14.17ZM80.53,460.26l1.22,3.03,8.78-2.64v-.39h-10ZM83.68,470.49h11.97l-1.34-3.62-10.63,3.23v.39Z"/>
    <path d="M112.19,480.34v-11.81h5.51v-5.91h-5.51v-11.81h44.77v11.02l-23.51-.79v2.56l18.82-.67v4.73l-18.82-.71v2.76l24.69-1.18v11.81h-45.95Z"/>
    <path d="M160.5,480.34v-11.81h5.51v-5.91h-5.51v-11.81h39.89c4.15,0,7.23.6,9.25,1.79,2.02,1.19,3.03,3.16,3.03,5.89,0,1.44-.29,2.72-.87,3.82-.58,1.1-1.55,2-2.91,2.68-1.37.68-3.22,1.12-5.55,1.3l3.86,3.7,6.65-.79v11.14h-18.98l-5-7.25v7.25h-29.37ZM181.76,461.04v2.36h11.73v-2.36l-5.87.79-5.87-.79ZM181.76,468.33v2.56l6.14-.59-1.34-1.97h-4.8Z"/>
    <path d="M214.64,465.38c0-2.21.45-4.22,1.34-6.04.89-1.82,2.32-3.41,4.29-4.75,1.97-1.34,4.56-2.37,7.78-3.09,3.22-.72,7.16-1.08,11.83-1.08s8.62.36,11.83,1.08c3.22.72,5.81,1.75,7.78,3.09,1.97,1.34,3.4,2.92,4.29,4.75.89,1.82,1.34,3.84,1.34,6.04s-.45,4.33-1.34,6.2c-.89,1.88-2.32,3.5-4.29,4.86-1.97,1.37-4.56,2.42-7.78,3.17-3.22.75-7.16,1.12-11.83,1.12s-8.62-.37-11.83-1.12c-3.22-.75-5.81-1.8-7.78-3.17-1.97-1.36-3.4-2.99-4.29-4.86-.89-1.88-1.34-3.94-1.34-6.2ZM231.37,467.07l8.51-.79,8.5.79v-3.54l-8.5.79-8.51-.79v3.54Z"/>
  </g>
  <g>
    <path d="M212.54,623.41v-11.81h5.51v-5.91h-5.51v-11.81h33.94c3.91,0,7,.37,9.25,1.12,2.26.75,3.86,1.82,4.8,3.21.95,1.39,1.42,3.07,1.42,5.04,0,1.71-.47,3.17-1.42,4.39-.94,1.22-2.55,2.15-4.8,2.8-2.26.64-5.34.96-9.25.96h-12.48v2.36l8.19-.79v10.43h-29.65ZM246,606.48v-2.36l-6.18.79-6.02-.79v2.36h12.21Z"/>
    <path d="M262.74,608.45c0-2.21.45-4.22,1.34-6.04.89-1.82,2.32-3.41,4.29-4.74s4.56-2.37,7.78-3.09c3.22-.72,7.16-1.08,11.83-1.08s8.62.36,11.83,1.08c3.22.72,5.81,1.75,7.78,3.09s3.4,2.92,4.29,4.74c.89,1.83,1.34,3.84,1.34,6.04s-.45,4.33-1.34,6.2c-.89,1.88-2.32,3.5-4.29,4.86-1.97,1.37-4.56,2.42-7.78,3.17-3.22.75-7.16,1.12-11.83,1.12s-8.62-.37-11.83-1.12c-3.22-.75-5.81-1.8-7.78-3.17-1.97-1.36-3.4-2.99-4.29-4.86-.89-1.88-1.34-3.94-1.34-6.2ZM279.47,610.14l8.51-.79,8.5.79v-3.54l-8.5.79-8.51-.79v3.54Z"/>
    <path d="M314.79,623.41v-11.81h5.51v-5.91h-5.51v-11.81h26.77v11.81h-5.51v5.91h5.51v11.81h-26.77Z"/>
    <path d="M343.93,623.41v-11.81h5.51v-5.91h-5.51v-11.81h24.25l7.21,7.28v-7.28h24.1v11.81h-5.12v17.72h-18.74l-7.21-7.05v7.05h-24.49ZM359.68,608.21v4.92l5-.43-4.61-4.49h-.39ZM383.74,609.63h.39v-4.92l-4.84.43,4.45,4.49Z"/>
    <path d="M410.91,623.41v-11.81h7.88v-8.07h-2.76l1.18,6.3h-15.36v-15.95h49.61v15.95h-15.36l1.18-6.3h-2.76v8.07h7.88v11.81h-31.5Z"/>
  </g>
  <g>
    <path d="M864.6,1005.95c0-2.21.45-4.22,1.34-6.04.89-1.82,2.32-3.41,4.29-4.74s4.56-2.37,7.78-3.09,7.16-1.08,11.83-1.08,8.62.36,11.83,1.08,5.81,1.75,7.78,3.09,3.4,2.92,4.29,4.74c.89,1.83,1.34,3.84,1.34,6.04s-.45,4.33-1.34,6.2c-.89,1.88-2.32,3.5-4.29,4.86-1.97,1.37-4.56,2.42-7.78,3.17s-7.16,1.12-11.83,1.12-8.62-.37-11.83-1.12-5.81-1.8-7.78-3.17c-1.97-1.36-3.4-2.99-4.29-4.86s-1.34-3.94-1.34-6.2ZM881.34,1007.65l8.5-.79,8.5.79v-3.54l-8.5.79-8.5-.79v3.54Z"/>
    <path d="M916.66,1020.92v-11.81h5.51v-5.91h-5.51v-11.81h24.25l7.21,7.28v-7.28h24.1v11.81h-5.12v17.72h-18.74l-7.21-7.05v7.05h-24.49ZM932.41,1005.72v4.92l5-.43-4.61-4.49h-.39ZM956.47,1007.13h.39v-4.92l-4.84.43,4.45,4.49Z"/>
    <path d="M974.58,1020.92v-11.81h5.51v-5.91h-5.51v-11.81h44.77v11.03l-23.51-.79v2.56l18.82-.67v4.72l-18.82-.71v2.76l24.69-1.18v11.81h-45.95Z"/>
  </g>
</svg>