<?xml version="1.0" encoding="UTF-8"?>
<svg id="Layer_1" data-name="Layer 1" xmlns="http://www.w3.org/2000/svg" viewBox="0 0 1080 1080">
  <defs>
    <style>
      .cls-1 {
        fill: #fff;
      }
    </style>
  </defs>
  <g>
    <rect x="-36.65" y="215.49" width="1197.42" height="219.91"/>
    <rect x="-36.65" y="644.59" width="1197.42" height="219.91"/>
  </g>
  <g>
    <path d="M24.73,173.93c-5.88-14.53-8.82-36.68-8.82-66.45s2.58-51.96,7.75-67.12c5.17-15.15,13.01-22.73,23.53-22.73,2.67,0,5.03.36,7.09,1.07,2.05.71,3.97,1.7,5.75,2.94l-2.41,4.81c-1.43-1.07-2.99-1.83-4.68-2.27-1.7-.44-3.43-.67-5.21-.67-3.03,0-5.79,1.3-8.29,3.88-2.5,2.59-4.59,7.04-6.28,13.37-1.7,6.33-3.03,14.89-4.01,25.67-.98,10.79-1.47,24.47-1.47,41.05s.58,30.22,1.74,40.91c1.16,10.7,2.72,18.99,4.68,24.87,1.96,5.88,4.23,10.07,6.82,12.57,2.58,2.5,5.39,3.74,8.42,3.74,2.31,0,4.28-.31,5.88-.94,1.6-.62,3.65-1.56,6.15-2.81l1.6,4.81c-2.5,1.78-4.81,3.08-6.95,3.88-2.14.8-4.91,1.2-8.29,1.2-9.45,0-17.11-7.26-23-21.79Z"/>
    <path d="M118.58,194.12l-20.86-152.95h-2.14l-19.79,152.95h-7.49L92.11,18.98h12.57l25.67,175.15h-11.77ZM77.14,158.56v-5.62h40.11v5.62h-40.11Z"/>
    <path d="M145.45,186.5c-4.01-6.15-6.02-16-6.02-29.55V18.98h11.5v142.26c0,10.88,1.02,18.23,3.08,22.06,2.05,3.84,6.37,5.75,12.97,5.75s11.36-1.87,13.77-5.62,3.61-10.7,3.61-20.86V18.98h7.49v140.38c0,12.66-1.96,21.88-5.88,27.68-3.92,5.79-10.7,8.69-20.32,8.69s-16.18-3.08-20.19-9.23Z"/>
    <path d="M209.49,193.72c-3.92-1.34-7.49-3.16-10.7-5.48l1.87-5.08c3.38,1.96,6.77,3.48,10.16,4.55,3.38,1.07,7.22,1.6,11.5,1.6,5.17,0,9.76-1.83,13.77-5.48,4.01-3.65,6.02-9.23,6.02-16.71,0-5.88-.71-11.45-2.14-16.71-1.43-5.26-3.21-10.56-5.35-15.91l-24.33-69.79c-1.6-4.99-2.9-9.23-3.88-12.7-.98-3.48-1.47-7.53-1.47-12.17,0-4.1.89-7.8,2.67-11.1,1.78-3.3,4.37-5.97,7.75-8.02,3.38-2.05,7.4-3.08,12.03-3.08,3.03,0,5.79.27,8.29.8,2.49.53,5.08,1.6,7.75,3.21l-1.87,5.08c-2.32-1.07-4.46-1.87-6.42-2.41-1.96-.53-4.19-.8-6.69-.8-4.28,0-7.53,1.34-9.76,4.01-2.23,2.67-3.34,6.42-3.34,11.23,0,3.39.36,6.51,1.07,9.36.71,2.85,1.69,5.97,2.94,9.36l24.07,67.92c2.14,6.06,3.96,11.23,5.48,15.51,1.51,4.28,2.67,8.29,3.48,12.03.8,3.74,1.2,7.93,1.2,12.57,0,4.99-1.16,9.85-3.48,14.57-2.32,4.73-5.71,8.52-10.16,11.36-4.46,2.85-9.99,4.28-16.58,4.28-5.35,0-9.99-.67-13.9-2.01Z"/>
    <path d="M266.18,18.98h34.76l1.34,5.62h-24.87v163.65h28.61l-1.6,5.88h-38.24V18.98ZM273.4,108.29h27.81v5.88h-27.81v-5.88Z"/>
    <path d="M442.66,18.98l-19.79,175.15h-8.82l-19.79-140.92h-2.14l-17.38,140.92h-8.82l-21.12-175.15h10.7l15.24,135.84h2.41l16.85-135.84h9.09l19.79,135.84h2.14l13.9-135.84h7.75Z"/>
    <path d="M452.82,18.98h10.96v175.15h-10.96V18.98ZM459.5,110.16h47.33v5.62h-47.33v-5.62ZM504.16,18.98h10.96v175.15h-10.96V18.98Z"/>
    <path d="M576.35,194.12l-20.86-152.95h-2.14l-19.79,152.95h-7.49l23.8-175.15h12.57l25.67,175.15h-11.77ZM534.91,158.56v-5.62h40.11v5.62h-40.11Z"/>
    <path d="M605.5,24.59h-22.46l1.6-5.62h53.21l1.6,5.62h-22.46v169.53h-11.5V24.59Z"/>
    <path d="M695.61,137.17l-21.66-118.19h11.77l15.78,95.19h2.41l15.51-95.19h7.49l-20.59,116.32v58.83h-10.7v-56.96Z"/>
    <path d="M738.52,173.26c-5.62-14.97-8.42-37.26-8.42-66.85s2.81-50.45,8.42-65.78c5.62-15.33,13.32-23,23.13-23s17.6,7.67,23.4,23c5.79,15.33,8.69,37.26,8.69,65.78s-2.9,51.88-8.69,66.85c-5.79,14.97-13.6,22.46-23.4,22.46s-17.51-7.49-23.13-22.46ZM770.61,185.16c2.58-2.94,4.68-7.66,6.28-14.17,1.6-6.51,2.81-15.06,3.61-25.67.8-10.6,1.2-23.57,1.2-38.91s-.4-27.41-1.2-37.84c-.8-10.43-2-18.99-3.61-25.67-1.6-6.68-3.7-11.54-6.28-14.57-2.59-3.03-5.57-4.55-8.96-4.55-3.57,0-6.6,1.52-9.09,4.55-2.5,3.03-4.5,7.89-6.02,14.57-1.52,6.69-2.67,15.24-3.48,25.67-.8,10.43-1.2,23.04-1.2,37.84s.4,28.3,1.2,38.91c.8,10.61,1.96,19.17,3.48,25.67,1.51,6.51,3.52,11.23,6.02,14.17,2.5,2.94,5.52,4.41,9.09,4.41,3.38,0,6.37-1.47,8.96-4.41Z"/>
    <path d="M814.72,186.5c-4.01-6.15-6.02-16-6.02-29.55V18.98h11.5v142.26c0,10.88,1.02,18.23,3.07,22.06,2.05,3.84,6.37,5.75,12.97,5.75s11.36-1.87,13.77-5.62,3.61-10.7,3.61-20.86V18.98h7.49v140.38c0,12.66-1.96,21.88-5.88,27.68-3.92,5.79-10.7,8.69-20.32,8.69s-16.18-3.08-20.19-9.23Z"/>
    <path d="M912.46,193.72c-3.92-1.34-7.49-3.16-10.7-5.48l1.87-5.08c3.38,1.96,6.77,3.48,10.16,4.55,3.38,1.07,7.22,1.6,11.5,1.6,5.17,0,9.76-1.83,13.77-5.48,4.01-3.65,6.02-9.23,6.02-16.71,0-5.88-.71-11.45-2.14-16.71-1.43-5.26-3.21-10.56-5.35-15.91l-24.33-69.79c-1.6-4.99-2.9-9.23-3.88-12.7-.98-3.48-1.47-7.53-1.47-12.17,0-4.1.89-7.8,2.67-11.1,1.78-3.3,4.37-5.97,7.75-8.02,3.38-2.05,7.39-3.08,12.03-3.08,3.03,0,5.79.27,8.29.8,2.49.53,5.08,1.6,7.75,3.21l-1.87,5.08c-2.32-1.07-4.46-1.87-6.42-2.41-1.96-.53-4.19-.8-6.68-.8-4.28,0-7.53,1.34-9.76,4.01-2.23,2.67-3.34,6.42-3.34,11.23,0,3.39.35,6.51,1.07,9.36.71,2.85,1.69,5.97,2.94,9.36l24.07,67.92c2.14,6.06,3.97,11.23,5.48,15.51,1.51,4.28,2.67,8.29,3.48,12.03.8,3.74,1.2,7.93,1.2,12.57,0,4.99-1.16,9.85-3.48,14.57-2.32,4.73-5.71,8.52-10.16,11.36-4.46,2.85-9.99,4.28-16.58,4.28-5.35,0-9.99-.67-13.9-2.01Z"/>
    <path d="M968.07,18.98h34.76l1.34,5.62h-24.87v163.65h28.61l-1.6,5.88h-38.24V18.98ZM975.29,108.29h27.81v5.88h-27.81v-5.88Z"/>
    <path d="M1019.41,18.98h34.76l1.34,5.62h-24.87v163.65h28.61l-1.6,5.88h-38.24V18.98ZM1026.63,108.29h27.81v5.88h-27.81v-5.88Z"/>
    <path class="cls-1" d="M28.47,352.63L6.01,234.98h17.38l14.97,88.78h2.41l14.44-88.78h10.16l-20.59,114.98v60.16h-16.31v-57.49Z"/>
    <path class="cls-1" d="M77.13,389.4c-6.42-15.06-9.63-37.39-9.63-66.98s3.21-50.45,9.63-65.78c6.42-15.33,15.33-23,26.74-23s19.88,7.67,26.47,23c6.59,15.33,9.89,37.26,9.89,65.78s-3.3,51.92-9.89,66.98c-6.6,15.07-15.42,22.59-26.47,22.59s-20.32-7.53-26.74-22.59ZM112.16,399.16c2.31-2.67,4.23-7.13,5.75-13.37,1.51-6.24,2.67-14.53,3.48-24.87.8-10.34,1.2-23.17,1.2-38.51s-.4-27.27-1.2-37.44-1.96-18.36-3.48-24.6c-1.52-6.24-3.43-10.78-5.75-13.64-2.32-2.85-5.08-4.28-8.29-4.28-3.39,0-6.28,1.43-8.69,4.28-2.41,2.85-4.32,7.4-5.75,13.64-1.43,6.24-2.45,14.44-3.08,24.6-.63,10.16-.94,22.64-.94,37.44s.31,28.17.94,38.51c.62,10.34,1.65,18.63,3.08,24.87,1.42,6.24,3.34,10.7,5.75,13.37,2.41,2.67,5.3,4.01,8.69,4.01,3.21,0,5.97-1.34,8.29-4.01Z"/>
    <path class="cls-1" d="M160.96,401.7c-4.91-6.86-7.35-17.78-7.35-32.76v-133.97h17.11v141.45c0,10.16,1.07,17.03,3.21,20.59,2.14,3.57,6.33,5.35,12.57,5.35s10.83-1.78,13.24-5.35c2.41-3.56,3.61-10.16,3.61-19.79v-142.26h10.7v137.98c0,13.19-2.32,23-6.95,29.41-4.64,6.42-12.3,9.63-23,9.63s-18.23-3.43-23.13-10.29Z"/>
    <path class="cls-1" d="M257.08,410.12l6.95-175.15h16.31l24.87,145.46h2.41l22.46-145.46h18.18l7.49,175.15h-16.31l-3.48-136.64h-2.41l-21.66,136.64h-14.97l-22.73-136.64h-2.41l-3.48,136.64h-11.23Z"/>
    <path class="cls-1" d="M372.86,234.98h16.04v175.15h-16.04v-175.15Z"/>
    <path class="cls-1" d="M422.33,402.37c-5.88-6.42-10.29-15.86-13.24-28.34-2.94-12.48-4.41-27.9-4.41-46.26,0-32.8,3.16-56.69,9.49-71.66,6.33-14.97,15.64-22.46,27.94-22.46,3.74,0,6.91.4,9.49,1.2,2.58.8,5.3,2.01,8.16,3.61l-2.94,6.95c-2.5-1.07-4.95-1.83-7.35-2.27-2.41-.44-4.77-.67-7.09-.67-3.21,0-6.11,1.3-8.69,3.88-2.59,2.59-4.73,7.04-6.42,13.37-1.7,6.33-2.99,15.02-3.88,26.07-.89,11.06-1.34,25.05-1.34,41.98,0,15.51.53,28.21,1.6,38.1,1.07,9.89,2.58,17.61,4.55,23.13,1.96,5.53,4.28,9.36,6.95,11.5,2.67,2.14,5.62,3.21,8.82,3.21,2.49,0,4.77-.27,6.82-.8,2.05-.53,4.23-1.34,6.55-2.41l-5.08,4.81v-87.97h-17.11l2.41-7.75h30.48v94.66c-3.57,2.5-7.22,4.41-10.96,5.75-3.74,1.34-8.02,2.01-12.84,2.01-8.74,0-16.04-3.21-21.93-9.63Z"/>
    <path class="cls-1" d="M483.3,234.98h16.04v175.15h-16.04v-175.15ZM493.73,325.09h46.79v7.75h-46.79v-7.75ZM536.51,234.98h16.04v175.15h-16.04v-175.15Z"/>
    <path class="cls-1" d="M582.5,243h-22.73l2.14-8.02h58.56l2.14,8.02h-23v167.12h-17.11v-167.12Z"/>
    <path class="cls-1" d="M657.1,234.98h13.9l37.7,132.09h2.41l-.54-132.09h10.7v175.15h-13.91l-37.17-132.9h-2.41v132.9h-10.7v-175.15Z"/>
    <path class="cls-1" d="M746.94,389.4c-6.42-15.06-9.63-37.39-9.63-66.98s3.21-50.45,9.63-65.78c6.42-15.33,15.33-23,26.74-23s19.88,7.67,26.47,23c6.59,15.33,9.89,37.26,9.89,65.78s-3.3,51.92-9.89,66.98c-6.6,15.07-15.42,22.59-26.47,22.59s-20.32-7.53-26.74-22.59ZM781.97,399.16c2.31-2.67,4.23-7.13,5.75-13.37,1.51-6.24,2.67-14.53,3.48-24.87.8-10.34,1.2-23.17,1.2-38.51s-.4-27.27-1.2-37.44c-.8-10.16-1.96-18.36-3.48-24.6-1.52-6.24-3.43-10.78-5.75-13.64-2.32-2.85-5.08-4.28-8.29-4.28-3.39,0-6.28,1.43-8.69,4.28-2.41,2.85-4.32,7.4-5.75,13.64-1.43,6.24-2.45,14.44-3.08,24.6-.63,10.16-.94,22.64-.94,37.44s.31,28.17.94,38.51c.62,10.34,1.65,18.63,3.08,24.87,1.42,6.24,3.34,10.7,5.75,13.37,2.41,2.67,5.3,4.01,8.69,4.01,3.21,0,5.97-1.34,8.29-4.01Z"/>
    <path class="cls-1" d="M828.77,243h-22.73l2.14-8.02h58.56l2.14,8.02h-23v167.12h-17.11v-167.12Z"/>
    <path class="cls-1" d="M902.03,402.37c-5.88-6.42-10.29-15.86-13.24-28.34-2.94-12.48-4.41-27.9-4.41-46.26,0-32.8,3.16-56.69,9.49-71.66,6.33-14.97,15.64-22.46,27.94-22.46,3.74,0,6.91.4,9.49,1.2,2.58.8,5.3,2.01,8.16,3.61l-2.94,6.95c-2.5-1.07-4.95-1.83-7.35-2.27-2.41-.44-4.77-.67-7.09-.67-3.21,0-6.11,1.3-8.69,3.88s-4.73,7.04-6.42,13.37c-1.7,6.33-2.99,15.02-3.88,26.07-.89,11.06-1.34,25.05-1.34,41.98,0,15.51.54,28.21,1.6,38.1s2.58,17.61,4.55,23.13c1.96,5.53,4.28,9.36,6.95,11.5s5.62,3.21,8.82,3.21c2.49,0,4.77-.27,6.82-.8,2.05-.53,4.23-1.34,6.55-2.41l-5.08,4.81v-87.97h-17.11l2.41-7.75h30.48v94.66c-3.57,2.5-7.22,4.41-10.96,5.75-3.74,1.34-8.02,2.01-12.83,2.01-8.74,0-16.04-3.21-21.93-9.63Z"/>
    <path class="cls-1" d="M960.59,234.98h40.11l1.34,8.02h-24.33v158.83h27.81l-1.87,8.29h-43.05v-175.15ZM970.48,322.15h30.75v8.29h-30.75v-8.29Z"/>
    <path class="cls-1" d="M1030.65,243h-22.73l2.14-8.02h58.56l2.14,8.02h-23v167.12h-17.11v-167.12Z"/>
    <path d="M52.4,626.12l-18.45-141.45h-2.67l-16.04,141.45H-3.22l23.53-175.15h33.69l27.01,175.15h-28.61ZM10.42,590.56v-12.57h46.26v12.57H10.42Z"/>
    <path d="M93.31,450.98h22.19l37.17,112.84h2.41l-.53-112.84h17.38v175.15h-22.19l-36.63-115.25h-2.41v115.25h-17.38v-175.15Z"/>
    <path d="M191.18,450.98h23.26c14.97,0,27.09,3.39,36.37,10.16,9.27,6.78,16.04,16.58,20.32,29.41,4.28,12.83,6.42,28.61,6.42,47.33,0,29.24-4.99,51.25-14.97,66.05-9.99,14.8-25.58,22.19-46.79,22.19h-24.6v-175.15ZM210.96,613.55h15.78c5.88,0,10.43-2.36,13.64-7.09,3.21-4.72,5.44-12.61,6.69-23.67,1.25-11.05,1.87-26.03,1.87-44.92,0-17.47-.58-31.64-1.74-42.52-1.16-10.87-3.34-18.89-6.55-24.07-3.21-5.17-7.85-7.75-13.9-7.75h-15.78l7.22-6.42v163.38l-7.22-6.95Z"/>
    <path d="M445.47,450.98l-23.26,175.15h-24.6l-18.99-133.43h-2.41l-16.31,133.43h-24.6l-26.21-175.15h25.4l15.24,117.12h2.41l14.17-117.12h28.34l17.65,117.12h2.41l12.3-117.12h18.45Z"/>
    <path d="M455.36,450.98h50.27l1.87,12.57h-23.53v148.94h27.01l-2.94,13.64h-52.68v-175.15ZM471.4,533.87h36.1v13.64h-36.1v-13.64Z"/>
    <path d="M561.91,605.67c-7.75-15.06-11.63-37.39-11.63-66.98s3.88-51.61,11.63-66.58c7.75-14.97,19.03-22.46,33.83-22.46,4.45,0,8.24.45,11.37,1.34,3.12.89,6.28,2.05,9.49,3.48l-4.81,12.57c-2.5-1.25-4.9-2.09-7.22-2.54-2.32-.44-4.73-.67-7.22-.67-3.21,0-5.93,1.03-8.16,3.07-2.23,2.05-4.06,5.75-5.48,11.1-1.43,5.35-2.5,12.93-3.21,22.73-.71,9.81-1.07,22.46-1.07,37.97,0,16.4.4,29.55,1.2,39.44.8,9.89,1.96,17.34,3.48,22.33,1.51,4.99,3.43,8.38,5.75,10.16,2.32,1.78,4.99,2.67,8.02,2.67,3.56,0,6.64-.36,9.23-1.07,2.58-.71,5.57-1.69,8.96-2.94l3.48,12.83c-4.28,1.96-8.2,3.48-11.77,4.55-3.57,1.07-8.2,1.6-13.9,1.6-13.55,0-24.2-7.53-31.95-22.6Z"/>
    <path d="M682.1,626.12l-18.45-141.45h-2.67l-16.04,141.45h-18.45l23.53-175.15h33.69l27.01,175.15h-28.61ZM640.12,590.56v-12.57h46.26v12.57h-46.26Z"/>
    <path d="M723.55,450.98h22.19l37.17,112.84h2.41l-.54-112.84h17.38v175.15h-22.19l-36.63-115.25h-2.41v115.25h-17.38v-175.15Z"/>
    <path d="M855.37,450.98h28.08c15.86,0,27.68,3.84,35.43,11.5,7.75,7.67,11.63,18.01,11.63,31.02,0,6.42-.94,12.35-2.81,17.78-1.87,5.44-4.95,10.07-9.23,13.91-4.28,3.83-9.99,6.64-17.11,8.42v-4.28c10.87,2.5,19.61,7.8,26.21,15.91,6.59,8.11,9.89,19.3,9.89,33.56,0,16.04-4.37,27.94-13.1,35.7-8.74,7.75-21.3,11.63-37.7,11.63h-31.29v-175.15ZM882.11,463.54v150.01h7.49c4.63,0,8.42-1.02,11.36-3.08,2.94-2.05,5.21-5.66,6.82-10.83,1.6-5.17,2.41-12.48,2.41-21.93,0-13.72-1.87-23.3-5.62-28.75-3.74-5.44-9.18-8.16-16.31-8.16h-10.43v-11.77h6.95c7.13,0,12.34-2.45,15.64-7.35,3.3-4.9,4.95-13.24,4.95-25,0-8.91-.67-15.78-2.01-20.59-1.34-4.81-3.43-8.11-6.28-9.89-2.85-1.78-6.51-2.67-10.96-2.67h-4.01Z"/>
    <path d="M947.35,450.98h50.27l1.87,12.57h-23.53v148.94h27.01l-2.94,13.64h-52.68v-175.15ZM963.4,533.87h36.1v13.64h-36.1v-13.64Z"/>
    <path d="M1030.25,463.54h-23.53l2.94-12.57h69.52l2.94,12.57h-23.26v162.58h-28.61v-162.58Z"/>
    <path class="cls-1" d="M60.42,841.99c-4.91-1.69-9.85-4.05-14.84-7.09l5.35-15.24c3.92,1.78,7.71,3.17,11.36,4.15,3.65.98,7.53,1.47,11.63,1.47,5.35,0,9.36-1.25,12.03-3.74,2.67-2.49,4.01-5.97,4.01-10.43s-.63-8.16-1.87-11.63c-1.25-3.48-3.03-7.8-5.35-12.97l-21.66-48.13c-3.03-6.06-5.62-12.07-7.75-18.05-2.14-5.97-3.21-12.25-3.21-18.85s1.47-12.34,4.41-17.78c2.94-5.44,7.17-9.8,12.7-13.1,5.52-3.3,12.12-4.95,19.79-4.95,5.35,0,9.94.49,13.77,1.47,3.83.98,7.71,2.63,11.63,4.95l-5.35,14.44c-3.03-1.42-5.66-2.41-7.89-2.94-2.23-.53-4.77-.8-7.62-.8-4.64,0-7.98,1.25-10.03,3.74-2.05,2.5-3.08,5.79-3.08,9.89,0,3.74.67,7.18,2.01,10.29,1.34,3.12,3.25,6.82,5.75,11.1l21.66,41.18c3.21,5.35,5.84,10.34,7.89,14.97,2.05,4.64,3.65,9.32,4.81,14.04,1.16,4.73,1.74,10.03,1.74,15.91,0,7.49-1.7,14.31-5.08,20.46-3.39,6.15-8.2,11.06-14.44,14.71-6.24,3.65-13.73,5.48-22.46,5.48s-15.02-.85-19.92-2.54Z"/>
    <path class="cls-1" d="M143.98,821.67c-8.74-15.24-13.1-37.66-13.1-67.25s4.37-50.45,13.1-65.78c8.73-15.33,20.94-23,36.63-23s27.41,7.67,36.23,23c8.82,15.33,13.24,37.26,13.24,65.78s-4.41,52.01-13.24,67.25c-8.82,15.24-20.9,22.86-36.23,22.86s-27.9-7.62-36.63-22.86ZM187.43,824.61c1.87-1.87,3.38-5.39,4.55-10.56,1.16-5.17,2.01-12.57,2.54-22.19.53-9.63.8-22.1.8-37.44s-.27-26.83-.8-36.1c-.53-9.27-1.38-16.49-2.54-21.66-1.16-5.17-2.67-8.78-4.55-10.83-1.87-2.05-4.15-3.08-6.82-3.08-2.85,0-5.21,1.03-7.09,3.08-1.87,2.05-3.39,5.66-4.55,10.83-1.16,5.17-1.92,12.39-2.27,21.66-.36,9.27-.53,21.3-.53,36.1s.18,27.81.53,37.44c.35,9.63,1.11,17.03,2.27,22.19,1.16,5.17,2.67,8.69,4.55,10.56,1.87,1.87,4.23,2.81,7.09,2.81,2.67,0,4.95-.94,6.82-2.81Z"/>
    <path class="cls-1" d="M280.61,666.98h25.4c16.58,0,29.99,3.3,40.24,9.89,10.25,6.6,17.78,16.36,22.6,29.28,4.81,12.93,7.22,28.84,7.22,47.73,0,29.24-5.57,51.25-16.71,66.05-11.14,14.8-28.3,22.19-51.47,22.19h-27.27v-175.15ZM304.41,827.15h16.85c5.52,0,9.76-2.14,12.7-6.42s4.99-11.77,6.15-22.46c1.16-10.7,1.74-25.49,1.74-44.39,0-17.65-.53-31.73-1.6-42.25-1.07-10.52-3.07-18.09-6.02-22.73-2.94-4.63-7.27-6.95-12.97-6.95h-16.85l8.29-7.75v161.24l-8.29-8.29Z"/>
    <path class="cls-1" d="M402.01,821.67c-8.74-15.24-13.1-37.66-13.1-67.25s4.37-50.45,13.1-65.78c8.73-15.33,20.94-23,36.63-23s27.41,7.67,36.23,23c8.82,15.33,13.24,37.26,13.24,65.78s-4.41,52.01-13.24,67.25c-8.82,15.24-20.9,22.86-36.23,22.86s-27.9-7.62-36.63-22.86ZM445.46,824.61c1.87-1.87,3.38-5.39,4.55-10.56,1.16-5.17,2.01-12.57,2.54-22.19.53-9.63.8-22.1.8-37.44s-.27-26.83-.8-36.1c-.53-9.27-1.38-16.49-2.54-21.66-1.16-5.17-2.67-8.78-4.55-10.83-1.87-2.05-4.15-3.08-6.82-3.08-2.85,0-5.21,1.03-7.09,3.08-1.87,2.05-3.39,5.66-4.55,10.83-1.16,5.17-1.92,12.39-2.27,21.66-.36,9.27-.53,21.3-.53,36.1s.18,27.81.53,37.44c.35,9.63,1.11,17.03,2.27,22.19,1.16,5.17,2.67,8.69,4.55,10.56,1.87,1.87,4.23,2.81,7.09,2.81,2.67,0,4.95-.94,6.82-2.81Z"/>
    <path class="cls-1" d="M501.75,666.98h26.47l36.9,102.95h2.67l-.53-102.95h20.86v175.15h-26.74l-36.37-106.69h-2.41v106.69h-20.86v-175.15Z"/>
    <path class="cls-1" d="M598.01,661.63h20.32l-8.02,51.61h-12.3v-51.61Z"/>
    <path class="cls-1" d="M646.67,681.95h-23.8l3.48-14.97h74.87l3.48,14.97h-23.8v160.17h-34.23v-160.17Z"/>
    <path class="cls-1" d="M768.07,782.76l-25.14-115.78h33.96l13.1,70.06h2.41l11.23-70.06h18.45l-21.66,111.24v63.91h-32.35v-59.36Z"/>
    <path class="cls-1" d="M837.86,821.67c-8.74-15.24-13.1-37.66-13.1-67.25s4.37-50.45,13.1-65.78c8.73-15.33,20.94-23,36.63-23s27.41,7.67,36.23,23c8.82,15.33,13.24,37.26,13.24,65.78s-4.41,52.01-13.24,67.25c-8.82,15.24-20.9,22.86-36.23,22.86s-27.9-7.62-36.63-22.86ZM881.31,824.61c1.87-1.87,3.38-5.39,4.55-10.56,1.16-5.17,2-12.57,2.54-22.19.54-9.63.8-22.1.8-37.44s-.27-26.83-.8-36.1c-.54-9.27-1.38-16.49-2.54-21.66-1.16-5.17-2.67-8.78-4.55-10.83-1.87-2.05-4.14-3.08-6.82-3.08-2.85,0-5.21,1.03-7.09,3.08-1.87,2.05-3.39,5.66-4.54,10.83-1.16,5.17-1.92,12.39-2.27,21.66-.36,9.27-.54,21.3-.54,36.1s.18,27.81.54,37.44c.36,9.63,1.11,17.03,2.27,22.19,1.16,5.17,2.67,8.69,4.54,10.56,1.87,1.87,4.23,2.81,7.09,2.81,2.67,0,4.95-.94,6.82-2.81Z"/>
    <path class="cls-1" d="M949.63,831.16c-7.49-8.91-11.23-23.08-11.23-42.52v-121.67h34.23v138.78c0,7.85,1.07,13.33,3.21,16.45,2.14,3.12,6.06,4.68,11.77,4.68s9.45-1.56,11.76-4.68c2.32-3.12,3.48-8.6,3.48-16.45v-138.78h20.59v130.49c0,15.15-3.39,26.79-10.16,34.9-6.78,8.11-17.29,12.17-31.55,12.17s-24.6-4.45-32.09-13.37Z"/>
    <path d="M-24.48,1050.63c-8.47-6.77-14.57-16.71-18.32-29.81s-5.62-29.01-5.62-47.73c0-30.84,5.03-53.79,15.11-68.86,10.07-15.06,24.82-22.59,44.25-22.59,6.59,0,12.39.63,17.38,1.87,4.99,1.25,9.98,2.85,14.97,4.81l-5.88,16.85c-4.99-1.42-9.67-2.41-14.04-2.94-4.37-.53-8.42-.8-12.17-.8-3.21,0-6.06.85-8.56,2.54-2.5,1.7-4.55,4.99-6.15,9.89-1.6,4.91-2.81,12.12-3.61,21.66-.8,9.54-1.2,22.06-1.2,37.57s.27,29.01.8,38.37c.54,9.36,1.47,16.27,2.81,20.72,1.34,4.46,3.16,7.35,5.48,8.69,2.31,1.34,5.26,2,8.82,2,3.21,0,6.06-.27,8.56-.8,2.49-.54,5.08-1.25,7.75-2.14l-8.82,6.42v-78.62H2.66l5.08-17.38h45.46v96.26c-6.06,4.46-12.43,7.93-19.12,10.43s-14.75,3.74-24.2,3.74c-14.44,0-25.9-3.38-34.36-10.16Z"/>
    <path d="M66.3,882.98h60.7l2.14,17.38h-22.73v139.05h25.94l-3.74,18.72h-62.3v-175.15ZM87.96,961.59h41.71v18.72h-41.71v-18.72Z"/>
    <path d="M160.16,900.36h-24.07l4.01-17.38h80.22l4.01,17.38h-24.07v157.76h-40.11v-157.76Z"/>
    <path d="M259.89,1058.12c-5.17-1.78-10.43-4.37-15.78-7.75l6.15-17.65c4.1,1.78,8.02,3.17,11.77,4.15,3.74.98,7.66,1.47,11.77,1.47,5.17,0,8.91-1.11,11.23-3.34,2.31-2.23,3.48-5.21,3.48-8.96s-.53-7.4-1.6-10.43c-1.07-3.03-2.85-7.04-5.35-12.03l-21.12-42.78c-3.21-6.42-6.06-12.88-8.56-19.39-2.5-6.5-3.74-13.32-3.74-20.46s1.65-13.41,4.95-19.39c3.3-5.97,7.98-10.78,14.04-14.44,6.06-3.65,13.28-5.48,21.66-5.48,5.88,0,10.92.53,15.11,1.6,4.19,1.07,8.33,2.85,12.43,5.35l-6.15,16.85c-3.03-1.42-5.71-2.45-8.02-3.08-2.32-.62-4.99-.94-8.02-.94-4.64,0-7.98,1.25-10.03,3.74-2.05,2.5-3.07,5.71-3.07,9.63s.76,7.49,2.27,10.7c1.51,3.21,3.61,6.95,6.28,11.23l21.39,34.49c3.38,5.35,6.19,10.34,8.42,14.97,2.23,4.64,3.96,9.45,5.21,14.44,1.25,4.99,1.87,10.61,1.87,16.85,0,8.02-1.83,15.33-5.48,21.93-3.66,6.6-8.82,11.81-15.51,15.64s-14.67,5.75-23.93,5.75-16.49-.89-21.66-2.67Z"/>
    <path d="M347.6,1037.8c-9.45-15.33-14.17-37.79-14.17-67.38s4.72-50.45,14.17-65.78c9.45-15.33,22.73-23,39.84-23s30.17,7.67,39.71,23c9.53,15.33,14.31,37.26,14.31,65.78s-4.77,52.06-14.31,67.38c-9.54,15.33-22.77,23-39.71,23s-30.4-7.66-39.84-23ZM393.86,1038.33c1.78-1.6,3.16-4.81,4.14-9.63.98-4.81,1.69-11.9,2.14-21.26.44-9.36.67-21.7.67-37.04s-.23-26.69-.67-35.7c-.45-9-1.16-15.91-2.14-20.72-.98-4.81-2.36-8.06-4.14-9.76-1.78-1.69-3.92-2.54-6.42-2.54-2.67,0-4.86.85-6.55,2.54s-3.03,4.95-4.01,9.76c-.98,4.81-1.65,11.72-2.01,20.72-.36,9-.54,20.9-.54,35.7s.18,27.68.54,37.04c.35,9.36,1.02,16.45,2.01,21.26.98,4.81,2.31,8.02,4.01,9.63,1.69,1.6,3.88,2.41,6.55,2.41,2.49,0,4.63-.8,6.42-2.41Z"/>
    <path d="M466.85,1046.36c-8.38-9.63-12.57-24.96-12.57-45.99v-117.39h40.11v137.71c0,7.13,1.02,12.21,3.07,15.24,2.05,3.03,5.92,4.55,11.63,4.55,5.17,0,8.87-1.51,11.1-4.55,2.23-3.03,3.34-8.11,3.34-15.24v-137.71h24.07v127.82c0,15.87-3.74,28.17-11.23,36.9-7.49,8.74-18.99,13.1-34.49,13.1s-26.65-4.81-35.03-14.44Z"/>
    <path d="M562.05,882.98h34.76c14.61,0,26.34,2.5,35.16,7.49,8.82,4.99,15.28,12.26,19.39,21.79,4.1,9.54,6.15,21.17,6.15,34.9,0,18.9-5.26,34.23-15.78,45.99-10.52,11.77-26.03,17.65-46.53,17.65l4.28-4.81v52.14h-37.44v-175.15ZM595.21,993.41h7.22c4.1,0,7.39-1.2,9.89-3.61,2.49-2.41,4.37-6.77,5.62-13.1,1.25-6.33,1.87-15.38,1.87-27.14,0-13.73-.63-24.11-1.87-31.15-1.25-7.04-3.12-11.81-5.62-14.31-2.5-2.49-5.71-3.74-9.63-3.74h-10.43l7.22-8.56v106.16l-4.28-4.54Z"/>
    <path d="M667.67,882.98h60.7l2.14,17.38h-22.73v139.05h25.94l-3.74,18.72h-62.3v-175.15ZM689.33,961.59h41.71v18.72h-41.71v-18.72Z"/>
    <path d="M743.34,882.98h27.81c18,0,32.67,3.25,43.99,9.76,11.32,6.51,19.65,16.18,25,29.01s8.02,28.88,8.02,48.13c0,29.06-6.2,51.03-18.58,65.91-12.39,14.89-31.06,22.33-56.02,22.33h-30.22v-175.15ZM771.42,1040.74h17.38c5.35,0,9.4-1.96,12.17-5.88,2.76-3.92,4.68-11,5.75-21.26,1.07-10.25,1.6-24.82,1.6-43.72s-.49-32.04-1.47-42.12c-.98-10.07-2.85-17.16-5.62-21.26-2.77-4.1-6.91-6.15-12.43-6.15h-17.38l9.36-9.09v159.1l-9.36-9.63Z"/>
    <path d="M901.63,998.22l-26.21-115.25h39.58l12.3,63.91h2.67l9.89-63.91h21.39l-22.19,109.9v65.25h-37.44v-59.9Z"/>
    <path d="M970.35,882.98h60.7l2.14,17.38h-22.73v139.05h25.94l-3.74,18.72h-62.3v-175.15ZM992.01,961.59h41.71v18.72h-41.71v-18.72Z"/>
    <path d="M1063.94,900.36h-24.07l4.01-17.38h80.22l4.01,17.38h-24.07v157.76h-40.11v-157.76Z"/>
  </g>
</svg>