<?xml version="1.0" encoding="UTF-8"?>
<svg id="Layer_1" data-name="Layer 1" xmlns="http://www.w3.org/2000/svg" viewBox="0 0 1080 1080">
  <defs>
    <style>
      .cls-1 {
        fill: #fff;
      }
    </style>
  </defs>
  <rect y="220.3" width="1080" height="127.57"/>
  <rect y="664.41" width="1080" height="143.97"/>
  <g>
    <path d="M11.68,192.55v-21.5c5.87,1.38,11.18,2.55,15.93,3.5,4.75.95,9.62,1.64,14.64,2.07,5.01.43,10.71.65,17.1.65,7.42,0,12.99-.78,16.71-2.33,3.71-1.55,6.26-4.31,7.64-8.29,1.38-3.97,2.07-9.58,2.07-16.84,0-6.39-.48-11.35-1.42-14.9-.95-3.54-2.64-6.22-5.05-8.03-2.42-1.81-5.87-3.24-10.36-4.27l-16.32-4.4c-15.54-3.97-26.51-10.53-32.9-19.69-6.39-9.15-9.58-20.63-9.58-34.45s4.79-25.77,14.38-34.84c9.58-9.07,23.1-13.6,40.54-13.6,5.35,0,9.93.13,13.73.39,3.8.26,7.73.65,11.79,1.17,4.06.52,8.76,1.21,14.12,2.07v20.98c-6.05-.86-11.18-1.55-15.41-2.07-4.23-.52-8.12-.86-11.66-1.04-3.54-.17-7.64-.26-12.3-.26-7.08,0-12.48.69-16.19,2.07-3.72,1.38-6.22,4.02-7.51,7.9-1.29,3.89-1.94,9.46-1.94,16.71,0,5.87.39,10.67,1.17,14.38.78,3.72,2.29,6.69,4.53,8.94,2.24,2.25,5.52,3.89,9.84,4.92l21.24,4.92c12.95,3.28,22.93,9.58,29.92,18.91s10.49,20.64,10.49,33.93c0,14.34-4.88,26.08-14.64,35.23-9.76,9.16-23.79,13.73-42.09,13.73-6.57,0-12.39-.17-17.49-.52-5.1-.35-10.06-1-14.9-1.94-4.84-.95-10.19-2.11-16.06-3.5Z"/>
    <path d="M135.25,129.6c0-12.6,2.55-24.18,7.64-34.71,5.09-10.53,12.3-19,21.63-25.39,9.33-6.39,20.29-9.58,32.9-9.58s23.31,3.2,32.64,9.58c9.33,6.39,16.53,14.85,21.63,25.39,5.09,10.54,7.64,22.11,7.64,34.71s-2.55,24.39-7.64,34.84c-5.1,10.45-12.3,18.74-21.63,24.87-9.33,6.13-20.21,9.2-32.64,9.2s-23.57-3.06-32.9-9.2c-9.33-6.13-16.54-14.42-21.63-24.87-5.1-10.45-7.64-22.06-7.64-34.84ZM164.78,129.6c0,13.13.78,23.01,2.33,29.66,1.55,6.65,4.66,11.14,9.33,13.47,4.66,2.33,11.66,3.5,20.98,3.5s16.06-1.17,20.72-3.5c4.66-2.33,7.77-6.82,9.33-13.47,1.55-6.65,2.33-16.53,2.33-29.66s-.82-23.87-2.46-30.7c-1.64-6.82-4.79-11.35-9.46-13.6-4.66-2.24-11.49-3.37-20.46-3.37s-15.85,1.12-20.59,3.37c-4.75,2.25-7.95,6.78-9.58,13.6-1.64,6.82-2.46,17.06-2.46,30.7Z"/>
    <path d="M282.38,62.51h22.54l4.66,15.54-4.92-1.81c2.76-4.14,7.73-7.9,14.9-11.27,7.16-3.37,15.24-5.05,24.22-5.05,6.04,0,11.7.95,16.97,2.85,5.27,1.9,9.75,4.58,13.47,8.03,3.71,3.46,6.35,7.51,7.9,12.18h5.44v112.94h-28.5v-93.52c0-7.94-1.25-13.47-3.76-16.58-2.51-3.11-7.47-4.66-14.9-4.66-5.87,0-11.49.48-16.84,1.42-5.35.95-11.14,2.55-17.36,4.79l4.66-6.74v115.27h-28.5V62.51ZM383.15,86.6l-10.88-9.33c4.31-5.01,10.58-9.15,18.78-12.43,8.2-3.28,17.23-4.92,27.07-4.92,14.85,0,26.25,4.1,34.19,12.3,7.94,8.2,11.92,20.17,11.92,35.88v87.82h-28.5v-93.52c0-7.94-1.6-13.47-4.79-16.58-3.2-3.11-9.03-4.66-17.49-4.66-6.05,0-11.4.52-16.06,1.55-4.66,1.04-9.42,2.33-14.25,3.89Z"/>
    <path d="M549.97,198.51c-12.43,0-23.06-2.8-31.86-8.42-8.81-5.61-15.59-13.43-20.34-23.44-4.75-10.01-7.12-21.59-7.12-34.71,0-15.89,2.37-29.14,7.12-39.76,4.75-10.62,11.31-18.65,19.69-24.09,8.37-5.44,18.17-8.16,29.4-8.16s21.67,3.2,30.31,9.58c8.63,6.39,14.9,15.67,18.78,27.85,3.88,12.17,4.44,26.98,1.68,44.43h-87.82v-18.39h76.42l-11.14,3.89c0-14.16-.82-24.56-2.46-31.21-1.64-6.65-4.49-11.05-8.55-13.21-4.06-2.16-9.8-3.24-17.23-3.24-5.53,0-10.1.56-13.73,1.68-3.63,1.13-6.48,3.41-8.55,6.86-2.07,3.46-3.54,8.68-4.4,15.67-.87,6.99-1.3,16.28-1.3,27.85,0,13.3.82,23.18,2.46,29.66,1.64,6.48,4.7,10.75,9.2,12.82,4.49,2.07,11.05,3.11,19.69,3.11,5.35,0,10.14-.26,14.38-.78,4.23-.52,8.5-1.34,12.82-2.46,4.31-1.12,9.33-2.46,15.02-4.02v21.5c-7.6,2.42-14.46,4.19-20.59,5.31-6.13,1.12-13.43,1.68-21.89,1.68Z"/>
    <path d="M625.87,9.4h28.24v68.65l-5.44,1.55c3.8-6.39,9.28-11.27,16.45-14.64,7.16-3.37,15.5-5.05,25-5.05,14.85,0,26.16,4.27,33.93,12.82s11.66,20.17,11.66,34.84v88.33h-28.5v-93.52c0-7.94-1.73-13.51-5.18-16.71-3.46-3.19-9.42-4.79-17.87-4.79-6.74,0-12.65.48-17.74,1.42-5.1.95-10.58,2.64-16.45,5.05l4.15-6.74v115.27h-28.24V9.4Z"/>
    <path d="M763.42,129.6c0-12.6,2.55-24.18,7.64-34.71,5.09-10.53,12.3-19,21.63-25.39,9.33-6.39,20.29-9.58,32.9-9.58s23.31,3.2,32.64,9.58c9.33,6.39,16.54,14.85,21.63,25.39,5.09,10.54,7.64,22.11,7.64,34.71s-2.55,24.39-7.64,34.84c-5.1,10.45-12.3,18.74-21.63,24.87-9.33,6.13-20.21,9.2-32.64,9.2s-23.57-3.06-32.9-9.2c-9.33-6.13-16.54-14.42-21.63-24.87-5.1-10.45-7.64-22.06-7.64-34.84ZM792.95,129.6c0,13.13.78,23.01,2.33,29.66,1.55,6.65,4.66,11.14,9.33,13.47s11.66,3.5,20.98,3.5,16.06-1.17,20.72-3.5c4.66-2.33,7.77-6.82,9.33-13.47,1.55-6.65,2.33-16.53,2.33-29.66s-.82-23.87-2.46-30.7c-1.64-6.82-4.79-11.35-9.46-13.6-4.66-2.24-11.49-3.37-20.46-3.37s-15.85,1.12-20.59,3.37c-4.75,2.25-7.95,6.78-9.58,13.6-1.64,6.82-2.46,17.06-2.46,30.7Z"/>
    <path d="M894.75,62.51h29.53l28.75,83.67h1.55l28.24-83.67h15.28l30.83,83.67h1.29l24.61-83.67h21.24l-41.97,133.41h-14.77l-31.08-88.08h-1.29l-31.09,88.08h-15.02l-46.11-133.41Z"/>
  </g>
  <g>
    <path d="M35.35,628.23v-238.21h68.85c25.73,0,45.38,4.99,58.94,14.95,13.56,9.97,20.34,25.5,20.34,46.6,0,10.9-2.96,20.52-8.87,28.86-5.91,8.35-13.27,14.49-22.08,18.43v1.74c18.08,3.71,31.53,10.9,40.34,21.56,8.81,10.67,13.21,23.99,13.21,39.99,0,13.68-2.84,25.51-8.52,35.47-5.68,9.97-14.61,17.56-26.78,22.78-12.17,5.22-28.11,7.82-47.81,7.82H35.35ZM73.6,496.44h36.17c9.04,0,16.11-1.1,21.21-3.3,5.1-2.2,8.75-6.2,10.95-12,2.2-5.79,3.3-14.14,3.3-25.04s-1.04-19.18-3.13-24.86c-2.09-5.68-5.68-9.62-10.78-11.82-5.1-2.2-12.29-3.3-21.56-3.3h-36.17v80.33ZM73.6,602.15h47.29c12.05,0,21.44-.92,28.17-2.78,6.72-1.85,11.53-5.68,14.43-11.48,2.9-5.79,4.35-14.37,4.35-25.73s-1.45-19.65-4.35-25.56c-2.9-5.91-7.71-10.02-14.43-12.34-6.73-2.31-16.12-3.48-28.17-3.48h-47.29v81.37Z"/>
    <path d="M238.08,628.23v-238.21h38.25v212.13h90.41v26.08h-128.67Z"/>
    <path d="M387.27,628.23l84.85-238.21h33.38l88.68,238.21h-38.25l-67.81-192.3h-1.74l-65.38,192.3h-33.73ZM426.91,570.51v-26.08h118.23v26.08h-118.23Z"/>
    <path d="M635.9,628.23v-238.21h26.78l114.06,165.87h2.09v-165.87h29.56v238.21h-26.43l-114.76-167.61h-1.74v167.61h-29.56Z"/>
    <path d="M868.54,628.23v-238.21h70.25c21.33,0,39.47,3.25,54.42,9.74,14.95,6.49,27.18,15.36,36.69,26.6,9.5,11.25,16.46,23.99,20.86,38.25,4.4,14.26,6.61,29.16,6.61,44.69,0,14.14-1.97,28.23-5.91,42.25-3.94,14.03-10.43,26.84-19.47,38.43-9.04,11.59-21.16,20.86-36.34,27.82-15.19,6.96-34.14,10.43-56.86,10.43h-70.25ZM906.79,602.15h39.99c13.21,0,24.22-1.39,33.04-4.17,8.81-2.78,15.82-7.59,21.04-14.43,5.22-6.83,8.98-16.28,11.3-28.34,2.31-12.05,3.48-27.35,3.48-45.9s-1.16-33.15-3.48-45.21c-2.32-12.05-6.09-21.61-11.3-28.69-5.22-7.07-12.23-12.05-21.04-14.95-8.81-2.9-19.82-4.35-33.04-4.35h-39.99v186.04Z"/>
  </g>
  <g>
    <path class="cls-1" d="M13.91,354.46v-136.37h90.72v22.24h-48.17v91.88h50.87v22.25H13.91ZM39.25,296.23v-21.28h56.87v21.28h-56.87Z"/>
    <path class="cls-1" d="M162.47,354.46l-48.36-136.37h46.23l26.11,78.73h1.93l23.21-78.73h30.56l-47,136.37h-32.69Z"/>
    <path class="cls-1" d="M253.77,354.46v-136.37h90.72v22.24h-48.17v91.88h50.87v22.25h-93.43ZM279.11,296.23v-21.28h56.87v21.28h-56.87Z"/>
    <path class="cls-1" d="M366.15,354.46v-136.37h24.18l54.94,64.8h1.93v-64.8h29.02v136.37h-24.18l-54.94-64.99h-1.93v64.99h-29.02Z"/>
    <path class="cls-1" d="M532.69,354.46v-136.37h43.33l28.05,57.26h1.93l26.31-57.26h41.59v136.37h-38.69l-1.93-75.05h-1.93l-27.47,52.03h-12.57l-26.69-52.03h-1.93v75.05h-29.98Z"/>
    <path class="cls-1" d="M759.98,356.39c-13.03,0-24.57-2.68-34.62-8.03-10.06-5.35-17.93-13.35-23.6-23.99-5.68-10.64-8.51-23.89-8.51-39.75s2.83-28.5,8.51-39.07c5.67-10.57,13.54-18.6,23.6-24.08,10.06-5.48,21.6-8.22,34.62-8.22s24.73,2.74,34.72,8.22c9.99,5.48,17.83,13.51,23.5,24.08,5.67,10.58,8.51,23.6,8.51,39.07s-2.84,29.11-8.51,39.75c-5.68,10.64-13.51,18.64-23.5,23.99-10,5.35-21.57,8.03-34.72,8.03ZM759.98,333.18c4.13,0,7.51-.58,10.16-1.74,2.64-1.16,4.71-3.45,6.19-6.87,1.48-3.42,2.51-8.32,3.1-14.7.58-6.38.87-14.8.87-25.24s-.29-18.63-.87-24.95c-.58-6.32-1.61-11.15-3.1-14.51-1.48-3.35-3.55-5.64-6.19-6.87-2.64-1.22-6.03-1.84-10.16-1.84s-7.51.61-10.16,1.84c-2.64,1.23-4.71,3.51-6.19,6.87-1.48,3.35-2.51,8.19-3.09,14.51-.58,6.32-.87,14.64-.87,24.95s.29,18.86.87,25.24,1.61,11.29,3.09,14.7c1.48,3.42,3.55,5.71,6.19,6.87,2.64,1.16,6.03,1.74,10.16,1.74Z"/>
    <path class="cls-1" d="M844.12,354.26v-136.18h54.94c18.96,0,33.2,3.58,42.75,10.74,9.54,7.16,14.31,17.83,14.31,32.01,0,8.38-2.03,15.28-6.09,20.7-4.06,5.42-8.74,9.48-14.02,12.19v13.15h-49.33v47.39h-42.56ZM886.67,287.53h9.29c4,0,7.22-.55,9.67-1.64,2.45-1.09,4.22-3.45,5.32-7.06,1.09-3.61,1.64-9.15,1.64-16.64,0-7.09-.55-12.31-1.64-15.67-1.1-3.35-2.87-5.58-5.32-6.67-2.45-1.09-5.68-1.64-9.67-1.64h-9.29v49.33ZM917.24,354.26l-27.47-62.67h44.88l30.95,62.67h-48.36Z"/>
    <path class="cls-1" d="M977.78,354.46v-136.37h90.72v22.24h-48.17v91.88h50.87v22.25h-93.43ZM1003.12,296.23v-21.28h56.87v21.28h-56.87Z"/>
  </g>
  <g>
    <path class="cls-1" d="M68.1,730.71l-14.95,54.2-40.73-87.7h37.94l15.6,33.5h2.14ZM32.13,817.91l47.96-120.71h26.28l-46.81,120.71h-27.43Z"/>
    <path class="cls-1" d="M150.54,785.07c-8.54,0-16.07-1.64-22.58-4.93-6.52-3.28-11.64-8.13-15.36-14.53-3.72-6.41-5.58-14.37-5.58-23.9,0-10.62,1.83-19.32,5.5-26.11,3.67-6.79,8.65-11.83,14.95-15.11,6.29-3.29,13.39-4.93,21.27-4.93,9.09,0,16.67,2.14,22.75,6.41,6.08,4.27,10.37,10.43,12.89,18.48,2.52,8.05,2.79,17.66.82,28.82h-50.58v-13.96h35.48l-12.48,5.42c0-8.32-.19-14.45-.57-18.39-.39-3.94-1.21-6.51-2.46-7.72-1.26-1.2-3.2-1.81-5.83-1.81-1.86,0-3.4.27-4.6.82-1.21.55-2.11,1.7-2.71,3.45-.6,1.75-1.01,4.49-1.23,8.21-.22,3.72-.33,8.82-.33,15.27,0,7.12.35,12.46,1.07,16.01.71,3.56,2.02,5.91,3.94,7.06,1.91,1.15,4.57,1.72,7.97,1.72s6.4-.11,9.36-.33c2.96-.22,6.02-.6,9.2-1.15,3.17-.55,6.68-1.26,10.51-2.13v18.56c-5.48,1.53-10.73,2.71-15.77,3.53-5.04.82-10.24,1.23-15.6,1.23Z"/>
    <path class="cls-1" d="M192.58,714.45v-17.25h59.12v17.25h-59.12ZM200.47,680.61l34.33-6.9v82.61c0,3.28.46,5.48,1.4,6.57.93,1.1,2.87,1.64,5.83,1.64,2.19,0,4.24-.14,6.16-.41,1.91-.27,4.24-.68,6.98-1.23v19.71c-3.4.77-6.52,1.37-9.36,1.81-2.85.44-6.08.66-9.69.66-12.59,0-21.76-2.96-27.51-8.87-5.75-5.91-8.57-15.27-8.46-28.08l.33-67.5Z"/>
    <path class="cls-1" d="M312.15,687.02c-3.07,0-6.02-.79-8.87-2.38-2.85-1.59-5.15-3.78-6.9-6.57-1.75-2.79-2.63-6-2.63-9.61s.88-6.95,2.63-9.69c1.75-2.74,4.05-4.87,6.9-6.41,2.85-1.53,5.8-2.3,8.87-2.3s6.16.77,8.95,2.3c2.79,1.53,5.06,3.67,6.82,6.41,1.75,2.74,2.63,5.97,2.63,9.69s-.88,6.82-2.63,9.61c-1.75,2.79-4.02,4.98-6.82,6.57-2.79,1.59-5.78,2.38-8.95,2.38ZM295.06,697.2h34.49v86.22h-34.49v-86.22Z"/>
    <path class="cls-1" d="M344.33,697.2h28.25l4.76,11.66h-5.26c3.39-4.49,7.36-7.83,11.91-10.02,4.54-2.19,10.1-3.29,16.67-3.29,10.07,0,17.71,2.74,22.91,8.21,5.2,5.48,7.8,13.25,7.8,23.32v56.33h-34.49v-58.14c0-4.05-.57-6.73-1.72-8.05-1.15-1.31-3.97-1.97-8.46-1.97-2.63,0-4.87.11-6.73.33-1.86.22-3.83.6-5.91,1.15l4.76-6.24v72.92h-34.49v-86.22Z"/>
    <path class="cls-1" d="M437.12,714.45v-17.25h59.12v17.25h-59.12ZM445.01,680.61l34.33-6.9v82.61c0,3.28.46,5.48,1.4,6.57.93,1.1,2.87,1.64,5.83,1.64,2.19,0,4.24-.14,6.16-.41,1.91-.27,4.24-.68,6.98-1.23v19.71c-3.4.77-6.52,1.37-9.36,1.81-2.85.44-6.08.66-9.69.66-12.59,0-21.76-2.96-27.51-8.87-5.75-5.91-8.57-15.27-8.46-28.08l.33-67.5Z"/>
    <path class="cls-1" d="M511.19,697.2h28.74l5.42,15.44-3.78,3.28c1.86-7.99,5.42-13.58,10.68-16.75,5.26-3.17,12.15-4.27,20.69-3.28v21.84c-5.69,0-10.9.33-15.6.99-4.71.66-9.58,1.92-14.62,3.78l2.96-8.05v68.98h-34.49v-86.22Z"/>
    <path class="cls-1" d="M598.57,687.02c-3.07,0-6.02-.79-8.87-2.38-2.85-1.59-5.15-3.78-6.9-6.57-1.75-2.79-2.63-6-2.63-9.61s.88-6.95,2.63-9.69c1.75-2.74,4.05-4.87,6.9-6.41,2.85-1.53,5.8-2.3,8.87-2.3s6.16.77,8.95,2.3c2.79,1.53,5.06,3.67,6.82,6.41,1.75,2.74,2.63,5.97,2.63,9.69s-.88,6.82-2.63,9.61c-1.75,2.79-4.02,4.98-6.82,6.57-2.79,1.59-5.78,2.38-8.95,2.38ZM581.49,697.2h34.49v86.22h-34.49v-86.22Z"/>
    <path class="cls-1" d="M680.68,785.23v-76.53l5.26,7.06c-2.41-.55-4.71-.99-6.9-1.31-2.19-.33-4.54-.49-7.06-.49s-4.54.52-6.08,1.56c-1.54,1.04-2.66,3.37-3.37,6.98-.71,3.61-1.07,9.2-1.07,16.75,0,6.9.35,11.99,1.07,15.27.71,3.28,1.83,5.42,3.37,6.41,1.53.99,3.56,1.48,6.08,1.48s5.09-.25,7.72-.74c2.63-.49,5.15-1.12,7.56-1.89l1.31,7.06c-3.18,5.15-6.98,8.92-11.41,11.33-4.43,2.41-9.66,3.61-15.68,3.61-7.12,0-13.25-1.56-18.39-4.68-5.15-3.12-9.12-7.85-11.91-14.21-2.79-6.35-4.19-14.23-4.19-23.65s1.42-18.01,4.27-24.47c2.85-6.46,6.84-11.28,11.99-14.45,5.14-3.17,11.11-4.76,17.9-4.76,6.02,0,11.06,1.01,15.11,3.04,4.05,2.03,7.17,4.84,9.36,8.46h-3.45l3.45-9.85h29.56v76.37c0,11.06-2.05,20.01-6.16,26.85-4.11,6.84-9.88,11.77-17.33,14.78-7.45,3.01-16.21,4.46-26.28,4.35-6.35-.11-11.88-.63-16.59-1.56-4.71-.93-9.69-2.44-14.95-4.52v-19.71c5.8,2.3,11.17,3.89,16.09,4.76,4.93.88,10.07,1.31,15.44,1.31,4.16,0,7.33-.44,9.53-1.31,2.19-.88,3.7-2.38,4.52-4.52.82-2.13,1.23-5.07,1.23-8.79Z"/>
    <path class="cls-1" d="M814.53,783.42h-25.79l-6.9-15.44,8.21,1.97c-4.27,5.26-9.03,9.09-14.29,11.5s-11.06,3.61-17.41,3.61c-6.79,0-12.35-1.4-16.67-4.19-4.33-2.79-7.5-6.76-9.53-11.91-2.03-5.14-3.04-11.22-3.04-18.23v-53.54h34.49v54.53c0,5.26.63,8.7,1.89,10.35,1.26,1.64,3.42,2.46,6.49,2.46,2.52,0,4.62-.14,6.32-.41,1.7-.27,3.91-.74,6.65-1.4l-4.93,4.93v-70.46h34.49v86.22Z"/>
    <path class="cls-1" d="M846.39,687.02c-3.07,0-6.02-.79-8.87-2.38-2.85-1.59-5.15-3.78-6.9-6.57s-2.63-6-2.63-9.61.88-6.95,2.63-9.69c1.75-2.74,4.05-4.87,6.9-6.41,2.85-1.53,5.8-2.3,8.87-2.3s6.16.77,8.95,2.3c2.79,1.53,5.06,3.67,6.81,6.41,1.75,2.74,2.63,5.97,2.63,9.69s-.88,6.82-2.63,9.61c-1.75,2.79-4.02,4.98-6.81,6.57-2.79,1.59-5.78,2.38-8.95,2.38ZM829.31,697.2h34.49v86.22h-34.49v-86.22Z"/>
    <path class="cls-1" d="M878.58,697.2h28.25l4.76,11.66h-5.26c3.39-4.49,7.36-7.83,11.91-10.02,4.54-2.19,10.1-3.29,16.67-3.29,10.07,0,17.71,2.74,22.91,8.21,5.2,5.48,7.8,13.25,7.8,23.32v56.33h-34.49v-58.14c0-4.05-.58-6.73-1.72-8.05-1.15-1.31-3.97-1.97-8.46-1.97-2.63,0-4.87.11-6.73.33-1.86.22-3.83.6-5.91,1.15l4.76-6.24v72.92h-34.49v-86.22Z"/>
    <path class="cls-1" d="M1028.52,785.23v-76.53l5.26,7.06c-2.41-.55-4.71-.99-6.9-1.31-2.19-.33-4.54-.49-7.06-.49s-4.54.52-6.08,1.56c-1.54,1.04-2.66,3.37-3.37,6.98-.71,3.61-1.07,9.2-1.07,16.75,0,6.9.35,11.99,1.07,15.27.71,3.28,1.83,5.42,3.37,6.41,1.53.99,3.56,1.48,6.08,1.48s5.09-.25,7.72-.74c2.63-.49,5.15-1.12,7.56-1.89l1.31,7.06c-3.18,5.15-6.98,8.92-11.41,11.33-4.43,2.41-9.66,3.61-15.68,3.61-7.12,0-13.25-1.56-18.39-4.68-5.15-3.12-9.12-7.85-11.91-14.21-2.79-6.35-4.19-14.23-4.19-23.65s1.42-18.01,4.27-24.47c2.85-6.46,6.84-11.28,11.99-14.45,5.14-3.17,11.11-4.76,17.9-4.76,6.02,0,11.06,1.01,15.11,3.04,4.05,2.03,7.17,4.84,9.36,8.46h-3.45l3.45-9.85h29.56v76.37c0,11.06-2.05,20.01-6.16,26.85-4.11,6.84-9.88,11.77-17.33,14.78-7.45,3.01-16.21,4.46-26.28,4.35-6.35-.11-11.88-.63-16.59-1.56-4.71-.93-9.69-2.44-14.95-4.52v-19.71c5.8,2.3,11.17,3.89,16.09,4.76,4.93.88,10.07,1.31,15.44,1.31,4.16,0,7.33-.44,9.53-1.31,2.19-.88,3.7-2.38,4.52-4.52.82-2.13,1.23-5.07,1.23-8.79Z"/>
  </g>
  <g>
    <path d="M.78,1059.92v-233.65h74.24l48.06,98.1h3.31l45.07-98.1h71.26v233.65h-66.28l-3.31-128.59h-3.31l-47.06,89.15h-21.54l-45.74-89.15h-3.31v128.59H.78Z"/>
    <path d="M264.26,1059.92l76.89-233.65h77.22l78.55,233.65h-80.2l-49.38-160.74h-3.31l-46.4,160.74h-53.36ZM312.31,1016.17v-38.11h114.34v38.11h-114.34Z"/>
    <path d="M550.27,1006.23l-72.91-179.96h77.22l35.46,90.81h3.31l33.14-90.81h45.07l-73.58,179.96h-47.72ZM539,1059.92v-111.69h72.91v111.69h-72.91Z"/>
    <path d="M693.45,1059.92v-233.65h104.73c25.85,0,45.79,4.42,59.82,13.26,14.03,8.84,21.05,24.19,21.05,46.07,0,10.39-2.82,19.5-8.45,27.34-5.63,7.85-13.42,13.42-23.37,16.74v3.31c19.22,3.98,33.19,11.05,41.92,21.21,8.73,10.17,13.09,23.86,13.09,41.1,0,12.38-3.37,23.42-10.11,33.14-6.74,9.73-16.41,17.4-29,23.03-12.59,5.63-27.95,8.45-46.07,8.45h-123.62ZM766.36,924.37h17.23c6.18,0,10.99-.88,14.42-2.65,3.42-1.77,5.91-4.81,7.46-9.11,1.54-4.31,2.32-10.44,2.32-18.39,0-8.62-.78-15.19-2.32-19.72-1.55-4.53-4.03-7.62-7.46-9.28-3.43-1.66-8.23-2.49-14.42-2.49h-17.23v61.64ZM766.36,1021.8h29.5c6.41,0,11.6-.88,15.58-2.65,3.98-1.77,6.85-5.02,8.62-9.78,1.77-4.75,2.65-11.43,2.65-20.05s-.89-14.91-2.65-19.55c-1.77-4.64-4.64-7.84-8.62-9.61-3.98-1.77-9.17-2.65-15.58-2.65h-29.5v64.3Z"/>
    <path d="M929.08,1059.92v-233.65h155.44v38.11h-82.52v157.43h87.16v38.11h-160.08ZM972.5,960.16v-36.46h97.44v36.46h-97.44Z"/>
  </g>
</svg>