<?xml version="1.0" encoding="UTF-8"?>
<svg id="Layer_1" xmlns="http://www.w3.org/2000/svg" viewBox="0 0 480 230">
  <defs>
    <style>
      .cls-1 {
        fill: #ffd400;
      }

      .cls-2 {
        fill: #c90000;
      }
    </style>
  </defs>
  <rect class="cls-1" width="480" height="230"/>
  <g>
    <path class="cls-2" d="M132.95,141.47l10.17-5.74v-63.1l-9.42-5.41.22-.65h21.75l.22.65-8.98,5.2v35.39h2.71l23.16-35.5-8.87-5.09.22-.65h23.38l.22.65-8.87,3.79-2.27.97-18.18,26.95,21.54,37.55,10.17,4.98-.43.87h-23.05l-.43-.87,9.09-5.52-18.83-33.98-9.52,14.07v19.91l9.85,5.52-.43.87h-22.94l-.43-.87Z"/>
    <path class="cls-2" d="M194.86,141.47l6.82-4.22v-45.89l-8.01-3.35v-.65l11.58-3.03h.22v6.28h.65c1.37-2.31,2.96-4.08,4.76-5.3,1.8-1.23,4.11-1.84,6.93-1.84,1.95,0,3.37.36,4.28,1.08.9.72,1.35,1.55,1.35,2.49s-.47,1.73-1.41,2.38c-.94.65-2.42.97-4.44.97-1.44,0-2.72-.07-3.84-.22-1.12-.14-2.4-.32-3.84-.54l-1.3-.22-3.14,5.95v41.23l9.2,4.87-.22.87h-19.37l-.22-.87Z"/>
    <path class="cls-2" d="M228.91,135.9c-3.5-5.01-5.25-11.71-5.25-20.08,0-1.59.05-3.17.16-4.76.11-1.59.29-3.14.54-4.65.25-1.51.56-2.99.92-4.44.36-1.44.81-2.81,1.35-4.11s1.14-2.54,1.79-3.73c.65-1.19,1.37-2.27,2.16-3.25.79-.97,1.68-1.86,2.65-2.65.97-.79,2-1.48,3.08-2.06,1.08-.58,2.27-1.01,3.57-1.3,1.3-.29,2.67-.43,4.11-.43,4.98,0,8.91,2.51,11.8,7.52,2.88,5.02,4.04,12.36,3.46,22.02h-31.39v.54c0,8.95,1.48,15.37,4.44,19.26,2.96,3.9,6.82,5.84,11.58,5.84,3.68,0,6.62-1.28,8.82-3.84,2.2-2.56,4.31-6.62,6.33-12.18l1.62.43c-1.66,6.42-3.95,11.26-6.87,14.5-2.92,3.25-6.66,4.87-11.2,4.87-5.63,0-10.19-2.51-13.69-7.52ZM238.98,87.58c-1.05.29-2,.69-2.87,1.19-.87.51-1.66,1.14-2.38,1.89-.72.76-1.37,1.59-1.95,2.49-.58.9-1.08,1.89-1.51,2.98-.43,1.08-.79,2.24-1.08,3.46-.29,1.23-.52,2.49-.7,3.79-.18,1.3-.32,2.64-.43,4-.11,1.37-.16,2.78-.16,4.22h27.49c.29-8.87-.72-15.17-3.03-18.89-2.31-3.72-5.63-5.57-9.96-5.57-1.23,0-2.37.15-3.41.43Z"/>
    <path class="cls-2" d="M265.33,85.84l5.52-3.03,5.63-15.58,1.19.22-.22,17.53h16.88v2.71h-17.1v41.45c0,2.67.6,4.75,1.79,6.22,1.19,1.48,3.01,2.22,5.47,2.22,2.02,0,3.73-.47,5.14-1.41,1.41-.94,2.47-2.2,3.19-3.79l.97.54c-.87,3.1-2.18,5.63-3.95,7.58-1.77,1.95-4.06,2.92-6.87,2.92s-5.19-1.01-6.93-3.03c-1.73-2.02-2.6-4.83-2.6-8.44v-44.37h-7.58l-.54-1.73Z"/>
    <path class="cls-2" d="M306.79,139.63c-2.45-2.52-3.68-5.66-3.68-9.42,0-4.47,1.32-8.19,3.95-11.15,2.63-2.96,6.91-5.45,12.82-7.47l12.23-4.11v-6.82c0-4.83-.9-8.3-2.71-10.39-1.8-2.09-5.3-3.14-10.5-3.14h-3.36l-2.27,8.87c-.51,2.02-1.1,3.41-1.79,4.17-.69.76-1.5,1.14-2.43,1.14-.79,0-1.5-.32-2.11-.97-.61-.65-.92-1.48-.92-2.49,0-.87.09-1.71.27-2.54.18-.83.45-1.62.81-2.38.36-.76.79-1.5,1.3-2.22.5-.72,1.08-1.41,1.73-2.06.65-.65,1.37-1.23,2.16-1.73.79-.5,1.66-.94,2.6-1.3.94-.36,1.93-.65,2.98-.87,1.05-.22,2.15-.32,3.3-.32,4.91,0,8.59,1.46,11.04,4.38,2.45,2.92,3.68,7.59,3.68,14.02v29.33c0,1.59.38,2.85,1.14,3.79.76.94,1.93,1.41,3.52,1.41,1.23,0,2.29-.36,3.19-1.08.9-.72,1.71-1.66,2.43-2.81l.87.43c-.51,2.89-1.43,5.16-2.76,6.82-1.34,1.66-3.12,2.49-5.36,2.49-2.02,0-3.66-.67-4.92-2-1.26-1.33-1.89-2.98-1.89-4.92-2.31,2.24-4.73,3.99-7.25,5.25-2.53,1.26-5.38,1.89-8.55,1.89-3.9,0-7.07-1.26-9.52-3.79ZM310.19,136.87c1.91,2.06,4.53,3.08,7.85,3.08,2.88,0,5.39-.49,7.52-1.46,2.13-.97,4.31-2.4,6.55-4.28v-24.68l-13.96,5.3c-3.75,1.37-6.49,3.26-8.23,5.68-1.73,2.42-2.6,5.32-2.6,8.71,0,3.03.96,5.57,2.87,7.63Z"/>
  </g>
</svg>