<?xml version="1.0" encoding="UTF-8"?>
<svg id="Layer_1" xmlns="http://www.w3.org/2000/svg" viewBox="0 0 480 230">
  <defs>
    <style>
      .cls-1 {
        fill: #fff;
      }
    </style>
  </defs>
  <rect class="cls-1" width="480" height="230"/>
  <g>
    <path d="M107.89,105.57c4.29,1.7,7.44,3.84,9.46,6.43s3.03,5.86,3.03,9.79c0,5.03-1.86,8.86-5.57,11.48-3.71,2.62-8.59,3.93-14.62,3.93h-27.14v-19.81h19.51l.37-1.27-8.3-3.89c-3.84-1.74-6.78-3.82-8.82-6.24-2.04-2.42-3.07-5.64-3.07-9.68,0-1.05.1-2.06.3-3.03.2-.97.49-1.91.86-2.8.37-.9.85-1.76,1.42-2.58.57-.82,1.23-1.58,1.98-2.28.75-.7,1.59-1.32,2.54-1.87.95-.55,1.98-1.02,3.1-1.42,1.12-.4,2.34-.7,3.66-.9,1.32-.2,2.73-.3,4.22-.3h26.24v19.81h-17.27l-.37,1.27,8.45,3.36Z"/>
    <path d="M131.29,101.31h-9.72v-20.19h45.91v20.19h-10.54v35.89h-25.64v-35.89Z"/>
    <path d="M194.14,120.45h-1.5v16.75h-22.43v-56.07h31.25c1.99,0,3.87.11,5.64.34,1.77.22,3.41.56,4.93,1.01,1.52.45,2.92.98,4.19,1.61,1.27.62,2.43,1.33,3.48,2.13,1.05.8,1.99,1.67,2.84,2.62.85.95,1.57,1.96,2.17,3.03.6,1.07,1.1,2.19,1.5,3.36.4,1.17.7,2.38.9,3.63.2,1.25.3,2.52.3,3.81,0,3.39-1,6.47-2.99,9.23-1.99,2.77-4.49,4.82-7.48,6.17l9.5,19.14h-25.2l-7.1-16.75ZM192.64,99.82v5.68h8.97c1.1,0,1.93-.22,2.5-.67.57-.45.86-1.17.86-2.17,0-.9-.29-1.6-.86-2.09-.57-.5-1.41-.75-2.5-.75h-8.97Z"/>
    <path d="M242.12,81.13h33.79l16.75,56.07h-25.94l-2.02-7.63h-16.45l-1.87,7.63h-20.93l16.67-56.07ZM251.99,114.62h8.82l-3.89-14.8h-1.27l-3.66,14.8Z"/>
    <path d="M317.56,127.41v9.79h-22.43v-56.07h23.93c8.87,0,15.74,2.23,20.6,6.69,4.86,4.46,7.29,10.65,7.29,18.58,0,1.75-.16,3.38-.49,4.9-.32,1.52-.81,2.94-1.46,4.26-.65,1.32-1.45,2.53-2.39,3.63-.95,1.1-2.01,2.08-3.18,2.95-1.17.87-2.48,1.65-3.93,2.32-1.45.67-2.99,1.22-4.64,1.64-1.64.42-3.39.75-5.23.97-1.84.22-3.79.34-5.83.34h-2.24ZM317.56,99.82v12.64h2.47c1.24,0,2.12-.35,2.62-1.05.5-.7.75-2.37.75-5.01s-.25-4.46-.75-5.31c-.5-.85-1.37-1.27-2.62-1.27h-2.47Z"/>
    <path d="M358.71,81.13h33.79l16.75,56.07h-25.94l-2.02-7.63h-16.45l-1.87,7.63h-20.93l16.67-56.07ZM368.58,114.62h8.82l-3.89-14.8h-1.27l-3.66,14.8Z"/>
  </g>
</svg>