<?xml version="1.0" encoding="UTF-8"?>
<svg id="Layer_1" xmlns="http://www.w3.org/2000/svg" viewBox="0 0 480 230">
  <defs>
    <style>
      .cls-1 {
        fill: #380035;
      }

      .cls-2 {
        fill: #ff781f;
      }
    </style>
  </defs>
  <rect class="cls-2" width="480" height="230"/>
  <g>
    <path class="cls-1" d="M93.87,88.48h-.77l-2.51,40.19c.06,3.47.69,5.8,1.88,6.99,1.19,1.19,3.33,2.23,6.41,3.13v1.93h-22.74v-1.93c.71-.19,1.36-.4,1.98-.63.61-.22,1.17-.47,1.69-.72.51-.26,1.01-.56,1.49-.92.48-.35.9-.74,1.25-1.16.35-.42.69-.93,1.01-1.54.32-.61.59-1.29.82-2.02.22-.74.42-1.6.58-2.6.16-1,.3-2.1.43-3.33l2.12-35.47v.1c0-.26.02-.48.05-.67.03-.19.05-.42.05-.67l.1-.77c.19-3.66-.27-6.17-1.4-7.52-1.12-1.35-3.04-2.15-5.73-2.41v-1.93h18.5l10.89,40.09h.77l11.47-40.09h17.83v1.93c-2.7.26-4.61,1.04-5.73,2.36-1.12,1.32-1.65,3.81-1.59,7.47l2.7,40.67c.58,3.47,1.59,5.78,3.04,6.94,1.45,1.16,3.39,2.12,5.83,2.89v1.93h-26.5v-1.93c.83-.26,1.61-.51,2.31-.77.71-.26,1.33-.51,1.88-.77.55-.26,1.04-.56,1.49-.92.45-.35.82-.74,1.11-1.16.29-.42.55-.9.77-1.45.22-.54.39-1.19.48-1.93.1-.74.16-1.56.19-2.46.03-.9.02-1.93-.05-3.08h.1l-1.93-37.78h-.39l-13.2,45.49h-2.89l-13.78-45.49Z"/>
    <path class="cls-1" d="M173.39,96.1c2.6,3.02,3.9,7.39,3.9,13.11v22.26c0,1.29.21,2.25.63,2.89.42.64,1.24.96,2.46.96s2.31-.46,3.28-1.4c.96-.93,2.02-2.49,3.18-4.67l.77.39c-.64,3.85-1.91,6.83-3.81,8.92-1.9,2.09-4.16,3.13-6.79,3.13-1.93,0-3.55-.45-4.87-1.35-1.32-.9-2.3-2.15-2.94-3.76-1.22,1.67-2.68,2.94-4.38,3.81-1.7.87-3.58,1.3-5.64,1.3-3.41,0-6.17-1.06-8.29-3.18s-3.18-4.75-3.18-7.9c0-4.82,1.8-8.8,5.4-11.95,3.6-3.15,8.71-4.98,15.32-5.49v-8.77c0-3.34-.5-5.69-1.49-7.04-1-1.35-2.88-2.02-5.64-2.02-1.09,0-2.33.1-3.71.29-1.38.19-2.68.51-3.9.96,1.93.9,3.32,2.18,4.19,3.85.87,1.67,1.3,3.31,1.3,4.92s-.47,2.97-1.4,3.9c-.93.93-2.1,1.4-3.52,1.4-1.73,0-3.12-.67-4.14-2.02-1.03-1.35-1.54-3.12-1.54-5.3,0-3.15,1.16-5.89,3.47-8.24,2.31-2.34,5.4-3.52,9.25-3.52,5.46,0,9.49,1.51,12.1,4.53ZM158.26,133.01c1.12,1.54,2.94,2.31,5.45,2.31.83,0,1.65-.06,2.46-.19.8-.13,1.62-.32,2.46-.58-.06-.45-.11-.92-.14-1.4-.03-.48-.05-.95-.05-1.4v-16.09c-4.43.64-7.52,1.99-9.25,4.05-1.73,2.06-2.6,4.63-2.6,7.71,0,2.19.56,4.05,1.69,5.59Z"/>
    <path class="cls-1" d="M195.01,135.23c-2.79-4.3-4.19-10.25-4.19-17.83,0-1.86.08-3.66.24-5.4.16-1.73.4-3.37.72-4.92.32-1.54.74-3,1.25-4.38.51-1.38,1.11-2.65,1.78-3.81.67-1.16,1.45-2.18,2.31-3.08.87-.9,1.83-1.67,2.89-2.31,1.06-.64,2.2-1.12,3.42-1.45,1.22-.32,2.54-.48,3.95-.48,4.05,0,7.07,1.16,9.06,3.47,1.99,2.31,2.99,5.01,2.99,8.1,0,2.89-.52,4.98-1.54,6.26-1.03,1.29-2.35,1.93-3.95,1.93-1.22,0-2.19-.46-2.89-1.4-.71-.93-1.06-2.1-1.06-3.52,0-1.99.39-3.77,1.16-5.35.77-1.57,1.83-2.88,3.18-3.9-1.03-.32-2.1-.58-3.23-.77-1.12-.19-2.36-.29-3.71-.29-2.83,0-4.82,1.35-5.98,4.05-1.16,2.7-1.73,7.68-1.73,14.94,0,1.93.05,3.7.14,5.3.1,1.61.22,3.04.39,4.29.16,1.25.37,2.36.63,3.33.26.96.56,1.82.92,2.55.35.74.74,1.35,1.16,1.83.42.48.9.87,1.45,1.16.54.29,1.12.5,1.73.63.61.13,1.27.19,1.98.19,2.76,0,5.03-.88,6.79-2.65,1.77-1.77,3.26-4.96,4.48-9.59l1.06.39c-.64,6.68-2.22,11.55-4.72,14.6-2.51,3.05-5.88,4.58-10.12,4.58s-7.76-2.15-10.55-6.46Z"/>
    <path class="cls-1" d="M228.62,76.44l-6.55-1.93v-.87l16.19-4.72v27.76c1.28-1.41,2.92-2.62,4.92-3.61,1.99-1,4.4-1.49,7.23-1.49,3.47,0,6.23,1.09,8.29,3.28,2.06,2.18,3.08,5.33,3.08,9.44v25.64c0,3.28.34,5.41,1.01,6.41.68,1,1.78,1.82,3.33,2.46v1.93h-18.02v-1.93c1.67-.58,2.76-1.41,3.28-2.51.51-1.09.77-3.21.77-6.36v-25.06c0-2.44-.43-4.19-1.3-5.25-.87-1.06-2.62-1.59-5.25-1.59-1.35,0-2.6.13-3.76.39-1.16.26-2.35.67-3.57,1.25v30.26c0,3.28.34,5.41,1.01,6.41.67,1,1.78,1.82,3.32,2.46v1.93h-18.02v-1.93c1.67-.58,2.76-1.41,3.28-2.51.51-1.09.77-3.21.77-6.36v-53.49Z"/>
    <path class="cls-1" d="M297.62,137.97c-2.7,2.47-5.98,3.71-9.83,3.71-4.56,0-8.43-2.15-11.61-6.46-3.18-4.3-4.77-10.22-4.77-17.73,0-8.29,1.54-14.68,4.63-19.18,3.08-4.5,7.29-6.75,12.62-6.75,1.6,0,3.05.21,4.34.63,1.28.42,2.42,1.03,3.42,1.83,1,.8,1.86,1.77,2.6,2.89.74,1.12,1.35,2.41,1.83,3.86.48,1.45.83,3.04,1.06,4.77.22,1.73.32,3.6.29,5.59-.03,1.99-.18,4.08-.43,6.26h-21.39c.26,6.62,1.25,11.1,2.99,13.44,1.73,2.35,4.01,3.52,6.84,3.52,3.08,0,5.45-.67,7.08-2.02,1.64-1.35,3.36-3.44,5.16-6.26l1.06.29c-1.22,5.27-3.18,9.14-5.88,11.61ZM280.27,114.5l14.36-1.25c0-6.3-.48-10.89-1.45-13.78-.96-2.89-2.92-4.34-5.88-4.34s-4.79,1.33-5.69,4c-.9,2.67-1.35,7.7-1.35,15.08v.29Z"/>
    <path class="cls-1" d="M316.32,86.51c1.83-2.6,3.04-6.7,3.61-12.29h2.02v18.31h11.95v2.7h-11.95v28.14c0,4.05.35,6.89,1.06,8.53s2.18,2.46,4.43,2.46c.39,0,.74-.05,1.06-.14.32-.1.64-.24.96-.43.32-.19.61-.46.87-.82.26-.35.5-.8.72-1.35.22-.54.43-1.19.63-1.93.19-.74.39-1.62.58-2.65.19-1.03.38-2.18.58-3.47.19-1.29.38-2.73.58-4.34l1.93.38c.06,8.23-.85,13.96-2.75,17.2-1.9,3.25-4.58,4.87-8.05,4.87-3.98,0-6.91-1.54-8.77-4.63-1.86-3.08-2.76-7-2.7-11.76l.19-30.07h-5.2v-2.7c3.66-1.41,6.41-3.42,8.24-6.02Z"/>
    <path class="cls-1" d="M346.93,86.51c1.83-2.6,3.04-6.7,3.61-12.29h2.02v18.31h11.95v2.7h-11.95v28.14c0,4.05.35,6.89,1.06,8.53s2.18,2.46,4.43,2.46c.39,0,.74-.05,1.06-.14.32-.1.64-.24.96-.43.32-.19.61-.46.87-.82.26-.35.5-.8.72-1.35.22-.54.43-1.19.63-1.93.19-.74.39-1.62.58-2.65.19-1.03.38-2.18.58-3.47.19-1.29.38-2.73.58-4.34l1.93.38c.06,8.23-.85,13.96-2.75,17.2-1.9,3.25-4.58,4.87-8.05,4.87-3.98,0-6.91-1.54-8.77-4.63-1.86-3.08-2.76-7-2.7-11.76l.19-30.07h-5.2v-2.7c3.66-1.41,6.41-3.42,8.24-6.02Z"/>
    <path class="cls-1" d="M397.99,137.97c-2.7,2.47-5.98,3.71-9.83,3.71-4.56,0-8.43-2.15-11.61-6.46-3.18-4.3-4.77-10.22-4.77-17.73,0-8.29,1.54-14.68,4.63-19.18,3.08-4.5,7.29-6.75,12.62-6.75,1.6,0,3.05.21,4.34.63,1.28.42,2.42,1.03,3.42,1.83,1,.8,1.86,1.77,2.6,2.89.74,1.12,1.35,2.41,1.83,3.86.48,1.45.83,3.04,1.06,4.77.22,1.73.32,3.6.29,5.59-.03,1.99-.18,4.08-.43,6.26h-21.39c.26,6.62,1.25,11.1,2.99,13.44,1.73,2.35,4.01,3.52,6.84,3.52,3.08,0,5.45-.67,7.08-2.02,1.64-1.35,3.36-3.44,5.16-6.26l1.06.29c-1.22,5.27-3.18,9.14-5.88,11.61ZM380.64,114.5l14.36-1.25c0-6.3-.48-10.89-1.45-13.78-.96-2.89-2.92-4.34-5.88-4.34s-4.79,1.33-5.69,4c-.9,2.67-1.35,7.7-1.35,15.08v.29Z"/>
  </g>
</svg>