<?xml version="1.0" encoding="UTF-8"?>
<svg id="Layer_1" xmlns="http://www.w3.org/2000/svg" viewBox="0 0 480 180">
  <defs>
    <style>
      .cls-1 {
        fill: #110e40;
      }

      .cls-2 {
        fill: #38d1ff;
      }
    </style>
  </defs>
  <rect class="cls-1" x="0" y="-.63" width="480" height="181.25"/>
  <g>
    <path class="cls-2" d="M149.96,61.59c1.66,0,3.22.1,4.69.3,1.46.2,2.83.48,4.11.84,1.28.36,2.45.8,3.51,1.31,1.06.52,2.01,1.1,2.87,1.75.85.65,1.59,1.36,2.23,2.12.63.77,1.16,1.56,1.58,2.39.43.83.75,1.71.98,2.63.22.92.34,1.88.34,2.87,0,1.84-.34,3.51-1.01,4.99-.67,1.48-1.57,2.7-2.7,3.64,3.06.94,5.39,2.61,7.01,4.99,1.62,2.38,2.43,5.33,2.43,8.83,0,4.18-1.72,7.54-5.16,10.08-3.44,2.54-8.31,3.81-14.6,3.81h-37.09v-50.57h30.82ZM140.38,83.58h6.54c.99,0,1.74-.2,2.26-.61.52-.4.78-1.03.78-1.89,0-.9-.26-1.56-.78-1.99-.52-.43-1.27-.64-2.26-.64h-6.54v5.12ZM140.38,95.31h10.25c1.03,0,1.83-.2,2.39-.61.56-.4.84-1.06.84-1.96s-.28-1.55-.84-1.96c-.56-.4-1.36-.61-2.39-.61h-10.25v5.12Z"/>
    <path class="cls-2" d="M200.73,61.59v26.1c0,1.66.33,3,.98,4.01.65,1.01,1.85,1.52,3.61,1.52s2.94-.51,3.57-1.52c.63-1.01.94-2.35.94-4.01v-26.1h17.8v27.98c0,1.75-.12,3.43-.37,5.02-.25,1.6-.63,3.1-1.15,4.52-.52,1.42-1.16,2.73-1.92,3.94-.76,1.21-1.65,2.34-2.66,3.37-1.01,1.03-2.17,1.94-3.47,2.73-1.3.79-2.73,1.45-4.28,1.99-1.55.54-3.23.96-5.02,1.25-1.8.29-3.75.44-5.87.44-1.62,0-3.18-.11-4.69-.34-1.51-.23-2.95-.55-4.32-.98-1.37-.43-2.67-.97-3.91-1.62-1.24-.65-2.38-1.38-3.44-2.19-1.06-.81-2.03-1.71-2.93-2.7-.9-.99-1.7-2.06-2.39-3.2-.7-1.15-1.28-2.37-1.75-3.68-.47-1.3-.83-2.67-1.08-4.11-.25-1.44-.37-2.92-.37-4.45v-27.98h22.72Z"/>
    <path class="cls-2" d="M261.35,83.64c3.87,1.53,6.71,3.46,8.53,5.8,1.82,2.34,2.73,5.28,2.73,8.83,0,4.54-1.68,7.99-5.02,10.35-3.35,2.36-7.74,3.54-13.18,3.54h-24.48v-17.87h17.6l.34-1.15-7.49-3.51c-3.46-1.57-6.11-3.45-7.96-5.63-1.84-2.18-2.76-5.09-2.76-8.73,0-.94.09-1.85.27-2.73s.44-1.72.78-2.53c.34-.81.76-1.58,1.28-2.33s1.11-1.43,1.79-2.06c.67-.63,1.44-1.19,2.29-1.69.85-.49,1.79-.92,2.8-1.28,1.01-.36,2.11-.63,3.3-.81,1.19-.18,2.46-.27,3.81-.27h23.67v17.87h-15.58l-.34,1.15,7.62,3.03Z"/>
    <path class="cls-2" d="M282.05,79.8h-8.77v-18.21h41.4v18.21h-9.51v32.37h-23.13v-32.37Z"/>
    <path class="cls-2" d="M334.55,112.54c-1.37-.2-2.68-.49-3.91-.88-1.24-.38-2.42-.84-3.54-1.38-1.12-.54-2.2-1.16-3.24-1.85-1.03-.7-1.99-1.46-2.87-2.29-.88-.83-1.7-1.71-2.46-2.63-.77-.92-1.45-1.9-2.06-2.93-.61-1.03-1.15-2.1-1.62-3.2-.47-1.1-.88-2.24-1.21-3.41-.34-1.17-.58-2.35-.74-3.54-.16-1.19-.24-2.39-.24-3.61s.08-2.35.24-3.54c.16-1.19.4-2.35.74-3.47.34-1.12.74-2.24,1.21-3.34.47-1.1,1.02-2.16,1.65-3.17.63-1.01,1.33-1.99,2.09-2.93.76-.94,1.59-1.83,2.49-2.66.9-.83,1.85-1.6,2.87-2.29,1.01-.7,2.08-1.33,3.2-1.89,1.12-.56,2.3-1.03,3.54-1.42,1.24-.38,2.53-.67,3.88-.88,1.35-.2,2.74-.3,4.18-.3s2.83.1,4.18.3c1.35.2,2.65.5,3.91.88,1.26.38,2.45.85,3.57,1.42,1.12.56,2.19,1.19,3.2,1.89,1.01.7,1.97,1.46,2.87,2.29.9.83,1.72,1.72,2.46,2.66.74.94,1.43,1.92,2.06,2.93.63,1.01,1.18,2.07,1.65,3.17.47,1.1.88,2.21,1.21,3.34.34,1.12.58,2.28.74,3.47.16,1.19.24,2.37.24,3.54s-.08,2.42-.24,3.61c-.16,1.19-.4,2.37-.74,3.54-.34,1.17-.74,2.3-1.21,3.41-.47,1.1-1.01,2.17-1.62,3.2-.61,1.03-1.29,2.01-2.06,2.93-.76.92-1.58,1.8-2.46,2.63-.88.83-1.82,1.6-2.83,2.29-1.01.7-2.09,1.31-3.24,1.85-1.15.54-2.34,1-3.57,1.38-1.24.38-2.54.67-3.91.88-1.37.2-2.78.3-4.21.3s-2.84-.1-4.21-.3ZM343.11,91.06c1.01-1.03,1.52-2.45,1.52-4.25,0-1.66-.52-3.02-1.55-4.08-1.04-1.06-2.47-1.58-4.32-1.58s-3.34.53-4.35,1.58c-1.01,1.06-1.52,2.42-1.52,4.08,0,1.8.52,3.21,1.55,4.25,1.03,1.03,2.47,1.55,4.32,1.55s3.34-.52,4.35-1.55Z"/>
  </g>
</svg>