<?xml version="1.0" encoding="UTF-8"?>
<svg id="Layer_1" data-name="Layer 1" xmlns="http://www.w3.org/2000/svg" viewBox="0 0 480 180">
  <defs>
    <style>
      .cls-1 {
        fill: #000f45;
      }

      .cls-2 {
        fill: #cdff38;
      }
    </style>
  </defs>
  <rect class="cls-1" x="0" y="-.63" width="480" height="181.25"/>
  <g>
    <path class="cls-2" d="M148.47,61.6c13.35,0,19.35,4.92,19.35,13.69,0,4.05-1.48,7.21-3.71,9.17,6.07,1.75,9.24,6.54,9.24,13.55,0,8.43-6.95,14.16-19.55,14.16h-35.74v-50.57h30.41ZM141.66,84.52h1.48c1.96,0,3.03-1.08,3.03-3.37s-1.08-3.37-3.03-3.37h-1.48v6.74ZM141.66,95.98h2.83c2.09,0,3.24-.94,3.24-3.37s-1.15-3.37-3.24-3.37h-2.83v6.74Z"/>
    <path class="cls-2" d="M198.3,61.6v27.44c0,1.96.61,2.83,2.02,2.83s2.02-.88,2.02-2.83v-27.44h18.21v27.98c0,13.96-8.29,23.26-23.13,23.26s-23.06-9.31-23.06-23.26v-27.98h23.94Z"/>
    <path class="cls-2" d="M254.74,82.77c7.01,2.23,10.59,6.95,10.59,14.77,0,9.57-7.35,15.17-21.78,15.17-7.42,0-14.09-.54-20.97-1.82v-20.3c5.06.88,10.11,1.35,15.31,1.35v-1.01l-4.79-1.62c-7.01-2.36-10.59-7.08-10.59-13.35,0-8.83,6.07-15.04,21.51-15.04,6.68,0,11.53.27,18.61.94v18.95c-4.38-.47-8.43-.67-12.95-.67v1.01l5.06,1.62Z"/>
    <path class="cls-2" d="M275.78,81.82h-10.79v-20.23h45.18v20.23h-10.79v30.34h-23.6v-30.34Z"/>
    <path class="cls-2" d="M311.18,86.95c0-13.76,8.7-25.76,27.71-25.76s27.71,12,27.71,25.76c0,14.43-8.7,25.96-27.71,25.96s-27.71-11.53-27.71-25.96ZM343.01,86.95c0-3.03-1.35-4.85-4.11-4.85s-4.11,1.82-4.11,4.85c0,3.3,1.35,4.72,4.11,4.72s4.11-1.42,4.11-4.72Z"/>
  </g>
</svg>