<?xml version="1.0" encoding="UTF-8"?>
<svg id="Layer_1" xmlns="http://www.w3.org/2000/svg" viewBox="0 0 480 180">
  <defs>
    <style>
      .cls-1 {
        fill: #7f3;
      }

      .cls-2 {
        fill: #0b380c;
      }
    </style>
  </defs>
  <rect class="cls-2" width="480" height="180"/>
  <g>
    <path class="cls-1" d="M131.84,112.77c-2.25-2.31-3.37-6.06-3.37-11.26v-29.54c0-7.66,1.66-13.44,4.99-17.34s8.95-5.84,16.86-5.84c2.72,0,5.15.16,7.27.48,2.12.32,4.13.73,6.03,1.23v11.59h-20.9v40.85h10.92v-21.19h-6.65v-6.65h20.9v40.19h-14.25v-7.6h-1.24c-1.01,2.72-2.46,4.83-4.32,6.32-1.87,1.49-4.32,2.23-7.36,2.23-3.67,0-6.63-1.16-8.88-3.47Z"/>
    <path class="cls-1" d="M175.5,63.52h11.5l2,5.7h.95c1.39-2.09,3.17-3.72,5.32-4.89,2.15-1.17,4.81-1.76,7.98-1.76,4.18,0,7.09,1.13,8.74,3.37,1.65,2.25,2.47,5.15,2.47,8.69v40.66h-14.25v-41.33h-10.45v41.33h-14.25v-51.77Z"/>
    <path class="cls-1" d="M238.43,114.29c-1.8,1.3-4.04,1.95-6.7,1.95-3.67,0-6.45-1.09-8.31-3.28-1.87-2.19-2.8-5.52-2.8-10.02v-7.88c0-4.56,1.24-8.01,3.71-10.35,2.47-2.34,6.46-3.52,11.97-3.52h7.12v-6.75h-18.62v-9.5c2.03-.63,4.04-1.11,6.03-1.42,1.99-.32,4.26-.48,6.79-.48,5.95,0,10.62,1.46,14.01,4.37,3.39,2.91,5.08,7.25,5.08,13.01v34.87h-11.4l-1.33-6.17h-1.8c-.7,2.15-1.95,3.88-3.75,5.18ZM243.42,104.37v-17.48h-9.5v17.48h9.5Z"/>
    <path class="cls-1" d="M264.32,63.52h10.83l2.47,7.12h1.52c1.2-2.91,2.64-4.99,4.32-6.22,1.68-1.23,4.32-1.85,7.93-1.85v12.83h-12.83v39.9h-14.25v-51.77Z"/>
    <path class="cls-1" d="M295.67,47.84h14.44v67.45h-14.44V47.84Z"/>
    <path class="cls-1" d="M329.11,118.05l-16.82-54.91,15.01.38,9.41,33.34h2.85v-33.34h14.34l-17.58,70.77-15.1-6.46,7.88-9.79Z"/>
  </g>
</svg>