<?xml version="1.0" encoding="UTF-8"?>
<svg id="Layer_1" xmlns="http://www.w3.org/2000/svg" viewBox="0 0 480 180">
  <defs>
    <style>
      .cls-1 {
        fill: #1d3324;
      }

      .cls-2 {
        fill: #bfffd4;
      }
    </style>
  </defs>
  <rect class="cls-2" x="0" width="480" height="180"/>
  <g>
    <path class="cls-1" d="M153.17,111.6l7.99-4.5v-49.56l-7.39-4.25.17-.51h17.08l.17.51-7.05,4.08v27.79h2.12l18.19-27.88-6.97-4,.17-.51h18.36l.17.51-6.97,2.98-1.79.77-14.28,21.17,16.92,29.5,7.99,3.91-.34.68h-18.11l-.34-.68,7.14-4.33-14.79-26.69-7.48,11.05v15.64l7.73,4.33-.34.68h-18.02l-.34-.68Z"/>
    <path class="cls-1" d="M201.96,111.6l5.36-3.31v-36.04l-6.29-2.63v-.51l9.09-2.38h.17c0-.06.01.51.04,1.7.03,1.19.04,2.75.04,4.67.85-2.44,2.2-4.22,4.04-5.35,1.84-1.13,3.7-1.7,5.57-1.7,1.47,0,2.66.27,3.57.81.91.54,1.36,1.2,1.36,2,0,.91-.48,1.6-1.45,2.08-.96.48-2.12.72-3.48.72-1.25,0-2.42-.13-3.53-.38-1.11-.25-2.2-.61-3.27-1.06l-2.89,7.99v14.07c0,1.22-.01,2.41-.04,3.57-.03,1.16-.04,2.29-.04,3.4v8.54l7.73,3.82-.17.68h-15.64l-.17-.68Z"/>
    <path class="cls-1" d="M230.99,107.22c-2.75-3.94-4.12-9.19-4.12-15.77,0-1.25.04-2.49.13-3.74.09-1.25.23-2.46.43-3.66.2-1.19.44-2.35.72-3.48.28-1.13.64-2.21,1.06-3.23.42-1.02.89-2,1.4-2.93s1.08-1.78,1.7-2.55,1.32-1.46,2.08-2.08c.77-.62,1.57-1.16,2.42-1.62.85-.45,1.79-.79,2.8-1.02,1.02-.23,2.1-.34,3.23-.34,3.91,0,7,1.97,9.26,5.91,2.27,3.94,3.17,9.7,2.72,17.3h-24.65v.42c0,7.03,1.16,12.07,3.49,15.13,2.32,3.06,5.35,4.59,9.09,4.59,2.89,0,5.2-1.01,6.93-3.02,1.73-2.01,3.38-5.2,4.97-9.56l1.28.34c-1.3,5.04-3.1,8.84-5.4,11.39-2.29,2.55-5.23,3.83-8.8,3.83-4.42,0-8-1.97-10.75-5.91ZM238.89,69.27c-.82.23-1.57.54-2.25.93-.68.4-1.3.89-1.87,1.49-.57.59-1.08,1.25-1.53,1.96-.46.71-.85,1.49-1.19,2.34s-.62,1.76-.85,2.72c-.23.96-.41,1.96-.55,2.98-.14,1.02-.26,2.07-.34,3.15-.08,1.08-.13,2.18-.13,3.31h21.59c.23-6.97-.57-11.91-2.38-14.83-1.81-2.92-4.42-4.38-7.82-4.38-.96,0-1.86.11-2.68.34Z"/>
    <path class="cls-1" d="M260.02,67.91l4.33-2.38,4.42-12.24.94.17-.17,13.77h13.26v2.12h-13.43v32.55c0,2.1.47,3.73,1.4,4.89.94,1.16,2.37,1.74,4.29,1.74,1.59,0,2.93-.37,4.04-1.1,1.11-.74,1.94-1.73,2.51-2.97l.76.42c-.68,2.44-1.71,4.42-3.1,5.95-1.39,1.53-3.19,2.29-5.4,2.29s-4.08-.79-5.44-2.38c-1.36-1.59-2.04-3.8-2.04-6.63v-34.85h-5.95l-.42-1.36Z"/>
    <path class="cls-1" d="M291.97,110.16c-1.93-1.98-2.89-4.45-2.89-7.4,0-3.51,1.03-6.43,3.1-8.75,2.07-2.32,5.43-4.28,10.07-5.87l9.61-3.23v-5.35c0-3.8-.71-6.52-2.12-8.16-1.42-1.64-4.17-2.47-8.25-2.47h-2.63l-1.79,6.97c-.4,1.59-.86,2.68-1.4,3.27-.54.59-1.18.89-1.91.89-.62,0-1.18-.26-1.66-.77-.48-.51-.72-1.16-.72-1.96,0-.68.07-1.35.21-2,.14-.65.35-1.27.64-1.87.28-.59.62-1.18,1.02-1.74.4-.57.85-1.1,1.36-1.62.51-.51,1.08-.96,1.7-1.36.62-.4,1.3-.74,2.04-1.02.74-.28,1.52-.51,2.34-.68.82-.17,1.69-.25,2.59-.25,3.85,0,6.74,1.15,8.67,3.44,1.93,2.3,2.89,5.96,2.89,11.01v23.03c0,1.25.3,2.24.89,2.98.6.74,1.52,1.1,2.76,1.1.96,0,1.8-.28,2.51-.85.71-.57,1.35-1.3,1.91-2.21l.68.34c-.4,2.27-1.12,4.05-2.17,5.35-1.05,1.3-2.45,1.96-4.21,1.96-1.59,0-2.88-.52-3.87-1.57-.99-1.05-1.49-2.34-1.49-3.87-1.81,1.76-3.71,3.13-5.7,4.12-1.98.99-4.22,1.49-6.71,1.49-3.06,0-5.55-.99-7.48-2.98ZM294.65,107.99c1.5,1.61,3.55,2.42,6.16,2.42,2.27,0,4.24-.38,5.91-1.15,1.67-.77,3.38-1.88,5.14-3.36v-19.38l-10.96,4.17c-2.95,1.08-5.1,2.56-6.46,4.46-1.36,1.9-2.04,4.18-2.04,6.84,0,2.38.75,4.38,2.25,5.99Z"/>
  </g>
</svg>