<?xml version="1.0" encoding="UTF-8"?>
<svg id="Layer_1" xmlns="http://www.w3.org/2000/svg" viewBox="0 0 480 180">
  <defs>
    <style>
      .cls-1 {
        fill: #1d3324;
      }

      .cls-2 {
        fill: #bfffd4;
      }
    </style>
  </defs>
  <rect class="cls-1" x="0" width="480" height="180"/>
  <g>
    <path class="cls-2" d="M147.26,111.6l5.35-6.46v-45.73l-5.27-5.95.34-.68h18.7l.34.68-5.61,5.52v22.86h1.02l13.94-22.19-3.99-6.2.34-.68h18.53l.34.68-9.27,6.63-9.94,14.62,15.72,30.77,6.38,6.12-.34.68h-18.19l-.34-.68,3.06-4.42-11.81-24.31-5.44,7.99v14.62l5.87,6.12-.34.68h-19.04l-.34-.68Z"/>
    <path class="cls-2" d="M198.52,111.6l3.4-5.44v-31.28l-4.42-3.66v-.42l9.77-3.91.43.51,1.11,5.27h.42c.91-1.7,2.31-3.23,4.21-4.59,1.9-1.36,3.81-2.04,5.74-2.04,1.53,0,2.72.35,3.57,1.06.85.71,1.28,1.6,1.28,2.68,0,1.42-.64,2.51-1.91,3.27-1.28.77-2.73,1.15-4.38,1.15-.91,0-1.76-.06-2.55-.17-.79-.11-1.62-.25-2.46-.42l-2.46-.51-.17.17v32.47l5.1,5.86-.34.68h-15.98l-.34-.68Z"/>
    <path class="cls-2" d="M230.09,107.05c-3.09-4.05-4.63-9.59-4.63-16.62,0-2.04.13-3.98.38-5.82.26-1.84.62-3.57,1.11-5.19.48-1.61,1.08-3.1,1.79-4.46s1.54-2.58,2.51-3.66c.96-1.08,2.04-1.97,3.23-2.68,1.19-.71,2.49-1.26,3.91-1.66,1.41-.4,2.95-.59,4.59-.59,4.25,0,7.62,1.69,10.12,5.06,2.49,3.37,3.74,9.25,3.74,17.64h-22.86v1.79c0,5.61.99,9.65,2.97,12.11,1.98,2.47,4.64,3.7,7.99,3.7,2.44,0,4.53-.91,6.29-2.72,1.76-1.81,3.12-4.36,4.08-7.65l1.62.51c-.91,5.72-2.76,9.88-5.57,12.45-2.8,2.58-5.91,3.87-9.31,3.87-4.88,0-8.86-2.03-11.94-6.08ZM236.17,74.03c-1.42,2.72-2.15,6.66-2.21,11.81h14.19c0-5.67-.48-9.73-1.44-12.2-.96-2.47-2.58-3.7-4.85-3.7-2.38,0-4.28,1.36-5.7,4.08Z"/>
    <path class="cls-2" d="M260.65,69.95l6.88-5.44,6.21-12.07,1.28.17-.17,14.62h8.59v4.25h-8.76v29.24c0,2.38.48,4.02,1.45,4.93.96.91,2.29,1.36,3.99,1.36,1.3,0,2.44-.3,3.4-.89.96-.59,1.98-1.49,3.06-2.68l.85.59c-.79,2.95-2.08,5.2-3.87,6.76-1.79,1.56-4.07,2.34-6.84,2.34s-5.24-.96-7.23-2.89c-1.98-1.93-2.97-4.67-2.97-8.25v-30.6h-5.53l-.34-1.45Z"/>
    <path class="cls-2" d="M294.65,109.94c-2.32-2.12-3.48-4.86-3.48-8.2,0-3.57,1.09-6.6,3.27-9.09,2.18-2.49,5.54-4.48,10.07-5.95l8.67-2.81v-5.27c0-2.83-.47-5-1.4-6.5-.93-1.5-2.88-2.25-5.82-2.25h-2.97l-.94,5.19c-.4,2.04-.99,3.47-1.79,4.29-.79.82-1.73,1.23-2.8,1.23-.96,0-1.77-.35-2.42-1.06-.65-.71-.98-1.6-.98-2.68,0-3,1.22-5.5,3.65-7.48,2.44-1.98,5.72-2.98,9.86-2.98,4.93,0,8.46,1.36,10.58,4.08,2.12,2.72,3.19,6.23,3.19,10.54v22.95c0,1.02.4,1.81,1.19,2.38.79.57,1.64.85,2.55.85.74,0,1.37-.08,1.91-.25.54-.17,1.09-.42,1.66-.77l.68.85c-.96,2.21-2.12,3.75-3.48,4.63s-3,1.32-4.93,1.32c-1.59,0-3-.38-4.25-1.15-1.25-.77-2.15-1.8-2.72-3.1-1.59,1.59-3.29,2.72-5.1,3.4-1.81.68-3.85,1.02-6.12,1.02-3.06,0-5.75-1.06-8.08-3.19ZM301.54,105.57c1.3,1.25,3,1.87,5.1,1.87,1.25,0,2.39-.1,3.44-.3,1.05-.2,2.11-.52,3.19-.98-.06-.17-.08-.35-.08-.55v-18.83l-6.72,3.23c-2.49,1.25-4.26,2.73-5.31,4.46-1.05,1.73-1.57,3.7-1.57,5.91s.65,3.94,1.96,5.19Z"/>
  </g>
</svg>