<?xml version="1.0" encoding="UTF-8"?>
<svg id="Layer_1" xmlns="http://www.w3.org/2000/svg" viewBox="0 0 480 180">
  <defs>
    <style>
      .cls-1 {
        fill: #ff7d19;
      }

      .cls-2 {
        fill: #330036;
      }
    </style>
  </defs>
  <rect class="cls-2" x="0" width="480" height="180"/>
  <g>
    <path class="cls-1" d="M103.32,110.06c2.48-.54,4.23-1.4,5.22-2.59,1-1.19,1.61-3.56,1.82-7.13l1.86-35.64c.11-2.54-.35-4.28-1.38-5.22-1.03-.94-2.57-1.52-4.62-1.74v-1.62h16.04l9.32,34.91h.65l9.64-34.91h15.39v1.62c-2.16.22-3.77.82-4.82,1.82-1.05,1-1.5,2.88-1.34,5.63l2.27,35.15c.21,3.4.88,5.74,1.98,7.01,1.11,1.27,2.85,2.17,5.22,2.71v1.62h-22.84v-1.62c2.86-.54,4.91-1.36,6.16-2.47,1.24-1.11,1.78-2.98,1.62-5.63l-2.02-35.8h-.73l-11.58,41.47h-3.16l-11.18-41.47h-.65l-2.03,36.04c-.16,2.65.32,4.44,1.46,5.39,1.13.95,2.94,1.77,5.43,2.47v1.62h-17.74v-1.62Z"/>
    <path class="cls-1" d="M187.31,74.17c2.11,2.54,3.16,6.21,3.16,11.02v18.95c0,1.03.21,1.78.65,2.27.43.49,1.13.73,2.11.73s1.79-.38,2.47-1.13c.67-.76,1.23-2.08,1.66-3.97l1.13.16c-.11,3.24-.96,5.77-2.55,7.57-1.59,1.81-3.5,2.71-5.71,2.71-1.62,0-2.97-.36-4.05-1.09-1.08-.73-1.89-1.77-2.43-3.12-1.03,1.35-2.27,2.39-3.73,3.12s-3.05,1.09-4.78,1.09c-3.35,0-5.93-.9-7.74-2.71-1.81-1.81-2.71-4.25-2.71-7.33,0-1.03.12-2,.36-2.92.24-.92.58-1.79,1.01-2.63.43-.84.97-1.62,1.62-2.35.65-.73,1.39-1.39,2.23-1.98.84-.59,1.74-1.15,2.71-1.66.97-.51,2-.94,3.08-1.3,1.08-.35,2.23-.65,3.44-.89,1.21-.24,2.47-.42,3.77-.53v-7.05c0-2.81-.42-4.68-1.26-5.63-.84-.94-2.42-1.42-4.74-1.42-.81,0-1.71.07-2.71.2-1,.14-1.96.31-2.88.53,1.13.7,2.09,1.66,2.88,2.88.78,1.21,1.17,2.61,1.17,4.17,0,1.35-.42,2.44-1.25,3.28-.84.84-1.9,1.26-3.2,1.26s-2.48-.49-3.4-1.46c-.92-.97-1.38-2.29-1.38-3.97,0-3.24,1.04-5.82,3.12-7.74,2.08-1.92,4.93-2.88,8.55-2.88,4.16,0,7.29,1.27,9.4,3.81ZM173.7,105.4c1.08,1.16,2.78,1.74,5.1,1.74.81,0,1.58-.04,2.31-.12.73-.08,1.44-.23,2.15-.45-.05-.38-.11-.77-.16-1.17-.05-.41-.08-.82-.08-1.26v-13.45c-3.73.59-6.48,1.67-8.26,3.24-1.78,1.57-2.67,3.7-2.67,6.4,0,2.21.54,3.9,1.62,5.06Z"/>
    <path class="cls-1" d="M204.81,107.06c-2.38-3.62-3.56-8.61-3.56-14.98,0-1.57.07-3.08.2-4.54.13-1.46.34-2.83.61-4.13.27-1.3.62-2.52,1.05-3.69.43-1.16.94-2.23,1.54-3.2.59-.97,1.28-1.84,2.07-2.59.78-.76,1.65-1.4,2.59-1.94.94-.54,2-.94,3.16-1.21,1.16-.27,2.42-.41,3.77-.41,2.75,0,5.05.86,6.88,2.59,1.84,1.73,2.75,3.94,2.75,6.64,0,2-.46,3.66-1.38,4.98-.92,1.32-2.11,1.98-3.56,1.98-1.19,0-2.23-.45-3.12-1.34-.89-.89-1.34-2.01-1.34-3.36,0-1.51.43-2.86,1.3-4.05.86-1.19,2.03-2.16,3.48-2.92-.97-.27-1.9-.47-2.79-.61-.89-.13-1.9-.2-3.04-.2-.7,0-1.32.05-1.86.16-.54.11-1.03.28-1.46.53-.43.24-.82.58-1.17,1.01-.35.43-.65.95-.89,1.54-.24.6-.46,1.3-.65,2.11-.19.81-.32,1.74-.4,2.79-.08,1.05-.15,2.23-.2,3.52s-.08,2.75-.08,4.37.04,3,.12,4.29.2,2.46.36,3.48c.16,1.03.36,1.94.61,2.75s.51,1.51.81,2.11c.3.6.65,1.09,1.05,1.5.41.41.85.73,1.34.97.49.24,1.01.42,1.58.53.57.11,1.17.16,1.82.16,1.94,0,3.6-.61,4.98-1.82,1.38-1.21,2.66-3.85,3.85-7.9l1.3.24c-.59,5.62-1.98,9.69-4.17,12.23-2.19,2.54-5.06,3.81-8.63,3.81s-6.53-1.81-8.91-5.43Z"/>
    <path class="cls-1" d="M229.35,110.22c1.73-.59,2.86-1.51,3.4-2.75.54-1.24.81-3.48.81-6.72v-37.5c0-1.83-.31-3.1-.93-3.81-.62-.7-2.01-1.3-4.17-1.78v-1.05l12.39-4.54v23.65c1.19-1.57,2.78-2.85,4.78-3.85,2-1,4.16-1.5,6.48-1.5,2.92,0,5.05.74,6.4,2.23,1.35,1.49,2.02,3.52,2.02,6.12v23.9c0,2.75.28,4.6.85,5.55.57.95,1.5,1.69,2.79,2.23v1.3h-14.74v-1.3c1.62-.54,2.66-1.31,3.12-2.31.46-1,.69-2.82.69-5.47v-21.63c0-1.83-.37-3.08-1.09-3.73-.73-.65-2.15-.97-4.25-.97-1.51,0-2.81.07-3.89.2-1.08.14-2.13.34-3.16.61v26.08c0,2.75.28,4.52.85,5.31.57.78,1.5,1.36,2.79,1.74v1.46h-15.15v-1.46Z"/>
    <path class="cls-1" d="M290.26,109.16c-2.32,2.21-5,3.32-8.02,3.32-4.37,0-7.78-1.81-10.21-5.43-2.43-3.62-3.65-8.59-3.65-14.9,0-6.97,1.3-12.34,3.89-16.12,2.59-3.78,6.13-5.67,10.61-5.67.97,0,1.89.12,2.75.36.86.24,1.65.57,2.35.97.7.41,1.34.91,1.9,1.5.57.59,1.08,1.27,1.54,2.02.46.76.85,1.55,1.17,2.39.32.84.59,1.71.81,2.63.21.92.38,1.88.49,2.88.11,1,.16,2,.16,3s-.04,2-.12,3c-.08,1-.23,1.98-.45,2.96h-17.58c.16,5.51.92,9.21,2.27,11.1,1.35,1.89,3.35,2.83,5.99,2.83,2.38,0,4.24-.55,5.59-1.66,1.35-1.11,2.64-3.31,3.89-6.6l1.54.24c-.97,5.24-2.62,8.96-4.94,11.18ZM279.97,74.01c-.43.11-.82.28-1.17.53-.35.24-.68.57-.97.97s-.55.89-.77,1.46-.4,1.24-.57,2.02c-.16.78-.28,1.69-.36,2.71-.08,1.03-.15,2.17-.2,3.44-.05,1.27-.08,2.69-.08,4.25l10.21-1.05c.32-5.18.19-8.9-.4-11.14-.6-2.24-2-3.36-4.21-3.36-.54,0-1.03.05-1.46.16Z"/>
    <path class="cls-1" d="M305.04,66.64c1.38-2.16,2.28-5.67,2.71-10.53h2.03v15.07h10.04v2.59h-10.04v23.65c0,3.4.27,5.63.81,6.68.54,1.05,1.62,1.58,3.24,1.58,1.35,0,2.32-.32,2.92-.97.59-.65.89-1.84.89-3.56v-10.77h2.75v10.61c0,4.21-.82,7.18-2.47,8.91-1.65,1.73-3.74,2.59-6.28,2.59-3.08,0-5.37-1.07-6.88-3.2-1.51-2.13-2.27-4.82-2.27-8.06v-27.46h-4.37v-2.59c3.24-.86,5.55-2.38,6.92-4.54Z"/>
    <path class="cls-1" d="M329.91,66.64c1.38-2.16,2.28-5.67,2.71-10.53h2.03v15.07h10.04v2.59h-10.04v23.65c0,3.4.27,5.63.81,6.68.54,1.05,1.62,1.58,3.24,1.58,1.35,0,2.32-.32,2.92-.97.59-.65.89-1.84.89-3.56v-10.77h2.75v10.61c0,4.21-.82,7.18-2.47,8.91-1.65,1.73-3.74,2.59-6.28,2.59-3.08,0-5.37-1.07-6.88-3.2-1.51-2.13-2.27-4.82-2.27-8.06v-27.46h-4.37v-2.59c3.24-.86,5.55-2.38,6.92-4.54Z"/>
    <path class="cls-1" d="M371.5,109.16c-2.32,2.21-5,3.32-8.02,3.32-4.37,0-7.78-1.81-10.21-5.43-2.43-3.62-3.65-8.59-3.65-14.9,0-6.97,1.3-12.34,3.89-16.12,2.59-3.78,6.13-5.67,10.61-5.67.97,0,1.89.12,2.75.36.86.24,1.65.57,2.35.97.7.41,1.34.91,1.9,1.5.57.59,1.08,1.27,1.54,2.02.46.76.85,1.55,1.17,2.39.32.84.59,1.71.81,2.63.21.92.38,1.88.49,2.88.11,1,.16,2,.16,3s-.04,2-.12,3c-.08,1-.23,1.98-.45,2.96h-17.58c.16,5.51.92,9.21,2.27,11.1,1.35,1.89,3.35,2.83,5.99,2.83,2.38,0,4.24-.55,5.59-1.66,1.35-1.11,2.64-3.31,3.89-6.6l1.54.24c-.97,5.24-2.62,8.96-4.94,11.18ZM361.21,74.01c-.43.11-.82.28-1.17.53-.35.24-.68.57-.97.97s-.55.89-.77,1.46-.4,1.24-.57,2.02c-.16.78-.28,1.69-.36,2.71-.08,1.03-.15,2.17-.2,3.44-.05,1.27-.08,2.69-.08,4.25l10.21-1.05c.32-5.18.19-8.9-.4-11.14-.6-2.24-2-3.36-4.21-3.36-.54,0-1.03.05-1.46.16Z"/>
  </g>
</svg>