<?xml version="1.0" encoding="UTF-8"?>
<svg id="Layer_1" xmlns="http://www.w3.org/2000/svg" viewBox="0 0 480 180">
  <defs>
    <style>
      .cls-1 {
        fill: #754646;
      }

      .cls-2 {
        fill: #ffa300;
      }
    </style>
  </defs>
  <rect class="cls-2" x="0" width="480" height="180"/>
  <g>
    <path class="cls-1" d="M112.79,56.07h8.94c.76,0,1.52.42,1.86,1.1l15.09,30.02,14.33-29.93c.25-.76,1.01-1.18,1.77-1.18h8.01c.76,0,1.27.51,1.27,1.26v56.49c0,.76-.51,1.26-1.27,1.26h-10.12c-.76,0-1.26-.51-1.26-1.26v-30.52l-10.2,20.41c-.34.67-1.1,1.1-1.85,1.1h-4.22c-.76,0-1.52-.42-1.86-1.1l-10.37-19.9v30.02c0,.76-.51,1.26-1.26,1.26h-8.85c-.76,0-1.26-.51-1.26-1.26v-56.49c0-.76.51-1.26,1.26-1.26Z"/>
    <path class="cls-1" d="M172.32,113.91l15.18-56.66c.17-.67.84-1.18,1.6-1.18h16.44c.76,0,1.43.51,1.6,1.18l15.18,56.66c.17.67-.17,1.18-.93,1.18h-10.62c-.76,0-1.35-.51-1.6-1.26l-2.7-10.62h-18.47l-2.61,10.62c-.25.76-.84,1.26-1.6,1.26h-10.54c-.76,0-1.1-.51-.93-1.18ZM203.77,92.67l-6.75-26.65-6.49,26.65h13.24Z"/>
    <path class="cls-1" d="M230.33,113.83v-56.49c0-.76.51-1.26,1.27-1.26h20.32c12.4,0,21,6.49,21,22.77v12.65c0,18.97-10.37,23.61-20.66,23.61h-20.66c-.76,0-1.27-.51-1.27-1.26ZM259.84,96.63v-21.92c0-4.72-2.53-8.09-7.93-8.09h-8.52v37.52h8.85c6.07,0,7.59-2.11,7.59-7.5Z"/>
    <path class="cls-1" d="M283.78,113.83v-56.49c0-.76.51-1.26,1.27-1.26h20.32c12.4,0,21,6.49,21,22.77v12.65c0,18.97-10.37,23.61-20.66,23.61h-20.66c-.76,0-1.27-.51-1.27-1.26ZM313.3,96.63v-21.92c0-4.72-2.53-8.09-7.93-8.09h-8.52v37.52h8.85c6.07,0,7.59-2.11,7.59-7.5Z"/>
    <path class="cls-1" d="M331.76,56.07h10.79c.76,0,1.43.51,1.69,1.18l9.19,24.2,7.93-24.2c.25-.67.93-1.18,1.69-1.18h9.78c.76,0,1.1.51.84,1.18l-14.76,38.62v17.96c0,.76-.51,1.26-1.26,1.26h-10.12c-.76,0-1.27-.51-1.27-1.26v-17.37l-15.35-39.21c-.25-.67.08-1.18.84-1.18Z"/>
  </g>
</svg>