<?xml version="1.0" encoding="UTF-8"?>
<svg id="Layer_1" xmlns="http://www.w3.org/2000/svg" viewBox="0 0 480 180">
  <defs>
    <style>
      .cls-1, .cls-2 {
        fill: none;
      }

      .cls-3 {
        fill: #b31727;
      }

      .cls-4 {
        fill: #754646;
      }

      .cls-5 {
        fill: #0096d8;
      }

      .cls-6 {
        fill: #ffa300;
      }

      .cls-7 {
        fill: #fff;
      }

      .cls-7, .cls-2 {
        stroke: #000;
        stroke-miterlimit: 10;
        stroke-width: .73px;
      }
    </style>
  </defs>
  <rect class="cls-4" x="0" width="480" height="180"/>
  <g>
    <path class="cls-6" d="M112.79,56.07h8.94c.76,0,1.52.42,1.86,1.1l15.09,30.02,14.33-29.93c.25-.76,1.01-1.18,1.77-1.18h8.01c.76,0,1.27.51,1.27,1.26v56.49c0,.76-.51,1.26-1.27,1.26h-10.12c-.76,0-1.26-.51-1.26-1.26v-30.52l-10.2,20.41c-.34.67-1.1,1.1-1.85,1.1h-4.22c-.76,0-1.52-.42-1.86-1.1l-10.37-19.9v30.02c0,.76-.51,1.26-1.26,1.26h-8.85c-.76,0-1.26-.51-1.26-1.26v-56.49c0-.76.51-1.26,1.26-1.26Z"/>
    <path class="cls-6" d="M172.32,113.91l15.18-56.66c.17-.67.84-1.18,1.6-1.18h16.44c.76,0,1.43.51,1.6,1.18l15.18,56.66c.17.67-.17,1.18-.93,1.18h-10.62c-.76,0-1.35-.51-1.6-1.26l-2.7-10.62h-18.47l-2.61,10.62c-.25.76-.84,1.26-1.6,1.26h-10.54c-.76,0-1.1-.51-.93-1.18ZM203.77,92.67l-6.75-26.65-6.49,26.65h13.24Z"/>
    <path class="cls-6" d="M230.33,113.83v-56.49c0-.76.51-1.26,1.27-1.26h20.32c12.4,0,21,6.49,21,22.77v12.65c0,18.97-10.37,23.61-20.66,23.61h-20.66c-.76,0-1.27-.51-1.27-1.26ZM259.84,96.63v-21.92c0-4.72-2.53-8.09-7.93-8.09h-8.52v37.52h8.85c6.07,0,7.59-2.11,7.59-7.5Z"/>
    <path class="cls-6" d="M283.78,113.83v-56.49c0-.76.51-1.26,1.27-1.26h20.32c12.4,0,21,6.49,21,22.77v12.65c0,18.97-10.37,23.61-20.66,23.61h-20.66c-.76,0-1.27-.51-1.27-1.26ZM313.3,96.63v-21.92c0-4.72-2.53-8.09-7.93-8.09h-8.52v37.52h8.85c6.07,0,7.59-2.11,7.59-7.5Z"/>
    <path class="cls-6" d="M331.76,56.07h10.79c.76,0,1.43.51,1.69,1.18l9.19,24.2,7.93-24.2c.25-.67.93-1.18,1.69-1.18h9.78c.76,0,1.1.51.84,1.18l-14.76,38.62v17.96c0,.76-.51,1.26-1.26,1.26h-10.12c-.76,0-1.27-.51-1.27-1.26v-17.37l-15.35-39.21c-.25-.67.08-1.18.84-1.18Z"/>
  </g>
  <g>
    <rect class="cls-7" x="228.72" y="54.23" width="44.6" height="64.48" transform="translate(2.55 -7.08) rotate(1.62)"/>
    <ellipse class="cls-2" cx="250.57" cy="102.37" rx="8.33" ry="12.59" transform="translate(141.14 349.94) rotate(-88.38)"/>
    <g>
      <path class="cls-1" d="M257.84,70.72c-1.04-.03-1.67.3-2.46,1.01-.36.34.97,1.22,2.09,1.26,1.23.03,2.37-.63,3.14-1.96-1.2,0-1.88-.29-2.77-.31ZM257.7,72.76c-.46-.01-.91-.49-.9-.95.01-.5.49-.99.95-.98.54.02.99.53.97,1.03-.01.46-.49.91-1.03.9Z"/>
      <path class="cls-1" d="M246.08,80.69c1.46,1.47,3.34,2.18,5.23,2.23s3.8-.55,5.35-1.93c-1.68.84-3.51,1.06-5.32,1.01s-3.62-.37-5.25-1.31Z"/>
      <path class="cls-1" d="M247.89,71.52c-.75-.76-1.36-1.12-2.4-1.15-.89-.03-1.59.23-2.78.15.69,1.37,1.79,2.1,3.03,2.13,1.12.03,2.49-.78,2.16-1.14ZM244.53,71.46c.01-.5.49-.99,1.03-.97.46.01.91.53.9,1.03-.01.46-.49.91-.95.9-.54-.02-.99-.49-.98-.95Z"/>
      <path class="cls-1" d="M251.84,61.47c-7.1-.2-12.97,5.35-13.18,12.49-.2,7.1,5.35,12.93,12.45,13.14,7.1.2,13.01-5.31,13.21-12.41.2-7.14-5.39-13.01-12.49-13.21ZM245.21,65.15c2.12-1.14,4.09-1.31,6.63-.78,2.56-.39,4.52-.1,6.57,1.15.19.08.3.28.29.51,0,.31-.29.57-.6.56-.12,0-.19-.04-.27-.08-1.86-1.1-3.51-1.37-5.88-.94h-.15s-.12,0-.15,0c-2.34-.57-4.01-.38-5.93.6-.08.04-.16.07-.27.07-.31,0-.57-.29-.56-.6,0-.23.13-.42.32-.49ZM255.37,76.09c.31-.03.65.21.64.6,0,.31-.25.53-.52.56-.78.09-1.2.2-1.71.53-.39.26-1.06.74-2.34.71s-1.92-.56-2.29-.84c-.49-.36-.91-.49-1.68-.63-.27-.05-.49-.28-.49-.59.01-.39.36-.61.67-.56.85.14,1.5.35,2.22.87.38.28.72.56,1.61.59s1.24-.24,1.64-.49c.75-.48,1.41-.66,2.26-.75ZM241.32,70.17c-.14-.47.1-.89.76-.87,1.5.24,2.05-.13,3.44-.1s2.34.57,3.16,1.48c1.35,1.35-.79,3.18-2.98,3.12-1.97-.06-3.63-1.34-4.38-3.64ZM259.7,78.65c-1.77,3.89-5.1,5.49-8.38,5.44h-.04s-.08,0-.08,0c-3.24-.13-6.47-1.92-8.02-5.9-.43-1.02.74-1.64,1.22-.7,1.74,2.6,4.23,3.29,6.97,3.36s5.27-.47,7.15-2.96c.53-.91,1.67-.22,1.18.77ZM257.43,74.14c-2.2-.06-4.23-2.01-2.8-3.28.87-.86,1.89-1.34,3.24-1.3s1.92.44,3.43.29c.66.02.88.45.71.91-.87,2.25-2.61,3.44-4.58,3.38Z"/>
      <path class="cls-3" d="M249.86,76.75c-.72-.52-1.37-.73-2.22-.87-.31-.05-.66.17-.67.56,0,.31.22.55.49.59.77.14,1.19.27,1.68.63.38.28,1.02.8,2.29.84s1.94-.45,2.34-.71c.51-.33.94-.44,1.71-.53.27-.03.51-.26.52-.56.01-.39-.33-.63-.64-.6-.85.09-1.51.27-2.26.75-.39.26-.75.52-1.64.49s-1.23-.31-1.61-.59Z"/>
      <path class="cls-6" d="M245.45,66.23c.12,0,.19-.03.27-.07,1.92-.99,3.59-1.17,5.93-.6h.15s.12,0,.15,0c2.37-.43,4.02-.16,5.88.94.08.04.15.08.27.08.31,0,.59-.25.6-.56,0-.23-.1-.43-.29-.51-2.05-1.26-4.01-1.54-6.57-1.15-2.53-.54-4.51-.36-6.63.78-.2.07-.32.26-.32.49,0,.31.25.59.56.6Z"/>
      <path d="M246.46,71.51c.01-.5-.43-1.02-.9-1.03-.54-.02-1.02.47-1.03.97-.01.46.44.94.98.95.46.01.94-.44.95-.9Z"/>
      <path d="M257.76,70.83c-.46-.01-.94.48-.95.98-.01.46.44.94.9.95.54.02,1.02-.43,1.03-.9.01-.5-.43-1.02-.97-1.03Z"/>
      <path d="M251.89,59.74c-8.03-.23-14.73,6.11-14.96,14.17-.23,8.03,6.11,14.69,14.14,14.92,8.03.23,14.77-6.07,15-14.1.23-8.06-6.15-14.77-14.17-15ZM251.12,87.09c-7.1-.2-12.65-6.04-12.45-13.14.2-7.14,6.08-12.69,13.18-12.49,7.1.2,12.69,6.08,12.49,13.21-.2,7.1-6.11,12.61-13.21,12.41Z"/>
      <path class="cls-5" d="M261.3,69.85c-1.51.15-2.04-.25-3.43-.29s-2.37.43-3.24,1.3c-1.43,1.27.6,3.22,2.8,3.28,1.97.06,3.7-1.13,4.58-3.38.17-.46-.05-.89-.71-.91ZM257.46,72.98c-1.12-.03-2.45-.92-2.09-1.26.79-.71,1.42-1.04,2.46-1.01.89.03,1.57.31,2.77.31-.77,1.33-1.91,1.99-3.14,1.96Z"/>
      <path class="cls-3" d="M258.52,77.88c-1.89,2.5-4.41,3.04-7.15,2.96s-5.23-.77-6.97-3.36c-.48-.94-1.65-.32-1.22.7,1.55,3.98,4.78,5.77,8.02,5.9h.08s.04,0,.04,0c3.28.05,6.61-1.55,8.38-5.44.49-.99-.65-1.68-1.18-.77ZM251.31,82.93c-1.89-.05-3.76-.76-5.23-2.23,1.63.93,3.44,1.26,5.25,1.31s3.63-.17,5.32-1.01c-1.55,1.39-3.45,1.99-5.35,1.93Z"/>
      <path class="cls-5" d="M248.68,70.69c-.82-.91-1.81-1.44-3.16-1.48s-1.94.33-3.44.1c-.66-.02-.9.4-.76.87.75,2.3,2.41,3.58,4.38,3.64,2.2.06,4.34-1.77,2.98-3.12ZM242.7,70.52c1.2.07,1.9-.18,2.78-.15,1.04.03,1.65.39,2.4,1.15.34.36-1.04,1.17-2.16,1.14-1.23-.03-2.33-.76-3.03-2.13Z"/>
    </g>
    <circle class="cls-6" cx="250.63" cy="100.04" r="3.8"/>
  </g>
  <g>
    <rect class="cls-7" x="282.42" y="54.04" width="44.6" height="64.48" transform="translate(-3.68 14.24) rotate(-2.66)"/>
    <ellipse class="cls-2" cx="305.46" cy="102.17" rx="12.59" ry="8.33" transform="translate(-4.41 14.29) rotate(-2.66)"/>
    <g>
      <path class="cls-1" d="M310.34,70.06c-1.04.05-1.64.42-2.38,1.19-.33.36,1.06,1.15,2.18,1.1,1.23-.06,2.32-.8,2.99-2.19-1.19.09-1.9-.14-2.79-.1ZM310.36,72.11c-.46.02-.95-.42-.97-.88-.02-.5.42-1.02.88-1.05.54-.03,1.03.45,1.05.96.02.46-.42.95-.96.97Z"/>
      <path class="cls-1" d="M299.37,80.89c1.57,1.36,3.49,1.92,5.38,1.84s3.75-.83,5.19-2.33c-1.62.96-3.42,1.32-5.23,1.4s-3.64-.1-5.34-.91Z"/>
      <path class="cls-1" d="M300.48,71.6c-.81-.7-1.44-1.02-2.48-.97-.89.04-1.57.34-2.77.36.8,1.32,1.95,1.96,3.18,1.9,1.12-.05,2.43-.96,2.07-1.29ZM297.13,71.8c-.02-.5.42-1.02.96-1.05.46-.02.95.46.97.96.02.46-.42.95-.88.97-.54.03-1.02-.42-1.05-.88Z"/>
      <path class="cls-1" d="M303.67,61.29c-7.1.33-12.54,6.3-12.21,13.44.33,7.1,6.3,12.5,13.4,12.17s12.58-6.27,12.25-13.36c-.33-7.13-6.34-12.57-13.44-12.24ZM297.34,65.45c2.03-1.29,3.98-1.61,6.55-1.27,2.52-.58,4.5-.44,6.64.66.2.07.32.26.33.49.01.31-.24.59-.55.61-.12,0-.19-.03-.27-.06-1.94-.95-3.61-1.11-5.94-.5h-.15s-.12.01-.15.01c-2.38-.39-4.02-.08-5.86,1.05-.08.04-.15.08-.27.09-.31.01-.59-.24-.61-.55-.01-.23.1-.43.29-.52ZM308.28,75.61c.31-.05.66.16.68.55.01.31-.21.55-.47.6-.77.15-1.18.29-1.67.66-.37.29-1.01.82-2.28.88s-1.95-.41-2.35-.66c-.52-.32-.95-.42-1.72-.5-.27-.03-.51-.25-.53-.56-.02-.39.32-.63.63-.61.85.08,1.52.24,2.27.71.4.25.76.51,1.64.46s1.22-.33,1.59-.62c.71-.54,1.36-.76,2.2-.91ZM293.83,70.75c-.18-.46.04-.89.69-.92,1.51.12,2.03-.29,3.42-.35s2.38.39,3.27,1.24c1.45,1.25-.55,3.23-2.74,3.33-1.97.09-3.72-1.06-4.64-3.3ZM312.79,77.83c-1.48,4.01-4.67,5.86-7.95,6.05h-.04s-.08,0-.08,0c-3.24.11-6.6-1.43-8.44-5.29-.51-.98.62-1.69,1.16-.79,1.93,2.46,4.47,2.96,7.2,2.83s5.22-.86,6.91-3.49c.46-.95,1.65-.35,1.23.68ZM310.19,73.51c-2.2.1-4.37-1.69-3.04-3.07.81-.93,1.79-1.47,3.14-1.54s1.95.3,3.44.03c.66-.03.91.38.77.85-.7,2.31-2.34,3.63-4.31,3.72Z"/>
      <path class="cls-3" d="M302.84,76.67c-.76-.47-1.42-.63-2.27-.71-.31-.02-.65.22-.63.61.01.31.26.53.53.56.78.08,1.21.18,1.72.5.4.25,1.08.72,2.35.66s1.9-.59,2.28-.88c.49-.37.9-.51,1.67-.66.27-.05.49-.29.47-.6-.02-.39-.38-.6-.68-.55-.84.16-1.49.38-2.2.91-.37.29-.71.57-1.59.62s-1.25-.21-1.64-.46Z"/>
      <path class="cls-6" d="M297.66,66.52c.12,0,.19-.05.27-.09,1.84-1.13,3.49-1.44,5.86-1.05h.15s.12-.01.15-.01c2.33-.61,4-.46,5.94.5.08.03.16.07.27.06.31-.01.57-.3.55-.61-.01-.23-.14-.42-.33-.49-2.14-1.1-4.12-1.24-6.64-.66-2.57-.34-4.52-.02-6.55,1.27-.19.09-.3.28-.29.52.01.31.3.57.61.55Z"/>
      <path d="M299.06,71.71c-.02-.5-.51-.98-.97-.96-.54.03-.98.55-.96,1.05.02.46.51.9,1.05.88.46-.02.9-.51.88-.97Z"/>
      <path d="M310.27,70.18c-.46.02-.9.54-.88,1.05.02.46.51.9.97.88.54-.03.98-.51.96-.97-.02-.5-.51-.98-1.05-.96Z"/>
      <path d="M303.59,59.56c-8.02.37-14.23,7.19-13.86,15.25.37,8.02,7.19,14.2,15.21,13.82,8.02-.37,14.27-7.16,13.9-15.18-.37-8.06-7.23-14.27-15.25-13.9ZM304.86,86.9c-7.1.33-13.07-5.07-13.4-12.17-.33-7.13,5.11-13.11,12.21-13.44s13.11,5.11,13.44,12.24c.33,7.1-5.15,13.03-12.25,13.36Z"/>
      <path class="cls-5" d="M313.73,68.94c-1.49.26-2.05-.1-3.44-.03s-2.33.61-3.14,1.54c-1.33,1.38.84,3.17,3.04,3.07,1.97-.09,3.61-1.4,4.31-3.72.13-.47-.12-.88-.77-.85ZM310.14,72.35c-1.12.05-2.51-.73-2.18-1.1.74-.77,1.34-1.14,2.38-1.19.89-.04,1.59.2,2.79.1-.67,1.38-1.76,2.13-2.99,2.19Z"/>
      <path class="cls-3" d="M311.56,77.15c-1.69,2.63-4.17,3.36-6.91,3.49s-5.27-.37-7.2-2.83c-.54-.9-1.67-.19-1.16.79,1.84,3.86,5.2,5.4,8.44,5.29h.08s.04,0,.04,0c3.28-.19,6.47-2.04,7.95-6.05.42-1.02-.77-1.63-1.23-.68ZM304.75,82.73c-1.89.09-3.81-.48-5.38-1.84,1.7.81,3.52,1,5.34.91s3.61-.44,5.23-1.4c-1.44,1.5-3.3,2.24-5.19,2.33Z"/>
      <path class="cls-5" d="M301.21,70.72c-.89-.85-1.92-1.3-3.27-1.24s-1.91.48-3.42.35c-.66.03-.87.47-.69.92.92,2.24,2.67,3.39,4.64,3.3,2.2-.1,4.19-2.09,2.74-3.33ZM295.24,71c1.2-.02,1.88-.32,2.77-.36,1.04-.05,1.67.27,2.48.97.36.33-.95,1.24-2.07,1.29-1.23.06-2.38-.58-3.18-1.9Z"/>
    </g>
    <circle class="cls-6" cx="305.35" cy="99.84" r="3.8"/>
  </g>
</svg>