<?xml version="1.0" encoding="UTF-8"?>
<svg id="Layer_1" xmlns="http://www.w3.org/2000/svg" viewBox="0 0 480 180">
  <defs>
    <style>
      .cls-1 {
        fill: #b2dfff;
      }

      .cls-2 {
        fill: #25255c;
      }
    </style>
  </defs>
  <rect class="cls-1" x="0" width="480" height="180"/>
  <g>
    <path class="cls-2" d="M116.08,111.71v-5.2h7.44v-44.4h-6.64v-5.2h14.08l29.44,44.32-1.6-.08v-39.04h-9.28v-5.2h22.08v5.2h-6.4v49.6h-6.96l-29.84-45.6h1.68v40.4h9.76v5.2h-23.76Z"/>
    <path class="cls-2" d="M174.88,92.35c0-3.73.77-7.13,2.32-10.2,1.55-3.07,3.75-5.51,6.6-7.32,2.85-1.81,6.23-2.72,10.12-2.72s7.2.91,10.08,2.72c2.88,1.81,5.12,4.25,6.72,7.32,1.6,3.07,2.4,6.47,2.4,10.2,0,3.52-.8,6.81-2.4,9.88-1.6,3.07-3.84,5.55-6.72,7.44-2.88,1.89-6.24,2.84-10.08,2.84s-7.27-.95-10.12-2.84c-2.85-1.89-5.05-4.37-6.6-7.44-1.55-3.07-2.32-6.36-2.32-9.88ZM193.92,78.11c-2.29,0-4.15.19-5.56.56-1.41.37-2.48,1.08-3.2,2.12s-1.21,2.48-1.48,4.32c-.27,1.84-.4,4.25-.4,7.24s.13,5.24.4,7.08c.27,1.84.77,3.28,1.52,4.32.75,1.04,1.83,1.76,3.24,2.16,1.41.4,3.24.6,5.48.6s4.15-.21,5.56-.64c1.41-.43,2.51-1.16,3.28-2.2.77-1.04,1.29-2.48,1.56-4.32.27-1.84.4-4.17.4-7,0-2.99-.13-5.4-.4-7.24-.27-1.84-.77-3.28-1.52-4.32-.75-1.04-1.83-1.75-3.24-2.12-1.41-.37-3.29-.56-5.64-.56Z"/>
    <path class="cls-2" d="M218.32,111.71v-4.8h19.68v4.8h-19.68ZM218.96,77.71v-4.8h9.2l2.08,4.8h-.96c1.23-1.81,2.83-3.2,4.8-4.16,1.97-.96,4.08-1.44,6.32-1.44,1.6,0,3.12.17,4.56.52,1.44.35,2.91.95,4.4,1.8v12.72h-6.72l1.68-11.76,2.16,3.12c-1.49-.16-2.85-.27-4.08-.32-1.23-.05-2.46-.08-3.68-.08s-2.43.05-3.6.16c-1.17.11-2.37.35-3.6.72v32.72h-8v-34h-4.56Z"/>
    <path class="cls-2" d="M254.48,111.71v-4.8h18.48v4.8h-18.48ZM255.2,77.71v-4.8h10.24l1.68,5.04h-.64c1.12-1.87,2.8-3.31,5.04-4.32,2.24-1.01,4.51-1.52,6.8-1.52,2.67,0,4.96.51,6.88,1.52,1.92,1.01,3.49,2.45,4.72,4.32h-.8c1.65-1.92,3.59-3.37,5.8-4.36,2.21-.99,4.76-1.48,7.64-1.48,3.31,0,6.07.63,8.28,1.88,2.21,1.25,3.88,3.05,5,5.4,1.12,2.35,1.68,5.23,1.68,8.64v23.68h-8v-27.36c0-1.71-.23-3-.68-3.88-.45-.88-1.27-1.49-2.44-1.84-1.17-.35-2.85-.52-5.04-.52-2.03,0-3.71.16-5.04.48-1.33.32-2.56.69-3.68,1.12v32h-8v-27.28c0-1.71-.16-3.01-.48-3.92-.32-.91-1.01-1.53-2.08-1.88-1.07-.35-2.77-.52-5.12-.52-1.81,0-3.52.13-5.12.4-1.6.27-2.96.67-4.08,1.2v32h-8v-34h-4.56ZM279.36,111.71v-4.8h18.72v4.8h-18.72ZM304.56,111.71v-4.8h18.24v4.8h-18.24Z"/>
    <path class="cls-2" d="M327.84,100.43c0-3.95,1.41-6.89,4.24-8.84,2.83-1.95,7.04-2.92,12.64-2.92h8.64v5.28h-12.16c-1.39,0-2.48.16-3.28.48-.8.32-1.35.95-1.64,1.88-.29.93-.44,2.28-.44,4.04s.16,3.01.48,3.92c.32.91,1.01,1.51,2.08,1.8,1.07.29,2.69.44,4.88.44,3.25,0,5.49-.29,6.72-.88,1.23-.59,1.84-1.87,1.84-3.84v-18.24c0-1.55-.2-2.75-.6-3.6-.4-.85-1.19-1.44-2.36-1.76-1.17-.32-2.96-.48-5.36-.48-2.08,0-3.81.07-5.2.2-1.39.13-2.93.33-4.64.6l2.56-2.72,1.36,9.52h-6.72v-9.04c1.81-1.55,3.76-2.63,5.84-3.24,2.08-.61,4.35-.92,6.8-.92,3.63,0,6.61.65,8.96,1.96,2.35,1.31,4.08,3.19,5.2,5.64,1.12,2.45,1.68,5.41,1.68,8.88v18.32h5.28v4.8h-10.16l-1.44-6.64,1.2,1.84c-1.49,1.92-3.27,3.33-5.32,4.24-2.05.91-4.55,1.36-7.48,1.36-2.56,0-4.87-.49-6.92-1.48-2.05-.99-3.68-2.39-4.88-4.2-1.2-1.81-1.8-3.95-1.8-6.4Z"/>
  </g>
</svg>