<?xml version="1.0" encoding="UTF-8"?>
<svg id="Layer_1" xmlns="http://www.w3.org/2000/svg" viewBox="0 0 480 180">
  <defs>
    <style>
      .cls-1 {
        fill: #fff980;
      }

      .cls-2 {
        fill: #e51717;
      }
    </style>
  </defs>
  <rect class="cls-1" y="-.18" width="480" height="180.35"/>
  <g>
    <path class="cls-2" d="M152.2,112.15c-1.17-.4-2.24-.95-3.2-1.64l.56-1.52c1.01.59,2.03,1.04,3.04,1.36,1.01.32,2.16.48,3.44.48,1.55,0,2.92-.55,4.12-1.64,1.2-1.09,1.8-2.76,1.8-5,0-1.76-.21-3.43-.64-5-.43-1.57-.96-3.16-1.6-4.76l-7.28-20.88c-.48-1.49-.87-2.76-1.16-3.8-.29-1.04-.44-2.25-.44-3.64,0-1.23.27-2.33.8-3.32.53-.99,1.31-1.79,2.32-2.4,1.01-.61,2.21-.92,3.6-.92.91,0,1.73.08,2.48.24.75.16,1.52.48,2.32.96l-.56,1.52c-.69-.32-1.33-.56-1.92-.72-.59-.16-1.25-.24-2-.24-1.28,0-2.25.4-2.92,1.2-.67.8-1,1.92-1,3.36,0,1.01.11,1.95.32,2.8.21.85.51,1.79.88,2.8l7.2,20.32c.64,1.81,1.19,3.36,1.64,4.64.45,1.28.8,2.48,1.04,3.6.24,1.12.36,2.37.36,3.76,0,1.49-.35,2.95-1.04,4.36-.69,1.41-1.71,2.55-3.04,3.4-1.33.85-2.99,1.28-4.96,1.28-1.6,0-2.99-.2-4.16-.6Z"/>
    <path class="cls-2" d="M187.56,112.27l-6.24-45.76h-.64l-5.92,45.76h-2.24l7.12-52.4h3.76l7.68,52.4h-3.52ZM175.16,101.63v-1.68h12v1.68h-12Z"/>
    <path class="cls-2" d="M199.8,59.87h3.6c3.73,0,6.51,1.16,8.32,3.48,1.81,2.32,2.72,5.45,2.72,9.4,0,1.71-.2,3.39-.6,5.04-.4,1.65-1.15,3.13-2.24,4.44-1.09,1.31-2.71,2.28-4.84,2.92l.72-.72c3.04.85,5.32,2.47,6.84,4.84,1.52,2.37,2.28,5.45,2.28,9.24,0,4.91-1.04,8.43-3.12,10.56-2.08,2.13-5.07,3.2-8.96,3.2h-4.72v-52.4ZM203.08,61.55v49.04h1.92c1.81,0,3.32-.4,4.52-1.2,1.2-.8,2.12-2.09,2.76-3.88.64-1.79.96-4.15.96-7.08,0-4.32-.83-7.48-2.48-9.48-1.65-2-3.79-3-6.4-3h-2v-1.6h1.84c2.4,0,4.16-.97,5.28-2.92,1.12-1.95,1.68-4.76,1.68-8.44,0-3.15-.31-5.55-.92-7.2-.61-1.65-1.45-2.77-2.52-3.36-1.07-.59-2.35-.88-3.84-.88h-.8Z"/>
    <path class="cls-2" d="M226.72,106.03c-1.68-4.48-2.52-11.15-2.52-20s.84-15.09,2.52-19.68c1.68-4.59,3.99-6.88,6.92-6.88s5.27,2.29,7,6.88c1.73,4.59,2.6,11.15,2.6,19.68s-.87,15.52-2.6,20c-1.73,4.48-4.07,6.72-7,6.72s-5.24-2.24-6.92-6.72ZM236.32,109.59c.77-.88,1.4-2.29,1.88-4.24.48-1.95.84-4.51,1.08-7.68.24-3.17.36-7.05.36-11.64s-.12-8.2-.36-11.32c-.24-3.12-.6-5.68-1.08-7.68-.48-2-1.11-3.45-1.88-4.36-.77-.91-1.67-1.36-2.68-1.36-1.07,0-1.97.45-2.72,1.36-.75.91-1.35,2.36-1.8,4.36-.45,2-.8,4.56-1.04,7.68s-.36,6.89-.36,11.32.12,8.47.36,11.64c.24,3.17.59,5.73,1.04,7.68.45,1.95,1.05,3.36,1.8,4.24.75.88,1.65,1.32,2.72,1.32s1.91-.44,2.68-1.32Z"/>
    <path class="cls-2" d="M253.64,61.55h-6.72l.48-1.68h15.92l.48,1.68h-6.72v50.72h-3.44v-50.72Z"/>
    <path class="cls-2" d="M281.4,112.27l-6.24-45.76h-.64l-5.92,45.76h-2.24l7.12-52.4h3.76l7.68,52.4h-3.52ZM269,101.63v-1.68h12v1.68h-12Z"/>
    <path class="cls-2" d="M296.76,109.95c-1.55-1.87-2.73-4.65-3.56-8.36-.83-3.71-1.24-8.31-1.24-13.8,0-9.97.8-17.19,2.4-21.64,1.6-4.45,3.97-6.68,7.12-6.68.96,0,1.73.09,2.32.28.59.19,1.23.52,1.92,1l-.72,1.36c-.53-.27-1.08-.48-1.64-.64-.56-.16-1.16-.24-1.8-.24-.96,0-1.81.43-2.56,1.28-.75.85-1.39,2.28-1.92,4.28-.53,2-.93,4.71-1.2,8.12-.27,3.41-.4,7.71-.4,12.88,0,4.59.19,8.39.56,11.4.37,3.01.87,5.39,1.48,7.12.61,1.73,1.33,2.96,2.16,3.68.83.72,1.72,1.08,2.68,1.08.64,0,1.27-.08,1.88-.24s1.24-.43,1.88-.8l-1.2,1.28v-26.96h-5.36l.56-1.68h8v28.32c-.91.53-1.81.96-2.72,1.28-.91.32-1.92.48-3.04.48-2.19,0-4.05-.93-5.6-2.8Z"/>
    <path class="cls-2" d="M318.44,59.87h10.4l.4,1.68h-7.44v48.96h8.56l-.48,1.76h-11.44v-52.4ZM320.6,86.59h8.32v1.76h-8.32v-1.76Z"/>
  </g>
</svg>