<?xml version="1.0" encoding="UTF-8"?>
<svg id="Layer_1" xmlns="http://www.w3.org/2000/svg" viewBox="0 0 480 180">
  <defs>
    <style>
      .cls-1 {
        fill: #fff980;
      }

      .cls-2 {
        fill: #e51717;
      }
    </style>
  </defs>
  <rect class="cls-2" x="0" y="-.18" width="480" height="180.35"/>
  <g>
    <path class="cls-1" d="M124.88,112.27c-1.55-.53-3.12-1.31-4.72-2.32l1.84-5.28c1.23.53,2.4.95,3.52,1.24,1.12.29,2.29.44,3.52.44,1.55,0,2.67-.33,3.36-1,.69-.67,1.04-1.56,1.04-2.68s-.16-2.21-.48-3.12c-.32-.91-.85-2.11-1.6-3.6l-6.32-12.8c-.96-1.92-1.81-3.85-2.56-5.8-.75-1.95-1.12-3.99-1.12-6.12s.49-4.01,1.48-5.8c.99-1.79,2.39-3.23,4.2-4.32,1.81-1.09,3.97-1.64,6.48-1.64,1.76,0,3.27.16,4.52.48,1.25.32,2.49.85,3.72,1.6l-1.84,5.04c-.91-.43-1.71-.73-2.4-.92-.69-.19-1.49-.28-2.4-.28-1.39,0-2.39.37-3,1.12-.61.75-.92,1.71-.92,2.88s.23,2.24.68,3.2c.45.96,1.08,2.08,1.88,3.36l6.4,10.32c1.01,1.6,1.85,3.09,2.52,4.48.67,1.39,1.19,2.83,1.56,4.32.37,1.49.56,3.17.56,5.04,0,2.4-.55,4.59-1.64,6.56-1.09,1.97-2.64,3.53-4.64,4.68-2,1.15-4.39,1.72-7.16,1.72s-4.93-.27-6.48-.8Z"/>
    <path class="cls-1" d="M165.52,112.27l-5.04-40h-.8l-4.16,40h-7.68l6.96-52.4h14.32l8.4,52.4h-12ZM152.88,101.63v-5.2h15.04v5.2h-15.04Z"/>
    <path class="cls-1" d="M181.52,59.87h11.6c5.39,0,9.43,1.13,12.12,3.4,2.69,2.27,4.04,5.35,4.04,9.24,0,2.08-.35,3.91-1.04,5.48-.69,1.57-1.75,2.88-3.16,3.92-1.41,1.04-3.19,1.83-5.32,2.36l-.4-1.68c3.36.64,6.19,2.2,8.48,4.68,2.29,2.48,3.44,6.01,3.44,10.6s-1.48,8.27-4.44,10.72c-2.96,2.45-7.24,3.68-12.84,3.68h-12.48v-52.4ZM192.72,65.07v42h2.4c1.07,0,1.95-.24,2.64-.72.69-.48,1.23-1.41,1.6-2.8.37-1.39.56-3.44.56-6.16,0-3.95-.39-6.61-1.16-8-.77-1.39-2.07-2.08-3.88-2.08h-3.92v-4.8h2.24c1.97,0,3.41-.57,4.32-1.72.91-1.15,1.36-3.43,1.36-6.84,0-2.4-.13-4.24-.4-5.52-.27-1.28-.75-2.16-1.44-2.64-.69-.48-1.65-.72-2.88-.72h-1.44Z"/>
    <path class="cls-1" d="M219.12,106.19c-2.83-4.59-4.24-11.31-4.24-20.16s1.41-15.09,4.24-19.68c2.83-4.59,6.8-6.88,11.92-6.88s9.03,2.29,11.88,6.88c2.85,4.59,4.28,11.15,4.28,19.68s-1.43,15.57-4.28,20.16c-2.85,4.59-6.81,6.88-11.88,6.88s-9.09-2.29-11.92-6.88ZM232.96,106.35c.53-.48.95-1.44,1.24-2.88.29-1.44.51-3.56.64-6.36.13-2.8.2-6.49.2-11.08s-.07-7.99-.2-10.68c-.13-2.69-.35-4.76-.64-6.2-.29-1.44-.71-2.41-1.24-2.92-.53-.51-1.17-.76-1.92-.76-.8,0-1.45.25-1.96.76-.51.51-.91,1.48-1.2,2.92-.29,1.44-.49,3.51-.6,6.2-.11,2.69-.16,6.25-.16,10.68s.05,8.28.16,11.08c.11,2.8.31,4.92.6,6.36.29,1.44.69,2.4,1.2,2.88.51.48,1.16.72,1.96.72.75,0,1.39-.24,1.92-.72Z"/>
    <path class="cls-1" d="M253.76,65.07h-7.2l1.2-5.2h24l1.2,5.2h-7.2v47.2h-12v-47.2Z"/>
    <path class="cls-1" d="M289.52,112.27l-5.04-40h-.8l-4.16,40h-7.68l6.96-52.4h14.32l8.4,52.4h-12ZM276.88,101.63v-5.2h15.04v5.2h-15.04Z"/>
    <path class="cls-1" d="M311.16,110.03c-2.53-2.03-4.36-5-5.48-8.92s-1.68-8.68-1.68-14.28c0-9.23,1.51-16.09,4.52-20.6,3.01-4.51,7.43-6.76,13.24-6.76,1.97,0,3.71.19,5.2.56,1.49.37,2.99.85,4.48,1.44l-1.76,5.04c-1.49-.43-2.89-.72-4.2-.88-1.31-.16-2.52-.24-3.64-.24-.96,0-1.81.25-2.56.76-.75.51-1.36,1.49-1.84,2.96-.48,1.47-.84,3.63-1.08,6.48-.24,2.85-.36,6.6-.36,11.24s.08,8.68.24,11.48.44,4.87.84,6.2c.4,1.33.95,2.2,1.64,2.6.69.4,1.57.6,2.64.6.96,0,1.81-.08,2.56-.24.75-.16,1.52-.37,2.32-.64l-2.64,1.92v-23.52h-4.32l1.52-5.2h13.6v28.8c-1.81,1.33-3.72,2.37-5.72,3.12-2,.75-4.41,1.12-7.24,1.12-4.32,0-7.75-1.01-10.28-3.04Z"/>
    <path class="cls-1" d="M339.44,59.87h18.16l.64,5.2h-6.8v41.6h7.76l-1.12,5.6h-18.64v-52.4ZM345.92,83.39h12.48v5.6h-12.48v-5.6Z"/>
  </g>
</svg>