<?xml version="1.0" encoding="UTF-8"?>
<svg id="Layer_1" xmlns="http://www.w3.org/2000/svg" viewBox="0 0 480 180">
  <defs>
    <style>
      .cls-1 {
        fill: #1c1545;
      }

      .cls-2 {
        fill: #6eff6e;
      }
    </style>
  </defs>
  <rect class="cls-2" x="0" width="480" height="180"/>
  <g>
    <path class="cls-1" d="M107.13,67.74c.34-1.39.85-2.66,1.53-3.83.68-1.16,1.5-2.22,2.46-3.19.96-.96,2.05-1.8,3.28-2.51,1.22-.71,2.56-1.3,4.04-1.79,1.47-.48,3.05-.85,4.72-1.11,1.67-.25,3.45-.38,5.32-.38,2.78,0,5.77.2,8.97.6,3.2.4,6.22.96,9.06,1.7v8.67c-3.57-.68-6.73-1.12-9.48-1.32-2.75-.2-5.6-.3-8.54-.3-3.86,0-6.27.38-7.23,1.15-.96.77-1.45,2.42-1.45,4.97,0,2.16.27,3.67.81,4.55.54.88,2,1.43,4.38,1.66l5.19.51c7.09.74,12.42,2.65,15.99,5.74,3.57,3.09,5.36,7.44,5.36,13.05,0,1.48-.13,2.85-.38,4.12-.26,1.28-.64,2.47-1.15,3.57-.51,1.11-1.13,2.13-1.87,3.06s-1.57,1.79-2.51,2.55-1.94,1.46-3.02,2.08c-1.08.62-2.22,1.16-3.44,1.62-1.22.45-2.5.82-3.83,1.11-1.33.28-2.72.5-4.17.64-1.45.14-2.91.21-4.38.21-2.89,0-6-.24-9.31-.72s-6.65-1.35-9.99-2.59v-9.18c2.78.74,5.94,1.32,9.48,1.74,3.54.43,6.79.64,9.74.64,1.25,0,2.35-.01,3.32-.04.96-.03,1.83-.09,2.59-.17s1.43-.18,2-.3c.57-.11,1.06-.27,1.49-.47.43-.2.78-.41,1.06-.64.28-.23.51-.48.68-.77.17-.28.3-.61.38-.98.08-.37.14-.78.17-1.23.03-.45.04-.94.04-1.45,0-1.93-.26-3.3-.77-4.12-.51-.82-1.59-1.32-3.23-1.49l-5.53-.51c-7.48-.68-13.07-2.75-16.75-6.21-3.69-3.46-5.53-8.19-5.53-14.2,0-1.59.17-3.07.51-4.46Z"/>
    <path class="cls-1" d="M158.83,55.79h40.31v8.93h-24.15v15.56h19.13v7.65h-19.13v17.18h25.34v8.93h-41.5v-58.25Z"/>
    <path class="cls-1" d="M208.75,114.04v-58.25h7.57l29.59,32.65v-32.65h10.88v58.25h-8.84l-27.89-31.29v31.29h-11.31Z"/>
    <path class="cls-1" d="M287.83,63.87h-18.62v-8.08h40.05v5.53l-23.13,43.79h24.92v8.93h-45.58v-7.48l22.37-42.69Z"/>
    <path class="cls-1" d="M338.52,55.79h14.71l21.43,58.25h-17.6l-3.57-10.63h-21.26l-3.4,10.63h-11.48l21.17-58.25ZM351.02,96.02l-8.33-24.83-7.99,24.83h16.33Z"/>
  </g>
</svg>